<svg version="1.1" xmlns="http://www.w3.org/2000/svg" xmlns:xlink="http://www.w3.org/1999/xlink" width="248.15717" height="122.11016" viewBox="0,0,248.15717,122.11016"><g transform="translate(-110.34061,-86.47743)"><g data-paper-data="{&quot;isPaintingLayer&quot;:true}" fill-rule="nonzero" stroke="none" stroke-linecap="butt" stroke-linejoin="miter" stroke-miterlimit="10" stroke-dasharray="" stroke-dashoffset="0" style="mix-blend-mode: normal"><path d="M221.01021,98.63205c4.066,-2.21606 8.37288,-3.64688 12.92062,-4.29242c3.00614,-0.45285 5.98819,-0.35649 8.94615,0.28905c3.353,0.78044 6.46994,2.11008 9.35083,3.98892c2.17428,1.41842 4.12057,3.07566 5.83885,4.9717c0.0601,0.06308 0.11792,0.1257 0.17343,0.18788c2.11008,2.35096 3.9311,4.89461 5.46308,7.63097c0.01698,0.03057 0.03143,0.05947 0.04335,0.08672c0.091,-0.02733 0.18254,-0.05142 0.2746,-0.07227c-0.14061,-0.26127 -0.28032,-0.52624 -0.41913,-0.7949c-0.15503,-0.29943 -0.29955,-0.59812 -0.43358,-0.89606c-0.02875,-0.04671 -0.05765,-0.09488 -0.08672,-0.14453c-1.37755,-2.33925 -2.96252,-4.5216 -4.7549,-6.54703c-0.19876,-0.22948 -0.4011,-0.4559 -0.60701,-0.67927c-1.50307,-1.63796 -3.14585,-3.14103 -4.92833,-4.50921c-1.54161,-1.19475 -3.19402,-2.2546 -4.95724,-3.17957c-1.32252,-0.69274 -2.6907,-1.26122 -4.10454,-1.7054c-0.74808,-0.2315 -1.50925,-0.42902 -2.28351,-0.59255c-0.47212,-0.09635 -0.93942,-0.18788 -1.4019,-0.2746l1.0984,-0.2457l-1.6765,-0.18788c1.64755,-0.28879 3.29515,-0.56821 4.94279,-0.83825c3.58977,-0.56625 7.18847,-1.07691 10.79609,-1.53198c4.4225,-0.59738 8.86426,-0.98278 13.3253,-1.1562c2.01373,-0.05781 4.01301,-0.04335 5.99783,0.04335c0.6364,0.04897 1.27232,0.08269 1.90775,0.10117c0.28002,0.01385 0.55943,0.02348 0.83825,0.0289c0.62014,0.00708 1.23679,0.00226 1.84993,-0.01445c0.18838,-0.00466 0.37144,-0.00949 0.5492,-0.01445c0.19967,-0.05115 0.39718,-0.09933 0.59255,-0.14453c0.40268,-0.23854 0.80735,-0.4746 1.21402,-0.70818c-0.02059,-0.01509 -0.04467,-0.02955 -0.07227,-0.04335c-0.08002,-0.03079 -0.16191,-0.06451 -0.2457,-0.10117c0.5862,0.05649 1.15466,0.16247 1.7054,0.31795c0.39346,0.1117 0.77886,0.24659 1.1562,0.40467c0.44551,0.19895 0.87909,0.43019 1.30073,0.69372c3.21849,2.02675 5.85849,6.15055 7.92002,12.37142c0.0953,0.27046 0.18683,0.54505 0.2746,0.8238c1.18512,3.76731 2.09081,8.03083 2.71709,12.79055c0.02736,0.21136 0.05145,0.42335 0.07227,0.63592c0.12883,1.00431 0.23963,1.99672 0.33241,2.97723c0.25051,2.70768 0.37577,5.31878 0.37577,7.8333c0,3.50716 -0.37095,7.29374 -1.11285,11.35974c-0.69309,3.77243 -1.08812,7.55901 -1.18512,11.35974c-0.06838,-0.03173 -0.14065,-0.06545 -0.21679,-0.10117c0.01817,0.05901 0.03263,0.11682 0.04335,0.17343c0.05089,0.26105 0.09906,0.52119 0.14453,0.78044c0.00542,0.02966 0.01023,0.05856 0.01445,0.08672c0.01136,0.06048 0.021,0.11829 0.0289,0.17343c0.30016,1.50292 0.76264,2.93855 1.38745,4.30687c0.17881,0.37754 0.36669,0.74849 0.56365,1.11285c0.26828,0.49711 0.54287,0.9885 0.8238,1.47417c1.12019,1.8832 2.37756,3.67533 3.77213,5.37637c0.31795,0.39504 0.59738,0.82861 0.83825,1.30073v0c0.06793,0.14614 0.12575,0.29548 0.17343,0.44803c-0.1927,-0.0289 -0.38058,-0.05299 -0.56365,-0.07227c-0.06582,-0.01551 -0.13327,-0.02996 -0.20233,-0.04335c-0.09473,-0.02126 -0.19109,-0.04054 -0.28905,-0.05781c-0.14453,-0.0289 -0.28424,-0.05299 -0.41913,-0.07227c-0.12526,-0.05781 -0.2457,-0.11081 -0.36132,-0.15898c-0.18307,-0.09635 -0.36132,-0.1927 -0.53475,-0.28905c-0.50102,-1.11766 -1.05504,-2.20161 -1.66205,-3.25183c-0.53956,-0.9346 -1.20438,-1.74394 -1.99445,-2.42803c-0.26979,-0.25051 -0.5492,-0.49139 -0.83825,-0.72263c0.0289,0.30833 0.07227,0.61664 0.13007,0.92497c0.01927,0.11562 0.04818,0.23606 0.08672,0.36132c0.00964,0.01927 0.02409,0.04335 0.04335,0.07227c0.01927,0.0289 0.04335,0.06263 0.07227,0.10117c0.05781,0.08672 0.11562,0.17825 0.17343,0.2746c0.03854,0.05781 0.07708,0.12044 0.11562,0.18788c0.04818,0.06744 0.09635,0.13971 0.14453,0.21679c0.10598,0.16379 0.21197,0.33241 0.31795,0.50584c0.05781,0.10598 0.12044,0.21679 0.18788,0.33241l-0.8527,-1.21402l-0.10117,0.10117c0.01927,0.27941 0.08672,0.54439 0.20233,0.7949c0.6565,1.4407 1.40804,2.81852 2.2546,4.13345c0.04776,0.07975 0.09594,0.15683 0.14453,0.23125c0.27159,0.42436 0.50283,0.86757 0.69372,1.32964c0.256,0.5821 0.44871,1.19392 0.5781,1.83548c0.08126,0.39376 0.14389,0.7888 0.18788,1.18512c0.17968,1.42682 0.14114,2.85763 -0.11562,4.29242c-0.27941,1.53198 -0.80453,2.97242 -1.57533,4.32133c-0.14453,0.25051 -0.28905,0.50584 -0.43358,0.76599c0,-0.82861 -0.06744,-1.64278 -0.20233,-2.44249c-0.36613,-2.24496 -0.64555,-4.49958 -0.83825,-6.76382c-0.03406,-0.37461 -0.09187,-0.74074 -0.17343,-1.0984c-0.03621,-0.20316 -0.08438,-0.4055 -0.14453,-0.60701c-0.14524,-0.53622 -0.34276,-1.05651 -0.59255,-1.56088c-0.04818,-0.08672 -0.10117,-0.15898 -0.15898,-0.21679c-0.06744,0.16379 -0.10117,0.32759 -0.10117,0.49139c0.0082,0.50987 0.01303,1.0157 0.01445,1.51752c-0.00003,0.08261 -0.00003,0.15969 0,0.23125c0.00997,1.80782 -0.01412,3.60958 -0.07227,5.40527c-0.06744,2.04263 -0.39022,4.04191 -0.96832,5.99783c-0.58774,1.98483 -1.51271,3.78176 -2.7749,5.39082c-0.68409,0.87679 -1.49343,1.57533 -2.42803,2.09563c-0.18307,0.09635 -0.36613,0.1927 -0.5492,0.28905c0.42394,-1.03095 0.77081,-2.06191 1.04058,-3.09285c0.35649,-1.39709 0.45285,-2.82308 0.28905,-4.27797c-0.04818,-0.43358 -0.05299,-0.84789 -0.01445,-1.24292c0,-0.03854 -0.00481,-0.07708 -0.01445,-0.11562c-0.11352,0.32691 -0.22432,0.6545 -0.33241,0.98278l-0.56365,-0.18788c0.7614,-2.63771 0.87702,-5.2729 0.34686,-7.90557c-0.02921,-0.16206 -0.06293,-0.32587 -0.10117,-0.49139c-0.0242,0.19985 -0.04829,0.39737 -0.07227,0.59255c-0.16417,1.315 -0.34242,2.62055 -0.53475,3.91665c-0.51066,3.39154 -1.72468,6.50367 -3.64205,9.33638c-1.49705,2.22912 -3.41442,3.9538 -5.75213,5.17403c-0.40294,0.21465 -0.81725,0.41216 -1.24292,0.59255c0.18676,-0.30934 0.37464,-0.61766 0.56365,-0.92497c0.12514,-0.19749 0.2504,-0.395 0.37577,-0.59255c1.8403,-2.81344 2.81344,-5.8822 2.91942,-9.2063l-1.35855,2.12453l-0.80935,-0.40467c0.24087,-0.55884 0.46248,-1.11766 0.66482,-1.6765c0.05781,-0.13489 0.08672,-0.26979 0.08672,-0.40467c-0.00964,-0.14453 -0.03854,-0.28424 -0.08672,-0.41913l-0.5781,0.04335l0.11562,0.18788c-1.41685,3.14404 -3.17043,6.07792 -5.26075,8.80163c-0.89109,1.1725 -1.84496,2.30463 -2.86162,3.39636c-1.92592,2.0645 -4.12272,3.74582 -6.59038,5.04395c-0.7836,0.42188 -1.59777,0.80246 -2.44249,1.14175c0.59643,-0.49515 1.1649,-1.02508 1.7054,-1.58978c0.38517,-0.39572 0.75613,-0.81003 1.11285,-1.24292c1.40671,-1.69578 2.16789,-3.56016 2.28351,-5.59315c-0.49139,0.65518 -0.95869,1.32964 -1.4019,2.02337c-0.54555,0.84589 -1.1381,1.6456 -1.77767,2.39913c-0.49519,0.59218 -1.0203,1.15584 -1.57533,1.69095c-1.21082,1.16415 -2.55491,2.19029 -4.03227,3.0784c-0.24234,0.1032 -0.44468,0.23327 -0.60701,0.39022l-0.10117,-0.14453c0.19387,-0.12939 0.38657,-0.26911 0.5781,-0.41913c0.47212,-0.28905 0.91533,-0.63109 1.32964,-1.02613c0.45285,-0.44321 0.84306,-0.9346 1.17066,-1.47417c0.18589,-0.3052 0.36895,-0.61352 0.5492,-0.92497c0.45977,-0.75673 0.91262,-1.52271 1.35855,-2.29797c0.37577,-0.67446 0.33241,-1.30555 -0.13007,-1.89329c-0.51819,1.43393 -1.20228,2.7154 -2.05227,3.84439c-0.9824,1.32061 -2.18678,2.43827 -3.61315,3.353c-0.34121,0.22199 -0.69772,0.39541 -1.0695,0.5203c-0.08073,0.00832 -0.16745,0.02277 -0.26015,0.04335c-0.12168,0.04057 -0.2373,0.07911 -0.34686,0.11562c-0.30305,0.05476 -0.61619,0.07885 -0.93942,0.07227c-1.1276,0.07678 -2.25491,0.10087 -3.3819,0.07227c-1.13724,-0.01878 -2.27418,-0.09105 -3.41082,-0.21679c-0.21788,-0.02748 -0.43467,-0.05638 -0.65037,-0.08672c-2.12247,-0.23259 -4.247,-0.32895 -6.3736,-0.28905c-0.94815,0.02819 -1.8972,0.08118 -2.84717,0.15898c-3.72877,0.20233 -7.44309,0.50102 -11.14295,0.89606c-3.36264,0.34686 -6.74454,0.72745 -10.14572,1.14175l-0.80935,0.05781c0.29304,-1.81505 0.69289,-3.59271 1.19957,-5.333c0.43358,-1.46965 0.94423,-2.91491 1.53198,-4.33578c0.12744,-0.29775 0.25751,-0.59643 0.39022,-0.89606c1.45489,-3.31446 3.22775,-6.45068 5.31855,-9.40864c0.77081,-1.07912 1.63315,-2.09081 2.58702,-3.03505c0.52993,-0.32759 1.05504,-0.65518 1.57533,-0.98278c0.00964,0 0.01927,-0.00481 0.0289,-0.01445c3.24702,-0.79971 6.33506,-1.97037 9.26412,-3.51198c2.28351,-1.22366 4.40322,-2.68337 6.35915,-4.37914l16.69275,-0.60701c-0.82861,-0.32759 -1.6765,-0.59255 -2.54365,-0.7949c-3.23738,-0.64555 -6.51812,-0.83825 -9.84222,-0.5781c-5.31855,0.46248 -10.58894,1.05504 -15.81114,1.77767c-1.02132,0.13489 -1.89329,0.52511 -2.61592,1.17066c0.79971,-0.10598 1.59942,-0.20716 2.39913,-0.3035c3.19884,-0.41431 6.39769,-0.60219 9.59652,-0.56365c-0.71299,0.3854 -1.4308,0.76117 -2.15344,1.1273c-3.14103,1.63796 -6.42178,2.96278 -9.84222,3.97447c-1.58986,0.4673 -3.18929,0.89124 -4.79827,1.27183c-1.08101,0.256 -2.16977,0.49206 -3.26629,0.70818c-0.34701,0.06955 -0.69869,0.137 -1.05504,0.20233l-6.9517,1.11285c-0.15999,-0.01516 -0.32861,-0.03444 -0.50584,-0.05781c-0.26685,-0.03527 -0.53181,-0.07381 -0.7949,-0.11562c-2.53948,-0.34483 -4.90489,-0.73986 -7.09622,-1.18512c-0.52311,-0.10573 -1.02896,-0.21171 -1.51752,-0.31795c-4.88946,-1.08345 -7.90524,-2.25893 -9.04732,-3.52643c-0.34686,-0.38702 -0.5203,-0.78206 -0.5203,-1.18512c0,-0.35649 0.25533,-1.1562 0.76599,-2.39913c0.86715,-2.10044 1.4308,-3.50235 1.69095,-4.2057c1.63796,-4.47066 2.45695,-8.7101 2.45695,-12.71829c0,-4.48994 -1.03577,-8.67638 -3.1073,-12.5593c-1.66415,-3.12579 -3.91876,-5.92477 -6.76382,-8.39695l-0.04335,0.01445l-0.33241,-0.14453l0.23125,-0.10117l-0.93942,-0.80935l0.13007,-0.3035c-0.01927,-0.04818 -0.03854,-0.09153 -0.05781,-0.13007c-0.15341,-0.27136 -0.36056,-0.47852 -0.62146,-0.62146c-0.05314,-0.02435 -0.11095,-0.04844 -0.17343,-0.07227c-0.11754,-0.0457 -0.24279,-0.07941 -0.37577,-0.10117c-0.61664,-0.15416 -1.21402,-0.35649 -1.79212,-0.60701c-1.49343,-0.63592 -3.03505,-1.05022 -4.62483,-1.24292c-0.25051,-0.05781 -0.43839,-0.18307 -0.56365,-0.37577c-0.0289,-0.04818 -0.05299,-0.09153 -0.07227,-0.13007c1.27183,-0.00964 2.53403,-0.08672 3.78658,-0.23125c1.58038,-0.23191 3.11236,-0.11148 4.59593,0.36132c0.18623,0.05724 0.3693,0.11987 0.5492,0.18788c0.69372,0.25051 1.35372,0.59255 1.98,1.02613c0.20233,0.13489 0.39986,0.12044 0.59255,-0.04335c0.0289,-0.00964 0.05299,-0.0289 0.07227,-0.05781c0.00964,-0.03854 0.01445,-0.07227 0.01445,-0.10117c0.01927,-0.10598 0.01445,-0.20716 -0.01445,-0.3035c-0.04818,-0.15416 -0.11562,-0.28905 -0.20233,-0.40467c-0.23125,-0.29869 -0.46248,-0.58774 -0.69372,-0.86715c-0.26979,-0.31795 -0.52511,-0.64073 -0.76599,-0.96832c-0.26015,-0.34686 -0.50584,-0.69854 -0.73708,-1.05504c0.66482,0.41431 1.32964,0.83825 1.99445,1.27183c0.42394,0.26015 0.84789,0.53475 1.27183,0.8238c0.25051,0.16379 0.50102,0.32759 0.75153,0.49139c0.27941,0.1927 0.60701,0.3035 0.98278,0.33241c0.23125,0.05781 0.4673,0.05781 0.70818,0c0.06744,-0.0289 0.13489,-0.05299 0.20233,-0.07227l0.23125,0.31795c0.76117,-0.68409 1.42118,-1.45489 1.98,-2.31242c0.98278,-1.49343 1.82103,-3.05914 2.51475,-4.6971c0.70336,-1.66686 1.4838,-3.3241 2.34132,-4.9717c0.76117,-1.4838 1.72468,-2.81825 2.89052,-4.00337c3.96002,-3.97928 8.44032,-7.2552 13.44092,-9.82777c0.62628,-0.32759 1.25256,-0.66 1.87884,-0.99723M254.69922,111.68275c0.17512,-0.15751 0.34855,-0.31649 0.5203,-0.47693c0.49139,-0.45285 0.79007,-0.98759 0.89606,-1.60424c-0.39978,0.3186 -0.80927,0.61728 -1.22847,0.89606c-0.22869,0.15639 -0.45992,0.30573 -0.69372,0.44803c-0.19,0.11998 -0.38751,0.23079 -0.59255,0.33241c0.33797,0.12797 0.70411,0.26286 1.0984,0.40467z" fill="#ffffff" stroke-width="1"/><path d="M232.25433,92.20065c0.04753,0.01438 0.09571,0.02401 0.14453,0.0289c0.25051,0.01927 0.58774,-0.04335 1.01168,-0.18788l3.13622,-1.02613c0.16752,-0.05405 0.32169,-0.10704 0.46248,-0.15898c3.61097,-0.83144 7.21929,-1.54443 10.825,-2.13898c3.44936,-0.56846 6.89871,-1.00205 10.34807,-1.30073c3.11213,-0.32759 6.22426,-0.5203 9.33638,-0.5781c2.80945,-0.04562 5.61325,-0.09379 8.41142,-0.14453c0.02149,0.00508 0.04076,0.00508 0.05781,0c0.13881,0.0023 0.27852,0.0023 0.41913,0c0.51709,-0.00885 1.01812,-0.06183 1.50307,-0.15898c0.30862,-0.01133 0.62176,-0.0306 0.93942,-0.05781c0.02356,0.01012 0.04765,0.01976 0.07227,0.0289c0.29308,0.10798 0.66885,0.19951 1.1273,0.2746c-0.11889,0.06564 -0.23933,0.12827 -0.36132,0.18788c0.16379,0.01927 0.33241,0.04335 0.50584,0.07227c0.13489,0.01927 0.2746,0.04335 0.41913,0.07227c0.13489,0.03854 0.2746,0.0819 0.41913,0.13007c0.04524,0.01739 0.0886,0.03184 0.13007,0.04335c0.08378,0.03666 0.16568,0.07038 0.2457,0.10117c0.02759,0.01381 0.05168,0.02827 0.07227,0.04335c-0.40667,0.23358 -0.81134,0.46964 -1.21402,0.70818c-0.19537,0.0452 -0.39289,0.09338 -0.59255,0.14453c-0.17776,0.00496 -0.36082,0.00979 -0.5492,0.01445c-0.61315,0.01671 -1.22979,0.02153 -1.84993,0.01445c-0.27882,-0.00542 -0.55823,-0.01506 -0.83825,-0.0289c-0.63542,-0.01848 -1.27134,-0.0522 -1.90775,-0.10117c-1.98483,-0.08672 -3.9841,-0.10117 -5.99783,-0.04335c-4.46104,0.17343 -8.9028,0.55884 -13.3253,1.1562c-3.60761,0.45506 -7.20631,0.96572 -10.79609,1.53198c-1.64763,0.27005 -3.29523,0.54946 -4.94279,0.83825l1.6765,0.18788l-1.0984,0.2457c0.46248,0.08672 0.92978,0.17825 1.4019,0.2746c0.77427,0.16353 1.53544,0.36105 2.28351,0.59255c1.41384,0.4442 2.78201,1.01266 4.10454,1.7054c1.76322,0.92497 3.41563,1.98483 4.95724,3.17957c1.78249,1.36818 3.42527,2.87125 4.92833,4.50921c0.20591,0.22338 0.40825,0.4498 0.60701,0.67927c1.79238,2.02543 3.37735,4.20778 4.7549,6.54703c0.02905,0.04965 0.05796,0.09781 0.08672,0.14453c0.13402,0.29793 0.27855,0.59662 0.43358,0.89606c0.13881,0.26865 0.27852,0.53361 0.41913,0.7949c-0.09206,0.02085 -0.1836,0.04494 -0.2746,0.07227c-0.01193,-0.02725 -0.02639,-0.05615 -0.04335,-0.08672c-1.53198,-2.73636 -3.353,-5.28001 -5.46308,-7.63097c-0.05552,-0.06218 -0.11332,-0.12481 -0.17343,-0.18788c-1.71828,-1.89604 -3.66457,-3.55327 -5.83885,-4.9717c-2.88088,-1.87884 -5.99783,-3.20848 -9.35083,-3.98892c-2.95797,-0.64555 -5.94002,-0.7419 -8.94615,-0.28905c-4.54775,0.64555 -8.85462,2.07636 -12.92062,4.29242c-0.62628,0.33723 -1.25256,0.66964 -1.87884,0.99723c-5.0006,2.57257 -9.4809,5.84849 -13.44092,9.82777c-1.16584,1.18512 -2.12935,2.51956 -2.89052,4.00337c-0.85752,1.6476 -1.63796,3.30483 -2.34132,4.9717c-0.69372,1.63796 -1.53198,3.20366 -2.51475,4.6971c-0.55884,0.85752 -1.21883,1.62832 -1.98,2.31242l-0.23125,-0.31795c-0.06744,0.01927 -0.13489,0.04335 -0.20233,0.07227c-0.24087,0.05781 -0.47693,0.05781 -0.70818,0c-0.37577,-0.0289 -0.70336,-0.13971 -0.98278,-0.33241c-0.25051,-0.16379 -0.50102,-0.32759 -0.75153,-0.49139c-0.42394,-0.28905 -0.84789,-0.56365 -1.27183,-0.8238c-0.66482,-0.43358 -1.32964,-0.85752 -1.99445,-1.27183c0.23125,0.35649 0.47693,0.70818 0.73708,1.05504c0.24087,0.32759 0.49621,0.65037 0.76599,0.96832c0.23125,0.27941 0.46248,0.56846 0.69372,0.86715c0.08672,0.11562 0.15416,0.25051 0.20233,0.40467c0.0289,0.09635 0.03373,0.19752 0.01445,0.3035c0,0.0289 -0.00481,0.06263 -0.01445,0.10117c-0.01927,0.0289 -0.04335,0.04818 -0.07227,0.05781c-0.1927,0.16379 -0.39022,0.17825 -0.59255,0.04335c-0.62628,-0.43358 -1.28628,-0.77562 -1.98,-1.02613c-0.1799,-0.06801 -0.36297,-0.13064 -0.5492,-0.18788c-1.48357,-0.4728 -3.01554,-0.59323 -4.59593,-0.36132c-1.25256,0.14453 -2.51475,0.22161 -3.78658,0.23125c0.01927,0.03854 0.04335,0.0819 0.07227,0.13007c0.12526,0.1927 0.31314,0.31795 0.56365,0.37577c1.58978,0.1927 3.13139,0.60701 4.62483,1.24292c0.5781,0.25051 1.17548,0.45285 1.79212,0.60701c0.13297,0.02176 0.25823,0.05547 0.37577,0.10117c0.06248,0.02382 0.12029,0.04791 0.17343,0.07227c0.2609,0.14295 0.46805,0.35009 0.62146,0.62146c0.01927,0.03854 0.03854,0.0819 0.05781,0.13007l-0.13007,0.3035l0.93942,0.80935l-0.23125,0.10117c-0.0289,0.01927 -0.06263,0.03854 -0.10117,0.05781c-0.00782,0.00268 -0.01746,0.00268 -0.0289,0c-0.10305,0.6323 -0.63298,1.24895 -1.58978,1.84993c-0.02176,0.01389 -0.04585,0.02834 -0.07227,0.04335c-0.33756,0.21592 -0.68443,0.4279 -1.04058,0.63592c-2.64915,1.54425 -5.68901,2.83052 -9.11959,3.85885c-2.8327,0.84789 -6.53257,1.66686 -11.0996,2.45695c-6.66746,1.16584 -10.44441,1.8403 -11.33084,2.02337c-4.2587,0.88643 -7.90076,1.9511 -10.92617,3.19402c-5.27039,2.17752 -10.71901,5.68951 -16.34589,10.53595c-1.63796,1.41635 -3.02541,2.72191 -4.16235,3.91665c-1.41635,1.47417 -2.60628,2.94833 -3.56979,4.4225c-1.27183,1.94629 -2.40395,4.28761 -3.39636,7.02397c-0.59738,1.6476 -1.36336,4.1479 -2.29797,7.5009c-0.58774,2.11008 -1.00205,3.70468 -1.24292,4.78381c-0.41431,1.79212 -0.68891,3.41563 -0.8238,4.87052c-0.07708,0.83825 -0.13489,3.0784 -0.17343,6.72045c-0.02442,2.31159 -0.18823,4.24342 -0.49139,5.79549c0.10588,0.89949 0.22149,1.79073 0.34686,2.67373c0.1834,0.57965 0.40983,1.15293 0.67927,1.71986c0.11095,0.22586 0.17358,0.41856 0.18788,0.5781c0.30998,-0.56083 0.66166,-1.09557 1.05504,-1.60424c0.0513,-0.0662 0.09948,-0.13365 0.14453,-0.20233c2.13017,-2.69706 4.59676,-5.01912 7.39973,-6.96615c2.90979,-2.00409 6.06046,-3.61796 9.452,-4.84162c3.34336,-1.21402 6.78308,-2.18716 10.31915,-2.91942c3.26629,-0.62628 6.51812,-1.18512 9.7555,-1.6765c0.58774,-0.09635 1.18029,-0.1927 1.77767,-0.28905l58.34514,-8.80163l0.95387,-0.20233l2.21125,-0.36132l6.9517,-1.11285c0.35634,-0.06534 0.70803,-0.13278 1.05504,-0.20233c1.09652,-0.21611 2.18528,-0.45217 3.26629,-0.70818c1.60898,-0.38058 3.2084,-0.80453 4.79827,-1.27183c3.42045,-1.01168 6.70119,-2.33651 9.84222,-3.97447c0.72263,-0.36613 1.44044,-0.7419 2.15344,-1.1273c-3.19884,-0.03854 -6.39769,0.14934 -9.59652,0.56365c-0.79971,0.09635 -1.59942,0.19752 -2.39913,0.3035c0.72263,-0.64555 1.59461,-1.03577 2.61592,-1.17066c5.22221,-0.72263 10.49259,-1.31518 15.81114,-1.77767c3.3241,-0.26015 6.60484,-0.06744 9.84222,0.5781c0.86715,0.20233 1.71504,0.4673 2.54365,0.7949l-16.69275,0.60701c-1.95591,1.69578 -4.07563,3.15548 -6.35915,4.37914c-2.92906,1.54161 -6.0171,2.71227 -9.26412,3.51198c-0.00964,0.00964 -0.01927,0.01445 -0.0289,0.01445c-0.5203,0.32759 -1.04541,0.65518 -1.57533,0.98278l0.72263,-0.76599c-1.17492,0.2833 -2.35521,0.54826 -3.54089,0.7949c-1.11925,0.24539 -2.24655,0.47182 -3.3819,0.67927c-1.52343,0.29293 -3.05541,0.5579 -4.59593,0.7949c-1.61918,0.25443 -3.24269,0.4953 -4.87052,0.72263c-1.75832,0.24249 -3.52154,0.46892 -5.28965,0.67927l-49.41344,6.83608c-4.9717,0.63592 -9.92412,1.45972 -14.85727,2.4714c-4.41286,0.94423 -8.70528,2.3076 -12.87727,4.09008c-0.36613,0.15416 -0.72745,0.32278 -1.08395,0.50584c-0.35649,0.17343 -0.71299,0.35168 -1.0695,0.53475c-1.79212,0.94423 -3.49753,1.98 -5.11622,3.1073c-1.41635,0.98278 -2.77009,2.06672 -4.06118,3.25183c2.48585,1.49343 5.10177,2.71227 7.84777,3.6565c3.90217,1.31515 7.91035,2.21603 12.02457,2.70263c0.47348,0.06078 0.94559,0.11378 1.41635,0.15898c0.39929,0.03072 0.79915,0.05962 1.19957,0.08672c0.35112,0.03583 0.70279,0.06955 1.05504,0.10117c0.73227,0.03854 1.46453,0.0819 2.1968,0.13007c2.72672,0.10598 5.44381,0.13489 8.15127,0.08672c2.43767,-0.04818 4.88016,-0.14934 7.32747,-0.3035c4.96206,-0.28905 9.90966,-0.72263 14.84282,-1.30073c6.37841,-0.77081 12.75683,-1.63315 19.13524,-2.58702c3.98892,-0.61664 7.94893,-1.19475 11.88004,-1.73431c2.91355,-0.42335 5.82816,-0.84247 8.74382,-1.25738c0.47457,-0.06816 0.94668,-0.13561 1.41635,-0.20233c0.39504,-0.07708 0.78526,-0.15416 1.17066,-0.23125l0.80935,-0.05781c3.40118,-0.41431 6.78308,-0.7949 10.14572,-1.14175c3.69987,-0.39504 7.41418,-0.69372 11.14295,-0.89606c0.94996,-0.07779 1.89901,-0.13079 2.84717,-0.15898c2.1266,-0.03989 4.25113,0.05646 6.3736,0.28905c0.21569,0.03034 0.43249,0.05924 0.65037,0.08672c1.13664,0.12575 2.27358,0.198 3.41082,0.21679c1.127,0.0286 2.2543,0.00451 3.3819,-0.07227c0.32323,0.00658 0.63636,-0.01751 0.93942,-0.07227c0.10956,-0.03651 0.22518,-0.07505 0.34686,-0.11562c0.0927,-0.02059 0.17942,-0.03504 0.26015,-0.04335c0.37178,-0.12488 0.72827,-0.29831 1.0695,-0.5203c1.42637,-0.91473 2.63075,-2.0324 3.61315,-3.353c0.84999,-1.129 1.53408,-2.41046 2.05227,-3.84439c0.46248,0.58774 0.50584,1.21883 0.13007,1.89329c-0.44592,0.77524 -0.89878,1.54124 -1.35855,2.29797c-0.18025,0.31145 -0.36331,0.61977 -0.5492,0.92497c-0.32759,0.53956 -0.71781,1.03095 -1.17066,1.47417c-0.41431,0.39504 -0.85752,0.73708 -1.32964,1.02613c-0.19154,0.15002 -0.38423,0.28973 -0.5781,0.41913c-1.01225,0.68872 -2.07211,1.13675 -3.17957,1.3441c-0.11073,-0.07975 -0.26971,-0.15202 -0.47693,-0.21679c-0.17874,-0.05416 -0.36662,-0.10234 -0.56365,-0.14453l-20.62386,0.10117c0.00745,-0.00399 0.01227,-0.00881 0.01445,-0.01445c-0.00237,0.00053 -0.00719,0.00053 -0.01445,0c-2.62823,0.18992 -5.25379,0.42598 -7.87667,0.70818c-3.03505,0.34686 -6.08455,0.69372 -9.1485,1.04058c-0.15416,-0.00964 -0.3035,-0.01927 -0.44803,-0.0289c-1.00833,0.19951 -2.02484,0.38739 -3.0495,0.56365c-1.72701,0.30987 -3.47096,0.58928 -5.23184,0.83825c-3.31446,0.3854 -6.61447,0.83344 -9.90003,1.3441c-3.33374,0.51066 -6.66265,1.00687 -9.98675,1.48862c-3.85402,0.58774 -7.69842,1.1273 -11.53317,1.61869c-3.69987,0.49139 -7.42382,0.90569 -11.17185,1.24292c-4.08527,0.3854 -8.17536,0.65037 -12.27025,0.7949c-3.64428,0.17355 -7.29115,0.17355 -10.94062,0c-1.21383,-0.058 -2.42785,-0.13508 -3.64205,-0.23125c-0.04701,-0.00357 -0.09518,-0.0084 -0.14453,-0.01445c-0.2676,-0.01622 -0.53738,-0.03549 -0.80935,-0.05781c-0.90569,-0.08423 -1.81139,-0.19022 -2.71709,-0.31795c-3.17204,-0.43625 -6.28899,-1.12515 -9.35083,-2.06672c-2.48585,-0.76117 -4.77899,-1.87402 -6.87944,-3.33855c-0.59738,-0.43358 -1.05504,-0.96832 -1.373,-1.60424c-0.95387,1.00205 -1.85957,2.04263 -2.71709,3.12176c-0.1376,0.16952 -0.2725,0.33813 -0.40467,0.50584c-0.38526,0.51187 -0.74657,1.03698 -1.08395,1.57533c-0.11562,0.1927 -0.23125,0.3854 -0.34686,0.5781c-0.50094,-1.06264 -0.87672,-2.16104 -1.1273,-3.2952c-0.04335,-0.10633 -0.08672,-0.22194 -0.13007,-0.34686c-0.09635,-0.29869 -0.19752,-0.72745 -0.3035,-1.28628l-0.26015,-1.4019c-0.09635,-0.52993 -0.15416,-0.93942 -0.17343,-1.22847c-0.03775,-0.36986 -0.0233,-0.92388 0.04335,-1.66205c-0.01509,-0.132 -0.02955,-0.2717 -0.04335,-0.41913c-0.7419,-7.15886 0.25533,-15.0307 2.99169,-23.61555c1.34891,-4.19125 2.85679,-7.60207 4.52367,-10.23244c1.6476,-2.61111 3.94074,-5.27039 6.87944,-7.97783c3.28556,-3.03505 6.86498,-5.70396 10.73828,-8.00674c3.8733,-2.30278 7.92966,-4.1768 12.16909,-5.62206c2.85198,-0.97314 6.3736,-1.9222 10.56485,-2.84717c2.38949,-0.52993 5.97374,-1.29592 10.75273,-2.29797c4.14308,-0.92497 7.63579,-1.88366 10.47813,-2.87607c2.34193,-0.8197 4.50981,-1.74466 6.50367,-2.7749c0.69289,-0.35601 1.36253,-0.72696 2.00891,-1.11285c0.12537,-0.06726 0.2458,-0.13952 0.36132,-0.21679c-0.06172,-0.10019 -0.13399,-0.19654 -0.21679,-0.28905c-0.00523,-0.00903 -0.01486,-0.01867 -0.0289,-0.0289c-0.18397,-0.21118 -0.40558,-0.38943 -0.66482,-0.53475c-0.27911,-0.15672 -0.58744,-0.27716 -0.92497,-0.36132c-0.17866,-0.0408 -0.36654,-0.07452 -0.56365,-0.10117c0.10971,-0.03711 0.22052,-0.07565 0.33241,-0.11562c-1.02132,-0.39504 -2.05227,-0.71781 -3.09285,-0.96832c-1.36818,-0.28905 -2.57257,-0.83344 -3.61315,-1.63315c-0.27941,-0.20233 -0.25533,-0.42394 0.07227,-0.66482c1.19475,-0.87679 2.59183,-1.30073 4.19125,-1.27183c1.87884,0.0289 3.76249,0.24087 5.65097,0.63592c-0.10598,-0.15416 -0.20233,-0.30833 -0.28905,-0.46248c-0.17343,-0.30833 -0.33723,-0.61664 -0.49139,-0.92497c-0.43358,-0.84789 -0.83825,-1.70059 -1.21402,-2.55811c-0.08672,-0.21197 -0.13007,-0.42876 -0.13007,-0.65037c0,-0.06744 0.01445,-0.13489 0.04335,-0.20233l7.02397,4.35023c0.59738,-0.51066 1.14658,-1.0695 1.6476,-1.6765c0.80935,-0.99241 1.50307,-2.07154 2.08117,-3.23738c1.0695,-2.13898 2.20643,-4.27797 3.41082,-6.41695c1.21402,-2.12935 2.64964,-4.07082 4.30687,-5.8244c2.51475,-2.66891 5.37637,-4.93797 8.58485,-6.80717c2.44731,-1.43563 5.0006,-2.64964 7.65988,-3.64205c2.12073,-0.809 4.2549,-1.60872 6.4025,-2.39913c0.40301,-0.1382 0.80287,-0.27791 1.19957,-0.41913c0.05744,-0.02209 0.11524,-0.04618 0.17343,-0.07227c0.03358,-0.00708 0.06729,-0.01671 0.10117,-0.0289c0.17388,-0.06323 0.34731,-0.13068 0.5203,-0.20233c0.52146,-0.20139 1.03212,-0.42782 1.53198,-0.67927M112.64463,204.38172c-0.04456,0.0227 -0.09274,0.03234 -0.14453,0.0289c0.01351,0.06947 0.02796,0.13693 0.04335,0.20233c0.03576,-0.07686 0.06947,-0.15394 0.10117,-0.23125M304.27164,165.25853c-0.40787,0.11841 -0.81737,0.2003 -1.22847,0.2457c-0.78364,0.08766 -1.5689,0.03948 -2.35577,-0.14453c0.10598,0.43358 0.20716,0.86715 0.3035,1.30073c0.08709,0.36719 0.15935,0.73332 0.21679,1.0984c0.19549,1.14977 0.26775,2.3108 0.21679,3.48308c-0.07708,2.00409 -0.54439,3.91665 -1.4019,5.73768c-0.59738,1.27183 -1.23811,2.50994 -1.9222,3.71432c-0.58774,1.01168 -1.36818,1.42599 -2.34132,1.24292c-0.32759,-0.07708 -0.48176,-0.29869 -0.46248,-0.66482c0.0289,-0.5781 0.13971,-1.14658 0.33241,-1.7054c0.32759,-0.98278 0.49139,-1.98483 0.49139,-3.00614c-0.10598,0.3854 -0.21197,0.77081 -0.31795,1.1562c-0.47212,1.76322 -1.12249,3.43972 -1.9511,5.0295c-0.85752,1.6476 -2.04745,3.03505 -3.56979,4.16235c-0.82861,0.60701 -1.72949,1.07431 -2.70263,1.4019c-0.15134,0.04577 -0.28623,0.0554 -0.40467,0.0289c-0.0335,-0.30738 -0.13949,-0.54344 -0.31795,-0.70818c-0.06726,-0.06278 -0.1347,-0.12541 -0.20233,-0.18788c-0.00767,-0.30489 0.08386,-0.60358 0.2746,-0.89606c0.51066,-0.79971 0.89124,-1.66686 1.14175,-2.60147c0.47106,-1.78678 1.00099,-3.55963 1.58978,-5.31855c0.10809,-0.32827 0.2189,-0.65586 0.33241,-0.98278c0.00964,0.03854 0.01445,0.07708 0.01445,0.11562c-0.03854,0.39504 -0.03373,0.80935 0.01445,1.24292c0.16379,1.45489 0.06744,2.88088 -0.28905,4.27797c-0.26979,1.03095 -0.61664,2.06191 -1.04058,3.09285c0.18307,-0.09635 0.36613,-0.1927 0.5492,-0.28905c0.9346,-0.5203 1.74394,-1.21883 2.42803,-2.09563c1.26219,-1.60906 2.18716,-3.40599 2.7749,-5.39082c0.5781,-1.95591 0.90088,-3.95519 0.96832,-5.99783c0.05815,-1.7957 0.08224,-3.59746 0.07227,-5.40527c-0.00003,-0.07155 -0.00003,-0.14863 0,-0.23125c-0.00144,-0.50182 -0.00625,-1.00765 -0.01445,-1.51752c0,-0.16379 0.03373,-0.32759 0.10117,-0.49139c0.05781,0.05781 0.11081,0.13007 0.15898,0.21679c0.2498,0.50438 0.44732,1.02466 0.59255,1.56088c0.06015,0.20151 0.10832,0.40384 0.14453,0.60701c0.08156,0.35766 0.13937,0.72379 0.17343,1.0984c0.1927,2.26424 0.47212,4.51884 0.83825,6.76382c0.13489,0.79971 0.20233,1.61387 0.20233,2.44249c0.14453,-0.26015 0.28905,-0.51547 0.43358,-0.76599c0.77081,-1.34891 1.29592,-2.78935 1.57533,-4.32133c0.25676,-1.4348 0.2953,-2.8656 0.11562,-4.29242c-0.044,-0.39632 -0.10662,-0.79136 -0.18788,-1.18512c-0.12939,-0.64156 -0.3221,-1.25338 -0.5781,-1.83548c-0.19089,-0.46207 -0.42214,-0.90528 -0.69372,-1.32964c-0.04859,-0.07441 -0.09677,-0.15149 -0.14453,-0.23125c-0.84657,-1.31492 -1.5981,-2.69273 -2.2546,-4.13345c-0.11562,-0.25051 -0.18307,-0.51547 -0.20233,-0.7949l0.10117,-0.10117l0.8527,1.21402c-0.06744,-0.11562 -0.13007,-0.22642 -0.18788,-0.33241c-0.10598,-0.17343 -0.21197,-0.34204 -0.31795,-0.50584c-0.04818,-0.07708 -0.09635,-0.14934 -0.14453,-0.21679c-0.03854,-0.06744 -0.07708,-0.13007 -0.11562,-0.18788c-0.05781,-0.09635 -0.11562,-0.18788 -0.17343,-0.2746c-0.0289,-0.03854 -0.05299,-0.07227 -0.07227,-0.10117c-0.01927,-0.0289 -0.03373,-0.05299 -0.04335,-0.07227c-0.03854,-0.12526 -0.06744,-0.2457 -0.08672,-0.36132c-0.05781,-0.30833 -0.10117,-0.61664 -0.13007,-0.92497c0.28905,0.23125 0.56846,0.47212 0.83825,0.72263c0.79007,0.68409 1.45489,1.49343 1.99445,2.42803c0.60701,1.05022 1.16103,2.13417 1.66205,3.25183c0.17343,0.09635 0.35168,0.1927 0.53475,0.28905c0.11562,0.04818 0.23606,0.10117 0.36132,0.15898c0.13489,0.01927 0.2746,0.04335 0.41913,0.07227c0.09797,0.01728 0.19432,0.03654 0.28905,0.05781c0.06906,0.01339 0.13651,0.02786 0.20233,0.04335c0.18307,0.01927 0.37095,0.04335 0.56365,0.07227c-0.04768,-0.15254 -0.1055,-0.30188 -0.17343,-0.44803v0c-0.24087,-0.47212 -0.5203,-0.90569 -0.83825,-1.30073c-1.39456,-1.70104 -2.65194,-3.49317 -3.77213,-5.37637c-0.28092,-0.48567 -0.55552,-0.97706 -0.8238,-1.47417c-0.19696,-0.36436 -0.38484,-0.73531 -0.56365,-1.11285c-0.62481,-1.36832 -1.08729,-2.80395 -1.38745,-4.30687c-0.0079,-0.05514 -0.01754,-0.11295 -0.0289,-0.17343c-0.00422,-0.02815 -0.00903,-0.05706 -0.01445,-0.08672c-0.04547,-0.25924 -0.09364,-0.51939 -0.14453,-0.78044c-0.01073,-0.05661 -0.02518,-0.11441 -0.04335,-0.17343c0.07614,0.03571 0.1484,0.06944 0.21679,0.10117c0.15062,0.07701 0.29996,0.14926 0.44803,0.21679c0.06274,0.19364 0.12537,0.38152 0.18788,0.56365c0.44476,1.24736 0.97468,2.44212 1.58978,3.58425c0.29293,0.54641 0.60607,1.08116 0.93942,1.60424c1.6409,2.56338 3.47156,4.97696 5.49199,7.24075c0.16101,0.18006 0.31999,0.35348 0.47693,0.5203c0.01807,0.02586 0.03733,0.04995 0.05781,0.07227c0.52993,0.5781 0.81416,1.23811 0.8527,1.98c0.01927,0.33723 -0.14453,0.54439 -0.49139,0.62146M279.78893,180.65055c-1.16053,2.39435 -2.54798,4.66823 -4.16235,6.82163c-0.34209,0.46038 -0.69376,0.91323 -1.05504,1.35855c-2.2546,2.78454 -4.85607,5.16921 -7.8044,7.15404c-0.15683,0.10591 -0.31582,0.20708 -0.47693,0.3035c-2.44622,1.54982 -5.07659,2.38807 -7.89112,2.51475c-0.20233,0.0289 -0.26496,-0.07708 -0.18788,-0.31795c0.06771,-0.21761 0.17851,-0.4055 0.33241,-0.56365c0.16233,-0.15695 0.36467,-0.28702 0.60701,-0.39022c1.47736,-0.88812 2.82146,-1.91425 4.03227,-3.0784c0.55503,-0.53513 1.08015,-1.09878 1.57533,-1.69095c0.63957,-0.75353 1.23212,-1.55324 1.77767,-2.39913c0.44321,-0.69372 0.91052,-1.36818 1.4019,-2.02337c-0.11562,2.033 -0.87679,3.89739 -2.28351,5.59315c-0.35672,0.4329 -0.72768,0.84721 -1.11285,1.24292c-0.5405,0.56471 -1.10898,1.09463 -1.7054,1.58978c0.84473,-0.3393 1.65889,-0.71989 2.44249,-1.14175c2.46767,-1.29814 4.66446,-2.97945 6.59038,-5.04395c1.01665,-1.09174 1.97052,-2.22385 2.86162,-3.39636c2.09032,-2.72371 3.8439,-5.65759 5.26075,-8.80163l-0.11562,-0.18788l0.5781,-0.04335c0.04818,0.13489 0.07708,0.2746 0.08672,0.41913c0,0.13489 -0.0289,0.26979 -0.08672,0.40467c-0.20233,0.55884 -0.42394,1.11766 -0.66482,1.6765M289.34209,170.04233c0.03824,0.16553 0.07197,0.32932 0.10117,0.49139c0.53015,2.63267 0.41454,5.26786 -0.34686,7.90557c-0.89606,3.11213 -2.40395,5.86775 -4.52367,8.26689c-1.22658,1.12328 -2.52732,2.15904 -3.9022,3.1073c-0.51759,0.35879 -1.04751,0.70565 -1.58978,1.04058c-1.14658,0.70336 -2.35096,1.05022 -3.61315,1.04058c-0.69372,-0.00964 -0.77081,-0.32759 -0.23125,-0.95387c0.76203,-0.89949 1.46058,-1.83891 2.09563,-2.81825c1.408,-2.16585 2.49676,-4.52163 3.26629,-7.06732l1.35855,-2.12453c-0.10598,3.3241 -1.07912,6.39286 -2.91942,9.2063c-0.12537,0.19756 -0.25063,0.39508 -0.37577,0.59255c-0.18901,0.3073 -0.37689,0.61563 -0.56365,0.92497c0.42568,-0.18039 0.83998,-0.37791 1.24292,-0.59255c2.33771,-1.22023 4.25509,-2.94491 5.75213,-5.17403c1.91738,-2.8327 3.13139,-5.94483 3.64205,-9.33638c0.19233,-1.2961 0.37057,-2.60165 0.53475,-3.91665c0.02397,-0.19519 0.04806,-0.3927 0.07227,-0.59255M287.18867,188.744c0.41006,0.35127 0.81473,0.70294 1.21402,1.05504c-0.42277,-0.3259 -0.82745,-0.67277 -1.21402,-1.04058v-0.01445M358.49778,124.56001c-0.07655,0.04803 -0.15845,0.09138 -0.2457,0.13007c-0.0201,-0.00855 -0.04419,-0.023 -0.07227,-0.04335c0.1076,-0.02518 0.21359,-0.05408 0.31795,-0.08672M357.47165,124.87797l-0.01445,-0.0289c0.06962,-0.01893 0.13708,-0.03821 0.20233,-0.05781z" fill="#000000" stroke-width="1"/><path d="M189.87932,129.35827c2.84505,2.47218 5.09967,5.27117 6.76382,8.39695c2.07154,3.88294 3.1073,8.06936 3.1073,12.5593c0,4.00819 -0.81899,8.24762 -2.45695,12.71829c-0.26015,0.70336 -0.8238,2.10526 -1.69095,4.2057c-0.51066,1.24292 -0.76599,2.04263 -0.76599,2.39913c0,0.40305 0.17343,0.79809 0.5203,1.18512c1.1421,1.2675 4.15787,2.44298 9.04732,3.52643c0.48857,0.10625 0.99441,0.21224 1.51752,0.31795c2.19134,0.44524 4.55675,0.84028 7.09622,1.18512c0.26308,0.04181 0.52805,0.08035 0.7949,0.11562c0.17723,0.02338 0.34584,0.04264 0.50584,0.05781l-2.21125,0.36132l-0.89606,0.08672l-0.05781,0.11562l-58.34514,8.80163c-0.59738,0.09635 -1.18993,0.1927 -1.77767,0.28905c-3.23738,0.49139 -6.48922,1.05022 -9.7555,1.6765c-3.53607,0.73227 -6.97579,1.7054 -10.31915,2.91942c-3.39154,1.22366 -6.54221,2.83753 -9.452,4.84162c-2.80297,1.94703 -5.26955,4.26909 -7.39973,6.96615c-0.04505,0.06868 -0.09323,0.13613 -0.14453,0.20233c-0.39338,0.50866 -0.74507,1.04341 -1.05504,1.60424c-0.0143,-0.15955 -0.07693,-0.35224 -0.18788,-0.5781c-0.26944,-0.56693 -0.49587,-1.14021 -0.67927,-1.71986c-0.12537,-0.883 -0.24099,-1.77424 -0.34686,-2.67373c0.30317,-1.55207 0.46696,-3.48391 0.49139,-5.79549c0.03854,-3.64205 0.09635,-5.8822 0.17343,-6.72045c0.13489,-1.45489 0.40949,-3.0784 0.8238,-4.87052c0.24087,-1.07912 0.65518,-2.67373 1.24292,-4.78381c0.9346,-3.353 1.70059,-5.8533 2.29797,-7.5009c0.99241,-2.73636 2.12453,-5.07768 3.39636,-7.02397c0.96351,-1.47417 2.15344,-2.94833 3.56979,-4.4225c1.13694,-1.19475 2.52439,-2.5003 4.16235,-3.91665c5.62688,-4.84644 11.07551,-8.35841 16.34589,-10.53595c3.02541,-1.24292 6.66746,-2.3076 10.92617,-3.19402c0.88643,-0.18307 4.66337,-0.85752 11.33084,-2.02337c4.56702,-0.79007 8.26689,-1.60906 11.0996,-2.45695c3.43057,-1.02832 6.47044,-2.3146 9.11959,-3.85885c0.35616,-0.20802 0.70302,-0.41999 1.04058,-0.63592c0.02642,-0.01501 0.05051,-0.02947 0.07227,-0.04335c0.95681,-0.60098 1.48673,-1.21764 1.58978,-1.84993c0.01144,0.00268 0.02108,0.00268 0.0289,0c0.03854,-0.01927 0.07227,-0.03854 0.10117,-0.05781l0.33241,0.14453l0.04335,-0.01445M206.32637,179.32091c1.76811,-0.21035 3.53133,-0.43678 5.28965,-0.67927c1.62784,-0.22733 3.25134,-0.4682 4.87052,-0.72263c1.54052,-0.237 3.0725,-0.50196 4.59593,-0.7949c1.13535,-0.20746 2.26266,-0.43388 3.3819,-0.67927c1.18568,-0.24664 2.36597,-0.5116 3.54089,-0.7949l-0.72263,0.76599c-0.95387,0.94423 -1.81621,1.95591 -2.58702,3.03505c-2.09081,2.95797 -3.86366,6.09418 -5.31855,9.40864c-0.13271,0.29963 -0.26278,0.59832 -0.39022,0.89606c-0.58774,1.42087 -1.0984,2.86613 -1.53198,4.33578c-0.50667,1.7403 -0.90653,3.51797 -1.19957,5.333c-0.3854,0.07708 -0.77562,0.15416 -1.17066,0.23125c-0.46967,0.06673 -0.9418,0.13418 -1.41635,0.20233c-2.91566,0.41491 -5.83027,0.83403 -8.74382,1.25738c-3.9311,0.53956 -7.89112,1.11766 -11.88004,1.73431c-6.37841,0.95387 -12.75683,1.81621 -19.13524,2.58702c-4.93316,0.5781 -9.88076,1.01168 -14.84282,1.30073c-2.44731,0.15416 -4.8898,0.25533 -7.32747,0.3035c-2.70746,0.04818 -5.42454,0.01927 -8.15127,-0.08672c-0.73227,-0.04818 -1.46453,-0.09153 -2.1968,-0.13007c-0.35224,-0.03161 -0.70392,-0.06534 -1.05504,-0.10117c-0.40042,-0.0271 -0.80027,-0.056 -1.19957,-0.08672c-0.47077,-0.0452 -0.94289,-0.09819 -1.41635,-0.15898c-4.11421,-0.48661 -8.1224,-1.38748 -12.02457,-2.70263c-2.746,-0.94423 -5.36192,-2.16307 -7.84777,-3.6565c1.2911,-1.18512 2.64483,-2.26905 4.06118,-3.25183c1.61869,-1.1273 3.3241,-2.16307 5.11622,-3.1073c0.35649,-0.18307 0.71299,-0.36132 1.0695,-0.53475c0.35649,-0.18307 0.71781,-0.35168 1.08395,-0.50584c4.17199,-1.78249 8.46441,-3.14585 12.87727,-4.09008c4.93316,-1.01168 9.88558,-1.83548 14.85727,-2.4714z" fill="#5b5d5e" stroke-width="1"/><path d="M211.15354,176.58937l0.05781,-0.11562l0.89606,-0.08672z" fill="#666666" stroke-width="1"/><path d="M291.81382,88.36711c0,0.75 -0.75,0.75 -0.75,0.75l-0.17363,-0.00221c-1.08325,-0.08334 -2.16765,-0.14889 -3.2509,-0.23221c0,0 -0.10269,-0.0079 -0.22903,-0.05589c-0.00244,0.00005 -0.00371,0.00005 -0.00371,0.00005l-0.23168,-0.00221c-2.69329,-0.20819 -5.31288,-0.69632 -8.01168,-0.69441c0,0 -0.75,0 -0.75,-0.75c0,-0.75 0.75,-0.75 0.75,-0.75c2.73971,0.00209 5.39394,0.48971 8.12672,0.69883l0.11663,-0.00221c0,0 0.13829,0 0.2961,0.05938c0.03248,-0.0006 0.05168,0.00088 0.05168,0.00088c1.08325,0.08334 2.16765,0.14889 3.2509,0.23221l0.05858,-0.00221c0,0 0.75,0 0.75,0.75z" fill="#000000" stroke-width="0.5"/><path d="M245.43415,133.67865c0,4.91602 -1.91061,10.35839 -5.73185,16.32709c-0.10527,0.16843 -0.21054,0.33686 -0.31581,0.50529c-1.47375,2.23169 -3.0633,4.27388 -4.76864,6.1266c-0.20001,0.22106 -0.39476,0.4316 -0.58424,0.63161c-0.78951,0.4316 -1.59481,0.83688 -2.4159,1.21585l-2.27379,0.85267c-0.45265,0.12632 -0.90531,0.25264 -1.35796,0.37897c-3.43877,1.08331 -6.88104,0.99384 -10.3268,-0.26843c-0.1674,-0.01817 -0.29899,-0.03923 -0.39476,-0.06316c-0.20001,-0.05264 -0.42107,-0.16317 -0.66319,-0.33159l-0.56845,-0.34739c-0.08393,-0.00666 -0.16814,-0.01719 -0.25264,-0.03158l-0.11053,-0.20527c-0.03836,-0.03055 -0.06994,-0.06213 -0.09474,-0.09474c-0.15786,-0.00526 -0.29471,-0.03685 -0.41055,-0.09474c-0.12632,-0.05264 -0.2158,-0.16842 -0.26843,-0.34738l-1.04215,-0.72635l-0.14211,-0.30001l-0.30001,-0.14211c-0.06316,-0.14738 -0.15264,-0.29475 -0.26843,-0.44213c-0.64214,-0.81057 -1.08953,-1.69482 -1.34217,-2.65276l-0.44213,-0.58424c-0.03158,-0.40002 -0.09474,-0.75793 -0.18948,-1.07373c-0.82109,-2.83171 -1.34743,-5.86344 -1.57902,-9.09517c0.13685,-1.63166 0.25264,-3.20542 0.34738,-4.72128c0.08504,-1.35216 0.25346,-2.63117 0.50529,-3.83702c-0.04021,-0.17073 -0.04548,-0.39706 -0.01579,-0.67898c0.07767,-0.67766 0.21979,-1.33559 0.42634,-1.97378c-0.09355,0.22962 -0.18303,0.46121 -0.26843,0.69477c0.96847,-3.60017 2.35274,-7.03717 4.15283,-10.31101c0.92636,-1.70534 1.96325,-3.32121 3.11067,-4.8476c0.55792,-0.75793 1.14742,-1.49481 1.76851,-2.21063c0.63161,-0.72635 1.28953,-1.43164 1.97378,-2.11589c0.21054,-0.22106 0.42633,-0.43686 0.6474,-0.6474c0.09474,-0.09474 0.19475,-0.18422 0.30001,-0.26843c0.03158,-0.02106 0.06316,-0.03685 0.09474,-0.04737c1.14742,-0.44213 2.31589,-0.66319 3.50543,-0.66319c2.61065,0 5.13182,0.6474 7.56351,1.9422c2.28432,1.22111 4.32652,2.92119 6.1266,5.10024c1.75798,2.13694 3.12646,4.53179 4.10546,7.18455c1.00005,2.70539 1.50007,5.42657 1.50007,8.16354z" fill="#4fe7da" stroke-width="1"/><path d="M233.70202,113.23032c-2.43169,-1.2948 -4.95286,-1.9422 -7.56351,-1.9422c-1.18953,0 -2.35801,0.22106 -3.50543,0.66319c-0.03158,0.01052 -0.06316,0.02632 -0.09474,0.04737c0.75793,-0.7053 1.56323,-1.32638 2.41591,-1.86325c0.63161,-0.40002 1.28427,-0.75266 1.95799,-1.05794c1.37901,-0.62108 2.85276,-1.04216 4.42126,-1.26322c3.91597,-0.60003 7.6372,0.03158 11.16368,1.89483c3.75807,1.98957 6.36872,5.01602 7.83195,9.07937c0.63161,1.76851 1.079,3.55807 1.34217,5.36868c0.24212,1.78956 0.30001,3.60017 0.17369,5.43183c-0.03158,0.47371 -0.07895,0.94741 -0.14211,1.42112c-0.06316,0.53687 -0.13685,1.07373 -0.22106,1.6106c-0.21054,1.25269 -0.47897,2.50012 -0.8053,3.74228c-0.32633,1.23164 -0.71056,2.45275 -1.15269,3.66333c-0.23159,0.62108 -0.47371,1.24216 -0.72635,1.86325c-0.01052,0.01052 -0.01579,0.02106 -0.01579,0.03158c-0.1579,0.35791 -0.32107,0.72109 -0.4895,1.08953c-0.42107,0.92636 -0.88951,1.82114 -1.40533,2.68434c-1.42112,2.34748 -3.18436,4.44232 -5.28972,6.28451c-1.18953,1.04215 -2.42643,2.01062 -3.7107,2.9054c-0.18948,0.13685 -0.38423,0.26843 -0.58424,0.39476c-1.06321,0.7053 -2.15273,1.36848 -3.26858,1.98956c0.18948,-0.20001 0.38423,-0.41055 0.58424,-0.63161c1.70534,-1.85272 3.29489,-3.89492 4.76864,-6.1266c0.10527,-0.16843 0.21054,-0.33686 0.31581,-0.50529c3.82123,-5.9687 5.73185,-11.41106 5.73185,-16.32709c0,-2.73697 -0.50002,-5.45815 -1.50007,-8.16354c-0.97899,-2.65276 -2.34748,-5.04761 -4.10546,-7.18455c-1.80009,-2.17905 -3.84229,-3.87913 -6.1266,-5.10024z" fill="#49d7cb" stroke-width="1"/></g></g></svg>