<svg version="1.1" xmlns="http://www.w3.org/2000/svg" xmlns:xlink="http://www.w3.org/1999/xlink" width="101.16411" height="101.49608" viewBox="0,0,101.16411,101.49608"><g transform="translate(-218.12195,-84.72407)"><g data-paper-data="{&quot;isPaintingLayer&quot;:true}" fill-rule="nonzero" stroke="none" stroke-width="1" stroke-linecap="butt" stroke-linejoin="miter" stroke-miterlimit="10" stroke-dasharray="" stroke-dashoffset="0" style="mix-blend-mode: normal"><path d="M286.28718,128.96788c1.54795,0.3085 2.86879,1.10944 3.96253,2.40283c1.08218,1.29281 1.63623,2.72728 1.66214,4.30344c0.01285,0.44068 -0.05362,1.19585 -0.1994,2.26554l-0.40366,2.8807c-0.0617,0.30959 -0.07461,0.5695 -0.03874,0.77971c0.02048,0.09307 0.09822,0.27642 0.23322,0.55005l-2.43362,2.48456c0.72988,-0.47326 1.48663,-0.90464 2.27026,-1.29417c0.20137,-0.09892 0.39741,-0.19919 0.58815,-0.3008c0.30478,0.71491 0.46704,1.52777 0.48679,2.43859c0.02569,0.88134 -0.07822,1.92416 -0.31175,3.12845c-0.52876,2.71816 -1.41708,5.3316 -2.66496,7.84033c-1.23691,2.52086 -2.76959,4.81858 -4.59805,6.89318c-0.05577,0.06359 -0.10513,0.12483 -0.14808,0.18371c-1.35781,0.52407 -2.75189,0.96432 -4.18225,1.32076c-0.49376,0.14917 -0.69437,0.45765 -0.60181,0.92544c0.10124,0.52612 0.45507,0.74635 1.06147,0.66068c1.40869,-0.29369 2.80077,-0.69351 4.17623,-1.19948c0.31899,0.57168 0.09224,1.28994 -0.68025,2.1548c-0.3441,0.39978 -0.58657,0.73513 -0.72741,1.00605c-0.05208,0.10308 -0.09767,0.20504 -0.13678,0.30586c-0.21518,0.04916 -0.43723,0.09023 -0.66617,0.12323c0.58663,0.00743 1.1896,-0.00893 1.8089,-0.04909c-1.5739,1.00665 -3.2598,1.84349 -5.05774,2.51052c-0.68375,0.24395 -1.06947,0.54902 -1.15714,0.91522c-0.04671,0.24086 0.01719,0.46984 0.19168,0.68695c0.15139,0.21596 0.35272,0.35912 0.60397,0.42951c0.33097,0.0975 0.82391,0.08146 1.47883,-0.04812l7.68651,-1.58091c-2.23377,2.54081 -5.11218,4.77168 -8.63525,6.69261c-2.12155,1.15079 -4.59604,2.24374 -7.42347,3.27885c-0.90158,0.33015 -1.83828,0.65417 -2.81009,0.97206c-2.52458,0.82657 -4.83144,1.45886 -6.92056,1.89688c-0.82765,0.17759 -1.62232,0.32338 -2.38402,0.43739c-3.4415,0.51223 -6.59642,0.50025 -9.46474,-0.03597l-1.90822,0.9995c-2.66836,-0.13257 -7.90418,-0.91378 -15.70744,-2.34363c-7.39235,-1.36828 -11.86297,-2.40097 -13.41189,-3.09808c0.04725,-0.01227 0.09431,-0.0273 0.1412,-0.04509c1.03775,-0.3769 2.13466,-0.8956 3.29072,-1.55612c0.83442,-0.47964 1.8741,-1.12857 3.11906,-1.94679c1.17573,-0.77236 2.3381,-1.55993 3.48712,-2.36275c2.16607,-1.49335 4.29244,-3.03783 6.3791,-4.63347c2.61023,-1.61287 5.19371,-3.26782 7.7504,-4.96485c3.31794,-2.22061 6.59804,-4.49522 9.84028,-6.8238c3.49401,-2.50136 6.88545,-5.15257 10.17433,-7.95361c3.31255,-2.81146 6.53815,-5.73723 9.67679,-8.77734c3.12652,-3.02913 6.21374,-6.08338 9.26169,-9.16273c1.08231,-1.09987 2.15622,-2.20451 3.22172,-3.3139c0.03916,0.00737 0.07931,0.01516 0.12043,0.02335M299.31287,138.09146c2.9332,2.95963 3.31461,6.3541 1.14421,10.18343c-0.31745,0.55436 -0.64013,1.10574 -0.96804,1.65415c-1.23597,2.08499 -2.53627,4.13371 -3.90089,6.14618l0.1482,0.16369c-1.55259,1.50732 -3.20656,2.86684 -4.96194,4.07856l1.02013,-1.30416c0.45724,-0.57944 0.84837,-1.11005 1.17338,-1.59183c0.22629,-0.35932 0.58244,-1.00168 1.06845,-1.92708l2.58695,-5.22137c0.36304,-0.78097 0.58146,-1.33175 0.65529,-1.65232c0.12398,-0.63073 0.19952,-0.98596 0.22664,-1.06567c0.0254,-0.04506 0.1417,-0.28825 0.3489,-0.72957c0.22048,-0.4754 0.39176,-1.24274 0.51387,-2.30202c0.10711,-0.99055 0.12476,-1.81184 0.05293,-2.46388c-0.10598,-0.89692 -0.37593,-1.63985 -0.80987,-2.22883c-0.08172,-0.11412 -0.17446,-0.22873 -0.2782,-0.34384c1.36664,-1.12971 2.63311,-2.38111 3.79942,-3.75419l-1.81943,2.35875M295.59072,142.38795c0.20865,0.46198 0.32348,1.06405 0.34451,1.8062c0.01464,0.63762 -0.05523,1.5779 -0.20962,2.82086c-0.09915,0.59723 -0.19084,1.04429 -0.27507,1.34118c-0.02769,0.09127 -0.13359,0.35813 -0.31769,0.8006c-0.12003,0.31827 -0.2086,0.586 -0.26571,0.80318l-0.1582,1.08644c-0.03286,0.19523 -0.10525,0.48692 -0.21718,0.87507l-0.95974,3.23521c-0.11889,0.29517 -0.33129,0.72465 -0.63721,1.28845c-0.35558,0.63081 -0.63872,1.08572 -0.84944,1.36475c-0.4053,0.46622 -0.70667,0.8218 -0.90411,1.06675c-0.26152,0.36914 -0.435,0.59791 -0.52045,0.6863c-0.19573,0.21029 -0.5696,0.51017 -1.12162,0.89962c-0.50352,0.34554 -0.85486,0.65811 -1.05403,0.93771c0.0456,0.10377 0.11089,0.18807 0.19587,0.25291c-0.59495,0.34213 -1.20706,0.65911 -1.83633,0.95096c1.76341,-2.66704 3.1404,-5.09409 4.13098,-7.28115c0.90466,-1.99175 1.56274,-3.93342 1.97426,-5.82501c0.23888,-1.04343 0.39998,-2.07183 0.4833,-3.08518c0.12024,-1.48782 -0.00634,-2.66947 -0.37972,-3.54493c-0.05866,-0.11134 -0.11702,-0.21846 -0.1751,-0.32136c0.70715,-0.39003 1.38796,-0.80781 2.04243,-1.25337c0.38478,0.53944 0.62141,0.90438 0.70988,1.09482M290.36534,124.49802c0.65264,-0.69312 1.30102,-1.39044 1.94513,-2.09196c5.36822,1.26257 7.39275,4.56497 6.07358,9.90723c-0.15863,0.62901 -0.49085,1.13939 -0.99666,1.53113l-0.12224,2.46044l-1.8473,1.87101c-0.17068,-0.04702 -0.32663,-0.05477 -0.46783,-0.02324c-0.19809,0.04132 -0.37076,0.13696 -0.51798,0.28693c-0.04407,0.05489 -0.08766,0.11642 -0.13076,0.18457c-0.17378,0.23455 -0.25657,0.50256 -0.24838,0.80404c0.00007,0.04506 0.00355,0.09155 0.01044,0.13948l-1.7555,1.77135c-0.06562,-0.23142 -0.10613,-0.46503 -0.12151,-0.70082c-0.03365,-0.48802 0.03575,-1.06936 0.20823,-1.744c0.2227,-0.7532 0.37268,-1.32475 0.44995,-1.71462c0.37773,-1.77611 0.10544,-3.52082 -0.81689,-5.23415c-0.9333,-1.72544 -2.24041,-2.91942 -3.92131,-3.58192c-0.39207,-0.14519 -0.75769,-0.24441 -1.09688,-0.29767c0.50579,-0.52966 1.00694,-1.0606 1.50345,-1.59281c0.12054,0.15033 0.28173,0.28571 0.48354,0.40616c0.11265,0.0635 0.45259,0.21355 1.01983,0.45017c0.83873,0.36591 1.60015,1.00589 2.28427,1.91994c0.45646,0.60167 0.97973,1.49036 1.56979,2.66608c0.40223,0.76109 0.60341,1.37324 0.60355,1.83644c0.00638,0.10454 -0.03623,0.49613 -0.12784,1.1748c-0.05819,0.47188 -0.01879,0.8444 0.11818,1.11754c-0.18009,0.36161 -0.28046,0.75033 -0.30112,1.16619c-0.02066,0.41585 0.04675,0.80713 0.20223,1.17382c0.22499,-0.79941 0.55337,-1.58211 0.98514,-2.34809c0.20204,-0.33736 0.34779,-0.59067 0.43725,-0.75992c0.17722,-0.30385 0.30621,-0.56957 0.387,-0.79716c0.18337,-0.54247 0.25073,-1.19917 0.2021,-1.97012c-0.01505,-0.31268 -0.05067,-0.64448 -0.10688,-0.99538c-0.33853,-2.04329 -0.94258,-3.63658 -1.81217,-4.77987c-0.54371,-0.71022 -1.19913,-1.26966 -1.96626,-1.67833c-0.70248,-0.3652 -1.4112,-0.55094 -2.12617,-0.55725M290.034,164.03255c-0.16164,0.22357 -0.27073,0.43817 -0.32727,0.64379c-0.06835,0.2439 -0.06307,0.48734 0.01582,0.73032c-0.33944,0.27956 -0.68878,0.5517 -1.04801,0.81642c-0.00935,-0.13227 -0.06772,-0.2394 -0.1751,-0.32136c-0.71288,0.65458 -1.45543,1.26616 -2.22764,1.83474c-0.41776,0.20256 -0.84942,0.38377 -1.29501,0.54361c-0.16627,0.06457 -0.33721,0.12556 -0.51281,0.18296c0.33706,-0.41465 0.68345,-0.86064 1.03918,-1.33796c0.52131,-0.70363 0.7354,-1.28357 0.64227,-1.73981c-0.01908,-0.08201 -0.07487,-0.24111 -0.16735,-0.4773c1.84936,-0.77612 3.62765,-1.72417 5.33486,-2.84415c-0.1952,0.49647 -0.4613,0.95802 -0.79832,1.38466c-0.22112,0.25535 -0.38133,0.45004 -0.48063,0.58407z" fill="#ffffff"/><path d="M314.81565,107.14443c-0.99805,3.54017 -2.22425,7.01111 -3.67861,10.41281c-1.32278,3.084 -2.82001,6.0667 -4.49171,8.94809c1.74466,-2.25245 3.34318,-4.59323 4.79554,-7.02232c1.64284,-2.76703 3.13262,-5.59955 4.46933,-8.49759c0.37573,-0.8035 0.86239,-1.50885 1.45997,-2.11606c0.29337,-0.07807 0.53194,0.01485 0.71568,0.27874c0.38019,0.50524 0.53862,1.04578 0.47527,1.62163c-0.41238,3.63875 -1.06531,7.22502 -1.95882,10.7588c-0.83812,3.35126 -1.84231,6.66532 -3.01255,9.94218c-1.18638,3.3687 -2.65061,6.61937 -4.39269,9.75202c-2.69451,4.82231 -5.72088,9.44866 -9.07912,13.87901c-2.33005,3.08028 -4.79845,6.0321 -7.40523,8.85546c-1.7196,1.88183 -3.71312,3.43292 -5.98058,4.65327c-0.95784,0.79874 -1.99347,1.48261 -3.1069,2.05161l5.92442,-1.42528c1.07822,-0.25909 1.73668,-0.11058 1.97539,0.44553c0.1468,0.30837 0.09984,0.67081 -0.14087,1.0873c-0.24472,0.49736 -0.75567,1.10886 -1.53283,1.83453c-1.89498,1.78179 -3.36127,3.09274 -4.39887,3.93284c-1.70047,1.363 -3.33925,2.41641 -4.91632,3.16023c-0.71202,0.34676 -1.96401,0.84039 -3.75596,1.4809l-4.15449,1.4611c-2.25107,0.7914 -3.94689,1.36141 -5.08745,1.71004c-1.89363,0.58913 -3.62385,1.03585 -5.19066,1.34014c-2.56426,0.48168 -4.94577,0.63549 -7.14454,0.46144c-1.22123,-0.08618 -2.3871,-0.27728 -3.49758,-0.57326c-0.51407,-0.14134 -0.79859,-0.35812 -0.85355,-0.65035c2.86832,0.53622 6.02324,0.5482 9.46474,0.03597c0.7617,-0.11401 1.55638,-0.25981 2.38402,-0.43739c2.08913,-0.43802 4.39598,-1.07032 6.92056,-1.89688c0.97181,-0.31789 1.90851,-0.6419 2.81009,-0.97206c2.82743,-1.03511 5.30191,-2.12806 7.42347,-3.27885c3.52308,-1.92092 6.40149,-4.15179 8.63525,-6.69261l-7.68651,1.58091c-0.65491,0.12959 -1.14785,0.14562 -1.47883,0.04812c-0.25126,-0.07038 -0.45259,-0.21355 -0.60397,-0.42951c-0.17449,-0.21711 -0.23838,-0.44609 -0.19168,-0.68695c0.08767,-0.3662 0.47339,-0.67127 1.15714,-0.91522c1.79794,-0.66703 3.48385,-1.50387 5.05774,-2.51052c-0.6193,0.04016 -1.22227,0.05652 -1.8089,0.04909c0.22894,-0.033 0.451,-0.07408 0.66617,-0.12323c0.29771,-0.06609 0.58531,-0.14444 0.86279,-0.23505c0.1756,-0.0574 0.34654,-0.11839 0.51281,-0.18296c0.44558,-0.15984 0.87725,-0.34104 1.29501,-0.54361c0.77221,-0.56858 1.51476,-1.18017 2.22764,-1.83474c0.10738,0.08196 0.16575,0.18908 0.1751,0.32136c0.35923,-0.26473 0.70858,-0.53687 1.04801,-0.81642c1.12119,-0.91094 2.18387,-1.90613 3.18804,-2.98555c0.83852,-0.91653 1.64998,-1.86629 2.43436,-2.84929c0.58507,-0.7404 1.15545,-1.4995 1.71116,-2.27728c-0.20816,0.22021 -0.4215,0.43542 -0.64002,0.64563c-1.41028,1.41899 -2.93809,2.68635 -4.58344,3.80208c-0.16861,0.11335 -0.34184,0.22054 -0.5197,0.32157c-1.70722,1.11998 -3.48551,2.06803 -5.33486,2.84415c-0.07696,0.03042 -0.15376,0.06134 -0.23042,0.09277c-0.20045,0.0787 -0.40113,0.15558 -0.60203,0.23063c-1.37546,0.50596 -2.76753,0.90578 -4.17623,1.19948c-0.60641,0.08567 -0.96023,-0.13456 -1.06147,-0.66068c-0.09256,-0.46779 0.10804,-0.77627 0.60181,-0.92544c1.43036,-0.35644 2.82444,-0.7967 4.18225,-1.32076c0.33255,-0.12909 0.66345,-0.26319 0.9927,-0.4023c0.38045,-0.16185 0.75379,-0.33438 1.12001,-0.51756c0.62927,-0.29185 1.24138,-0.60883 1.83633,-0.95096c0.56845,-0.31766 1.12367,-0.65484 1.66565,-1.01155c0.15807,-0.10604 0.31397,-0.2141 0.46772,-0.32416c1.75538,-1.21173 3.40936,-2.57125 4.96194,-4.07856c3.08956,-2.98465 5.86225,-6.234 8.31806,-9.74808c2.38077,-3.402 4.44613,-6.98178 6.19609,-10.73936c1.91792,-4.1082 3.50081,-8.34885 4.74867,-12.72194c1.05114,-3.67649 1.79068,-7.37425 2.21862,-11.09328c-2.2971,4.98102 -5.03293,9.70285 -8.2075,14.16549c-2.39117,3.37833 -5.01717,6.58865 -7.878,9.63098c-1.16631,1.37307 -2.43278,2.62446 -3.79942,3.75419c-0.78241,0.6447 -1.59976,1.24678 -2.45202,1.80622c-0.65446,0.44556 -1.33526,0.86335 -2.04243,1.25337c-0.29299,0.1686 -0.59644,0.33301 -0.91037,0.49324c-0.19073,0.10162 -0.38679,0.20189 -0.58815,0.3008c-0.78362,0.38952 -1.54038,0.82091 -2.27026,1.29417l2.43362,-2.48456l0.80457,-0.81115l1.7555,-1.77135l1.35451,-1.39177l1.8473,-1.87101c2.95611,-3.09549 5.49831,-6.48369 7.6266,-10.16457c2.22988,-3.8611 4.13022,-7.8486 5.70102,-11.96247c1.51771,-3.97755 2.8191,-8.02953 3.90417,-12.15596c0.81338,-3.08615 1.53548,-6.2 2.16634,-9.34154l0.58843,-4.85168l-2.15939,3.95725c-2.10404,3.65892 -4.37212,7.24022 -6.80425,10.74388c-2.43214,3.50366 -4.97577,6.92073 -7.6309,10.2512c-2.64243,3.30794 -5.42466,6.5163 -8.34669,9.62506c-0.6441,0.70152 -1.29248,1.39884 -1.94513,2.09196c-0.60859,0.66402 -1.22608,1.32233 -1.85247,1.97497c-0.49652,0.5322 -0.99766,1.06314 -1.50345,1.59281c-0.2806,0.29343 -0.56149,0.58634 -0.84267,0.87873c-1.0655,1.10939 -2.13941,2.21403 -3.22172,3.3139c-3.04795,3.07935 -6.13518,6.1336 -9.26169,9.16273c-3.13864,3.04011 -6.36423,5.96589 -9.67679,8.77734c-3.28888,2.80105 -6.68033,5.45225 -10.17433,7.95361c-3.24225,2.32859 -6.52234,4.60319 -9.84028,6.8238c-2.5567,1.69704 -5.14017,3.35198 -7.7504,4.96485c-2.08666,1.59563 -4.21303,3.14013 -6.3791,4.63347c-1.14902,0.80281 -2.31139,1.59039 -3.48712,2.36275c-1.24495,0.81822 -2.28464,1.46715 -3.11906,1.94679c-1.15606,0.66052 -2.25297,1.17923 -3.29072,1.55612c-0.04689,0.0178 -0.09396,0.03283 -0.1412,0.04509c-0.3264,0.10827 -0.64087,0.14475 -0.94341,0.10946c-0.41412,-0.05532 -0.65993,-0.23543 -0.73742,-0.54036c-0.10641,-0.42216 0.1808,-0.84214 0.8616,-1.25993l13.30944,-8.47528c0.96156,-0.62065 1.78472,-1.10664 2.46946,-1.45796c2.24706,-1.40736 4.48264,-2.81905 6.7067,-4.23506c3.52873,-2.26803 6.98698,-4.63221 10.37473,-7.09254c2.81148,-2.04892 5.56893,-4.17578 8.27235,-6.38061c2.49902,-2.05286 4.95556,-4.1831 7.36963,-6.39072c3.0313,-2.74436 6.00801,-5.55513 8.93012,-8.43231c2.5572,-2.52475 5.07627,-5.0977 7.5572,-7.71887c2.60333,-2.75405 5.19454,-5.49712 7.77362,-8.22921c2.12758,-2.26817 4.22251,-4.57849 6.2848,-6.93097c2.45546,-2.80771 4.74916,-5.73927 6.88111,-8.79465c2.39404,-3.43608 4.69767,-6.91718 6.91091,-10.44329c1.823,-2.89704 3.69656,-5.76261 5.62065,-8.59672c0.29961,-0.43673 0.72547,-0.73402 1.27756,-0.89187c0.40028,0.10094 0.57912,0.34721 0.5365,0.73881c-0.27929,2.59159 -0.66082,5.14337 -1.14459,7.65532c-0.89429,4.71489 -2.00085,9.39029 -3.31967,14.02619z" fill="#000000"/><path d="M297.61108,139.83074c0.43393,0.58897 0.70389,1.33191 0.80987,2.22883c0.07183,0.65204 0.05418,1.47333 -0.05293,2.46388c-0.1221,1.05928 -0.29339,1.82662 -0.51387,2.30202c-0.2072,0.44132 -0.3235,0.68451 -0.3489,0.72957c-0.02712,0.07971 -0.10267,0.43494 -0.22664,1.06567c-0.07383,0.32057 -0.29225,0.87134 -0.65529,1.65232l-2.58695,5.22137c-0.48601,0.9254 -0.84215,1.56776 -1.06845,1.92708c-0.32502,0.48178 -0.71614,1.0124 -1.17338,1.59183l-1.02013,1.30416c-0.15374,0.11006 -0.30965,0.21812 -0.46772,0.32416c-0.54198,0.3567 -1.09719,0.69389 -1.66565,1.01155c-0.08498,-0.06483 -0.15028,-0.14913 -0.19587,-0.25291c0.19917,-0.2796 0.55051,-0.59217 1.05403,-0.93771c0.55202,-0.38945 0.9259,-0.68933 1.12162,-0.89962c0.08545,-0.0884 0.25894,-0.31716 0.52045,-0.6863c0.19745,-0.24495 0.49882,-0.60053 0.90411,-1.06675c0.21072,-0.27902 0.49386,-0.73395 0.84944,-1.36475c0.30593,-0.5638 0.51833,-0.99327 0.63721,-1.28845l0.95974,-3.23521c0.11193,-0.38816 0.18431,-0.67985 0.21718,-0.87507l0.1582,-1.08644c0.05711,-0.21718 0.14568,-0.48491 0.26571,-0.80318c0.1841,-0.44247 0.29,-0.70933 0.31769,-0.8006c0.08423,-0.2969 0.17592,-0.74395 0.27507,-1.34118c0.15439,-1.24296 0.22427,-2.18325 0.20962,-2.82086c-0.02103,-0.74215 -0.13586,-1.34423 -0.34451,-1.8062c-0.08847,-0.19045 -0.32509,-0.55538 -0.70988,-1.09482c0.85227,-0.55945 1.66961,-1.16152 2.45202,-1.80622c0.10374,0.11512 0.19648,0.22974 0.2782,0.34384M304.05441,146.49083c-2.45581,3.51407 -5.2285,6.76343 -8.31806,9.74808l-0.1482,-0.16369c1.36463,-2.01246 2.66492,-4.06119 3.90089,-6.14618c0.32791,-0.54841 0.65059,-1.09979 0.96804,-1.65415c2.1704,-3.82932 1.789,-7.2238 -1.14421,-10.18343l1.81943,-2.35875c2.86083,-3.04233 5.48684,-6.25266 7.878,-9.63098c3.17457,-4.46265 5.91041,-9.18447 8.2075,-14.16549c-0.42794,3.71903 -1.16748,7.4168 -2.21862,11.09328c-1.24787,4.37309 -2.83076,8.61373 -4.74867,12.72194c-1.74996,3.75758 -3.81532,7.33736 -6.19609,10.73936M292.90994,149.49797c-0.41152,1.89159 -1.06961,3.83326 -1.97426,5.82501c-0.99058,2.18706 -2.36757,4.61411 -4.13098,7.28115c-0.36622,0.18319 -0.73956,0.35571 -1.12001,0.51756c-0.32925,0.13911 -0.66015,0.27321 -0.9927,0.4023c0.04296,-0.05888 0.09232,-0.12012 0.14808,-0.18371c1.82847,-2.07459 3.36115,-4.37232 4.59805,-6.89318c1.24788,-2.50874 2.1362,-5.12218 2.66496,-7.84033c0.23353,-1.20428 0.33745,-2.2471 0.31175,-3.12845c-0.01975,-0.91081 -0.18202,-1.72368 -0.48679,-2.43859c0.31393,-0.16023 0.61738,-0.32464 0.91037,-0.49324c0.05808,0.1029 0.11644,0.21002 0.1751,0.32136c0.37338,0.87546 0.49995,2.0571 0.37972,3.54493c-0.08332,1.01335 -0.24442,2.04175 -0.4833,3.08518M295.41785,138.17588l-1.35451,1.39177c-0.00689,-0.04793 -0.01037,-0.09442 -0.01044,-0.13948c-0.00818,-0.30149 0.07461,-0.5695 0.24838,-0.80404c0.0431,-0.06815 0.08669,-0.12968 0.13076,-0.18457c0.14722,-0.14996 0.31989,-0.2456 0.51798,-0.28693c0.14121,-0.03153 0.29714,-0.02378 0.46783,0.02324M292.49151,125.05527c0.76713,0.40867 1.42254,0.96811 1.96626,1.67833c0.86959,1.14329 1.47364,2.73658 1.81217,4.77987c0.05621,0.35091 0.09183,0.68271 0.10688,0.99538c0.04864,0.77094 -0.01873,1.42764 -0.2021,1.97012c-0.08079,0.22759 -0.20979,0.4933 -0.387,0.79716c-0.08947,0.16926 -0.23522,0.42256 -0.43725,0.75992c-0.43177,0.76598 -0.76015,1.54868 -0.98514,2.34809c-0.15548,-0.3667 -0.22289,-0.75798 -0.20223,-1.17382c0.02066,-0.41585 0.12103,-0.80458 0.30112,-1.16619c-0.13697,-0.27314 -0.17636,-0.64565 -0.11818,-1.11754c0.09162,-0.67866 0.13423,-1.07026 0.12784,-1.1748c-0.00014,-0.4632 -0.20133,-1.07535 -0.60355,-1.83644c-0.59006,-1.17572 -1.11332,-2.06441 -1.56979,-2.66608c-0.68412,-0.91406 -1.44554,-1.55404 -2.28427,-1.91994c-0.56724,-0.23662 -0.90718,-0.38667 -1.01983,-0.45017c-0.20182,-0.12044 -0.363,-0.25583 -0.48354,-0.40616c0.62639,-0.65263 1.24388,-1.31096 1.85247,-1.97497c0.71497,0.0063 1.4237,0.19205 2.12617,0.55725M317.2517,87.82867l-0.58843,4.85168c-0.63085,3.14153 -1.35296,6.25539 -2.16634,9.34154c-1.08507,4.12642 -2.38647,8.17841 -3.90417,12.15596c-1.5708,4.11387 -3.47114,8.10136 -5.70102,11.96247c-2.12828,3.68088 -4.67048,7.06907 -7.6266,10.16457l0.12224,-2.46044c0.50581,-0.39174 0.83804,-0.90213 0.99666,-1.53113c1.31918,-5.34225 -0.70535,-8.64466 -6.07358,-9.90723c2.92204,-3.10877 5.70426,-6.31713 8.34669,-9.62506c2.65513,-3.33047 5.19876,-6.74753 7.6309,-10.2512c2.43214,-3.50366 4.70022,-7.08496 6.80425,-10.74388l2.15939,-3.95725M295.34495,159.57182c-0.78438,0.983 -1.59584,1.93276 -2.43436,2.84929c-1.00417,1.07942 -2.06684,2.0746 -3.18804,2.98555c-0.07889,-0.24298 -0.08417,-0.48642 -0.01582,-0.73032c0.05654,-0.20563 0.16563,-0.42022 0.32727,-0.64379c0.0993,-0.13402 0.25951,-0.32871 0.48063,-0.58407c0.33702,-0.42664 0.60312,-0.88819 0.79832,-1.38466c0.17786,-0.10104 0.35109,-0.20823 0.5197,-0.32157c1.64535,-1.11573 3.17317,-2.38309 4.58344,-3.80208c-0.05816,0.15272 -0.14099,0.30493 -0.24849,0.45664l-0.82264,1.17501M285.74767,165.00075c0.07666,-0.03143 0.15346,-0.06235 0.23042,-0.09277c0.09249,0.2362 0.14827,0.39529 0.16735,0.4773c0.09313,0.45624 -0.12096,1.03618 -0.64227,1.73981c-0.35573,0.47732 -0.70212,0.92331 -1.03918,1.33796c-0.27749,0.09061 -0.56508,0.16896 -0.86279,0.23505c0.03912,-0.10083 0.08471,-0.20278 0.13678,-0.30586c0.14084,-0.27092 0.38331,-0.60627 0.72741,-1.00605c0.7725,-0.86485 0.99925,-1.58311 0.68025,-2.1548c0.2009,-0.07506 0.40158,-0.15194 0.60203,-0.23063M287.00942,128.0658c0.33918,0.05327 0.70481,0.15249 1.09688,0.29767c1.68091,0.6625 2.98801,1.85647 3.92131,3.58192c0.92233,1.71332 1.19462,3.45803 0.81689,5.23415c-0.07727,0.38988 -0.22725,0.96142 -0.44995,1.71462c-0.17247,0.67464 -0.24188,1.25598 -0.20823,1.744c0.01538,0.2358 0.05588,0.46941 0.12151,0.70082l-0.80457,0.81115c-0.13499,-0.27363 -0.21274,-0.45698 -0.23322,-0.55005c-0.03588,-0.21022 -0.02297,-0.47013 0.03874,-0.77971l0.40366,-2.8807c0.14579,-1.06968 0.21225,-1.82486 0.1994,-2.26554c-0.02592,-1.57614 -0.57996,-3.01062 -1.66214,-4.30344c-1.09373,-1.29339 -2.41457,-2.09432 -3.96253,-2.40283c-0.04112,-0.00819 -0.08126,-0.01598 -0.12043,-0.02335c0.28118,-0.2924 0.56207,-0.58531 0.84267,-0.87873z" fill="#5b5d5e"/></g></g></svg>