<svg version="1.1" xmlns="http://www.w3.org/2000/svg" xmlns:xlink="http://www.w3.org/1999/xlink" width="125.94643" height="154.19827" viewBox="0,0,125.94643,154.19827"><g transform="translate(-229.22443,-63.33238)"><g data-paper-data="{&quot;isPaintingLayer&quot;:true}" fill-rule="nonzero" stroke-width="1" stroke-miterlimit="10" stroke-dasharray="" stroke-dashoffset="0" style="mix-blend-mode: normal"><g stroke="none" stroke-linecap="butt" stroke-linejoin="miter"><path d="M283.17514,114.05395c1.08824,-0.23978 2.19031,-0.10606 3.30621,0.40117c1.07901,0.50723 1.93208,1.24963 2.5592,2.2272c0.27667,0.43345 0.53028,0.94529 0.76084,1.53552c0.0749,0.18971 0.16251,0.4341 0.26284,0.73318c0.0745,0.22184 0.15289,0.47084 0.23517,0.74701c0.00753,0.00897 0.01214,0.01819 0.01383,0.02767c0.01441,0.0406 0.02824,0.0821 0.0415,0.1245c0.35045,1.09746 0.56256,1.9413 0.63634,2.53153c0.17522,1.30035 0.02306,2.84048 -0.45651,4.62039c-0.26745,1.01446 -0.72857,2.53614 -1.38335,4.56506c-0.05533,0.22134 -0.14295,0.54873 -0.26284,0.98218c-0.11067,0.36889 -0.22595,0.68245 -0.34584,0.94068c-0.11989,0.26745 -0.31817,0.66862 -0.59484,1.20352c-0.21211,0.47034 -0.30895,0.88535 -0.2905,1.24502c0.01708,0.3418 0.12313,0.57697 0.31817,0.70551c-0.70151,0.87774 -1.41624,1.74926 -2.14419,2.61453c-1.17711,1.39945 -2.37601,2.77358 -3.59671,4.12239c-6.68198,7.37834 -14.02297,13.99538 -22.02296,19.8511c-0.23978,0.17522 -0.41962,0.36428 -0.53951,0.56717c-0.14756,0.23978 -0.16139,0.45189 -0.0415,0.63634c0.13834,0.21211 0.36428,0.28128 0.67784,0.2075c0.23978,-0.06456 0.48878,-0.20289 0.74701,-0.41501c1.30222,-1.07757 2.57952,-2.1612 3.83188,-3.25088l0.31817,0.3735c-0.82079,0.71012 -1.48019,1.30957 -1.97819,1.79836c0.37812,0.083 0.78851,0.01383 1.23118,-0.2075c0.30434,-0.14756 0.67323,-0.40117 1.10668,-0.76084c10.62472,-8.63038 21.38719,-17.04577 32.28743,-25.24617c0.1852,0.11582 0.42498,0.15271 0.71934,0.11067c0.11989,-0.01844 0.41501,-0.12911 0.88535,-0.332c0.97757,-0.44267 2.01969,-0.66401 3.12637,-0.66401c1.09746,0 2.13497,0.22134 3.11254,0.66401c0.57179,0.249 1.00524,0.5349 1.30035,0.85768c0.31356,0.34123 0.60867,0.85307 0.88535,1.53552c0.59945,1.41102 0.85768,2.61915 0.77468,3.62438c-0.03689,0.40578 -0.12911,0.85768 -0.27667,1.35568c-0.083,0.28589 -0.23517,0.71934 -0.45651,1.30035c-0.95912,2.5177 -1.71536,4.35295 -2.2687,5.50574c-0.54412,1.1159 -1.5263,2.87276 -2.94654,5.27057l-0.62251,1.03751c-3.26727,2.1634 -6.50431,4.02631 -9.71113,5.58874c-2.39781,1.17124 -5.29363,2.41625 -8.68745,3.73505c-3.92872,1.4848 -6.87526,2.59609 -8.83962,3.33388c-0.68245,0.25823 -1.20352,0.50723 -1.56319,0.74701c-0.5349,0.34123 -0.90379,0.7424 -1.10668,1.20352c0.43345,-0.12911 0.8669,-0.25823 1.30035,-0.38734c-3.22782,1.07901 -6.5202,1.96436 -9.87713,2.65604c-0.40578,0.083 -0.7424,0.23517 -1.00985,0.45651c-0.31356,0.26745 -0.40117,0.54873 -0.26284,0.84384c0.14756,0.28589 0.52106,0.41962 1.12051,0.40117c12.82144,-0.30416 25.91255,-2.15324 39.27335,-5.54724c0.01131,0.0018 0.02053,0.0018 0.02767,0c0.82825,-0.20984 1.65365,-0.42657 2.4762,-0.65018c0.01048,0.03267 0.01971,0.06495 0.02767,0.09683c0.01844,0.06456 0.06917,0.18906 0.15217,0.3735c0.06456,0.14756 0.10606,0.27206 0.1245,0.3735c0.01844,0.12911 0,0.32278 -0.05533,0.58101c-0.12911,0.64556 -0.249,1.12513 -0.35967,1.43869c-0.12911,0.36889 -0.41962,0.95451 -0.87151,1.75686l-1.06518,1.86752c-0.62712,1.09746 -1.21735,1.96897 -1.77069,2.61453c-0.73163,0.87796 -1.52475,1.52352 -2.37936,1.93669c0.01185,-0.00814 0.02107,-0.01736 0.02767,-0.02767c0.17522,-0.25823 0.42423,-0.65018 0.74701,-1.17585c0.166,-0.23978 0.43345,-0.59023 0.80234,-1.05135c0.13834,-0.20289 0.31817,-0.51645 0.53951,-0.94068c0.35967,-0.66401 0.87151,-1.66924 1.53552,-3.01571c0.25823,-0.55334 0.42423,-0.97296 0.49801,-1.25885c0.11067,-0.42423 0.15678,-1.06979 0.13834,-1.93669c0,-0.27667 -0.03228,-0.47495 -0.09683,-0.59484c-0.04611,-0.09222 -0.11067,-0.17061 -0.19367,-0.23517c-0.09222,-0.05533 -0.18445,-0.07839 -0.27667,-0.06917c-0.17522,0.02767 -0.29512,0.13834 -0.35967,0.332l0.332,0.13834c0.07378,0.85768 0.05995,1.49402 -0.0415,1.90903c-0.07378,0.30434 -0.22134,0.67784 -0.44267,1.12051l-0.52567,1.12051c-0.30434,0.66401 -0.58101,1.23579 -0.83001,1.71536c-0.23056,0.43345 -0.39195,0.72395 -0.48417,0.87151c-0.12911,0.20289 -0.45189,0.62712 -0.96835,1.27268c-0.71934,0.92223 -1.24041,1.62774 -1.56319,2.11653c-0.23056,0.35045 -0.3735,0.55795 -0.42884,0.62251c-0.01736,0.0241 -0.03581,0.04716 -0.05533,0.06917c-10.77782,3.1637 -21.27746,4.76377 -31.49892,4.80023c-0.11265,0 -0.22793,0 -0.34584,0c-0.30434,-0.00922 -0.5764,0.05995 -0.81618,0.2075c-0.26745,0.166 -0.35045,0.36428 -0.249,0.59484c0.05533,0.11989 0.22595,0.23517 0.51184,0.34584c0.4863,0.17069 0.98431,0.33669 1.49402,0.49801c4.52558,1.43746 10.00826,2.53953 16.44805,3.30621c0,0.08163 0.00922,0.16463 0.02767,0.249c0.01844,0.05533 0.06917,0.19828 0.15217,0.42884c0.05533,0.166 0.08761,0.30895 0.09683,0.42884c0.01844,0.15678 -0.0415,0.41039 -0.17984,0.76084c-0.27667,0.63634 -0.64095,1.29113 -1.09285,1.96436c-1.38335,2.03814 -3.18171,3.58749 -5.39507,4.64806c-0.09795,0.04572 -0.18556,0.09183 -0.26284,0.13834c-1.46142,0.04103 -2.88627,0.05948 -4.27456,0.05533c-1.00614,-0.00252 -2.00215,-0.01636 -2.98804,-0.0415c-6.21377,-0.16604 -12.04229,-0.80238 -17.48556,-1.90903c-0.00234,0.0014 -0.00695,0.0014 -0.01383,0c-0.25823,-0.04611 -0.48878,-0.03689 -0.69168,0.02767c-0.249,0.083 -0.35967,0.22134 -0.332,0.41501c0.01844,0.19367 0.21211,0.35045 0.58101,0.47034c0.32087,0.10361 0.64827,0.22811 0.98218,0.3735c0.02479,0.00785 0.04784,0.01246 0.06917,0.01383c0.03404,0.00558 0.06632,0.0102 0.09683,0.01383c0.249,0.02767 0.6594,0.10145 1.23118,0.22134c1.94026,0.39134 3.89078,0.71412 5.85158,0.96835c0.02738,-0.01816 0.05043,-0.0366 0.06917,-0.05533v-0.01383c0.87468,0.07893 1.74158,0.1481 2.6007,0.2075c-0.17324,0.03639 -0.34847,0.07327 -0.52567,0.11067c2.58532,0.26367 5.18602,0.40661 7.8021,0.42884c1.38504,0.01618 2.77301,-0.00227 4.16389,-0.05533c0.84547,-0.03358 1.68931,-0.07969 2.53153,-0.13834c0.06463,0.12432 0.15685,0.29032 0.27667,0.49801c0.249,0.50723 0.26745,1.09285 0.05533,1.75686c-0.13834,0.39656 -0.42423,0.92223 -0.85768,1.57702c-0.69168,1.04212 -1.25424,1.81219 -1.68769,2.3102c-0.7009,0.80234 -1.42485,1.39257 -2.17186,1.77069c0.00285,0.02547 0.00746,0.04853 0.01383,0.06917c-0.29212,0.02032 -0.58263,0.03415 -0.87151,0.0415c-0.83898,0.0348 -1.64594,0.04402 -2.42087,0.02767c-0.87612,-0.01844 -1.71074,-0.06917 -2.50387,-0.15217c-0.91301,-0.10145 -1.54013,-0.14756 -1.88136,-0.13834c-0.7009,0.01844 -1.27729,0.17522 -1.72919,0.47034c0.93146,0.47034 2.24103,0.73779 3.92872,0.80234c0.48878,0.01844 0.99601,0.03228 1.52169,0.0415c0.97281,0.00627 2.00572,-0.0214 3.09871,-0.083c-0.19043,0.78239 -0.47171,1.43717 -0.84384,1.96436c-0.59945,0.85768 -1.44791,1.46635 -2.54537,1.82602c-0.35045,0.10145 -0.60867,0.18445 -0.77468,0.249c-0.29512,0.10145 -0.53028,0.22595 -0.70551,0.3735c-0.06362,0.05692 -0.11434,0.11225 -0.15217,0.166c-0.27901,-0.02972 -0.56029,-0.062 -0.84384,-0.09683c-2.15868,-0.26467 -4.34898,-0.65662 -6.57092,-1.17585c-0.25127,-0.0571 -0.50489,-0.11704 -0.76084,-0.17984c-1.66002,-0.41501 -3.04337,-0.83923 -4.15005,-1.27268c-0.76913,-0.30246 -1.85737,-0.80508 -3.26471,-1.50785c0.48922,0.56454 1.01028,1.10866 1.56319,1.63235l-2.28253,-1.09285c-0.11067,-0.11989 -0.63634,-0.78851 -1.57702,-2.00586c-0.40578,-0.51645 -0.89918,-1.3188 -1.48019,-2.40703c-0.33074,-0.62932 -0.59819,-1.13193 -0.80234,-1.50785c-0.20721,-0.37307 -0.35016,-0.61746 -0.42884,-0.73318c-0.03804,-0.0584 -0.07954,-0.11834 -0.1245,-0.17984c-0.01747,-0.03307 -0.04053,-0.06996 -0.06917,-0.11067c-0.42199,-0.63205 -0.92461,-1.32373 -1.50785,-2.07503c-0.02219,-0.03484 -0.04986,-0.07173 -0.083,-0.11067c-0.10717,-0.14057 -0.22245,-0.28813 -0.34584,-0.44267c-0.32076,-0.41003 -0.6666,-0.83887 -1.03751,-1.28652c-1.57702,-1.87214 -2.79898,-3.35232 -3.66588,-4.44056c-0.45189,-0.57179 -1.1574,-1.80758 -2.11653,-3.70738c-0.85746,-1.72245 -1.68747,-3.53003 -2.49003,-5.42274c-0.17357,-0.42981 -0.34879,-0.86326 -0.52567,-1.30035c-2.6007,-6.40953 -3.90105,-11.34809 -3.90105,-14.8157c0,-1.75225 0.27206,-4.27456 0.81618,-7.56693c0.21129,-1.29545 0.41418,-2.38369 0.60867,-3.26471c0.20275,-0.9093 0.39642,-1.59637 0.58101,-2.06119c0.37649,-0.0446 0.77306,-0.15527 1.18968,-0.332c0.41501,-0.166 0.93607,-0.45189 1.56319,-0.85768c0.18236,-0.11658 0.36219,-0.23647 0.53951,-0.35967c1.0891,-0.70043 2.17734,-1.44283 3.26471,-2.2272c1.15553,-0.81848 2.31294,-1.68077 3.47221,-2.58687c4.04756,-3.16114 8.1469,-6.83163 12.298,-11.01148c4.1685,-4.20539 9.86791,-10.55036 17.09823,-19.03492l1.61852,-1.53552c2.6007,-1.05135 5.23368,-1.8998 7.89894,-2.54537c1.24502,-0.30434 2.28714,-0.47034 3.12637,-0.49801c1.16202,-0.03689 2.15342,0.17061 2.97421,0.62251c0.64556,0.35045 1.23118,0.86229 1.75686,1.53552c0.47034,0.57179 0.80234,1.16663 0.99601,1.78452c0.166,0.54412 0.23056,1.16663 0.19367,1.86752c-0.02767,0.47034 -0.11067,1.10668 -0.249,1.90903l-0.19367,1.06518c-0.15678,0.87612 -0.2905,1.55858 -0.40117,2.04736c-0.59023,2.7667 -1.48019,5.45041 -2.66987,8.05111c-0.23589,0.51216 -0.47567,0.99173 -0.71934,1.43869c-0.03339,0.0625 -0.07028,0.12706 -0.11067,0.19367l-3.65205,5.71324c-0.15678,0.23978 -0.22134,0.43345 -0.19367,0.58101c0.03689,0.15678 0.14756,0.26284 0.332,0.31817c0.18445,0.04611 0.35045,0.02767 0.49801,-0.05533c0.10087,-0.05501 0.1977,-0.14723 0.2905,-0.27667c0.10091,-0.13254 0.19774,-0.30315 0.2905,-0.51184c0.49091,-1.14281 0.87364,-2.03277 1.14818,-2.66987c0.16629,-0.16074 0.3369,-0.37747 0.51184,-0.65018c1.11526,-1.73481 2.0421,-3.48244 2.78054,-5.2429c0.64265,-1.50702 1.14526,-3.0241 1.50785,-4.55123l0.84384,-4.05322c0.18445,-0.93146 0.30434,-1.60469 0.35967,-2.01969c0.11067,-0.75623 0.15217,-1.43869 0.1245,-2.04736c-0.02298,-0.54725 -0.10137,-1.07293 -0.23517,-1.57702c-0.06178,-0.25246 -0.14017,-0.50146 -0.23517,-0.74701c-0.09165,-0.23866 -0.1977,-0.47383 -0.31817,-0.70551c-0.52567,-0.99601 -1.23118,-1.72919 -2.11653,-2.19953c-0.67323,-0.35967 -1.46635,-0.56717 -2.37936,-0.62251c-0.69168,-0.04611 -1.53091,-0.00922 -2.5177,0.11067c-3.06218,0.39195 -6.01333,1.20352 -8.85345,2.4347c0.60716,-0.71232 1.22506,-1.44088 1.85369,-2.1857c0.06643,0.07961 0.16788,0.13034 0.30434,0.15217c0.20289,0.03689 0.41501,0.01383 0.63634,-0.06917c0.17522,-0.07378 0.56256,-0.25823 1.16202,-0.55334c0.47956,-0.23978 0.87612,-0.40117 1.18968,-0.48417c0.31356,-0.083 0.74701,-0.14756 1.30035,-0.19367c0.62712,-0.04611 1.06057,-0.09222 1.30035,-0.13834c0.17699,-0.03541 0.40294,-0.09997 0.67784,-0.19367c0.15516,-0.0442 0.32577,-0.09954 0.51184,-0.166c0.52567,-0.19367 0.91762,-0.31817 1.17585,-0.3735M309.48648,168.39201l0.48417,1.67386c0.15678,0.42423 0.23517,0.77007 0.23517,1.03751c0,1.39272 -1.12974,3.22796 -3.38921,5.50574c-0.22393,0.22634 -0.4591,0.4569 -0.70551,0.69168c-0.8616,0.80717 -1.79767,1.61413 -2.8082,2.42087c-0.49689,0.17191 -0.9949,0.33791 -1.49402,0.49801c0.05613,-0.06135 0.11607,-0.13052 0.17984,-0.2075c0.10145,-0.10145 0.29512,-0.28128 0.58101,-0.53951c0.249,-0.22134 0.43806,-0.40578 0.56717,-0.55334c0.18445,-0.20289 0.45189,-0.58562 0.80234,-1.14818c0.66401,-1.10668 1.1574,-1.95975 1.48019,-2.5592c0.51645,-0.95912 0.93607,-1.84447 1.25885,-2.65604c0.34123,-0.83923 0.47956,-1.54474 0.41501,-2.11653c-0.04611,-0.37812 -0.18445,-0.71012 -0.41501,-0.99601c-0.05674,-0.07421 -0.11668,-0.14338 -0.17984,-0.2075c0.85771,-0.23146 1.71539,-0.47124 2.57303,-0.71934c0.13808,-0.03977 0.27642,-0.08127 0.41501,-0.1245M310.4825,129.8795c2.12114,0 3.68433,0.3735 4.68956,1.12051c1.1159,0.83923 1.67386,2.21797 1.67386,4.13622c0,3.70738 -0.87151,7.48854 -2.61453,11.34348c-0.02936,0.06488 -0.06164,0.12944 -0.09683,0.19367c-0.34933,0.77187 -0.72745,1.5281 -1.13435,2.2687c-0.26507,0.22541 -0.52791,0.44674 -0.78851,0.66401c-0.91172,0.76182 -1.82012,1.4996 -2.7252,2.21336c0.24652,-0.4198 0.6108,-1.02847 1.09285,-1.82602c0.74701,-1.3188 1.32341,-2.71598 1.72919,-4.19156c0.29512,-1.12513 0.53028,-2.46237 0.70551,-4.01172c0.11067,-1.04212 0.15678,-1.88597 0.13834,-2.53153c-0.03689,-0.94068 -0.19828,-1.76147 -0.48417,-2.46237c-0.05692,-0.14075 -0.12148,-0.27908 -0.19367,-0.41501c-0.01834,-0.11946 -0.04139,-0.23013 -0.06917,-0.332c-0.22134,-0.7839 -0.67323,-1.49863 -1.35568,-2.14419c-0.59945,-0.56256 -1.32802,-1.02829 -2.1857,-1.39719c-1.61704,-0.69423 -3.09723,-0.85562 -4.44056,-0.48417c0.77255,-0.5689 1.54262,-1.13608 2.3102,-1.70152c0.2922,-0.21532 0.5827,-0.43205 0.87151,-0.65018l0.35967,0.48417c1.24502,-0.18445 2.08425,-0.27667 2.5177,-0.27667M307.99246,137.95827c-0.48878,-0.81157 -1.09746,-1.41563 -1.82602,-1.81219c-0.32278,-0.19367 -0.77468,-0.3735 -1.35568,-0.53951c-1.15279,-0.32278 -2.26409,-0.45189 -3.33388,-0.38734c-0.64484,0.04031 -1.24891,0.15559 -1.81219,0.34584c0.70846,-0.5243 1.41397,-1.04998 2.11653,-1.57702c-0.12814,0.16355 -0.18347,0.3065 -0.166,0.42884c0.00922,0.083 0.05995,0.15678 0.15217,0.22134c0.083,0.05533 0.17061,0.083 0.26284,0.083c0.12911,0.00922 0.31356,-0.03228 0.55334,-0.1245c0.84846,-0.32278 1.72458,-0.48878 2.62837,-0.49801c0.39026,0 0.76837,0.02767 1.13435,0.083c0.51912,0.08376 1.01712,0.22209 1.49402,0.41501c0.83923,0.332 1.57702,0.83001 2.21336,1.49402c0.48471,0.5055 0.86283,1.05884 1.13435,1.66002c0.02767,0.26082 0.0415,0.5421 0.0415,0.84384c0.01844,1.55858 -0.07378,2.90504 -0.27667,4.03939c-0.19367,1.12513 -0.53951,2.3517 -1.03751,3.67972c-0.35967,1.01446 -0.96373,2.49926 -1.81219,4.45439l-0.76084,1.74302c-0.20289,0.45189 -0.2905,0.81157 -0.26284,1.07901c0.00249,0.02594 0.0071,0.04899 0.01383,0.06917c-1.25726,0.94612 -2.5115,1.8453 -3.76272,2.69754l0.49801,-0.85768c0.92223,-1.60469 1.58624,-2.82204 1.99203,-3.65205c0.2574,-0.52549 0.51562,-1.09728 0.77468,-1.71536c0.18899,-0.43586 0.37804,-0.89698 0.56717,-1.38335c0.27667,-0.7009 0.66862,-1.75686 1.17585,-3.16788c0.31356,-0.90379 0.51184,-1.55858 0.59484,-1.96436c0.20289,-1.01446 0.19367,-2.07964 -0.02767,-3.19554c-0.17522,-0.92223 -0.47956,-1.74302 -0.91301,-2.46237M293.05227,112.18643c1.10668,1.55858 1.66002,4.32067 1.66002,8.28628c0,1.8998 -0.27667,3.90105 -0.83001,6.00375c-0.08059,0.30754 -0.15437,0.61188 -0.22134,0.91301c-0.17616,0.77453 -0.3145,1.53999 -0.41501,2.29636c-1.14598,1.61128 -2.32644,3.20213 -3.54138,4.77256l1.02368,-3.07104c0.63634,-1.86291 1.06979,-3.31082 1.30035,-4.34372c0.36889,-1.64158 0.50262,-3.13099 0.40117,-4.46823c-0.05533,-0.68245 -0.18445,-1.43869 -0.38734,-2.2687c-0.11989,-0.49801 -0.32739,-1.24041 -0.62251,-2.2272c-0.32278,-1.08824 -0.62251,-1.87214 -0.89918,-2.3517c-0.51645,-0.89457 -1.3603,-1.7338 -2.53153,-2.5177c-0.71934,-0.47956 -1.33724,-0.7839 -1.85369,-0.91301c-0.46112,-0.11067 -1.02368,-0.15217 -1.68769,-0.1245c-0.66401,0.02767 -1.41563,0.11989 -2.25486,0.27667c-0.47034,0.083 -1.20813,0.24439 -2.21336,0.48417c-1.1989,0.29512 -2.10731,0.57179 -2.7252,0.83001c-0.21979,0.09298 -0.42729,0.18981 -0.62251,0.2905c0.65111,-0.76495 1.31512,-1.54885 1.99203,-2.3517c0.1686,-0.19432 0.3346,-0.3926 0.49801,-0.59484l0.23517,0.17984c1.68603,-0.85242 3.18466,-1.41498 4.49589,-1.68769c0.61801,-0.12911 1.1944,-0.19367 1.72919,-0.19367c3.66127,0 6.1513,0.92685 7.4701,2.78054M274.95803,210.00322c0.09222,0.57179 -0.22134,1.15279 -0.94068,1.74302c-1.1159,0.88535 -2.35631,1.44791 -3.72122,1.68769c-0.46112,0.083 -0.76545,0.17984 -0.91301,0.2905c-0.13834,0.10145 -0.23056,0.23517 -0.27667,0.40117c-0.04611,0.17522 -0.01844,0.32278 0.083,0.44267c0.13834,0.15678 0.39195,0.21673 0.76084,0.17984c1.18046,-0.12911 2.30097,-0.49801 3.36154,-1.10668c1.06057,-0.59945 1.95053,-1.37413 2.66987,-2.32403c0.32278,-0.41501 0.47495,-0.7839 0.45651,-1.10668c0,-0.06881 -0.02306,-0.17948 -0.06917,-0.332c0.18448,0.09727 0.45193,0.16182 0.80234,0.19367c0.18102,0.01909 0.37469,0.03754 0.58101,0.05533c0.05533,0.20779 0.083,0.43374 0.083,0.67784c0,1.29113 -0.7839,2.57765 -2.3517,3.85955c-0.06142,0.05029 -0.12598,0.0964 -0.19367,0.13834c-1.16691,0.09547 -2.3566,0.14619 -3.56905,0.15217c-0.14604,0.00058 -0.2936,0.00058 -0.44267,0c-0.4413,-0.00191 -0.88398,-0.01113 -1.32802,-0.02767c-0.93477,-0.02421 -1.87545,-0.07493 -2.82204,-0.15217c0.41367,-0.15516 0.71801,-0.28888 0.91301,-0.40117c0.56256,-0.28589 1.05135,-0.68706 1.46635,-1.20352c0.26745,-0.34123 0.52106,-0.75623 0.76084,-1.24502c0.13834,-0.27667 0.33662,-0.72857 0.59484,-1.35568c0.07345,-0.19713 0.12418,-0.37235 0.15217,-0.52567c0.4199,-0.02886 0.84874,-0.06113 1.28652,-0.09683c0.68397,-0.04694 1.53703,-0.12533 2.5592,-0.23517c0.02835,0.09111 0.06063,0.18794 0.09683,0.2905M276.86705,201.09444c-0.00612,-0.03264 -0.01074,-0.06492 -0.01383,-0.09683c0.70637,-0.05523 1.41188,-0.11978 2.11653,-0.19367c0.00295,0.0915 0.01218,0.18834 0.02767,0.2905c0.01844,0.166 0.05533,0.41501 0.11067,0.74701c0.15678,1.15279 -0.18445,2.31942 -1.02368,3.49988c-0.31356,0.45189 -0.71473,0.92223 -1.20352,1.41102c-0.27667,0.27667 -0.73318,0.7009 -1.36952,1.27268c-0.27977,0.25977 -0.48266,0.49956 -0.60867,0.71934c-0.93106,0.11178 -1.72879,0.19479 -2.3932,0.249c0.71927,-0.56649 1.6,-1.48411 2.6422,-2.75287c0.74701,-0.91301 1.24502,-1.63697 1.49402,-2.17186c0.43345,-0.92223 0.53951,-1.78452 0.31817,-2.58687c-0.04611,-0.166 -0.07839,-0.29512 -0.09683,-0.38734M280.46377,200.96994c-0.03826,-0.12328 -0.06593,-0.23394 -0.083,-0.332c0.84251,-0.09529 1.68174,-0.20595 2.5177,-0.332c0.14446,0.23423 0.25974,0.51551 0.34584,0.84384c0.083,0.32278 0.1245,0.59023 0.1245,0.80234c0,1.4018 -0.59484,2.85893 -1.78452,4.37139c-0.57254,0.72716 -1.18122,1.32661 -1.82602,1.79836c-0.18531,0.02799 -0.37898,0.05566 -0.58101,0.083c-0.83196,0.11474 -1.60663,0.21618 -2.32403,0.30434c0.09633,-0.08628 0.21161,-0.18311 0.34584,-0.2905c1.25424,-1.01446 2.16725,-2.07042 2.73904,-3.16788c0.34123,-0.64556 0.55795,-1.30957 0.65018,-1.99203c0.10145,-0.73779 0.05995,-1.43407 -0.1245,-2.08886M283.49331,191.81215c-0.03242,-0.11755 -0.07853,-0.25588 -0.13834,-0.41501c0.61973,0.07753 1.24685,0.14669 1.88136,0.2075c-0.02399,0.09064 -0.03783,0.18747 -0.0415,0.2905c0,0.06456 0.01844,0.2905 0.05533,0.67784c0.07378,1.17124 -0.58562,2.4347 -1.97819,3.79038c-0.93146,0.90379 -1.89058,1.70152 -2.87737,2.3932c-0.41501,0.29512 -0.7009,0.52106 -0.85768,0.67784c-0.10692,0.10361 -0.19914,0.20966 -0.27667,0.31817c-0.49747,0.06074 -0.99547,0.11607 -1.49402,0.166c0.00504,0.00202 0.00965,0.00202 0.01383,0c0.41501,-0.20289 0.79773,-0.43806 1.14818,-0.70551c0.25823,-0.20289 0.67323,-0.60406 1.24502,-1.20352c0.92223,-0.97757 1.55396,-1.71536 1.89519,-2.21336c0.17522,-0.249 0.48878,-0.75162 0.94068,-1.50785c0.32278,-0.59023 0.51184,-1.04212 0.56717,-1.35568c0.05533,-0.332 0.02767,-0.70551 -0.083,-1.12051M288.88838,191.95048c0.35556,1.70826 -0.041,3.336 -1.18968,4.88323c-0.54444,0.73058 -1.15773,1.34848 -1.83986,1.85369c-1.17733,0.23737 -2.3624,0.44948 -3.55521,0.63634c-0.19572,0.03059 -0.394,0.05825 -0.59484,0.083c1.66589,-0.86813 3.05386,-2.08086 4.16389,-3.63821c0.93146,-1.29113 1.29574,-2.46698 1.09285,-3.52755c-0.03408,-0.17425 -0.0848,-0.33103 -0.15217,-0.47034c0.68328,0.06301 1.37496,0.12295 2.07503,0.17984z" fill="#ffffff"/><path d="M317.31625,63.81062c-0.00922,-0.04611 -0.01383,-0.08761 -0.01383,-0.1245c0.04611,-0.12911 0.14756,-0.22595 0.30434,-0.2905c0.13834,-0.07378 0.28128,-0.083 0.42884,-0.02767c0,0.03689 0.00461,0.07378 0.01383,0.11067c0.09222,0.00922 0.17984,0.0415 0.26284,0.09683c0.20289,0.15678 0.26284,0.39195 0.17984,0.70551c-0.05533,0.20289 -0.166,0.41501 -0.332,0.63634c0.02767,0.63634 0.03228,1.30496 0.01383,2.00586c-0.02767,0.96835 -0.11067,2.16264 -0.249,3.58288c-0.95912,9.08401 -3.13099,18.16341 -6.51559,27.23819c-0.68703,1.83665 -1.4202,3.66268 -2.19953,5.47807c-2.86646,6.68472 -6.3525,13.21875 -10.45814,19.60209c-1.76514,2.74419 -3.6465,5.46017 -5.64407,8.14794c-1.30323,1.77008 -2.65892,3.52693 -4.06705,5.27057c-0.08224,0.10195 -0.16525,0.2034 -0.249,0.30434c-6.8183,8.41243 -14.78641,16.55576 -23.90432,24.42999c-1.25237,1.08968 -2.52966,2.1733 -3.83188,3.25088c-0.25823,0.21211 -0.50723,0.35045 -0.74701,0.41501c-0.31356,0.07378 -0.53951,0.00461 -0.67784,-0.2075c-0.11989,-0.18445 -0.10606,-0.39656 0.0415,-0.63634c0.11989,-0.20289 0.29973,-0.39195 0.53951,-0.56717c7.99999,-5.85572 15.34097,-12.47275 22.02296,-19.8511c1.2207,-1.3488 2.4196,-2.72293 3.59671,-4.12239c0.72795,-0.86528 1.44268,-1.73679 2.14419,-2.61453c0.58612,-0.72381 1.16252,-1.45238 1.72919,-2.1857c1.21494,-1.57043 2.3954,-3.16128 3.54138,-4.77256c0.58529,-0.82248 1.16169,-1.65249 1.72919,-2.49003c3.76556,-5.52465 7.13633,-11.28401 10.1123,-17.27806c1.30035,-2.59148 2.33325,-4.87862 3.09871,-6.86142c0.0228,-0.05912 0.04586,-0.11906 0.06917,-0.17984c0.77857,-2.04459 1.7008,-4.88968 2.7667,-8.53528c1.33724,-4.62039 2.4347,-8.72434 3.29238,-12.31183c1.06979,-4.43595 1.89519,-8.59522 2.4762,-12.47783c0.20289,-1.30035 0.34584,-2.46698 0.42884,-3.49988l-20.63961,24.42999c-3.40207,4.02782 -6.62067,7.83665 -9.65579,11.42648c-2.74873,3.24558 -5.34943,6.31201 -7.8021,9.19929c-0.16341,0.20224 -0.32941,0.40052 -0.49801,0.59484c-0.67691,0.80285 -1.34091,1.58675 -1.99203,2.3517c-0.58216,0.68919 -1.15395,1.36242 -1.71536,2.01969c-0.62863,0.74481 -1.24653,1.47338 -1.85369,2.1857c-0.40308,0.4765 -0.80425,0.94684 -1.20352,1.41102c-0.40485,0.4823 -0.80602,0.95725 -1.20352,1.42485c-7.23032,8.48456 -12.92973,14.82953 -17.09823,19.03492c-4.1511,4.17985 -8.25043,7.85034 -12.298,11.01148c-1.15928,0.9061 -2.31668,1.76838 -3.47221,2.58687c-1.08737,0.78437 -2.17561,1.52677 -3.26471,2.2272c-0.17731,0.1232 -0.35715,0.2431 -0.53951,0.35967c-0.62712,0.40578 -1.14818,0.69168 -1.56319,0.85768c-0.41663,0.17674 -0.81319,0.28741 -1.18968,0.332c-0.17537,0.02428 -0.34598,0.0335 -0.51184,0.02767l3.87338,-3.05721c0.05004,-0.02547 0.10076,-0.05314 0.15217,-0.083c0.75854,-0.45258 1.42716,-0.99209 2.00586,-1.61852l4.53739,-3.58288c2.36092,-1.87214 4.11317,-3.3016 5.25674,-4.28839c2.36092,-2.03814 5.26596,-4.89245 8.71512,-8.56295c4.0855,-4.3345 8.56295,-9.31457 13.43234,-14.9402c1.7552,-2.02016 4.01467,-4.66236 6.77842,-7.9266c1.85794,-2.18645 3.94219,-4.65343 6.25275,-7.40093l35.30313,-41.98472c0.09222,-0.10145 0.18906,-0.19367 0.2905,-0.27667M354.48691,96.23639c0.35045,-0.02767 0.57179,0.08761 0.66401,0.34584c0.06456,0.21211 -0.02767,0.50723 -0.27667,0.88535c-0.71012,1.02368 -1.41102,2.3102 -2.10269,3.85955c-0.74701,1.82602 -1.3188,3.18632 -1.71536,4.08089c-3.27393,7.65455 -8.37389,15.3552 -15.29987,23.10197c-0.03444,0.03822 -0.07133,0.07511 -0.11067,0.11067c-2.74837,3.05018 -5.96235,6.31489 -9.64196,9.79413c-2.41625,2.27792 -5.85158,5.39507 -10.30597,9.35146c-1.65999,1.46743 -3.04334,2.66634 -4.15005,3.59671c-0.42862,0.36407 -0.81596,0.68685 -1.16202,0.96835c-0.62467,0.50943 -1.26101,1.01204 -1.90903,1.50785c-0.06535,0.05332 -0.13452,0.10404 -0.2075,0.15217c-0.11103,0.09186 -0.22631,0.17948 -0.34584,0.26284c-0.12944,0.10346 -0.26316,0.20491 -0.40117,0.30434c-1.68542,1.26674 -3.43766,2.4887 -5.25674,3.66588c-0.3699,0.23838 -0.74341,0.47355 -1.12051,0.70551c-6.74171,4.23349 -14.3317,7.84865 -22.76997,10.84548c-3.92872,2.09347 -8.04188,3.66588 -12.3395,4.71723c10.91926,-0.43345 21.74629,-1.82141 32.4811,-4.16389c10.73481,-2.34248 21.16067,-5.59335 31.27758,-9.75263c0.59023,-0.249 2.67909,-1.13896 6.26658,-2.66987c2.53614,-1.07901 4.63884,-1.93669 6.30808,-2.57303c0.18445,-0.06456 0.35967,-0.083 0.52567,-0.05533c0.19367,0.02767 0.29512,0.11989 0.30434,0.27667c0.01844,0.11067 -0.05995,0.24439 -0.23517,0.40117c-6.04064,5.32129 -10.67486,9.21312 -13.90268,11.67549c-5.34896,4.0855 -10.45353,7.27643 -15.3137,9.57279c-3.1356,1.4848 -6.99976,2.96037 -11.59249,4.42673c-1.88356,0.60298 -3.74186,1.16093 -5.57491,1.67386c-0.45085,0.12774 -0.90275,0.25225 -1.35568,0.3735c-8.97327,2.43531 -17.32871,3.80022 -25.06633,4.09472c5.58874,1.12513 11.91988,2.03353 18.99342,2.7252c4.30683,0.42423 10.70714,0.9084 19.20092,1.45252l10.92848,0.70551c0.332,0.01844 0.54873,0.10145 0.65018,0.249c0.15678,0.20289 0.11067,0.40578 -0.13834,0.60867c-0.22134,0.19367 -0.48878,0.30895 -0.80234,0.34584c-1.05135,0.18445 -2.25486,0.46573 -3.61055,0.84384c-0.19367,0.06456 -1.37413,0.42423 -3.54138,1.07901c-3.55215,1.07458 -7.19037,1.9876 -10.91464,2.73904c-0.67161,0.68036 -1.3264,1.28443 -1.96436,1.81219c-1.39257,1.18968 -3.32004,2.50848 -5.78241,3.95639c-1.62313,0.96835 -3.00187,1.72919 -4.13622,2.28253c-1.54935,0.74701 -3.01571,1.31418 -4.39906,1.70152c-0.88535,0.25823 -1.90441,0.47956 -3.05721,0.66401c-0.38734,0.05533 -0.94068,0.1245 -1.66002,0.2075c3.00648,0.32278 5.99913,0.58101 8.97795,0.77468c0.77468,0.04611 1.23118,0.27667 1.36952,0.69168c0.13834,0.41501 -0.10606,0.85768 -0.73318,1.32802c-1.53091,1.15279 -3.38921,2.05197 -5.57491,2.69754c-1.70613,0.47956 -3.76733,0.84384 -6.18358,1.09285c-1.48501,0.15393 -2.94676,0.25538 -4.38522,0.30434c-0.46058,0.02277 -0.92169,0.0366 -1.38335,0.0415c-0.03228,0.00407 -0.06456,0.00407 -0.09683,0c-2.6792,0.04485 -5.27068,-0.08887 -7.77444,-0.40117c-1.80916,-0.23139 -3.57524,-0.55417 -5.29824,-0.96835c-1.2917,-0.30718 -2.55978,-0.66685 -3.80422,-1.07901c-1.05001,-0.35002 -2.00453,-0.72352 -2.86354,-1.12051c-0.17155,-0.15278 -0.34216,-0.30956 -0.51184,-0.47034c-0.55291,-0.52369 -1.07397,-1.06781 -1.56319,-1.63235c1.40734,0.70277 2.49558,1.20539 3.26471,1.50785c1.10668,0.43345 2.49003,0.85768 4.15005,1.27268c0.25596,0.06279 0.50957,0.12274 0.76084,0.17984c2.22194,0.51923 4.41224,0.91117 6.57092,1.17585c0.28355,0.03484 0.56483,0.06711 0.84384,0.09683c0.48295,0.0518 0.96251,0.09792 1.43869,0.13834c0.94659,0.07724 1.88727,0.12796 2.82204,0.15217c0.44404,0.01654 0.88671,0.02576 1.32802,0.02767c0.14907,0.00058 0.29663,0.00058 0.44267,0c1.21245,-0.00598 2.40213,-0.0567 3.56905,-0.15217c3.37174,-0.24828 6.58573,-0.84312 9.64196,-1.78452c0.7839,-0.249 1.41102,-0.4934 1.88136,-0.73318c0.65479,-0.332 1.17124,-0.73318 1.54935,-1.20352c-1.1618,-0.09828 -2.24542,-0.1905 -3.25088,-0.27667c-3.2865,-0.28485 -5.73965,-0.5108 -7.35943,-0.67784c-0.20631,-0.0178 -0.39998,-0.03624 -0.58101,-0.05533c-0.35041,-0.03185 -0.61786,-0.0964 -0.80234,-0.19367c-0.02219,-0.01131 -0.04525,-0.02515 -0.06917,-0.0415c-0.083,-0.07378 -0.15217,-0.15678 -0.2075,-0.249c-0.43291,0.0478 -0.8433,0.08931 -1.23118,0.1245c-1.02217,0.10984 -1.87523,0.18823 -2.5592,0.23517c-0.43777,0.0357 -0.86661,0.06798 -1.28652,0.09683c-0.0477,0.00151 -0.09842,0.00151 -0.15217,0c-0.04568,0.00749 -0.0964,0.0121 -0.15217,0.01383c-1.09299,0.0616 -2.12589,0.08927 -3.09871,0.083c-0.52567,-0.00922 -1.0329,-0.02306 -1.52169,-0.0415c-1.68769,-0.06456 -2.99726,-0.332 -3.92872,-0.80234c0.45189,-0.29512 1.02829,-0.45189 1.72919,-0.47034c0.34123,-0.00922 0.96835,0.03689 1.88136,0.13834c0.79312,0.083 1.62774,0.13372 2.50387,0.15217c0.77493,0.01636 1.58188,0.00713 2.42087,-0.02767c0.28888,-0.00735 0.57939,-0.02118 0.87151,-0.0415c0.30268,-0.01423 0.60702,-0.03267 0.91301,-0.05533c0.00807,-0.00065 0.01729,-0.00065 0.02767,0c0.66441,-0.05422 1.46214,-0.13722 2.3932,-0.249c0.59902,-0.06283 1.2492,-0.14122 1.95053,-0.23517c0.7174,-0.08815 1.49207,-0.1896 2.32403,-0.30434c0.20203,-0.02734 0.3957,-0.05501 0.58101,-0.083c0.95314,-0.13192 1.7186,-0.25181 2.29636,-0.35967c1.06057,-0.18445 2.00125,-0.40578 2.82204,-0.66401c1.28191,-0.38734 2.64681,-0.96373 4.09472,-1.72919c1.01446,-0.52567 2.29175,-1.28191 3.83188,-2.2687c2.19492,-1.38335 3.93794,-2.58687 5.22907,-3.61055c0.21719,-0.1771 0.42931,-0.35693 0.63634,-0.53951c-0.02579,0.00933 -0.05346,0.01394 -0.083,0.01383c0.05209,-0.02417 0.10281,-0.05184 0.15217,-0.083c0.18445,-0.11989 0.4934,-0.33662 0.92685,-0.65018c0.25704,-0.18474 0.38615,-0.36918 0.38734,-0.55334c0.91233,-0.88336 1.70545,-1.78254 2.37936,-2.69754c-1.73153,0.73426 -3.48378,1.40749 -5.25674,2.01969c-1.14173,0.39699 -2.29453,0.76589 -3.45838,1.10668c-0.10238,-0.08336 -0.273,-0.08797 -0.51184,-0.01383c-3.39944,0.95048 -6.83477,1.68827 -10.30597,2.21336c-0.83596,0.12605 -1.67519,0.23672 -2.5177,0.332c-0.46843,0.062 -0.93877,0.11733 -1.41102,0.166c-0.70464,0.07389 -1.41015,0.13844 -2.11653,0.19367c-0.30401,0.02457 -0.60835,0.04762 -0.91301,0.06917c-0.84222,0.05865 -1.68607,0.10476 -2.53153,0.13834c-1.39088,0.05306 -2.77884,0.07151 -4.16389,0.05533c-2.61608,-0.02223 -5.21678,-0.16517 -7.8021,-0.42884c0.17721,-0.03739 0.35243,-0.07428 0.52567,-0.11067c-0.85912,-0.0594 -1.72602,-0.12857 -2.6007,-0.2075v0.01383c-0.01873,0.01873 -0.04179,0.03718 -0.06917,0.05533c-1.96079,-0.25423 -3.91132,-0.57701 -5.85158,-0.96835c-0.57179,-0.11989 -0.98218,-0.19367 -1.23118,-0.22134c-0.03051,-0.00364 -0.06279,-0.00825 -0.09683,-0.01383c-0.02133,-0.00137 -0.04438,-0.00598 -0.06917,-0.01383c-0.33391,-0.1454 -0.66131,-0.2699 -0.98218,-0.3735c-0.36889,-0.11989 -0.56256,-0.27667 -0.58101,-0.47034c-0.02767,-0.19367 0.083,-0.332 0.332,-0.41501c0.20289,-0.06456 0.43345,-0.07378 0.69168,-0.02767c0.00688,0.0014 0.01149,0.0014 0.01383,0c5.44327,1.10665 11.27179,1.74299 17.48556,1.90903c0.98589,0.02515 1.9819,0.03898 2.98804,0.0415c1.38829,0.00414 2.81314,-0.0143 4.27456,-0.05533c0.49131,-0.01347 0.9847,-0.03192 1.48019,-0.05533h0.01383c0.49855,-0.04993 0.99655,-0.10526 1.49402,-0.166c0.81798,-0.1026 1.63416,-0.21788 2.44853,-0.34584c0.20084,-0.02475 0.39912,-0.05242 0.59484,-0.083c1.19282,-0.18686 2.37789,-0.39897 3.55521,-0.63634c0.71527,-0.13729 1.42539,-0.28485 2.13036,-0.44267c5.13839,-1.15204 10.11846,-2.75211 14.9402,-4.80023c0.34393,-0.14622 0.68516,-0.29378 1.02368,-0.44267c0.02223,-0.00944 0.04528,-0.01866 0.06917,-0.02767c-0.43774,-0.03242 -0.88041,-0.0647 -1.32802,-0.09683c-5.69019,-0.35045 -9.95091,-0.63173 -12.78217,-0.84384c-0.34342,-0.02605 -0.68465,-0.05371 -1.02368,-0.083c-0.70007,-0.05688 -1.39175,-0.11683 -2.07503,-0.17984c-0.52913,-0.04986 -1.05481,-0.10519 -1.57702,-0.166c-0.6345,-0.06081 -1.26162,-0.12998 -1.88136,-0.2075c-0.14165,-0.01228 -0.2846,-0.02612 -0.42884,-0.0415c-6.43979,-0.76668 -11.92247,-1.86875 -16.44805,-3.30621c-0.50971,-0.16132 -1.00772,-0.32732 -1.49402,-0.49801c-0.28589,-0.11067 -0.45651,-0.22595 -0.51184,-0.34584c-0.10145,-0.23056 -0.01844,-0.42884 0.249,-0.59484c0.23978,-0.14756 0.51184,-0.21673 0.81618,-0.2075c0.11791,0 0.23319,0 0.34584,0c10.22146,-0.03646 20.72109,-1.63653 31.49892,-4.80023c0.36724,-0.10598 0.73152,-0.21665 1.09285,-0.332c0.03855,-0.00562 0.07544,-0.01484 0.11067,-0.02767c1.07066,-0.32185 2.14506,-0.66307 3.22321,-1.02368c0.49912,-0.16009 0.99713,-0.3261 1.49402,-0.49801c2.48766,-0.85 4.98691,-1.78146 7.49777,-2.79437c2.72981,-1.10668 4.92473,-2.12114 6.58475,-3.04337c1.04212,-0.57179 2.1857,-1.27268 3.43071,-2.10269c0.67323,-0.44267 1.77991,-1.20352 3.32004,-2.28253c3.69816,-2.59148 6.46486,-4.58812 8.30011,-5.98991c3.01571,-2.30559 5.6118,-4.50973 7.78827,-6.61242c-10.29862,4.70732 -20.54464,8.53921 -30.73807,11.49565c-0.13859,0.04323 -0.27692,0.08473 -0.41501,0.1245c-0.85764,0.2481 -1.71532,0.48788 -2.57303,0.71934c-0.42127,0.12018 -0.8455,0.23546 -1.27268,0.34584c-0.82255,0.22361 -1.64795,0.44033 -2.4762,0.65018c-0.00713,0.0018 -0.01636,0.0018 -0.02767,0c-13.3608,3.394 -26.45192,5.24308 -39.27335,5.54724c-0.59945,0.01844 -0.97296,-0.11528 -1.12051,-0.40117c-0.13834,-0.29512 -0.05072,-0.5764 0.26284,-0.84384c0.26745,-0.22134 0.60406,-0.3735 1.00985,-0.45651c3.35693,-0.69168 6.64931,-1.57702 9.87713,-2.65604c-0.43345,0.12911 -0.8669,0.25823 -1.30035,0.38734c0.20289,-0.46112 0.57179,-0.86229 1.10668,-1.20352c0.35967,-0.23978 0.88073,-0.48878 1.56319,-0.74701c1.96436,-0.73779 4.9109,-1.84908 8.83962,-3.33388c3.39382,-1.3188 6.28964,-2.56381 8.68745,-3.73505c3.20682,-1.56243 6.44386,-3.42534 9.71113,-5.58874c0.41605,-0.27555 0.83106,-0.55684 1.24502,-0.84384c1.25121,-0.85224 2.50545,-1.75142 3.76272,-2.69754c0.22717,-0.16676 0.45312,-0.33737 0.67784,-0.51184c0.47189,-0.35384 0.94223,-0.71351 1.41102,-1.07901c0.1008,-0.0808 0.20224,-0.1638 0.30434,-0.249c0.90509,-0.71376 1.81349,-1.45155 2.7252,-2.21336c0.2606,-0.21727 0.52344,-0.4386 0.78851,-0.66401c0.62708,-0.53173 1.26804,-1.08968 1.92286,-1.67386c4.24887,-3.72896 9.15977,-8.45541 14.73269,-14.17935c1.86212,-1.89725 3.44836,-3.56188 4.75873,-4.9939c0.76156,-0.82407 1.43018,-1.57108 2.00586,-2.24103c3.55982,-4.12239 6.74614,-8.52606 9.55896,-13.21101c2.81281,-4.69417 5.18296,-9.58202 7.11043,-14.66353c-10.88013,7.17909 -21.63339,14.55235 -32.25976,22.11979c-4.42752,3.16168 -8.8358,6.35261 -13.22484,9.57279c-0.28881,0.21813 -0.57931,0.43486 -0.87151,0.65018c-0.76758,0.56544 -1.53765,1.13262 -2.3102,1.70152c-0.37985,0.28514 -0.76257,0.57103 -1.14818,0.85768c-0.19933,0.14799 -0.39761,0.29555 -0.59484,0.44267c-0.29839,0.22159 -0.59812,0.44292 -0.89918,0.66401c-0.70256,0.52704 -1.40806,1.05272 -2.11653,1.57702c-0.60086,0.45816 -1.20492,0.91467 -1.81219,1.36952c-10.90023,8.20039 -21.66271,16.61578 -32.28743,25.24617c-0.43345,0.35967 -0.80234,0.61329 -1.10668,0.76084c-0.44267,0.22134 -0.85307,0.2905 -1.23118,0.2075c0.49801,-0.48878 1.1574,-1.08824 1.97819,-1.79836c0.83001,-0.71012 1.82141,-1.53091 2.97421,-2.46237c12.13289,-9.77803 24.45856,-19.29087 36.97699,-28.53854c5.00579,-3.69247 10.04119,-7.34452 15.1062,-10.95614c10.95712,-7.8047 22.06082,-15.41313 33.31111,-22.8253c0.30434,-0.19367 0.60867,-0.30434 0.91301,-0.332M305.04592,193.85951c-1.21735,1.47558 -2.18108,2.6007 -2.8912,3.37538c-0.06031,0.06629 -0.12025,0.13084 -0.17984,0.19367c0.74463,-0.1249 1.46859,-0.25401 2.17186,-0.38734c4.07628,-0.77468 7.82977,-1.71997 11.26048,-2.83587c-2.85965,-0.43352 -6.24425,-0.81164 -10.1538,-1.13435c0.04024,0.05894 0.0633,0.1281 0.06917,0.2075c0.00922,0.14756 -0.083,0.34123 -0.27667,0.58101z" fill="#000000"/><path d="M305.25343,193.071c3.90955,0.32271 7.29415,0.70083 10.1538,1.13435c-3.43071,1.1159 -7.18421,2.06119 -11.26048,2.83587c-0.70328,0.13333 -1.42723,0.26244 -2.17186,0.38734c0.05958,-0.06283 0.11953,-0.12738 0.17984,-0.19367c0.71012,-0.77468 1.67386,-1.8998 2.8912,-3.37538c0.19367,-0.23978 0.28589,-0.43345 0.27667,-0.58101c-0.00587,-0.0794 -0.02893,-0.14857 -0.06917,-0.2075M306.81661,176.60911c2.25947,-2.27777 3.38921,-4.11302 3.38921,-5.50574c0,-0.26745 -0.07839,-0.61329 -0.23517,-1.03751l-0.48417,-1.67386c10.19343,-2.95645 20.43945,-6.78833 30.73807,-11.49565c-2.17647,2.10269 -4.77256,4.30683 -7.78827,6.61242c-1.83525,1.4018 -4.60195,3.39843 -8.30011,5.98991c-1.54013,1.07901 -2.64681,1.83986 -3.32004,2.28253c-1.24502,0.83001 -2.38859,1.53091 -3.43071,2.10269c-1.66002,0.92223 -3.85494,1.93669 -6.58475,3.04337c-2.51086,1.01291 -5.01011,1.94437 -7.49777,2.79437c1.01053,-0.80674 1.9466,-1.61369 2.8082,-2.42087c0.24641,-0.23477 0.48158,-0.46533 0.70551,-0.69168M305.47476,171.00654c0.05533,-0.25823 0.07378,-0.45189 0.05533,-0.58101c-0.01844,-0.10145 -0.05995,-0.22595 -0.1245,-0.3735c-0.083,-0.18445 -0.13372,-0.30895 -0.15217,-0.3735c-0.00796,-0.03188 -0.01718,-0.06416 -0.02767,-0.09683c0.42718,-0.11038 0.85141,-0.22566 1.27268,-0.34584c0.06315,0.06412 0.1231,0.13329 0.17984,0.2075c0.23056,0.28589 0.36889,0.6179 0.41501,0.99601c0.06456,0.57179 -0.07378,1.27729 -0.41501,2.11653c-0.32278,0.81157 -0.7424,1.69691 -1.25885,2.65604c-0.32278,0.59945 -0.81618,1.45252 -1.48019,2.5592c-0.35045,0.56256 -0.6179,0.94529 -0.80234,1.14818c-0.12911,0.14756 -0.31817,0.332 -0.56717,0.55334c-0.28589,0.25823 -0.47956,0.43806 -0.58101,0.53951c-0.06376,0.07698 -0.12371,0.14615 -0.17984,0.2075c-1.07815,0.36061 -2.15255,0.70183 -3.22321,1.02368c-0.03523,0.01282 -0.07212,0.02205 -0.11067,0.02767c-0.36133,0.11535 -0.72561,0.22602 -1.09285,0.332c0.01953,-0.02201 0.03797,-0.04507 0.05533,-0.06917c0.05533,-0.06456 0.19828,-0.27206 0.42884,-0.62251c0.32278,-0.48878 0.84384,-1.19429 1.56319,-2.11653c0.51645,-0.64556 0.83923,-1.06979 0.96835,-1.27268c0.09222,-0.14756 0.25361,-0.43806 0.48417,-0.87151c0.249,-0.47956 0.52567,-1.05135 0.83001,-1.71536l0.52567,-1.12051c0.22134,-0.44267 0.36889,-0.81618 0.44267,-1.12051c0.10145,-0.41501 0.11528,-1.05135 0.0415,-1.90903l-0.332,-0.13834c0.06456,-0.19367 0.18445,-0.30434 0.35967,-0.332c0.09222,-0.00922 0.18445,0.01383 0.27667,0.06917c0.083,0.06456 0.14756,0.14295 0.19367,0.23517c0.06456,0.11989 0.09683,0.31817 0.09683,0.59484c0.01844,0.8669 -0.02767,1.51246 -0.13834,1.93669c-0.07378,0.28589 -0.23978,0.70551 -0.49801,1.25885c-0.66401,1.34646 -1.17585,2.3517 -1.53552,3.01571c-0.22134,0.42423 -0.40117,0.73779 -0.53951,0.94068c-0.36889,0.46112 -0.63634,0.81157 -0.80234,1.05135c-0.32278,0.52567 -0.57179,0.91762 -0.74701,1.17585c-0.00659,0.0103 -0.01581,0.01953 -0.02767,0.02767c0.85462,-0.41317 1.64774,-1.05873 2.37936,-1.93669c0.55334,-0.64556 1.14357,-1.51708 1.77069,-2.61453l1.06518,-1.86752c0.45189,-0.80234 0.7424,-1.38796 0.87151,-1.75686c0.11067,-0.31356 0.23056,-0.79312 0.35967,-1.43869M311.04967,133.90505c0.68245,0.64556 1.13435,1.3603 1.35568,2.14419c0.02778,0.10188 0.05083,0.21255 0.06917,0.332c0.07219,0.13592 0.13675,0.27426 0.19367,0.41501c0.28589,0.7009 0.44728,1.52169 0.48417,2.46237c0.01844,0.64556 -0.02767,1.48941 -0.13834,2.53153c-0.17522,1.54935 -0.41039,2.88659 -0.70551,4.01172c-0.40578,1.47558 -0.98218,2.87276 -1.72919,4.19156c-0.48205,0.79755 -0.84633,1.40623 -1.09285,1.82602c-0.10209,0.0852 -0.20354,0.1682 -0.30434,0.249c-0.46879,0.36551 -0.93913,0.72518 -1.41102,1.07901c-0.22472,0.17447 -0.45067,0.34508 -0.67784,0.51184c-0.00674,-0.02017 -0.01135,-0.04323 -0.01383,-0.06917c-0.02767,-0.26745 0.05995,-0.62712 0.26284,-1.07901l0.76084,-1.74302c0.84846,-1.95514 1.45252,-3.43993 1.81219,-4.45439c0.49801,-1.32802 0.84384,-2.55459 1.03751,-3.67972c0.20289,-1.13435 0.29512,-2.48081 0.27667,-4.03939c0,-0.30174 -0.01383,-0.58303 -0.0415,-0.84384c-0.27152,-0.60118 -0.64963,-1.15452 -1.13435,-1.66002c-0.63634,-0.66401 -1.37413,-1.16202 -2.21336,-1.49402c-0.4769,-0.19291 -0.9749,-0.33125 -1.49402,-0.41501c-0.36598,-0.05533 -0.74409,-0.083 -1.13435,-0.083c-0.90379,0.00922 -1.77991,0.17522 -2.62837,0.49801c-0.23978,0.09222 -0.42423,0.13372 -0.55334,0.1245c-0.09222,0 -0.17984,-0.02767 -0.26284,-0.083c-0.09222,-0.06456 -0.14295,-0.13834 -0.15217,-0.22134c-0.01747,-0.12234 0.03786,-0.26529 0.166,-0.42884c0.30106,-0.22108 0.60079,-0.44242 0.89918,-0.66401c0.19724,-0.14713 0.39552,-0.29468 0.59484,-0.44267c0.38561,-0.28665 0.76834,-0.57254 1.14818,-0.85768c1.34333,-0.37145 2.82351,-0.21006 4.44056,0.48417c0.85768,0.36889 1.58624,0.83462 2.1857,1.39719M334.41448,128.09497c-1.31037,1.43202 -2.89661,3.09665 -4.75873,4.9939c-5.57293,5.72394 -10.48382,10.45039 -14.73269,14.17935c-0.65482,0.58418 -1.29578,1.14213 -1.92286,1.67386c0.4069,-0.7406 0.78502,-1.49683 1.13435,-2.2687c0.0352,-0.06423 0.06747,-0.12879 0.09683,-0.19367c1.74302,-3.85494 2.61453,-7.6361 2.61453,-11.34348c0,-1.91825 -0.55795,-3.29699 -1.67386,-4.13622c-1.00524,-0.74701 -2.56842,-1.12051 -4.68956,-1.12051c-0.43345,0 -1.27268,0.09222 -2.5177,0.27667l-0.35967,-0.48417c4.38904,-3.22018 8.79732,-6.41111 13.22484,-9.57279c10.62637,-7.56744 21.37963,-14.9407 32.25976,-22.11979c-1.92747,5.08151 -4.29761,9.96935 -7.11043,14.66353c-2.81281,4.68495 -5.99913,9.08862 -9.55896,13.21101c-0.57568,0.66995 -1.2443,1.41696 -2.00586,2.24103M308.90548,140.42064c0.22134,1.1159 0.23056,2.18108 0.02767,3.19554c-0.083,0.40578 -0.28128,1.06057 -0.59484,1.96436c-0.50723,1.41102 -0.89918,2.46698 -1.17585,3.16788c-0.18913,0.48637 -0.37819,0.94749 -0.56717,1.38335c-0.25905,0.61808 -0.51728,1.18986 -0.77468,1.71536c-0.40578,0.83001 -1.06979,2.04736 -1.99203,3.65205l-0.49801,0.85768c-0.41396,0.28701 -0.82897,0.56829 -1.24502,0.84384l0.62251,-1.03751c1.42024,-2.39781 2.40242,-4.15467 2.94654,-5.27057c0.55334,-1.15279 1.30957,-2.98804 2.2687,-5.50574c0.22134,-0.58101 0.3735,-1.01446 0.45651,-1.30035c0.14756,-0.49801 0.23978,-0.9499 0.27667,-1.35568c0.083,-1.00524 -0.17522,-2.21336 -0.77468,-3.62438c-0.27667,-0.68245 -0.57179,-1.19429 -0.88535,-1.53552c-0.29512,-0.32278 -0.72857,-0.60867 -1.30035,-0.85768c-0.97757,-0.44267 -2.01508,-0.66401 -3.11254,-0.66401c-1.10668,0 -2.14881,0.22134 -3.12637,0.66401c-0.47034,0.20289 -0.76545,0.31356 -0.88535,0.332c-0.29436,0.04204 -0.53414,0.00515 -0.71934,-0.11067c0.60727,-0.45485 1.21133,-0.91135 1.81219,-1.36952c0.56328,-0.19025 1.16735,-0.30553 1.81219,-0.34584c1.06979,-0.06456 2.18108,0.06456 3.33388,0.38734c0.58101,0.166 1.0329,0.34584 1.35568,0.53951c0.72857,0.39656 1.33724,1.00062 1.82602,1.81219c0.43345,0.71934 0.73779,1.54013 0.91301,2.46237M287.9892,113.21011c1.17124,0.7839 2.01508,1.62313 2.53153,2.5177c0.27667,0.47956 0.5764,1.26346 0.89918,2.3517c0.29512,0.98679 0.50262,1.72919 0.62251,2.2272c0.20289,0.83001 0.332,1.58624 0.38734,2.2687c0.10145,1.33724 -0.03228,2.82665 -0.40117,4.46823c-0.23056,1.0329 -0.66401,2.48081 -1.30035,4.34372l-1.02368,3.07104c-0.56667,0.73332 -1.14307,1.46189 -1.72919,2.1857c-0.19504,-0.12854 -0.3011,-0.36371 -0.31817,-0.70551c-0.01844,-0.35967 0.07839,-0.77468 0.2905,-1.24502c0.27667,-0.5349 0.47495,-0.93607 0.59484,-1.20352c0.11989,-0.25823 0.23517,-0.57179 0.34584,-0.94068c0.11989,-0.43345 0.2075,-0.76084 0.26284,-0.98218c0.65479,-2.02892 1.1159,-3.5506 1.38335,-4.56506c0.47956,-1.77991 0.63173,-3.32004 0.45651,-4.62039c-0.07378,-0.59023 -0.28589,-1.43407 -0.63634,-2.53153c-0.01326,-0.0424 -0.02709,-0.0839 -0.0415,-0.1245c-0.00169,-0.00947 -0.0063,-0.0187 -0.01383,-0.02767c-0.08228,-0.27617 -0.16067,-0.52517 -0.23517,-0.74701c-0.10033,-0.29908 -0.18794,-0.54347 -0.26284,-0.73318c-0.23056,-0.59023 -0.48417,-1.10207 -0.76084,-1.53552c-0.62712,-0.97757 -1.48019,-1.71997 -2.5592,-2.2272c-1.1159,-0.50723 -2.21797,-0.64095 -3.30621,-0.40117c-0.25823,0.05533 -0.65018,0.17984 -1.17585,0.3735c-0.18607,0.06647 -0.35668,0.1218 -0.51184,0.166c-0.27491,0.0937 -0.50085,0.15826 -0.67784,0.19367c-0.23978,0.04611 -0.67323,0.09222 -1.30035,0.13834c-0.55334,0.04611 -0.98679,0.11067 -1.30035,0.19367c-0.31356,0.083 -0.71012,0.24439 -1.18968,0.48417c-0.59945,0.29512 -0.98679,0.47956 -1.16202,0.55334c-0.22134,0.083 -0.43345,0.10606 -0.63634,0.06917c-0.13646,-0.02183 -0.23791,-0.07255 -0.30434,-0.15217c0.56141,-0.65727 1.1332,-1.3305 1.71536,-2.01969c0.19522,-0.10069 0.40272,-0.19752 0.62251,-0.2905c0.6179,-0.25823 1.5263,-0.5349 2.7252,-0.83001c1.00524,-0.23978 1.74302,-0.40117 2.21336,-0.48417c0.83923,-0.15678 1.59085,-0.249 2.25486,-0.27667c0.66401,-0.02767 1.22657,0.01383 1.68769,0.1245c0.51645,0.12911 1.13435,0.43345 1.85369,0.91301M316.79058,69.55153c-0.58101,3.88261 -1.40641,8.04188 -2.4762,12.47783c-0.85768,3.58749 -1.95514,7.69143 -3.29238,12.31183c-1.0659,3.6456 -1.98814,6.49069 -2.7667,8.53528c-0.02331,0.06077 -0.04636,0.12072 -0.06917,0.17984c-0.76545,1.9828 -1.79836,4.26995 -3.09871,6.86142c-2.97597,5.99406 -6.34674,11.75341 -10.1123,17.27806c-0.5675,0.83754 -1.14389,1.66755 -1.72919,2.49003c0.10051,-0.75638 0.23884,-1.52183 0.41501,-2.29636c0.06697,-0.30113 0.14075,-0.60547 0.22134,-0.91301c0.55334,-2.10269 0.83001,-4.10394 0.83001,-6.00375c0,-3.96561 -0.55334,-6.7277 -1.66002,-8.28628c-1.3188,-1.85369 -3.80883,-2.78054 -7.4701,-2.78054c-0.53479,0 -1.11118,0.06456 -1.72919,0.19367c-1.31123,0.27271 -2.80986,0.83527 -4.49589,1.68769l-0.23517,-0.17984c2.45268,-2.88728 5.05338,-5.95371 7.8021,-9.19929c3.03512,-3.58983 6.25372,-7.39866 9.65579,-11.42648l20.63961,-24.42999c-0.083,1.0329 -0.22595,2.19953 -0.42884,3.49988M280.17326,117.01433c-2.66526,0.64556 -5.29824,1.49402 -7.89894,2.54537c-0.15757,0.06596 -0.29591,0.10285 -0.41501,0.11067c0.39926,-0.46418 0.80043,-0.93452 1.20352,-1.41102c2.84012,-1.23118 5.79127,-2.04275 8.85345,-2.4347c0.98679,-0.11989 1.82602,-0.15678 2.5177,-0.11067c0.91301,0.05533 1.70613,0.26284 2.37936,0.62251c0.88535,0.47034 1.59085,1.20352 2.11653,2.19953c0.12047,0.23168 0.22652,0.46685 0.31817,0.70551c0.095,0.24554 0.17339,0.49455 0.23517,0.74701c0.1338,0.50409 0.21219,1.02977 0.23517,1.57702c0.02767,0.60867 -0.01383,1.29113 -0.1245,2.04736c-0.05533,0.41501 -0.17522,1.08824 -0.35967,2.01969l-0.84384,4.05322c-0.36259,1.52713 -0.86521,3.0442 -1.50785,4.55123c-0.73844,1.76046 -1.66528,3.50809 -2.78054,5.2429c-0.17494,0.27271 -0.34555,0.48943 -0.51184,0.65018c-0.27454,0.6371 -0.65727,1.52705 -1.14818,2.66987c-0.09276,0.20869 -0.1896,0.3793 -0.2905,0.51184c-0.0928,0.12944 -0.18963,0.22166 -0.2905,0.27667c-0.14756,0.083 -0.31356,0.10145 -0.49801,0.05533c-0.18445,-0.05533 -0.29512,-0.16139 -0.332,-0.31817c-0.02767,-0.14756 0.03689,-0.34123 0.19367,-0.58101l3.65205,-5.71324c0.04038,-0.06661 0.07727,-0.13117 0.11067,-0.19367c0.24367,-0.44696 0.48345,-0.92652 0.71934,-1.43869c1.18968,-2.6007 2.07964,-5.2844 2.66987,-8.05111c0.11067,-0.48878 0.24439,-1.17124 0.40117,-2.04736l0.19367,-1.06518c0.13834,-0.80234 0.22134,-1.43869 0.249,-1.90903c0.03689,-0.7009 -0.02767,-1.32341 -0.19367,-1.86752c-0.19367,-0.6179 -0.52567,-1.21274 -0.99601,-1.78452c-0.52567,-0.67323 -1.11129,-1.18507 -1.75686,-1.53552c-0.82079,-0.45189 -1.81219,-0.6594 -2.97421,-0.62251c-0.83923,0.02767 -1.88136,0.19367 -3.12637,0.49801M274.86119,209.71272c0.38788,-0.0352 0.79827,-0.0767 1.23118,-0.1245c0.05533,0.09222 0.1245,0.17522 0.2075,0.249c0.02392,0.01636 0.04698,0.03019 0.06917,0.0415c0.04611,0.15253 0.06917,0.2632 0.06917,0.332c0.01844,0.32278 -0.13372,0.69168 -0.45651,1.10668c-0.71934,0.9499 -1.6093,1.72458 -2.66987,2.32403c-1.06057,0.60867 -2.18108,0.97757 -3.36154,1.10668c-0.36889,0.03689 -0.62251,-0.02306 -0.76084,-0.17984c-0.10145,-0.11989 -0.12911,-0.26745 -0.083,-0.44267c0.04611,-0.166 0.13834,-0.29973 0.27667,-0.40117c0.14756,-0.11067 0.45189,-0.2075 0.91301,-0.2905c1.36491,-0.23978 2.60531,-0.80234 3.72122,-1.68769c0.71934,-0.59023 1.0329,-1.17124 0.94068,-1.74302c-0.0362,-0.10256 -0.06848,-0.1994 -0.09683,-0.2905M271.01547,210.04472c-0.02799,0.15332 -0.07871,0.32855 -0.15217,0.52567c-0.25823,0.62712 -0.45651,1.07901 -0.59484,1.35568c-0.23978,0.48878 -0.4934,0.90379 -0.76084,1.24502c-0.41501,0.51645 -0.90379,0.91762 -1.46635,1.20352c-0.195,0.11229 -0.49934,0.24601 -0.91301,0.40117c-0.47618,-0.04042 -0.95574,-0.08653 -1.43869,-0.13834c0.03783,-0.05375 0.08855,-0.10908 0.15217,-0.166c0.17522,-0.14756 0.41039,-0.27206 0.70551,-0.3735c0.166,-0.06456 0.42423,-0.14756 0.77468,-0.249c1.09746,-0.35967 1.94591,-0.96835 2.54537,-1.82602c0.37214,-0.52719 0.65342,-1.18197 0.84384,-1.96436c0.05577,-0.00173 0.10649,-0.00634 0.15217,-0.01383c0.05375,0.00151 0.10447,0.00151 0.15217,0M288.79154,136.54725c0.08376,-0.10094 0.16676,-0.20239 0.249,-0.30434c-0.05177,0.09435 -0.10249,0.16813 -0.15217,0.22134c-0.03087,0.03087 -0.06315,0.05854 -0.09683,0.083M286.81335,212.28575c-0.47034,0.23978 -1.09746,0.48417 -1.88136,0.73318c-3.05623,0.9414 -6.27022,1.53624 -9.64196,1.78452c0.06769,-0.04193 0.13225,-0.08804 0.19367,-0.13834c1.5678,-1.28191 2.3517,-2.56842 2.3517,-3.85955c0,-0.2441 -0.02767,-0.47005 -0.083,-0.67784c1.61978,0.16705 4.07293,0.39299 7.35943,0.67784c1.00545,0.08617 2.08908,0.17839 3.25088,0.27667c-0.37812,0.47034 -0.89457,0.87151 -1.54935,1.20352M275.94021,201.06677c0.30466,-0.02154 0.609,-0.0446 0.91301,-0.06917c0.0031,0.03192 0.00771,0.0642 0.01383,0.09683c0.01844,0.09222 0.05072,0.22134 0.09683,0.38734c0.22134,0.80234 0.11528,1.66463 -0.31817,2.58687c-0.249,0.5349 -0.74701,1.25885 -1.49402,2.17186c-1.0422,1.26876 -1.92293,2.18638 -2.6422,2.75287c-0.01038,-0.00065 -0.0196,-0.00065 -0.02767,0c-0.30599,0.02266 -0.61033,0.0411 -0.91301,0.05533c-0.00638,-0.02064 -0.01099,-0.0437 -0.01383,-0.06917c0.74701,-0.37812 1.47096,-0.96835 2.17186,-1.77069c0.43345,-0.49801 0.99601,-1.26807 1.68769,-2.3102c0.43345,-0.65479 0.71934,-1.18046 0.85768,-1.57702c0.21211,-0.66401 0.19367,-1.24963 -0.05533,-1.75686c-0.11982,-0.20768 -0.21204,-0.37369 -0.27667,-0.49801M280.58827,203.0588c-0.09222,0.68245 -0.30895,1.34646 -0.65018,1.99203c-0.57179,1.09746 -1.4848,2.15342 -2.73904,3.16788c-0.13423,0.10739 -0.24951,0.20422 -0.34584,0.2905c-0.70133,0.09395 -1.35151,0.17234 -1.95053,0.23517c0.12601,-0.21979 0.32891,-0.45957 0.60867,-0.71934c0.63634,-0.57179 1.09285,-0.99601 1.36952,-1.27268c0.48878,-0.48878 0.88996,-0.95912 1.20352,-1.41102c0.83923,-1.18046 1.18046,-2.34709 1.02368,-3.49988c-0.05533,-0.332 -0.09222,-0.58101 -0.11067,-0.74701c-0.01549,-0.10217 -0.02471,-0.199 -0.02767,-0.2905c0.47225,-0.04867 0.94259,-0.104 1.41102,-0.166c0.01708,0.09806 0.04474,0.20873 0.083,0.332c0.18445,0.65479 0.22595,1.35107 0.1245,2.08886M283.35497,191.39714c0.0598,0.15912 0.10591,0.29746 0.13834,0.41501c0.11067,0.41501 0.13834,0.78851 0.083,1.12051c-0.05533,0.31356 -0.24439,0.76545 -0.56717,1.35568c-0.45189,0.75623 -0.76545,1.25885 -0.94068,1.50785c-0.34123,0.49801 -0.97296,1.23579 -1.89519,2.21336c-0.57179,0.59945 -0.98679,1.00062 -1.24502,1.20352c-0.35045,0.26745 -0.73318,0.50262 -1.14818,0.70551c-0.00418,0.00202 -0.00879,0.00202 -0.01383,0h-0.01383c-0.49548,0.02342 -0.98888,0.04186 -1.48019,0.05533c0.07727,-0.04651 0.16489,-0.09262 0.26284,-0.13834c2.21336,-1.06057 4.01172,-2.60992 5.39507,-4.64806c0.45189,-0.67323 0.81618,-1.32802 1.09285,-1.96436c0.13834,-0.35045 0.19828,-0.60406 0.17984,-0.76084c-0.00922,-0.11989 -0.0415,-0.26284 -0.09683,-0.42884c-0.083,-0.23056 -0.13372,-0.3735 -0.15217,-0.42884c-0.01844,-0.08437 -0.02767,-0.16737 -0.02767,-0.249c0.14424,0.01538 0.28719,0.02922 0.42884,0.0415M295.59763,183.89938c-0.14756,0.01844 -0.25361,-0.01383 -0.31817,-0.09683c-0.02759,-0.03765 -0.04604,-0.07915 -0.05533,-0.1245c0.45294,-0.12126 0.90483,-0.24576 1.35568,-0.3735c-0.01347,0.01427 -0.02731,0.0281 -0.0415,0.0415c-0.35967,0.34123 -0.67323,0.52567 -0.94068,0.55334M286.96552,192.24099c0.20289,1.06057 -0.16139,2.23642 -1.09285,3.52755c-1.11003,1.55735 -2.49799,2.77009 -4.16389,3.63821c-0.81438,0.12796 -1.63055,0.24324 -2.44853,0.34584c0.07753,-0.10851 0.16975,-0.21456 0.27667,-0.31817c0.15678,-0.15678 0.44267,-0.38273 0.85768,-0.67784c0.98679,-0.69168 1.94591,-1.48941 2.87737,-2.3932c1.39257,-1.35568 2.05197,-2.61915 1.97819,-3.79038c-0.03689,-0.38734 -0.05533,-0.61329 -0.05533,-0.67784c0.00367,-0.10303 0.01751,-0.19987 0.0415,-0.2905c0.52222,0.06081 1.04789,0.11614 1.57702,0.166c0.06737,0.13931 0.11809,0.29609 0.15217,0.47034M298.03233,199.48975c-1.29113,1.02368 -3.03415,2.2272 -5.22907,3.61055c-1.54013,0.98679 -2.81743,1.74302 -3.83188,2.2687c-1.44791,0.76545 -2.81281,1.34185 -4.09472,1.72919c-0.82079,0.25823 -1.76147,0.47956 -2.82204,0.66401c-0.57777,0.10786 -1.34322,0.22775 -2.29636,0.35967c0.64481,-0.47174 1.25348,-1.0712 1.82602,-1.79836c1.18968,-1.51246 1.78452,-2.96959 1.78452,-4.37139c0,-0.21211 -0.0415,-0.47956 -0.1245,-0.80234c-0.0861,-0.32833 -0.20138,-0.60961 -0.34584,-0.84384c3.4712,-0.5251 6.90653,-1.26288 10.30597,-2.21336c0.23884,-0.07414 0.40946,-0.06953 0.51184,0.01383c1.16385,-0.34079 2.31665,-0.70969 3.45838,-1.10668c1.77296,-0.61221 3.5252,-1.28544 5.25674,-2.01969c-0.67392,0.91499 -1.46704,1.81417 -2.37936,2.69754c-0.00119,0.18416 -0.1303,0.36861 -0.38734,0.55334c-0.43345,0.31356 -0.7424,0.53028 -0.92685,0.65018c-0.04935,0.03116 -0.10008,0.05883 -0.15217,0.083c0.02954,0.00011 0.05721,-0.0045 0.083,-0.01383c-0.20703,0.18257 -0.41915,0.36241 -0.63634,0.53951M302.9294,193.4445c-4.82174,2.04812 -9.8018,3.64819 -14.9402,4.80023c-0.70497,0.15782 -1.41509,0.30538 -2.13036,0.44267c0.68213,-0.50521 1.29542,-1.12311 1.83986,-1.85369c1.14869,-1.54723 1.54525,-3.17497 1.18968,-4.88323c0.33903,0.02929 0.68026,0.05696 1.02368,0.083c2.83126,0.21211 7.09198,0.4934 12.78217,0.84384l0.23517,0.56717M301.98872,158.70854c-0.13834,0.22134 -0.25823,0.35967 -0.35967,0.41501c-0.083,0.04611 -0.17061,0.05995 -0.26284,0.0415c-0.10145,-0.02767 -0.17061,-0.083 -0.2075,-0.166c-0.00706,-0.01938 -0.01167,-0.04244 -0.01383,-0.06917c0.37711,-0.23196 0.75061,-0.46713 1.12051,-0.70551l-0.27667,0.48417M307.9233,154.25415c0.11953,-0.08336 0.23481,-0.17097 0.34584,-0.26284c0.07299,-0.04813 0.14215,-0.09885 0.2075,-0.15217c0.0018,0.00403 0.0018,0.00865 0,0.01383c-0.09222,0.29512 -0.18906,0.4934 -0.2905,0.59484c-0.07378,0.083 -0.16139,0.14295 -0.26284,0.17984c-0.11989,0.03689 -0.22595,0.03228 -0.31817,-0.01383c-0.02705,-0.01524 -0.05472,-0.03368 -0.083,-0.05533c0.13801,-0.09943 0.27173,-0.20087 0.40117,-0.30434z" fill="#5b5d5e"/></g><path d="M272.01149,216.64331c-0.44671,0.16006 -0.90321,0.28917 -1.36952,0.38734" fill="none" stroke-opacity="0.96863" stroke="#000000" stroke-linecap="round" stroke-linejoin="round"/></g></g></svg>