<svg version="1.1" xmlns="http://www.w3.org/2000/svg" xmlns:xlink="http://www.w3.org/1999/xlink" width="198.03085" height="120.53191" viewBox="0,0,198.03085,120.53191"><g transform="translate(-138.98458,-119.98405)"><g data-paper-data="{&quot;isPaintingLayer&quot;:true}" fill-rule="nonzero" stroke-width="1" stroke-miterlimit="10" stroke-dasharray="" stroke-dashoffset="0" style="mix-blend-mode: normal"><g stroke="none" stroke-linecap="butt" stroke-linejoin="miter"><path d="M149.06566,182.48292c0.05054,0.07814 0.16435,0.26309 0.34144,0.55484c0.01682,-0.00478 0.03105,-0.01426 0.04268,-0.02846c0.81786,1.11935 1.64775,2.21956 2.48969,3.30061c3.52824,4.55256 7.26513,8.92492 11.21069,13.11707c1.80205,1.91587 3.64205,3.76535 5.51999,5.54843c1.66716,1.59325 3.34592,3.12974 5.03628,4.60948c0.26786,0.23708 0.53343,0.46945 0.7967,0.69711c2.87381,2.49442 5.84246,4.89401 8.90595,7.19875c2.48976,1.88115 5.04109,3.68322 7.654,5.40617c0.48252,0.31684 0.96623,0.62983 1.45113,0.93897c0.04272,0.0296 0.0854,0.05806 0.12804,0.08536c3.24371,2.0771 6.55854,4.08783 9.9445,6.03215c0.56822,0.32699 1.13729,0.65421 1.70721,0.98165c0.12719,0.0735 0.25523,0.14464 0.38412,0.21341c-0.83664,-0.04483 -1.55272,-0.08751 -2.14824,-0.12804c-0.13156,-0.07421 -0.26434,-0.15009 -0.39835,-0.22762c-1.93703,-1.04444 -3.8529,-2.12093 -5.74761,-3.22948c-2.02379,-1.172 -4.03451,-2.36705 -6.03215,-3.58514c-0.96105,-0.58801 -1.91898,-1.18078 -2.87381,-1.77834c-0.74245,-0.46437 -1.47751,-0.9386 -2.20514,-1.42268c-1.98134,-1.29311 -3.91143,-2.63992 -5.79029,-4.0404c-2.85613,-2.11845 -5.62087,-4.35206 -8.2942,-6.70081c-0.00185,-0.00278 -0.00659,-0.00752 -0.01423,-0.01423c-2.77896,-2.42803 -5.43462,-4.94143 -7.96698,-7.54018c-2.50391,-2.57979 -4.91297,-5.2639 -7.22719,-8.05235c-2.33319,-2.78845 -4.56679,-5.66699 -6.70081,-8.63565c-0.45215,-0.63264 -0.90266,-1.26811 -1.35154,-1.90638c0.03997,-0.01956 0.07791,-0.03853 0.11381,-0.05691c-0.33136,-0.51598 -0.59693,-0.92381 -0.7967,-1.2235c-0.35093,-0.53113 -0.99587,-1.41319 -1.93484,-2.64618c-0.16409,-0.21332 -0.32058,-0.42198 -0.46948,-0.62598c-0.62082,-0.82182 -1.09979,-1.5047 -1.43691,-2.04865c-0.0921,-0.1486 -0.1917,-0.31458 -0.29876,-0.49794c-0.37305,-0.65543 -0.83304,-1.53749 -1.38,-2.64618l-1.10969,-2.27628c-0.82516,-1.68824 -1.36102,-2.93545 -1.60762,-3.74164c-0.03794,-0.14227 -0.02846,-0.23711 0.02846,-0.28453c0.19636,0.25982 0.39079,0.52065 0.5833,0.78247c0.19843,0.26946 0.39286,0.53977 0.5833,0.81093c0.013,0.01071 0.02249,0.02019 0.02846,0.02846c1.42983,1.99689 2.78137,4.07874 4.05463,6.24555c0.06577,0.11318 0.12741,0.21751 0.18495,0.31299c0.30903,0.53143 0.52717,0.89659 0.65443,1.09546c0.29324,0.45322 0.70107,1.02703 1.2235,1.72144c0.22814,0.30376 0.47475,0.62623 0.73979,0.96742c0.92949,1.19505 1.58866,2.09133 1.97752,2.68886M238.68004,225.23435c-0.88425,-0.50116 -1.76631,-1.00858 -2.64618,-1.52226c-2.02324,-1.15677 -4.0387,-2.33286 -6.04637,-3.52824c-2.96865,-1.77361 -5.90885,-3.60411 -8.8206,-5.49153c-3.08247,-1.99175 -6.12225,-4.06411 -9.11936,-6.2171c-2.87381,-2.04865 -5.67648,-4.1637 -8.40802,-6.34514c-2.78845,-2.20989 -5.48205,-4.48617 -8.0808,-6.82885c-2.35216,-2.10556 -4.63792,-4.29649 -6.8573,-6.57277c-2.5703,-2.62721 -5.03628,-5.36823 -7.39792,-8.22307c-2.09608,-2.56082 -4.15422,-5.16432 -6.17441,-7.81049c-1.18689,-1.54972 -2.35823,-3.11466 -3.51401,-4.69483c-0.02701,-0.03964 -0.05546,-0.08232 -0.08536,-0.12804c0.07966,-0.04694 0.16028,-0.0991 0.24185,-0.15649c-0.11078,-0.12422 -0.31469,-0.3566 -0.61175,-0.69711c-0.28168,-0.32433 -0.6089,-0.74165 -0.98165,-1.25196c-0.03412,-0.05495 -0.07207,-0.11185 -0.11381,-0.17072c-1.2235,-1.70721 -2.46598,-3.55195 -3.72741,-5.53422c-0.49749,-0.78636 -0.92904,-1.4977 -1.29463,-2.13402c-0.27575,-0.48508 -0.51287,-0.92611 -0.71134,-1.32309c-0.0293,-0.05861 -0.05776,-0.11552 -0.08536,-0.17072c-0.08339,-0.20981 -0.12133,-0.39001 -0.11381,-0.54061c0.00948,-0.13279 0.05691,-0.25134 0.14227,-0.35567c0.08536,-0.10433 0.1897,-0.15649 0.31299,-0.15649c0.14723,0.18632 0.30373,0.39497 0.46948,0.62598c0.29776,0.42295 0.62498,0.92089 0.98165,1.49381c0.08066,0.12486 0.16128,0.2529 0.24185,0.38412l1.20927,1.93484c1.41319,2.23835 2.52762,3.90761 3.34329,5.00782l0.82516,1.09546c0.36945,0.49798 0.72512,1.0054 1.06701,1.52226c0.26434,0.39731 0.52043,0.8004 0.76825,1.20927c0.07062,0.13038 0.12278,0.23945 0.15649,0.32722c1.26022,1.71377 2.53588,3.40676 3.827,5.07896c2.18143,2.83587 4.42927,5.59112 6.74349,8.26575c2.06762,2.39958 4.19216,4.73751 6.37359,7.0138c2.50391,2.60824 5.13586,5.09792 7.89585,7.46905c2.66515,2.29526 5.40617,4.50988 8.22307,6.6439c2.52288,1.8969 5.09318,3.74164 7.7109,5.53422c2.86432,1.94432 5.77607,3.83648 8.73523,5.67648c3.00659,1.87794 6.02266,3.72267 9.04822,5.53422c2.01053,1.20127 4.03073,2.39632 6.0606,3.58514c1.01784,0.59426 2.03743,1.18705 3.05876,1.77834c3.20577,1.86845 6.41153,3.75586 9.6173,5.66226c1.19042,0.70697 2.37124,1.41831 3.54247,2.13402c-0.36726,-0.00664 -0.7419,-0.01612 -1.12392,-0.02846c-1.78494,-0.96109 -3.57277,-1.93325 -5.36349,-2.91649c-3.1204,-1.70721 -6.22658,-3.43339 -9.31853,-5.17854M274.01932,173.46316c0.15175,0.12329 0.30824,0.2466 0.46948,0.3699c1.96329,1.63133 4.18741,2.46598 6.67235,2.50391c0.07587,0 0.15175,-0.00948 0.22762,-0.02846c0.04742,0.09485 0.0901,0.1897 0.12804,0.28453c0.01897,0.04742 0.0332,0.09958 0.04268,0.15649c0.00948,0.03794 0.01423,0.08536 0.01423,0.14227c0,0.05691 -0.00948,0.11856 -0.02846,0.18495c-0.00948,0.04742 -0.02371,0.09485 -0.04268,0.14227c-0.01897,0.03794 -0.04268,0.07587 -0.07114,0.11381c-0.02846,0.04742 -0.05691,0.09485 -0.08536,0.14227l-4.70906,-1.59339c2.12453,2.0202 2.28576,3.80329 0.48371,5.34927c-0.17072,0.15175 -0.38886,0.22762 -0.65443,0.22762c-3.13938,0.03794 -5.30658,-1.40371 -6.50163,-4.32493c1.96329,2.52288 4.34865,3.48556 7.15606,2.88803c0.29402,-0.08536 0.37464,-0.27979 0.24185,-0.5833c-1.14763,-2.63669 -2.97814,-4.73751 -5.49153,-6.30245c0.21814,-0.08536 0.44103,-0.16598 0.66866,-0.24185c0.57855,0.02846 1.07175,0.21814 1.47958,0.56907M287.79083,165.15472c-1.29938,-0.95793 -2.72679,-1.75463 -4.28226,-2.39009c-2.42803,-0.99587 -4.90349,-1.88267 -7.42637,-2.6604l0.08536,-0.32722c1.3468,0.07587 2.67463,0.36041 3.9835,0.8536c2.97814,1.16659 5.74287,2.62721 8.2942,4.38184c0.06639,0.04742 0.04742,0.13752 -0.05691,0.27031c-0.91051,1.03381 -2.03443,1.36577 -3.37175,0.99587c-1.13814,-0.28453 -2.25731,-0.64969 -3.35752,-1.09546c-0.40784,-0.17072 -0.81093,-0.34144 -1.20927,-0.51217l0.12804,-0.27031l5.09318,1.42268l2.11979,-0.66866M285.82752,175.52604c-0.32247,-0.33196 -0.5501,-0.72082 -0.68288,-1.16659c-0.04742,-0.16124 -0.08536,-0.32247 -0.11381,-0.48371c-2.60824,-2.83587 -5.6907,-4.95091 -9.2474,-6.34514l0.09958,-0.34144c3.92659,1.10969 7.20348,3.29586 9.83069,6.55854c0.45526,0.56907 0.73031,1.2235 0.82516,1.96329l-0.71134,-0.18495M236.105,121.96227c-0.1878,-0.29428 -0.35378,-0.58356 -0.49794,-0.86783c-0.25608,-0.48371 -0.25608,-0.82516 0,-1.02432c0.16124,-0.10433 0.36041,-0.11381 0.59752,-0.02846c0.29402,0.10433 0.63072,0.37464 1.0101,0.81093c0.05902,0.06436 0.11592,0.126 0.17072,0.18495c0.30624,0.33304 0.60975,0.66024 0.91051,0.98165c0.41906,0.45556 0.83637,0.90607 1.25196,1.35154c0.54959,0.57874 1.09494,1.15256 1.63608,1.72144c0.08384,0.08266 0.16446,0.16328 0.24185,0.24185c1.59992,1.66928 3.19806,3.28638 4.79442,4.85133c0.01145,0.01641 0.02094,0.03064 0.02846,0.04268c0.09614,-0.03735 0.19099,-0.07528 0.28453,-0.11381c2.49491,2.50162 5.10789,4.868 7.83894,7.09915c2.63669,2.1435 5.32556,4.23009 8.06658,6.25978c6.61071,4.90349 13.34945,9.61255 20.21623,14.12718c2.91174,1.90638 5.85194,3.75112 8.8206,5.53422c2.95916,1.76412 5.95627,3.48081 8.99132,5.15009c2.59875,1.43216 5.21174,2.81216 7.83894,4.13999c2.39009,1.21402 4.78968,2.39484 7.19875,3.54247c1.84048,0.88243 3.68047,1.75026 5.51999,2.6035c0.2376,0.11741 0.47471,0.23122 0.71134,0.34144c1.24873,0.58044 2.50069,1.159 3.75586,1.73567c-0.02382,0.37949 -0.04754,0.75413 -0.07114,1.12392c-0.44907,-0.17483 -0.89959,-0.3503 -1.35154,-0.52639c-1.02625,-0.40516 -2.05058,-0.82248 -3.07298,-1.25196c-2.96043,-1.2272 -5.89114,-2.53607 -8.79214,-3.92659c-2.50391,-1.21402 -4.99359,-2.447 -7.46905,-3.69896c-2.68412,-1.3468 -5.34927,-2.75051 -7.99544,-4.21112c-3.31009,-1.81154 -6.5775,-3.69896 -9.80224,-5.66226c-2.92123,-1.77361 -5.81875,-3.58514 -8.69256,-5.43462c-8.42224,-5.42514 -16.55047,-11.24389 -24.38467,-17.45624c-3.19628,-2.54184 -6.24555,-5.24019 -9.14781,-8.09503c-0.02756,-0.02726 -0.05602,-0.05572 -0.08536,-0.08536c-0.12204,-0.11993 -0.24533,-0.24322 -0.3699,-0.3699c0.0721,-0.02549 0.14323,-0.05394 0.21341,-0.08536c-1.8444,-1.83514 -3.3477,-3.35266 -4.50988,-4.55256c-0.37345,-0.38486 -0.7149,-0.74053 -1.02432,-1.06701c-0.08036,-0.08466 -0.16098,-0.17002 -0.24185,-0.25608c-0.25204,-0.26842 -0.48441,-0.51976 -0.69711,-0.75402c-0.40306,-0.44526 -0.73501,-0.82937 -0.99587,-1.15236c-0.04635,-0.05683 -0.09377,-0.11374 -0.14227,-0.17072c-0.28012,-0.35715 -0.53147,-0.70808 -0.75402,-1.05278M254.48597,233.35783c0.02953,0.01934 0.05324,0.03356 0.07114,0.04268c1.5542,0.95282 3.09543,1.9155 4.6237,2.88803c0.48371,0.31299 0.97216,0.62598 1.46535,0.93897l-4.8371,-2.58927c-0.8027,-0.42617 -1.60888,-0.85772 -2.41855,-1.29463c-0.0086,-0.00464 -0.01808,-0.00937 -0.02846,-0.01423c0.38201,0.01234 0.75665,0.02182 1.12392,0.02846M204.67807,231.13845c2.31526,1.34472 4.62948,2.69153 6.94266,4.0404l3.21525,1.87794c-2.97814,-1.29938 -5.88988,-2.68886 -8.73523,-4.16845c-1.19646,-0.61541 -2.38676,-1.24139 -3.57091,-1.87794c0.59552,0.04053 1.3116,0.08321 2.14824,0.12804M326.01813,180.88953c1.68624,0.77769 3.37448,1.55068 5.06473,2.31897c1.95744,0.88888 3.93496,1.77093 5.93256,2.64618c-0.63302,-0.20147 -1.26374,-0.40539 -1.89216,-0.61175c-3.04667,-1.01814 -6.07224,-2.09938 -9.07667,-3.24371c-0.20721,-0.07403 -0.41587,-0.14989 -0.62598,-0.22762c0.0236,-0.36978 0.04731,-0.74443 0.07114,-1.12392c0.17706,0.08373 0.35252,0.16435 0.52639,0.24185z" fill="#000000"/><path d="M247.89898,233.14443c-5.61846,-0.20462 -11.97308,-0.47018 -19.06386,-0.7967c-11.60355,-0.53358 -19.6559,-0.93667 -24.15705,-1.20927c-0.12889,-0.06877 -0.25693,-0.13989 -0.38412,-0.21341c-0.56992,-0.32744 -1.13899,-0.65465 -1.70721,-0.98165c-3.38597,-1.94432 -6.70081,-3.95504 -9.9445,-6.03215c-0.04265,-0.0273 -0.08532,-0.05576 -0.12804,-0.08536c-0.48489,-0.30913 -0.96861,-0.62212 -1.45113,-0.93897c-2.61291,-1.72296 -5.16424,-3.52501 -7.654,-5.40617c-3.0635,-2.30474 -6.03215,-4.70431 -8.90595,-7.19875c-0.26327,-0.22767 -0.52883,-0.46004 -0.7967,-0.69711c-1.69036,-1.47974 -3.36912,-3.01622 -5.03628,-4.60948c-1.87794,-1.78309 -3.71793,-3.63257 -5.51999,-5.54843c-3.94556,-4.19216 -7.68245,-8.56452 -11.21069,-13.11707c-0.84194,-1.08105 -1.67183,-2.18125 -2.48969,-3.30061c-0.01164,0.01419 -0.02586,0.02367 -0.04268,0.02846c-0.1771,-0.29176 -0.29091,-0.47671 -0.34144,-0.55484c-0.38886,-0.59752 -1.04803,-1.49381 -1.97752,-2.68886c-0.26505,-0.34118 -0.51165,-0.66365 -0.73979,-0.96742c-0.52243,-0.69441 -0.93026,-1.26822 -1.2235,-1.72144c-0.12727,-0.19888 -0.34541,-0.56403 -0.65443,-1.09546c-0.05754,-0.09548 -0.11918,-0.1998 -0.18495,-0.31299c-1.27326,-2.1668 -2.6248,-4.24865 -4.05463,-6.24555c4.74644,-2.0774 11.38559,-5.18358 19.91747,-9.31853c1.62989,-0.75198 3.26122,-1.48703 4.89401,-2.20514c0.3656,0.63632 0.79715,1.34765 1.29463,2.13402c1.26144,1.98227 2.50391,3.827 3.72741,5.53422c0.04176,0.05887 0.07969,0.11578 0.11381,0.17072c0.37275,0.51031 0.69996,0.92763 0.98165,1.25196c0.29706,0.34052 0.50098,0.57289 0.61175,0.69711c-0.08158,0.05739 -0.16219,0.10956 -0.24185,0.15649c0.0299,0.04572 0.05836,0.0884 0.08536,0.12804c1.15577,1.58017 2.32711,3.14511 3.51401,4.69483c2.0202,2.64618 4.07833,5.24967 6.17441,7.81049c2.36164,2.85483 4.82762,5.59586 7.39792,8.22307c2.21937,2.27628 4.50515,4.46721 6.8573,6.57277c2.59875,2.34267 5.29236,4.61896 8.0808,6.82885c2.73154,2.18143 5.53422,4.29649 8.40802,6.34514c2.9971,2.15299 6.03689,4.22535 9.11936,6.2171c2.91174,1.88742 5.85194,3.71793 8.8206,5.49153c2.00768,1.19538 4.02313,2.37147 6.04637,3.52824c0.87988,0.51369 1.76193,1.02111 2.64618,1.52226c3.09195,1.74515 6.19812,3.47133 9.31853,5.17854z" fill="#cccccc"/><path d="M237.00128,123.18577c0.26086,0.32299 0.59281,0.70712 0.99587,1.15236c0.2127,0.23426 0.44507,0.4856 0.69711,0.75402c0.08087,0.08607 0.16149,0.17142 0.24185,0.25608c0.30943,0.32647 0.65087,0.68214 1.02432,1.06701c1.16218,1.1999 2.66548,2.71742 4.50988,4.55256c-0.07017,0.03142 -0.1413,0.05987 -0.21341,0.08536c0.12456,0.12667 0.24785,0.24997 0.3699,0.3699c0.02935,0.02964 0.0578,0.05809 0.08536,0.08536c2.90226,2.85483 5.95153,5.55318 9.14781,8.09503c7.83421,6.21235 15.96243,12.0311 24.38467,17.45624c2.87381,1.84948 5.77132,3.66102 8.69256,5.43462c3.22473,1.96329 6.49215,3.85071 9.80224,5.66226c2.64618,1.46062 5.31133,2.86432 7.99544,4.21112c2.47546,1.25196 4.96514,2.48494 7.46905,3.69896c2.901,1.39052 5.83171,2.69938 8.79214,3.92659c1.0224,0.42946 2.04673,0.84678 3.07298,1.25196c0.45196,0.1761 0.90248,0.35155 1.35154,0.52639c-0.1802,3.30213 -0.27031,6.2281 -0.27031,8.77791c0,7.30308 0.1897,17.43253 0.56907,30.38837c0.1263,4.40415 0.21166,8.07465 0.25608,11.01151c-2.89333,0.05291 -7.36528,0.30424 -13.41584,0.75402c-6.77194,0.49319 -12.45316,0.73979 -17.04367,0.73979c-17.00573,0.14227 -25.5323,0.21341 -25.57972,0.21341c-3.98138,0 -9.13148,-0.09958 -15.45026,-0.29876c-1.17123,-0.71571 -2.35205,-1.42704 -3.54247,-2.13402c-3.20577,-1.90638 -6.41153,-3.7938 -9.6173,-5.66226c-1.02132,-0.5913 -2.04091,-1.18408 -3.05876,-1.77834c-2.02987,-1.18883 -4.05007,-2.38388 -6.0606,-3.58514c-3.02555,-1.81154 -6.04163,-3.65628 -9.04822,-5.53422c-2.95916,-1.84 -5.87091,-3.73215 -8.73523,-5.67648c-2.61773,-1.79257 -5.18803,-3.63731 -7.7109,-5.53422c-2.8169,-2.13402 -5.55793,-4.34865 -8.22307,-6.6439c-2.75999,-2.37113 -5.39194,-4.86081 -7.89585,-7.46905c-2.18143,-2.27628 -4.30597,-4.61421 -6.37359,-7.0138c-2.31422,-2.67463 -4.56205,-5.42988 -6.74349,-8.26575c-1.29111,-1.6722 -2.56678,-3.36518 -3.827,-5.07896c-0.03372,-0.08777 -0.08587,-0.19684 -0.15649,-0.32722c-0.24782,-0.40887 -0.5039,-0.81197 -0.76825,-1.20927c-0.34189,-0.51687 -0.69755,-1.02429 -1.06701,-1.52226l-0.82516,-1.09546c-0.81567,-1.10021 -1.9301,-2.76948 -3.34329,-5.00782l-1.20927,-1.93484l-0.17072,-0.41257c6.26555,-2.69923 12.57276,-5.11778 18.92159,-7.25565c8.6309,-2.90226 18.98799,-7.73936 31.07125,-14.5113c8.16357,-4.57895 15.08252,-8.80904 20.75685,-12.69027c0.04849,0.05698 0.09592,0.11388 0.14227,0.17072M286.53887,175.71099c-0.09485,-0.73979 -0.3699,-1.39422 -0.82516,-1.96329c-2.62721,-3.26267 -5.90411,-5.44885 -9.83069,-6.55854l-0.09958,0.34144c3.5567,1.39422 6.63915,3.50927 9.2474,6.34514c0.02846,0.16124 0.06639,0.32247 0.11381,0.48371c0.13279,0.44577 0.36041,0.83464 0.68288,1.16659l0.71134,0.18495M285.67104,165.82338l-5.09318,-1.42268l-0.12804,0.27031c0.39835,0.17072 0.80144,0.34144 1.20927,0.51217c1.10021,0.44577 2.21937,0.81093 3.35752,1.09546c1.33731,0.3699 2.46123,0.03794 3.37175,-0.99587c0.10433,-0.13279 0.12329,-0.22289 0.05691,-0.27031c-2.55133,-1.75463 -5.31606,-3.21525 -8.2942,-4.38184c-1.30886,-0.49319 -2.63669,-0.77773 -3.9835,-0.8536l-0.08536,0.32722c2.52288,0.77773 4.99834,1.66453 7.42637,2.6604c1.55546,0.63546 2.98288,1.43216 4.28226,2.39009l-2.11979,0.66866M271.87108,173.13594c2.5134,1.56495 4.34391,3.66576 5.49153,6.30245c0.13279,0.30351 0.05216,0.49794 -0.24185,0.5833c-2.80741,0.59752 -5.19277,-0.36515 -7.15606,-2.88803c1.19505,2.92123 3.36226,4.36287 6.50163,4.32493c0.26556,0 0.48371,-0.07587 0.65443,-0.22762c1.80205,-1.54597 1.64082,-3.32906 -0.48371,-5.34927l4.70906,1.59339c0.02846,-0.04742 0.05691,-0.09485 0.08536,-0.14227c0.02846,-0.03794 0.05216,-0.07587 0.07114,-0.11381c0.01897,-0.04742 0.0332,-0.09485 0.04268,-0.14227c0.01897,-0.06639 0.02846,-0.12804 0.02846,-0.18495c0,-0.05691 -0.00475,-0.10433 -0.01423,-0.14227c-0.00948,-0.05691 -0.02371,-0.10908 -0.04268,-0.15649c-0.03794,-0.09485 -0.08062,-0.1897 -0.12804,-0.28453c-0.07587,0.01897 -0.15175,0.02846 -0.22762,0.02846c-2.48494,-0.03794 -4.70906,-0.87258 -6.67235,-2.50391c-0.16124,-0.12329 -0.31773,-0.2466 -0.46948,-0.3699c-0.40784,-0.35093 -0.90103,-0.54061 -1.47958,-0.56907c-0.22762,0.07587 -0.45051,0.15649 -0.66866,0.24185z" fill="#ffffff"/></g><path d="M325.76205,173.98954c0.03794,0.86309 -0.04742,2.99236 -0.25608,6.38782c-0.00555,0.09107 -0.0103,0.18117 -0.01423,0.27031M325.49174,180.64767c-0.02382,0.37949 -0.04516,0.75413 -0.06402,1.12392c-0.18495,3.30213 -0.27742,6.2281 -0.27742,8.77791c0,7.30308 0.1897,17.43253 0.56907,30.38837c0.1263,4.40415 0.21403,8.07702 0.2632,11.01863c-2.89807,0.04816 -7.37239,0.29713 -13.42295,0.74691c-6.77194,0.49319 -12.45316,0.73979 -17.04367,0.73979c-17.00573,0.14227 -25.5323,0.21341 -25.57972,0.21341c-3.98138,0 -9.1291,-0.09722 -15.44316,-0.29165M247.89898,233.14443c-5.61846,-0.20462 -11.97308,-0.47018 -19.06386,-0.7967c-11.60355,-0.53358 -19.6559,-0.9343 -24.15705,-1.20217M247.89898,233.14443c1.90579,0.06828 3.72682,0.12993 5.46308,0.18495c0.38201,0.01234 0.75902,0.02419 1.13103,0.03556M331.49544,231.73598h-0.21341c-0.47423,0 -1.28989,0.03794 -2.447,0.11381c-1.14763,0.06639 -1.77834,0.09958 -1.89216,0.09958c-0.29753,0 -0.61764,0.00237 -0.96031,0.00711M325.97546,240.01596c0.07706,-1.2564 0.07943,-3.94289 0.00711,-8.05946M204.67807,231.14557c-0.83664,-0.04957 -1.55035,-0.09462 -2.14112,-0.13516c-0.69985,-0.0499 -1.22861,-0.09258 -1.58628,-0.12804c0,0.14227 -0.07114,0.21341 -0.21341,0.21341" fill="none" stroke-opacity="0.96863" stroke="#000000" stroke-linecap="round" stroke-linejoin="round"/></g></g></svg>