<svg version="1.1" xmlns="http://www.w3.org/2000/svg" xmlns:xlink="http://www.w3.org/1999/xlink" width="310.91519" height="199.6005" viewBox="0,0,310.91519,199.6005"><g transform="translate(-85.04622,-80.92416)"><g data-paper-data="{&quot;isPaintingLayer&quot;:true}" fill-rule="nonzero" stroke="none" stroke-width="1" stroke-linecap="butt" stroke-linejoin="miter" stroke-miterlimit="10" stroke-dasharray="" stroke-dashoffset="0" style="mix-blend-mode: normal"><path d="M391.48676,82.94892c-6.31325,1.74702 -12.56704,3.90099 -18.76137,6.46191c-5.23303,2.17101 -9.58441,4.39287 -13.05414,6.6656c-4.29027,2.80464 -7.7274,5.93872 -10.31137,9.40224c0.56905,0.24628 1.0495,0.58621 1.44136,1.0198c0.22875,0.26455 0.41444,0.54355 0.55709,0.83698c0.78685,-2.30247 2.52485,-4.45621 5.21398,-6.46123c0.96633,-0.69168 2.40979,-1.60249 4.33038,-2.73244c2.01459,-1.16754 3.46144,-2.06444 4.34053,-2.69071c0.70463,-0.49545 1.22764,-0.82887 1.56905,-1.00028c0.62339,-0.28416 1.20052,-0.39501 1.73139,-0.33253c-7.9781,4.23095 -13.60773,9.19463 -16.88888,14.89104c-0.02802,0.06868 -0.05961,0.12056 -0.09476,0.15564c-0.03865,0.20583 -0.10409,0.39117 -0.19632,0.55604c-0.2497,0.48798 -0.83478,1.02067 -1.75522,1.59805c-9.71773,6.10526 -19.90081,11.52033 -30.54923,16.24521l0.00785,0.3959l-0.66775,0.16234c-0.03107,-0.06836 -0.07054,-0.1398 -0.11841,-0.21432c-0.4352,0.19846 -0.87398,0.39355 -1.31635,0.58524c-0.02263,0.07854 -0.04745,0.15824 -0.07447,0.23911c-0.19482,0.59251 -0.56146,1.17522 -1.09992,1.74814c-0.33917,0.3624 -0.86483,0.83644 -1.57699,1.42212c-16.05401,13.05263 -38.72271,27.95654 -68.00611,44.71172c-15.81893,8.92901 -27.65643,15.65978 -35.51252,20.19234c-13.56899,7.88105 -25.14186,15.0337 -34.71861,21.45795c-8.80595,5.89798 -22.80306,16.07843 -41.99134,30.54135c-17.89708,13.47125 -31.9923,23.52085 -42.28568,30.1488c-0.92045,0.57739 -1.65402,0.9841 -2.20071,1.22015c-0.86327,0.32775 -1.65733,0.42503 -2.38219,0.29185c-0.83239,-0.15124 -1.44365,-0.66564 -1.83381,-1.5432c-0.37393,-0.85296 -0.30355,-1.53309 0.21116,-2.04038c-0.07943,0.02673 -0.1629,0.04703 -0.25041,0.06088c0.7694,-1.38048 1.8877,-2.75001 3.3549,-4.10861c0.91521,-0.84132 2.31321,-1.96945 4.19399,-3.38439c11.58847,-8.75504 29.22959,-22.91548 52.92336,-42.48132c22.90114,-18.88692 40.59226,-32.99322 53.07335,-42.31888c19.92392,-14.86467 38.77357,-27.17519 56.54897,-36.93155c3.06457,-2.44737 6.21999,-4.70998 9.46626,-6.78783c2.15147,-1.39235 4.31083,-2.66138 6.47806,-3.80709c1.3032,-0.69991 2.74552,-1.43364 4.32694,-2.20119l6.99687,-3.49122c4.07577,-2.02226 7.19424,-3.4066 9.35541,-4.15303c0.02782,-0.00676 0.79333,-0.25181 2.29652,-0.73513c0.93244,-0.28563 1.69457,-0.54459 2.28637,-0.77687c0.7798,-0.30745 2.33152,-1.04568 4.65517,-2.21469c3.71707,-1.86138 7.58714,-3.48739 11.6102,-4.87802c1.57963,-0.53207 2.64174,-0.46615 3.18634,0.19775l25.75173,-12.16158c1.9123,-0.92166 3.43317,-1.45349 4.5626,-1.59547c0.85497,-0.11946 1.67233,-0.06033 2.45207,0.17737c0.13452,0.03607 0.26799,0.06993 0.4004,0.10156c0.42084,-2.33549 1.74752,-4.51447 3.98005,-6.53694c1.68378,-1.55859 4.10222,-3.15581 7.25531,-4.79168c11.22193,-5.77814 22.02448,-10.06935 32.40765,-12.87365c1.44002,-0.37957 2.49198,-0.35538 3.1559,0.07255c-1.4469,2.47802 -3.33715,4.55091 -5.67076,6.21867l-3.59735,3.74765c-0.14726,0.44656 -0.3932,0.88943 -0.73781,1.3286c-0.37452,0.4594 -0.93892,1.01651 -1.6932,1.67137c-1.08454,0.94499 -2.06404,1.79458 -2.93852,2.54875c-1.38871,1.35925 -2.60436,2.47988 -3.64694,3.36189c-3.62097,3.07362 -7.55204,5.53955 -11.79322,7.39776c-3.92976,1.89087 -7.78435,3.00481 -11.56378,3.3418c-0.84068,0.05705 -1.46178,-0.01296 -1.8633,-0.21001c-0.28723,-0.15117 -0.49924,-0.38693 -0.63606,-0.70728c-0.13682,-0.32034 -0.1349,-0.61548 0.00574,-0.88542c1.62797,0.19562 3.28601,0.1977 4.97411,0.00622c3.8759,-1.26587 6.90222,-2.36261 9.07897,-3.2902c2.65121,-1.14188 5.02224,-2.38871 7.11307,-3.74047c0.63852,-0.46458 1.27886,-0.95177 1.92101,-1.46156c1.59127,-1.30916 2.8306,-2.33241 3.71797,-3.06975c0.54544,-0.52339 1.10645,-1.09443 1.68305,-1.71311c0.70993,-0.77667 1.88011,-2.11463 3.51054,-4.01385l6.69735,-7.90478c0.33888,-0.40026 0.66038,-0.71416 0.96448,-0.9417M316.84638,126.64361c0.07118,0.19288 0.1238,0.37899 0.15784,0.55834c0.13706,-0.05767 0.28332,-0.1227 0.43878,-0.19508c-0.18798,-0.15038 -0.40227,-0.30455 -0.64286,-0.46252c0.01885,0.03657 0.03426,0.06965 0.04623,0.09926M393.18772,82.49119c-0.06123,0.01615 -0.12552,0.02441 -0.19288,0.02479c0.04907,0.02784 0.09757,0.04552 0.14549,0.05303l0.04738,-0.07782M305.41191,123.69956l-9.81899,4.15523c-9.13657,3.87145 -15.92058,6.93521 -20.35205,9.19128c-5.3243,2.70249 -10.5612,5.73635 -15.71067,9.10158c0.15124,0.19172 0.31853,0.36468 0.50186,0.5189c-2.03919,1.08506 -4.08122,2.20032 -6.1261,3.34581c-0.12966,0.09189 -0.25524,0.18136 -0.37675,0.2684c-0.00114,-0.02033 0.00074,-0.04288 0.00565,-0.06767c-9.33632,5.23246 -18.81225,11.10179 -28.42778,17.60798c-13.26007,8.9699 -27.95358,19.98267 -44.08053,33.03831c-7.00576,5.66659 -21.1873,17.51257 -42.5446,35.53795c-4.91943,4.1569 -9.58381,8.06082 -13.99315,11.71178c-11.35679,9.44973 -20.98746,17.22784 -28.89202,23.33435c-1.54604,1.19457 -2.85077,2.13059 -3.91419,2.80806c-0.35238,0.23704 -0.67837,0.44153 -0.97797,0.61347c-1.7438,1.01583 -3.41657,1.68035 -5.01833,1.99357c0.85501,0.48363 1.88404,0.56496 3.08708,0.24399c0.88356,-0.24428 1.93371,-0.74269 3.15044,-1.49525c0.14031,-0.08597 0.27981,-0.17881 0.41849,-0.27855c9.26794,-5.69197 20.81046,-13.78756 34.62758,-24.28678c18.00237,-13.64419 29.45922,-22.18306 34.37057,-25.61662c10.6529,-7.45203 23.45945,-15.56026 38.41964,-24.32469c1.09791,-0.63526 14.29126,-8.15242 39.58006,-22.55147c15.8821,-9.03276 28.87923,-16.81162 38.99137,-23.33657c13.85711,-8.93825 26.06106,-17.8282 36.61186,-26.66983c-0.28493,-0.50534 -0.37848,-1.07194 -0.28065,-1.6998c0.07035,-0.49209 0.25199,-0.92669 0.54493,-1.30381l-0.36316,-0.22111c-0.38046,-0.23164 -0.64286,-0.46252 -0.78721,-0.69263c-0.08947,-0.12558 -0.16464,-0.31358 -0.22552,-0.56398c-0.0917,-0.31658 -0.15634,-0.52187 -0.19393,-0.61586c-0.01224,-0.03069 -0.03104,-0.07769 -0.05638,-0.14099c-0.18699,0.07125 -0.36972,0.13777 -0.54819,0.19957c-0.05966,-0.13151 -0.12131,-0.26386 -0.18494,-0.39705c0.17419,-0.04672 0.35166,-0.1046 0.5324,-0.17364c-0.03221,-0.05721 -0.07168,-0.12865 -0.11841,-0.21432c-0.15788,-0.28576 -0.24657,-0.52939 -0.2661,-0.73092c-0.00253,-0.12618 0.01214,-0.24761 0.04403,-0.36431c-0.01634,-0.34727 0.07956,-0.68 0.28773,-0.99817c-2.17396,0.71846 -4.81265,1.74305 -7.91607,3.07378M347.09265,106.51608c-0.6978,-0.02189 -1.4851,0.10322 -2.3619,0.37532c-0.45569,0.12552 -1.2197,0.40704 -2.29202,0.84455c-5.1428,2.17854 -8.93166,3.86584 -11.3666,5.0619c-4.14194,2.05308 -7.67671,4.17954 -10.60428,6.37939c-0.14459,0.11095 -0.31379,0.23312 -0.5076,0.36651l0.02594,0.01579c0.15564,0.09476 0.39775,0.24217 0.72633,0.44223c0.24887,0.17523 0.44022,0.38655 0.57403,0.63396c0.14058,0.27523 0.15973,0.53578 0.05744,0.78165c0.68044,0.55652 1.08904,1.26753 1.22579,2.13303c-0.59857,0.20446 -1.2272,0.22469 -1.88588,0.06069c-0.63086,-0.17076 -1.15831,-0.4919 -1.58235,-0.96342c-0.11729,-0.11882 -0.20675,-0.2444 -0.2684,-0.37675l-0.09697,-0.30794c-0.04405,-0.18117 -0.27636,-0.5004 -0.69694,-0.95768c-0.42014,0.31411 -0.82472,0.58928 -1.21373,0.82549c0.01944,0.03665 0.04012,0.06109 0.06203,0.07332c0.4088,-0.09991 0.8175,-0.20663 1.22609,-0.32019c-0.38428,0.14557 -0.76366,0.282 -1.13812,0.4093c0.36434,0.44517 0.75003,0.94075 1.15707,1.48673c0.50974,0.64222 0.80332,1.15282 0.88072,1.53181c0.05411,0.22258 0.07964,0.56998 0.07658,1.0422l0.009,0.21882c1.31196,-0.55948 2.61439,-1.14133 3.9073,-1.74556c9.67779,-4.40907 18.9634,-9.57648 27.85681,-15.50223c-0.21046,-0.74445 -0.69088,-1.35696 -1.44126,-1.83754c-0.70903,-0.4317 -1.48539,-0.65549 -2.32907,-0.67138M362.16975,104.35336c-0.75798,0.15481 -1.29902,0.32318 -1.62312,0.50512c-0.53392,0.40975 -0.93174,0.71274 -1.19344,0.90896c-0.25117,0.17893 -0.56663,0.36613 -0.94639,0.56159c-0.44593,0.22629 -0.78206,0.38904 -1.00841,0.48827c-0.15341,0.09623 -0.74787,0.46913 -1.78337,1.11869c-0.72869,0.4571 -1.35058,0.77773 -1.86569,0.9619c-0.52187,0.15635 -0.87753,0.11758 -1.06699,-0.1163c-0.24511,-0.22035 -0.26237,-0.50346 -0.05179,-0.84933c0.11582,-0.19023 0.33767,-0.39887 0.66554,-0.62592c1.2205,-0.79767 2.67634,-1.47575 4.36753,-2.03425l3.79895,-1.10041c1.0505,-0.28487 1.79721,-0.57691 2.24014,-0.87613l0.05408,0.49516c-0.32787,0.22705 -0.85689,0.41459 -1.58705,0.56264z" fill="#000000"/><path d="M349.42172,107.18746c0.75038,0.48058 1.23081,1.09309 1.44126,1.83754c-8.89341,5.92575 -18.17902,11.09315 -27.85681,15.50223c-1.29291,0.60423 -2.59534,1.18608 -3.9073,1.74556l-0.009,-0.21882c0.00307,-0.47222 -0.02247,-0.81962 -0.07658,-1.0422c-0.07741,-0.37899 -0.37098,-0.88959 -0.88072,-1.53181c-0.40704,-0.54598 -0.79273,-1.04156 -1.15707,-1.48673c0.37446,-0.1273 0.75383,-0.26373 1.13812,-0.4093c-0.40859,0.11355 -0.81729,0.22028 -1.22609,0.32019c-0.02191,-0.01223 -0.04258,-0.03667 -0.06203,-0.07332c0.38901,-0.23621 0.79359,-0.51138 1.21373,-0.82549c0.42058,0.45728 0.65289,0.77651 0.69694,0.95768l0.09697,0.30794c0.06165,0.13235 0.15111,0.25793 0.2684,0.37675c0.42404,0.47152 0.95149,0.79266 1.58235,0.96342c0.65868,0.164 1.28731,0.14377 1.88588,-0.06069c-0.13675,-0.8655 -0.54535,-1.57652 -1.22579,-2.13303c0.10229,-0.24587 0.08315,-0.50642 -0.05744,-0.78165c-0.13381,-0.24741 -0.32516,-0.45872 -0.57403,-0.63396c-0.32858,-0.20006 -0.57069,-0.34746 -0.72633,-0.44223l-0.02594,-0.01579c0.19381,-0.13339 0.36301,-0.25556 0.5076,-0.36651c2.92757,-2.19985 6.46233,-4.32631 10.60428,-6.37939c2.43493,-1.19606 6.2238,-2.88336 11.3666,-5.0619c1.07232,-0.43751 1.83633,-0.71903 2.29202,-0.84455c0.8768,-0.2721 1.6641,-0.39721 2.3619,-0.37532c0.84368,0.01589 1.62004,0.23968 2.32907,0.67138M290.99127,145.10685c-0.24823,0.79703 -0.91192,1.67297 -1.99108,2.62781c-0.50611,0.40298 -0.90016,0.66086 -1.18215,0.77361c-0.34817,0.14358 -0.84521,0.22022 -1.49113,0.22992l-2.09905,0.00201c-0.94444,-0.00613 -1.6208,-0.12163 -2.02908,-0.3465c-0.44287,-0.24594 -0.78947,-0.61105 -1.03981,-1.09533c-0.20523,-0.48052 -0.29051,-0.98283 -0.25586,-1.50693c0.11742,-0.9715 0.62997,-1.83279 1.53765,-2.58388c0.4467,-0.34434 0.95392,-0.65182 1.52166,-0.92246c1.13926,-0.58639 2.09765,-0.85622 2.87515,-0.80951c0.41657,0.01659 1.02864,0.14036 1.83621,0.3713c0.79403,0.1753 1.25157,0.29979 1.37263,0.3735c0.47069,0.23917 0.79962,0.65278 0.98678,1.24082c0.16311,0.54969 0.14913,1.09823 -0.04192,1.64562M288.82359,143.64483c-0.09323,-0.08047 -0.21805,-0.10906 -0.37446,-0.08577c-0.20152,0.01953 -0.35267,0.03418 -0.45343,0.04394l-0.81209,-0.06777c-0.26394,0.00523 -0.56998,0.07964 -0.91815,0.22322c-1.15579,0.4578 -2.04653,1.00587 -2.67222,1.64419c0.2797,0.2414 0.77859,0.41479 1.49668,0.52014c1.18655,0.15353 2.08814,0.07431 2.70477,-0.23768c0.56099,-0.29845 0.93551,-0.75785 1.12356,-1.37818c0.0993,-0.31881 0.06774,-0.53951 -0.09467,-0.6621M240.17241,169.8824c0.24741,-0.13381 0.46437,-0.39283 0.6509,-0.77706c0.16623,-0.46769 0.30388,-0.81056 0.41294,-1.02861c0.18276,-0.33911 0.46552,-0.56992 0.84827,-0.69245c0.40005,-0.11199 0.67901,-0.02511 0.83688,0.26065c0.12329,0.2647 0.06008,0.64104 -0.18962,1.12902l-1.6708,3.03616c-0.23164,0.38046 -0.42755,0.60489 -0.58772,0.6733c-0.19852,0.09247 -0.43125,0.10484 -0.69819,0.03714c-0.32557,-0.12712 -0.57145,-0.22941 -0.73762,-0.30688c-1.37901,-0.46035 -2.95253,0.15794 -4.72054,1.85487c-0.73398,0.73832 -1.41608,1.50824 -2.04631,2.30973c-0.42717,0.54586 -0.80243,0.85073 -1.12577,0.91461c-0.19476,0.04735 -0.42561,0.03717 -0.69254,-0.03053c-0.31205,-0.07147 -0.54777,-0.13203 -0.70718,-0.18168c-0.46469,-0.0933 -0.91812,-0.04936 -1.36028,0.13181c-0.45269,0.19846 -0.81216,0.47739 -1.07839,0.83679c-0.07371,0.12106 -0.179,0.29399 -0.31588,0.5188c-0.14364,0.19699 -0.27487,0.35414 -0.3937,0.47143c-0.13988,0.15188 -0.32449,0.24096 -0.55384,0.26725c-0.22935,0.02629 -0.40078,-0.04253 -0.51431,-0.20647c-0.13082,-0.17447 -0.16914,-0.42299 -0.11496,-0.74557c0.15047,-0.71433 0.51034,-1.32487 1.07963,-1.83161c0.56928,-0.50674 1.20659,-0.79428 1.91192,-0.86263c0.14588,-0.006 0.47749,-0.00558 0.99482,0.00124c0.39928,0.00606 0.72412,-0.02135 0.97453,-0.08223c0.38952,-0.0947 0.94186,-0.39842 1.65702,-0.91116l4.05184,-3.15093c1.15132,-0.83979 2.06235,-1.30438 2.7331,-1.39378c0.14588,-0.006 0.37861,-0.01838 0.69818,-0.03714c0.27446,-0.02252 0.49366,-0.09055 0.6576,-0.20408M270.48386,151.75016c0.16993,0.03235 0.3662,0.02147 0.58878,-0.03264c0.13911,-0.03382 0.33049,-0.09508 0.57413,-0.18379c0.50457,-0.16687 1.08809,-0.19087 1.75054,-0.07198c-0.02183,0.15264 -0.14103,0.32896 -0.35761,0.52895l-0.72872,0.72968c-0.47528,0.46916 -0.86783,0.7635 -1.17765,0.88302c-0.57075,0.19769 -1.02679,0.10967 -1.36813,-0.26409c-0.21288,0.70004 -0.49755,1.22599 -0.85401,1.57786c-0.48958,0.53157 -1.04453,0.70332 -1.66486,0.51526c-0.60304,-0.17753 -0.97143,-0.66257 -1.10519,-1.45514c-0.11423,-0.59104 -0.03069,-1.15649 0.2506,-1.69636c0.30235,-0.57445 0.73175,-0.92932 1.2882,-1.0646l0.49621,0.58657c-0.16017,0.06841 -0.2617,0.19623 -0.30458,0.38346c-0.06017,0.1767 -0.03688,0.33311 0.06988,0.46922l0.37561,-0.09132c0.02189,-0.6978 0.20691,-1.11849 0.55508,-1.26207c0.20529,-0.06464 0.4741,-0.01949 0.80645,0.13544c0.40151,0.19705 0.66995,0.30123 0.8053,0.31253M262.70926,150.67886c0.22858,0.09176 0.41692,0.23014 0.56504,0.41514c0.27893,0.35946 0.42551,0.78057 0.43974,1.26332c0.01423,0.48275 -0.11177,0.90383 -0.378,1.26322c0.20963,1.40766 0.30232,2.91006 0.27807,4.50718c-0.02942,0.78803 -0.25806,1.24143 -0.68593,1.36019c-0.37222,0.10523 -0.78389,-0.13356 -1.23499,-0.71637l-1.93748,-2.42412c-0.27676,0.37669 -0.3757,0.90906 -0.29682,1.5971c0.15928,1.13997 0.23704,1.73251 0.23327,1.77763c-0.01136,0.68051 -0.27236,1.30384 -0.78299,1.86999c-0.47229,0.5421 -1.05282,0.91161 -1.74163,1.10854c-1.28361,0.35627 -2.63633,0.12527 -4.05816,-0.69301c0.56162,0.67381 0.77846,1.50511 0.65052,2.4939c-0.13471,0.96097 -0.57693,1.68729 -1.32668,2.17898c-1.36714,0.92172 -3.34173,0.73878 -5.92375,-0.54885c-0.4534,-0.22864 -0.6515,-0.46779 -0.59433,-0.71742c0.03235,-0.16993 0.21923,-0.3406 0.56063,-0.51201l2.63269,-1.17047c0.5294,-0.24658 0.90051,-0.44731 1.11332,-0.60218c0.39405,-0.25787 0.68245,-0.55636 0.86521,-0.89547c0.23541,-0.42557 0.32835,-1.10382 0.27883,-2.03473l-0.08998,-2.18817c-0.0007,-0.4271 0.04633,-0.71848 0.14109,-0.87412c0.17523,-0.24887 0.44331,-0.35825 0.80424,-0.32813c0.3504,0.04741 0.63762,0.19859 0.86167,0.45352c0.28269,0.31435 0.57251,0.87006 0.86943,1.66716c0.16464,0.31358 0.38004,0.56324 0.64621,0.74901c0.27293,0.21358 0.55377,0.27791 0.84253,0.19297c-0.11359,0.38122 -0.34785,0.62971 -0.70278,0.74547c0.29246,0.41511 0.73421,0.56555 1.32525,0.45132c0.57375,-0.12476 0.98885,-0.41721 1.24532,-0.87737c0.22488,-0.40828 0.33397,-0.89891 0.32727,-1.47189c0.00906,-0.32634 -0.04314,-0.84406 -0.1566,-1.55316l-0.4407,-2.72171c-0.05335,-0.34064 -0.01873,-0.59216 0.10386,-0.75456c0.14364,-0.19699 0.35908,-0.2199 0.6463,-0.06873c0.28046,0.12335 0.46842,0.32076 0.56388,0.59222c0.05788,0.17747 0.12214,0.44178 0.19278,0.79295c0.06388,0.32334 0.17175,0.55495 0.32363,0.69484c0.1,0.10829 0.25563,0.20305 0.46692,0.28429c0.11429,0.04588 0.29099,0.10606 0.5301,0.18053c0.85568,0.30765 1.46319,0.86716 1.82252,1.67855l-0.03427,-5.95879c0.00383,-0.59028 0.13997,-0.96962 0.40844,-1.13802c0.19176,-0.12029 0.4072,-0.1432 0.6463,-0.06873M250.94697,163.74891c-0.32034,0.13682 -0.54857,0.25861 -0.68469,0.36537c-0.09776,0.0827 -0.23914,0.19811 -0.42414,0.34622c-0.17447,0.13082 -0.33126,0.21314 -0.47037,0.24696c0.0797,0.02482 0.20076,0.09853 0.36317,0.22111c0.16241,0.12259 0.28872,0.18764 0.37895,0.19517l0.23461,-0.03494c0.52863,-0.12852 0.85913,-0.2236 0.99148,-0.28525c0.11505,-0.07218 0.17784,-0.11691 0.18837,-0.1342l0.04288,-0.18723c-0.012,-0.29175 -0.06235,-0.55946 -0.15105,-0.8031c-0.097,-0.03535 -0.2534,-0.01206 -0.46922,0.06988z" fill="#c7ae57"/><path d="M313.32797,120.62578c-0.20817,0.31818 -0.30408,0.6509 -0.28773,0.99817c-0.03189,0.1167 -0.04656,0.23814 -0.04403,0.36431c0.01953,0.20152 0.10823,0.44516 0.2661,0.73092c0.04673,0.08567 0.0862,0.15712 0.11841,0.21432c-0.18074,0.06903 -0.35821,0.12691 -0.5324,0.17364c0.06363,0.13319 0.12528,0.26554 0.18494,0.39705c0.17847,-0.06181 0.3612,-0.12833 0.54819,-0.19957c0.02535,0.0633 0.04414,0.1103 0.05638,0.14099c0.03759,0.094 0.10223,0.29928 0.19393,0.61586c0.06088,0.2504 0.13605,0.4384 0.22552,0.56398c0.14434,0.23011 0.40675,0.46099 0.78721,0.69263l0.36316,0.22111c-0.29294,0.37711 -0.47459,0.81172 -0.54493,1.30381c-0.09783,0.62786 -0.00427,1.19446 0.28065,1.6998c-10.5508,8.84164 -22.75475,17.73158 -36.61186,26.66983c-10.11215,6.52495 -23.10927,14.3038 -38.99137,23.33657c-25.28879,14.39904 -38.48214,21.91621 -39.58006,22.55147c-14.96019,8.76443 -27.76674,16.87265 -38.41964,24.32469c-4.91135,3.43356 -16.3682,11.97243 -34.37057,25.61662c-13.81711,10.49921 -25.35964,18.5948 -34.62758,24.28678c-0.13869,0.09973 -0.27819,0.19258 -0.41849,0.27855c-1.21673,0.75256 -2.26688,1.25097 -3.15044,1.49525c-1.20304,0.32097 -2.23207,0.23964 -3.08708,-0.24399c1.60176,-0.31322 3.27454,-0.97774 5.01833,-1.99357c0.2996,-0.17195 0.62559,-0.37644 0.97797,-0.61347c1.06342,-0.67747 2.36815,-1.61349 3.91419,-2.80806c7.90456,-6.10651 17.53523,-13.88463 28.89202,-23.33435c4.40934,-3.65096 9.07373,-7.55489 13.99315,-11.71178c21.3573,-18.02538 35.53884,-29.87136 42.5446,-35.53795c16.12695,-13.05563 30.82046,-24.0684 44.08053,-33.03831c9.61553,-6.5062 19.09146,-12.37553 28.42778,-17.60798c-0.00491,0.02479 -0.00679,0.04735 -0.00565,0.06767c0.12151,-0.08704 0.2471,-0.1765 0.37675,-0.2684c2.04487,-1.14549 4.08691,-2.26076 6.1261,-3.34581c-0.18333,-0.15422 -0.35062,-0.32719 -0.50186,-0.5189c5.14948,-3.36524 10.38637,-6.3991 15.71067,-9.10158c4.43147,-2.25607 11.21548,-5.31983 20.35205,-9.19128l9.81899,-4.15523c3.10342,-1.33073 5.74211,-2.35532 7.91607,-3.07378M262.06296,150.74759c-0.26847,0.1684 -0.40461,0.54774 -0.40844,1.13802l0.03427,5.95879c-0.35933,-0.81139 -0.96684,-1.37091 -1.82252,-1.67855c-0.23911,-0.07447 -0.41581,-0.13464 -0.5301,-0.18053c-0.21129,-0.08123 -0.36693,-0.17599 -0.46692,-0.28429c-0.15188,-0.13988 -0.25975,-0.37149 -0.32363,-0.69484c-0.07064,-0.35116 -0.1349,-0.61548 -0.19278,-0.79295c-0.09547,-0.27146 -0.28342,-0.46887 -0.56388,-0.59222c-0.28723,-0.15117 -0.50266,-0.12826 -0.6463,0.06873c-0.12259,0.16241 -0.15721,0.41392 -0.10386,0.75456l0.4407,2.72171c0.11346,0.70909 0.16566,1.22682 0.1566,1.55316c0.0067,0.57298 -0.10239,1.06361 -0.32727,1.47189c-0.25647,0.46016 -0.67157,0.75262 -1.24532,0.87737c-0.59104,0.11423 -1.03279,-0.03621 -1.32525,-0.45132c0.35493,-0.11576 0.58919,-0.36425 0.70278,-0.74547c-0.28876,0.08494 -0.5696,0.02061 -0.84253,-0.19297c-0.26617,-0.18576 -0.48157,-0.43543 -0.64621,-0.74901c-0.29692,-0.7971 -0.58674,-1.35281 -0.86943,-1.66716c-0.22405,-0.25494 -0.51127,-0.40611 -0.86167,-0.45352c-0.36093,-0.03012 -0.62901,0.07926 -0.80424,0.32813c-0.09476,0.15564 -0.1418,0.44701 -0.14109,0.87412l0.08998,2.18817c0.04952,0.93091 -0.04343,1.60916 -0.27883,2.03473c-0.18276,0.33911 -0.47116,0.63759 -0.86521,0.89547c-0.21282,0.15487 -0.58393,0.3556 -1.11332,0.60218l-2.63269,1.17047c-0.3414,0.1714 -0.52828,0.34207 -0.56063,0.51201c-0.05718,0.24964 0.14093,0.48878 0.59433,0.71742c2.58202,1.28763 4.55661,1.47058 5.92375,0.54885c0.74975,-0.49169 1.19197,-1.21801 1.32668,-2.17898c0.12794,-0.98879 -0.08889,-1.82009 -0.65052,-2.4939c1.42183,0.81828 2.77455,1.04929 4.05816,0.69301c0.6888,-0.19693 1.26934,-0.56644 1.74163,-1.10854c0.51064,-0.56615 0.77163,-1.18948 0.78299,-1.86999c0.00377,-0.04512 -0.07399,-0.63766 -0.23327,-1.77763c-0.07888,-0.68804 0.02006,-1.2204 0.29682,-1.5971l1.93748,2.42412c0.4511,0.58281 0.86277,0.8216 1.23499,0.71637c0.42787,-0.11876 0.65651,-0.57215 0.68593,-1.36019c0.02425,-1.59713 -0.06845,-3.09952 -0.27807,-4.50718c0.26623,-0.3594 0.39223,-0.78047 0.378,-1.26322c-0.01423,-0.48275 -0.16081,-0.90385 -0.43974,-1.26332c-0.14811,-0.185 -0.33646,-0.32338 -0.56504,-0.41514c-0.23911,-0.07447 -0.45454,-0.05156 -0.6463,0.06873M269.67857,151.43763c-0.33234,-0.15494 -0.60116,-0.20008 -0.80645,-0.13544c-0.34817,0.14358 -0.53319,0.56427 -0.55508,1.26207l-0.37561,0.09132c-0.10676,-0.13611 -0.13005,-0.29252 -0.06988,-0.46922c0.04288,-0.18723 0.14441,-0.31505 0.30458,-0.38346l-0.49621,-0.58657c-0.55646,0.13529 -0.98586,0.49015 -1.2882,1.0646c-0.28129,0.53987 -0.36482,1.10532 -0.2506,1.69636c0.13376,0.79257 0.50215,1.27761 1.10519,1.45514c0.62033,0.18806 1.17528,0.0163 1.66486,-0.51526c0.35646,-0.35187 0.64113,-0.87782 0.85401,-1.57786c0.34134,0.37376 0.79738,0.46179 1.36813,0.26409c0.30981,-0.11952 0.70237,-0.41386 1.17765,-0.88302l0.72872,-0.72968c0.21658,-0.19999 0.33578,-0.37631 0.35761,-0.52895c-0.66245,-0.11888 -1.24596,-0.09489 -1.75054,0.07198c-0.24364,0.0887 -0.43502,0.14996 -0.57413,0.18379c-0.22258,0.05411 -0.41884,0.065 -0.58878,0.03264c-0.13535,-0.0113 -0.40378,-0.11547 -0.8053,-0.31253M239.51481,170.08647c-0.31958,0.01876 -0.55231,0.03115 -0.69818,0.03714c-0.67075,0.0894 -1.58178,0.554 -2.7331,1.39378l-4.05184,3.15093c-0.71516,0.51275 -1.2675,0.81646 -1.65702,0.91116c-0.2504,0.06088 -0.57525,0.08829 -0.97453,0.08223c-0.51733,-0.00683 -0.84894,-0.00724 -0.99482,-0.00124c-0.70533,0.06835 -1.34264,0.35589 -1.91192,0.86263c-0.56928,0.50674 -0.92915,1.11728 -1.07963,1.83161c-0.05418,0.32258 -0.01586,0.5711 0.11496,0.74557c0.11352,0.16394 0.28496,0.23276 0.51431,0.20647c0.22935,-0.02629 0.41396,-0.11538 0.55384,-0.26725c0.11882,-0.11729 0.25005,-0.27444 0.3937,-0.47143c0.13688,-0.22481 0.24217,-0.39775 0.31588,-0.5188c0.26623,-0.3594 0.62569,-0.63833 1.07839,-0.83679c0.44216,-0.18117 0.8956,-0.2251 1.36028,-0.13181c0.15941,0.04964 0.39513,0.11021 0.70718,0.18168c0.26693,0.06771 0.49778,0.07789 0.69254,0.03053c0.32334,-0.06388 0.6986,-0.36875 1.12577,-0.91461c0.63022,-0.8015 1.31233,-1.57141 2.04631,-2.30973c1.76801,-1.69693 3.34153,-2.31522 4.72054,-1.85487c0.16617,0.07747 0.41205,0.17976 0.73762,0.30688c0.26693,0.06771 0.49966,0.05533 0.69819,-0.03714c0.16017,-0.06841 0.35608,-0.29284 0.58772,-0.6733l1.6708,-3.03616c0.2497,-0.48798 0.31291,-0.86433 0.18962,-1.12902c-0.15788,-0.28576 -0.43683,-0.37264 -0.83688,-0.26065c-0.38275,0.12252 -0.66551,0.35334 -0.84827,0.69245c-0.10906,0.21805 -0.2467,0.56092 -0.41294,1.02861c-0.18653,0.38422 -0.40349,0.64324 -0.6509,0.77706c-0.16394,0.11352 -0.38314,0.18155 -0.6576,0.20408M291.0332,143.46123c-0.18716,-0.58804 -0.51609,-1.00165 -0.98678,-1.24082c-0.12106,-0.07371 -0.5786,-0.1982 -1.37263,-0.3735c-0.80756,-0.23094 -1.41963,-0.35471 -1.83621,-0.3713c-0.7775,-0.04671 -1.73589,0.22312 -2.87515,0.80951c-0.56775,0.27064 -1.07497,0.57812 -1.52166,0.92246c-0.90768,0.75109 -1.42024,1.61238 -1.53765,2.58388c-0.03465,0.5241 0.05064,1.02641 0.25586,1.50693c0.25034,0.48428 0.59695,0.84939 1.03981,1.09533c0.40828,0.22488 1.08464,0.34038 2.02908,0.3465l2.09905,-0.00201c0.64592,-0.0097 1.14296,-0.08634 1.49113,-0.22992c0.28199,-0.11276 0.67604,-0.37063 1.18215,-0.77361c1.07915,-0.95484 1.74284,-1.83078 1.99108,-2.62781c0.19106,-0.54739 0.20503,-1.09593 0.04192,-1.64562M288.91826,144.30692c-0.18806,0.62033 -0.56258,1.07972 -1.12356,1.37818c-0.61663,0.31199 -1.51822,0.39121 -2.70477,0.23768c-0.71809,-0.10536 -1.21699,-0.27874 -1.49668,-0.52014c0.62569,-0.63833 1.51643,-1.18639 2.67222,-1.64419c0.34817,-0.14358 0.65421,-0.21799 0.91815,-0.22322l0.81209,0.06777c0.10076,-0.00976 0.2519,-0.02441 0.45343,-0.04394c0.15641,-0.02329 0.28122,0.0053 0.37446,0.08577c0.16241,0.12259 0.19397,0.34328 0.09467,0.6621M251.52435,164.66936c-0.01053,0.01729 -0.07332,0.06203 -0.18837,0.1342c-0.13235,0.06165 -0.46284,0.15673 -0.99148,0.28525l-0.23461,0.03494c-0.09023,-0.00753 -0.21655,-0.07259 -0.37895,-0.19517c-0.16241,-0.12259 -0.28346,-0.19629 -0.36317,-0.22111c0.13911,-0.03382 0.29591,-0.11614 0.47037,-0.24696c0.185,-0.14811 0.32637,-0.26352 0.42414,-0.34622c0.13611,-0.10676 0.36434,-0.22855 0.68469,-0.36537c0.21582,-0.08194 0.37222,-0.10523 0.46922,-0.06988c0.0887,0.24364 0.13905,0.51134 0.15105,0.8031z" fill="#8a6040"/><path d="M390.52229,83.89062l-6.69735,7.90478c-1.63044,1.89922 -2.80062,3.23717 -3.51054,4.01385c-0.5766,0.61868 -1.13761,1.18972 -1.68305,1.71311c-0.88737,0.73734 -2.12669,1.76059 -3.71797,3.06975c-0.64215,0.50979 -1.28249,0.99698 -1.92101,1.46156c-2.09084,1.35177 -4.46186,2.59859 -7.11307,3.74047c-2.17675,0.9276 -5.20307,2.02433 -9.07897,3.2902c-1.6881,0.19148 -3.34614,0.1894 -4.97411,-0.00622l-0.17144,-0.06882c3.28115,-5.69642 8.91078,-10.6601 16.88888,-14.89104c-0.53087,-0.06247 -1.108,0.04837 -1.73139,0.33253c-0.3414,0.1714 -0.86442,0.50483 -1.56905,1.00028c-0.8791,0.62627 -2.32594,1.52317 -4.34053,2.69071c-1.92059,1.12995 -3.36405,2.04076 -4.33038,2.73244c-2.68913,2.00502 -4.42713,4.15876 -5.21398,6.46123c-0.14265,-0.29343 -0.32834,-0.57242 -0.55709,-0.83698c-0.39186,-0.43359 -0.87231,-0.77352 -1.44136,-1.0198c2.58398,-3.46352 6.0211,-6.5976 10.31137,-9.40224c3.46973,-2.27273 7.82111,-4.49459 13.05414,-6.6656c6.19434,-2.56092 12.44813,-4.71489 18.76137,-6.46191c-0.3041,0.22754 -0.62559,0.54144 -0.96448,0.9417M361.46257,104.17169l-3.79895,1.10041c-1.69119,0.5585 -3.14703,1.23658 -4.36753,2.03425c-0.32787,0.22705 -0.54972,0.43569 -0.66554,0.62592c-0.21058,0.34587 -0.19332,0.62898 0.05179,0.84933c0.18946,0.23388 0.54512,0.27265 1.06699,0.1163c0.5151,-0.18417 1.137,-0.5048 1.86569,-0.9619c1.0355,-0.64956 1.62996,-1.02246 1.78337,-1.11869c0.22635,-0.09923 0.56248,-0.26198 1.00841,-0.48827c0.37976,-0.19546 0.69522,-0.38266 0.94639,-0.56159c0.2617,-0.19623 0.65952,-0.49922 1.19344,-0.90896c0.32411,-0.18193 0.86515,-0.3503 1.62312,-0.50512c0.73015,-0.14805 1.25917,-0.3356 1.58705,-0.56264l-0.05408,-0.49516c-0.44293,0.29922 -1.18964,0.59126 -2.24014,0.87613z" fill="#b67828"/></g></g></svg>