<svg version="1.1" xmlns="http://www.w3.org/2000/svg" xmlns:xlink="http://www.w3.org/1999/xlink" width="194.12137" height="117.54885" viewBox="0,0,194.12137,117.54885"><g transform="translate(-147.93933,-124.47558)"><g data-paper-data="{&quot;isPaintingLayer&quot;:true}" fill-rule="nonzero" stroke-width="1" stroke-miterlimit="10" stroke-dasharray="" stroke-dashoffset="0" style="mix-blend-mode: normal"><g stroke="none" stroke-linecap="butt" stroke-linejoin="miter"><path d="M241.11448,227.11472c-0.82516,-0.49031 -1.65032,-0.98063 -2.47548,-1.47094c-1.88474,-1.13498 -3.7648,-2.28812 -5.64016,-3.45942c-2.76616,-1.72517 -5.4995,-3.50935 -8.20003,-5.35257c-2.85993,-1.94309 -5.67298,-3.96335 -8.43915,-6.06079c-2.64426,-1.99756 -5.21351,-4.05868 -7.70776,-6.18337c-2.55049,-2.161 -5.00253,-4.38103 -7.35612,-6.66006c-2.11916,-2.06112 -4.17268,-4.19943 -6.16058,-6.41491c-2.28795,-2.56051 -4.46337,-5.23452 -6.52627,-8.02204c-1.83786,-2.49696 -3.62883,-5.03477 -5.37292,-7.61345c-1.03144,-1.50725 -2.03946,-3.03266 -3.02402,-4.57624c-0.02813,-0.03632 -0.05627,-0.07263 -0.0844,-0.10896c0.0844,-0.05448 0.16878,-0.10896 0.25318,-0.16343c-0.10315,-0.12712 -0.28131,-0.35411 -0.53447,-0.68099c-0.28131,-0.35411 -0.60012,-0.81719 -0.95643,-1.38921c-0.49096,-0.78101 -0.98325,-1.59366 -1.47685,-2.43793c-0.40631,-0.68648 -0.8142,-1.39471 -1.22368,-2.12469c-0.15388,-0.27903 -0.30859,-0.5605 -0.46416,-0.84442c-0.41258,-0.76271 -0.76422,-1.44824 -1.05489,-2.05658c-0.23442,-0.48123 -0.43134,-0.91706 -0.59074,-1.30749c-0.02813,-0.05448 -0.04689,-0.10896 -0.05627,-0.16343c-0.07501,-0.20884 -0.10315,-0.3859 -0.0844,-0.53116c0.02813,-0.12712 0.08908,-0.24515 0.18285,-0.35411c0.09377,-0.09988 0.2016,-0.14981 0.32349,-0.14981c0.13128,0.19068 0.26255,0.39952 0.39383,0.62651c0.25318,0.4086 0.53917,0.88983 0.85799,1.44369c0.05627,0.11804 0.11721,0.24515 0.18285,0.38135l1.0127,1.87953c0.1183,0.2165 0.23083,0.42533 0.33756,0.62651c0.4673,0.83875 0.88926,1.5833 1.26587,2.23365c0.47056,0.81534 0.87845,1.49179 1.22368,2.02935l0.71733,1.06234c0.31881,0.49031 0.62355,0.98516 0.91424,1.48455c0.22505,0.39043 0.44071,0.78541 0.64701,1.18493c0.05627,0.12712 0.09846,0.23608 0.12658,0.32688c1.07833,1.66161 2.18011,3.3096 3.30533,4.94397c1.88474,2.76027 3.84451,5.44791 5.87926,8.06289c1.8191,2.33351 3.69916,4.61256 5.64016,6.83712c2.23169,2.54236 4.59934,4.97121 7.10294,7.28657c2.41922,2.23365 4.92283,4.3901 7.51084,6.46938c2.31607,1.85229 4.68372,3.65464 7.10294,5.40704c2.64426,1.8886 5.34479,3.73182 8.10159,5.52962c2.7943,1.83413 5.60265,3.63194 8.42508,5.39342c1.87536,1.18038 3.76011,2.34713 5.65423,3.50027c0.94707,0.58111 1.89881,1.15768 2.85524,1.72971c2.99121,1.82505 5.98241,3.66825 8.97362,5.52962c1.11585,0.69007 2.2223,1.38467 3.3194,2.08382c-0.37507,-0.01817 -0.75015,-0.03179 -1.12522,-0.04087c-1.66908,-0.92614 -3.34752,-1.87045 -5.03536,-2.83291c-2.91619,-1.67068 -5.82302,-3.35501 -8.72045,-5.05293M292.4104,178.64202c-0.29068,-0.32688 -0.47822,-0.70823 -0.56261,-1.14406c-0.0375,-0.15436 -0.06095,-0.31325 -0.07033,-0.47669c-2.31607,-2.76027 -5.16663,-4.82139 -8.55166,-6.18337l0.14065,-0.32688c3.77885,1.08051 6.81226,3.20972 9.10021,6.38766c0.39383,0.55386 0.60481,1.194 0.63294,1.92039l-0.6892,-0.17705M288.07831,179.96314c-0.00938,0.06356 -0.02813,0.12712 -0.05627,0.19068c-0.00938,0.04541 -0.02344,0.0908 -0.0422,0.1362c-0.02813,0.03632 -0.05627,0.07263 -0.0844,0.10896c-0.0375,0.04541 -0.07033,0.0908 -0.09846,0.1362l-4.51494,-1.55266c1.91288,1.97032 1.90818,3.70912 -0.01407,5.21637c-0.18754,0.14527 -0.41258,0.21792 -0.67513,0.21792c-3.10373,0.04541 -5.11037,-1.35744 -6.01993,-4.2085c1.70658,2.46063 3.97577,3.4004 6.80757,2.81929c0.30006,-0.0908 0.39852,-0.28148 0.29537,-0.57203c-0.8908,-2.56959 -2.50362,-4.61709 -4.83844,-6.14251c0.22505,-0.0908 0.45009,-0.17251 0.67513,-0.24515c0.57198,0.02724 1.04551,0.21338 1.42059,0.55841c0.13128,0.11804 0.27193,0.23608 0.42196,0.35411c1.79097,1.59805 3.91014,2.41524 6.35749,2.45156c0.07501,0 0.15471,-0.00908 0.23911,-0.02724c0.0375,0.0908 0.07033,0.1816 0.09846,0.2724c0.00938,0.04541 0.01876,0.09533 0.02813,0.14981c0,0.03632 0,0.08172 0,0.1362M292.48073,169.62574c-1.09709,-0.28148 -2.17073,-0.64013 -3.22093,-1.07596c-0.38445,-0.16343 -0.76422,-0.33142 -1.13928,-0.50393l0.14065,-0.25878l4.90876,1.38921l2.15199,-0.65374c-1.19086,-0.93522 -2.52705,-1.71155 -4.0086,-2.32898c-2.3067,-0.97155 -4.66966,-1.83867 -7.08889,-2.60138l0.11251,-0.31325c1.3315,0.07263 2.62083,0.34957 3.86794,0.83081c2.83181,1.13498 5.42449,2.56051 7.77807,4.2766c0.06563,0.04541 0.0375,0.13167 -0.0844,0.25878c-0.99394,1.00786 -2.13322,1.33474 -3.41785,0.98063M249.66615,125.51135c0.25318,0.3178 0.51573,0.64013 0.78765,0.96701c0.86266,1.00786 1.72533,2.0021 2.58799,2.98273c0.06563,0.08172 0.13128,0.16343 0.19691,0.24515c0.93307,1.05804 1.86606,2.09769 2.79897,3.11892c0.49236,0.54149 0.98464,1.07721 1.47685,1.60713c0.00938,0.00908 0.02344,0.01817 0.0422,0.02724c0.09377,-0.03632 0.18754,-0.07263 0.28131,-0.10896c2.23169,2.44248 4.58996,4.74876 7.07482,6.91884c2.40985,2.09745 4.87126,4.13587 7.38425,6.11527c6.07618,4.77599 12.29771,9.36586 18.66457,13.76957c2.70053,1.86136 5.43387,3.65917 8.20003,5.39342c2.7568,1.72517 5.55577,3.4004 8.39695,5.02569c2.43797,1.39829 4.8947,2.74664 7.37018,4.04506c2.24106,1.18038 4.50087,2.32898 6.77945,3.4458c1.73472,0.86259 3.46943,1.71609 5.20414,2.56051c0.22505,0.09988 0.45009,0.2043 0.67513,0.31325c1.18148,0.56295 2.36765,1.1259 3.5585,1.68885c-0.06563,0.37228 -0.1219,0.74001 -0.16878,1.1032c-0.43134,-0.16343 -0.86266,-0.33594 -1.294,-0.51755c-0.9752,-0.39952 -1.9457,-0.79903 -2.91151,-1.19854c-2.82242,-1.20762 -5.60265,-2.49242 -8.34068,-3.85438c-2.36297,-1.18038 -4.70717,-2.37891 -7.03262,-3.59562c-2.52237,-1.31657 -5.02598,-2.68763 -7.51084,-4.11317c-3.10373,-1.77056 -6.15589,-3.60924 -9.15646,-5.516c-2.71928,-1.73425 -5.41512,-3.50482 -8.08752,-5.3117c-7.81089,-5.28446 -15.29829,-10.95483 -22.46218,-17.01107c-2.91619,-2.4788 -5.67298,-5.11195 -8.27037,-7.89946c-0.02813,-0.02724 -0.05627,-0.04993 -0.0844,-0.0681c-0.11251,-0.12712 -0.22036,-0.24969 -0.32349,-0.36773c0.07501,-0.03632 0.14535,-0.0681 0.21098,-0.09533c-0.42093,-0.45651 -0.82413,-0.89235 -1.20961,-1.30749c-1.09911,-1.20844 -2.03209,-2.24807 -2.79897,-3.11892c-0.33756,-0.38135 -0.64232,-0.72639 -0.91424,-1.0351c-0.07501,-0.0908 -0.15002,-0.17705 -0.22505,-0.25878c-0.65637,-0.76271 -1.15805,-1.38467 -1.50498,-1.8659c-0.0375,-0.05448 -0.07501,-0.10896 -0.11251,-0.16343c-0.25318,-0.35411 -0.47353,-0.69915 -0.66107,-1.0351c-0.15941,-0.28148 -0.29537,-0.56295 -0.40789,-0.84442c-0.20629,-0.47215 -0.17347,-0.80357 0.09846,-0.99425c0.16878,-0.09988 0.36569,-0.10896 0.59074,-0.02724c0.28131,0.09988 0.59074,0.36319 0.9283,0.78995c0.04689,0.06356 0.10315,0.12712 0.16878,0.19068M149.02936,172.7038l0.01407,0.01362c0.82952,1.32845 1.62187,2.69044 2.37703,4.08593c0.35536,0.66173 0.7023,1.32909 1.04083,2.0021c0.33756,0.68099 0.56731,1.13952 0.6892,1.3756c0.25318,0.44491 0.6095,1.00786 1.06896,1.68885c0.18754,0.29055 0.39383,0.59927 0.61887,0.92614c0.80641,1.17131 1.3737,2.0475 1.7019,2.62861c0.04689,0.07263 0.14065,0.25878 0.28131,0.55841c0.02813,-0.02724 0.05157,-0.04087 0.07033,-0.04087c0.69389,1.08958 1.40653,2.161 2.13792,3.21426c3.05684,4.44004 6.33873,8.70303 9.84566,12.78896c1.60344,1.87045 3.24907,3.67279 4.9369,5.40704c1.50028,1.55266 3.01933,3.05536 4.55714,4.50815c0.22505,0.227 0.45946,0.44945 0.70326,0.66736c2.60676,2.43339 5.31666,4.77599 8.1297,7.02779c2.28795,1.82505 4.64153,3.582 7.06075,5.27085c0.45009,0.29963 0.90018,0.60381 1.35026,0.91252c0.0375,0.02724 0.07501,0.05448 0.11251,0.08172c3.00995,2.0248 6.09962,3.98605 9.269,5.88373c0.52511,0.3178 1.05489,0.63559 1.58937,0.95338c0.11251,0.07263 0.22974,0.14981 0.35163,0.23154c-0.81579,-0.06356 -1.51435,-0.1135 -2.09572,-0.14981c-0.13128,-0.07263 -0.25786,-0.14074 -0.37976,-0.2043c-1.8191,-1.02602 -3.61007,-2.07928 -5.37292,-3.15979c-1.89411,-1.14406 -3.76948,-2.31082 -5.6261,-3.50027c-0.90018,-0.57203 -1.79566,-1.14861 -2.68646,-1.72971c-0.68451,-0.45399 -1.36433,-0.91252 -2.03946,-1.3756c-1.83786,-1.27118 -3.61946,-2.58776 -5.34479,-3.94974c-2.62552,-2.06112 -5.14319,-4.23575 -7.55303,-6.52386c-0.00938,-0.00908 -0.01876,-0.01817 -0.02813,-0.02724c-2.52237,-2.36983 -4.91345,-4.82139 -7.17327,-7.35467c-2.23169,-2.51512 -4.36022,-5.13465 -6.38562,-7.8586c-2.04414,-2.71487 -3.98046,-5.52054 -5.80895,-8.41702c-0.38445,-0.61743 -0.76422,-1.23486 -1.13928,-1.85229c0.02813,-0.01817 0.06095,-0.03632 0.09846,-0.05448c-0.28131,-0.4994 -0.50166,-0.89891 -0.66107,-1.19854c-0.30006,-0.51755 -0.85799,-1.38013 -1.67376,-2.58776c-0.14065,-0.19975 -0.27661,-0.39498 -0.40789,-0.58565c-0.52511,-0.81719 -0.933,-1.48909 -1.22368,-2.01572c-0.32288,-0.60842 -0.74015,-1.53457 -1.2518,-2.77843c-0.036,-0.09438 -0.07351,-0.18973 -0.11251,-0.28601l-0.88611,-2.22002c-0.57026,-1.42784 -0.95941,-2.53558 -1.16741,-3.32322c-0.02472,-0.11428 -0.04817,-0.22324 -0.07033,-0.32688c-0.01876,-0.1362 0,-0.227 0.05627,-0.2724c0.10289,0.14159 0.20135,0.28687 0.29537,0.43583c0.07329,0.10668 0.14361,0.21565 0.21098,0.32688c0.16878,0.25423 0.34226,0.5221 0.52041,0.80357M331.55397,184.96158c-0.19691,-0.08172 -0.38914,-0.15889 -0.57667,-0.23154c0.04689,-0.36319 0.10315,-0.73092 0.16878,-1.1032c0.16878,0.0908 0.33756,0.17705 0.50635,0.25878c1.58468,0.74454 3.17406,1.49363 4.76812,2.24726c1.84723,0.86259 3.72729,1.72517 5.64016,2.58776c-0.61887,-0.19975 -1.22836,-0.40405 -1.82848,-0.6129c-2.91619,-0.98971 -5.80895,-2.03842 -8.67826,-3.14616M206.93596,232.88951c2.16605,1.29842 4.32741,2.61046 6.48407,3.93612l3.00995,1.81143c-2.82242,-1.26209 -5.56984,-2.615 -8.24223,-4.05868c-1.12522,-0.59927 -2.24106,-1.21215 -3.34752,-1.83867c0.58137,0.03632 1.27994,0.08626 2.09572,0.14981M257.17698,236.29444c-0.7689,-0.42674 -1.52842,-0.85351 -2.27857,-1.28026c-0.00938,0 -0.01876,-0.00454 -0.02813,-0.01362c0.37507,0.00908 0.75015,0.0227 1.12522,0.04087c0.01876,0.00908 0.0375,0.02724 0.05627,0.05448c1.44404,0.90797 2.874,1.83867 4.2899,2.79205c0.45009,0.30872 0.90487,0.61743 1.36433,0.92614z" fill="#000000"/><path d="M249.4833,234.8235c-5.53233,-0.19975 -11.79136,-0.45853 -18.7771,-0.77633c-11.4116,-0.51755 -19.33502,-0.90345 -23.77025,-1.15768c-0.1219,-0.08172 -0.23911,-0.15889 -0.35163,-0.23154c-0.53447,-0.3178 -1.06428,-0.63559 -1.58937,-0.95338c-3.16937,-1.89769 -6.25903,-3.85893 -9.269,-5.88373c-0.0375,-0.02724 -0.07501,-0.05448 -0.11251,-0.08172c-0.45009,-0.30872 -0.90018,-0.6129 -1.35026,-0.91252c-2.41922,-1.68885 -4.77281,-3.4458 -7.06075,-5.27085c-2.81304,-2.2518 -5.52295,-4.5944 -8.1297,-7.02779c-0.24379,-0.21792 -0.47822,-0.44037 -0.70326,-0.66736c-1.5378,-1.45277 -3.05684,-2.95549 -4.55714,-4.50815c-1.68783,-1.73425 -3.33347,-3.5366 -4.9369,-5.40704c-3.50693,-4.08593 -6.78883,-8.34891 -9.84566,-12.78896c-0.73139,-1.05326 -1.44404,-2.12469 -2.13792,-3.21426c-0.01876,0 -0.0422,0.01362 -0.07033,0.04087c-0.14065,-0.29963 -0.23442,-0.48578 -0.28131,-0.55841c-0.32819,-0.58111 -0.89549,-1.45732 -1.7019,-2.62861c-0.22505,-0.32688 -0.43134,-0.63559 -0.61887,-0.92614c-0.45946,-0.68099 -0.81579,-1.24394 -1.06896,-1.68885c-0.1219,-0.23608 -0.35163,-0.69461 -0.6892,-1.3756c-0.33852,-0.67301 -0.68547,-1.34038 -1.04083,-2.0021c-0.75517,-1.3955 -1.5475,-2.75746 -2.37703,-4.08593c3.24745,-1.34853 7.37326,-3.14634 12.37741,-5.39342c2.50725,-1.12022 5.23589,-2.35509 8.18597,-3.70457c1.67845,-0.72639 3.36628,-1.43462 5.06349,-2.12469c0.29068,0.60835 0.64232,1.29387 1.05489,2.05658c0.15556,0.28392 0.31028,0.5654 0.46416,0.84442c0.40947,0.72997 0.81736,1.4382 1.22368,2.12469c0.4936,0.84429 0.98589,1.65693 1.47685,2.43793c0.35633,0.57203 0.67513,1.0351 0.95643,1.38921c0.25318,0.32688 0.43134,0.55386 0.53447,0.68099c-0.0844,0.05448 -0.16878,0.10896 -0.25318,0.16343c0.02813,0.03632 0.05627,0.07263 0.0844,0.10896c0.98457,1.54357 1.99258,3.06899 3.02402,4.57624c1.7441,2.57868 3.53506,5.11649 5.37292,7.61345c2.0629,2.78751 4.23833,5.46152 6.52627,8.02204c1.98789,2.21548 4.04142,4.35378 6.16058,6.41491c2.35358,2.27904 4.80562,4.49906 7.35612,6.66006c2.49424,2.12469 5.06349,4.1858 7.70776,6.18337c2.76616,2.09745 5.57921,4.11771 8.43915,6.06079c2.70053,1.84321 5.43387,3.6274 8.20003,5.35257c1.87536,1.17131 3.75542,2.32444 5.64016,3.45942c0.82516,0.49031 1.65032,0.98063 2.47548,1.47094c2.89744,1.69793 5.80425,3.38223 8.72045,5.05293z" fill="#cccccc"/><path d="M251.7056,130.75496c0.76688,0.87085 1.69988,1.91049 2.79897,3.11892c0.38547,0.41516 0.78869,0.85099 1.20961,1.30749c-0.06563,0.02724 -0.13597,0.05901 -0.21098,0.09533c0.10315,0.11804 0.21098,0.24061 0.32349,0.36773c0.02813,0.01817 0.05627,0.04087 0.0844,0.0681c2.59738,2.78751 5.35417,5.42067 8.27037,7.89946c7.1639,6.05625 14.65129,11.72662 22.46218,17.01107c2.6724,1.80688 5.36823,3.57745 8.08752,5.3117c3.00059,1.90677 6.05274,3.74544 9.15646,5.516c2.48486,1.42554 4.98846,2.7966 7.51084,4.11317c2.32546,1.2167 4.66966,2.41524 7.03262,3.59562c2.73803,1.36198 5.51827,2.64677 8.34068,3.85438c0.96581,0.39952 1.93631,0.79903 2.91151,1.19854c0.43134,0.1816 0.86266,0.35411 1.294,0.51755c-0.49697,3.21426 -0.86735,6.06533 -1.11116,8.55321c-0.68451,7.12767 -1.44872,17.00653 -2.29264,29.6366c-0.29068,4.29477 -0.54854,7.8813 -0.77359,10.75961c-2.86931,0.04541 -7.31861,0.28601 -13.34791,0.72184c-6.74194,0.48123 -12.3821,0.72184 -16.92048,0.72184c-16.82202,0.1362 -25.25648,0.2043 -25.30337,0.2043c-3.93826,0 -9.01582,-0.09533 -15.23265,-0.28601c-1.09709,-0.69915 -2.20356,-1.39375 -3.3194,-2.08382c-2.99121,-1.86136 -5.98241,-3.70457 -8.97362,-5.52962c-0.95643,-0.57203 -1.90818,-1.14861 -2.85524,-1.72971c-1.89411,-1.15314 -3.77885,-2.3199 -5.65423,-3.50027c-2.82242,-1.76148 -5.63078,-3.55931 -8.42508,-5.39342c-2.7568,-1.7978 -5.4573,-3.64102 -8.10159,-5.52962c-2.41922,-1.75241 -4.78687,-3.55476 -7.10294,-5.40704c-2.58799,-2.07928 -5.09161,-4.23575 -7.51084,-6.46938c-2.50362,-2.31536 -4.87126,-4.74421 -7.10294,-7.28657c-1.94101,-2.22457 -3.82105,-4.5036 -5.64016,-6.83712c-2.03478,-2.615 -3.99453,-5.30262 -5.87926,-8.06289c-1.12522,-1.63437 -2.227,-3.28236 -3.30533,-4.94397c-0.02813,-0.0908 -0.07033,-0.19975 -0.12658,-0.32688c-0.20629,-0.39952 -0.42196,-0.79449 -0.64701,-1.18493c-0.29068,-0.4994 -0.59543,-0.99425 -0.91424,-1.48455l-0.71733,-1.06234c-0.34523,-0.53756 -0.75311,-1.214 -1.22368,-2.02935c-0.37661,-0.65034 -0.79856,-1.39489 -1.26587,-2.23365c-0.10673,-0.20117 -0.21926,-0.41001 -0.33756,-0.62651l-1.0127,-1.87953l-0.12658,-0.4086c5.1248,-2.09174 10.25392,-4.01212 15.38737,-5.76115c1.33272,-0.45137 2.66422,-0.89173 3.99453,-1.32112c8.80484,-2.82382 19.49912,-7.54081 32.08281,-14.15093c8.50478,-4.46728 15.74838,-8.58953 21.73079,-12.36674c0.0375,0.05448 0.07501,0.10896 0.11251,0.16343c0.34694,0.48123 0.8486,1.1032 1.50498,1.8659c0.07501,0.08172 0.15002,0.16798 0.22505,0.25878c0.27193,0.30872 0.57667,0.65374 0.91424,1.0351M295.89858,168.64512c0.1219,-0.12712 0.15002,-0.21338 0.0844,-0.25878c-2.35358,-1.71609 -4.94627,-3.14162 -7.77807,-4.2766c-1.24712,-0.48123 -2.53643,-0.75816 -3.86794,-0.83081l-0.11251,0.31325c2.41922,0.76271 4.78218,1.62983 7.08889,2.60138c1.48154,0.61743 2.81774,1.39375 4.0086,2.32898l-2.15199,0.65374l-4.90876,-1.38921l-0.14065,0.25878c0.37507,0.17251 0.75483,0.34049 1.13928,0.50393c1.05021,0.43583 2.12386,0.79449 3.22093,1.07596c1.28462,0.35411 2.42391,0.02724 3.41785,-0.98063M288.07831,179.82694c-0.00938,-0.05448 -0.01876,-0.10442 -0.02813,-0.14981c-0.02813,-0.0908 -0.06095,-0.1816 -0.09846,-0.2724c-0.0844,0.01817 -0.16409,0.02724 -0.23911,0.02724c-2.44735,-0.03632 -4.5665,-0.85351 -6.35749,-2.45156c-0.15002,-0.11804 -0.29068,-0.23608 -0.42196,-0.35411c-0.37507,-0.34503 -0.8486,-0.53116 -1.42059,-0.55841c-0.22505,0.07263 -0.45009,0.15436 -0.67513,0.24515c2.33484,1.52542 3.94764,3.57291 4.83844,6.14251c0.10315,0.29055 0.00469,0.48123 -0.29537,0.57203c-2.83181,0.58111 -5.101,-0.35865 -6.80757,-2.81929c0.90954,2.85107 2.91619,4.2539 6.01993,4.2085c0.26255,0 0.48759,-0.07263 0.67513,-0.21792c1.92224,-1.50725 1.92694,-3.24604 0.01407,-5.21637l4.51494,1.55266c0.02813,-0.04541 0.06095,-0.0908 0.09846,-0.1362c0.02813,-0.03632 0.05627,-0.07263 0.0844,-0.10896c0.01876,-0.04541 0.03282,-0.0908 0.0422,-0.1362c0.02813,-0.06356 0.04689,-0.12712 0.05627,-0.19068c0,-0.05448 0,-0.09988 0,-0.1362M292.46667,176.89868c-2.28795,-3.17795 -5.32135,-5.30717 -9.10021,-6.38766l-0.14065,0.32688c3.38504,1.36198 6.23559,3.4231 8.55166,6.18337c0.00938,0.16343 0.03282,0.32234 0.07033,0.47669c0.0844,0.43583 0.27193,0.81719 0.56261,1.14406l0.6892,0.17705c-0.02813,-0.72639 -0.23911,-1.36652 -0.63294,-1.92039z" fill="#ffffff"/></g><path d="M332.03218,177.14384c-0.04689,0.83534 -0.33288,2.91009 -0.85799,6.22423c-0.01876,0.0908 -0.02813,0.17705 -0.02813,0.25878M331.14608,183.62684c-0.06563,0.37228 -0.1219,0.74001 -0.16878,1.1032c-0.49697,3.21426 -0.86735,6.06533 -1.11116,8.55321c-0.68451,7.12767 -1.44872,17.00653 -2.29264,29.6366c-0.29068,4.29477 -0.54854,7.8813 -0.77359,10.75961c-2.86931,0.04541 -7.31861,0.28601 -13.34791,0.72184c-6.74194,0.48123 -12.3821,0.72184 -16.92048,0.72184c-16.82202,0.1362 -25.25648,0.2043 -25.30337,0.2043c-3.93826,0 -9.01582,-0.09533 -15.23265,-0.28601M249.4833,234.8235c-5.53233,-0.19975 -11.79136,-0.45853 -18.7771,-0.77633c-11.4116,-0.51755 -19.33502,-0.90345 -23.77025,-1.15768M249.4833,234.8235c1.87536,0.06356 3.67103,0.12258 5.38699,0.17705c0.37507,0.00908 0.75015,0.0227 1.12522,0.04087M332.27129,233.44792h-0.21098c-0.46884,0 -1.27994,0.03632 -2.43328,0.10896c-1.14398,0.07263 -1.77222,0.10896 -1.88474,0.10896c-0.29068,0 -0.60481,0.00454 -0.94237,0.01362M326.02633,241.52443c0.19691,-1.2167 0.45477,-3.83169 0.77359,-7.84499M206.93596,232.88951c-0.81579,-0.06356 -1.51435,-0.1135 -2.09572,-0.14981c-0.68451,-0.04541 -1.20492,-0.08626 -1.56124,-0.12258c-0.00938,0.1362 -0.0844,0.2043 -0.22505,0.2043" fill="none" stroke-opacity="0.96863" stroke="#000000" stroke-linecap="round" stroke-linejoin="round"/></g></g></svg>