<svg version="1.1" xmlns="http://www.w3.org/2000/svg" xmlns:xlink="http://www.w3.org/1999/xlink" width="361.23063" height="154.31476" viewBox="0,0,361.23063,154.31476"><defs><linearGradient x1="78.19655" y1="-323.82964" x2="163.08511" y2="-353.7856" gradientUnits="userSpaceOnUse" id="color-1"><stop offset="0" stop-color="#1b1b1b"/><stop offset="1" stop-color="#ffffff"/></linearGradient></defs><g transform="translate(20.7925,-112.26757)"><g data-paper-data="{&quot;isPaintingLayer&quot;:true}" fill-rule="nonzero" stroke="none" stroke-width="1" stroke-linecap="butt" stroke-linejoin="miter" stroke-miterlimit="10" stroke-dasharray="" stroke-dashoffset="0" style="mix-blend-mode: normal"><path d="M205.48328,165.42644c-0.23531,0.57365 -0.42479,1.15835 -0.56844,1.7541c0.45205,1.85981 0.93047,3.69663 1.43528,5.51044c-0.20047,0.60791 -0.36387,1.23526 -0.49019,1.88208c-0.57695,-1.99146 -1.12258,-4.00207 -1.63688,-6.03184c-0.27252,1.40864 -0.30379,2.79523 -0.09383,4.15977c0.13293,0.85641 0.4066,2.13469 0.821,3.83483c0.13564,0.83064 0.24575,2.03311 0.33031,3.60741c-0.00214,3.79404 0.6293,7.86199 1.89431,12.20385c0.63837,2.21122 1.58945,4.85301 2.85325,7.92537c0.44927,1.39724 1.10857,2.98672 1.97789,4.76843c0.3366,0.7824 0.68916,1.58266 1.05769,2.40079c0.83272,1.86438 1.58286,3.37878 2.25042,4.5432c-0.46101,-0.47817 -1.03547,-0.81065 -1.72339,-0.99746c-1.02558,-0.27154 -2.53381,-0.15031 -4.52468,0.36371c-3.7729,0.90981 -7.36438,1.77737 -10.77444,2.60268l-6.47579,-11.45378c-1.14292,-1.99704 -1.99658,-3.58489 -2.56097,-4.76355c-0.82684,-1.7996 -1.38977,-3.48707 -1.68879,-5.06241c-0.17405,-0.98755 -0.29837,-2.18133 -0.37297,-3.58133c-0.07622,-1.59436 -0.12628,-2.79447 -0.15017,-3.60034c-0.10791,-1.96568 -0.6026,-5.74608 -1.48406,-11.34119c1.24821,-0.45064 2.18742,-1.27886 2.81762,-2.48466c-0.29217,-0.44389 -0.6691,-0.74087 -1.13081,-0.89094l15.97383,-6.36782c-0.08245,-0.34227 -0.1568,-0.68752 -0.22305,-1.03574l0.967,-0.23962l3.46505,-0.94654c-0.89411,1.09368 -1.54251,2.17386 -1.94519,3.24056z" fill="#bd768a"/><path d="M340.31038,181.68053c0.42515,7.0853 -0.21088,13.745 -1.90807,19.9791c-1.4588,5.346 -4.18548,11.52582 -8.18003,18.53947c-2.15759,3.81973 -4.06102,6.58545 -5.7103,8.29714c-1.34279,1.44615 -3.65412,3.28916 -6.93398,5.529c-2.07439,1.46371 -3.73805,2.48093 -4.99098,3.05166c-1.26398,0.61656 -2.5351,1.06167 -3.81338,1.33534c-0.4158,-1.17077 -0.80875,-2.35658 -1.17884,-3.55743c-0.00861,-0.05227 -0.02047,-0.10362 -0.03559,-0.15406c3.06716,0.35165 6.16722,-0.48893 9.30018,-2.52174c4.11726,-2.59558 7.68826,-6.59578 10.71297,-12.00061c1.85273,-3.35984 4.05898,-8.53772 6.61876,-15.53366c1.98337,-5.51046 3.20541,-9.77399 3.6661,-12.79061c1.22267,-8.28818 -0.23563,-17.57439 -4.37489,-27.85862c-3.08945,-7.80048 -8.1259,-16.67659 -15.10936,-26.62832c-2.11179,-3.00653 -3.96747,-5.46639 -5.56703,-7.37958c-2.03989,-2.5325 -4.08196,-4.72211 -6.12621,-6.56883c-1.86656,-0.64528 -3.75424,-1.46415 -5.66305,-2.45659l-2.97266,-1.69875c-1.17737,-0.64759 -2.18483,-1.1451 -3.02239,-1.49253c-3.14955,-1.31711 -6.88673,-1.80607 -11.21152,-1.4669c-2.02055,0.17244 -4.62374,0.61155 -7.80959,1.31731c-0.63833,0.399 -1.26951,0.80445 -1.89353,1.21637c-1.5404,1.05906 -4.79256,3.53593 -9.75648,7.43059c-5.29251,4.25185 -11.45637,8.89974 -18.4916,13.94366c-3.69377,2.6492 -10.0481,7.08144 -19.06298,13.29672c-2.54046,1.78775 -4.73812,3.20961 -6.59297,4.26559c-2.01427,1.81765 -3.94711,3.8004 -5.79855,5.94827c-1.6808,2.04353 -2.66404,3.75823 -2.94972,5.14409c-0.09993,0.72591 -0.09579,1.56339 0.01244,2.51244c-0.01963,0.03779 -0.02515,0.06071 -0.01658,0.06874l0.0451,0.26545c0.00554,0.18678 0.02138,0.37244 0.04754,0.55699c0.14167,1.21217 0.34822,2.66823 0.61966,4.36818c-0.68576,3.65619 -0.97964,7.13734 -0.88164,10.44343c0.18025,7.19597 2.18139,13.37626 6.00341,18.54088c2.32648,3.18218 4.90653,5.10146 7.74015,5.75783c8.704,4.69111 20.40915,8.78647 35.11544,12.2861c4.21608,1.01663 10.571,2.46413 19.06476,4.34251c7.46346,1.72693 13.726,3.40674 18.78761,5.03942c2.02906,0.63474 3.41891,1.05474 4.16953,1.25998c1.57551,0.40415 3.00955,0.64083 4.30213,0.71006c0.17579,0.0082 0.35593,0.01527 0.54042,0.0212c0.30685,1.28912 0.65479,2.56106 1.0438,3.81582c-0.76146,0.19438 -1.512,0.34072 -2.25161,0.43902c-1.64489,0.18526 -3.51738,0.15805 -5.61746,-0.08164c-1.22465,-0.14983 -3.10827,-0.48279 -5.65086,-0.99891l-21.88775,-4.55043c-12.59917,-2.65011 -22.04823,-4.94069 -28.34717,-6.87173c-7.42251,-2.29895 -14.02502,-4.98208 -19.80751,-8.04937c-0.15055,-0.28492 -0.31022,-0.578 -0.47899,-0.87924c-0.10754,0.09918 -0.23552,0.17743 -0.38392,0.23474c-0.22305,0.08175 -0.45138,0.12367 -0.68497,0.12578c0.45658,0.94118 0.92452,1.86624 1.40383,2.77521c-1.05634,-0.51753 -2.08988,-1.0577 -3.10064,-1.62051c-0.43743,-0.00878 -0.77797,-0.05452 -1.0216,-0.13723c-0.51083,-0.20321 -0.99762,-0.64791 -1.46037,-1.33409c-0.19055,-0.10097 -0.3715,-0.20522 -0.54286,-0.31274c-1.20504,-0.74177 -2.02611,-1.50953 -2.46321,-2.30328c-0.58164,0.83517 -1.73975,1.46513 -3.47431,1.88989c-3.31231,0.938 -7.18265,1.95653 -11.61102,3.05559c-0.13858,0.35868 -0.38819,0.58944 -0.74883,0.69228c-0.37665,0.11385 -0.75748,0.03414 -1.14251,-0.23912c-4.8326,1.21298 -10.27276,2.50761 -16.32047,3.8839c-14.49869,3.31699 -24.44914,5.66981 -29.85135,7.05845c-6.57145,1.71285 -16.37328,4.40458 -29.40551,8.07517c-10.72382,2.84522 -22.91085,5.72554 -36.56109,8.64097c-7.89247,1.66102 -20.18862,4.13922 -36.88847,7.4346l-34.27902,6.71818c-3.15068,0.59804 -5.53189,0.92095 -7.14364,0.96873c-2.41865,0.09795 -4.53928,-0.20731 -6.36191,-0.91578l2.85226,3.70636c-0.22588,0.33347 -0.57113,0.40781 -1.03574,0.22305c-0.37295,-0.16267 -0.7412,-0.44543 -1.10473,-0.84828c-1.61061,-1.86736 -4.29654,-3.80004 -8.05777,-5.79805c-4.36966,-2.29019 -7.25701,-4.04111 -8.66205,-5.25276c-2.97129,-2.55915 -4.98988,-5.7008 -6.05578,-9.42497c-0.97262,-3.50771 -0.92282,-6.781 0.14938,-9.81989c0.58112,-1.60557 1.44118,-3.01053 2.58019,-4.21487c1.18955,-1.31339 2.5364,-2.27365 4.04056,-2.88078c2.21042,-0.92175 4.0916,-0.88032 5.64354,0.12429c0.12915,0.08342 0.25558,0.1624 0.37929,0.23693c0.28179,-0.14543 0.58356,-0.29088 0.90532,-0.43633c8.20008,-3.8417 18.106,-7.41754 29.71776,-10.72753c0.29072,-0.09962 10.5358,-2.76933 30.73522,-8.00912c8.53388,-2.20948 23.21725,-6.34266 44.05013,-12.39955c19.49772,-5.74844 33.8508,-10.07037 43.05924,-12.9658c15.92517,-5.00967 30.1051,-9.87039 42.53978,-14.58217c5.81286,-2.18672 9.80557,-3.61216 11.97812,-4.27634c2.55097,-0.80932 4.9724,-1.44985 7.26429,-1.92159c0.00827,0.03325 0.02566,0.06169 0.05217,0.08532c0.06624,0.34822 0.14059,0.69346 0.22305,1.03574l-15.97383,6.36782c0.4617,0.15007 0.83864,0.44705 1.13081,0.89094c-0.6302,1.2058 -1.5694,2.03402 -2.81762,2.48466c0.88146,5.59511 1.37615,9.37551 1.48406,11.34119c0.02389,0.80587 0.07395,2.00599 0.15017,3.60034c0.0746,1.4 0.19892,2.59377 0.37297,3.58133c0.29902,1.57534 0.86195,3.26281 1.68879,5.06241c0.56439,1.17866 1.41805,2.76651 2.56097,4.76355l6.47579,11.45378c3.41006,-0.82531 7.00154,-1.69287 10.77444,-2.60268c1.99087,-0.51402 3.4991,-0.63525 4.52468,-0.36371c0.68792,0.18681 1.26238,0.51929 1.72339,0.99746c-0.66755,-1.16442 -1.41769,-2.67882 -2.25042,-4.5432c-0.36852,-0.81813 -0.72108,-1.61839 -1.05769,-2.40079c-0.86932,-1.78171 -1.52862,-3.37119 -1.97789,-4.76843c-1.2638,-3.07236 -2.21488,-5.71415 -2.85325,-7.92537c-1.26501,-4.34186 -1.89645,-8.40981 -1.89431,-12.20385c-0.08456,-1.5743 -0.19467,-2.77677 -0.33031,-3.60741c-0.4144,-1.70015 -0.68807,-2.97842 -0.821,-3.83483c-0.20996,-1.36454 -0.17869,-2.75113 0.09383,-4.15977c0.5143,2.02977 1.05992,4.04038 1.63688,6.03184c0.12632,-0.64681 0.28972,-1.27417 0.49019,-1.88208c-0.50481,-1.81381 -0.98324,-3.65063 -1.43528,-5.51044c0.14365,-0.59575 0.33313,-1.18045 0.56844,-1.7541c0.40269,-1.0667 1.05109,-2.14688 1.94519,-3.24056l-3.46505,0.94654c-0.06013,-0.35394 -0.14317,-0.7134 -0.24913,-1.07839c1.31939,-0.14252 2.58191,-0.25027 3.78755,-0.32324c0.64108,-1.9548 1.80519,-3.91683 3.49233,-5.8861c1.2006,-1.35921 3.01579,-3.05514 5.44559,-5.08779c21.96275,-18.20026 44.31966,-31.03004 67.07075,-38.48932c0.16422,0.36294 0.34128,0.68446 0.53116,0.96456c0.96547,-0.21091 1.70732,-0.37147 2.22553,-0.48168c2.91683,-0.5332 5.84407,-0.50623 8.78171,0.08089c2.95503,0.61556 5.66289,1.75343 8.12357,3.41359c1.46029,0.98251 2.60142,2.08203 3.42338,3.29855c0.49862,0.71889 0.85906,1.4362 1.08133,2.15191c0.56065,0.46166 1.12487,0.93715 1.69268,1.42648c5.89675,5.10724 11.11024,10.88621 15.64047,17.3369c4.53023,6.45069 8.09664,13.17814 10.69922,20.18234c2.58519,6.97576 4.1188,13.9889 4.60082,21.03943M183.62191,172.22939l-66.76536,26.81587c-7.78309,3.11789 -13.64966,5.37652 -17.59971,6.77588c-6.33272,2.23108 -15.96149,5.11002 -28.8863,8.6368l-75.01522,20.60782c-2.379,0.67548 -4.08321,0.60399 -5.11263,-0.21449c-0.40248,0.16795 -0.67582,0.29601 -0.82001,0.38417c-1.01274,0.58015 -1.71964,1.50076 -2.1207,2.76181c-0.36157,1.19784 -0.4,2.41299 -0.11528,3.64544c0.22621,1.07287 0.68709,2.17808 1.38262,3.31562c0.46949,0.76784 1.19817,1.76791 2.18606,3.00019l10.93247,14.23775c8.35878,-3.11413 17.89825,-6.07521 28.6184,-8.88324c6.52562,-1.7239 16.3702,-4.09012 29.53373,-7.09867c8.36487,-1.91079 14.66542,-3.20405 18.90165,-3.87977c1.91823,-0.31332 5.80133,-0.83174 11.6493,-1.55524c4.85408,-0.62372 8.71662,-1.20771 11.58763,-1.75196c3.37348,-0.61705 7.23911,-1.51549 11.59689,-2.69531c0.83268,-0.23564 4.63664,-1.33079 11.41187,-3.28545c12.4381,-3.61989 26.40417,-7.39263 41.89822,-11.31822c7.18223,-1.83067 16.49273,-4.14383 27.9315,-6.93949c-2.77513,-4.75089 -5.31635,-9.54605 -7.62367,-14.38549c-1.28057,-2.73336 -2.06719,-4.85058 -2.35987,-6.35165c-0.21354,-0.92434 -0.35444,-2.04937 -0.42269,-3.3751c-0.04145,-1.53748 -0.07964,-2.68624 -0.11458,-3.44628c-0.11279,-2.54876 -0.44765,-5.33291 -1.00457,-8.35244c-0.27529,-1.47264 -0.42407,-2.51471 -0.44634,-3.12622c-0.05558,-1.1772 0.11326,-2.17906 0.50652,-3.00557c0.0805,-0.17361 0.17053,-0.34586 0.27008,-0.51677z" fill="#000000"/><path d="M183.29164,178.87796c0.55692,3.01954 0.89178,5.80369 1.00457,8.35244c0.03494,0.76004 0.07314,1.90881 0.11458,3.44628c0.06826,1.32573 0.20916,2.45077 0.42269,3.3751c0.29268,1.50108 1.07931,3.61829 2.35987,6.35165c2.30731,4.83944 4.84854,9.6346 7.62367,14.38549c-11.43877,2.79566 -20.74927,5.10882 -27.9315,6.93949c-15.49404,3.92558 -29.46011,7.69832 -41.89822,11.31822c-6.77523,1.95466 -10.57919,3.04981 -11.41187,3.28545c-4.35778,1.17982 -8.22341,2.07825 -11.59689,2.69531c-2.87101,0.54425 -6.73355,1.12823 -11.58763,1.75196c-5.84797,0.72351 -9.73107,1.24192 -11.6493,1.55524c-4.23623,0.67572 -10.53678,1.96898 -18.90165,3.87977c-13.16353,3.00855 -23.00811,5.37477 -29.53373,7.09867c-10.72016,2.80803 -20.25962,5.76911 -28.6184,8.88324l-10.93247,-14.23775c-0.98788,-1.23229 -1.71657,-2.23235 -2.18606,-3.00019c-0.69553,-1.13755 -1.15641,-2.24275 -1.38262,-3.31562c-0.28472,-1.23245 -0.24629,-2.4476 0.11528,-3.64544c0.40106,-1.26106 1.10796,-2.18166 2.1207,-2.76181c0.14419,-0.08816 0.41753,-0.21622 0.82001,-0.38417c1.02942,0.81847 2.73363,0.88997 5.11263,0.21449l75.01522,-20.60782c12.92481,-3.52678 22.55358,-6.40571 28.8863,-8.6368c3.95005,-1.39936 9.81662,-3.65799 17.59971,-6.77588l66.76536,-26.81587c-0.09955,0.17091 -0.18958,0.34317 -0.27008,0.51677c-0.39326,0.82651 -0.5621,1.82837 -0.50652,3.00557c0.02227,0.61151 0.17105,1.65359 0.44634,3.12622z" fill="#9a5e6f"/><path d="M327.57236,220.1784c-3.02472,5.40483 -6.59571,9.40503 -10.71297,12.00061c-3.13296,2.03281 -6.23302,2.87339 -9.30018,2.52174c0.01512,0.05043 0.02698,0.10178 0.03559,0.15406l-0.59014,0.18502c-0.18448,-0.00594 -0.36462,-0.01301 -0.54042,-0.0212c-1.29258,-0.06922 -2.72662,-0.30591 -4.30213,-0.71006c-0.75062,-0.20524 -2.14046,-0.62524 -4.16953,-1.25998c-5.06161,-1.63269 -11.32415,-3.31249 -18.78761,-5.03942c-8.49376,-1.87838 -14.84868,-3.32588 -19.06476,-4.34251c-14.70629,-3.49963 -26.41144,-7.595 -35.11544,-12.2861c-2.83362,-0.65637 -5.41367,-2.57565 -7.74015,-5.75783c-3.82202,-5.16462 -5.82316,-11.34491 -6.00341,-18.54088c-0.098,-3.30609 0.19588,-6.78724 0.88164,-10.44343c-0.27143,-1.69996 -0.47799,-3.15602 -0.61966,-4.36818c-0.02615,-0.18455 -0.042,-0.37021 -0.04754,-0.55699l-0.0451,-0.26545c-0.00858,-0.00803 -0.00305,-0.03095 0.01658,-0.06874c-0.10823,-0.94905 -0.11238,-1.78653 -0.01244,-2.51244c0.28568,-1.38586 1.26892,-3.10056 2.94972,-5.14409c1.85143,-2.14786 3.78428,-4.13062 5.79855,-5.94827c1.85485,-1.05598 4.05251,-2.47784 6.59297,-4.26559c9.01488,-6.21528 15.36921,-10.64752 19.06298,-13.29672c7.03523,-5.04392 13.1991,-9.69181 18.4916,-13.94366c4.96392,-3.89466 8.21608,-6.37152 9.75648,-7.43059c0.62402,-0.41192 1.25519,-0.81738 1.89353,-1.21637c3.18585,-0.70577 5.78904,-1.14487 7.80959,-1.31731c4.3248,-0.33917 8.06197,0.1498 11.21152,1.4669c0.83756,0.34744 1.84503,0.84495 3.02239,1.49253l2.97266,1.69875c1.90881,0.99245 3.79649,1.81131 5.66305,2.45659c2.04425,1.84672 4.08632,4.03633 6.12621,6.56883c1.59956,1.91319 3.45524,4.37305 5.56703,7.37958c6.98345,9.95173 12.0199,18.82784 15.10936,26.62832c4.13926,10.28423 5.59755,19.57044 4.37489,27.85862c-0.46069,3.01662 -1.68273,7.28015 -3.6661,12.79061c-2.55978,6.99593 -4.76603,12.17382 -6.61876,15.53366z" fill="url(#color-1)"/></g></g></svg>