<svg version="1.1" xmlns="http://www.w3.org/2000/svg" xmlns:xlink="http://www.w3.org/1999/xlink" width="138.39494" height="52.21209" viewBox="0,0,138.39494,52.21209"><g transform="translate(-224.14482,-152.58317)"><g data-paper-data="{&quot;isPaintingLayer&quot;:true}" fill-rule="nonzero" stroke="none" stroke-width="1" stroke-linecap="butt" stroke-linejoin="miter" stroke-miterlimit="10" stroke-dasharray="" stroke-dashoffset="0" style="mix-blend-mode: normal"><path d="M316.97109,177.81034c4.31664,-3.40328 4.75683,-7.25529 1.32055,-11.55602c4.20193,-0.65577 8.36525,-1.47594 12.48997,-2.46048c4.14475,-1.01048 8.2618,-2.14586 12.35115,-3.40616c4.08935,-1.2603 8.08265,-2.67762 11.97989,-4.25195l4.16223,-1.83022l-3.44357,3.47231c-2.45305,2.0898 -4.94514,4.10286 -7.47627,6.03918c-3.41697,2.58716 -6.95239,4.9793 -10.60624,7.17642c-3.75844,2.29228 -7.7025,4.27554 -11.83218,5.94976c-3.96323,1.60616 -8.06526,2.7221 -12.30608,3.34783l1.65129,-1.87601c0.61926,0.00232 1.18902,-0.19923 1.70927,-0.60464M310.06508,180.23776c0.2183,-0.028 0.40877,0.00012 0.57139,0.08437c0.1367,0.06422 0.26707,0.17012 0.39111,0.31771l-1.91301,0.24538c0.01708,-0.04891 0.03564,-0.08632 0.05567,-0.11225c0.17881,-0.24483 0.41036,-0.39716 0.69465,-0.45698c0.07748,-0.0333 0.14421,-0.05937 0.20018,-0.07823M311.29414,168.37815c0.92163,1.54014 1.21532,3.28346 0.88107,5.22994c-0.32571,1.92203 -1.18498,3.46288 -2.5778,4.62254c-0.3052,0.26104 -0.78464,0.62034 -1.43835,1.07791c-0.51583,0.43988 -0.91676,0.86502 -1.20279,1.27543c-0.15171,0.18296 -0.25378,0.38875 -0.3062,0.61737l-1.15028,0.18258c0.04063,-0.32053 0.07804,-0.52971 0.1122,-0.62752c0.11872,-0.16705 0.29267,-0.3587 0.52186,-0.57496l2.0711,-2.01745c0.79067,-0.75542 1.31401,-1.31889 1.56999,-1.69041c0.9515,-1.23152 1.39361,-2.70134 1.32632,-4.40946c-0.05284,-1.68662 -0.58839,-3.1303 -1.60662,-4.33105c-0.05038,-0.02857 -0.08426,-0.0651 -0.10165,-0.10959c0.41215,-0.06455 0.81929,-0.12261 1.22143,-0.17419c0.23364,0.27367 0.46021,0.58329 0.67972,0.92885M316.77295,168.4812c0.35593,0.77185 0.52892,1.61971 0.51897,2.5436c-0.01552,1.42678 -0.51963,3.05054 -1.51234,4.87127c-0.17144,0.30228 -0.3501,0.5938 -0.53598,0.87457c-0.42478,0.60338 -0.88522,1.06535 -1.38132,1.38592c-0.18206,0.12846 -0.43806,0.27224 -0.76801,0.43135c-0.18943,0.07101 -0.4556,0.18107 -0.79851,0.33016c-0.83371,0.32884 -1.58022,0.74575 -2.23952,1.25075c0.09778,-0.42129 0.28631,-0.77248 0.56558,-1.05355c0.26188,-0.32556 0.58078,-0.57084 0.95669,-0.73584c0.06509,-0.31199 0.26231,-0.64093 0.59165,-0.98682c0.49992,-0.47288 0.77918,-0.75395 0.83781,-0.84322c0.29193,-0.36445 0.50047,-0.96929 0.62563,-1.81452c0.26742,-1.28391 0.40346,-2.3174 0.40812,-3.10046c0.0179,-1.13512 -0.18206,-2.10215 -0.59986,-2.9011c-0.31497,-0.54353 -0.49779,-0.87627 -0.54847,-0.99824c-0.061,-0.20239 -0.10255,-0.38976 -0.12466,-0.5621c0.8788,-0.15944 1.76482,-0.30813 2.65806,-0.44606c0.56744,0.41771 1.01616,1.00248 1.34617,1.75429M300.11645,194.86252c2.33382,-0.74315 4.61712,-1.56157 6.84988,-2.45525c0.60275,-0.21746 1.20329,-0.45215 1.80162,-0.70408c4.0578,-1.68836 5.85014,-4.60434 5.37703,-8.74795l2.88562,-0.7205c4.14301,-0.65989 8.19393,-1.58242 12.15277,-2.76759c5.25067,-1.58444 10.31157,-3.64672 15.18272,-6.18684c-2.60768,2.70525 -5.47183,5.18646 -8.59245,7.44364c-3.67386,2.67851 -7.53408,5.04224 -11.58066,7.0912c-3.65476,1.91695 -7.47806,3.47596 -11.4699,4.67704c-4.09789,1.28475 -8.29627,2.15028 -12.59514,2.5966l-0.0115,-0.22626M290.20639,198.04315c0.15761,-0.137 0.37207,-0.24042 0.6434,-0.31026c0.13345,-0.05215 0.37827,-0.10107 0.73444,-0.14676c0.5182,-0.14822 1.00679,-0.3452 1.46578,-0.59093c0.21123,0.00794 0.4232,0.02163 0.63591,0.04106c1.96739,0.13303 3.95215,0.08282 5.95428,-0.15064c-0.11754,0.08515 -0.27972,0.14099 -0.48653,0.16752l-1.38227,0.42256c-1.22319,0.29704 -2.44078,0.54665 -3.65278,0.74883c-1.47478,0.24757 -2.93484,0.3823 -4.38018,0.40419c0.1084,-0.24748 0.26438,-0.44266 0.46794,-0.58556M287.11333,195.91732c-0.08395,0.25602 -0.143,0.43293 -0.17717,0.53074c-0.20414,0.41158 -0.73617,0.72507 -1.59612,0.94049c-0.57565,0.15559 -1.11683,0.30676 -1.62355,0.45351c-0.28489,-0.12696 -0.56404,-0.25465 -0.83744,-0.38308c0.08602,-0.05775 0.17926,-0.10474 0.27972,-0.14099c0.28399,-0.15321 0.68877,-0.27521 1.21434,-0.36598c1.14159,-0.20483 1.7645,-0.62925 1.86875,-1.27326c0.19415,0.05685 0.40701,0.12297 0.63857,0.19838c0.0604,0.01561 0.13802,0.02901 0.23289,0.0402M291.19561,194.69297c0.33732,-0.10166 0.80559,-0.13837 1.40482,-0.11013c0.6941,0.03943 1.18403,0.03498 1.46979,-0.01335c0.10341,-0.01326 0.37473,-0.0831 0.81398,-0.20952c0.31581,-0.08722 0.77598,-0.18713 1.38051,-0.2997c0.33879,-0.09017 0.83033,-0.26417 1.47462,-0.52199c0.59391,-0.2864 1.03359,-0.50046 1.31906,-0.64218l2.75871,-1.98303c0.32111,-0.22805 0.55398,-0.41558 0.69862,-0.5626l0.83605,-0.72037c0.13168,-0.15703 0.34953,-0.32512 0.65355,-0.50426c0.43748,-0.23129 0.70497,-0.37655 0.80248,-0.43578c0.24657,-0.17177 0.57607,-0.47097 0.98849,-0.89758c0.9038,-0.87504 1.54526,-1.56461 1.92438,-2.0687c0.44629,-0.61782 0.72613,-1.16757 0.83952,-1.64926c0.03092,-0.21418 0.06404,-0.63886 0.09935,-1.27403c1.0217,0.04412 2.05046,0.05231 3.0863,0.02455c-0.02827,0.14377 -0.0371,0.30256 -0.02648,0.47638c-0.01203,0.72562 -0.26107,1.46996 -0.74712,2.23302c-0.33581,0.56861 -0.85605,1.20176 -1.5607,1.89943c-0.72881,0.78252 -1.33419,1.29812 -1.81615,1.5468c-0.42893,0.20684 -0.67139,0.31969 -0.72736,0.33855c-0.05155,0.05333 -0.33524,0.29993 -0.85107,0.73981c-0.23361,0.18179 -0.73339,0.47363 -1.49934,0.87552l-5.26563,2.51481c-0.95126,0.41398 -1.62058,0.70422 -2.00798,0.87069c-0.56121,0.1771 -1.20433,0.35302 -1.92934,0.52777l-1.59129,0.43185c-0.20122,-0.0209 -0.39595,-0.0368 -0.58421,-0.04769c-0.64666,-0.03384 -1.28552,-0.09787 -1.91657,-0.19211c-0.05068,-0.12196 -0.05967,-0.2376 -0.02698,-0.3469M295.02763,191.38105c2.54208,-1.21365 4.86333,-2.73765 6.96375,-4.57201c0.90262,-0.79314 1.6114,-1.54973 2.12632,-2.26979c0.56088,-0.72595 0.945,-1.46426 1.15236,-2.21493c0.32496,0.0751 0.65993,0.13724 1.00491,0.18642c-0.03122,0.12079 -0.05169,0.23436 -0.0614,0.34072c-0.23268,0.91742 -0.85585,1.93164 -1.86952,3.04267c-0.71025,0.74511 -1.47014,1.46738 -2.27967,2.16683c-1.49181,1.20739 -3.21091,2.32716 -5.15731,3.35929c-2.13435,1.11464 -4.71061,2.19837 -7.72879,3.25119c-0.4098,-0.09926 -0.81386,-0.19925 -1.21218,-0.29998c-0.35236,-0.10662 -0.68821,-0.2212 -1.00758,-0.34374c0.04596,-0.0059 0.10989,-0.00826 0.19179,-0.00708c2.72242,-0.53607 5.34819,-1.41593 7.87731,-2.6396z" fill="#5b5d5e"/><path d="M315.42677,166.72691c0.94921,-0.15679 1.90417,-0.31432 2.86487,-0.47259c3.43627,4.30073 2.99609,8.15274 -1.32055,11.55602c-0.52025,0.40541 -1.09,0.60696 -1.70927,0.60464l-1.65129,1.87601l-2.58294,0.34884c-0.12404,-0.14759 -0.25441,-0.25349 -0.39111,-0.31771c-0.16263,-0.08425 -0.35309,-0.11237 -0.57139,-0.08437c-0.05597,0.01886 -0.1227,0.04494 -0.20018,0.07823c-0.28429,0.05982 -0.51584,0.21215 -0.69465,0.45698c-0.02003,0.02593 -0.03859,0.06334 -0.05567,0.11225l-2.46451,0.31613c0.05243,-0.22862 0.15449,-0.43441 0.3062,-0.61737c0.28604,-0.41041 0.68697,-0.83555 1.20279,-1.27543c0.6537,-0.45757 1.13315,-0.81687 1.43835,-1.07791c1.39282,-1.15966 2.25209,-2.70051 2.5778,-4.62254c0.33425,-1.94649 0.04056,-3.6898 -0.88107,-5.22994c-0.2195,-0.34556 -0.44608,-0.65518 -0.67972,-0.92885c0.71088,-0.10286 1.42898,-0.19498 2.15429,-0.27633c0.02211,0.17234 0.06366,0.35971 0.12466,0.5621c0.05068,0.12196 0.23351,0.45471 0.54847,0.99824c0.4178,0.79895 0.61776,1.76598 0.59986,2.9011c-0.00466,0.78306 -0.1407,1.81655 -0.40812,3.10046c-0.12515,0.84523 -0.33369,1.45007 -0.62563,1.81452c-0.05862,0.08927 -0.33789,0.37034 -0.83781,0.84322c-0.32935,0.34589 -0.52656,0.67483 -0.59165,0.98682c-0.37591,0.165 -0.6948,0.41028 -0.95669,0.73584c-0.27927,0.28107 -0.46779,0.63226 -0.56558,1.05355c0.6593,-0.505 1.4058,-0.92192 2.23952,-1.25075c0.34291,-0.14909 0.60908,-0.25915 0.79851,-0.33016c0.32995,-0.15911 0.58595,-0.30289 0.76801,-0.43135c0.4961,-0.32056 0.95654,-0.78254 1.38132,-1.38592c0.18588,-0.28077 0.36454,-0.5723 0.53598,-0.87457c0.9927,-1.82073 1.49682,-3.44449 1.51234,-4.87127c0.00996,-0.92389 -0.16303,-1.77175 -0.51897,-2.5436c-0.33001,-0.75181 -0.77873,-1.33658 -1.34617,-1.75429M295.31466,194.84781c0.72501,-0.17475 1.36813,-0.35067 1.92934,-0.52777c0.3874,-0.16648 1.05672,-0.45671 2.00798,-0.87069l5.26563,-2.51481c0.76595,-0.40189 1.26573,-0.69373 1.49934,-0.87552c0.51583,-0.43988 0.79952,-0.68649 0.85107,-0.73981c0.05597,-0.01886 0.29843,-0.13171 0.72736,-0.33855c0.48196,-0.24868 1.08734,-0.76428 1.81615,-1.5468c0.70465,-0.69767 1.22489,-1.33082 1.5607,-1.89943c0.48605,-0.76306 0.73509,-1.5074 0.74712,-2.23302c-0.01062,-0.17382 -0.00179,-0.33261 0.02648,-0.47638c1.74849,-0.02574 3.51007,-0.22251 5.28476,-0.59029l-2.88562,0.7205c0.47311,4.14361 -1.31923,7.05959 -5.37703,8.74795c-0.59833,0.25193 -1.19887,0.48662 -1.80162,0.70408c-2.23276,0.89369 -4.51606,1.71211 -6.84988,2.45525l0.0115,0.22626c-2.14148,0.23965 -4.27634,0.30328 -6.40458,0.19088l1.59129,-0.43185M284.24503,198.002c-0.18266,-0.05832 -0.35884,-0.11163 -0.52853,-0.15994c0.50671,-0.14675 1.0479,-0.29792 1.62355,-0.45351c0.85994,-0.21541 1.39198,-0.52891 1.59612,-0.94049c0.03417,-0.09781 0.09322,-0.27473 0.17717,-0.53074c1.93412,0.51102 3.91302,0.87031 5.93668,1.07787c-0.45898,0.24573 -0.94757,0.44271 -1.46578,0.59093c-0.35618,0.04569 -0.60099,0.09461 -0.73444,0.14676c-0.27133,0.06984 -0.48579,0.17326 -0.6434,0.31026c-0.20356,0.1429 -0.35954,0.33808 -0.46794,0.58556c-0.44102,0.02154 -0.89074,0.02083 -1.34915,-0.00212c0.09162,-0.10518 0.11709,-0.22523 0.07643,-0.36016c-0.94509,0.09787 -1.90551,0.1218 -2.88125,0.07178c-0.45429,-0.08187 -0.90077,-0.19394 -1.33945,-0.33621M291.22259,195.03986c-0.69145,-0.10984 -1.37288,-0.23265 -2.0443,-0.36842c3.01817,-1.05283 5.59444,-2.13656 7.72879,-3.25119c1.9464,-1.03213 3.6655,-2.1519 5.15731,-3.35929c0.80953,-0.69945 1.56942,-1.42173 2.27967,-2.16683c1.01367,-1.11103 1.63684,-2.12525 1.86952,-3.04267c0.00972,-0.10635 0.03018,-0.21993 0.0614,-0.34072c0.80782,0.10659 1.60267,0.20317 2.38456,0.28974c-0.03531,0.63517 -0.06843,1.05985 -0.09935,1.27403c-0.11339,0.48169 -0.39323,1.03144 -0.83952,1.64926c-0.37913,0.5041 -1.02059,1.19366 -1.92438,2.0687c-0.41242,0.42662 -0.74192,0.72581 -0.98849,0.89758c-0.09751,0.05922 -0.365,0.20448 -0.80248,0.43578c-0.30402,0.17914 -0.52187,0.34723 -0.65355,0.50426l-0.83605,0.72037c-0.14464,0.14702 -0.37752,0.33455 -0.69862,0.5626l-2.75871,1.98303c-0.28546,0.14172 -0.72515,0.35578 -1.31906,0.64218c-0.64429,0.25782 -1.13583,0.43182 -1.47462,0.52199c-0.60452,0.11258 -1.06469,0.21248 -1.38051,0.2997c-0.43925,0.12641 -0.71058,0.19625 -0.81398,0.20952c-0.28577,0.04833 -0.7757,0.05279 -1.46979,0.01335c-0.59923,-0.02824 -1.06751,0.00847 -1.40482,0.11013c-0.03269,0.1093 -0.0237,0.22493 0.02698,0.3469M305.27006,182.32433c-0.20735,0.75067 -0.59147,1.48898 -1.15236,2.21493c-0.51492,0.72005 -1.2237,1.47665 -2.12632,2.26979c-2.10042,1.83436 -4.42167,3.35836 -6.96375,4.57201c-2.52912,1.22367 -5.15488,2.10353 -7.87731,2.6396c-0.0819,-0.00117 -0.14583,0.00119 -0.19179,0.00708c-1.42946,-0.40057 -2.80751,-0.90116 -4.13416,-1.50178c-0.49053,-0.18233 -0.84287,-0.06122 -1.05702,0.36332c-0.2442,0.46343 -0.09569,0.84729 0.44552,1.15159c1.28659,0.65247 2.62959,1.19843 4.029,1.6379c-0.10425,0.64402 -0.72717,1.06844 -1.86875,1.27326c-0.52557,0.09077 -0.93035,0.21277 -1.21434,0.36598c-0.10046,0.03624 -0.1937,0.08324 -0.27972,0.14099c-0.20859,-0.07835 -0.40863,-0.18116 -0.60013,-0.30841c0.47817,0.35909 0.97357,0.71598 1.48621,1.07065c-1.86693,-0.16928 -3.71944,-0.54478 -5.55753,-1.12651c-0.69617,-0.2377 -1.19759,-0.23178 -1.50426,0.01777c-0.18058,0.13995 -0.26895,0.3615 -0.2651,0.66465c-0.01501,0.24718 0.05041,0.48403 0.19625,0.71058c0.21066,0.27662 0.6218,0.5684 1.23343,0.87534l7.03278,3.47737c-3.34138,0.62714 -6.98655,0.61589 -10.9355,-0.03375c-2.37485,-0.39609 -4.99836,-1.04641 -7.87054,-1.95096c-0.92626,-0.30162 -1.87344,-0.62975 -2.84154,-0.98439c-2.47416,-0.89721 -4.6711,-1.8183 -6.59082,-2.76327c-0.79281,-0.35377 -1.51815,-0.72787 -2.17604,-1.12231c-3.03426,-1.71294 -5.52116,-3.66543 -7.4607,-5.85747l-2.11987,-0.41128c-2.01993,-1.72626 -5.67743,-5.56651 -10.97248,-11.52075c-5.01663,-5.60456 -7.90886,-9.16925 -8.67671,-10.69409c0.03889,0.03005 0.0878,0.04713 0.14672,0.05125c1.03851,0.35729 2.21828,0.63223 3.53931,0.82481c0.97162,0.10894 2.18968,0.22715 3.65417,0.35461c1.4041,0.11186 2.81896,0.2165 4.24456,0.31392c2.58518,0.12386 5.21116,0.20161 7.87794,0.23326c3.03123,0.32357 6.09324,0.614 9.18603,0.87129c3.98369,0.28315 7.96501,0.50237 11.94397,0.65767c4.321,0.18149 8.63993,0.16471 12.95678,-0.05034c4.3472,-0.16055 8.686,-0.47768 13.01638,-0.9514c4.34483,-0.45221 8.6758,-0.96688 12.99292,-1.544c1.52811,-0.19601 3.05401,-0.40926 4.5777,-0.63974c0.01738,0.04448 0.05127,0.08101 0.10165,0.10959c1.01824,1.20075 1.55378,2.64443 1.60662,4.33105c0.06728,1.70812 -0.37483,3.17794 -1.32632,4.40946c-0.25599,0.37152 -0.77932,0.93498 -1.56999,1.69041l-2.0711,2.01745c-0.22919,0.21626 -0.40314,0.40791 -0.52186,0.57496c-0.03417,0.09781 -0.07157,0.30698 -0.1122,0.62752l-3.49857,0.44877c0.88382,0.06181 1.74629,0.18475 2.5874,0.36883c0.23863,0.03946 0.46578,0.0804 0.68143,0.12281z" fill="#ffffff"/><path d="M339.16174,160.02115c4.00892,-1.24998 7.9788,-2.57671 11.90964,-3.98017c3.22321,-1.18423 6.46528,-2.31249 9.72621,-3.38478c0.50966,-0.12377 1.02198,-0.09022 1.53697,0.10065c0.27548,0.3267 0.27358,0.63059 -0.00569,0.91166c-1.83881,1.87087 -3.71165,3.65852 -5.61853,5.36294c-3.62198,3.17403 -7.36947,6.18898 -11.24247,9.04486c-2.97715,2.19207 -6.09292,4.16834 -9.34733,5.92883c-2.93299,1.62583 -5.95497,3.0587 -9.06594,4.2986c2.7722,-0.69427 5.48208,-1.55573 8.12964,-2.58438c2.99195,-1.16625 5.90507,-2.49172 8.73939,-3.97643c0.7904,-0.39335 1.60998,-0.6503 2.45873,-0.77085c0.28637,0.13845 0.42072,0.36646 0.40307,0.68405c-0.00084,0.63075 -0.20821,1.15369 -0.62211,1.56882c-2.55907,2.62894 -5.28329,5.06301 -8.17264,7.30221c-2.71731,2.1237 -5.5507,4.11631 -8.50018,5.97782c-3.00957,1.9393 -6.16367,3.61684 -9.46228,5.03264c-5.121,2.14006 -10.36886,3.92852 -15.74356,5.36537c-3.74968,0.99484 -7.50572,1.80363 -11.26809,2.42638c-2.5274,0.41762 -5.07265,0.42294 -7.63575,0.01597c-1.19964,0.02541 -2.42918,-0.09132 -3.68864,-0.35019l5.57927,2.52515c0.9958,0.47955 1.41491,1.01556 1.25734,1.60803c-0.07363,0.33645 -0.33287,0.59159 -0.77771,0.76544c-0.50789,0.22865 -1.28681,0.39279 -2.33679,0.49244c-2.58398,0.2497 -4.54619,0.38461 -5.88665,0.40473c-2.1795,0.03432 -4.12833,-0.13613 -5.8465,-0.51135c-0.78367,-0.19144 -2.07083,-0.57523 -3.86148,-1.15136l-4.17923,-1.44345c-2.28973,-0.73401 -3.98199,-1.31693 -5.07677,-1.74875c-1.86137,-0.67217 -3.50517,-1.37809 -4.93141,-2.11775c-2.31421,-1.19801 -4.28404,-2.53363 -5.90948,-4.00685c-0.90214,-0.84193 -1.7103,-1.7251 -2.42449,-2.64953c-0.32616,-0.44866 -0.41707,-0.7932 -0.27273,-1.03361c1.93954,2.19204 4.42644,4.14453 7.4607,5.85747c0.65788,0.39443 1.38323,0.76854 2.17604,1.12231c1.91972,0.94497 4.11666,1.86606 6.59082,2.76327c0.9681,0.35464 1.91528,0.68277 2.84154,0.98439c2.87218,0.90455 5.49569,1.55487 7.87054,1.95096c3.94895,0.64964 7.59411,0.6609 10.9355,0.03375l-7.03278,-3.47737c-0.61162,-0.30694 -1.02277,-0.59872 -1.23343,-0.87534c-0.14584,-0.22654 -0.21126,-0.4634 -0.19625,-0.71058c-0.00385,-0.30315 0.08452,-0.5247 0.2651,-0.66465c0.30667,-0.24955 0.80809,-0.25548 1.50426,-0.01777c1.83809,0.58173 3.6906,0.95723 5.55753,1.12651c-0.51264,-0.35467 -1.00804,-0.71156 -1.48621,-1.07065c0.1915,0.12726 0.39155,0.23006 0.60013,0.30841c0.2734,0.12843 0.55255,0.25612 0.83744,0.38308c0.1697,0.0483 0.34587,0.10162 0.52853,0.15994c0.43868,0.14227 0.88516,0.25433 1.33945,0.33621c0.97574,0.05002 1.93615,0.02609 2.88125,-0.07178c0.04066,0.13493 0.01519,0.25498 -0.07643,0.36016c0.45841,0.02295 0.90813,0.02366 1.34915,0.00212c1.44534,-0.0219 2.9054,-0.15663 4.38018,-0.40419c1.212,-0.20218 2.42959,-0.45179 3.65278,-0.74883c0.90737,-0.20982 1.8283,-0.45057 2.76277,-0.72226c-0.29725,0.04981 -0.59525,0.09387 -0.89397,0.13219c-2.00213,0.23346 -3.98689,0.28367 -5.95428,0.15064c-0.21271,-0.01943 -0.42468,-0.03312 -0.63591,-0.04106c-2.02366,-0.20757 -4.00256,-0.56686 -5.93668,-1.07787c-0.09486,-0.01119 -0.17249,-0.02459 -0.23289,-0.0402c-0.23157,-0.0754 -0.44442,-0.14153 -0.63857,-0.19838c-1.39941,-0.43946 -2.74241,-0.98543 -4.029,-1.6379c-0.54121,-0.30429 -0.68972,-0.68816 -0.44552,-1.15159c0.21415,-0.42454 0.56649,-0.54565 1.05702,-0.36332c1.32665,0.60062 2.70471,1.10121 4.13416,1.50178c0.31936,0.12254 0.65522,0.23712 1.00758,0.34374c0.39831,0.10073 0.80237,0.20072 1.21218,0.29998c0.67142,0.13577 1.35285,0.25858 2.0443,0.36842c0.63105,0.09423 1.26991,0.15827 1.91657,0.19211c0.18825,0.01089 0.38299,0.02678 0.58421,0.04769c2.12824,0.1124 4.2631,0.04877 6.40458,-0.19088c4.29887,-0.44631 8.49725,-1.31185 12.59514,-2.5966c3.99184,-1.20108 7.81514,-2.76009 11.4699,-4.67704c4.04658,-2.04896 7.9068,-4.41269 11.58066,-7.0912c3.12062,-2.25718 5.98477,-4.7384 8.59245,-7.44364c-4.87115,2.54012 -9.93206,4.6024 -15.18272,6.18684c-3.95884,1.18517 -8.00977,2.1077 -12.15277,2.76759c-1.77468,0.36778 -3.53627,0.56455 -5.28476,0.59029c-1.03583,0.02776 -2.0646,0.01958 -3.0863,-0.02455c-0.78189,-0.08656 -1.57675,-0.18314 -2.38456,-0.28974c-0.34499,-0.04918 -0.67996,-0.11132 -1.00491,-0.18642c-0.21565,-0.04241 -0.4428,-0.08334 -0.68143,-0.12281c-0.84111,-0.18407 -1.70358,-0.30702 -2.5874,-0.36883l3.49857,-0.44877l1.15028,-0.18258l2.46451,-0.31613l1.91301,-0.24538l2.58294,-0.34884c4.24082,-0.62573 8.34284,-1.74167 12.30608,-3.34783c4.12968,-1.67422 8.07374,-3.65748 11.83218,-5.94976c3.65386,-2.19712 7.18927,-4.58926 10.60624,-7.17642c2.53113,-1.93632 5.02322,-3.94938 7.47627,-6.03918l3.44357,-3.47231l-4.16223,1.83022c-3.89724,1.57434 -7.89054,2.99165 -11.97989,4.25195c-4.08935,1.2603 -8.2064,2.39569 -12.35115,3.40616c-4.12472,0.98455 -8.28804,1.80471 -12.48997,2.46048c-0.9607,0.15827 -1.91566,0.3158 -2.86487,0.47259c-0.89324,0.13793 -1.77926,0.28662 -2.65806,0.44606c-0.72532,0.08136 -1.44341,0.17347 -2.15429,0.27633c-0.40213,0.05158 -0.80928,0.10965 -1.22143,0.17419c-1.52369,0.23048 -3.04959,0.44373 -4.5777,0.63974c-4.31712,0.57712 -8.6481,1.09179 -12.99292,1.544c-4.33039,0.47372 -8.66918,0.79085 -13.01638,0.9514c-4.31685,0.21505 -8.63578,0.23183 -12.95678,0.05034c-3.97896,-0.15529 -7.96029,-0.37451 -11.94397,-0.65767c-3.09279,-0.25728 -6.1548,-0.54771 -9.18603,-0.87129c-2.66678,-0.03164 -5.29276,-0.1094 -7.87794,-0.23326c-1.42561,-0.09742 -2.84046,-0.20206 -4.24456,-0.31392c-1.4645,-0.12747 -2.68255,-0.24567 -3.65417,-0.35461c-1.32103,-0.19259 -2.5008,-0.46752 -3.53931,-0.82481c-0.05892,-0.00412 -0.10783,-0.0212 -0.14672,-0.05125c-0.33939,-0.09661 -0.61074,-0.2545 -0.81403,-0.47367c-0.27548,-0.3267 -0.35975,-0.61953 -0.25283,-0.8785c0.18116,-0.40863 0.66916,-0.56466 1.46402,-0.46808l15.71396,1.50544c1.14544,0.09832 2.09629,0.22745 2.85255,0.38737c2.64735,0.24435 5.2947,0.4887 7.94205,0.73305c4.1637,0.41188 8.34492,0.68721 12.54366,0.82599c3.4687,0.09228 6.94432,0.10192 10.42686,0.02893c3.23536,-0.088 6.48987,-0.25437 9.76352,-0.49911c4.0953,-0.30342 8.19104,-0.69448 12.28722,-1.17319c3.53024,-0.42947 7.08832,-0.91507 10.67423,-1.45679c3.75826,-0.56383 7.50429,-1.13193 11.23809,-1.7043c3.05592,-0.48542 6.12892,-1.01974 9.21901,-1.60297c3.67016,-0.70435 7.28581,-1.60608 10.84694,-2.70519z" fill="#000000"/></g></g></svg>