<svg version="1.1" xmlns="http://www.w3.org/2000/svg" xmlns:xlink="http://www.w3.org/1999/xlink" width="193.48958" height="174.91261" viewBox="0,0,193.48958,174.91261"><g transform="translate(-146.79212,-99.88697)"><g data-paper-data="{&quot;isPaintingLayer&quot;:true}" fill-rule="nonzero" stroke="none" stroke-width="1" stroke-linecap="butt" stroke-linejoin="miter" stroke-miterlimit="10" stroke-dasharray="" stroke-dashoffset="0" style="mix-blend-mode: normal"><path d="M245.65655,274.27499c-0.03781,0.0189 -0.07089,0.04253 -0.09924,0.07089c-0.15123,0.07561 -0.30247,0.15596 -0.4537,0.24103c-0.11342,0.07561 -0.23158,0.1465 -0.35446,0.21267c-1.63521,-2.17399 -3.21844,-4.37633 -4.74969,-6.60704c-0.26466,-0.37808 -0.52459,-0.75617 -0.7798,-1.13426c-2.16453,-3.21372 -4.40468,-6.40381 -6.72046,-9.57028c-0.73726,-1.00192 -1.47926,-1.99913 -2.22598,-2.99159c-1.38946,-1.86206 -2.78365,-3.70523 -4.18256,-5.52949c-1.89043,-2.467 -3.81866,-4.90092 -5.7847,-7.30176c-2.2118,-2.67496 -4.49921,-5.27428 -6.86224,-7.798c-1.89987,-2.04165 -3.87537,-4.01243 -5.92648,-5.9123c-0.63329,-0.58603 -1.27131,-1.16734 -1.91405,-1.74391c-0.02836,-0.0189 -0.05199,-0.03308 -0.07089,-0.04253c-2.71276,-2.41029 -5.5484,-4.61263 -8.5069,-6.60704c-2.99632,-2.0133 -6.12497,-3.78085 -9.38595,-5.30264c-1.76755,-0.81288 -3.55872,-1.53124 -5.37354,-2.15508c-0.4726,-0.17013 -0.94049,-0.32609 -1.40365,-0.46788c-1.42727,-0.35918 -2.96324,-0.68055 -4.60791,-0.96411c-0.42535,-0.06617 -0.95939,-0.1465 -1.60213,-0.24103c-1.43672,-0.2174 -3.43584,-0.49624 -5.99737,-0.83652c-3.1192,-0.41589 -6.21477,-0.85542 -9.28671,-1.31857c-1.85262,-0.28356 -3.7005,-0.57658 -5.54366,-0.87905c-0.97357,-0.16069 -1.94714,-0.32609 -2.9207,-0.49624c-1.82425,-0.32137 -3.19482,-0.60966 -4.11167,-0.86487c0.43479,0.00946 0.8696,0.0189 1.30439,0.02836c2.07002,0.03781 4.14003,0.11342 6.21004,0.22685c6.95675,0.39698 13.89461,1.24296 20.81356,2.53789c1.1437,0.2174 2.16453,0.43479 3.06248,0.6522c0.97357,0.09451 1.95186,0.20794 2.93488,0.34028c0.26466,0.07561 0.53405,0.15123 0.80815,0.22685c0.78453,0.22685 1.56432,0.4726 2.3394,0.73726c1.43672,0.48206 2.84981,1.02556 4.23927,1.63048c2.7033,1.17207 5.331,2.5568 7.88307,4.15421c0.64275,0.41589 1.28549,0.84124 1.92824,1.27604c3.04358,2.03221 5.87922,4.30071 8.5069,6.80552c0.71836,0.68055 1.41309,1.38001 2.08419,2.09837c0.05671,0.05671 0.1087,0.11342 0.15596,0.17013c1.60686,1.69193 3.16645,3.43584 4.6788,5.23174c1.80536,2.13618 3.60126,4.30071 5.38771,6.49361c2.4481,3.01523 4.87729,6.06826 7.28758,9.1591c2.62769,3.37441 5.22702,6.75354 7.798,10.13739c1.90933,2.51427 3.79503,5.01907 5.6571,7.51443c0.50097,0.68055 1.01138,1.36583 1.53124,2.05583c0.82233,1.1248 1.65412,2.24961 2.49536,3.37441c0.76563,1.03028 1.54069,2.05111 2.32522,3.06248c-0.18904,0.10397 -0.37808,0.21267 -0.56713,0.32609M271.53172,262.08175c1.06809,1.26658 2.15981,2.53317 3.27516,3.79976c0.6711,0.74672 1.11535,1.31385 1.33275,1.70138c0.10397,0.17959 0.14178,0.33082 0.11342,0.4537c-0.02836,0.10397 -0.08507,0.17959 -0.17013,0.22685c-0.09451,0.03781 -0.22212,0.04727 -0.38281,0.02836c-0.2552,-0.02836 -0.51041,-0.14178 -0.76563,-0.34028c-0.17013,-0.13232 -0.38754,-0.345 -0.6522,-0.63802l-3.19009,-3.71468c-0.24575,-0.28356 -0.46788,-0.54822 -0.66637,-0.79398c-0.20794,-0.27411 -0.40171,-0.51986 -0.5813,-0.73726c-0.36863,-0.49151 -0.86014,-1.19569 -1.47453,-2.11255l-0.7798,-1.19097c-0.04727,0.02836 -0.09451,0.06143 -0.14178,0.09924c-0.2363,-0.29301 -0.46316,-0.58603 -0.68055,-0.87905c-0.49151,-0.63329 -0.9783,-1.26658 -1.46035,-1.89987c-0.26466,-0.34973 -0.52932,-0.69945 -0.79398,-1.04919c-2.29687,-3.06248 -4.55592,-6.1486 -6.77717,-9.25835c-2.22125,-3.10029 -4.44722,-6.21004 -6.67793,-9.32924c-2.2118,-3.10029 -4.44722,-6.18641 -6.70628,-9.25835c-2.18344,-2.96797 -4.39524,-5.89812 -6.63539,-8.79047c-2.09837,-2.73166 -4.24873,-5.40662 -6.45107,-8.02485c-2.04165,-2.41029 -4.15893,-4.76387 -6.35182,-7.06073c-0.32137,-0.33082 -0.63329,-0.66164 -0.93576,-0.99248c-0.28356,-0.29301 -0.55767,-0.58603 -0.82233,-0.87905c-0.52932,-0.52932 -1.07754,-1.03028 -1.64467,-1.50289c-1.20042,-1.01138 -2.89708,-2.18817 -5.08996,-3.53037c-9.77349,-6.01155 -20.10938,-10.84158 -31.00767,-14.49009c-5.50113,-1.84316 -11.04479,-3.35078 -16.631,-4.52283c-4.50866,-0.94521 -9.0504,-1.66829 -13.62523,-2.16926c-0.84124,-0.09451 -1.6872,-0.17959 -2.53789,-0.2552c-0.12288,-0.0189 -0.24575,-0.03308 -0.36863,-0.04253c0.13232,-0.02836 0.26939,-0.05199 0.41117,-0.07089c0.78453,-0.12288 1.71083,-0.17486 2.77893,-0.15596c0.41589,0.00946 0.86014,0.02836 1.33275,0.05671c2.27796,0.16069 4.8253,0.51514 7.64204,1.06337c1.18151,0.22685 2.79309,0.57658 4.83476,1.04919c0.84124,0.18904 1.76282,0.40171 2.76474,0.63802c3.63907,0.8696 6.28093,1.51707 7.9256,1.94241c2.93961,0.75617 5.55785,1.50761 7.85471,2.25433c10.53911,3.42167 21.71151,9.0504 33.5172,16.8862c0.07561,0.04727 0.1465,0.09451 0.21267,0.14178c-0.00946,-0.0189 -0.0189,-0.03781 -0.02836,-0.05671c-0.0189,-0.03781 -0.03308,-0.07561 -0.04253,-0.11342c-0.03781,-0.12288 -0.06143,-0.24103 -0.07089,-0.35446c0.06617,0.05671 0.13706,0.11815 0.21267,0.18431c0.16069,0.15123 0.27411,0.3639 0.34028,0.63802c0.87905,0.66164 1.47926,1.31385 1.80063,1.95659c0.29301,0.26466 0.59075,0.53405 0.89322,0.80815c1.20042,1.11535 2.34412,2.29214 3.43111,3.53037c2.40084,2.7033 4.72606,5.46332 6.97566,8.28006c2.42919,3.03413 4.8064,6.09189 7.13162,9.17328c2.2118,2.93016 4.40468,5.88867 6.57867,8.87554c2.00385,2.76002 4.01715,5.54366 6.0399,8.35094c1.92824,2.6844 3.85174,5.34517 5.77052,7.98232c1.87152,2.55207 3.77139,5.09942 5.69963,7.64204c0.09451,0.12288 0.18904,0.24103 0.28356,0.35446c0.10397,0.08507 0.21267,0.1985 0.32609,0.34028c0.27411,0.34973 0.55295,0.70418 0.83652,1.06337c1.23822,1.55959 2.51427,3.12393 3.82811,4.69298M256.77224,116.0749c-3.7903,-2.16453 -6.92368,-3.83757 -9.40013,-5.01907c-4.41414,-2.11727 -9.27725,-3.95571 -14.58935,-5.51532c-0.69945,-0.20794 -1.40836,-0.41117 -2.12672,-0.60966c-4.99072,-1.37056 -10.78487,-2.61824 -17.38244,-3.74304c-0.1985,-0.03781 -0.37336,-0.07089 -0.52459,-0.09924c-0.28356,-0.05671 -0.51514,-0.11342 -0.69473,-0.17013c-0.44425,-0.13232 -0.81761,-0.31665 -1.12008,-0.55295c0.31192,-0.26466 0.73253,-0.42062 1.26186,-0.46788c0.34973,-0.02836 0.82233,0 1.41781,0.08507c7.22141,0.95467 14.07893,2.45755 20.57254,4.50866c5.86976,1.85262 11.44179,4.15421 16.71607,6.90478c1.21932,0.63329 5.04743,2.81674 11.48432,6.55032c4.6599,2.69385 8.57307,4.68352 11.73953,5.96901c4.33852,1.75809 8.79047,2.94906 13.35584,3.5729c0.59548,0.08507 0.89795,0.28829 0.90741,0.60966c0.00946,0.1985 -0.15596,0.39227 -0.49624,0.5813c-0.6522,0.32137 -1.42255,0.52932 -2.31104,0.62384c-0.66164,0.06617 -1.48398,0.08034 -2.467,0.04253c-3.61071,-0.14178 -7.19306,-0.69001 -10.74706,-1.64467l22.31644,9.64117c0.50097,0.1985 0.85069,0.41589 1.04919,0.6522c0.08507,0.11342 0.1465,0.24103 0.18431,0.38281c3.83757,1.38946 7.75546,2.49536 11.75371,3.31769c3.10029,0.62384 6.21949,1.17207 9.3576,1.64467c3.58235,0.53877 7.15998,1.05391 10.73288,1.54542c1.31385,0.18904 2.56625,0.54349 3.75722,1.06337c0.14178,0.04727 0.22212,0.13706 0.24103,0.26939c-0.00946,0.03781 -0.02362,0.06617 -0.04253,0.08507c-0.58603,0.81288 -1.37056,1.43672 -2.35358,1.87152c-2.24015,1.01138 -4.56064,1.80536 -6.96149,2.38193c-1.94714,0.49151 -3.94626,0.82706 -5.99737,1.00665c-3.83757,0.29301 -7.67985,0.25993 -11.52685,-0.09924c-3.03413,-0.29301 -6.0588,-0.69001 -9.07404,-1.19097c0.50097,0.29301 1.01138,0.58603 1.53124,0.87905c2.467,1.38001 4.90092,2.84036 7.30176,4.38105c3.52564,2.25906 6.97094,4.64572 10.33589,7.15998c2.16453,1.62577 4.27236,3.31769 6.32346,5.07579c2.7033,2.34412 5.27901,4.82058 7.72711,7.42937c1.85262,1.98494 3.65797,4.03605 5.41606,6.15333c0.60494,0.72782 1.04919,1.54542 1.33275,2.45283c0.17013,0.51041 -0.00472,0.8696 -0.52459,1.07754c-0.16069,-0.03781 -0.31192,-0.08507 -0.4537,-0.14178c-1.84316,-0.82233 -3.62489,-1.83844 -5.34517,-3.04831c-3.15701,-2.22125 -6.39908,-4.29598 -9.72622,-6.22422c-2.38193,-1.38946 -4.79222,-2.7222 -7.23087,-3.99824c-1.96604,-1.02083 -3.93681,-2.02275 -5.9123,-3.00577c0.34973,0.38754 0.69945,0.77507 1.04919,1.16261c1.00192,1.09645 1.97549,2.21652 2.9207,3.36022c0.69945,0.84124 1.38474,1.69666 2.05583,2.56625c2.57097,3.3366 4.9151,6.85279 7.03238,10.54856c1.24768,2.18344 2.40557,4.39524 3.47365,6.63539c0.54822,1.15316 0.90268,2.3394 1.06337,3.55872c0.03781,0.27411 -0.06617,0.4726 -0.31192,0.59548c-0.02836,0.00946 -0.05199,0.00946 -0.07089,0c-1.10589,-0.75617 -2.11255,-1.67302 -3.01995,-2.75057c-2.76002,-3.28933 -5.77997,-6.35655 -9.05985,-9.20163c-1.7959,-1.56905 -3.61071,-3.10029 -5.44443,-4.59372c0.28356,0.44425 0.5813,0.8885 0.89322,1.33275c0.99248,1.45562 1.99913,2.89708 3.01995,4.32435c0.91686,1.29494 1.84789,2.58043 2.79309,3.85646c3.30824,4.49921 6.76299,8.90389 10.36424,13.21406c2.08892,2.48591 4.23455,4.934 6.43689,7.34429c0.39698,0.44425 0.80815,0.89322 1.2335,1.34692c0.71836,0.77507 1.44146,1.55015 2.16926,2.32522c1.28549,1.36111 2.59461,2.70804 3.92735,4.04078c0.95467,0.94521 1.91405,1.88097 2.87817,2.80728c0.03781,0.03781 0.07089,0.07089 0.09924,0.09924c0.05671,0.05671 0.12288,0.11815 0.1985,0.18431c-0.74672,0.31192 -1.4887,0.62856 -2.22598,0.94994c-0.08507,-0.09451 -0.17486,-0.17959 -0.26939,-0.2552c-0.02836,-0.03781 -0.05671,-0.07089 -0.08507,-0.09924c-0.70891,-0.66164 -1.39891,-1.33275 -2.07002,-2.0133c-1.45562,-1.43672 -2.88289,-2.89708 -4.28182,-4.38105c-0.46316,-0.49151 -0.92631,-0.98775 -1.38946,-1.4887c-0.76563,-0.84124 -1.52651,-1.69193 -2.28269,-2.55207c-1.38946,-1.5785 -2.75529,-3.18064 -4.09749,-4.8064c-1.64467,-2.0133 -3.25625,-4.05496 -4.83476,-6.12497c-1.58796,-2.07946 -3.13337,-4.19202 -4.63626,-6.33765c-1.92824,-2.77893 -3.81866,-5.58147 -5.67127,-8.40767c-1.25713,-1.92824 -2.50481,-3.84228 -3.74304,-5.74216c-0.2552,-0.40644 -0.49624,-0.80815 -0.72309,-1.20515c-0.30247,-0.49151 -0.70891,-0.93103 -1.21932,-1.31857l-11.65446,-9.52774l-0.48206,-0.68055c0.04727,-0.11342 0.11342,-0.21267 0.1985,-0.29774c0.32137,-0.31192 0.66637,-0.33082 1.035,-0.05671c3.1192,2.18344 6.15806,4.51339 9.11657,6.98983c2.33468,1.95659 4.64099,3.94626 6.91894,5.96901c2.52372,2.25906 5.02853,4.54647 7.51443,6.86224c2.28741,2.11727 4.53702,4.29598 6.74882,6.53615c-0.32137,-0.63329 -0.64275,-1.26658 -0.96411,-1.89987c-1.5974,-3.18536 -3.39331,-6.2573 -5.38771,-9.21582c-2.43865,-3.62016 -5.15613,-7.00402 -8.15245,-10.15157c-2.07002,-2.15508 -4.17312,-4.26291 -6.30929,-6.32346c-0.06617,-0.06617 -0.11815,-0.14178 -0.15596,-0.22685c0,-0.02836 0.00946,-0.05199 0.02836,-0.07089c0.18904,-0.29301 0.47733,-0.35918 0.86487,-0.1985c3.39331,1.31385 6.69682,2.85454 9.91054,4.62209c2.18344,1.20042 4.36215,2.41502 6.53615,3.64379c2.67496,1.50289 5.30736,3.06721 7.89724,4.69298c0.16069,0.10397 0.32609,0.21267 0.49624,0.32609c2.30631,1.46508 4.57955,2.94906 6.81971,4.45194c-0.27411,-0.38754 -0.54822,-0.77507 -0.82233,-1.16261c-1.37056,-1.98494 -2.89708,-3.85174 -4.57955,-5.60038c-2.85454,-2.93961 -5.85086,-5.73744 -8.98896,-8.39348c-3.43111,-2.91125 -7.00874,-5.62874 -10.73288,-8.15245c-4.01715,-2.73166 -8.13355,-5.24593 -12.34919,-7.54279c-1.55015,-0.84124 -3.14283,-1.47926 -4.77804,-1.91405c-0.76563,-0.2174 -1.17207,-0.63329 -1.21932,-1.24768c-0.04727,-0.44425 0.16541,-0.60966 0.63802,-0.49624c8.61088,1.89987 17.22175,2.48591 25.83263,1.75809c2.61824,-0.2174 5.16558,-0.72782 7.64204,-1.53124c1.37056,-0.4726 2.72694,-1.01611 4.06913,-1.63048c-0.76563,-0.11342 -1.52651,-0.22685 -2.28269,-0.34028c-0.52932,-0.07561 -1.05391,-0.15123 -1.57378,-0.22685c-2.93016,-0.43479 -5.84141,-0.91686 -8.73376,-1.44617c-4.50866,-0.77507 -8.97951,-1.70138 -13.41256,-2.77893c-2.35358,-0.54822 -4.63626,-1.28077 -6.84805,-2.19761c-1.61631,-0.68055 -3.21844,-1.39891 -4.8064,-2.15508c-0.48206,-0.2363 -0.97357,-0.48206 -1.47453,-0.73726c0.2363,-0.05671 0.4726,-0.1087 0.70891,-0.15596c-2.24961,-1.15316 -6.49834,-3.02467 -12.74618,-5.61455c-5.50113,-2.27796 -9.74986,-4.38105 -12.74618,-6.30929c-0.28356,-0.17959 -0.43008,-0.35918 -0.43952,-0.53877c0,-0.2174 0.14178,-0.34028 0.42535,-0.36863c0.2363,-0.02836 0.48678,0.01418 0.75144,0.12761c3.24207,1.51235 6.62121,2.61824 10.13739,3.31769c3.49729,0.69001 6.99929,0.95467 10.50603,0.79398c-3.16645,-0.35918 -6.49834,-1.18151 -9.99561,-2.467c-0.06617,-0.0189 -0.13232,-0.04253 -0.1985,-0.07089c-2.91125,-1.087 -6.13442,-2.5757 -9.66951,-4.46613c-1.16261,-0.62384 -4.25345,-2.37721 -9.27252,-5.26011M260.51528,195.51522l0.17013,0.42535c-0.34973,0.66164 -0.58603,1.39891 -0.70891,2.2118c-0.14178,0.82233 -0.56713,1.38946 -1.27604,1.70138c-0.18904,0.06617 -0.39227,0.10397 -0.60966,0.11342c-1.7959,-0.82233 -3.05775,-2.17399 -3.78557,-4.05496c-0.13232,-0.33082 -0.26466,-0.65692 -0.39698,-0.9783l0.42535,-0.12761c0.97357,1.76755 2.26379,3.25625 3.87065,4.46613c0.70891,-0.08507 1.18151,-0.46788 1.41781,-1.14843c0.18904,-0.54822 0.28356,-1.13899 0.28356,-1.77227c0.00946,-0.38754 0.21267,-0.66637 0.60966,-0.83652M269.57514,192.38184c2.58043,3.28933 4.06441,6.8717 4.45194,10.74706c0.08507,0.90741 -0.32137,1.40836 -1.21932,1.50289c-0.2363,-0.00946 -0.4726,-0.01418 -0.70891,-0.01418c-4.09277,-0.58603 -6.82916,-2.95851 -8.20917,-7.11744c-0.17959,-0.54822 -0.31665,-1.10118 -0.41117,-1.65885c-0.08507,-0.55767 -0.12761,-1.12008 -0.12761,-1.6872c1.44617,4.31016 4.18728,7.20724 8.22333,8.69122c0.34028,0.13232 0.68055,0.1465 1.02083,0.04253c-1.087,-3.60126 -2.35358,-7.15052 -3.79976,-10.64781l0.7798,0.14178M282.3355,183.47795c1.50289,0.0189 2.97269,0.71364 4.40941,2.08419c1.53124,1.46508 3.07666,2.91597 4.63626,4.3527c1.56905,1.43672 2.13618,3.10029 1.70138,4.99072c-3.20426,-0.03781 -6.01155,-1.35166 -8.42183,-3.94154c-0.13232,-0.13232 -0.25993,-0.26939 -0.38281,-0.41117c-0.66164,-0.76563 -1.49343,-1.28549 -2.49536,-1.55959c0.93576,0.70891 1.79117,1.46035 2.56625,2.25433c2.30631,2.38193 3.88482,5.17504 4.73551,8.3793c0.08507,0.29301 0.00946,0.52932 -0.22685,0.70891c-2.17399,1.73919 -4.58428,1.62104 -7.23087,-0.35446c-3.43111,-2.58043 -6.01627,-5.73271 -7.75546,-9.45685c-0.02836,-0.07561 -0.00946,-0.17013 0.05671,-0.28356c2.0133,3.5729 4.73079,6.53142 8.15245,8.87554c1.88097,1.27604 3.87537,1.66829 5.98319,1.17679c-0.04727,-3.60126 -1.76755,-6.71573 -5.16085,-9.34342c-1.03028,-0.80343 -2.03221,-1.62577 -3.00577,-2.467c1.27604,-1.04919 2.62769,-0.74199 4.05496,0.92158c2.37249,2.75057 5.2223,4.39051 8.54944,4.91983c-0.28356,-2.22125 -1.432,-4.06441 -3.4453,-5.52949c-1.1248,-0.83179 -2.24961,-1.7061 -3.37441,-2.62296c-1.10589,-0.90741 -2.22125,-1.80536 -3.34605,-2.69385z" fill="#000000"/><path d="M269.84452,262.06758c0.17959,0.2174 0.37336,0.46316 0.5813,0.73726c0.1985,0.24575 0.42062,0.51041 0.66637,0.79398l3.19009,3.71468c0.26466,0.29301 0.48206,0.50569 0.6522,0.63802c0.2552,0.1985 0.51041,0.31192 0.76563,0.34028c0.16069,0.0189 0.28829,0.00946 0.38281,-0.02836l0.05671,0.18431c-5.63346,1.78645 -11.05425,3.27988 -16.26237,4.4803c-5.10415,1.18151 -8.62033,1.77227 -10.54856,1.77227c-0.54822,0 -1.39891,-0.14178 -2.55207,-0.42535h-0.53877l-0.01418,-0.32609c-0.78453,-1.01138 -1.55959,-2.03221 -2.32522,-3.06248c-0.84124,-1.1248 -1.67302,-2.24961 -2.49536,-3.37441c-0.51986,-0.69001 -1.03028,-1.37528 -1.53124,-2.05583c-1.86206,-2.49536 -3.74777,-5.00018 -5.6571,-7.51443c-2.57097,-3.38386 -5.17031,-6.76299 -7.798,-10.13739c-2.41029,-3.09084 -4.83949,-6.14388 -7.28758,-9.1591c-1.78645,-2.19289 -3.58235,-4.35743 -5.38771,-6.49361c-1.51235,-1.7959 -3.07194,-3.53982 -4.6788,-5.23174c-0.04727,-0.05671 -0.09924,-0.11342 -0.15596,-0.17013c-0.6711,-0.71836 -1.36583,-1.41781 -2.08419,-2.09837c-2.62769,-2.50481 -5.46332,-4.77332 -8.5069,-6.80552c-0.64275,-0.43479 -1.28549,-0.86014 -1.92824,-1.27604c-2.55207,-1.5974 -5.17976,-2.98214 -7.88307,-4.15421c-1.38946,-0.60494 -2.80255,-1.14843 -4.23927,-1.63048c-0.77507,-0.26466 -1.55487,-0.51041 -2.3394,-0.73726c-0.27411,-0.07561 -0.54349,-0.15123 -0.80815,-0.22685c-0.98302,-0.13232 -1.96132,-0.24575 -2.93488,-0.34028c-0.89795,-0.2174 -1.91878,-0.43479 -3.06248,-0.6522c-6.91894,-1.29494 -13.85681,-2.14091 -20.81356,-2.53789c-2.07002,-0.11342 -4.14003,-0.18904 -6.21004,-0.22685l-0.02836,-0.53877c-0.48206,-3.52564 -0.40644,-7.66566 0.22685,-12.42008c0.07561,-0.62384 0.16541,-1.25713 0.26939,-1.89987c0.26466,-1.67302 0.58603,-3.37441 0.96411,-5.10415c0.78453,-3.60126 1.81481,-7.31121 3.09084,-11.12987c0.85069,0.07561 1.69666,0.16069 2.53789,0.2552c4.57483,0.50097 9.11657,1.22405 13.62523,2.16926c5.58621,1.17207 11.12987,2.67967 16.631,4.52283c10.89829,3.64852 21.23418,8.47855 31.00767,14.49009c2.19289,1.3422 3.88955,2.51899 5.08996,3.53037c0.56713,0.4726 1.11535,0.97357 1.64467,1.50289c0.26466,0.29301 0.53877,0.58603 0.82233,0.87905c0.30247,0.33082 0.61439,0.66164 0.93576,0.99248c2.19289,2.29687 4.31016,4.65044 6.35182,7.06073c2.20234,2.61824 4.3527,5.29319 6.45107,8.02485c2.24015,2.89235 4.45194,5.82251 6.63539,8.79047c2.25906,3.07194 4.49448,6.15806 6.70628,9.25835c2.2307,3.1192 4.45667,6.22895 6.67793,9.32924c2.22125,3.10975 4.4803,6.19587 6.77717,9.25835c0.26466,0.34973 0.52932,0.69945 0.79398,1.04919c0.48206,0.63329 0.96884,1.26658 1.46035,1.89987c0.2174,0.29301 0.44425,0.58603 0.68055,0.87905c0.04727,-0.03781 0.09451,-0.07089 0.14178,-0.09924l0.7798,1.19097c0.61439,0.91686 1.10589,1.62104 1.47453,2.11255z" fill="#cccccc"/><path d="M266.04477,121.335c3.5351,1.89043 6.75827,3.37913 9.66951,4.46613c0.06617,0.02836 0.13232,0.05199 0.1985,0.07089c3.49729,1.28549 6.82916,2.10782 9.99561,2.467c-3.50673,0.16069 -7.00874,-0.10397 -10.50603,-0.79398c-3.51619,-0.69945 -6.89532,-1.80536 -10.13739,-3.31769c-0.26466,-0.11342 -0.51514,-0.15596 -0.75144,-0.12761c-0.28356,0.02836 -0.42535,0.15123 -0.42535,0.36863c0.00946,0.17959 0.15596,0.35918 0.43952,0.53877c2.99632,1.92824 7.24505,4.03133 12.74618,6.30929c6.24785,2.58988 10.49658,4.4614 12.74618,5.61455c-0.2363,0.04727 -0.4726,0.09924 -0.70891,0.15596c0.50097,0.2552 0.99248,0.50097 1.47453,0.73726c1.58796,0.75617 3.19009,1.47453 4.8064,2.15508c2.2118,0.91686 4.49448,1.64939 6.84805,2.19761c4.43304,1.07754 8.90389,2.00385 13.41256,2.77893c2.89235,0.52932 5.8036,1.01138 8.73376,1.44617c0.51986,0.07561 1.04446,0.15123 1.57378,0.22685c0.75617,0.11342 1.51707,0.22685 2.28269,0.34028c-1.3422,0.61439 -2.69858,1.15789 -4.06913,1.63048c-2.47646,0.80343 -5.0238,1.31385 -7.64204,1.53124c-8.61088,0.72782 -17.22175,0.14178 -25.83263,-1.75809c-0.4726,-0.11342 -0.68528,0.05199 -0.63802,0.49624c0.04727,0.61439 0.4537,1.03028 1.21932,1.24768c1.63521,0.43479 3.2279,1.07281 4.77804,1.91405c4.21564,2.29687 8.33204,4.81113 12.34919,7.54279c3.72414,2.52372 7.30176,5.2412 10.73288,8.15245c3.1381,2.65605 6.13442,5.45386 8.98896,8.39348c1.68247,1.74864 3.20899,3.61543 4.57955,5.60038c0.27411,0.38754 0.54822,0.77507 0.82233,1.16261c-2.24015,-1.50289 -4.51339,-2.98686 -6.81971,-4.45194c-0.17013,-0.11342 -0.33555,-0.22212 -0.49624,-0.32609c-2.58988,-1.62577 -5.2223,-3.19009 -7.89724,-4.69298c-2.17399,-1.22878 -4.3527,-2.44338 -6.53615,-3.64379c-3.21372,-1.76755 -6.51724,-3.30824 -9.91054,-4.62209c-0.38754,-0.16069 -0.67583,-0.09451 -0.86487,0.1985c-0.0189,0.0189 -0.02836,0.04253 -0.02836,0.07089c0.03781,0.08507 0.0898,0.16069 0.15596,0.22685c2.13618,2.06056 4.23927,4.16838 6.30929,6.32346c2.99632,3.14755 5.7138,6.53142 8.15245,10.15157c1.9944,2.95851 3.7903,6.03045 5.38771,9.21582c0.32137,0.63329 0.64275,1.26658 0.96411,1.89987c-2.2118,-2.24015 -4.4614,-4.41886 -6.74882,-6.53615c-2.48591,-2.31577 -4.99072,-4.60318 -7.51443,-6.86224c-2.27796,-2.02275 -4.58428,-4.01243 -6.91894,-5.96901c-2.95851,-2.47646 -5.99737,-4.8064 -9.11657,-6.98983c-0.36863,-0.27411 -0.71364,-0.2552 -1.035,0.05671c-0.08507,0.08507 -0.15123,0.18431 -0.1985,0.29774l0.48206,0.68055l11.65446,9.52774c0.51041,0.38754 0.91686,0.82706 1.21932,1.31857c0.22685,0.39698 0.46788,0.79871 0.72309,1.20515c1.23822,1.89987 2.48591,3.81393 3.74304,5.74216c1.85262,2.82619 3.74304,5.62874 5.67127,8.40767c1.50289,2.14563 3.04831,4.25817 4.63626,6.33765c1.5785,2.07002 3.19009,4.11167 4.83476,6.12497c1.3422,1.62577 2.70804,3.2279 4.09749,4.8064c0.75617,0.86014 1.51707,1.71083 2.28269,2.55207c0.46316,0.50097 0.92631,0.9972 1.38946,1.4887c1.39891,1.48398 2.82619,2.94433 4.28182,4.38105c0.6711,0.68055 1.36111,1.35166 2.07002,2.0133c-2.07002,4.39524 -4.48975,8.34622 -7.25922,11.85296c-4.29125,5.43497 -10.55801,11.49377 -18.80026,18.17642c-5.89812,4.78277 -14.99579,9.39068 -27.29299,13.82372c-2.24961,0.81288 -4.60791,1.61631 -7.07491,2.41029l-1.02083,-0.04253c0.02836,-0.12288 -0.00946,-0.27411 -0.11342,-0.4537c-0.2174,-0.38754 -0.66164,-0.95467 -1.33275,-1.70138c-1.11535,-1.26658 -2.20707,-2.53317 -3.27516,-3.79976c-1.31385,-1.56905 -2.58988,-3.13337 -3.82811,-4.69298c-0.28356,-0.35918 -0.5624,-0.71364 -0.83652,-1.06337c-0.11342,-0.14178 -0.22212,-0.2552 -0.32609,-0.34028c-0.09451,-0.11342 -0.18904,-0.23158 -0.28356,-0.35446c-1.92824,-2.54262 -3.82811,-5.08996 -5.69963,-7.64204c-1.91878,-2.63715 -3.84228,-5.29792 -5.77052,-7.98232c-2.02275,-2.80728 -4.03605,-5.59093 -6.0399,-8.35094c-2.17399,-2.98686 -4.36687,-5.94538 -6.57867,-8.87554c-2.32522,-3.08139 -4.70242,-6.13915 -7.13162,-9.17328c-2.24961,-2.81674 -4.57483,-5.57675 -6.97566,-8.28006c-1.087,-1.23822 -2.2307,-2.41502 -3.43111,-3.53037c-0.30247,-0.27411 -0.60021,-0.54349 -0.89322,-0.80815c-0.32137,-0.64275 -0.92158,-1.29494 -1.80063,-1.95659c-0.06617,-0.27411 -0.17959,-0.48678 -0.34028,-0.63802c-0.07561,-0.06617 -0.1465,-0.12761 -0.21267,-0.18431c0.00946,0.11342 0.03308,0.23158 0.07089,0.35446l-0.14178,0.02836c-11.8057,-7.83581 -22.9781,-13.46455 -33.5172,-16.8862c-2.29687,-0.74672 -4.9151,-1.49816 -7.85471,-2.25433c-1.64467,-0.42535 -4.28654,-1.07281 -7.9256,-1.94241c-1.00192,-0.2363 -1.92351,-0.44897 -2.76474,-0.63802c-2.04165,-0.4726 -3.65324,-0.82233 -4.83476,-1.04919c-2.81674,-0.54822 -5.36408,-0.90268 -7.64204,-1.06337c-0.4726,-0.02836 -0.91686,-0.04727 -1.33275,-0.05671c-1.06809,-0.0189 -1.9944,0.03308 -2.77893,0.15596c0.09451,-0.29301 0.19377,-0.5813 0.29774,-0.86487c2.12672,-6.16278 4.70242,-12.09398 7.72711,-17.79361c3.20426,-6.03045 6.69682,-11.38507 10.47767,-16.06387c5.74689,-7.11744 9.59862,-11.84351 11.55522,-14.17818c4.13058,-4.90565 7.75546,-8.91335 10.87467,-12.02309c3.45948,-3.43111 6.78662,-6.21477 9.98144,-8.35094c2.69385,-1.81481 5.29792,-3.16645 7.81217,-4.05496c0.26466,-0.09451 0.53405,-0.18431 0.80815,-0.26939c0.17959,-0.05671 0.3639,-0.11342 0.55295,-0.17013c0.15123,0.02836 0.32609,0.06143 0.52459,0.09924c6.59758,1.1248 12.39173,2.37249 17.38244,3.74304c0.71836,0.1985 1.42727,0.40171 2.12672,0.60966c5.31209,1.55959 10.1752,3.39803 14.58935,5.51532c2.47646,1.18151 5.60983,2.85454 9.40013,5.01907c5.01907,2.88289 8.10992,4.63626 9.27252,5.26011M289.05596,188.79476c2.0133,1.46508 3.16174,3.30824 3.4453,5.52949c-3.32714,-0.52932 -6.17696,-2.16926 -8.54944,-4.91983c-1.42727,-1.66358 -2.77893,-1.97076 -4.05496,-0.92158c0.97357,0.84124 1.97549,1.66358 3.00577,2.467c3.39331,2.62769 5.11359,5.74216 5.16085,9.34342c-2.10782,0.49151 -4.10222,0.09924 -5.98319,-1.17679c-3.42167,-2.34412 -6.13915,-5.30264 -8.15245,-8.87554c-0.06617,0.11342 -0.08507,0.20794 -0.05671,0.28356c1.73919,3.72414 4.32435,6.87641 7.75546,9.45685c2.64659,1.97549 5.05688,2.09364 7.23087,0.35446c0.2363,-0.17959 0.31192,-0.41589 0.22685,-0.70891c-0.85069,-3.20426 -2.42919,-5.99737 -4.73551,-8.3793l0.31192,-0.28356c2.41029,2.58988 5.21757,3.90373 8.42183,3.94154c0.43479,-1.89043 -0.13232,-3.554 -1.70138,-4.99072c-1.55959,-1.43672 -3.10502,-2.88763 -4.63626,-4.3527c-1.43672,-1.37056 -2.90652,-2.06529 -4.40941,-2.08419c1.1248,0.8885 2.24015,1.78645 3.34605,2.69385c1.1248,0.91686 2.24961,1.79117 3.37441,2.62296M268.79533,192.24006c1.44617,3.49729 2.71276,7.04655 3.79976,10.64781c-0.34028,0.10397 -0.68055,0.0898 -1.02083,-0.04253c-4.03605,-1.48398 -6.77717,-4.38105 -8.22333,-8.69122c0,0.56713 0.04253,1.12953 0.12761,1.6872c0.09451,0.55767 0.23158,1.11062 0.41117,1.65885c1.38001,4.15893 4.11639,6.53142 8.20917,7.11744c0.2363,0 0.4726,0.00472 0.70891,0.01418c0.89795,-0.09451 1.30439,-0.59548 1.21932,-1.50289c-0.38754,-3.87537 -1.87152,-7.45772 -4.45194,-10.74706l-0.7798,-0.14178M259.62205,198.12401c-0.2363,0.68055 -0.70891,1.06337 -1.41781,1.14843c-1.60686,-1.20988 -2.89708,-2.69858 -3.87065,-4.46613l-0.42535,0.12761c0.13232,0.32137 0.26466,0.64747 0.39698,0.9783c0.72782,1.88097 1.98967,3.23263 3.78557,4.05496c0.2174,-0.00946 0.42062,-0.04727 0.60966,-0.11342c0.70891,-0.31192 1.13426,-0.87905 1.27604,-1.70138c0.12288,-0.81288 0.35918,-1.55015 0.70891,-2.2118l-0.17013,-0.42535c-0.39698,0.17013 -0.60021,0.44897 -0.60966,0.83652c0,0.63329 -0.09451,1.22405 -0.28356,1.77227z" fill="#ffffff"/></g></g></svg>