<svg version="1.1" xmlns="http://www.w3.org/2000/svg" xmlns:xlink="http://www.w3.org/1999/xlink" width="240.63412" height="111.00135" viewBox="0,0,240.63412,111.00135"><g transform="translate(-119.68294,-124.49932)"><g data-paper-data="{&quot;isPaintingLayer&quot;:true}" fill="#000000" fill-rule="nonzero" stroke="none" stroke-width="1" stroke-linecap="butt" stroke-linejoin="miter" stroke-miterlimit="10" stroke-dasharray="" stroke-dashoffset="0" style="mix-blend-mode: normal"><path d="M191.47294,222.10068c0.1349,-0.25299 0.31823,-0.43633 0.55,-0.55c0.25417,-0.09961 0.55417,-0.13294 0.9,-0.1c0.56667,0 1.18333,0.2 1.85,0.6c7.1,3.9 13.06667,6.78333 17.9,8.65c6.7,2.56667 13,3.93333 18.9,4.1c0.16667,0.2 0.1,0.35 -0.2,0.45c-0.3,0.16667 -0.61667,0.25 -0.95,0.25l-8.45,-0.75c-3.3,-0.33333 -5.71667,-0.63333 -7.25,-0.9c-2.7,-0.33333 -5.1,-0.83333 -7.2,-1.5c-5.5,-1.5 -10.46667,-4.11667 -14.9,-7.85c-1.06667,-0.86667 -1.45,-1.66667 -1.15,-2.4M198.07294,174.20068c-1.66667,2 -3.71667,4.91667 -6.15,8.75c-2.13333,3.26667 -3.66667,5.9 -4.6,7.9c-0.4,0.93333 -0.88333,2.15 -1.45,3.65c-0.33333,1.03333 -0.75,2.6 -1.25,4.7l-0.5,1.8c-0.3,1.46667 -0.36667,2.58333 -0.2,3.35c-0.2,0.1 -0.36667,0.06667 -0.5,-0.1c-0.2,-0.16667 -0.35,-0.35 -0.45,-0.55c-0.1,-0.36667 -0.11667,-1.03333 -0.05,-2l0.3,-3.3c0.03971,-0.27174 0.08971,-0.55508 0.15,-0.85c0.20612,-1.09831 0.52279,-2.24831 0.95,-3.45l0.75,-2.2c0.53333,-1.26667 1.25,-2.78333 2.15,-4.55c1.5,-2.96667 3.2,-5.88333 5.1,-8.75c1.06667,-1.66667 2.16667,-3.26667 3.3,-4.8c2.3,-3.1 4.56667,-5.63333 6.8,-7.6c0.27643,-0.24922 0.5431,-0.49922 0.8,-0.75c0.3832,-0.29401 0.74987,-0.59401 1.1,-0.9c2.86068,-2.27487 5.89401,-4.09154 9.1,-5.45l0.55,0.55c-0.43333,0.46667 -1.01667,0.93333 -1.75,1.4c-0.86667,0.53333 -1.51667,0.9 -1.95,1.1c-1.23333,0.76667 -2.71667,2.03333 -4.45,3.8c-3.36667,3.2 -5.95,5.95 -7.75,8.25M360.02294,156.40068c0.33333,0.26667 0.38333,0.65 0.15,1.15c-0.03333,0 -0.31667,0.26667 -0.85,0.8c-1.1,0.86667 -2.3,2.28333 -3.6,4.25c-1.63333,2.4 -2.73333,3.91667 -3.3,4.55c-0.72266,0.80482 -1.55599,1.55482 -2.5,2.25c-0.96602,0.75742 -2.04935,1.45742 -3.25,2.1c-0.38099,0.20313 -0.81432,0.41979 -1.3,0.65c-1.37839,0.66302 -3.16172,1.42969 -5.35,2.3c-0.23086,0.08711 -0.46419,0.17044 -0.7,0.25c-1.31953,0.49831 -2.50286,0.91497 -3.55,1.25c-0.09063,0.03216 -0.19062,0.06549 -0.3,0.1c0.2,0.23333 0.41667,0.48333 0.65,0.75c0.23229,0.2694 0.44896,0.50273 0.65,0.7c0.60443,0.57435 1.17109,0.95768 1.7,1.15c-0.29935,0.05378 -0.59935,0.10378 -0.9,0.15c-0.83646,0.1401 -1.68646,0.25677 -2.55,0.35c-1.52773,0.22005 -3.0944,0.38672 -4.7,0.5c-2.43333,0.2 -5.51667,0.25 -9.25,0.15c-5.26667,-0.1 -8.35,-0.16667 -9.25,-0.2c-6.93333,0 -14.73333,0.7 -23.4,2.1c-5.2,0.83333 -12.88333,2.33333 -23.05,4.5l-22.45,4.85c-9.6,2.06667 -16.46667,3.76667 -20.6,5.1c-10.6,3.3 -20.5,8.05 -29.7,14.25c-1.1457,0.74714 -2.11237,1.24714 -2.9,1.5c-0.24753,0.07474 -0.48086,0.12474 -0.7,0.15c-0.66667,0.13333 -1.33333,0.05 -2,-0.25c-0.6,-0.26667 -1.03333,-0.7 -1.3,-1.3c-0.03125,-0.0819 -0.06458,-0.16523 -0.1,-0.25c-0.01823,-0.12969 -0.0349,-0.26302 -0.05,-0.4c-0.0043,-0.08815 -0.0043,-0.18815 0,-0.3c0.02331,-0.74909 0.40664,-1.54909 1.15,-2.4c0.0349,-0.00039 0.05156,-0.01706 0.05,-0.05c0.39089,-0.38281 0.85755,-0.78281 1.4,-1.2c1.33333,-0.93333 2.65,-1.86667 3.95,-2.8c3.63333,-3.96667 8.21667,-7.48333 13.75,-10.55c5.16667,-2.83333 11.78333,-5.6 19.85,-8.3c9.46667,-3.03333 21.31667,-6.3 35.55,-9.8c8.06667,-2 14.16667,-3.36667 18.3,-4.1c7.16667,-1.2 15.33333,-1.88333 24.5,-2.05c5.53333,-0.1 13.73333,-0.01667 24.6,0.25c0.64206,0.02383 1.25872,0.04049 1.85,0.05c0.2612,0 0.5112,0 0.75,0c0.76094,-0.13932 1.5276,-0.32266 2.3,-0.55c0.9069,-0.21419 1.82357,-0.48086 2.75,-0.8c0.83672,-0.28164 1.68672,-0.59831 2.55,-0.95c0.18398,-0.07578 0.36732,-0.15911 0.55,-0.25c1.18034,-0.49753 2.63034,-1.18086 4.35,-2.05c0.63216,-0.29974 1.28216,-0.63307 1.95,-1c0.15313,-0.05755 0.30312,-0.12422 0.45,-0.2c2.43333,-1.23333 4.21667,-2.08333 5.35,-2.55c0.96667,-0.4 2.41667,-0.95 4.35,-1.65c1.66667,-0.7 3.05,-1.43333 4.15,-2.2M142.47294,229.95068c2.96667,-1.76667 5.26667,-3.1 6.9,-4c2.6,-1.43333 5.01667,-2.58333 7.25,-3.45c4.66719,-1.79935 9.10052,-2.54935 13.3,-2.25c0.79961,0.06953 1.58294,0.16953 2.35,0.3c-0.2,0.46667 -0.86667,0.7 -2,0.7c-3.46667,-0.16667 -7.21667,0.46667 -11.25,1.9c-2.4,0.9 -5.93333,2.48333 -10.6,4.75c-2.23333,1.16667 -3.7,2.01667 -4.4,2.55c-0.87734,0.77279 -1.64401,1.38945 -2.3,1.85c-0.3888,0.27148 -0.7388,0.48815 -1.05,0.65c-1.46667,0.9 -2.85,1.11667 -4.15,0.65l5.95,-3.65M131.27294,214.30068c1.24518,-0.5582 2.66185,-1.0582 4.25,-1.5c0.8819,-0.25313 1.81523,-0.48646 2.8,-0.7c0.66667,-0.16667 3.08333,-0.63333 7.25,-1.4c0.76667,-0.13333 1.21667,-0.45 1.35,-0.95c0.7,0.4 1.53333,0.58333 2.5,0.55c0.56667,-0.03333 1.41667,-0.15 2.55,-0.35c5.16667,-0.76667 10.35,-0.9 15.55,-0.4c0.83333,0.06667 1.5,0.25 2,0.55c0.76667,0.4 1.11667,0.95 1.05,1.65c-0.63333,0.06667 -1.4,-0.01667 -2.3,-0.25c-1,-0.26667 -1.78333,-0.45 -2.35,-0.55c-0.96667,-0.2 -2.55,-0.26667 -4.75,-0.2l-2.1,0.05c-1.53333,0.03333 -2.93333,0.11667 -4.2,0.25c-1.16667,0.2 -2.05,0.33333 -2.65,0.4c-1.13333,0.1 -2.06667,0.06667 -2.8,-0.1c-0.6,-0.06667 -1.01667,-0.1 -1.25,-0.1c-0.2,0.03333 -0.68333,0.26667 -1.45,0.7c-0.83333,0.5 -1.93333,0.85 -3.3,1.05c-2.13333,0.36667 -3.36667,0.6 -3.7,0.7c-0.86914,0.2556 -2.00247,0.77227 -3.4,1.55c-0.42604,0.24583 -0.87604,0.5125 -1.35,0.8l-8.15,5c-0.42995,0.25365 -0.84661,0.48698 -1.25,0.7c-0.74232,0.43229 -1.39232,0.78229 -1.95,1.05c-1.16667,0.56667 -2.3,0.85 -3.4,0.85c-0.26667,-0.06667 -0.43333,-0.28333 -0.5,-0.65c-0.06667,-0.3 -0.05,-0.61667 0.05,-0.95c0.46667,-1.13333 1.7,-2.26667 3.7,-3.4c0.0875,-0.05677 0.17083,-0.12344 0.25,-0.2c3.02435,-1.92422 5.54102,-3.30755 7.55,-4.15M189.47294,124.50068c0.86667,-0.03333 1.55,0.55 2.05,1.75c0.3,0.66667 0.61667,1.75 0.95,3.25c0.66667,1.93333 2.5,3.55 5.5,4.85c2.63333,1.13333 5.68333,2 9.15,2.6c2.13333,0.36667 5.31667,0.73333 9.55,1.1l100.15,8.9c0.02487,0.00234 0.04154,0.00234 0.05,0c4.83411,0.45208 9.05078,0.80208 12.65,1.05c1.36341,0.11198 2.63008,0.19531 3.8,0.25c1.25156,0.08906 2.40156,0.15573 3.45,0.2c0.82161,0.04049 1.62161,0.07383 2.4,0.1c6.48919,0.24844 12.37253,0.1651 17.65,-0.25c-5.47969,1.45977 -10.99635,2.3931 -16.55,2.8c-1.32865,0.11003 -2.66198,0.17669 -4,0.2c-0.76641,0.03164 -1.53307,0.04831 -2.3,0.05c-0.08359,0 -0.16693,0 -0.25,0c-1.0599,0.00924 -2.17656,-0.00742 -3.35,-0.05c-2.58581,-0.04336 -5.43581,-0.19336 -8.55,-0.45c-0.45273,-0.02552 -0.9194,-0.05885 -1.4,-0.1c-0.31549,-0.01966 -1.99883,-0.20299 -5.05,-0.55c-2.07669,-0.21875 -4.81003,-0.51875 -8.2,-0.9c-11.76667,-1.2 -26.85,-2.16667 -45.25,-2.9c-8.17721,-0.31901 -15.27721,-0.60234 -21.3,-0.85c-2.82057,-0.11628 -5.40391,-0.23294 -7.75,-0.35c-3.96979,-0.15234 -7.26979,-0.30234 -9.9,-0.45c-2.92943,-0.11589 -5.02943,-0.21589 -6.3,-0.3c-7.36667,-0.43333 -13.06667,-1.15 -17.1,-2.15c-4.63333,-1.2 -8.06667,-2.95 -10.3,-5.25c-1.36667,-1.53333 -2.26667,-3.26667 -2.7,-5.2c-0.31211,-1.51276 -0.29544,-2.91276 0.05,-4.2c0.15768,-0.47656 0.35768,-0.94323 0.6,-1.4c0.6,-1.13333 1.35,-1.71667 2.25,-1.75M177.07294,125.35068c0.83333,-0.03333 1.51667,0.21667 2.05,0.75c-1.03333,1.86667 -1.73333,3.83333 -2.1,5.9c-0.4,2.23333 -0.33333,4.31667 0.2,6.25c0.46667,1.9 1.3,3.4 2.5,4.5c0.53333,0.5 1.21667,1.03333 2.05,1.6c0.5,0.26667 1.21667,0.71667 2.15,1.35c2.36667,1.53333 4.35,3.53333 5.95,6c-0.3,0.26667 -0.8,0.06667 -1.5,-0.6c-0.5,-0.46667 -1.21667,-0.71667 -2.15,-0.75c-1.03333,0.06667 -1.81667,0.1 -2.35,0.1c-2.33333,0.13333 -4.53333,-0.5 -6.6,-1.9c-2.03333,-1.26667 -3.58333,-2.96667 -4.65,-5.1c-0.96667,-2 -1.5,-4.25 -1.6,-6.75c0,-2.3 0.43333,-4.6 1.3,-6.9c0.63333,-1.8 1.5,-3.05 2.6,-3.75c0.6,-0.46667 1.31667,-0.7 2.15,-0.7z"/></g></g></svg>