<svg version="1.1" xmlns="http://www.w3.org/2000/svg" xmlns:xlink="http://www.w3.org/1999/xlink" width="68.88333" height="142.78852" viewBox="0,0,68.88333,142.78852"><g transform="translate(-205.55833,-108.60574)"><g data-paper-data="{&quot;isPaintingLayer&quot;:true}" fill-rule="nonzero" stroke="none" stroke-width="1" stroke-linecap="butt" stroke-linejoin="miter" stroke-miterlimit="10" stroke-dasharray="" stroke-dashoffset="0" style="mix-blend-mode: normal"><path d="M235.275,125.59093c1.43333,-2.46667 2.75,-4.36667 3.95,-5.7c0.83333,-0.93333 1.7,-1.7 2.6,-2.3c2.06667,-2 4.3,-3.6 6.7,-4.8c0.82552,-0.42396 1.60885,-0.74063 2.35,-0.95c2.35247,-1.10117 4.85247,-1.88451 7.5,-2.35c0.34466,-0.13086 0.69466,-0.24753 1.05,-0.35c1.83333,-0.56667 3.61667,-0.68333 5.35,-0.35c0.38255,0.04505 0.69922,0.14505 0.95,0.3c0.55508,0.03346 1.10508,0.08346 1.65,0.15c2.01198,0.27188 3.51198,0.82187 4.5,1.65c0.86341,0.08294 1.71341,0.16628 2.55,0.25c0.06667,0.3 -0.06667,0.55 -0.4,0.75c-0.3,0.16667 -0.63333,0.25 -1,0.25l-7.85,0.35c-1.86667,0.06667 -3.36667,0.23333 -4.5,0.5c-1.4,0.3 -3.55,1.26667 -6.45,2.9c-1.73333,1 -2.93333,1.86667 -3.6,2.6c-0.56667,0.56667 -0.98333,0.93333 -1.25,1.1c-0.5,0.33333 -0.96667,0.4 -1.4,0.2c0.06667,-0.2 0.15,-0.4 0.25,-0.6c-0.06042,0.09063 -0.12708,0.19063 -0.2,0.3c-0.16589,0.23698 -0.48255,0.50365 -0.95,0.8c-0.42865,0.47682 -0.82865,0.91016 -1.2,1.3c-3.06667,3.3 -5.53333,6.53333 -7.4,9.7c-1.7,3.83333 -3.4,8.03333 -5.1,12.6c-1.56667,4.2 -3.7,10.26667 -6.4,18.2c-1.26667,3.63333 -2.16667,6.4 -2.7,8.3c-0.86667,3.1 -1.41667,5.93333 -1.65,8.5c0,0.4 0.01667,0.81667 0.05,1.25c0,1.03333 -0.06667,2.33333 -0.2,3.9c0,1.33333 0.03333,2.83333 0.1,4.5l0.5,13.65c0.23333,6.43333 0.48333,11.25 0.75,14.45c0.4,5.33333 1.05,10.08333 1.95,14.25c0.23333,1.13333 0.58333,2.83333 1.05,5.1c0.36667,1.96667 0.51667,3.7 0.45,5.2c-0.06667,1.86667 -0.45,3.56667 -1.15,5.1c-0.76667,1.73333 -1.85,3.03333 -3.25,3.9c-2.03333,1.26667 -4.36667,1.53333 -7,0.8c-2.46667,-0.7 -4.5,-2.05 -6.1,-4.05c-2.4,-3.03333 -3.76667,-7.66667 -4.1,-13.9c-0.23333,-4.23333 -0.11667,-8.95 0.35,-14.15c0.3,-3.33333 0.86667,-8.05 1.7,-14.15c1.1,-8.03333 2.03333,-14.1 2.8,-18.2c1.3,-6.7 2.86667,-12.61667 4.7,-17.75c0.73333,-1.96667 2.08333,-5.26667 4.05,-9.9c3.2,-7.4 5.71667,-13.03333 7.55,-16.9c2.9,-6.2 5.71667,-11.66667 8.45,-16.4M212.425,207.99093c-0.2,0.36667 -0.66667,1.18333 -1.4,2.45c-0.6,1 -1.03333,1.85 -1.3,2.55c-0.7,1.73333 -0.98333,4.38333 -0.85,7.95c0.06667,3.03333 0.2,5.3 0.4,6.8c0.23333,1.53333 0.5,2.86667 0.8,4c0.33333,1.1 1.05,3.13333 2.15,6.1c1.36667,3.23333 2.95,4.75 4.75,4.55c0.73333,-0.1 1.33333,-0.45 1.8,-1.05c0.46667,-0.6 0.66667,-1.26667 0.6,-2c-0.06667,-0.53333 -0.35,-1.2 -0.85,-2c-0.63333,-0.93333 -1.01667,-1.58333 -1.15,-1.95c-0.2,-0.6 -0.26667,-1.4 -0.2,-2.4c0.1,-1.36667 0.13333,-2.18333 0.1,-2.45c-0.06667,-0.6 -0.23333,-1.33333 -0.5,-2.2c-0.33333,-0.96667 -0.58333,-1.7 -0.75,-2.2c-0.46667,-1.63333 -0.7,-4.15 -0.7,-7.55c0,-2.03333 0.06667,-3.55 0.2,-4.55c0.26667,-2.13333 0.4,-3.31667 0.4,-3.55c0,-0.8 -0.25,-2.2 -0.75,-4.2c-0.43333,-1.8 -0.58333,-3.21667 -0.45,-4.25l-1.6,0.45c0.6,1.53333 0.36667,3.36667 -0.7,5.5z" fill="#cccccc"/><path d="M215.175,206.29093c0.5,2 0.75,3.4 0.75,4.2c0,0.23333 -0.13333,1.41667 -0.4,3.55c-0.13333,1 -0.2,2.51667 -0.2,4.55c0,3.4 0.23333,5.91667 0.7,7.55c0.16667,0.5 0.41667,1.23333 0.75,2.2c0.26667,0.86667 0.43333,1.6 0.5,2.2c0.03333,0.26667 0,1.08333 -0.1,2.45c-0.06667,1 0,1.8 0.2,2.4c0.13333,0.36667 0.51667,1.01667 1.15,1.95c0.5,0.8 0.78333,1.46667 0.85,2c0.06667,0.73333 -0.13333,1.4 -0.6,2c-0.46667,0.6 -1.06667,0.95 -1.8,1.05c-1.8,0.2 -3.38333,-1.31667 -4.75,-4.55c-1.1,-2.96667 -1.81667,-5 -2.15,-6.1c-0.3,-1.13333 -0.56667,-2.46667 -0.8,-4c-0.2,-1.5 -0.33333,-3.76667 -0.4,-6.8c-0.13333,-3.56667 0.15,-6.21667 0.85,-7.95c0.26667,-0.7 0.7,-1.55 1.3,-2.55c0.73333,-1.26667 1.2,-2.08333 1.4,-2.45c1.06667,-2.13333 1.3,-3.96667 0.7,-5.5l1.6,-0.45c-0.13333,1.03333 0.01667,2.45 0.45,4.25z" fill="#ffffff"/></g></g></svg>