<svg version="1.1" xmlns="http://www.w3.org/2000/svg" xmlns:xlink="http://www.w3.org/1999/xlink" width="199.75961" height="156.43731" viewBox="0,0,199.75961,156.43731"><defs><radialGradient cx="240" cy="180" r="41.82692" gradientUnits="userSpaceOnUse" id="color-1"><stop offset="0" stop-color="#ff6f00"/><stop offset="1" stop-color="#ff6f00" stop-opacity="0"/></radialGradient><radialGradient cx="240" cy="180" r="23.07692" gradientUnits="userSpaceOnUse" id="color-2"><stop offset="0" stop-color="#ffed00"/><stop offset="1" stop-color="#ff9c5e"/></radialGradient><radialGradient cx="41.03366" cy="32.69481" r="0.125" gradientUnits="userSpaceOnUse" id="color-3"><stop offset="0" stop-color="#ff0000"/><stop offset="1" stop-color="#ffed00"/></radialGradient></defs><g transform="translate(-82.06731,-65.38961)"><g data-paper-data="{&quot;isPaintingLayer&quot;:true}" fill-rule="nonzero" stroke="#000000" stroke-linecap="butt" stroke-linejoin="miter" stroke-miterlimit="10" stroke-dasharray="" stroke-dashoffset="0" style="mix-blend-mode: normal"><path d="M198.17308,180c0,-23.10037 18.72655,-41.82692 41.82692,-41.82692c23.10037,0 41.82692,18.72655 41.82692,41.82692c0,23.10037 -18.72655,41.82692 -41.82692,41.82692c-23.10037,0 -41.82692,-18.72655 -41.82692,-41.82692z" fill="url(#color-1)" stroke-width="0"/><path d="M216.92308,180c0,-12.74503 10.33189,-23.07692 23.07692,-23.07692c12.74503,0 23.07692,10.33189 23.07692,23.07692c0,12.74503 -10.33189,23.07692 -23.07692,23.07692c-12.74503,0 -23.07692,-10.33189 -23.07692,-23.07692z" fill="url(#color-2)" stroke-width="0"/><path d="M82.06731,65.38961v0v0v0z" fill="url(#color-3)" stroke-width="0.5"/></g></g></svg>