<svg version="1.1" xmlns="http://www.w3.org/2000/svg" xmlns:xlink="http://www.w3.org/1999/xlink" width="202.07488" height="203.73871" viewBox="0,0,202.07488,203.73871"><g transform="translate(-127.6775,-88.62472)"><g data-paper-data="{&quot;isPaintingLayer&quot;:true}" fill-rule="nonzero" stroke="none" stroke-linecap="butt" stroke-linejoin="miter" stroke-miterlimit="10" stroke-dasharray="" stroke-dashoffset="0" style="mix-blend-mode: normal"><path d="M167.67636,96.01144l0.33381,-0.5614l0.04777,-0.21494c1.68336,-0.44545 3.32094,-1.16632 4.75647,-2.02764l2.96896,-1.48448c1.79577,-0.59859 3.33537,-1.6893 4.53507,-3.09826c7.3525,0.47121 14.66192,1.81375 22.03628,2.27286c1.35292,0.08423 2.76423,0.19511 4.1659,0.15263c0.0377,0.00042 0.07544,0.00063 0.11324,0.00063c0.76898,0 1.51769,-0.0868 2.23686,-0.25113c0.26789,-0.05336 0.53394,-0.11648 0.79764,-0.1907c4.66356,1.15898 9.24362,2.50867 13.9394,3.59675c4.42725,1.02586 9.0233,3.34131 13.41508,1.86768c0.82407,-0.27651 1.92839,-0.00488 2.52981,-0.63245c0.69609,-0.72636 1.15738,-1.62446 1.59099,-2.54537l0.04287,0.02287l0.29321,0.02255l2.11297,0.70432l2.48881,0.71109l0.14472,0.08349l0.16658,0.01281l2.26757,0.75586l0.12018,0.07648l0.14153,0.01618l2.5307,0.94901l2.88765,0.6417l0.35216,0.17608l0.39257,0.0302l5.47144,1.82381l3.95638,1.07901l0.10828,0.06074l0.12398,0.00664l4.65598,1.43261l4.65097,1.0733l0.52027,0.26544l0.57872,0.07892l3.77929,1.51172l0.11765,0.08497l0.14296,0.02502l2.96637,1.31839l3.32335,0.997l0.41516,0.24685l0.47577,0.08326l3.35567,1.49141l5.24505,2.24788l0.17955,0.13646l0.22015,0.04892l8.16206,4.08103l3.24568,1.44252l0.40035,0.31277l0.48434,0.15337l4.91308,3.02343l0.24556,0.25114l0.32371,0.1363l3.02343,2.26757l0.15752,0.19387l0.22342,0.11171l2.6455,2.26757l0.1702,0.23982l0.25217,0.1513l2.6455,2.6455l0.47503,0.79172l0.65287,0.65287l1.13379,1.88964l0.98905,3.24973l0.12648,0.18973l-0.02901,0.13055l0.03894,0.12794l-0.11156,0.19887l-0.43377,1.95195l0.91333,1.36999l-0.08017,0.36075l0.03344,0.05851l-0.07599,0.13299l-0.30194,1.35871v0.02002l-0.04003,0.16013l-0.37384,1.68226l-0.07559,0.15117l-0.30234,1.36054l-0.09346,0.18692l-0.05225,0.20898l-0.07314,0.0418l-0.29864,0.59728l-0.01523,0.04569l0.06489,0.09734l0.1594,0.44632l0.30843,0.35983l0.75586,1.51172l0.17918,0.80629l0.38869,0.72879l0.17825,0.71301l0.38767,0.77534l0.17918,0.80629l0.38869,0.72879l0.75586,3.02343v0.92329l0.22393,0.89572v0.20898l0.3379,1.52054l0.41796,1.67184v0.20898l0.04673,0.21028l-0.04673,0.07009v1.23285l0.154,0.61599v0.92329l0.22393,0.89572v0.76907l0.23228,1.16142l-0.03553,0.74616l0.18118,0.72471v5.29101l-0.29241,1.16963l-0.09247,1.20208l-0.75586,2.26757l-0.28982,0.45543l-0.1171,0.52697l-0.23842,0.47683l-0.64,1.6l-0.35556,0.49231l-0.17682,0.58097l-0.98559,1.64266l-2.89462,5.78924l-0.30843,0.35983l-0.1594,0.44632l-1.25271,1.87906l-1.96019,3.92038l-1.04697,2.44293l-0.31217,0.41076l-0.15022,0.49357l-0.8246,1.37433l-0.53267,1.33167l-0.57949,0.80238l-0.38408,0.91219l-0.53861,0.71815l-0.38746,0.96864l-0.05502,0.07619l-0.01496,0.09278l-1.0109,2.35877l-0.65721,1.97162l-0.17086,0.2685l-0.05068,0.31419l-1.13379,2.6455l-0.13646,0.17955l-0.04892,0.22015l-1.13379,2.26757l-0.19138,0.22328l-0.08562,0.28134l-1.13379,1.88964l-0.27841,0.27841l-0.15279,0.36287l-0.53861,0.71815l-0.38746,0.96864l-0.57949,0.80238l-0.38408,0.91219l-1.86181,2.48241l-0.45342,0.90684l-0.44366,0.5176l-0.26455,0.6283l-1.13379,1.51172l-0.41896,0.34041l-0.27774,0.46289l-0.75689,0.75689l-0.81398,1.08531l-0.41896,0.34041l-0.27774,0.46289l-2.16282,2.16282l-0.21156,0.42312l-0.51925,0.60579l-0.33244,0.72532l-1.51172,1.88964l-0.33593,0.25595l-0.21728,0.36214l-0.60866,0.60866l-0.0849,0.12736l-0.16911,0.33822l-0.78461,0.91538l-0.62029,1.03382l-0.65111,0.65111l-0.58949,1.17898l-0.78461,0.91538l-0.62029,1.03382l-0.27318,0.27318l-0.21156,0.42312l-0.44366,0.5176l-0.26455,0.6283l-0.72802,0.9707l-0.45342,0.90684l-0.44366,0.5176l-0.26455,0.6283l-1.86181,2.48241l-0.45342,0.90684l-0.44366,0.5176l-0.26455,0.6283l-1.13379,1.51172l-0.41896,0.34041l-0.27774,0.46289l-1.13482,1.13482l-0.81398,1.08531l-0.98555,0.80076l-0.60895,0.66984l-0.0062,0.11167l-1.47311,1.26266l-1.43563,1.30512l-0.11469,-0.00791l-0.33453,0.16727l-1.40697,1.40697l-0.64056,0.38433l-0.50249,0.55274l-0.51587,0.34391l-0.60866,0.60866l-0.36214,0.21728l-0.25595,0.33593l-1.88964,1.51172l-0.10936,0.05012l-0.07586,0.09336l-1.51172,1.13379l-0.1964,0.0827l-0.14335,0.15768l-1.64965,1.09977l-1.74244,1.74244l-0.79172,0.47503l-0.65287,0.65287l-1.09793,0.65876l-0.13489,0.13489l-0.01652,0.08261l-0.18173,0.11565l-0.14777,0.14777l-1.47771,0.88663l-1.45388,0.9252l-0.19826,0.06609l-0.23751,0.14251l-1.45388,0.9252l-0.19826,0.06609l-0.18471,0.11083l-0.08127,-0.02217l-0.6487,0.21623l-0.53805,0.40354l-1.11115,0.46785l-1.01714,0.64727l-0.62813,0.20938l-1.03498,0.51749l-0.68547,0.15233l-0.60823,0.3509l-1.97527,0.56436l-0.88825,0.44413l-0.80629,0.17918l-0.72879,0.38869l-1.23228,0.30807l-4.0528,1.35093l-1.39536,0.55815l-1.98855,0.99427l-0.52697,0.1171l-0.45543,0.28982l-1.76192,0.58731l-1.79084,0.89542l-0.52697,0.1171l-0.45543,0.28982l-1.76192,0.58731l-0.27912,0.13956l-0.52697,0.1171l-0.45543,0.28982l-2.8957,0.96523l-0.59728,0.29864l-0.0418,0.07314l-0.20898,0.05225l-0.18692,0.09346l-1.68226,0.37384l-1.67184,0.41796h-0.20898l-0.01363,0.00303l-0.60388,0.15097h-0.92329l-0.89572,0.22393h-9.07029l-0.72471,-0.18118l-0.74616,0.03553l-1.16142,-0.23228h-3.41457l-0.72471,-0.18118l-0.74616,0.03553l-1.16142,-0.23228h-1.52493l-0.5237,-0.13093l-0.53696,0.05555l-4.76335,-0.68048h-1.73457l-0.60814,-0.15203l-0.62486,0.04999l-2.26757,-0.37793l-0.11386,-0.0495l-0.12402,0.00591l-5.66893,-1.13379l-0.90533,-0.42884l-0.9779,-0.21731l-0.77534,-0.38767l-0.71301,-0.17825l-0.25948,-0.13839l-0.29321,-0.02255l-2.26757,-0.75586l-0.84515,-0.53782l-0.9434,-0.33693l-0.29809,-0.19872l-0.18094,-0.06031l-0.45543,-0.28982l-0.15496,-0.03444l-5.66893,3.77929l-3.77336,-0.83853l-0.56485,-0.28242l-0.3984,-0.0996l-1.2025,-0.26722l-1.00908,-0.07762l-3.40136,-1.13379l-0.45543,-0.28982l-0.52697,-0.1171l-0.90703,-0.45351l-1.36054,-0.30234l-0.18692,-0.09346l-0.20898,-0.05225l-0.0418,-0.07314l-1.07402,-0.53701l-0.35983,-0.30843l-0.44632,-0.1594l-0.74528,-0.49685l-0.33822,-0.16911l-0.35983,-0.30843l-0.44632,-0.1594l-1.13379,-0.75586l-0.99054,-1.08959l-1.08959,-0.99054l-3.02343,-4.53515l-0.06151,-0.17222l-0.12931,-0.12931l-1.04196,-1.73661l-1.41272,-2.11908l-0.1594,-0.44632l-0.30843,-0.35983l-0.75586,-1.51172l-0.06904,-0.31067l-0.18633,-0.258l-0.72189,-1.80474l-1.09776,-2.56145l-0.05068,-0.31419l-0.17086,-0.2685l-1.06409,-3.19227l-0.674,-1.68501l-0.05275,-0.38684l-0.1951,-0.33818l-1.51172,-5.29101l-0.01438,-0.43149l-0.17214,-0.39593l-0.32869,-1.97213l-0.68321,-2.73285v-0.24979l-0.10296,-0.22759l-0.75586,-4.15722l0.01998,-0.30638l-0.10374,-0.28898l-0.35349,-3.53487l-0.71548,-4.29285l0.02003,-0.25034l-0.08485,-0.23637l-0.37383,-3.73829l-0.37338,-3.36041l0.05656,-0.41852l-0.10243,-0.40972v-7.55858l0.09237,-0.36946l-0.05514,-0.37682l0.34071,-3.40708v-1.89351l0.13093,-0.5237l-0.05555,-0.53696l0.36863,-2.58038l0.36977,-2.95816l0.02443,-0.0631l-0.00696,-0.0673l0.68048,-4.76335v-9.29314l0.13093,-0.5237l-0.05555,-0.53696l0.30255,-2.11785v-2.11249l0.10243,-0.40972l-0.05656,-0.41852l0.37338,-3.36041l0.75176,-7.51758l0.1691,-0.47107l-0.00695,-0.50045l1.51172,-6.42479l0.02456,-0.04763v-0.05359l1.51172,-6.04686l0.2043,-0.38307l0.0493,-0.43134l2.26757,-6.04686l0.13956,-0.20236l0.0435,-0.24194l3.40136,-7.55858l0.09717,-0.1232l0.03404,-0.15317l4.91308,-9.82615l0.17787,-0.20751l0.07815,-0.2619l6.04686,-10.20408l0.14328,-0.14486l0.06853,-0.19188l5.29101,-7.93651l0.12729,-0.11572l0.06505,-0.15926l3.78132,-5.15635l0.47159,-0.94318l0.19138,-0.22328l0.08562,-0.28134l0.98559,-1.64266l0.86546,-1.73092l1.35165,-3.37914l1.39757,-3.84332zM313.24063,158.04676l-0.33225,-1.329l-0.20777,-0.41553l-0.13232,0.04726l-0.22728,-0.11364l-0.29275,0.07319h-1.13379l-3.75,-0.9375l-1.02273,-1.78977l-1.78977,-1.02273l-0.9375,-3.75v-1.13379l0.24574,-0.98297l-1.77519,-0.35504l-0.90533,-0.42884l-0.9779,-0.21731l-0.27912,-0.13956l-1.76192,-0.58731l-0.33298,-0.2119l-0.0399,0.01088l-0.18651,-0.11191l-0.42299,-0.094l-0.75586,-0.37793l-0.39899,-0.34199h-0.40413l-0.89572,-0.22393h-0.92329l-0.61599,-0.154h-2.10014l-0.72471,-0.18118l-0.74616,0.03553l-1.68551,-0.3371l-2.43942,-0.34849l-0.13525,-0.0551l-0.14573,0.0095l-3.80012,-0.69093l-4.17345,-0.34779l-0.41263,-0.14047l-0.4354,0.02073l-3.05106,-0.61021h-2.28079l-1.16963,-0.29241l-1.20208,-0.09247l-1.70931,-0.56977l-3.90846,-0.65141l-4.86675,-0.74873l-0.15861,-0.06662l-0.17183,0.00818l-5.66893,-1.13379l-0.21914,-0.1038l-0.24246,-0.00379l-5.66893,-1.51172l-0.10395,-0.05754l-0.11869,-0.00552l-3.68875,-1.10663l-3.98906,-1.08793l-4.45775,-1.11444l-0.25948,-0.13839l-0.29321,-0.02255l-3.40136,-1.13379l-0.08783,-0.05589l-0.10354,-0.01079l-4.15722,-1.51172l-0.05883,-0.03971l-0.07044,-0.00865l-4.91308,-1.88964l-0.16051,-0.1127l-0.19319,-0.03381l-6.80272,-3.02343l-0.1376,-0.1075l-0.17046,-0.03788l-3.77929,-1.88964l-0.22328,-0.19138l-0.28134,-0.08562l-1.82124,-1.09274l-2.39549,-1.36885l-1.32552,-0.66276l-0.5176,-0.44366l-0.6283,-0.26455l-2.71391,-2.03543l-1.34813,-0.80888c0.39328,0.70536 0.67601,1.48078 0.82476,2.30283c0.09393,0.29068 0.15155,0.59807 0.16685,0.92495c0.02274,0.48572 -0.02575,0.99702 -0.12676,1.51881c-0.11035,0.75112 -0.33204,1.46605 -0.64778,2.12746c-0.4593,1.1515 -1.05121,2.25541 -1.57571,3.15052c-2.93202,5.00391 -8.33103,8.74639 -12.12018,13.04241c-3.04949,3.4574 -5.92458,7.07449 -8.83228,10.72192c-3.76119,4.71807 -6.39036,19.74431 -7.7342,25.79162c-1.91725,8.62761 -4.52988,17.09383 -5.96134,25.73501c-1.46425,8.83909 0.99684,19.67605 3.17019,28.34967c2.82251,11.26433 1.25534,24.13806 11.87276,31.42178c0.96562,0.66243 2.47316,2.27931 3.72982,2.54292c4.59756,0.96442 8.93118,3.06727 13.716,3.09008c15.7151,0.07493 34.06805,1.04082 47.02603,-9.70806c5.01081,-4.15656 8.76228,-9.56589 13.80367,-13.5977c10.07001,-8.0534 20.98329,-15.54904 28.3136,-26.50366c2.95996,-4.42344 4.55797,-9.60748 7.39917,-14.12218c3.40314,-5.40763 8.98263,-11.17615 10.73686,-17.26021c1.68693,-5.85064 2.07209,-11.09245 2.74274,-17.12829c0.19739,-1.77654 -0.55655,-4.14559 0.9375,-5.63964c3.14098,-3.14098 5.54203,-4.30881 8.13279,-3.50349zM192.55237,111.34831c0.00452,0.08119 0.00775,0.16273 0.00967,0.24459c0.10081,0.01976 0.2009,0.04155 0.30023,0.0653z" fill="#ffffff" stroke-width="0.5"/><path d="M270.38983,138.37426c6.6,1.03333 14.85,1.7 24.75,2c4.26667,0.16667 10.16667,0.36667 17.7,0.6c3.4,-1.06667 5.71667,-1.71667 6.95,-1.95c1.53333,-0.26667 2.61667,-0.06667 3.25,0.6c0.46667,0.5 0.6,1.15 0.4,1.95c-0.2,0.73333 -0.61667,1.31667 -1.25,1.75c-0.5,0.33333 -1.16667,0.6 -2,0.8c-0.93333,0.16667 -1.65,0.28333 -2.15,0.35c-2.63333,0.66667 -4.6,1.13333 -5.9,1.4c-1.1,0.23333 -2.1,0.36667 -3,0.4c-0.16667,0.43333 -0.41667,0.88333 -0.75,1.35c-0.06667,0.13333 -0.18333,0.33333 -0.35,0.6c0.2,0 0.4,0 0.6,0c0.26667,1.33333 0.31667,2.55 0.15,3.65c-0.1,0.6 -0.28333,1.46667 -0.55,2.6c5.36667,-0.86667 10.78333,-1.03333 16.25,-0.5c0.16667,0.13333 0.15,0.3 -0.05,0.5c-0.2,0.13333 -0.43333,0.25 -0.7,0.35c-0.5,0.16667 -0.98333,0.5 -1.45,1c-0.03333,0.03333 -0.41667,0.51667 -1.15,1.45c-0.03333,0.03333 -0.06667,0.08333 -0.1,0.15c-0.9,1.1 -1.95,2.1 -3.15,3c-2.83333,2.1 -5.66667,2.93333 -8.5,2.5c-0.6,-0.06667 -1.21667,-0.2 -1.85,-0.4c-0.1,0.3 -0.18333,0.61667 -0.25,0.95c-0.16667,0.76667 -0.35,1.9 -0.55,3.4c-0.06667,0.36667 -0.13333,0.78333 -0.2,1.25c0.13333,6.66667 -0.65,13.01667 -2.35,19.05c-0.03333,0.06667 -0.05,0.15 -0.05,0.25c-1.96667,6.7 -5.25,13.46667 -9.85,20.3c-3.66667,5.46667 -8.53333,11.45 -14.6,17.95c-8.3,8.96667 -16.46667,16.45 -24.5,22.45c-3.53333,2.6 -7.03333,4.93333 -10.5,7c-2.9,1.7 -5.78333,3.25 -8.65,4.65c-3.3,1.56667 -6.6,2.91667 -9.9,4.05c-8.33333,2.83333 -16.65,4.25 -24.95,4.25c-9.96667,0.06667 -18.25,-2.11667 -24.85,-6.55c-9.83333,-6.6 -16.23333,-18.51667 -19.2,-35.75c-2.63333,-15.6 -2.28333,-31.15 1.05,-46.65c2.53333,-11.63333 6.56667,-22.4 12.1,-32.3c1.83333,-3.3 3.83333,-6.5 6,-9.6c0.16667,-0.23333 0.33333,-0.46667 0.5,-0.7c0.5,-0.7 1,-1.36667 1.5,-2c0.96667,-1.26667 1.91667,-2.41667 2.85,-3.45c0.53333,-0.3 1.01667,-0.61667 1.45,-0.95c0.2,-0.16667 0.38333,-0.33333 0.55,-0.5c0.16667,0.03333 0.35,0.1 0.55,0.2c1.1,-1.43333 2.1,-2.65 3,-3.65c0.3,-0.4 0.6,-0.75 0.9,-1.05c1.43333,-1.63333 2.88333,-3.1 4.35,-4.4c0.63333,-0.56667 1.26667,-1.1 1.9,-1.6c-3.76667,-2.73333 -7.05,-5.9 -9.85,-9.5c-4.3,-5.5 -6.9,-11.4 -7.8,-17.7c1.73333,2.03333 3.91667,4.28333 6.55,6.75c1.53333,1.43333 3.16667,2.9 4.9,4.4c3.23333,4.1 7.6,7.78333 13.1,11.05c4.43333,2.63333 10.86667,5.6 19.3,8.9c10.4,4.06667 18.66667,7.08333 24.8,9.05c9.26667,3 17.78333,5.1 25.55,6.3M288.18983,145.72426c-11.7,0.9 -24.63333,-0.55 -38.8,-4.35c-9.03333,-2.4 -21.51667,-6.78333 -37.45,-13.15c-1.33333,-0.53333 -2.56667,-1.03333 -3.7,-1.5c-1.9,-0.8 -3.56667,-1.53333 -5,-2.2c-1.5,-0.7 -2.76667,-1.33333 -3.8,-1.9c-0.13333,0.06667 -0.26667,0.15 -0.4,0.25c-1.7,1.2 -3.56667,2.7 -5.6,4.5c-0.6,0.5 -1.21667,1.05 -1.85,1.65c-0.6,0.56667 -1.2,1.15 -1.8,1.75c-0.33333,0.26667 -0.63333,0.55 -0.9,0.85l-0.05,0.05c-0.16667,0.23333 -0.35,0.48333 -0.55,0.75c-0.03333,0 -0.06667,0.01667 -0.1,0.05c-0.53333,0.63333 -1.06667,1.28333 -1.6,1.95c-0.2,0.2 -0.38333,0.43333 -0.55,0.7c-0.46667,0.53333 -0.91667,1.08333 -1.35,1.65c-0.9,1.16667 -1.76667,2.33333 -2.6,3.5c-0.13333,0.13333 -0.23333,0.26667 -0.3,0.4c-2.2,3.03333 -4.21667,6.15 -6.05,9.35c-1.76602,2.9849 -3.38268,6.0349 -4.85,9.15c-0.43763,0.9625 -0.87096,1.9125 -1.3,2.85c-0.04492,0.13841 -0.09492,0.27174 -0.15,0.4c0.40026,-0.32214 0.80026,-0.62214 1.2,-0.9c-0.91458,1.79974 -1.74792,3.71641 -2.5,5.75c-4.02057,7.43542 -6.02057,16.78542 -6,28.05c0.03333,10.83333 0.81667,21.28333 2.35,31.35c1.59583,4.35326 3.4125,8.46992 5.45,12.35c1.56367,3.81966 3.43034,7.35299 5.6,10.6c2.81901,4.15013 5.90234,7.40013 9.25,9.75c0.89648,0.82682 1.86315,1.56016 2.9,2.2c-0.15326,0.22682 -0.31992,0.44349 -0.5,0.65c1.16667,0.36667 2.38333,0.68333 3.65,0.95c6.76667,1.43333 14,1.53333 21.7,0.3c5.76667,-0.93333 11.45,-2.48333 17.05,-4.65c2.33333,-0.93333 4.65,-1.95 6.95,-3.05c1.83333,-0.9 3.63333,-1.83333 5.4,-2.8c5.53333,-3.13333 10.8,-6.8 15.8,-11c0.33333,-0.26667 0.66667,-0.55 1,-0.85c1.06667,-0.9 2.13333,-1.83333 3.2,-2.8c0.1,-0.13333 0.21667,-0.25 0.35,-0.35c1.8,-1.7 3.58333,-3.48333 5.35,-5.35l6.9,-10.3c0.7,-1 1.71667,-2.53333 3.05,-4.6c6.3,-9.86667 10.78333,-20.53333 13.45,-32c0.13333,-0.66667 0.26667,-1.31667 0.4,-1.95c0.5,-2.46667 0.96667,-5.18333 1.4,-8.15c0.8,-5.26667 1.35,-10.53333 1.65,-15.8c0,-0.26667 0.01667,-0.53333 0.05,-0.8c0.13333,-2.4 0.18333,-4.48333 0.15,-6.25c0,-0.1 0,-0.2 0,-0.3c-0.06667,-1.36667 -0.18333,-2.61667 -0.35,-3.75c-0.13333,-0.33333 -0.3,-0.8 -0.5,-1.4c-0.26667,-0.7 -0.4,-1.4 -0.4,-2.1c-2.06667,0.23333 -3.81667,0.4 -5.25,0.5z" fill="#000000" stroke-width="1"/></g></g></svg>