<svg version="1.1" xmlns="http://www.w3.org/2000/svg" xmlns:xlink="http://www.w3.org/1999/xlink" width="249.54167" height="120.39313" viewBox="0,0,249.54167,120.39313"><g transform="translate(-115.22917,-119.80344)"><g data-paper-data="{&quot;isPaintingLayer&quot;:true}" fill="#000000" fill-rule="nonzero" stroke="none" stroke-width="1" stroke-linecap="butt" stroke-linejoin="miter" stroke-miterlimit="10" stroke-dasharray="" stroke-dashoffset="0" style="mix-blend-mode: normal"><path d="M164.53472,210.90656c-3.26667,-1.06667 -7.05,-1.43333 -11.35,-1.1c-2.56667,0.26667 -6.38333,0.91667 -11.45,1.95c-2.43333,0.5 -4.06667,0.93333 -4.9,1.3c-1.06667,0.5 -1.96667,0.86667 -2.7,1.1c-0.46667,0.16667 -0.86667,0.3 -1.2,0.4c-1.66667,0.5 -3.05,0.35 -4.15,-0.45l6.65,-1.95c3.36667,-0.96667 5.95,-1.66667 7.75,-2.1c2.86667,-0.73333 5.48333,-1.23333 7.85,-1.5c4.96667,-0.53333 9.45,-0.08333 13.45,1.35c0.73333,0.2 1.46667,0.46667 2.2,0.8c-0.3,0.4 -1.01667,0.46667 -2.15,0.2M211.03472,237.20656c-3.06667,-1.13333 -5.33333,-2.01667 -6.8,-2.65c-2.5,-1.03333 -4.68333,-2.13333 -6.55,-3.3c-4.9,-2.86667 -9.01667,-6.7 -12.35,-11.5c-0.83333,-1.1 -1,-1.96667 -0.5,-2.6c0.16667,-0.2 0.41667,-0.31667 0.75,-0.35c0.23333,0 0.51667,0.03333 0.85,0.1c0.5,0.2 1.03333,0.55 1.6,1.05c5.83333,5.63333 10.85,9.96667 15.05,13c5.8,4.16667 11.55,7.1 17.25,8.8c0.1,0.23333 0,0.35 -0.3,0.35c-0.36667,0.1 -0.71667,0.11667 -1.05,0.05l-7.95,-2.95M227.68472,189.40656c9.93333,-0.46667 22.21667,-0.56667 36.85,-0.3c8.33333,0.13333 14.58333,0.38333 18.75,0.75c7.23333,0.7 15.3,2.15 24.2,4.35c5.36667,1.3 13.25,3.48333 23.65,6.55c0.63333,0.16667 1.25,0.35 1.85,0.55c0.23333,0.03333 0.46667,0.08333 0.7,0.15c0.76667,0.06667 1.56667,0.1 2.4,0.1c0.86667,0.03333 1.81667,0.01667 2.85,-0.05c0.86667,-0.06667 1.78333,-0.16667 2.75,-0.3c0.2,-0.03333 0.41667,-0.06667 0.65,-0.1c1.16667,-0.2 2.71667,-0.48333 4.65,-0.85c0.66667,-0.13333 1.38333,-0.28333 2.15,-0.45c0.16667,-0.03333 0.31667,-0.06667 0.45,-0.1c2.66667,-0.56667 4.61667,-0.93333 5.85,-1.1c1.03333,-0.16667 2.56667,-0.3 4.6,-0.4c1.76667,-0.26667 3.3,-0.63333 4.6,-1.1c0.23333,0.36667 0.16667,0.76667 -0.2,1.2c-0.03333,-0.03333 -0.36667,0.13333 -1,0.5c-1.26667,0.5 -2.8,1.55 -4.6,3.15c-2.16667,1.9 -3.61667,3.08333 -4.35,3.55c-0.9,0.56667 -1.9,1.1 -3,1.6c-1.13333,0.46667 -2.36667,0.83333 -3.7,1.1c-0.36667,0.1 -0.81667,0.21667 -1.35,0.35c-1.46667,0.3 -3.38333,0.56667 -5.75,0.8c-0.26667,0.06667 -0.5,0.1 -0.7,0.1c-1.46667,0.13333 -2.71667,0.23333 -3.75,0.3c-0.16667,0 -0.3,0.01667 -0.4,0.05c0.13333,0.26667 0.26667,0.56667 0.4,0.9c0.2,0.26667 0.38333,0.56667 0.55,0.9c0.36667,0.66667 0.8,1.16667 1.3,1.5c-0.33333,-0.03333 -0.65,-0.08333 -0.95,-0.15c-0.83333,-0.06667 -1.68333,-0.15 -2.55,-0.25c-1.53333,-0.16667 -3.08333,-0.41667 -4.65,-0.75c-2.4,-0.43333 -5.38333,-1.18333 -8.95,-2.25c-5.1,-1.43333 -8.06667,-2.28333 -8.9,-2.55c-6.73333,-1.8 -14.45,-3.15 -23.15,-4.05c-5.26667,-0.53333 -13.1,-1.06667 -23.5,-1.6l-22.85,-1.1c-9.83333,-0.46667 -16.91667,-0.6 -21.25,-0.4c-11.1,0.5 -21.88333,2.53333 -32.35,6.1c-1.33333,0.43333 -2.38333,0.68333 -3.15,0.75c-0.3,0.03333 -0.56667,0.01667 -0.8,-0.05c-0.66667,-0.03333 -1.28333,-0.28333 -1.85,-0.75c-0.5,-0.4 -0.81667,-0.95 -0.95,-1.65c-0.03333,-0.06667 -0.01667,-0.15 0.05,-0.25c-0.03333,-0.13333 -0.05,-0.25 -0.05,-0.35c0.03333,-0.1 0.06667,-0.18333 0.1,-0.25c0.2,-0.73333 0.8,-1.41667 1.8,-2.05c0,-0.03333 0.01667,-0.05 0.05,-0.05c0.43333,-0.23333 0.98333,-0.5 1.65,-0.8c1.53333,-0.56667 3.05,-1.11667 4.55,-1.65c4.5,-2.93333 9.81667,-5.16667 15.95,-6.7c5.73333,-1.4 12.85,-2.36667 21.35,-2.9M181.33472,197.20656c0,-0.36667 0.16667,-1.01667 0.5,-1.95l1.1,-3.15c0.1,-0.26667 0.23333,-0.48333 0.4,-0.65c0.46667,-1.1 1.06667,-2.16667 1.8,-3.2l1.3,-1.9c0.83333,-1.1 1.91667,-2.38333 3.25,-3.85c2.2,-2.46667 4.6,-4.85 7.2,-7.15c1.43333,-1.33333 2.9,-2.6 4.4,-3.8c3.03333,-2.36667 5.86667,-4.23333 8.5,-5.6c0.33333,-0.16667 0.68333,-0.31667 1.05,-0.45c0.4,-0.23333 0.83333,-0.41667 1.3,-0.55c3.26667,-1.5 6.65,-2.51667 10.15,-3.05l0.4,0.7c-0.56667,0.36667 -1.26667,0.68333 -2.1,0.95c-0.96667,0.3 -1.68333,0.48333 -2.15,0.55c-1.36667,0.4 -3.11667,1.23333 -5.25,2.5c-4.1,2.26667 -7.31667,4.25 -9.65,5.95c-2.13333,1.5 -4.85,3.81667 -8.15,6.95c-2.93333,2.56667 -5.11667,4.68333 -6.55,6.35c-0.6,0.8 -1.36667,1.86667 -2.3,3.2c-0.63333,0.9 -1.45,2.3 -2.45,4.2l-0.95,1.6c-0.66667,1.36667 -1.01667,2.43333 -1.05,3.2c-0.2,0.06667 -0.35,0 -0.45,-0.2c-0.13333,-0.23333 -0.23333,-0.45 -0.3,-0.65M197.63472,121.15656c-1.46667,1.6 -2.65,3.33333 -3.55,5.2c-0.96667,2.03333 -1.43333,4.06667 -1.4,6.1c-0.06667,1.96667 0.33333,3.61667 1.2,4.95c0.43333,0.63333 0.95,1.33333 1.55,2.1c0.46667,0.4 1.08333,1.03333 1.85,1.9c1.83333,2.1 3.21667,4.53333 4.15,7.3c-0.36667,0.23333 -0.8,-0.08333 -1.3,-0.95c-0.36667,-0.6 -0.98333,-1.03333 -1.85,-1.3c-1.06667,-0.2 -1.85,-0.35 -2.35,-0.45c-2.26667,-0.5 -4.23333,-1.68333 -5.9,-3.55c-1.63333,-1.76667 -2.7,-3.81667 -3.2,-6.15c-0.4,-2.16667 -0.33333,-4.46667 0.2,-6.9c0.6,-2.23333 1.6,-4.35 3,-6.35c1.1,-1.6 2.28333,-2.6 3.55,-3c0.66667,-0.3 1.41667,-0.33333 2.25,-0.1c0.8,0.16667 1.4,0.56667 1.8,1.2M208.08472,122.30656c0.8,0.2 1.28333,0.93333 1.45,2.2c0.16667,0.76667 0.2,1.91667 0.1,3.45c0.13333,2 1.5,4.05 4.1,6.15c2.26667,1.73333 4.98333,3.33333 8.15,4.8c1.96667,0.93333 4.95,2.1 8.95,3.5l94.45,34.5c0.03333,0 0.06667,0 0.1,0c4.5,1.66667 8.46667,3.08333 11.9,4.25c1.3,0.43333 2.53333,0.85 3.7,1.25c1.16667,0.36667 2.25,0.7 3.25,1c0.76667,0.26667 1.55,0.5 2.35,0.7c6.16667,1.93333 11.85,3.36667 17.05,4.3c-5.66667,0.03333 -11.23333,-0.46667 -16.7,-1.5c-1.33333,-0.26667 -2.65,-0.53333 -3.95,-0.8c-0.76667,-0.23333 -1.5,-0.43333 -2.2,-0.6c-0.1,-0.03333 -0.18333,-0.06667 -0.25,-0.1c-1.06667,-0.23333 -2.13333,-0.51667 -3.2,-0.85c-2.56667,-0.73333 -5.26667,-1.61667 -8.1,-2.65c-0.5,-0.16667 -0.96667,-0.33333 -1.4,-0.5c-0.3,-0.13333 -1.86667,-0.71667 -4.7,-1.75c-2,-0.76667 -4.6,-1.76667 -7.8,-3c-11.03333,-4.2 -25.33333,-9.03333 -42.9,-14.5c-7.8,-2.43333 -14.6,-4.51667 -20.4,-6.25c-2.7,-0.86667 -5.16667,-1.63333 -7.4,-2.3c-3.8,-1.23333 -6.95,-2.23333 -9.45,-3c-2.76667,-0.9 -4.76667,-1.56667 -6,-2c-7.06667,-2.26667 -12.4,-4.41667 -16,-6.45c-4.16667,-2.36667 -7.03333,-4.93333 -8.6,-7.7c-0.93333,-1.83333 -1.35,-3.75 -1.25,-5.75c0.1,-1.53333 0.48333,-2.86667 1.15,-4c0.3,-0.46667 0.61667,-0.88333 0.95,-1.25c0.83333,-0.96667 1.71667,-1.35 2.65,-1.15M128.68472,194.10656c1.36667,-0.23333 2.86667,-0.33333 4.5,-0.3c0.86667,-0.03333 1.81667,-0.01667 2.85,0.05c0.66667,0 3.11667,0.15 7.35,0.45c0.8,0.06667 1.33333,-0.11667 1.6,-0.55c0.56667,0.56667 1.33333,0.95 2.3,1.15c0.53333,0.1 1.36667,0.23333 2.5,0.4c5.2,0.56667 10.23333,1.76667 15.1,3.6c0.8,0.3 1.4,0.63333 1.8,1c0.63333,0.56667 0.83333,1.18333 0.6,1.85c-0.63333,-0.1 -1.35,-0.38333 -2.15,-0.85c-0.86667,-0.53333 -1.56667,-0.9 -2.1,-1.1c-0.9,-0.43333 -2.41667,-0.9 -4.55,-1.4l-2.05,-0.5c-1.46667,-0.36667 -2.85,-0.65 -4.15,-0.85c-1.16667,-0.1 -2.06667,-0.2 -2.7,-0.3c-1.06667,-0.2 -1.93333,-0.46667 -2.6,-0.8c-0.56667,-0.23333 -0.95,-0.36667 -1.15,-0.4c-0.2,-0.03333 -0.73333,0.05 -1.6,0.25c-0.96667,0.3 -2.13333,0.35 -3.5,0.15c-2.16667,-0.16667 -3.43333,-0.25 -3.8,-0.25c-0.86667,0.03333 -2.08333,0.26667 -3.65,0.7c-0.46667,0.1 -0.96667,0.21667 -1.5,0.35l-9.1,2.75c-0.53333,0.13333 -1,0.25 -1.4,0.35c-0.86667,0.23333 -1.6,0.4 -2.2,0.5c-1.3,0.23333 -2.46667,0.21667 -3.5,-0.05c-0.26667,-0.13333 -0.38333,-0.4 -0.35,-0.8c0.03333,-0.3 0.13333,-0.6 0.3,-0.9c0.76667,-0.96667 2.25,-1.71667 4.45,-2.25c0.13333,-0.03333 0.25,-0.05 0.35,-0.05c3.43333,-1.16667 6.21667,-1.9 8.35,-2.2z"/></g></g></svg>