<svg version="1.1" xmlns="http://www.w3.org/2000/svg" xmlns:xlink="http://www.w3.org/1999/xlink" width="141.21736" height="136.97102" viewBox="0,0,141.21736,136.97102"><g transform="translate(-226.23431,-78.29903)"><g data-paper-data="{&quot;isPaintingLayer&quot;:true}" fill-rule="nonzero" stroke="none" stroke-width="1" stroke-linecap="butt" stroke-linejoin="miter" stroke-miterlimit="10" stroke-dasharray="" stroke-dashoffset="0" style="mix-blend-mode: normal"><path d="M269.15424,209.57083c0.07627,-0.04766 0.13823,-0.1144 0.1859,-0.2002l1.63017,0.1859c-0.52432,1.71597 -1.70168,2.90285 -3.53204,3.56064c-0.12393,0.04766 -0.25263,0.1001 -0.38609,0.15729l-0.92948,0.15729l-1.21548,-0.2288c-0.64826,-0.13309 -1.29174,-0.28086 -1.93047,-0.44329c-0.02812,-0.00395 -0.05195,-0.00871 -0.0715,-0.0143c-0.01884,0 -0.03791,-0.00953 -0.05719,-0.0286c-0.00305,0.00023 -0.00782,-0.00454 -0.0143,-0.0143c0,-0.0286 0.0143,-0.05243 0.0429,-0.0715l0.429,-0.0143l0.0143,0.0286l0.429,-0.05719v-0.0143c0.98162,-0.16005 1.92063,-0.50325 2.81705,-1.02958c0.66733,-0.38132 1.46335,-0.99144 2.38806,-1.83037c0.01929,-0.01929 0.03359,-0.03835 0.0429,-0.05719c0.05441,-0.02812 0.10683,-0.05671 0.15729,-0.0858M278.96388,213.28876c-1.12492,0.37179 -2.26889,0.64826 -3.43194,0.82939c-2.80275,0.38132 -5.59121,0.20973 -8.36536,-0.51479c0.429,-0.05719 0.85322,-0.08104 1.27268,-0.0715c2.78369,0.0286 4.33283,-1.21548 4.64742,-3.73224c1.43951,0.19067 2.76462,0.67209 3.97533,1.44427c0.81985,0.53386 1.4538,1.21548 1.90187,2.04487M262.77656,211.4155c1.74405,-0.21409 3.15972,-0.9815 4.24702,-2.30226l0.81509,0.0858c-1.2462,1.8879 -2.98601,2.78879 -5.21942,2.70265c-0.0413,0.00604 -0.07943,0.0108 -0.1144,0.0143c-0.40039,0.06674 -0.70069,0.1144 -0.90089,0.143c-0.35273,0.05719 -0.64826,0.05719 -0.88659,0c-0.20973,-0.06674 -0.29553,-0.16206 -0.25739,-0.28599c0.01906,-0.07627 0.10963,-0.12393 0.27169,-0.143l0.87228,-0.1001c0.21275,-0.02365 0.41294,-0.04748 0.60059,-0.0715h0.0143c0.05649,-0.00294 0.11369,-0.00771 0.17159,-0.0143c0.13168,-0.00492 0.26038,-0.01445 0.38609,-0.0286M286.71434,205.2094c-2.68835,0.89612 -5.45298,1.55867 -8.29386,1.98767l-1.55867,0.17159c-0.0963,0.06047 -0.17257,0.09384 -0.2288,0.1001c-0.06952,0.00771 -0.13626,-0.00659 -0.2002,-0.0429c-0.00641,-0.00823 -0.01594,-0.01776 -0.0286,-0.0286c-0.06674,-0.05719 -0.09533,-0.12393 -0.0858,-0.2002c0.00953,-0.07627 0.09057,-0.16206 0.2431,-0.25739c0.20973,-0.12393 0.5291,-0.37179 0.95808,-0.74358c0.27363,-0.22802 0.51196,-0.40914 0.71499,-0.54339c0.05716,-0.04725 0.11436,-0.09492 0.17159,-0.143c1.7827,-1.48718 2.34516,-3.39381 1.68737,-5.7199c1.96384,0 3.9372,-0.02383 5.9201,-0.0715c2.25936,-0.1144 4.52349,-0.25739 6.79238,-0.429c2.24983,-0.2002 4.49966,-0.46713 6.74949,-0.80079c-1.76364,1.30604 -3.61784,2.49769 -5.56261,3.57494c-2.33563,1.27745 -4.76182,2.3261 -7.27857,3.14595M273.84456,199.87559l0.68639,-0.0143c0.18113,2.93622 -0.95808,5.23848 -3.41764,6.90678c-0.2002,0.13346 -0.40993,0.25263 -0.62919,0.35749l-1.10108,0.47189l-1.60158,-0.1144c2.94575,-0.84845 4.87145,-2.65976 5.7771,-5.43391c0.2288,-0.70545 0.32413,-1.42997 0.28599,-2.17357M275.90373,199.84699l2.48816,-0.0286c0.91519,2.85995 0.14776,5.25278 -2.30226,7.17847c-0.10487,0.07627 -0.21926,0.14776 -0.34319,0.2145l-0.97238,0.37179l-1.54437,0.0715c-0.0019,-0.32767 0.03623,-0.6375 0.1144,-0.92948c0.08565,-0.0626 0.17621,-0.12933 0.27169,-0.2002c0.30507,-0.2288 0.52432,-0.40516 0.65779,-0.5291c0.21926,-0.20973 0.47189,-0.51002 0.75788,-0.90089c0.29169,-0.39429 0.52049,-0.75178 0.68639,-1.07248c0.08695,-0.12892 0.16322,-0.26715 0.2288,-0.4147c0.11354,-0.25892 0.2041,-0.52108 0.27169,-0.78649c0.00685,-0.02536 0.01162,-0.05396 0.0143,-0.0858c0.21852,-0.95418 0.10888,-1.91702 -0.3289,-2.88855M324.37991,168.44472c1.02958,2.27843 1.03435,4.65696 0.0143,7.13558c-0.41946,1.01052 -0.82462,2.02103 -1.21548,3.03155c-0.79126,2.05917 -1.96384,3.88477 -3.51774,5.47681l-0.50049,0.51479l-4.54732,2.20216c1.49671,-1.42997 2.92668,-2.95528 4.28993,-4.57592c1.82084,-2.1831 2.81705,-4.72368 2.98865,-7.62177c0.07627,-1.21071 0.30983,-2.40713 0.70069,-3.58924l-0.84368,-1.70168l2.63116,-0.87228M319.6753,169.86039l0.92948,-0.2288c0.33366,2.65976 -0.1001,5.19557 -1.30128,7.60747c-1.23932,2.49769 -2.63116,4.93341 -4.17553,7.30718c-0.80079,1.22024 -1.72551,2.30226 -2.77416,3.24605l-1.91616,0.78649l-0.25739,-0.143l-0.2431,0.1001c2.16404,-1.71597 3.97533,-3.7799 5.43391,-6.1918c1.48718,-2.44049 2.70265,-5.01445 3.64644,-7.72187c0.53386,-1.53484 0.75312,-3.12212 0.65779,-4.76182M322.24925,160.49405c1.39184,1.74457 1.42521,3.67027 0.1001,5.7771c-0.17159,0.26693 -0.3289,0.54816 -0.47189,0.84368l0.72929,-0.1001c1.8399,-2.0115 2.37376,-4.17553 1.60158,-6.4921c-0.10487,-0.3146 -0.29553,-0.58152 -0.57199,-0.80079l2.37376,-1.34418c1.50624,2.02103 1.56344,4.18506 0.17159,6.4921c-0.10487,0.17159 -0.20973,0.34796 -0.3146,0.5291c-0.51479,0.27646 -1.02482,0.55293 -1.53007,0.82939c-1.40138,0.81985 -2.87902,1.53007 -4.43293,2.13066c1.21071,-1.99243 1.8828,-4.08496 2.01626,-6.2776c0.00953,-0.21926 -0.0858,-0.39562 -0.28599,-0.5291c-0.2002,-0.12393 -0.40039,-0.25263 -0.60059,-0.38609l1.21548,-0.67209M325.0663,157.6627l-2.40236,1.40138l-0.1144,-0.0715l1.98767,-1.55867l0.5291,0.2288M321.83456,141.04638c-1.6683,-2.19263 -3.88,-3.62261 -6.63509,-4.28993l3.37474,-1.81607c2.77416,0.94378 4.89052,2.65499 6.34909,5.13361c1.42997,2.45003 1.9114,5.03828 1.44427,7.76476c-0.45759,2.66929 -1.36325,5.14791 -2.71695,7.43588c-0.65779,1.10584 -1.41091,2.1259 -2.25936,3.06015l-3.67503,2.81705l-0.81509,0.1287c0.71499,-2.00196 1.94954,-3.737 3.70364,-5.20512c0.29553,-0.25739 0.53386,-0.56723 0.71499,-0.92948c1.19164,-2.45956 1.94954,-5.05735 2.27366,-7.79337c0.26693,-2.2975 -0.31936,-4.39956 -1.75887,-6.30619M315.24237,139.10161c-0.78172,-0.26693 -1.44904,-0.70069 -2.00196,-1.30128l0.78649,-0.4147c2.75509,0.59106 4.75229,2.09253 5.9916,4.50443c1.23932,2.42143 1.56344,4.98109 0.97238,7.67897c-0.52432,2.39282 -1.40138,4.66649 -2.63116,6.82098c-1.33464,2.34516 -2.83612,4.59975 -4.50443,6.76379c-0.3146,0.40039 -0.63395,0.79602 -0.95808,1.18688l-0.25739,0.28599l-3.21745,1.95907c1.45857,-2.28797 3.16978,-4.45676 5.13361,-6.50639c0.99144,-1.04865 1.85897,-2.20216 2.60255,-3.46055c1.37278,-2.2975 2.34039,-4.73799 2.90285,-7.32148c0.64826,-2.97435 0.0715,-5.6341 -1.73027,-7.97926c-0.78172,-1.02958 -1.81131,-1.7684 -3.08874,-2.21646M316.35775,135.08338l-1.35848,0.75788c0.33366,-0.37179 0.75788,-0.61489 1.27268,-0.72929c0.0286,-0.00953 0.05719,-0.01906 0.0858,-0.0286M304.60335,117.96657c3.01248,0.03813 5.25278,1.39661 6.72089,4.07543c0.67686,1.22978 0.84368,2.53583 0.50049,3.91814c-0.69592,2.76462 -1.82561,5.34811 -3.38904,7.75047c-1.19164,1.82084 -2.38329,3.64167 -3.57494,5.46251l-2.37376,1.88757l0.97238,-1.44427l-0.17159,-0.38609c2.31656,-2.30703 4.166,-4.96679 5.5483,-7.97926c0.97238,-2.10683 1.56344,-4.32329 1.77317,-6.64939c0.15253,-1.65877 -0.47189,-2.94098 -1.87327,-3.84664c-1.6683,-1.09631 -3.48438,-1.76364 -5.44821,-2.00196l1.31558,-0.78649M309.90856,115.29251c2.64069,0.91519 4.47582,2.68835 5.50541,5.31952c1.03912,2.67882 0.98668,5.36718 -0.15729,8.06506c-0.58152,1.36325 -1.35371,2.62162 -2.31656,3.77513l-0.2002,0.28599l-5.43391,4.46152c1.25838,-1.96384 2.55966,-3.92767 3.90383,-5.8915c1.58251,-2.3261 2.1974,-4.90005 1.84467,-7.72187c-0.38132,-3.11735 -2.13543,-4.96679 -5.26231,-5.5483c-0.69592,-0.15253 -1.30128,-0.44329 -1.81607,-0.87228l3.37474,-2.00196l0.55769,0.1287M360.17221,144.29242c-1.16305,2.4119 -2.48339,4.73323 -3.96103,6.96399c-1.44904,2.1831 -3.00295,4.28516 -4.66172,6.30619c-1.63017,1.9829 -3.30801,3.9229 -5.03351,5.82c-1.76364,1.9257 -3.57494,3.80851 -5.43391,5.6484c-1.82084,1.80177 -3.71794,3.51297 -5.69131,5.13361c-1.9829,1.62064 -4.04207,3.16025 -6.1775,4.61883c-2.24029,1.50624 -4.55209,2.90285 -6.93538,4.18983c0.29553,-0.36226 0.59582,-0.71975 0.90089,-1.07248c1.56344,-1.82084 2.75509,-3.87523 3.57494,-6.1632c0.98191,-2.73602 0.79126,-5.40531 -0.57199,-8.00787c2.56442,-1.07725 5.07641,-2.2832 7.53598,-3.61784c2.65976,-1.47765 5.22418,-3.07444 7.69327,-4.79042c2.34516,-1.62064 4.61405,-3.31277 6.80668,-5.07641c2.13543,-1.70644 4.22796,-3.47008 6.2776,-5.29091c2.03056,-1.79223 4.05637,-3.61307 6.0774,-5.46251c-0.13346,0.26693 -0.26693,0.53386 -0.40039,0.80079M356.15398,138.52962c-1.69691,2.11636 -3.48914,4.17077 -5.37671,6.1632c-1.74457,1.83037 -3.54157,3.61307 -5.39101,5.34811c-1.84944,1.7541 -3.737,3.47008 -5.6627,5.14791c-1.99243,1.73504 -4.03254,3.39381 -6.12029,4.97632c-2.16404,1.63971 -4.39956,3.17931 -6.70658,4.61883c0.2002,-0.25739 0.39562,-0.51479 0.58629,-0.77219c1.65877,-2.17357 1.73027,-4.37572 0.2145,-6.60649c1.02005,-0.60059 2.03533,-1.20118 3.04585,-1.80177c2.00196,-1.18211 3.98487,-2.41666 5.9487,-3.70364c1.8971,-1.24885 3.77513,-2.51676 5.6341,-3.80374c2.17357,-1.47765 4.31853,-2.97911 6.43489,-4.50443c2.73602,-1.9543 5.44821,-3.94674 8.13657,-5.9773c-0.24786,0.30507 -0.49572,0.61012 -0.74358,0.91519M355.82508,118.20966c-1.21071,2.15449 -2.48339,4.2804 -3.81804,6.3777c-1.36325,2.1259 -2.79799,4.2089 -4.30423,6.24899c-1.51577,2.04964 -3.07921,4.07543 -4.69032,6.0774c-1.60158,1.97337 -3.25558,3.8943 -4.96201,5.7628c-1.70644,1.84944 -3.45101,3.6512 -5.23371,5.40531c-1.99243,1.97337 -4.05637,3.89906 -6.1918,5.7771c1.76364,-2.19263 2.96005,-4.67125 3.58924,-7.43588c0.65779,-2.89809 -0.01906,-5.37671 -2.03056,-7.43588c-1.8685,-1.90663 -4.07543,-3.24128 -6.62079,-4.00393c-0.25739,-0.06674 -0.51479,-0.13346 -0.77219,-0.2002l-0.429,-0.80079c1.44904,-0.74358 2.89332,-1.50624 4.33283,-2.28797c2.2117,-1.23932 4.39956,-2.49292 6.56359,-3.76083c2.82182,-1.65877 5.63887,-3.35568 8.45115,-5.09072c2.25936,-1.40138 4.49012,-2.83612 6.69228,-4.30423c2.0973,-1.39184 4.15647,-2.80752 6.1775,-4.24702c2.88855,-2.0687 5.71514,-4.18983 8.47976,-6.36339c-0.50525,1.14398 -1.02958,2.25936 -1.57297,3.34615c-1.17258,2.36422 -2.39282,4.67602 -3.66073,6.93538M354.72401,93.11358c-1.5539,1.80177 -3.14118,3.57971 -4.76182,5.33381c-1.73504,1.8971 -3.48438,3.75607 -5.24801,5.57691c-1.7541,1.80177 -3.54157,3.56541 -5.36241,5.29091c-1.63017,1.56344 -3.29371,3.12688 -4.99062,4.69032c-2.02103,1.87803 -4.0802,3.74654 -6.1775,5.60551c-2.08777,1.8399 -4.17077,3.6512 -6.24899,5.43391c-2.13543,1.82084 -4.2804,3.62261 -6.43489,5.40531l-0.51479,-0.62919c1.70644,-2.3261 2.95051,-4.90482 3.73224,-7.73617c0.78172,-2.83135 0,-5.09072 -2.34516,-6.77809c-1.14398,-0.80079 -2.43573,-1.22024 -3.87523,-1.25838l-0.3146,-0.54339c0.52432,-0.30507 1.04865,-0.60535 1.57297,-0.90089c2.24029,-1.29651 4.46629,-2.60255 6.67799,-3.91814c1.6683,-1.01052 3.33661,-2.0115 5.00492,-3.00295c1.30604,-0.79126 2.61209,-1.57297 3.91814,-2.34516c1.63971,-0.98191 3.27464,-1.96384 4.90482,-2.94575c2.49769,-1.47765 4.97632,-2.96005 7.43588,-4.44722c3.49867,-2.1259 6.99258,-4.26132 10.48173,-6.40629c3.69887,-2.24029 7.35961,-4.53303 10.98221,-6.87819c-1.09631,1.41091 -2.1974,2.82182 -3.30324,4.23273c-1.6683,2.11636 -3.37951,4.18983 -5.13361,6.22039z" fill="#5b5d5e"/><path d="M363.53265,105.19689c-0.25739,1.76364 -0.77696,3.44624 -1.55867,5.04781c-1.21071,2.46909 -2.512,4.88575 -3.90383,7.24998c-1.42044,2.39282 -2.85995,4.75229 -4.31853,7.07839c-1.54437,2.46909 -3.17931,4.88099 -4.90482,7.23568c-1.63971,2.24983 -3.36045,4.45199 -5.16221,6.60649c-1.08678,1.31558 -2.1974,2.61685 -3.33185,3.90383c-1.8971,2.1259 -3.84664,4.19936 -5.8486,6.22039c-2.77416,2.77416 -5.67701,5.40054 -8.70856,7.87916c-0.41946,0.33366 -0.83892,0.67209 -1.25838,1.01529l-1.98767,1.55867l-0.80079,0.61489l0.91519,-0.54339l2.40236,-1.40138c2.2117,-1.30604 4.42339,-2.63116 6.63509,-3.97533c2.1259,-1.30604 4.23749,-2.65499 6.33479,-4.04684c2.04009,-1.35371 4.05637,-2.72172 6.0488,-4.10403c2.04009,-1.41091 4.05637,-2.86472 6.0488,-4.36142c2.00196,-1.51577 4.0516,-2.97435 6.1489,-4.37572c0.99144,-0.64826 2.00673,-1.19164 3.04585,-1.63017l0.2431,0.2002c-0.20973,0.93425 -0.60059,1.7827 -1.17258,2.54536c-0.99144,1.32511 -2.03056,2.57872 -3.11735,3.76083c-1.76364,1.91616 -3.55587,3.80374 -5.37671,5.6627c-1.80177,1.8399 -3.64167,3.64167 -5.5197,5.40531c-1.54437,1.43951 -3.12688,2.85041 -4.74752,4.23273c-2.93622,2.50722 -6.00589,4.82855 -9.20905,6.96399c1.91616,-0.87706 3.78467,-1.82561 5.60551,-2.84565c1.34418,-0.76266 2.65976,-1.5539 3.94674,-2.37376c1.6683,-1.06771 3.30324,-2.18787 4.90482,-3.36045c1.96384,-1.44904 3.8943,-2.94575 5.79141,-4.49012c1.77317,-1.45857 3.51774,-2.95528 5.23371,-4.49012c1.77317,-1.60158 3.67027,-3.01248 5.69131,-4.23273l0.34319,0.2288c-0.49572,1.58251 -1.14875,3.09829 -1.95907,4.54732c-1.30604,2.30703 -2.71695,4.54732 -4.23273,6.72089c-1.46811,2.10683 -3.02202,4.1517 -4.66172,6.1346c-1.61111,1.96384 -3.28418,3.89906 -5.01922,5.80571c-1.81131,1.9829 -3.68458,3.91814 -5.6198,5.80571c-4.94771,4.83331 -10.42929,8.96119 -16.44473,12.38359c-2.26889,1.29651 -4.59499,2.49292 -6.97829,3.58924l0.1144,0.05719l-5.00492,2.13066l0.15729,0.0715l-1.24408,0.54339l-0.15729,-0.1001c-2.0115,0.81032 -4.04207,1.5539 -6.0917,2.23076c-1.7827,0.59106 -3.57971,1.13922 -5.39101,1.64447c-2.39282,0.69592 -4.80948,1.29174 -7.24998,1.78747c-3.30801,0.62919 -6.63509,1.09631 -9.98123,1.40138c-2.03056,0.20973 -4.0516,0.33366 -6.0631,0.37179c-5.37671,0.20973 -10.72482,-0.1001 -16.04433,-0.92948c-0.38132,-0.07627 -0.76266,-0.14776 -1.14398,-0.2145c0.37072,0.11134 0.74251,0.21621 1.11539,0.3146c2.14842,0.6026 4.33152,1.07449 6.54929,1.41567c1.48718,0.23833 3.01248,0.37656 4.57592,0.4147c2.30703,0.04766 4.60452,0.06197 6.89248,0.0429c2.40236,-0.01906 4.81425,-0.08104 7.23568,-0.1859c2.16404,-0.0858 4.31853,-0.20973 6.46349,-0.37179c3.80374,-0.38132 7.58364,-0.91519 11.33971,-1.60158c0.03813,0.38132 -0.0715,0.70069 -0.3289,0.95808c-0.37179,0.36226 -0.78172,0.65303 -1.22978,0.87228c-1.34418,0.65779 -2.60732,1.41091 -3.78943,2.25936c-2.05917,1.48718 -4.1946,2.82182 -6.40629,4.00393c-1.82084,0.98191 -3.72271,1.79223 -5.70561,2.43096c-3.18408,1.04865 -6.43012,1.79223 -9.73813,2.23076c1.06771,0.58152 2.05917,1.28221 2.97435,2.10206c0.43853,0.39086 0.81032,0.82462 1.11539,1.30128c0.15253,0.23833 0.17159,0.50525 0.05719,0.80079c-0.19067,0.45759 -0.51479,0.79602 -0.97238,1.01529c-0.62919,0.32413 -1.30604,0.54339 -2.03056,0.65779c-5.75803,0.59106 -11.44934,0.13823 -17.07391,-1.35848c-1.43951,-0.40039 -2.86949,-0.82939 -4.28993,-1.28698c-1.11539,-0.33366 -2.19263,-0.73882 -3.23175,-1.21548c-0.16206,-0.0858 -0.33366,-0.14776 -0.51479,-0.1859c-1.96384,-0.91519 -3.84664,-1.9686 -5.6484,-3.16025c-0.78172,-0.51479 -1.52531,-1.09154 -2.23076,-1.73027c-0.90565,-0.82939 -1.66354,-1.77793 -2.27366,-2.84565c-0.34319,-0.59106 -0.68162,-1.18688 -1.01529,-1.78747l1.01529,0.85798c1.88757,1.61111 3.83234,3.15548 5.8343,4.63313c2.19263,1.61111 4.59975,2.81229 7.22138,3.60354c2.51676,0.76266 5.05258,1.4538 7.60747,2.07347c0.13615,0.03683 0.26961,0.07019 0.40039,0.1001c0.01929,0.01906 0.03835,0.0286 0.05719,0.0286c0.01955,0.00559 0.04339,0.01035 0.0715,0.0143c0.63872,0.16244 1.28221,0.3102 1.93047,0.44329l1.21548,0.2288l1.04388,0.17159c2.77416,0.72452 5.56261,0.89612 8.36536,0.51479c1.16305,-0.18113 2.30703,-0.45759 3.43194,-0.82939c-0.44806,-0.82939 -1.08201,-1.51101 -1.90187,-2.04487c-1.21071,-0.77219 -2.53583,-1.25361 -3.97533,-1.44427l-2.11636,-0.2431l-1.63017,-0.1859l-1.50148,-0.17159l-0.81509,-0.0858c-2.81229,-0.0858 -5.534,-0.59582 -8.16516,-1.53007c-1.76364,-0.61012 -3.27464,-1.51577 -4.53303,-2.71695c1.46811,-0.40993 2.97435,-0.2431 4.51873,0.50049c0.92472,0.429 1.89233,0.75788 2.90285,0.98668c1.9829,0.49572 3.9944,0.87228 6.0345,1.12968l1.60158,0.1144l3.84664,0.05719l1.54437,-0.0715l0.98668,-0.0858l0.67209,-0.0715c0.06394,0.0363 0.13068,0.0506 0.2002,0.0429c0.05623,-0.00625 0.1325,-0.03963 0.2288,-0.1001l1.55867,-0.17159c2.84088,-0.429 5.60551,-1.09154 8.29386,-1.98767c2.51676,-0.81985 4.94295,-1.8685 7.27857,-3.14595c1.94477,-1.07725 3.79897,-2.26889 5.56261,-3.57494c-2.24983,0.33366 -4.49966,0.60059 -6.74949,0.80079c-2.26889,0.17159 -4.53303,0.3146 -6.79238,0.429c-1.9829,0.04766 -3.95627,0.0715 -5.9201,0.0715l-1.70168,0.0286l-2.48816,0.0286l-1.37278,0.0143l-0.68639,0.0143c-2.84088,0.07627 -5.69131,-0.0143 -8.55125,-0.27169c-2.75509,-0.20973 -5.42437,-0.80555 -8.00787,-1.78747c-1.65877,-0.63872 -2.86949,-1.68737 -3.63214,-3.14595c0.98191,-0.38132 1.97337,-0.46713 2.97435,-0.25739c3.20314,0.64826 6.40153,1.05818 9.59514,1.22978c10.60089,0.83892 21.03971,-0.0858 31.31647,-2.77416c3.42241,-0.89612 6.78762,-1.95907 10.09563,-3.18884c0.54339,-0.21926 1.09154,-0.43376 1.64447,-0.64349l-0.0715,-0.1859l0.72929,-0.3146l0.2431,-0.1001l0.25739,0.143l1.91616,-0.78649l2.25936,-0.98668l4.54732,-2.20216l0.60059,-0.3003l2.51676,-1.32987c2.38329,-1.28698 4.69509,-2.68359 6.93538,-4.18983c2.13543,-1.45857 4.1946,-2.99819 6.1775,-4.61883c1.97337,-1.62064 3.87047,-3.33185 5.69131,-5.13361c1.85897,-1.8399 3.67027,-3.72271 5.43391,-5.6484c1.72551,-1.8971 3.40334,-3.8371 5.03351,-5.82c1.65877,-2.02103 3.21267,-4.12309 4.66172,-6.30619c1.47765,-2.23076 2.79799,-4.55209 3.96103,-6.96399c0.13346,-0.26693 0.26693,-0.53386 0.40039,-0.80079c-2.02103,1.84944 -4.04684,3.67027 -6.0774,5.46251c-2.04964,1.82084 -4.14216,3.58448 -6.2776,5.29091c-2.19263,1.76364 -4.46152,3.45578 -6.80668,5.07641c-2.46909,1.71597 -5.03351,3.31277 -7.69327,4.79042c-2.45956,1.33464 -4.97155,2.54059 -7.53598,3.61784l-1.80177,0.71499l-2.63116,0.87228l-1.14398,0.3146l-0.92948,0.2288l-1.05818,0.2288c-0.429,-0.67686 -0.18113,-1.17735 0.74358,-1.50148c0.19067,-0.06674 0.37179,-0.143 0.54339,-0.2288c1.5539,-0.60059 3.03155,-1.31081 4.43293,-2.13066c0.50525,-0.27646 1.01529,-0.55293 1.53007,-0.82939l1.02958,-0.61489c2.30703,-1.43951 4.54256,-2.97911 6.70658,-4.61883c2.08777,-1.58251 4.12786,-3.24128 6.12029,-4.97632c1.9257,-1.67783 3.81327,-3.39381 5.6627,-5.14791c1.84944,-1.73504 3.64644,-3.51774 5.39101,-5.34811c1.88757,-1.99243 3.6798,-4.04684 5.37671,-6.1632c0.24786,-0.30507 0.49572,-0.61012 0.74358,-0.91519c-2.68835,2.03056 -5.40054,4.02299 -8.13657,5.9773c-2.11636,1.52531 -4.26132,3.02678 -6.43489,4.50443c-1.85897,1.28698 -3.737,2.55489 -5.6341,3.80374c-1.96384,1.28698 -3.94674,2.52153 -5.9487,3.70364c-1.01052,0.60059 -2.0258,1.20118 -3.04585,1.80177l-1.68737,0.97238l-2.37376,1.34418l-1.38708,0.77219l-1.21548,0.67209c-2.47862,1.37278 -4.97155,2.76462 -7.47877,4.17553c-2.3261,1.30604 -4.66172,2.60732 -7.00688,3.90383c-2.36422,1.29651 -4.77612,2.49292 -7.23568,3.58924c-2.55489,1.11539 -5.15268,2.14496 -7.79337,3.08874c-2.59302,0.95332 -5.20988,1.80177 -7.85057,2.54536c-2.62162,0.69592 -5.25754,1.32034 -7.90777,1.87327c-2.62162,0.52432 -5.26231,0.94855 -7.92207,1.27268c-2.73602,0.32413 -5.50064,0.59582 -8.29386,0.81509c-1.61111,0.1144 -3.19361,-0.05243 -4.74752,-0.50049c-0.39086,-0.12393 -0.77219,-0.27646 -1.14398,-0.45759c3.34615,-0.00953 6.68752,-0.16206 10.02413,-0.45759c3.04108,-0.27646 6.0631,-0.68162 9.06605,-1.21548c2.79322,-0.53386 5.57214,-1.13922 8.33676,-1.81607c2.61209,-0.67686 5.19081,-1.44904 7.73617,-2.31656c2.54536,-0.83892 5.05735,-1.76364 7.53598,-2.77416c2.19263,-0.87706 4.36142,-1.83037 6.50639,-2.85995c2.24029,-1.06771 4.42816,-2.21646 6.56359,-3.44624l3.21745,-1.95907l0.3146,-0.2002l4.16123,-2.84565l0.60059,-0.429l3.67503,-2.81705l5.23371,-4.47582c2.13543,-1.87803 4.19936,-3.80374 6.1918,-5.7771c1.7827,-1.7541 3.52727,-3.55587 5.23371,-5.40531c1.70644,-1.8685 3.36045,-3.78943 4.96201,-5.7628c1.61111,-2.00196 3.17454,-4.02776 4.69032,-6.0774c1.50624,-2.04009 2.94098,-4.12309 4.30423,-6.24899c1.33464,-2.0973 2.60732,-4.22319 3.81804,-6.3777c1.26791,-2.25936 2.48816,-4.57116 3.66073,-6.93538c0.54339,-1.08678 1.06771,-2.20216 1.57297,-3.34615c-2.76462,2.17357 -5.59121,4.2947 -8.47976,6.36339c-2.02103,1.43951 -4.0802,2.85518 -6.1775,4.24702c-2.20216,1.46811 -4.43293,2.90285 -6.69228,4.30423c-2.81229,1.73504 -5.62934,3.43194 -8.45115,5.09072c-2.16404,1.26791 -4.35189,2.52153 -6.56359,3.76083c-1.43951,0.78172 -2.88379,1.54437 -4.33283,2.28797l-1.78747,0.95808l-3.37474,1.81607l-1.17258,0.62919l-0.78649,0.4147l-8.40826,4.53303c2.23076,-1.60158 4.50919,-3.09829 6.83529,-4.49012c1.11539,-0.67686 2.226,-1.34418 3.33185,-2.00196l1.35848,-0.75788c2.15449,-1.17258 4.309,-2.34993 6.46349,-3.53204c2.25936,-1.26791 4.52349,-2.53583 6.79238,-3.80374c2.16404,-1.22024 4.31376,-2.47862 6.44919,-3.77513c2.1831,-1.31558 4.35189,-2.67882 6.50639,-4.08973c2.26889,-1.49671 4.49966,-3.02202 6.69228,-4.57592c2.08777,-1.45857 4.1088,-3.00772 6.0631,-4.64742c2.1259,-1.7827 4.4091,-3.37951 6.84959,-4.79042c0.429,-0.25739 0.88182,-0.48142 1.35848,-0.67209M257.82883,196.17195l0.91519,0.28599l-0.2288,-0.1859l-0.68639,-0.1001M367.37929,79.15702c-0.04766,0.1144 -0.1001,0.22403 -0.15729,0.3289c-0.84845,1.40138 -1.79223,2.74078 -2.83135,4.01823c-1.12492,1.37278 -2.24983,2.76939 -3.37474,4.18983c-2.00196,2.56442 -4.06113,5.08118 -6.1775,7.55028c-1.39184,1.63017 -2.81705,3.25081 -4.27563,4.86192c-1.08678,1.21071 -2.2117,2.40713 -3.37474,3.58924c-0.40993,0.429 -0.82462,0.85322 -1.24408,1.27268c-2.08777,2.16404 -4.23273,4.28993 -6.43489,6.3777c-1.68737,1.60158 -3.39381,3.20791 -5.11932,4.81902c-3.26035,3.05061 -6.59218,6.03927 -9.99554,8.96595c-3.49867,2.97435 -7.05931,5.8915 -10.68192,8.75145c-2.26889,1.80177 -4.55686,3.58924 -6.86389,5.36241c-0.91519,0.70545 -1.8399,1.41091 -2.77416,2.11636c-2.19263,1.65877 -4.41386,3.30324 -6.66369,4.93341c-2.1831,1.58251 -4.37572,3.14118 -6.57789,4.67602c-2.08777,1.46811 -4.20413,2.90285 -6.34909,4.30423c-2.36422,1.54437 -4.75706,3.04585 -7.17847,4.50443c-2.22123,1.32511 -4.49012,2.61685 -6.80668,3.87523c-2.45956,1.31558 -4.96679,2.54536 -7.52167,3.68934c-2.53583,1.14398 -5.13361,2.10206 -7.79337,2.87426c-0.81985,0.25739 -1.64447,0.49572 -2.47386,0.71499c3.27941,-1.24885 6.51593,-2.62638 9.70954,-4.13263c1.73504,-0.80079 3.46531,-1.64447 5.19081,-2.53106c1.48718,-0.76266 2.95528,-1.54914 4.40433,-2.35946c1.85897,-1.03912 3.68934,-2.11636 5.49111,-3.23175c2.02103,-1.23932 3.99916,-2.512 5.9344,-3.81804c3.08874,-2.04009 6.1346,-4.13263 9.13754,-6.2776c3.36521,-2.42143 6.66845,-4.92865 9.90973,-7.52167l2.37376,-1.88757l2.44526,-1.97337l5.43391,-4.46152l0.25739,-0.2145l2.50245,-2.07347c2.15449,-1.7827 4.29946,-3.58448 6.43489,-5.40531c2.07823,-1.7827 4.16123,-3.59401 6.24899,-5.43391c2.0973,-1.85897 4.15647,-3.72747 6.1775,-5.60551c1.69691,-1.56344 3.36045,-3.12688 4.99062,-4.69032c1.82084,-1.72551 3.60831,-3.48914 5.36241,-5.29091c1.76364,-1.82084 3.51297,-3.6798 5.24801,-5.57691c1.62064,-1.7541 3.20791,-3.53204 4.76182,-5.33381c1.7541,-2.03056 3.46531,-4.10403 5.13361,-6.22039c1.10584,-1.41091 2.20693,-2.82182 3.30324,-4.23273c-3.62261,2.34516 -7.28334,4.63789 -10.98221,6.87819c-3.48914,2.14496 -6.98305,4.2804 -10.48173,6.40629c-2.45956,1.48718 -4.93818,2.96958 -7.43588,4.44722c-1.63017,0.98191 -3.26511,1.96384 -4.90482,2.94575c-1.30604,0.77219 -2.61209,1.5539 -3.91814,2.34516c-1.6683,0.99144 -3.33661,1.99243 -5.00492,3.00295c-2.2117,1.31558 -4.43769,2.62162 -6.67799,3.91814c-0.52432,0.29553 -1.04865,0.59582 -1.57297,0.90089l-2.47386,1.45857l-0.35749,0.2002l-3.37474,2.00196l-1.37278,0.80079l-1.31558,0.78649l-11.22531,6.62079c-0.32413,0.18113 -0.64349,0.36703 -0.95808,0.55769c-2.15449,1.30604 -4.33283,2.57872 -6.53499,3.81804c-2.33563,1.31558 -4.69032,2.64069 -7.06408,3.97533c-2.38329,1.34418 -4.77612,2.66929 -7.17847,3.97533c-2.39282,1.31558 -4.79519,2.61685 -7.20708,3.90383c-2.35469,1.22978 -4.72368,2.46909 -7.10698,3.71794c-2.38329,1.24885 -4.78565,2.48339 -7.20708,3.70364c-2.4119,1.22024 -4.82378,2.44049 -7.23568,3.66073c-2.34516,1.19164 -4.68079,2.42619 -7.00688,3.70364c-1.77317,0.96285 -3.64644,1.68737 -5.6198,2.17357l-1.28698,0.28599l-0.0715,-0.2288l0.37179,-0.40039l50.29225,-26.86925c1.28698,-0.67686 2.56442,-1.35371 3.83234,-2.03056c0.429,-0.21926 0.85798,-0.43376 1.28698,-0.64349c3.00295,-1.5539 5.963,-3.18408 8.88015,-4.89052c1.48718,-0.88659 2.98865,-1.77793 4.50443,-2.67406c2.67882,-1.59204 5.34811,-3.19361 8.00787,-4.80472c1.62064,-0.98191 3.24605,-1.97337 4.87622,-2.97435l36.72178,-22.19323c1.04865,-0.58152 2.0687,-1.19164 3.06015,-1.83037c0.33366,-0.2002 0.67209,-0.40039 1.01529,-0.60059c2.22123,-1.32511 4.3948,-2.69312 6.52069,-4.10403c2.16404,-1.45857 4.36142,-2.87902 6.59218,-4.26132c1.12492,-0.68639 2.30226,-1.36801 3.53204,-2.04487l0.3289,0.15729c0.06674,0.23833 0.05719,0.47189 -0.0286,0.70069z" fill="#000000"/><path d="M292.06246,125.37384l11.22531,-6.62079c1.96384,0.23833 3.7799,0.90565 5.44821,2.00196c1.40138,0.90565 2.0258,2.18787 1.87327,3.84664c-0.20973,2.3261 -0.80079,4.54256 -1.77317,6.64939c-1.38231,3.01248 -3.23175,5.67224 -5.5483,7.97926l0.17159,0.38609l-0.97238,1.44427c-3.24128,2.59302 -6.54452,5.10025 -9.90973,7.52167c-3.00295,2.14496 -6.0488,4.23749 -9.13754,6.2776c-1.93524,1.30604 -3.91336,2.57872 -5.9344,3.81804c-1.80177,1.11539 -3.63214,2.19263 -5.49111,3.23175c-1.44904,0.81032 -2.91715,1.59681 -4.40433,2.35946c-1.72551,0.88659 -3.45578,1.73027 -5.19081,2.53106c-3.19361,1.50624 -6.43012,2.88379 -9.70954,4.13263c0.82939,-0.21926 1.654,-0.45759 2.47386,-0.71499c2.65976,-0.77219 5.25754,-1.73027 7.79337,-2.87426c2.55489,-1.14398 5.06211,-2.37376 7.52167,-3.68934c2.31656,-1.25838 4.58545,-2.55013 6.80668,-3.87523c2.42143,-1.45857 4.81425,-2.96005 7.17847,-4.50443c2.14496,-1.40138 4.26132,-2.83612 6.34909,-4.30423c2.20216,-1.53484 4.3948,-3.09351 6.57789,-4.67602c2.24983,-1.63017 4.47106,-3.27464 6.66369,-4.93341l0.75788,0.97238l8.40826,-4.53303c0.55293,0.60059 1.22024,1.03435 2.00196,1.30128c1.27745,0.44806 2.30703,1.18688 3.08874,2.21646c1.80177,2.34516 2.37852,5.00492 1.73027,7.97926c-0.56246,2.58349 -1.53007,5.02398 -2.90285,7.32148c-0.74358,1.25838 -1.61111,2.4119 -2.60255,3.46055c-1.96384,2.04964 -3.67503,4.21843 -5.13361,6.50639c-2.13543,1.22978 -4.32329,2.37852 -6.56359,3.44624c-2.14496,1.02958 -4.31376,1.9829 -6.50639,2.85995c-2.47862,1.01052 -4.99062,1.93524 -7.53598,2.77416c-2.54536,0.86751 -5.12408,1.63971 -7.73617,2.31656c-2.76462,0.67686 -5.54354,1.28221 -8.33676,1.81607c-3.00295,0.53386 -6.02497,0.93902 -9.06605,1.21548c-3.33661,0.29553 -6.67799,0.44806 -10.02413,0.45759c0.37179,0.18113 0.75312,0.33366 1.14398,0.45759c1.5539,0.44806 3.13642,0.61489 4.74752,0.50049c2.79322,-0.21926 5.55784,-0.49096 8.29386,-0.81509c2.65976,-0.32413 5.30044,-0.74835 7.92207,-1.27268c2.65023,-0.55293 5.28614,-1.17735 7.90777,-1.87327c2.64069,-0.74358 5.25754,-1.59204 7.85057,-2.54536c2.64069,-0.94378 5.23848,-1.97337 7.79337,-3.08874c2.45956,-1.09631 4.87145,-2.29273 7.23568,-3.58924c2.34516,-1.29651 4.68079,-2.59779 7.00688,-3.90383c2.50722,-1.41091 5.00015,-2.80275 7.47877,-4.17553c0.2002,0.13346 0.40039,0.26216 0.60059,0.38609c0.2002,0.13346 0.29553,0.30983 0.28599,0.5291c-0.13346,2.19263 -0.80555,4.28516 -2.01626,6.2776c-0.17159,0.0858 -0.35273,0.16206 -0.54339,0.2288c-0.92472,0.32413 -1.17258,0.82462 -0.74358,1.50148l1.05818,-0.2288c0.09533,1.63971 -0.12393,3.22698 -0.65779,4.76182c-0.94378,2.70742 -2.15926,5.28138 -3.64644,7.72187c-1.45857,2.4119 -3.26988,4.47582 -5.43391,6.1918l-0.72929,0.3146l0.0715,0.1859c-0.55293,0.20973 -1.10108,0.42423 -1.64447,0.64349c-3.30801,1.22978 -6.67322,2.29273 -10.09563,3.18884c-10.27676,2.68835 -20.71558,3.61307 -31.31647,2.77416c-3.19361,-0.17159 -6.392,-0.58152 -9.59514,-1.22978c-1.00099,-0.20973 -1.99243,-0.12393 -2.97435,0.25739c0.76266,1.45857 1.97337,2.50722 3.63214,3.14595c2.58349,0.98191 5.25278,1.57775 8.00787,1.78747c2.85995,0.25739 5.71037,0.34796 8.55125,0.27169c0.03813,0.74358 -0.05719,1.46811 -0.28599,2.17357c-0.90565,2.77416 -2.83135,4.58545 -5.7771,5.43391c-2.04009,-0.25739 -4.0516,-0.63395 -6.0345,-1.12968c-1.01052,-0.2288 -1.97813,-0.55769 -2.90285,-0.98668c-1.54437,-0.74358 -3.05061,-0.91042 -4.51873,-0.50049c1.25838,1.20118 2.76939,2.10683 4.53303,2.71695c2.63116,0.93425 5.35288,1.44427 8.16516,1.53007c-1.0873,1.32075 -2.50298,2.08818 -4.24702,2.30226c-0.12571,0.01416 -0.25442,0.02369 -0.38609,0.0286c-0.05791,0.00659 -0.11511,0.01136 -0.17159,0.0143h-0.0143c-0.18764,0.02402 -0.38784,0.04786 -0.60059,0.0715l-0.87228,0.1001c-0.16206,0.01906 -0.25263,0.06674 -0.27169,0.143c-0.03813,0.12393 0.04766,0.21926 0.25739,0.28599c0.23833,0.05719 0.53386,0.05719 0.88659,0c0.2002,-0.0286 0.50049,-0.07627 0.90089,-0.143c0.03497,-0.00351 0.0731,-0.00827 0.1144,-0.0143c2.23341,0.08613 3.97321,-0.81475 5.21942,-2.70265l1.50148,0.17159c-0.04766,0.0858 -0.10963,0.15253 -0.1859,0.2002c-0.05046,0.02908 -0.10289,0.05769 -0.15729,0.0858c-0.00931,0.01884 -0.02361,0.03791 -0.0429,0.05719c-0.92472,0.83892 -1.72074,1.44904 -2.38806,1.83037c-0.89642,0.52634 -1.83544,0.86953 -2.81705,1.02958v0.0143l-0.429,0.05719l-0.0143,-0.0286l-0.429,0.0143c-0.0286,0.01906 -0.0429,0.0429 -0.0429,0.0715c0.00648,0.00976 0.01124,0.01452 0.0143,0.0143c-0.13079,-0.0299 -0.26425,-0.06327 -0.40039,-0.1001c-2.55489,-0.61965 -5.09072,-1.31081 -7.60747,-2.07347c-2.62162,-0.79126 -5.02875,-1.99243 -7.22138,-3.60354c-2.00196,-1.47765 -3.94674,-3.02202 -5.8343,-4.63313c-0.29314,-0.32439 -0.5839,-0.65328 -0.87228,-0.98668c-1.56437,-1.76717 -3.07061,-3.58801 -4.51873,-5.46251c-1.42997,-1.8399 -2.73602,-3.75607 -3.91814,-5.7485c-1.40138,-2.35469 -2.61209,-4.81902 -3.63214,-7.39297c-1.03912,-2.65023 -1.77317,-5.39577 -2.20216,-8.23666c-0.40993,-2.73602 -0.51002,-5.49111 -0.3003,-8.26526c0.20973,-2.80275 1.07725,-5.35288 2.60255,-7.65037c1.97337,-0.48619 3.84664,-1.21071 5.6198,-2.17357c2.3261,-1.27745 4.66172,-2.512 7.00688,-3.70364c2.4119,-1.22024 4.82378,-2.44049 7.23568,-3.66073c2.42143,-1.22024 4.82378,-2.45479 7.20708,-3.70364c2.38329,-1.24885 4.75229,-2.48816 7.10698,-3.71794c2.4119,-1.28698 4.81425,-2.58825 7.20708,-3.90383c2.40236,-1.30604 4.79519,-2.63116 7.17847,-3.97533c2.37376,-1.33464 4.72845,-2.65976 7.06408,-3.97533c2.20216,-1.23932 4.38049,-2.512 6.53499,-3.81804c0.3146,-0.19067 0.63395,-0.37656 0.95808,-0.55769M273.08668,209.79962c-0.3146,2.51676 -1.86374,3.76083 -4.64742,3.73224c-0.41946,-0.00953 -0.84368,0.0143 -1.27268,0.0715l-1.04388,-0.17159l0.92948,-0.15729c0.13346,-0.05719 0.26216,-0.10963 0.38609,-0.15729c1.83037,-0.65779 3.00772,-1.84467 3.53204,-3.56064l2.11636,0.2431M278.23459,205.65269c-0.20303,0.13424 -0.44136,0.31538 -0.71499,0.54339c-0.429,0.37179 -0.74835,0.61965 -0.95808,0.74358c-0.15253,0.09533 -0.23356,0.18113 -0.2431,0.25739c-0.00953,0.07627 0.01906,0.143 0.0858,0.2002c0.01266,0.01083 0.02219,0.02037 0.0286,0.0286l-0.67209,0.0715l-0.0143,-0.28599c0.12393,-0.06674 0.23833,-0.13823 0.34319,-0.2145c2.45003,-1.9257 3.21745,-4.31853 2.30226,-7.17847l1.70168,-0.0286c0.65779,2.3261 0.09533,4.23273 -1.68737,5.7199c-0.05724,0.04807 -0.11444,0.09574 -0.17159,0.143M276.23263,202.73555c-0.00269,0.03184 -0.00745,0.06044 -0.0143,0.0858c-0.06759,0.2654 -0.15815,0.52757 -0.27169,0.78649c-0.06558,0.14754 -0.14185,0.28578 -0.2288,0.4147c-0.1659,0.32071 -0.3947,0.6782 -0.68639,1.07248c-0.28599,0.39086 -0.53863,0.69116 -0.75788,0.90089c-0.13346,0.12393 -0.35273,0.3003 -0.65779,0.5291c-0.09548,0.07087 -0.18604,0.13759 -0.27169,0.2002c-0.07817,0.29199 -0.11629,0.60182 -0.1144,0.92948l-3.84664,-0.05719l1.10108,-0.47189c0.21926,-0.10487 0.429,-0.22403 0.62919,-0.35749c2.45956,-1.6683 3.59877,-3.97057 3.41764,-6.90678l1.37278,-0.0143c0.43778,0.97153 0.54741,1.93438 0.3289,2.88855M326.75367,175.73759c-0.81985,2.28797 -2.0115,4.34236 -3.57494,6.1632c-0.30507,0.35273 -0.60535,0.71022 -0.90089,1.07248l-2.51676,1.32987l-0.1001,-0.2145c1.5539,-1.59204 2.72648,-3.41764 3.51774,-5.47681c0.39086,-1.01052 0.79602,-2.02103 1.21548,-3.03155c1.02005,-2.47862 1.01529,-4.85716 -0.0143,-7.13558l1.80177,-0.71499c1.36325,2.60255 1.5539,5.27184 0.57199,8.00787M321.74875,169.317l0.84368,1.70168c-0.39086,1.18211 -0.62442,2.37852 -0.70069,3.58924c-0.17159,2.89809 -1.16781,5.43868 -2.98865,7.62177c-1.36325,1.62064 -2.79322,3.14595 -4.28993,4.57592l-2.25936,0.98668c1.04865,-0.94378 1.97337,-2.0258 2.77416,-3.24605c1.54437,-2.37376 2.93622,-4.80948 4.17553,-7.30718c1.20118,-2.4119 1.63494,-4.94771 1.30128,-7.60747l1.14398,-0.3146M327.69745,157.40531c1.51577,2.23076 1.44427,4.43293 -0.2145,6.60649c-0.19067,0.25739 -0.38609,0.51479 -0.58629,0.77219l-1.02958,0.61489c0.10487,-0.18113 0.20973,-0.35749 0.3146,-0.5291c1.39184,-2.30703 1.33464,-4.47106 -0.17159,-6.4921l1.68737,-0.97238M324.20831,160.52265c0.77219,2.31656 0.23833,4.48059 -1.60158,6.4921l-0.72929,0.1001c0.143,-0.29553 0.3003,-0.57676 0.47189,-0.84368c1.32511,-2.10683 1.29174,-4.03254 -0.1001,-5.7771l1.38708,-0.77219c0.27646,0.21926 0.46713,0.48619 0.57199,0.80079M315.19946,136.75645c2.75509,0.66733 4.96679,2.0973 6.63509,4.28993c1.43951,1.90663 2.0258,4.0087 1.75887,6.30619c-0.32413,2.73602 -1.08201,5.33381 -2.27366,7.79337c-0.18113,0.36226 -0.41946,0.67209 -0.71499,0.92948c-1.7541,1.46811 -2.98865,3.20314 -3.70364,5.20512l0.2145,0.3003l-4.16123,2.84565l-0.05719,-0.0858c0.32413,-0.39086 0.64349,-0.78649 0.95808,-1.18688c1.6683,-2.16404 3.16978,-4.41863 4.50443,-6.76379c1.22978,-2.15449 2.10683,-4.42816 2.63116,-6.82098c0.59106,-2.69789 0.26693,-5.25754 -0.97238,-7.67897c-1.23932,-2.4119 -3.23652,-3.91336 -5.9916,-4.50443l1.17258,-0.62919M321.56286,134.98329c2.54536,0.76266 4.75229,2.0973 6.62079,4.00393c2.0115,2.05917 2.68835,4.53779 2.03056,7.43588c-0.62919,2.76462 -1.82561,5.24325 -3.58924,7.43588l-5.23371,4.47582c0.84845,-0.93425 1.60158,-1.9543 2.25936,-3.06015c1.35371,-2.28797 2.25936,-4.76659 2.71695,-7.43588c0.46713,-2.72648 -0.0143,-5.31474 -1.44427,-7.76476c-1.45857,-2.47862 -3.57494,-4.18983 -6.34909,-5.13361l1.78747,-0.95808l0.429,0.80079c0.25739,0.06674 0.51479,0.13346 0.77219,0.2002M307.79219,118.03807c3.12688,0.58152 4.88099,2.43096 5.26231,5.5483c0.35273,2.82182 -0.26216,5.39577 -1.84467,7.72187c-1.34418,1.96384 -2.64546,3.92767 -3.90383,5.8915l-2.44526,1.97337c1.19164,-1.82084 2.38329,-3.64167 3.57494,-5.46251c1.56344,-2.40236 2.69312,-4.98585 3.38904,-7.75047c0.34319,-1.38231 0.17637,-2.68835 -0.50049,-3.91814c-1.46811,-2.67882 -3.70841,-4.0373 -6.72089,-4.07543l1.37278,-0.80079c0.51479,0.429 1.12015,0.71975 1.81607,0.87228M316.37204,115.30681c2.34516,1.68737 3.12688,3.94674 2.34516,6.77809c-0.78172,2.83135 -2.0258,5.41007 -3.73224,7.73617l0.51479,0.62919l-2.50245,2.07347l-0.05719,-0.0715c0.96285,-1.15352 1.73504,-2.4119 2.31656,-3.77513c1.14398,-2.69789 1.19641,-5.38624 0.15729,-8.06506c-1.02958,-2.63116 -2.86472,-4.40433 -5.50541,-5.31952l-0.2002,-0.3289l2.47386,-1.45857l0.3146,0.54339c1.43951,0.03813 2.73125,0.45759 3.87523,1.25838z" fill="#ffffff"/></g></g></svg>