<svg version="1.1" xmlns="http://www.w3.org/2000/svg" xmlns:xlink="http://www.w3.org/1999/xlink" width="113.33236" height="167.8854" viewBox="0,0,113.33236,167.8854"><g transform="translate(-180.88914,-138.01223)"><g data-paper-data="{&quot;isPaintingLayer&quot;:true}" fill-rule="nonzero" stroke="none" stroke-width="1" stroke-linecap="butt" stroke-linejoin="miter" stroke-miterlimit="10" stroke-dasharray="" stroke-dashoffset="0" style="mix-blend-mode: normal"><g><path d="M256.90442,216.00416c-0.3204,0.16454 -0.76357,0.34482 -1.3295,0.54081c-2.78658,0.02312 -5.57327,0.09072 -8.36009,0.20281c-5.4633,0.22411 -10.90149,0.62221 -16.31456,1.1943l-7.21086,-0.90136c-0.51077,-0.42063 -1.1943,-0.96145 -2.05059,-1.62244c-0.85206,-0.64304 -1.65577,-1.3491 -2.41113,-2.11819c0.17388,-0.57949 0.42926,-0.9851 0.76615,-1.21683c0.22006,0.33525 0.47544,0.6357 0.76615,0.90136c0.63095,0.58588 1.43466,1.05158 2.41113,1.3971c0.73611,0.25538 1.67502,0.47321 2.81674,0.65348c0.10798,0.01672 0.21313,0.03175 0.31547,0.04507c0.11332,0.01584 0.21847,0.03087 0.31547,0.04507v0.29294l0.31547,-0.04507h0.1352c0.00129,-0.01491 0.00129,-0.02993 0,-0.04507v-0.1352c2.46383,0.33302 5.25803,0.55836 8.38262,0.67602c1.20181,0.03005 4.37158,0.07511 9.50932,0.1352c0.14383,0.00217 0.27903,0.00217 0.40561,0c0.01807,0.03222 0.0331,0.06226 0.04507,0.09014c-0.00053,-0.0294 -0.00053,-0.05944 0,-0.09014c0.76885,0.01268 1.36225,0.01268 1.78018,0c0.82624,-0.04507 1.56235,-0.1352 2.20832,-0.27041c0.49575,-0.10516 1.15674,-0.28543 1.98299,-0.54081c0.94642,-0.31547 1.59991,-0.51828 1.96045,-0.60842c0.72109,-0.18027 1.7952,-0.41312 3.22235,-0.69855c0.85253,-0.22692 1.66375,-0.53489 2.43366,-0.92389l-0.1352,1.46471c-0.07811,0.07811 -0.16073,0.16073 -0.24787,0.24787c-0.45068,0.49575 -1.02154,0.93891 -1.71258,1.3295M244.10515,240.5436l-0.67602,1.98299c0.61863,-0.18508 1.06179,-0.57567 1.3295,-1.17176c0.07077,-0.19799 0.17593,-0.47591 0.31547,-0.83376c0.16801,-0.31037 0.38583,-0.4606 0.65348,-0.45068c0.39558,0.37251 0.60589,0.97342 0.63095,1.80271c0.01643,0.23532 0.01643,0.57332 0,1.01403c0.00352,0.38003 0.04859,0.70301 0.1352,0.96896l0.65348,-0.81122c0.55936,-0.68359 1.0551,-1.06666 1.48724,-1.14923c0.06021,-0.00763 0.1203,-0.01514 0.18027,-0.02253c0.22323,-0.00892 0.44857,0.08122 0.67602,0.27041c0.28772,0.23608 0.39288,0.514 0.31547,0.83376c-0.04888,0.18315 -0.1916,0.43853 -0.42814,0.76615c-0.07036,0.17235 -0.10792,0.37515 -0.11267,0.60842c-0.00241,0.16055 -0.00241,0.40092 0,0.72109c0.00153,0.59204 -0.17875,0.94508 -0.54081,1.05909c0.10363,-0.57045 0.11114,-1.17135 0.02253,-1.80271l-0.31547,0.56335l-1.37457,2.34353c-0.41518,0.7283 -0.8283,1.04378 -1.23937,0.94642c-0.26835,-0.0399 -0.5012,-0.25022 -0.69855,-0.63095c-0.32393,-0.6205 -0.47415,-1.49933 -0.45068,-2.63647c0.07365,-1.7178 0.10369,-2.66423 0.09014,-2.83927c-0.6465,0.82924 -1.12722,1.76064 -1.44217,2.79421c-0.13327,0.47122 -0.24594,0.77167 -0.33801,0.90136c-0.09113,0.14318 -0.21131,0.23332 -0.36054,0.27041c-0.16196,0.06819 -0.30468,0.06819 -0.42814,0c-0.28919,-0.14442 -0.40937,-0.48243 -0.36054,-1.01403c0.03844,-0.83669 0.18115,-1.708 0.42814,-2.61394c0.32997,-1.17693 0.80318,-2.21349 1.41964,-3.10968c0.12482,-0.04624 0.23749,-0.0162 0.33801,0.09014c0.10129,0.08978 0.16138,0.20245 0.18027,0.33801c0.0527,0.19799 0.02265,0.4684 -0.09014,0.81122M233.67194,234.81999c-0.44915,0.08503 -0.98997,0.44557 -1.62244,1.08163c-2.20187,2.25081 -3.86187,4.33144 -4.98,6.2419c-1.49293,2.59175 -2.20651,5.15311 -2.14072,7.68407c0.01913,0.47034 0.10175,0.81586 0.24787,1.03656c0.25063,0.36905 0.73887,0.56435 1.46471,0.58588c1.98287,0.09776 3.80812,-0.43554 5.47574,-1.59991c-0.08174,0.63512 -0.32211,1.221 -0.72109,1.75765c-0.37785,0.52256 -0.85107,0.9432 -1.41964,1.2619c-1.0196,0.52726 -2.22892,0.70002 -3.62796,0.51828c-0.27,-0.02999 -0.51787,-0.07505 -0.74362,-0.1352c-0.58412,-0.17986 -1.04231,-0.43525 -1.37457,-0.76615c-0.59427,-0.60548 -0.88721,-1.60449 -0.87882,-2.99701c-0.01473,-0.24412 -0.00722,-0.49199 0.02253,-0.74362c0.1727,-2.44875 1.02148,-4.91245 2.54633,-7.39113c0.66188,-1.09483 1.49563,-2.25908 2.50127,-3.49276c0.55613,-0.6874 1.49504,-1.76903 2.81674,-3.24489c0.73464,-0.83728 1.3731,-1.29547 1.91538,-1.37457c0.62227,-0.08967 1.15557,0.18074 1.59991,0.81122c0.42509,0.61235 0.51523,1.22076 0.27041,1.82525c0.01784,-0.33161 -0.13239,-0.60953 -0.45068,-0.83376c-0.27328,-0.19007 -0.57373,-0.26518 -0.90136,-0.22534M238.26886,242.32378c0.29453,-0.3555 0.5424,-0.52826 0.74362,-0.51828c0.28613,0.03527 0.45889,0.23807 0.51828,0.60842c0.03779,0.19025 -0.00728,0.48319 -0.1352,0.87882l-0.27041,0.83376c0.25421,0.00968 0.59222,-0.1781 1.01403,-0.56335c0.40332,-0.34423 0.73382,-0.48694 0.99149,-0.42814c-0.47691,0.71487 -0.85247,1.33079 -1.1267,1.84778c-0.31741,0.57673 -0.60284,0.94478 -0.85629,1.10416c-0.20768,0.14354 -0.43302,0.19612 -0.67602,0.15774c-0.244,-0.03673 -0.41676,-0.16443 -0.51828,-0.38308c-0.07159,-0.13045 -0.08661,-0.35579 -0.04507,-0.67602c0.02306,-0.3315 0.00804,-0.57186 -0.04507,-0.72109l-1.2619,1.28443c-0.21067,0.21865 -0.38343,0.34634 -0.51828,0.38308c-0.19218,0.03838 -0.37246,-0.0142 -0.54081,-0.15774c-0.14189,-0.1274 -0.2095,-0.29265 -0.20281,-0.49575c0.02336,-0.19101 0.13603,-0.43137 0.33801,-0.72109c0.46083,-0.59333 0.8364,-1.17922 1.1267,-1.75765c0.47274,0.19664 0.96098,-0.0287 1.46471,-0.67602M234.84371,243.83356c-0.08251,0.15815 -0.13509,0.27082 -0.15774,0.33801c-0.02206,0.14653 -0.00704,0.28173 0.04507,0.40561c0.07852,0.12089 0.17616,0.17346 0.29294,0.15774l-1.21683,1.62244l-0.47321,-0.24787c-0.07775,-0.1872 -0.0402,-0.43507 0.11267,-0.74362c0.19553,-0.41864 0.30069,-0.68153 0.31547,-0.78869c-0.00076,-0.07799 -0.00076,-0.24324 0,-0.49575c0.00452,-0.20345 0.02705,-0.36119 0.0676,-0.47321c0.14254,-0.19213 0.23267,-0.34235 0.27041,-0.45068c0.11173,-0.21084 0.10422,-0.37609 -0.02253,-0.49575c-0.8611,0.77578 -1.61223,1.73722 -2.25339,2.88434c-0.30861,0.61411 -0.54897,1.03474 -0.72109,1.2619c-0.27551,0.37697 -0.56094,0.60231 -0.85629,0.67602c-0.19201,0.0456 -0.3873,0.03057 -0.58588,-0.04507c-0.18725,-0.0747 -0.32246,-0.19488 -0.40561,-0.36054c-0.15105,-0.34904 -0.07593,-0.7171 0.22534,-1.10416c0.15087,-0.20574 0.39874,-0.49117 0.74362,-0.85629c0.10457,-0.14905 0.23226,-0.40444 0.38308,-0.76615c0.15087,-0.36547 0.28608,-0.62837 0.40561,-0.78869c0.04548,-0.05551 0.17317,-0.18321 0.38308,-0.38308c0.13491,-0.1504 0.24007,-0.28561 0.31547,-0.40561c0.1044,-0.19776 0.21707,-0.49821 0.33801,-0.90136c0.10598,-0.14571 0.32381,-0.34851 0.65348,-0.60842c0.3106,-0.21431 0.51341,-0.41711 0.60842,-0.60842l0.54081,0.1352c-0.35602,0.63793 -0.68652,1.33648 -0.99149,2.09566l0.58588,-0.11267c0.18133,-0.44082 0.36911,-0.77132 0.56335,-0.99149c0.31383,-0.31454 0.63682,-0.41969 0.96896,-0.31547c0.16953,0.03269 0.31225,0.14536 0.42814,0.33801c0.10398,0.18784 0.11901,0.3606 0.04507,0.51828c-0.04519,0.11572 -0.14283,0.28097 -0.29294,0.49575c-0.06297,0.13808 -0.11555,0.3484 -0.15774,0.63095c-0.00763,0.09724 -0.06021,0.22493 -0.15774,0.38308M227.04697,175.28535c-0.3305,0.49575 -0.66851,1.14172 -1.01403,1.93792l-0.94642,2.09566c-0.34552,-0.30045 -0.36054,-0.81873 -0.04507,-1.55484c0.64597,-1.48724 1.64498,-2.98199 2.99701,-4.48425c0.82624,-0.9314 2.13321,-2.20081 3.9209,-3.80823c0.80447,-0.70248 1.45045,-1.23579 1.93792,-1.59991c0.15991,-0.11408 0.30262,-0.21173 0.42814,-0.29294c1.0659,-0.6732 2.24518,-1.10886 3.53783,-1.30697c0.10152,-0.01807 0.19917,-0.0331 0.29294,-0.04507c1.38208,-0.18027 2.74914,-0.09014 4.10117,0.27041c0.64597,0.16525 1.5248,0.47321 2.63647,0.92389c1.21683,0.49575 2.09566,0.82624 2.63647,0.99149l1.50977,0.40561c0.6009,0.15023 1.08914,0.30796 1.46471,0.47321c0.51077,0.21032 1.24688,0.64597 2.20832,1.30697c0.70606,0.4657 1.24688,0.85629 1.62244,1.17176c0.661,0.52579 1.55484,1.41213 2.68154,2.659c1.44217,1.5924 2.47873,2.82425 3.10968,3.69556c0.19242,0.26389 0.3802,0.54181 0.56335,0.83376c0.32616,0.50613 0.64163,1.05446 0.94642,1.64498c-0.19758,-0.11854 -0.39288,-0.25374 -0.58588,-0.40561c-0.55419,-0.41741 -1.10252,-0.95822 -1.64498,-1.62244c-0.27041,-0.34552 -0.8638,-1.17928 -1.78018,-2.50127c-1.27692,-1.83276 -2.50127,-3.14724 -3.67303,-3.94344c-0.42063,-0.28543 -1.08163,-0.66851 -1.98299,-1.14923c-1.35204,-0.69104 -2.39611,-1.14923 -3.13222,-1.37457c-0.3305,-0.09014 -0.54833,-0.21783 -0.65348,-0.38308c-3.03457,-1.17176 -6.1743,-1.50226 -9.41918,-0.99149c-1.2619,0.21032 -2.68154,0.58588 -4.25891,1.1267c-0.91638,0.30045 -1.64498,0.6009 -2.18579,0.90136c-0.99149,0.54081 -2.23837,1.60742 -3.74063,3.19982c-0.7962,0.87131 -1.30697,1.47973 -1.53231,1.82525M251.78922,293.36313c0.04853,0.60313 0.07106,1.00875 0.0676,1.21683c0.00012,0.08286 0.00012,0.16548 0,0.24787c0.10117,-0.0676 0.1913,-0.14271 0.27041,-0.22534c0.00088,0.47685 0.02341,0.94255 0.0676,1.3971c-0.00692,0.00023 -0.00692,0.00775 0,0.02253c-0.1551,0.16079 -0.39546,0.42368 -0.72109,0.78869c-0.29617,0.33537 -0.53653,0.58324 -0.72109,0.74362c-0.28842,0.25984 -0.67901,0.53776 -1.17176,0.83376c-0.5485,0.31694 -0.96162,0.5573 -1.23937,0.72109c-0.51194,0.30333 -1.24805,0.80659 -2.20832,1.50977c-0.93076,0.70706 -1.65935,1.21032 -2.18579,1.50977c-1.68083,1.00951 -3.69386,1.6705 -6.03909,1.98299c-1.70448,0.23813 -3.86023,0.31325 -6.46724,0.22534c-1.73593,-0.05751 -3.18562,-0.15516 -4.34905,-0.29294c-1.58641,-0.20656 -3.00605,-0.52955 -4.25891,-0.96896c-1.44123,-0.5306 -3.16132,-1.43947 -5.16027,-2.72661c-2.94344,-1.89936 -4.60343,-2.96597 -4.98,-3.19982c0.00023,-0.14647 0.00775,-0.2967 0.02253,-0.45068c0.04466,-0.40045 0.18737,-0.76099 0.42814,-1.08163c-0.34218,-0.51118 -0.59005,-1.04448 -0.74362,-1.59991c-0.19477,-0.7286 -0.25486,-1.76516 -0.18027,-3.10968c0.08685,0.05669 0.1845,0.12429 0.29294,0.20281c0.76451,0.59556 1.3579,0.97864 1.78018,1.14923c0.39012,0.15087 0.99853,0.31612 1.82525,0.49575c0.39452,0.12693 1.12312,0.48747 2.18579,1.08163c1.37768,0.76527 2.73723,1.35867 4.07864,1.78018c1.75195,0.52603 3.58471,0.80394 5.49828,0.83376c0.267,0.01109 0.65008,0.01109 1.14923,0c0.45966,0.02318 0.84273,0.06074 1.14923,0.11267c0.34787,0.05064 0.85864,0.1558 1.53231,0.31547c0.41588,0.02875 0.91914,0.01373 1.50977,-0.04507c2.80043,-0.36283 4.76839,-0.6708 5.90389,-0.92389c0.8307,-0.16947 2.08509,-0.49997 3.76317,-0.99149l2.36606,-0.65348c1.25685,-0.3731 2.09061,-0.65853 2.50127,-0.85629c0.6722,-0.3028 1.58107,-0.84361 2.72661,-1.62244c0.73763,-0.51294 1.3761,-0.97113 1.91538,-1.37457c-0.11226,0.93076 -0.19488,1.80958 -0.24787,2.63647c-0.124,0.0676 -0.25169,0.12769 -0.38308,0.18027c0.00041,0.03791 0.00792,0.08298 0.02253,0.1352M249.7837,218.70823c-0.66129,0.13872 -1.42744,0.28144 -2.29846,0.42814c-0.82272,0.13098 -1.74661,0.27369 -2.77167,0.42814c-2.29025,0.31096 -3.95776,0.52127 -5.00253,0.63095c-1.86339,0.16883 -3.5309,0.2139 -5.00253,0.1352c-0.38396,-0.01432 -0.95482,-0.05187 -1.71258,-0.11267l-2.05059,-0.27041c-2.39329,-0.33161 -4.06831,-0.63206 -5.02507,-0.90136c-2.55748,-0.72097 -4.8935,-1.90776 -7.00805,-3.56036c0.06772,-0.51945 0.14283,-1.00769 0.22534,-1.46471c0.04137,-0.19606 0.08644,-0.37633 0.1352,-0.54081c0.76257,0.83241 1.5738,1.59856 2.43366,2.29846c0.85559,0.71399 1.53911,1.29987 2.05059,1.75765l7.18832,0.99149c8.10846,-0.94895 16.28076,-1.45972 24.51691,-1.53231c-0.39792,0.14946 -0.85611,0.31471 -1.37457,0.49575c-1.84567,0.56446 -3.28033,0.97007 -4.30398,1.21683z" fill="#ffffff"/><path d="M222.99086,175.19521c0.75113,-1.77267 2.01303,-3.43267 3.7857,-4.98c1.30697,-1.14172 3.07964,-2.35104 5.31801,-3.62796c1.56235,-0.88633 2.79421,-1.50226 3.69556,-1.84778c2.82425,-1.1267 5.72362,-1.50977 8.6981,-1.14923c1.00652,0.12018 2.17828,0.36054 3.51529,0.72109c1.74262,0.51077 3.22235,1.14923 4.43918,1.91538c0.90136,0.58588 2.07312,1.56986 3.51529,2.95194c0.68324,0.64861 1.2541,1.21947 1.71258,1.71258c0.42492,-0.09072 0.93569,-0.25597 1.53231,-0.49575c1.83804,3.06538 3.16754,6.468 3.98851,10.20787c0.88633,4.10117 1.11167,8.32253 0.67602,12.66407c-0.16525,1.62244 -0.54833,4.07113 -1.14923,7.34606c-0.58588,3.21484 -0.96145,5.65602 -1.1267,7.32353c-0.09917,0.95869 -0.18931,1.68729 -0.27041,2.18579c0.28191,-0.03773 0.49974,-0.00769 0.65348,0.09014c0.10516,0.06009 0.17276,0.15774 0.20281,0.29294c0.03005,0.1352 0.00751,0.24036 -0.0676,0.31547c-0.43108,0.39886 -0.88176,0.75941 -1.35204,1.08163c-0.09583,0.20697 -0.2085,0.39475 -0.33801,0.56335c0.09841,1.29001 0.13597,2.64956 0.11267,4.07864c-0.05328,0.0064 -0.10586,0.0064 -0.15774,0c-0.00599,0.18902 -0.02101,0.33924 -0.04507,0.45068c0.03503,0.00751 0.06508,0.00751 0.09014,0c-0.04436,0.84426 -0.08943,1.72308 -0.1352,2.63647c-0.12083,1.64063 -0.47386,4.91557 -1.05909,9.82479c-1.23755,10.69851 -2.11637,21.66502 -2.63647,32.89953c-0.44505,9.63824 -0.72296,15.2567 -0.83376,16.85538c-0.39957,4.96885 -0.99296,9.40052 -1.78018,13.29502c0.30075,-0.05182 0.58618,-0.08186 0.85629,-0.09014c-0.33419,0.30034 -0.66469,0.58576 -0.99149,0.85629c-0.17253,0.69485 -0.33026,1.37838 -0.47321,2.05059c-0.01444,0.00023 -0.01444,0.00775 0,0.02253c0.23408,-0.07341 0.47444,-0.08843 0.72109,-0.04507c-0.74227,0.91703 -1.31313,1.59304 -1.71258,2.02805c-0.67725,0.71363 -1.32322,1.29952 -1.93792,1.75765c-0.48571,0.3589 -1.1392,0.77953 -1.96045,1.2619c-1.05211,0.5539 -1.72813,0.92947 -2.02805,1.1267c-1.23649,0.89255 -2.18292,1.51599 -2.83927,1.87032c-0.51353,0.28162 -1.20457,0.55953 -2.07312,0.83376c-1.92319,0.60977 -4.09396,1.05293 -6.51231,1.3295c-1.78646,0.20363 -4.02483,0.33132 -6.71511,0.38308c-0.2511,0.00751 -0.49146,0.00751 -0.72109,0c-1.30292,0.00921 -2.2869,-0.04337 -2.95194,-0.15774c-1.23256,-0.24752 -2.65971,-0.79585 -4.28145,-1.64498c-3.24254,-1.68594 -5.85647,-3.66892 -7.84181,-5.94896c-0.66651,-0.61364 -1.16977,-1.28966 -1.50977,-2.02805c-0.41477,-0.83827 -0.66264,-1.86732 -0.74362,-3.08715c-0.02206,-0.12394 -0.03709,-0.25163 -0.04507,-0.38308c-0.00593,-0.73353 0.03163,-1.67995 0.11267,-2.83927c0.68013,-9.28779 1.80682,-22.46263 3.38009,-39.52451l2.14072,-23.70569c0.28302,-3.18556 0.55343,-5.55913 0.81122,-7.12072c0.16906,-1.16179 0.37187,-2.26595 0.60842,-3.31249c0.04161,-1.76469 0.09418,-3.39464 0.15774,-4.88986c0.57098,0.77883 1.1869,1.52245 1.84778,2.23086c-0.04876,0.16449 -0.09383,0.34476 -0.1352,0.54081c-0.08251,0.45702 -0.15762,0.94525 -0.22534,1.46471c2.11455,1.65261 4.45057,2.83939 7.00805,3.56036c0.95675,0.26929 2.63177,0.56974 5.02507,0.90136l2.05059,0.27041c0.75776,0.06079 1.32862,0.09835 1.71258,0.11267c1.47163,0.07869 3.13914,0.03362 5.00253,-0.1352c1.04478,-0.10968 2.71229,-0.31999 5.00253,-0.63095c1.02506,-0.15445 1.94895,-0.29717 2.77167,-0.42814c0.87102,-0.14671 1.63717,-0.28942 2.29846,-0.42814c1.02365,-0.24676 2.45831,-0.65237 4.30398,-1.21683c0.51846,-0.18103 0.97665,-0.34628 1.37457,-0.49575c0.11003,0.00241 0.21519,0.00241 0.31547,0c0.21313,-0.16155 0.41594,-0.31929 0.60842,-0.47321c-0.2643,0.01215 -0.53471,0.01966 -0.81122,0.02253c0.56593,-0.196 1.0091,-0.37627 1.3295,-0.54081c0.69104,-0.39059 1.2619,-0.83376 1.71258,-1.3295c0.08714,-0.08714 0.16977,-0.16977 0.24787,-0.24787l0.1352,-1.46471c-0.76991,0.389 -1.58113,0.69697 -2.43366,0.92389c-1.42715,0.28543 -2.50127,0.51828 -3.22235,0.69855c-0.36054,0.09014 -1.01403,0.29294 -1.96045,0.60842c-0.82624,0.25538 -1.48724,0.43566 -1.98299,0.54081c-0.64597,0.1352 -1.38208,0.22534 -2.20832,0.27041c-0.41793,0.01268 -1.01133,0.01268 -1.78018,0c-0.00053,0.03069 -0.00053,0.06074 0,0.09014c-0.01197,-0.02787 -0.02699,-0.05792 -0.04507,-0.09014c-0.12658,0.00217 -0.26178,0.00217 -0.40561,0c-5.13774,-0.06009 -8.30751,-0.10516 -9.50932,-0.1352c-3.12459,-0.11766 -5.91879,-0.343 -8.38262,-0.67602v0.1352c0.00129,0.01514 0.00129,0.03016 0,0.04507h-0.1352l-0.31547,0.04507v-0.29294c-0.097,-0.0142 -0.20216,-0.02922 -0.31547,-0.04507c-0.10234,-0.01332 -0.2075,-0.02834 -0.31547,-0.04507c-1.14172,-0.18027 -2.08063,-0.3981 -2.81674,-0.65348c-0.97647,-0.34552 -1.78018,-0.81122 -2.41113,-1.3971c-0.29071,-0.26565 -0.5461,-0.56611 -0.76615,-0.90136c-0.33689,0.23174 -0.59228,0.63735 -0.76615,1.21683c-0.63171,-0.63699 -1.23262,-1.32052 -1.80271,-2.05059c0.21466,-3.52034 0.40244,-6.29952 0.56335,-8.33755c0.39059,-4.79222 0.87882,-9.08868 1.46471,-12.88941c0.4657,-2.94443 0.97647,-5.64099 1.53231,-8.08968c0.41365,-1.83781 0.85682,-3.57292 1.3295,-5.20534c0.04243,0.02934 0.0875,0.05187 0.1352,0.0676c0.13597,-0.54263 0.31624,-1.07594 0.54081,-1.59991M251.76669,293.22793c0.13139,-0.05258 0.25908,-0.11267 0.38308,-0.18027c0.05299,-0.82689 0.13561,-1.70571 0.24787,-2.63647c-0.53929,0.40344 -1.17775,0.86163 -1.91538,1.37457c-1.14553,0.77883 -2.0544,1.31964 -2.72661,1.62244c-0.41066,0.19776 -1.24441,0.48319 -2.50127,0.85629l-2.36606,0.65348c-1.67807,0.49152 -2.93246,0.82202 -3.76317,0.99149c-1.1355,0.2531 -3.10346,0.56106 -5.90389,0.92389c-0.59064,0.0588 -1.09389,0.07382 -1.50977,0.04507c-0.67367,-0.15967 -1.18444,-0.26483 -1.53231,-0.31547c-0.3065,-0.05193 -0.68957,-0.08949 -1.14923,-0.11267c-0.49915,0.01109 -0.88223,0.01109 -1.14923,0c-1.91356,-0.02981 -3.74632,-0.30773 -5.49828,-0.83376c-1.34141,-0.42151 -2.70096,-1.01491 -4.07864,-1.78018c-1.06267,-0.59416 -1.79127,-0.9547 -2.18579,-1.08163c-0.82671,-0.17963 -1.43513,-0.34487 -1.82525,-0.49575c-0.42228,-0.17059 -1.01567,-0.55367 -1.78018,-1.14923c-0.10844,-0.07852 -0.20609,-0.14612 -0.29294,-0.20281c-0.07458,1.34452 -0.01449,2.38109 0.18027,3.10968c0.15357,0.55543 0.40144,1.08873 0.74362,1.59991c-0.24077,0.32064 -0.38349,0.68118 -0.42814,1.08163c-0.01479,0.15398 -0.0223,0.30421 -0.02253,0.45068c0.37656,0.23385 2.03656,1.30045 4.98,3.19982c1.99895,1.28713 3.71904,2.196 5.16027,2.72661c1.25286,0.43941 2.6725,0.7624 4.25891,0.96896c1.16343,0.13779 2.61311,0.23543 4.34905,0.29294c2.60701,0.08791 4.76276,0.01279 6.46724,-0.22534c2.34523,-0.31248 4.35826,-0.97348 6.03909,-1.98299c0.52644,-0.29945 1.25503,-0.80271 2.18579,-1.50977c0.96027,-0.70319 1.69638,-1.20645 2.20832,-1.50977c0.27774,-0.16378 0.69086,-0.40414 1.23937,-0.72109c0.49275,-0.29599 0.88334,-0.57391 1.17176,-0.83376c0.18456,-0.16038 0.42492,-0.40825 0.72109,-0.74362c0.32563,-0.365 0.56599,-0.6279 0.72109,-0.78869c-0.00692,-0.01479 -0.00692,-0.0223 0,-0.02253c-0.04419,-0.45455 -0.06672,-0.92025 -0.0676,-1.3971c-0.0791,0.08262 -0.16924,0.15774 -0.27041,0.22534c0.00012,-0.08239 0.00012,-0.16501 0,-0.24787c0.00346,-0.20809 -0.01907,-0.6137 -0.0676,-1.21683c-0.01461,-0.05223 -0.02212,-0.09729 -0.02253,-0.1352M219.31783,210.75375c-0.02353,-0.0676 -0.04607,-0.1352 -0.0676,-0.20281c-0.01461,0.10692 -0.02963,0.21208 -0.04507,0.31547c0.03703,-0.04031 0.07458,-0.07787 0.11267,-0.11267M224.36543,176.90779c-0.58488,1.93228 -1.10316,4.03545 -1.55484,6.3095c0.15158,0.12493 0.3694,0.24512 0.65348,0.36054c1.69756,0.661 3.65801,1.22434 5.88136,1.69004c1.38208,0.28543 3.40262,0.61593 6.06163,0.99149c1.35204,0.19529 2.56887,0.34552 3.6505,0.45068c5.82878,0.54081 12.51384,-0.25538 20.0552,-2.3886c1.14665,-0.32762 2.01045,-0.68065 2.5914,-1.05909c-0.17276,-1.02218 -0.39059,-2.04372 -0.65348,-3.06461c0.19301,0.15187 0.3883,0.28707 0.58588,0.40561c-0.30479,-0.59052 -0.62027,-1.13884 -0.94642,-1.64498c-0.17963,-0.60724 -0.37492,-1.20815 -0.58588,-1.80271c-0.25744,-0.27317 -0.45273,-0.4985 -0.58588,-0.67602c-0.21032,-0.25538 -0.52579,-0.75864 -0.94642,-1.50977c-0.61593,-1.00652 -1.54733,-2.10317 -2.79421,-3.28995c-1.50226,-1.45719 -2.9219,-2.63647 -4.25891,-3.53783c-1.63747,-1.09665 -3.28244,-1.85529 -4.93493,-2.27593c-2.69474,-0.68417 -5.60162,-0.54897 -8.72063,0.40561c-1.29265,0.19811 -2.47192,0.63377 -3.53783,1.30697c-0.12552,0.08122 -0.26824,0.17886 -0.42814,0.29294c-1.0287,0.5228 -2.05775,1.1237 -3.08715,1.80271c-1.29195,0.85629 -2.36606,1.70507 -3.22235,2.54633c-1.43624,1.36835 -2.58547,2.94572 -3.44769,4.73212c0.07676,-0.00992 0.15187,-0.02494 0.22534,-0.04507M261.34361,184.20878c-5.88036,2.11737 -11.90443,3.22904 -18.07221,3.33502c0.08791,0.35784 0.08791,0.77848 0,1.2619c-0.07511,0.37557 -0.19529,0.93891 -0.36054,1.69004c-0.03005,0.21032 -0.05258,0.51828 -0.0676,0.92389c-0.01502,0.40561 -0.03756,0.70606 -0.0676,0.90136c-0.04507,0.31547 -0.14271,0.78118 -0.29294,1.3971c-0.03005,0.1352 -0.08262,0.76615 -0.15774,1.89285c-0.03005,0.25538 -0.1352,0.96145 -0.31547,2.11819l-0.69855,4.05611c-0.15023,0.96145 -0.23285,1.69004 -0.24787,2.18579c-0.01502,0.18027 -0.01502,0.74362 0,1.69004c0,0.67602 -0.04507,1.23185 -0.1352,1.66751c-0.01502,0.12018 -0.07511,0.38308 -0.18027,0.78869c-0.07511,0.31547 -0.12018,0.57086 -0.1352,0.76615c-0.01502,0.15023 -0.01502,0.43566 0,0.85629c0.01502,0.36054 0.00751,0.64597 -0.02253,0.85629c-0.04507,0.3305 -0.17276,0.7962 -0.38308,1.3971c-0.06009,0.30045 -0.08262,0.78869 -0.0676,1.46471c0.00786,0.33085 0.00035,0.61628 -0.02253,0.85629c1.90195,0.11672 3.54692,0.18432 4.93493,0.20281c0.00229,-0.09882 0.00229,-0.20398 0,-0.31547c0,-0.45068 0.05258,-1.10416 0.15774,-1.96045l2.18579,-17.77927c0.12018,-1.02154 0.35303,-1.73511 0.69855,-2.14072l-2.3886,19.87492c-0.1095,0.89167 -0.19213,1.67285 -0.24787,2.34353c0.15727,-0.001 0.30749,-0.001 0.45068,0c1.51728,0 2.68154,-0.11267 3.49276,-0.33801c0.6009,-0.16525 1.47973,-0.48072 2.63647,-0.94642c0.43566,-0.1352 1.31448,-0.31547 2.63647,-0.54081c1.11167,-0.21032 1.97547,-0.44317 2.5914,-0.69855c0.25233,-0.10393 0.89079,-0.44193 1.91538,-1.01403l0.02253,-0.15774c0.04366,-0.32023 0.14131,-0.59064 0.29294,-0.81122c0.00992,-0.00804 0.01743,-0.01555 0.02253,-0.02253c0.11191,-0.15492 0.22458,-0.24506 0.33801,-0.27041c-0.0213,-1.45772 0.0463,-2.92994 0.20281,-4.41665c0.1352,-1.30697 0.43566,-3.1247 0.90136,-5.45321c0.48072,-2.53882 0.7962,-4.36407 0.94642,-5.47574c0.46019,-3.53172 0.43014,-7.00195 -0.09014,-10.41067c-0.11901,0.08192 -0.27674,0.15703 -0.47321,0.22534M254.74117,218.03221c-0.13972,0.04882 -0.28995,0.09389 -0.45068,0.1352c-2.65003,0.78129 -4.64052,1.30709 -5.97149,1.57737c-2.1078,0.45608 -5.14237,0.85418 -9.10371,1.1943c-1.0554,0.10715 -1.92671,0.14471 -2.61394,0.11267c-0.51012,-0.04548 -0.88569,-0.07552 -1.1267,-0.09014c-0.45003,-0.04618 -0.8256,-0.05369 -1.1267,-0.02253c-0.37169,0.06074 -0.65712,0.09829 -0.85629,0.11267c-0.33818,0.04642 -0.62361,0.04642 -0.85629,0c-0.15832,-0.02875 -0.36864,-0.10387 -0.63095,-0.22534c-0.28825,-0.171 -0.48354,-0.27616 -0.58588,-0.31547c-0.33097,-0.13303 -0.92436,-0.21566 -1.78018,-0.24787c-2.37727,-0.06021 -4.39781,-0.36817 -6.06163,-0.92389c-1.96743,-0.6688 -3.56734,-1.67532 -4.79973,-3.01955c-0.39258,2.78382 -0.78317,6.44183 -1.17176,10.97402l-5.29547,62.12604c0.09829,0.07904 0.21096,0.16167 0.33801,0.24787c0.92154,0.64644 1.98815,1.29993 3.19982,1.96045c0.76721,0.39493 1.89391,0.94326 3.38009,1.64498c1.23279,0.57027 2.15668,0.98339 2.77167,1.23937c1.05223,0.40209 2.02119,0.6725 2.90688,0.81122c0.61235,0.12276 1.46113,0.19788 2.54633,0.22534c1.22716,0.04137 2.07594,0.08644 2.54633,0.1352c0.13872,0.00863 0.48424,0.04618 1.03656,0.11267c0.40702,0.0669 0.74503,0.10445 1.01403,0.11267c0.58823,0.03544 1.37692,-0.00962 2.36606,-0.1352c1.44035,-0.22499 3.61112,-0.72073 6.51231,-1.48724l3.6505,-0.94642c0.98369,-0.22581 1.72731,-0.47368 2.23086,-0.74362c0.46189,-0.22816 0.97266,-0.57368 1.53231,-1.03656c0.31066,-0.25527 0.78388,-0.66088 1.41964,-1.21683c0.92994,-0.79326 1.88387,-1.47679 2.86181,-2.05059c0.02306,-0.02993 0.05311,-0.05246 0.09014,-0.0676c0.28713,-1.93856 0.50496,-3.44083 0.65348,-4.50679c0.59914,-4.174 0.99724,-9.8225 1.1943,-16.94551c0.22317,-8.74856 0.45602,-14.59987 0.69855,-17.55393c0.23549,-2.5542 0.41576,-4.4846 0.54081,-5.79122l2.74914,-26.45483c0.1166,0.0027 0.22927,0.0027 0.33801,0c0,-0.18027 0.00751,-0.31547 0.02253,-0.40561v-0.04507c-0.07863,0.00863 -0.16126,0.00863 -0.24787,0l0.0676,-0.76615c-0.50156,0.32522 -0.93721,0.5806 -1.30697,0.76615c-0.03222,0.00757 -0.06977,0.00757 -0.11267,0c-0.18303,0.14183 -0.39335,0.29206 -0.63095,0.45068c0.21806,0.00211 0.42838,0.00211 0.63095,0c-0.21818,0.13215 -0.40596,0.23731 -0.56335,0.31547c-0.28062,0.14002 -0.66369,0.29024 -1.14923,0.45068l-0.29294,0.22534c-0.12018,0.09014 -0.23285,0.14271 -0.33801,0.15774c-0.10293,0 -0.17804,-0.03005 -0.22534,-0.09014M242.79818,187.54381c-1.72502,0.02124 -3.46013,-0.03885 -5.20534,-0.18027l-2.5238,-0.24787c-3.77068,-0.48072 -7.48126,-1.24688 -11.13176,-2.29846c-0.59163,-0.169 -1.0348,-0.35679 -1.3295,-0.56335c-0.06743,0.38513 -0.13503,0.77572 -0.20281,1.17176c-0.40561,2.46371 -0.89385,6.18932 -1.46471,11.17683l-0.47321,4.25891c-0.44986,3.91263 -0.81791,6.84955 -1.10416,8.81077c0.22452,0.02289 0.47239,0.15058 0.74362,0.38308c0.07717,0.06226 0.15228,0.12235 0.22534,0.18027c0.16519,-0.02195 0.33795,-0.02195 0.51828,0c-0.0926,0.06214 -0.18274,0.12975 -0.27041,0.20281c0.93351,0.75113 1.40673,1.1267 1.41964,1.1267c0.03691,0.02711 0.07447,0.04965 0.11267,0.0676v0c0.21032,-0.661 0.34552,-1.15674 0.40561,-1.48724c0.04507,-0.27041 0.05258,-0.90887 0.02253,-1.91538c-0.03005,-0.75113 0,-1.36706 0.09014,-1.84778l0.29294,-1.3295c0.09014,-0.48072 0.12018,-1.17176 0.09014,-2.07312c-0.03005,-0.97647 -0.01502,-1.67502 0.04507,-2.09566c0.22534,-0.99149 0.36054,-1.74262 0.40561,-2.25339c-0.04507,-0.9314 -0.03005,-1.62995 0.04507,-2.09566c0.16525,-0.63095 0.27792,-1.10416 0.33801,-1.41964c0.09014,-0.43566 0.11267,-1.11167 0.0676,-2.02805c-0.03005,-0.90136 -0.00751,-1.56986 0.0676,-2.00552c0.27041,-0.88633 0.40561,-1.56235 0.40561,-2.02805l-0.04507,-0.92389c-0.01502,-0.37557 0.02253,-0.67602 0.11267,-0.90136c0.10516,-0.19529 0.18778,-0.34552 0.24787,-0.45068c0.09014,-0.18027 0.1352,-0.33801 0.1352,-0.47321c0,-0.19529 0.00751,-0.31547 0.02253,-0.36054c0.01502,-0.06009 0.05258,-0.10516 0.11267,-0.1352c0.07511,-0.03005 0.12769,-0.01502 0.15774,0.04507c0.15023,0.18027 0.17276,0.43566 0.0676,0.76615c-0.06009,0.18027 -0.16525,0.45819 -0.31547,0.83376c-0.07511,0.22534 -0.09765,0.5333 -0.0676,0.92389c0.01502,0.48072 0.01502,0.7962 0,0.94642c-0.03005,0.34552 -0.14271,0.84878 -0.33801,1.50977c-0.10516,0.49575 -0.14271,1.23185 -0.11267,2.20832c0.03005,1.00652 0,1.74262 -0.09014,2.20832c-0.06009,0.30045 -0.17276,0.75113 -0.33801,1.35204c-0.04507,0.25538 -0.05258,0.62344 -0.02253,1.10416c0.01502,0.51077 0.01502,0.87131 0,1.08163c-0.01502,0.28543 -0.07511,0.65348 -0.18027,1.10416c-0.1352,0.54081 -0.21783,0.90136 -0.24787,1.08163c-0.06009,0.40561 -0.0676,0.99149 -0.02253,1.75765c0.03005,0.81122 0.03005,1.3971 0,1.75765c-0.03005,0.27041 -0.12769,0.77366 -0.29294,1.50977c-0.1352,0.61593 -0.21032,1.11167 -0.22534,1.48724c0,0.10516 0.03005,0.62344 0.09014,1.55484c0.03005,0.61593 -0.02253,1.11167 -0.15774,1.48724c-0.22534,0.61593 -0.33801,0.93891 -0.33801,0.96896l0.02253,0.45068c0.53119,0.33196 1.04196,0.56482 1.53231,0.69855c0.3305,0.09014 0.74362,0.15774 1.23937,0.20281c0.28543,0.03005 0.70606,0.0676 1.2619,0.11267h0.02253l-0.02253,-2.68154c0,-0.49575 0.02253,-0.8638 0.0676,-1.10416l0.24787,-1.03656c0.06009,-0.30045 0.07511,-0.66851 0.04507,-1.10416c-0.04507,-0.48072 -0.07511,-0.84878 -0.09014,-1.10416c-0.09014,-0.97647 0.01502,-2.4562 0.31547,-4.43918l1.46471,-8.9685c0.1352,-0.67602 0.24036,-1.15674 0.31547,-1.44217c0.19529,-0.67602 0.30796,-1.08163 0.33801,-1.21683c0.09014,-0.4657 0.09014,-0.87131 0,-1.21683l0.33801,-0.09014c0.21032,0.24036 0.25538,0.57837 0.1352,1.01403c-0.04507,0.22534 -0.14271,0.56335 -0.29294,1.01403c-0.04507,0.25538 -0.06009,0.63095 -0.04507,1.1267c-0.01502,0.21032 -0.05258,0.47321 -0.11267,0.78869l-0.15774,0.76615c-0.03005,0.15023 -0.08262,0.84127 -0.15774,2.07312c-0.03005,0.78118 -0.24787,2.25339 -0.65348,4.41665l-0.31547,1.93792c-0.15023,1.1267 -0.23285,1.81023 -0.24787,2.05059c0,0.07511 -0.02253,0.84878 -0.0676,2.32099c-0.01502,0.9314 -0.09765,1.69004 -0.24787,2.27593l-0.31547,1.3295c-0.07511,0.42063 -0.11267,1.05158 -0.11267,1.89285v1.44217c0.80594,0.10416 1.88757,0.29945 3.24489,0.58588c0.44041,0.0642 1.01127,0.12429 1.71258,0.18027v-1.1267c0,-0.96145 0.04507,-1.62995 0.1352,-2.00552c0.16525,-0.55584 0.27041,-0.96896 0.31547,-1.23937c0.04507,-0.30045 0.05258,-0.67602 0.02253,-1.1267l-0.09014,-1.14923c0,-0.51077 0.08262,-1.23937 0.24787,-2.18579c0.19529,-0.99149 0.29294,-1.72009 0.29294,-2.18579c-0.01502,-0.64597 0.00751,-1.1267 0.0676,-1.44217c0.18027,-0.54081 0.29294,-0.95394 0.33801,-1.23937c0.04507,-0.24036 0.06009,-0.57837 0.04507,-1.01403c-0.01502,-0.4657 -0.00751,-0.80371 0.02253,-1.01403c0.03005,-0.22534 0.09765,-0.5333 0.20281,-0.92389c0.12018,-0.42063 0.19529,-0.7286 0.22534,-0.92389c0.03005,-0.25538 0.03756,-0.6009 0.02253,-1.03656c-0.03005,-0.52579 -0.04507,-0.87131 -0.04507,-1.03656c0.01502,-0.31547 0.12769,-0.98398 0.33801,-2.00552c0.18027,-0.82624 0.22534,-1.48724 0.1352,-1.98299l-0.0676,-0.67602c0.03005,-0.30045 0.16525,-0.4657 0.40561,-0.49575c0.21032,1.14172 0.19529,2.23837 -0.04507,3.28995c-0.18027,0.7962 -0.27041,1.20932 -0.27041,1.23937c-0.03005,0.28543 -0.03756,0.73611 -0.02253,1.35204c0.03005,0.58588 0.02253,1.02905 -0.02253,1.3295c-0.03005,0.21032 -0.09765,0.52579 -0.20281,0.94642c-0.10516,0.40561 -0.17276,0.72109 -0.20281,0.94642c-0.03005,0.21032 -0.03756,0.57086 -0.02253,1.08163c0.01502,0.45068 -0.00751,0.7962 -0.0676,1.03656c-0.03005,0.12018 -0.09014,0.3305 -0.18027,0.63095c-0.09014,0.27041 -0.15023,0.48824 -0.18027,0.65348c-0.06009,0.36054 -0.06009,0.90887 0,1.64498c-0.01502,0.27041 -0.08262,0.63095 -0.20281,1.08163c-0.12018,0.51077 -0.19529,0.87131 -0.22534,1.08163c-0.04507,0.3305 -0.06009,0.7286 -0.04507,1.1943c0.01502,0.25538 0.03756,0.65348 0.0676,1.1943c0,0.72109 -0.0676,1.42715 -0.20281,2.11819c-0.15023,0.64597 -0.23285,1.02905 -0.24787,1.14923c-0.09014,0.51077 -0.12018,1.17928 -0.09014,2.00552l0.02253,0.85629c0.32786,0.03644 0.68089,0.06649 1.05909,0.09014l3.69556,0.24787c0.86838,0.0615 1.69462,0.11408 2.47873,0.15774c-0.06508,-1.02412 -0.04254,-1.79778 0.0676,-2.32099c0.18027,-0.63095 0.29294,-1.10416 0.33801,-1.41964c0.03005,-0.18027 0.04507,-0.4657 0.04507,-0.85629c0,-0.37557 0.00751,-0.661 0.02253,-0.85629c0.1352,-0.661 0.23285,-1.15674 0.29294,-1.48724c0.07511,-0.42063 0.12018,-0.96145 0.1352,-1.62244c0,-0.94642 0.00751,-1.49475 0.02253,-1.64498c0.01502,-0.63095 0.12769,-1.57737 0.33801,-2.83927l0.56335,-3.44769c0.18027,-0.88633 0.28543,-1.57737 0.31547,-2.07312c0.03005,-0.91638 0.09014,-1.59991 0.18027,-2.05059c0.18027,-0.63095 0.29294,-1.10416 0.33801,-1.41964c0.03005,-0.19529 0.03756,-0.48824 0.02253,-0.87882c0,-0.40561 0.00751,-0.70606 0.02253,-0.90136c0.01502,-0.06009 0.12769,-0.4657 0.33801,-1.21683c0.1352,-0.48072 0.17276,-0.88633 0.11267,-1.21683c-0.0551,-0.20656 -0.07764,-0.37181 -0.0676,-0.49575M239.71104,192.09566c-0.03005,0.49575 -0.16525,1.40461 -0.40561,2.72661c-0.37557,2.16326 -0.67602,4.93493 -0.90136,8.31502c-0.31547,5.01755 -0.50326,7.80425 -0.56335,8.36009c-0.12018,1.09665 -0.32299,1.87032 -0.60842,2.32099c0.40561,-7.85683 1.14923,-15.99158 2.23086,-24.40424c0.24036,0.76615 0.32299,1.66 0.24787,2.68154M251.33854,188.91838c0,4.13122 -0.1352,8.26995 -0.40561,12.41619c-0.34552,4.77719 -0.84127,8.78823 -1.48724,12.03312c-0.19529,-0.24036 -0.24787,-0.68353 -0.15774,-1.3295c0.34552,-2.34353 0.65348,-6.20434 0.92389,-11.58244c0.25538,-5.00253 0.63095,-8.84832 1.1267,-11.53737M261.2084,187.61141l-0.27041,0.74362c-0.12018,0.42063 -0.1352,0.88633 -0.04507,1.3971c0.03005,0.22534 0.09014,0.54833 0.18027,0.96896c0.06009,0.37557 0.0676,0.69855 0.02253,0.96896c-0.01502,0.15023 -0.07511,0.36805 -0.18027,0.65348c-0.10516,0.28543 -0.17276,0.50326 -0.20281,0.65348c-0.03005,0.19529 -0.03005,0.45819 0,0.78869c0.04507,0.39059 0.0676,0.65348 0.0676,0.78869c0,0.27041 -0.06009,0.61593 -0.18027,1.03656c-0.1352,0.51077 -0.21783,0.85629 -0.24787,1.03656c-0.04507,0.24036 -0.06009,0.58588 -0.04507,1.03656c0.01502,0.49575 0.01502,0.84127 0,1.03656c-0.04507,0.45068 -0.17276,1.11919 -0.38308,2.00552c-0.01502,0.10516 -0.03756,0.41312 -0.0676,0.92389c-0.03005,0.39059 -0.08262,0.69855 -0.15774,0.92389c-0.03005,0.07511 -0.12769,0.30796 -0.29294,0.69855c-0.1352,0.30045 -0.21783,0.54833 -0.24787,0.74362c0,0.06009 0.00751,0.24036 0.02253,0.54081c0,0.21032 -0.01502,0.38308 -0.04507,0.51828c-0.04507,0.22534 -0.18778,0.54833 -0.42814,0.96896c-0.09014,0.22534 -0.12018,0.57086 -0.09014,1.03656c0.03005,0.48072 0.01502,0.82624 -0.04507,1.03656c-0.03005,0.12018 -0.11267,0.35303 -0.24787,0.69855c-0.12018,0.27041 -0.18778,0.49575 -0.20281,0.67602l0.04507,0.60842c0,0.28543 -0.10516,0.45068 -0.31547,0.49575c-0.22534,-0.36054 -0.25538,-0.81873 -0.09014,-1.37457c0.21032,-0.6009 0.33801,-1.05909 0.38308,-1.37457c0,-0.58588 0.01502,-1.02905 0.04507,-1.3295c0.01502,-0.16525 0.08262,-0.48072 0.20281,-0.94642c0.09014,-0.39059 0.1352,-0.70606 0.1352,-0.94642c-0.06009,-0.4657 -0.07511,-0.81873 -0.04507,-1.05909c0.01502,-0.1352 0.06009,-0.32299 0.1352,-0.56335c0.07511,-0.25538 0.12018,-0.44317 0.1352,-0.56335c0.03005,-0.16525 0.03005,-0.37557 0,-0.63095c-0.01502,-0.31547 -0.02253,-0.5333 -0.02253,-0.65348c0.01502,-0.24036 0.07511,-0.55584 0.18027,-0.94642c0.1352,-0.4657 0.21783,-0.78869 0.24787,-0.96896c0.04507,-0.25538 0.05258,-0.62344 0.02253,-1.10416c-0.03005,-0.51077 -0.03005,-0.87882 0,-1.10416c0.03005,-0.21032 0.10516,-0.52579 0.22534,-0.94642c0.12018,-0.42063 0.19529,-0.74362 0.22534,-0.96896c0.01502,-0.16525 0.01502,-0.47321 0,-0.92389c-0.01502,-0.39059 -0.00751,-0.69855 0.02253,-0.92389c0.03005,-0.21032 0.11267,-0.49575 0.24787,-0.85629c0.15023,-0.40561 0.24787,-0.69855 0.29294,-0.87882c0.06009,-0.28543 0.09014,-0.70606 0.09014,-1.2619c0,-0.58588 0.02253,-1.00652 0.0676,-1.2619c0.01502,-0.07511 0.15774,-0.58588 0.42814,-1.53231c0.16525,-0.61593 0.19529,-1.1267 0.09014,-1.53231l0.33801,-0.11267c0.18027,0.58588 0.18027,1.17928 0,1.78018M255.28198,187.11566l-0.11267,7.95448c-0.06009,2.97448 -0.12769,5.1152 -0.20281,6.42217c-0.12018,2.37357 -0.33801,4.49927 -0.65348,6.3771c-0.25538,1.50226 -0.61593,2.659 -1.08163,3.47022l1.03656,-16.08922c0.12018,-1.83276 0.23285,-3.19982 0.33801,-4.10117c0.16525,-1.50226 0.39059,-2.84679 0.67602,-4.03357M258.4818,209.64959c-0.01408,0.02899 -0.02911,0.05903 -0.04507,0.09014c-0.00299,-0.02312 -0.0105,-0.04565 -0.02253,-0.0676c0.02676,-0.00804 0.04929,-0.01555 0.0676,-0.02253z" fill="#000000"/><path d="M242.86579,188.03955c0.06009,0.3305 0.02253,0.73611 -0.11267,1.21683c-0.21032,0.75113 -0.32299,1.15674 -0.33801,1.21683c-0.01502,0.19529 -0.02253,0.49575 -0.02253,0.90136c0.01502,0.39059 0.00751,0.68353 -0.02253,0.87882c-0.04507,0.31547 -0.15774,0.78869 -0.33801,1.41964c-0.09014,0.45068 -0.15023,1.13421 -0.18027,2.05059c-0.03005,0.49575 -0.1352,1.18679 -0.31547,2.07312l-0.56335,3.44769c-0.21032,1.2619 -0.32299,2.20832 -0.33801,2.83927c-0.01502,0.15023 -0.02253,0.69855 -0.02253,1.64498c-0.01502,0.661 -0.06009,1.20181 -0.1352,1.62244c-0.06009,0.3305 -0.15774,0.82624 -0.29294,1.48724c-0.01502,0.19529 -0.02253,0.48072 -0.02253,0.85629c0,0.39059 -0.01502,0.67602 -0.04507,0.85629c-0.04507,0.31547 -0.15774,0.78869 -0.33801,1.41964c-0.11015,0.52321 -0.13268,1.29687 -0.0676,2.32099c-0.78411,-0.04366 -1.61035,-0.09624 -2.47873,-0.15774l-3.69556,-0.24787c-0.37821,-0.02365 -0.73124,-0.05369 -1.05909,-0.09014l-0.02253,-0.85629c-0.03005,-0.82624 0,-1.49475 0.09014,-2.00552c0.01502,-0.12018 0.09765,-0.50326 0.24787,-1.14923c0.1352,-0.69104 0.20281,-1.3971 0.20281,-2.11819c-0.03005,-0.54081 -0.05258,-0.93891 -0.0676,-1.1943c-0.01502,-0.4657 0,-0.8638 0.04507,-1.1943c0.03005,-0.21032 0.10516,-0.57086 0.22534,-1.08163c0.12018,-0.45068 0.18778,-0.81122 0.20281,-1.08163c-0.06009,-0.73611 -0.06009,-1.28443 0,-1.64498c0.03005,-0.16525 0.09014,-0.38308 0.18027,-0.65348c0.09014,-0.30045 0.15023,-0.51077 0.18027,-0.63095c0.06009,-0.24036 0.08262,-0.58588 0.0676,-1.03656c-0.01502,-0.51077 -0.00751,-0.87131 0.02253,-1.08163c0.03005,-0.22534 0.09765,-0.54081 0.20281,-0.94642c0.10516,-0.42063 0.17276,-0.73611 0.20281,-0.94642c0.04507,-0.30045 0.05258,-0.74362 0.02253,-1.3295c-0.01502,-0.61593 -0.00751,-1.06661 0.02253,-1.35204c0,-0.03005 0.09014,-0.44317 0.27041,-1.23937c0.24036,-1.05158 0.25538,-2.14823 0.04507,-3.28995c-0.24036,0.03005 -0.37557,0.19529 -0.40561,0.49575l0.0676,0.67602c0.09014,0.49575 0.04507,1.15674 -0.1352,1.98299c-0.21032,1.02154 -0.32299,1.69004 -0.33801,2.00552c0,0.16525 0.01502,0.51077 0.04507,1.03656c0.01502,0.43566 0.00751,0.78118 -0.02253,1.03656c-0.03005,0.19529 -0.10516,0.50326 -0.22534,0.92389c-0.10516,0.39059 -0.17276,0.69855 -0.20281,0.92389c-0.03005,0.21032 -0.03756,0.54833 -0.02253,1.01403c0.01502,0.43566 0,0.77366 -0.04507,1.01403c-0.04507,0.28543 -0.15774,0.69855 -0.33801,1.23937c-0.06009,0.31547 -0.08262,0.7962 -0.0676,1.44217c0,0.4657 -0.09765,1.1943 -0.29294,2.18579c-0.16525,0.94642 -0.24787,1.67502 -0.24787,2.18579l0.09014,1.14923c0.03005,0.45068 0.02253,0.82624 -0.02253,1.1267c-0.04507,0.27041 -0.15023,0.68353 -0.31547,1.23937c-0.09014,0.37557 -0.1352,1.04407 -0.1352,2.00552v1.1267c-0.70131,-0.05598 -1.27217,-0.11607 -1.71258,-0.18027c-1.35732,-0.28643 -2.43895,-0.48172 -3.24489,-0.58588v-1.44217c0,-0.84127 0.03756,-1.47222 0.11267,-1.89285l0.31547,-1.3295c0.15023,-0.58588 0.23285,-1.34452 0.24787,-2.27593c0.04507,-1.47222 0.0676,-2.24588 0.0676,-2.32099c0.01502,-0.24036 0.09765,-0.92389 0.24787,-2.05059l0.31547,-1.93792c0.40561,-2.16326 0.62344,-3.63547 0.65348,-4.41665c0.07511,-1.23185 0.12769,-1.9229 0.15774,-2.07312l0.15774,-0.76615c0.06009,-0.31547 0.09765,-0.57837 0.11267,-0.78869c-0.01502,-0.49575 0,-0.87131 0.04507,-1.1267c0.15023,-0.45068 0.24787,-0.78869 0.29294,-1.01403c0.12018,-0.43566 0.07511,-0.77366 -0.1352,-1.01403l-0.33801,0.09014c0.09014,0.34552 0.09014,0.75113 0,1.21683c-0.03005,0.1352 -0.14271,0.54081 -0.33801,1.21683c-0.07511,0.28543 -0.18027,0.76615 -0.31547,1.44217l-1.46471,8.9685c-0.30045,1.98299 -0.40561,3.46271 -0.31547,4.43918c0.01502,0.25538 0.04507,0.62344 0.09014,1.10416c0.03005,0.43566 0.01502,0.80371 -0.04507,1.10416l-0.24787,1.03656c-0.04507,0.24036 -0.0676,0.60842 -0.0676,1.10416l0.02253,2.68154h-0.02253c-0.55584,-0.04507 -0.97647,-0.08262 -1.2619,-0.11267c-0.49575,-0.04507 -0.90887,-0.11267 -1.23937,-0.20281c-0.49035,-0.13374 -1.00112,-0.36659 -1.53231,-0.69855l-0.02253,-0.45068c0,-0.03005 0.11267,-0.35303 0.33801,-0.96896c0.1352,-0.37557 0.18778,-0.87131 0.15774,-1.48724c-0.06009,-0.9314 -0.09014,-1.44968 -0.09014,-1.55484c0.01502,-0.37557 0.09014,-0.87131 0.22534,-1.48724c0.16525,-0.73611 0.2629,-1.23937 0.29294,-1.50977c0.03005,-0.36054 0.03005,-0.94642 0,-1.75765c-0.04507,-0.76615 -0.03756,-1.35204 0.02253,-1.75765c0.03005,-0.18027 0.11267,-0.54081 0.24787,-1.08163c0.10516,-0.45068 0.16525,-0.81873 0.18027,-1.10416c0.01502,-0.21032 0.01502,-0.57086 0,-1.08163c-0.03005,-0.48072 -0.02253,-0.84878 0.02253,-1.10416c0.16525,-0.6009 0.27792,-1.05158 0.33801,-1.35204c0.09014,-0.4657 0.12018,-1.20181 0.09014,-2.20832c-0.03005,-0.97647 0.00751,-1.71258 0.11267,-2.20832c0.19529,-0.661 0.30796,-1.16425 0.33801,-1.50977c0.01502,-0.15023 0.01502,-0.4657 0,-0.94642c-0.03005,-0.39059 -0.00751,-0.69855 0.0676,-0.92389c0.15023,-0.37557 0.25538,-0.65348 0.31547,-0.83376c0.10516,-0.3305 0.08262,-0.58588 -0.0676,-0.76615c-0.03005,-0.06009 -0.08262,-0.07511 -0.15774,-0.04507c-0.06009,0.03005 -0.09765,0.07511 -0.11267,0.1352c-0.01502,0.04507 -0.02253,0.16525 -0.02253,0.36054c0,0.1352 -0.04507,0.29294 -0.1352,0.47321c-0.06009,0.10516 -0.14271,0.25538 -0.24787,0.45068c-0.09014,0.22534 -0.12769,0.52579 -0.11267,0.90136l0.04507,0.92389c0,0.4657 -0.1352,1.14172 -0.40561,2.02805c-0.07511,0.43566 -0.09765,1.10416 -0.0676,2.00552c0.04507,0.91638 0.02253,1.5924 -0.0676,2.02805c-0.06009,0.31547 -0.17276,0.78869 -0.33801,1.41964c-0.07511,0.4657 -0.09014,1.16425 -0.04507,2.09566c-0.04507,0.51077 -0.18027,1.2619 -0.40561,2.25339c-0.06009,0.42063 -0.07511,1.11919 -0.04507,2.09566c0.03005,0.90136 0,1.5924 -0.09014,2.07312l-0.29294,1.3295c-0.09014,0.48072 -0.12018,1.09665 -0.09014,1.84778c0.03005,1.00652 0.02253,1.64498 -0.02253,1.91538c-0.06009,0.3305 -0.19529,0.82624 -0.40561,1.48724v0c-0.0382,-0.01796 -0.07576,-0.04049 -0.11267,-0.0676c-0.01291,0 -0.48612,-0.37557 -1.41964,-1.1267c0.08767,-0.07306 0.17781,-0.14066 0.27041,-0.20281c-0.18033,-0.02195 -0.35309,-0.02195 -0.51828,0c-0.07306,-0.05792 -0.14817,-0.11801 -0.22534,-0.18027c-0.27123,-0.2325 -0.5191,-0.36019 -0.74362,-0.38308c0.28625,-1.96121 0.65431,-4.89814 1.10416,-8.81077l0.47321,-4.25891c0.57086,-4.98751 1.05909,-8.71312 1.46471,-11.17683c0.06778,-0.39605 0.13538,-0.78663 0.20281,-1.17176c0.2947,0.20656 0.73787,0.39434 1.3295,0.56335c3.6505,1.05158 7.36108,1.81774 11.13176,2.29846l2.5238,0.24787c1.74521,0.14142 3.48032,0.20151 5.20534,0.18027c-0.01003,0.12394 0.0125,0.28919 0.0676,0.49575M239.46316,189.41412c-1.08163,8.41267 -1.82525,16.54741 -2.23086,24.40424c0.28543,-0.45068 0.48824,-1.22434 0.60842,-2.32099c0.06009,-0.55584 0.24787,-3.34253 0.56335,-8.36009c0.22534,-3.38009 0.52579,-6.15176 0.90136,-8.31502c0.24036,-1.32199 0.37557,-2.23086 0.40561,-2.72661c0.07511,-1.02154 -0.00751,-1.91538 -0.24787,-2.68154M229.5257,284.84531c-0.61352,-0.12488 -1.31207,-0.11736 -2.09566,0.02253c-0.4748,0.06977 -1.15833,0.24253 -2.05059,0.51828c-0.10234,-0.11314 -0.10234,-0.25585 0,-0.42814c0.10269,-0.13826 0.2379,-0.24341 0.40561,-0.31547c1.38578,-0.60478 3.15845,-0.65736 5.31801,-0.15774c0.48207,0.1193 1.35339,0.36717 2.61394,0.74362c1.09683,0.32827 1.96814,0.5461 2.61394,0.65348c2.32334,0.40426 4.58425,0.21648 6.78271,-0.56335c1.10205,-0.42809 1.78558,-0.66845 2.05059,-0.72109c0.77754,-0.1984 1.44604,-0.18338 2.00552,0.04507c-1.99971,1.64198 -4.34324,2.61094 -7.03059,2.90688c-2.68629,0.29546 -5.18005,-0.14019 -7.48126,-1.30697c-0.6776,-0.34728 -1.18837,-0.61018 -1.53231,-0.78869c-0.60161,-0.30943 -1.13491,-0.51224 -1.59991,-0.60842M246.71909,275.56133c1.62937,-0.36477 3.07905,-0.47744 4.34905,-0.33801c-3.19342,1.19565 -6.39324,2.17963 -9.59945,2.95194c-1.46224,0.35426 -2.61147,0.53454 -3.44769,0.54081c-1.15844,0.05276 -2.44288,-0.12752 -3.8533,-0.54081c-0.83775,-0.25092 -2.0696,-0.70911 -3.69556,-1.37457c0.4914,-0.06197 1.05475,0.00563 1.69004,0.20281c0.35861,0.09894 0.89191,0.27921 1.59991,0.54081c1.27874,0.39006 2.72842,0.48771 4.34905,0.29294c1.15076,-0.14911 2.60044,-0.49463 4.34905,-1.03656c2.11872,-0.67256 3.53835,-1.08568 4.25891,-1.23937M241.24334,282.74965c-0.16595,0.31735 -0.57907,0.53518 -1.23937,0.65348c-2.03386,0.36817 -4.06943,0.54844 -6.10669,0.54081c-1.20427,-0.0223 -2.10563,-0.04483 -2.70407,-0.0676c-1.0652,-0.00628 -1.96655,0.03879 -2.70407,0.1352c-0.06379,-0.16865 -0.0037,-0.32639 0.18027,-0.47321c0.1703,-0.11948 0.3731,-0.2021 0.60842,-0.24787c0.99437,-0.17751 2.98487,-0.23009 5.97149,-0.15774c2.51993,0.04342 4.48038,-0.18943 5.88136,-0.69855l0.11267,0.31547M241.58135,278.94142c0.06379,0.22892 -0.01884,0.44675 -0.24787,0.65348c-0.19705,0.17581 -0.44493,0.3035 -0.74362,0.38308c-1.12541,0.33196 -2.42486,0.52726 -3.89837,0.58588c-0.91292,0.03251 -2.23491,-0.00505 -3.96597,-0.11267l-11.5599,-0.58588c-0.13608,-0.22094 -0.17364,-0.40872 -0.11267,-0.56335c0.01273,-0.08192 0.07282,-0.12699 0.18027,-0.1352c0.12652,-0.00675 0.19412,0.03081 0.20281,0.11267c4.56107,-0.32082 9.06785,-0.26824 13.52036,0.15774c1.5833,0.16366 2.71751,0.23878 3.40262,0.22534c1.25838,-0.04448 2.3325,-0.28484 3.22235,-0.72109M242.61791,281.89336c-0.54211,-0.16331 -1.18057,-0.21589 -1.91538,-0.15774c-0.27598,0.01625 -0.92195,0.10639 -1.93792,0.27041c-4.60373,0.75242 -9.19314,0.55713 -13.76823,-0.58588c-0.02013,-0.10827 0.03245,-0.18338 0.15774,-0.22534c0.13914,-0.04448 0.27434,-0.05199 0.40561,-0.02253c4.51013,0.94144 9.00189,0.9865 13.47529,0.1352c0.81181,-0.1558 1.45778,-0.20838 1.93792,-0.15774c0.73376,0.03756 1.28209,0.28543 1.64498,0.74362M236.01547,266.39002c0.51593,-0.08304 0.9591,-0.24077 1.3295,-0.47321c0.0865,-0.05369 0.47709,-0.34664 1.17176,-0.87882c0.46306,-0.36354 0.88369,-0.55883 1.2619,-0.58588c0.47761,-0.06279 1.02594,0.10246 1.64498,0.49575c0.85377,0.57702 1.37205,0.90001 1.55484,0.96896c0.33015,0.1423 0.68318,0.20239 1.05909,0.18027c0.35931,-0.00792 0.69732,-0.09055 1.01403,-0.24787c0.30468,-0.12857 0.75536,-0.45156 1.35204,-0.96896c0.53407,-0.45361 0.98474,-0.73153 1.35204,-0.83376c-0.05281,0.65724 -0.27064,1.27317 -0.65348,1.84778c-0.39839,0.57379 -0.88663,1.00194 -1.46471,1.28443c-0.16138,0.06009 -0.31911,0.12018 -0.47321,0.18027c-0.24423,0.06003 -0.49211,0.11261 -0.74362,0.15774c-0.10099,0 -0.19113,0.00751 -0.27041,0.02253c-0.60935,0.01408 -1.18773,-0.11361 -1.73511,-0.38308c-0.05211,-0.04501 -0.09718,-0.07505 -0.1352,-0.09014l-0.78869,-0.0676c-0.08016,-0.1051 -0.05763,-0.20275 0.0676,-0.29294c0.05322,-0.02623 0.12083,-0.04125 0.20281,-0.04507c-0.22804,-0.23297 -0.39329,-0.50338 -0.49575,-0.81122c-0.14013,-0.39722 -0.2528,-0.63758 -0.33801,-0.72109c-0.11731,-0.08245 -0.30509,-0.12752 -0.56335,-0.1352c-0.49469,0.02359 -1.05804,0.24893 -1.69004,0.67602c-1.07382,0.72666 -1.61464,1.09471 -1.62244,1.10416c-1.06819,0.56018 -2.16484,0.63529 -3.28995,0.22534c0.05856,-0.29206 0.33648,-0.45731 0.83376,-0.49575c0.635,-0.03762 1.10821,-0.07517 1.41964,-0.11267M225.8752,270.28839c-0.18256,-0.0862 -0.31025,-0.15381 -0.38308,-0.20281c-0.13092,-0.05305 -0.22857,-0.16572 -0.29294,-0.33801c-0.05023,-0.15727 -0.02019,-0.26243 0.09014,-0.31547c0.3133,0.20175 0.72643,0.26935 1.23937,0.20281c0.29611,-0.05293 0.74679,-0.15809 1.35204,-0.31547c0.23332,-0.03744 0.64644,-0.06748 1.23937,-0.09014c0.538,-0.02271 0.95112,-0.06778 1.23937,-0.1352c0.44997,-0.11009 1.09595,-0.38801 1.93792,-0.83376c1.26689,-0.53729 2.54381,-0.56734 3.83077,-0.09014c-0.01649,0.22446 -0.2193,0.33713 -0.60842,0.33801c-1.34353,-0.03245 -2.38009,0.10275 -3.10968,0.40561c-0.71457,0.39716 -1.2629,0.66006 -1.64498,0.78869c-0.29499,0.08233 -0.67056,0.1274 -1.1267,0.1352c-0.64732,0.03756 -1.02289,0.06009 -1.1267,0.0676c-0.53072,0.06525 -1.31941,0.29059 -2.36606,0.67602c-0.04219,-0.12 -0.13233,-0.21765 -0.27041,-0.29294M223.55421,265.7816c0.48395,0.08315 0.9121,0.25591 1.28443,0.51828c0.43249,0.28971 0.68787,0.65026 0.76615,1.08163l2.81674,-1.1267c0.9767,-0.36694 1.71281,-0.53219 2.20832,-0.49575c0.21178,0.03808 0.63242,0.15075 1.2619,0.33801c0.49692,0.17217 0.91004,0.23978 1.23937,0.20281c0.12511,0.24787 0.12511,0.48824 0,0.72109c-1.00505,-0.51623 -2.08668,-0.6965 -3.24489,-0.54081c-0.73981,0.11044 -1.7313,0.46347 -2.97448,1.05909l-0.74362,0.36054c-0.28003,0.19342 -0.58048,0.1183 -0.90136,-0.22534c-0.24987,-0.38607 -0.45267,-0.66399 -0.60842,-0.83376c-0.29764,-0.35186 -0.69574,-0.5096 -1.1943,-0.47321c-0.51441,0.03867 -0.88997,0.2565 -1.1267,0.65348c-0.13362,-0.12787 -0.1862,-0.30063 -0.15774,-0.51828c0.03145,-0.20263 0.12159,-0.37539 0.27041,-0.51828c0.2362,-0.18714 0.60425,-0.25474 1.10416,-0.20281M245.88533,234.14397c0.74327,0.58095 1.30662,1.23444 1.69004,1.96045c0.35391,0.63318 0.62432,1.36929 0.81122,2.20832c0.30298,1.16085 0.44569,2.34764 0.42814,3.56036c-0.05997,0.00739 -0.12006,0.01491 -0.18027,0.02253c-0.43214,0.08257 -0.92788,0.46564 -1.48724,1.14923l-0.65348,0.81122c-0.08661,-0.26595 -0.13168,-0.58893 -0.1352,-0.96896c0.01643,-0.4407 0.01643,-0.77871 0,-1.01403c-0.02506,-0.8293 -0.23537,-1.4302 -0.63095,-1.80271c-0.26765,-0.00992 -0.48548,0.14031 -0.65348,0.45068c-0.13955,0.35784 -0.2447,0.63576 -0.31547,0.83376c-0.26771,0.59609 -0.71087,0.98668 -1.3295,1.17176l0.67602,-1.98299c0.11279,-0.34282 0.14283,-0.61323 0.09014,-0.81122c-0.0189,-0.13556 -0.07899,-0.24823 -0.18027,-0.33801c-0.10052,-0.10633 -0.21319,-0.13638 -0.33801,-0.09014c-0.61646,0.89619 -1.08967,1.93275 -1.41964,3.10968c-0.24699,0.90593 -0.38971,1.77725 -0.42814,2.61394c-0.04882,0.5316 0.07136,0.86961 0.36054,1.01403c0.12347,0.06819 0.26618,0.06819 0.42814,0c0.14923,-0.03709 0.26941,-0.12722 0.36054,-0.27041c0.09207,-0.12969 0.20474,-0.43014 0.33801,-0.90136c0.31495,-1.03357 0.79567,-1.96497 1.44217,-2.79421c0.01356,0.17505 -0.01649,1.12147 -0.09014,2.83927c-0.02347,1.13714 0.12675,2.01596 0.45068,2.63647c0.19735,0.38073 0.4302,0.59105 0.69855,0.63095c0.41107,0.09735 0.82419,-0.21812 1.23937,-0.94642l1.37457,-2.34353c-0.07112,0.25908 -0.13872,0.52198 -0.20281,0.78869c-0.84579,3.06778 -2.39311,5.65918 -4.64199,7.77421c-0.74561,0.70677 -1.48172,1.2626 -2.20832,1.66751c-1.73899,1.01144 -3.75202,1.46963 -6.03909,1.37457c-1.81662,-0.0855 -3.85219,-0.54369 -6.10669,-1.37457c-1.31031,-0.46535 -2.36941,-0.98363 -3.17728,-1.55484c-0.16126,-0.10516 -0.31148,-0.21032 -0.45068,-0.31547c0.22575,0.06015 0.47362,0.10522 0.74362,0.1352c1.39904,0.18174 2.60836,0.00898 3.62796,-0.51828c0.56857,-0.3187 1.04178,-0.73934 1.41964,-1.2619c0.39898,-0.53665 0.63934,-1.12253 0.72109,-1.75765c-1.66763,1.16437 -3.49288,1.69767 -5.47574,1.59991c-0.72584,-0.02154 -1.21407,-0.21683 -1.46471,-0.58588c-0.14612,-0.2207 -0.22874,-0.56622 -0.24787,-1.03656c-0.06578,-2.53096 0.64779,-5.09232 2.14072,-7.68407c1.11813,-1.91045 2.77813,-3.99109 4.98,-6.2419c0.63248,-0.63606 1.17329,-0.9966 1.62244,-1.08163c0.32762,-0.03985 0.62807,0.03527 0.90136,0.22534c0.31829,0.22422 0.46852,0.50214 0.45068,0.83376c0.24482,-0.60448 0.15469,-1.2129 -0.27041,-1.82525c-0.44434,-0.63048 -0.97764,-0.90089 -1.59991,-0.81122c-0.54228,0.0791 -1.18074,0.53729 -1.91538,1.37457c-1.3217,1.47585 -2.26061,2.55748 -2.81674,3.24489c-1.00564,1.23367 -1.83939,2.39793 -2.50127,3.49276c-1.52485,2.47867 -2.37363,4.94238 -2.54633,7.39113c-0.01473,-0.09788 -0.01473,-0.18051 0,-0.24787c-0.01074,-0.86943 0.20709,-2.22898 0.65348,-4.07864l0.60842,-2.3886c0.35825,-1.42392 0.68875,-2.51306 0.99149,-3.26742c0.46787,-1.1676 1.04624,-2.11402 1.73511,-2.83927c0.78176,-0.86456 2.0662,-1.67578 3.8533,-2.43366c1.70865,-0.69685 3.11326,-1.10997 4.21384,-1.23937c0.91034,-0.1156 2.26988,-0.09307 4.07864,0.0676c1.44006,0.12705 2.55924,0.27727 3.35756,0.45068c1.21002,0.30116 2.21654,0.75935 3.01955,1.37457M235.00145,243.45048c0.04219,-0.28255 0.09477,-0.49287 0.15774,-0.63095c0.15011,-0.21478 0.24776,-0.38003 0.29294,-0.49575c0.07394,-0.15768 0.05892,-0.33044 -0.04507,-0.51828c-0.1159,-0.19265 -0.25861,-0.30532 -0.42814,-0.33801c-0.33214,-0.10422 -0.65513,0.00094 -0.96896,0.31547c-0.19424,0.22018 -0.38202,0.55067 -0.56335,0.99149l-0.58588,0.11267c0.30497,-0.75917 0.63547,-1.45772 0.99149,-2.09566l-0.54081,-0.1352c-0.09501,0.1913 -0.29781,0.39411 -0.60842,0.60842c-0.32968,0.2599 -0.5475,0.46271 -0.65348,0.60842c-0.12094,0.40315 -0.23361,0.7036 -0.33801,0.90136c-0.07541,0.12 -0.18056,0.25521 -0.31547,0.40561c-0.20991,0.19987 -0.3376,0.32756 -0.38308,0.38308c-0.11954,0.16032 -0.25474,0.42322 -0.40561,0.78869c-0.15081,0.36172 -0.27851,0.6171 -0.38308,0.76615c-0.34487,0.36512 -0.59275,0.65055 -0.74362,0.85629c-0.30127,0.38707 -0.37639,0.75512 -0.22534,1.10416c0.08315,0.16566 0.21836,0.28584 0.40561,0.36054c0.19858,0.07564 0.39387,0.09066 0.58588,0.04507c0.29535,-0.0737 0.58078,-0.29904 0.85629,-0.67602c0.17211,-0.22716 0.41248,-0.64779 0.72109,-1.2619c0.64116,-1.14712 1.39229,-2.10857 2.25339,-2.88434c0.12675,0.11965 0.13426,0.2849 0.02253,0.49575c-0.03773,0.10833 -0.12787,0.25855 -0.27041,0.45068c-0.04055,0.11202 -0.06308,0.26976 -0.0676,0.47321c-0.00076,0.25251 -0.00076,0.41776 0,0.49575c-0.01479,0.10715 -0.11995,0.37005 -0.31547,0.78869c-0.15287,0.30855 -0.19042,0.55642 -0.11267,0.74362l0.47321,0.24787l1.21683,-1.62244c-0.11678,0.01573 -0.21442,-0.03685 -0.29294,-0.15774c-0.05211,-0.12388 -0.06713,-0.25908 -0.04507,-0.40561c0.02265,-0.06719 0.07523,-0.17986 0.15774,-0.33801c0.09753,-0.15815 0.15011,-0.28584 0.15774,-0.38308M236.80416,242.9998c-0.2903,0.57843 -0.66587,1.16431 -1.1267,1.75765c-0.20198,0.28971 -0.31465,0.53008 -0.33801,0.72109c-0.00669,0.2031 0.06091,0.36835 0.20281,0.49575c0.16836,0.14354 0.34863,0.19612 0.54081,0.15774c0.13485,-0.03673 0.30761,-0.16443 0.51828,-0.38308l1.2619,-1.28443c0.05311,0.14923 0.06813,0.38959 0.04507,0.72109c-0.04155,0.32023 -0.02652,0.54557 0.04507,0.67602c0.10152,0.21865 0.27428,0.34634 0.51828,0.38308c0.243,0.03838 0.46834,-0.0142 0.67602,-0.15774c0.25345,-0.15938 0.53888,-0.52743 0.85629,-1.10416c0.27422,-0.51699 0.64979,-1.13292 1.1267,-1.84778c-0.25767,-0.0588 -0.58817,0.08392 -0.99149,0.42814c-0.42181,0.38525 -0.75982,0.57303 -1.01403,0.56335l0.27041,-0.83376c0.12793,-0.39563 0.17299,-0.68858 0.1352,-0.87882c-0.05939,-0.37034 -0.23215,-0.57315 -0.51828,-0.60842c-0.20122,-0.00998 -0.44909,0.16278 -0.74362,0.51828c-0.50373,0.64732 -0.99196,0.87266 -1.46471,0.67602M261.81682,183.98345c0.52028,3.40873 0.55032,6.87895 0.09014,10.41067c-0.15023,1.11167 -0.4657,2.93692 -0.94642,5.47574c-0.4657,2.32851 -0.76615,4.14624 -0.90136,5.45321c-0.15651,1.48671 -0.22411,2.95893 -0.20281,4.41665c-0.11343,0.02535 -0.2261,0.11549 -0.33801,0.27041c-0.00511,0.00698 -0.01262,0.01449 -0.02253,0.02253c-0.15163,0.22059 -0.24928,0.49099 -0.29294,0.81122l-0.02253,0.15774c-1.02459,0.57209 -1.66305,0.9101 -1.91538,1.01403c-0.61593,0.25538 -1.47973,0.48824 -2.5914,0.69855c-1.32199,0.22534 -2.20081,0.40561 -2.63647,0.54081c-1.15674,0.4657 -2.03556,0.78118 -2.63647,0.94642c-0.81122,0.22534 -1.97547,0.33801 -3.49276,0.33801c-0.14318,-0.001 -0.29341,-0.001 -0.45068,0c0.05575,-0.67068 0.13837,-1.45185 0.24787,-2.34353l2.3886,-19.87492c-0.34552,0.40561 -0.57837,1.11919 -0.69855,2.14072l-2.18579,17.77927c-0.10516,0.85629 -0.15774,1.50977 -0.15774,1.96045c0.00229,0.1115 0.00229,0.21665 0,0.31547c-1.38801,-0.01848 -3.03298,-0.08609 -4.93493,-0.20281c0.02289,-0.24001 0.0304,-0.52544 0.02253,-0.85629c-0.01502,-0.67602 0.00751,-1.16425 0.0676,-1.46471c0.21032,-0.6009 0.33801,-1.06661 0.38308,-1.3971c0.03005,-0.21032 0.03756,-0.49575 0.02253,-0.85629c-0.01502,-0.42063 -0.01502,-0.70606 0,-0.85629c0.01502,-0.19529 0.06009,-0.45068 0.1352,-0.76615c0.10516,-0.40561 0.16525,-0.66851 0.18027,-0.78869c0.09014,-0.43566 0.1352,-0.99149 0.1352,-1.66751c-0.01502,-0.94642 -0.01502,-1.50977 0,-1.69004c0.01502,-0.49575 0.09765,-1.22434 0.24787,-2.18579l0.69855,-4.05611c0.18027,-1.15674 0.28543,-1.8628 0.31547,-2.11819c0.07511,-1.1267 0.12769,-1.75765 0.15774,-1.89285c0.15023,-0.61593 0.24787,-1.08163 0.29294,-1.3971c0.03005,-0.19529 0.05258,-0.49575 0.0676,-0.90136c0.01502,-0.40561 0.03756,-0.71357 0.0676,-0.92389c0.16525,-0.75113 0.28543,-1.31448 0.36054,-1.69004c0.08791,-0.48342 0.08791,-0.90406 0,-1.2619c6.16778,-0.10598 12.19185,-1.21765 18.07221,-3.33502c0.19647,-0.06831 0.35421,-0.14342 0.47321,-0.22534M258.43673,209.73972c0.01596,-0.0311 0.03098,-0.06115 0.04507,-0.09014c-0.01831,0.00698 -0.04084,0.01449 -0.0676,0.02253c0.01203,0.02195 0.01954,0.04448 0.02253,0.0676M254.60596,191.14923c-0.10516,0.90136 -0.21783,2.26842 -0.33801,4.10117l-1.03656,16.08922c0.4657,-0.81122 0.82624,-1.96796 1.08163,-3.47022c0.31547,-1.87783 0.5333,-4.00353 0.65348,-6.3771c0.07511,-1.30697 0.14271,-3.44769 0.20281,-6.42217l0.11267,-7.95448c-0.28543,1.18679 -0.51077,2.53131 -0.67602,4.03357M261.2084,185.83123l-0.33801,0.11267c0.10516,0.40561 0.07511,0.91638 -0.09014,1.53231c-0.27041,0.94642 -0.41312,1.45719 -0.42814,1.53231c-0.04507,0.25538 -0.0676,0.67602 -0.0676,1.2619c0,0.55584 -0.03005,0.97647 -0.09014,1.2619c-0.04507,0.18027 -0.14271,0.47321 -0.29294,0.87882c-0.1352,0.36054 -0.21783,0.64597 -0.24787,0.85629c-0.03005,0.22534 -0.03756,0.5333 -0.02253,0.92389c0.01502,0.45068 0.01502,0.75864 0,0.92389c-0.03005,0.22534 -0.10516,0.54833 -0.22534,0.96896c-0.12018,0.42063 -0.19529,0.73611 -0.22534,0.94642c-0.03005,0.22534 -0.03005,0.59339 0,1.10416c0.03005,0.48072 0.02253,0.84878 -0.02253,1.10416c-0.03005,0.18027 -0.11267,0.50326 -0.24787,0.96896c-0.10516,0.39059 -0.16525,0.70606 -0.18027,0.94642c0,0.12018 0.00751,0.33801 0.02253,0.65348c0.03005,0.25538 0.03005,0.4657 0,0.63095c-0.01502,0.12018 -0.06009,0.30796 -0.1352,0.56335c-0.07511,0.24036 -0.12018,0.42814 -0.1352,0.56335c-0.03005,0.24036 -0.01502,0.59339 0.04507,1.05909c0,0.24036 -0.04507,0.55584 -0.1352,0.94642c-0.12018,0.4657 -0.18778,0.78118 -0.20281,0.94642c-0.03005,0.30045 -0.04507,0.74362 -0.04507,1.3295c-0.04507,0.31547 -0.17276,0.77366 -0.38308,1.37457c-0.16525,0.55584 -0.1352,1.01403 0.09014,1.37457c0.21032,-0.04507 0.31547,-0.21032 0.31547,-0.49575l-0.04507,-0.60842c0.01502,-0.18027 0.08262,-0.40561 0.20281,-0.67602c0.1352,-0.34552 0.21783,-0.57837 0.24787,-0.69855c0.06009,-0.21032 0.07511,-0.55584 0.04507,-1.03656c-0.03005,-0.4657 0,-0.81122 0.09014,-1.03656c0.24036,-0.42063 0.38308,-0.74362 0.42814,-0.96896c0.03005,-0.1352 0.04507,-0.30796 0.04507,-0.51828c-0.01502,-0.30045 -0.02253,-0.48072 -0.02253,-0.54081c0.03005,-0.19529 0.11267,-0.44317 0.24787,-0.74362c0.16525,-0.39059 0.2629,-0.62344 0.29294,-0.69855c0.07511,-0.22534 0.12769,-0.5333 0.15774,-0.92389c0.03005,-0.51077 0.05258,-0.81873 0.0676,-0.92389c0.21032,-0.88633 0.33801,-1.55484 0.38308,-2.00552c0.01502,-0.19529 0.01502,-0.54081 0,-1.03656c-0.01502,-0.45068 0,-0.7962 0.04507,-1.03656c0.03005,-0.18027 0.11267,-0.52579 0.24787,-1.03656c0.12018,-0.42063 0.18027,-0.76615 0.18027,-1.03656c0,-0.1352 -0.02253,-0.3981 -0.0676,-0.78869c-0.03005,-0.3305 -0.03005,-0.59339 0,-0.78869c0.03005,-0.15023 0.09765,-0.36805 0.20281,-0.65348c0.10516,-0.28543 0.16525,-0.50326 0.18027,-0.65348c0.04507,-0.27041 0.03756,-0.59339 -0.02253,-0.96896c-0.09014,-0.42063 -0.15023,-0.74362 -0.18027,-0.96896c-0.09014,-0.51077 -0.07511,-0.97647 0.04507,-1.3971l0.27041,-0.74362c0.18027,-0.6009 0.18027,-1.1943 0,-1.78018M250.21185,200.45575c-0.27041,5.3781 -0.57837,9.23891 -0.92389,11.58244c-0.09014,0.64597 -0.03756,1.08914 0.15774,1.3295c0.64597,-3.24489 1.14172,-7.25592 1.48724,-12.03312c0.27041,-4.14624 0.40561,-8.28497 0.40561,-12.41619c-0.49575,2.68905 -0.87131,6.53484 -1.1267,11.53737M228.57928,173.4601c1.50226,-1.5924 2.74914,-2.659 3.74063,-3.19982c0.54081,-0.30045 1.26941,-0.6009 2.18579,-0.90136c1.57737,-0.54081 2.99701,-0.91638 4.25891,-1.1267c3.24489,-0.51077 6.38461,-0.18027 9.41918,0.99149c0.10516,0.16525 0.32299,0.29294 0.65348,0.38308c0.73611,0.22534 1.78018,0.68353 3.13222,1.37457c0.90136,0.48072 1.56235,0.8638 1.98299,1.14923c1.17176,0.7962 2.39611,2.11068 3.67303,3.94344c0.91638,1.32199 1.50977,2.15575 1.78018,2.50127c0.54246,0.66422 1.09078,1.20504 1.64498,1.62244c0.2629,1.02089 0.48072,2.04243 0.65348,3.06461c-0.58095,0.37844 -1.44475,0.73147 -2.5914,1.05909c-7.54135,2.13321 -14.22642,2.92941 -20.0552,2.3886c-1.08163,-0.10516 -2.29846,-0.25538 -3.6505,-0.45068c-2.659,-0.37557 -4.67955,-0.70606 -6.06163,-0.99149c-2.22335,-0.4657 -4.1838,-1.02905 -5.88136,-1.69004c-0.28408,-0.11543 -0.50191,-0.23561 -0.65348,-0.36054c0.45168,-2.27405 0.96996,-4.37722 1.55484,-6.3095c-0.07347,0.02013 -0.14858,0.03515 -0.22534,0.04507c0.86222,-1.7864 2.01145,-3.36378 3.44769,-4.73212c0.85629,-0.84127 1.93041,-1.69004 3.22235,-2.54633c1.0294,-0.67901 2.05845,-1.27992 3.08715,-1.80271c-0.48747,0.36412 -1.13344,0.89743 -1.93792,1.59991c-1.78769,1.60742 -3.09466,2.87683 -3.9209,3.80823c-1.35204,1.50226 -2.35104,2.99701 -2.99701,4.48425c-0.31547,0.73611 -0.30045,1.25439 0.04507,1.55484l0.94642,-2.09566c0.34552,-0.7962 0.68353,-1.44217 1.01403,-1.93792c0.22534,-0.34552 0.73611,-0.95394 1.53231,-1.82525M238.1562,166.22671c-0.09377,0.01197 -0.19142,0.02699 -0.29294,0.04507c3.11901,-0.95458 6.02589,-1.08979 8.72063,-0.40561c1.65249,0.42063 3.29746,1.17928 4.93493,2.27593c1.33701,0.90136 2.75665,2.08063 4.25891,3.53783c1.24688,1.18679 2.17828,2.28344 2.79421,3.28995c0.42063,0.75113 0.73611,1.25439 0.94642,1.50977c0.13315,0.17751 0.32844,0.40285 0.58588,0.67602c0.21096,0.59457 0.40626,1.19547 0.58588,1.80271c-0.18315,-0.29194 -0.37093,-0.56986 -0.56335,-0.83376c-0.63095,-0.87131 -1.66751,-2.10317 -3.10968,-3.69556c-1.1267,-1.24688 -2.02054,-2.13321 -2.68154,-2.659c-0.37557,-0.31547 -0.91638,-0.70606 -1.62244,-1.17176c-0.96145,-0.661 -1.69756,-1.09665 -2.20832,-1.30697c-0.37557,-0.16525 -0.8638,-0.32299 -1.46471,-0.47321l-1.50977,-0.40561c-0.54081,-0.16525 -1.41964,-0.49575 -2.63647,-0.99149c-1.11167,-0.45068 -1.9905,-0.75864 -2.63647,-0.92389c-1.35204,-0.36054 -2.71909,-0.45068 -4.10117,-0.27041z" fill="#3359ff"/><path d="M254.96651,218.12235c0.10516,-0.01502 0.21783,-0.0676 0.33801,-0.15774l0.29294,-0.22534c0.48554,-0.16044 0.86861,-0.31066 1.14923,-0.45068c0.15739,-0.07816 0.34517,-0.18332 0.56335,-0.31547c-0.20257,0.00211 -0.41289,0.00211 -0.63095,0c0.2376,-0.15862 0.44792,-0.30884 0.63095,-0.45068c0.0429,0.00757 0.08045,0.00757 0.11267,0c0.36976,-0.18555 0.80541,-0.44094 1.30697,-0.76615l-0.0676,0.76615c0.08661,0.00863 0.16924,0.00863 0.24787,0v0.04507c-0.01502,0.09014 -0.02253,0.22534 -0.02253,0.40561c-0.10874,0.0027 -0.22141,0.0027 -0.33801,0l-2.74914,26.45483c-0.12505,1.30662 -0.30532,3.23702 -0.54081,5.79122c-0.24253,2.95406 -0.47538,8.80537 -0.69855,17.55393c-0.19705,7.12301 -0.59515,12.77151 -1.1943,16.94551c-0.14852,1.06596 -0.36635,2.56822 -0.65348,4.50679c-0.03703,0.01514 -0.06707,0.03767 -0.09014,0.0676c-0.97794,0.57379 -1.93187,1.25732 -2.86181,2.05059c-0.63576,0.55595 -1.10897,0.96156 -1.41964,1.21683c-0.55965,0.46288 -1.07042,0.8084 -1.53231,1.03656c-0.50355,0.26994 -1.24717,0.51781 -2.23086,0.74362l-3.6505,0.94642c-2.90118,0.76651 -5.07195,1.26225 -6.51231,1.48724c-0.98915,0.12558 -1.77783,0.17065 -2.36606,0.1352c-0.269,-0.00822 -0.60701,-0.04577 -1.01403,-0.11267c-0.55232,-0.06649 -0.89784,-0.10404 -1.03656,-0.11267c-0.4704,-0.04876 -1.31917,-0.09383 -2.54633,-0.1352c-1.08521,-0.02746 -1.93399,-0.10258 -2.54633,-0.22534c-0.88569,-0.13872 -1.85465,-0.40913 -2.90688,-0.81122c-0.61499,-0.25597 -1.53888,-0.66909 -2.77167,-1.23937c-1.48618,-0.70172 -2.61288,-1.25005 -3.38009,-1.64498c-1.21167,-0.66053 -2.27827,-1.31401 -3.19982,-1.96045c-0.12705,-0.0862 -0.23972,-0.16883 -0.33801,-0.24787l5.29547,-62.12604c0.38859,-4.53219 0.77918,-8.1902 1.17176,-10.97402c1.23238,1.34423 2.83229,2.35075 4.79973,3.01955c1.66381,0.55572 3.68436,0.86368 6.06163,0.92389c0.85582,0.03222 1.44921,0.11484 1.78018,0.24787c0.10234,0.03932 0.29764,0.14448 0.58588,0.31547c0.26231,0.12147 0.47263,0.19659 0.63095,0.22534c0.23267,0.04642 0.5181,0.04642 0.85629,0c0.19917,-0.01438 0.4846,-0.05193 0.85629,-0.11267c0.3011,-0.03116 0.67666,-0.02365 1.1267,0.02253c0.24101,0.01461 0.61657,0.04466 1.1267,0.09014c0.68723,0.03204 1.55854,-0.00552 2.61394,-0.11267c3.96134,-0.34012 6.9959,-0.73822 9.10371,-1.1943c1.33097,-0.27029 3.32147,-0.79608 5.97149,-1.57737c0.16073,-0.04131 0.31096,-0.08638 0.45068,-0.1352c0.0473,0.06009 0.12241,0.09014 0.22534,0.09014M242.86579,232.7694c-0.79831,-0.17341 -1.9175,-0.32363 -3.35756,-0.45068c-1.80876,-0.16067 -3.16831,-0.18321 -4.07864,-0.0676c-1.10058,0.12939 -2.5052,0.54252 -4.21384,1.23937c-1.7871,0.75788 -3.07154,1.5691 -3.8533,2.43366c-0.68887,0.72525 -1.26724,1.67168 -1.73511,2.83927c-0.30274,0.75436 -0.63324,1.8435 -0.99149,3.26742l-0.60842,2.3886c-0.44639,1.84966 -0.66422,3.20921 -0.65348,4.07864c-0.01473,0.06737 -0.01473,0.14999 0,0.24787c-0.02975,0.25163 -0.03726,0.4995 -0.02253,0.74362c-0.00839,1.39253 0.28455,2.39153 0.87882,2.99701c0.33226,0.33091 0.79045,0.58629 1.37457,0.76615c0.13919,0.10516 0.28942,0.21032 0.45068,0.31547c0.80788,0.57121 1.86697,1.08949 3.17728,1.55484c2.25451,0.83088 4.29007,1.28907 6.10669,1.37457c2.28708,0.09507 4.30011,-0.36312 6.03909,-1.37457c0.7266,-0.40491 1.46271,-0.96074 2.20832,-1.66751c2.24887,-2.11502 3.7962,-4.70642 4.64199,-7.77421c0.06408,-0.26671 0.13168,-0.52961 0.20281,-0.78869l0.31547,-0.56335c0.08861,0.63136 0.0811,1.23227 -0.02253,1.80271c0.36207,-0.11402 0.54234,-0.46705 0.54081,-1.05909c-0.00241,-0.32017 -0.00241,-0.56053 0,-0.72109c0.00475,-0.23326 0.04231,-0.43607 0.11267,-0.60842c0.23655,-0.32762 0.37926,-0.58301 0.42814,-0.76615c0.0774,-0.31976 -0.02776,-0.59768 -0.31547,-0.83376c-0.22745,-0.18919 -0.45279,-0.27933 -0.67602,-0.27041c0.01755,-1.21272 -0.12517,-2.39951 -0.42814,-3.56036c-0.1869,-0.83904 -0.45731,-1.57515 -0.81122,-2.20832c-0.38343,-0.72601 -0.94678,-1.3795 -1.69004,-1.96045c-0.80301,-0.61522 -1.80952,-1.07341 -3.01955,-1.37457M222.45005,265.98441c-0.14882,0.14289 -0.23895,0.31565 -0.27041,0.51828c-0.02846,0.21765 0.02412,0.39041 0.15774,0.51828c0.23672,-0.39698 0.61229,-0.61481 1.1267,-0.65348c0.49856,-0.03638 0.89666,0.12135 1.1943,0.47321c0.15574,0.16977 0.35855,0.44769 0.60842,0.83376c0.32087,0.34364 0.62133,0.41876 0.90136,0.22534l0.74362,-0.36054c1.24318,-0.59562 2.23467,-0.94865 2.97448,-1.05909c1.15821,-0.15568 2.23984,0.02459 3.24489,0.54081c0.12511,-0.23285 0.12511,-0.47321 0,-0.72109c-0.32932,0.03697 -0.74245,-0.03063 -1.23937,-0.20281c-0.62948,-0.18725 -1.05012,-0.29992 -1.2619,-0.33801c-0.49551,-0.03644 -1.23162,0.12881 -2.20832,0.49575l-2.81674,1.1267c-0.07828,-0.43137 -0.33367,-0.79191 -0.76615,-1.08163c-0.37234,-0.26237 -0.80048,-0.43513 -1.28443,-0.51828c-0.49991,-0.05193 -0.86797,0.01567 -1.10416,0.20281M226.14561,270.58133c1.04665,-0.38542 1.83534,-0.61076 2.36606,-0.67602c0.10381,-0.00751 0.47937,-0.03005 1.1267,-0.0676c0.45614,-0.0078 0.8317,-0.05287 1.1267,-0.1352c0.38208,-0.12863 0.9304,-0.39153 1.64498,-0.78869c0.72959,-0.30286 1.76616,-0.43806 3.10968,-0.40561c0.38912,-0.00088 0.59193,-0.11355 0.60842,-0.33801c-1.28696,-0.4772 -2.56388,-0.44716 -3.83077,0.09014c-0.84197,0.44575 -1.48794,0.72367 -1.93792,0.83376c-0.28825,0.06743 -0.70137,0.11249 -1.23937,0.1352c-0.59292,0.02265 -1.00605,0.0527 -1.23937,0.09014c-0.60525,0.15739 -1.05593,0.26254 -1.35204,0.31547c-0.51294,0.06655 -0.92606,-0.00106 -1.23937,-0.20281c-0.11032,0.05305 -0.14037,0.15821 -0.09014,0.31547c0.06437,0.17229 0.16202,0.28496 0.29294,0.33801c0.07282,0.049 0.20052,0.1166 0.38308,0.20281c0.13808,0.07529 0.22821,0.17294 0.27041,0.29294M234.59583,266.50269c-0.49727,0.03844 -0.77519,0.20369 -0.83376,0.49575c1.12511,0.40995 2.22176,0.33484 3.28995,-0.22534c0.0078,-0.00945 0.54862,-0.3775 1.62244,-1.10416c0.63201,-0.42709 1.19535,-0.65243 1.69004,-0.67602c0.25826,0.00769 0.44604,0.05276 0.56335,0.1352c0.08521,0.0835 0.19788,0.32387 0.33801,0.72109c0.10246,0.30785 0.26771,0.57825 0.49575,0.81122c-0.08198,0.00381 -0.14958,0.01884 -0.20281,0.04507c-0.12523,0.09019 -0.14776,0.18784 -0.0676,0.29294l0.78869,0.0676c0.03803,0.01508 0.08309,0.04513 0.1352,0.09014c0.54739,0.26947 1.12576,0.39716 1.73511,0.38308c0.07928,-0.01502 0.16942,-0.02253 0.27041,-0.02253c0.25151,-0.04513 0.49938,-0.09771 0.74362,-0.15774c0.1541,-0.06009 0.31184,-0.12018 0.47321,-0.18027c0.57808,-0.2825 1.06631,-0.71064 1.46471,-1.28443c0.38284,-0.57462 0.60067,-1.19054 0.65348,-1.84778c-0.36729,0.10222 -0.81797,0.38014 -1.35204,0.83376c-0.59668,0.5174 -1.04736,0.84039 -1.35204,0.96896c-0.31671,0.15733 -0.65472,0.23995 -1.01403,0.24787c-0.37592,0.02212 -0.72895,-0.03797 -1.05909,-0.18027c-0.18279,-0.06895 -0.70108,-0.39194 -1.55484,-0.96896c-0.61904,-0.39329 -1.16736,-0.55854 -1.64498,-0.49575c-0.37821,0.02705 -0.79884,0.22235 -1.2619,0.58588c-0.69468,0.53219 -1.08527,0.82513 -1.17176,0.87882c-0.3704,0.23244 -0.81357,0.39018 -1.3295,0.47321c-0.31143,0.0375 -0.78464,0.07505 -1.41964,0.11267M240.97294,281.14974c-0.48014,-0.05064 -1.12611,0.00194 -1.93792,0.15774c-4.4734,0.8513 -8.96516,0.80623 -13.47529,-0.1352c-0.13127,-0.02946 -0.26648,-0.02195 -0.40561,0.02253c-0.12529,0.04196 -0.17787,0.11707 -0.15774,0.22534c4.57509,1.14301 9.1645,1.3383 13.76823,0.58588c1.01596,-0.16402 1.66194,-0.25415 1.93792,-0.27041c0.73482,-0.05815 1.37328,-0.00557 1.91538,0.15774c-0.36289,-0.45819 -0.91122,-0.70606 -1.64498,-0.74362M238.359,279.6625c-0.68511,0.01344 -1.81932,-0.06167 -3.40262,-0.22534c-4.4525,-0.42597 -8.95929,-0.47855 -13.52036,-0.15774c-0.00868,-0.08186 -0.07629,-0.11942 -0.20281,-0.11267c-0.10745,0.00822 -0.16754,0.05328 -0.18027,0.1352c-0.06097,0.15463 -0.02341,0.34241 0.11267,0.56335l11.5599,0.58588c1.73106,0.10762 3.05305,0.14518 3.96597,0.11267c1.47351,-0.05862 2.77296,-0.25392 3.89837,-0.58588c0.29869,-0.07957 0.54657,-0.20727 0.74362,-0.38308c0.22904,-0.20674 0.31166,-0.42457 0.24787,-0.65348c-0.88986,0.43624 -1.96397,0.6766 -3.22235,0.72109M241.13067,282.43418c-1.40098,0.50913 -3.36143,0.74198 -5.88136,0.69855c-2.98663,-0.07236 -4.97712,-0.01978 -5.97149,0.15774c-0.23532,0.04577 -0.43812,0.1284 -0.60842,0.24787c-0.18397,0.14682 -0.24406,0.30456 -0.18027,0.47321c0.73752,-0.09641 1.63887,-0.14148 2.70407,-0.1352c0.59844,0.02277 1.4998,0.0453 2.70407,0.0676c2.03727,0.00763 4.07283,-0.17264 6.10669,-0.54081c0.66029,-0.1183 1.07341,-0.33613 1.23937,-0.65348l-0.11267,-0.31547M242.46018,276.80069c-1.74861,0.54193 -3.19829,0.88745 -4.34905,1.03656c-1.62062,0.19477 -3.07031,0.09712 -4.34905,-0.29294c-0.708,-0.2616 -1.2413,-0.44188 -1.59991,-0.54081c-0.63529,-0.19717 -1.19864,-0.26477 -1.69004,-0.20281c1.62596,0.66546 2.85782,1.12364 3.69556,1.37457c1.41042,0.4133 2.69486,0.59357 3.8533,0.54081c0.83622,-0.00628 1.98545,-0.18655 3.44769,-0.54081c3.20621,-0.77232 6.40603,-1.7563 9.59945,-2.95194c-1.27,-0.13943 -2.71968,-0.02676 -4.34905,0.33801c-0.72056,0.15369 -2.14019,0.56681 -4.25891,1.23937M232.65792,286.24241c2.30122,1.16678 4.79497,1.60243 7.48126,1.30697c2.68735,-0.29593 5.03088,-1.26489 7.03059,-2.90688c-0.55948,-0.22845 -1.22798,-0.24347 -2.00552,-0.04507c-0.26501,0.05264 -0.94854,0.293 -2.05059,0.72109c-2.19847,0.77983 -4.45937,0.96761 -6.78271,0.56335c-0.6458,-0.10739 -1.51711,-0.32522 -2.61394,-0.65348c-1.26055,-0.37645 -2.13186,-0.62432 -2.61394,-0.74362c-2.15956,-0.49962 -3.93223,-0.44704 -5.31801,0.15774c-0.16771,0.07206 -0.30292,0.17722 -0.40561,0.31547c-0.10234,0.17229 -0.10234,0.31501 0,0.42814c0.89226,-0.27575 1.57579,-0.44851 2.05059,-0.51828c0.78358,-0.1399 1.48213,-0.14741 2.09566,-0.02253c0.465,0.09618 0.9983,0.29899 1.59991,0.60842c0.34394,0.17851 0.8547,0.44141 1.53231,0.78869z" fill="#cccccc"/></g><path d="M264.07021,207.82434c0.21032,-0.10516 0.48072,0.00751 0.81122,0.33801l0.90136,0.94642c0.34552,0.37557 0.65348,0.63095 0.92389,0.76615c0.25538,0.1352 0.68353,0.2629 1.28443,0.38308c0.21032,0.07511 0.67602,0.30045 1.3971,0.67602c0.57086,0.30045 1.05158,0.4657 1.44217,0.49575c0.06009,0.07511 0.07511,0.18027 0.04507,0.31547c-0.04507,0.12018 -0.12018,0.21032 -0.22534,0.27041c-0.15023,0.06009 -0.38308,0.07511 -0.69855,0.04507l-0.99149,-0.1352c-0.16525,-0.03005 -0.28543,-0.0676 -0.36054,-0.11267c-0.10516,-0.1352 -0.18778,-0.23285 -0.24787,-0.29294c-0.12018,-0.12018 -0.30045,-0.20281 -0.54081,-0.24787c-0.37557,-0.07511 -0.57837,-0.12018 -0.60842,-0.1352c-0.27041,-0.07511 -0.6009,-0.30796 -0.99149,-0.69855l-1.84778,-1.87032c-0.28543,-0.28543 -0.38308,-0.5333 -0.29294,-0.74362M281.96215,188.26489c-0.01502,-0.40561 0.15774,-0.74362 0.51828,-1.01403c0.36054,-0.27041 0.75113,-0.38308 1.17176,-0.33801c0.64597,0.06009 1.3295,0.47321 2.05059,1.23937c1.33701,1.41213 2.21584,3.07213 2.63647,4.98c0.16525,0.72109 0.18027,1.29946 0.04507,1.73511c-0.1352,0.37557 -0.51828,0.8638 -1.14923,1.46471c-0.55584,0.54081 -1.02154,0.9314 -1.3971,1.17176c-0.55584,0.39059 -1.10416,0.62344 -1.64498,0.69855c-0.34552,0.03005 -0.6009,0.06009 -0.76615,0.09014c-0.28543,0.06009 -0.49575,0.17276 -0.63095,0.33801c-0.21032,0.27041 -0.21783,0.62344 -0.02253,1.05909l0.63095,1.10416c0.31547,0.55584 0.44317,1.18679 0.38308,1.89285c-0.06009,0.661 -0.2629,1.29195 -0.60842,1.89285c-0.4657,0.78118 -1.36706,1.73511 -2.70407,2.86181c-1.48724,0.36054 -2.9895,0.27041 -4.50679,-0.27041c-1.51728,-0.54081 -2.74163,-1.41964 -3.67303,-2.63647l0.74362,-0.51828c0.61593,0.75113 1.33701,1.35204 2.16326,1.80271c0.88633,0.45068 1.78769,0.68353 2.70407,0.69855c0.94642,0.01502 1.84027,-0.23285 2.68154,-0.74362c0.85629,-0.52579 1.46471,-1.21683 1.82525,-2.07312c0.36054,-0.87131 0.38308,-1.78769 0.0676,-2.74914c-0.3305,-0.99149 -0.91638,-1.69004 -1.75765,-2.09566c-0.27041,-0.12018 -0.47321,-0.21032 -0.60842,-0.27041c-0.25538,-0.12018 -0.44317,-0.24036 -0.56335,-0.36054c-0.18027,-0.15023 -0.28543,-0.34552 -0.31547,-0.58588c-0.04507,-0.25538 0.01502,-0.45068 0.18027,-0.58588c0.9314,0.21032 1.87032,0.20281 2.81674,-0.02253c0.94642,-0.22534 1.78018,-0.63846 2.50127,-1.23937c0.55584,-0.4657 0.87882,-0.9314 0.96896,-1.3971c0.10516,-0.55584 -0.09765,-1.23937 -0.60842,-2.05059c-0.61593,-0.96145 -1.32199,-1.81023 -2.11819,-2.54633c-0.3305,-0.31547 -0.55584,-0.54833 -0.67602,-0.69855c-0.21032,-0.28543 -0.32299,-0.56335 -0.33801,-0.83376M279.50595,144.09839c-0.06009,-0.51077 0.30796,-0.90887 1.10416,-1.1943c1.08163,-0.39059 1.7276,-0.69104 1.93792,-0.90136c0.27041,-0.61593 0.08262,-1.18679 -0.56335,-1.71258c-0.57086,-0.49575 -1.25439,-0.78118 -2.05059,-0.85629c-1.66751,-0.15023 -3.29746,0.12018 -4.88986,0.81122c-1.60742,0.69104 -2.9219,1.70507 -3.94344,3.04208c-0.09014,-0.84127 0.11267,-1.66 0.60842,-2.4562c0.4657,-0.73611 1.09665,-1.3295 1.89285,-1.78018c1.17176,-0.661 2.8543,-1.00652 5.0476,-1.03656c1.9229,-0.03005 3.37258,0.27792 4.34905,0.92389c0.64597,0.43566 1.10416,1.02154 1.37457,1.75765c0.28543,0.78118 0.25538,1.49475 -0.09014,2.14072c1.63747,0.72109 2.84679,1.28443 3.62796,1.69004c1.30697,0.70606 2.3886,1.47222 3.24489,2.29846c1.02154,0.96145 1.77267,2.06561 2.25339,3.31249c0.51077,1.33701 0.60842,2.62145 0.29294,3.8533c-0.30045,1.18679 -0.98398,2.29846 -2.05059,3.33502c-0.81122,0.7962 -1.90787,1.58489 -3.28995,2.36606c0.36054,0.69104 1.1943,1.41213 2.50127,2.16326c1.35204,0.81122 2.22335,1.50977 2.61394,2.09566c0.49575,0.76615 0.74362,1.84778 0.74362,3.24489c0.03005,2.95946 -0.69855,5.1152 -2.18579,6.46724c-1.24688,1.14172 -2.94443,1.63747 -5.09267,1.48724c-1.53231,-0.10516 -3.41765,-0.57086 -5.65602,-1.3971l-0.04507,-1.2619c1.36706,0.43566 2.39611,0.73611 3.08715,0.90136c1.17176,0.25538 2.23086,0.34552 3.17728,0.27041c1.11167,-0.09014 2.1257,-0.42814 3.04208,-1.01403c0.97647,-0.63095 1.61493,-1.43466 1.91538,-2.41113c0.45068,-1.45719 0.12018,-2.89937 -0.99149,-4.32651c-1.02154,-1.30697 -2.35855,-2.24588 -4.01104,-2.81674c-1.17176,-0.43566 -1.89285,-0.72109 -2.16326,-0.85629c-0.78118,-0.40561 -1.29195,-0.91638 -1.53231,-1.53231c-0.22534,-0.57086 -0.21032,-1.18679 0.04507,-1.84778c0.22534,-0.6009 0.60842,-1.11919 1.14923,-1.55484c0.45068,-0.36054 1.01403,-0.66851 1.69004,-0.92389c0.3305,-0.1352 0.94642,-0.3305 1.84778,-0.58588c2.1933,-0.661 3.46271,-1.59991 3.80823,-2.81674c0.36054,-1.18679 -0.06009,-2.47122 -1.2619,-3.8533c-1.14172,-1.33701 -2.53882,-2.36606 -4.19131,-3.08715c-1.65249,-0.72109 -3.35004,-1.04407 -5.09267,-0.96896c-1.41213,0.03005 -2.16326,-0.29294 -2.25339,-0.96896M244.44316,141.79993c0.40561,-0.03005 0.75864,0.07511 1.05909,0.31547l0.42814,0.31547c0.06009,0.04507 0.33801,0.15023 0.83376,0.31547c0.52579,0.1352 0.94642,0.41312 1.2619,0.83376c0.34552,0.43566 0.51828,1.09665 0.51828,1.98299c0,0.43566 -0.03756,0.9314 -0.11267,1.48724c-0.10516,0.54081 -0.30796,0.81122 -0.60842,0.81122c-0.16525,-0.3305 -0.24036,-0.84878 -0.22534,-1.55484c0.03005,-0.72109 -0.02253,-1.23937 -0.15774,-1.55484c-0.16525,-0.39059 -0.44317,-0.70606 -0.83376,-0.94642c-0.37557,-0.22534 -0.78869,-0.36054 -1.23937,-0.40561c-0.58588,-0.04507 -1.43466,0.08262 -2.54633,0.38308c-0.6009,0.16525 -0.96896,0.3981 -1.10416,0.69855l-1.10416,-0.22534c0.03005,-0.34552 0.19529,-0.661 0.49575,-0.94642c0.25538,-0.25538 0.57837,-0.45068 0.96896,-0.58588c0.1352,-0.04507 0.49575,-0.1352 1.08163,-0.27041c0.45068,-0.10516 0.80371,-0.21783 1.05909,-0.33801c0.21032,-0.10516 0.28543,-0.21032 0.22534,-0.31547M193.51648,197.90941c-0.06009,0.43566 -0.3981,0.71357 -1.01403,0.83376c-0.31547,0.04507 -0.55584,0.08262 -0.72109,0.11267c-0.27041,0.04507 -0.48824,0.11267 -0.65348,0.20281c-0.31547,0.24036 -0.56335,0.40561 -0.74362,0.49575c-0.27041,0.1352 -0.71357,0.15774 -1.3295,0.0676c-0.45068,-0.06009 -0.78118,-0.14271 -0.99149,-0.24787c-0.19529,-0.10516 -0.48072,-0.3981 -0.85629,-0.87882c-0.4657,-0.69104 -0.74362,-1.21683 -0.83376,-1.57737c-0.07511,-0.28543 -0.10516,-0.68353 -0.09014,-1.1943c0.03005,-0.63095 0.03756,-1.03656 0.02253,-1.21683c-0.03005,-0.39059 -0.02253,-0.661 0.02253,-0.81122c0.04507,-0.12018 0.1352,-0.21783 0.27041,-0.29294c0.15023,-0.06009 0.27792,-0.06009 0.38308,0c0.19529,0.37557 0.27041,1.02154 0.22534,1.93792c-0.04507,0.88633 0.04507,1.5248 0.27041,1.91538c0.24036,0.40561 0.63095,0.67602 1.17176,0.81122c0.48072,0.12018 0.99149,0.12769 1.53231,0.02253c0.30045,-0.06009 0.78118,-0.21032 1.44217,-0.45068c0.61593,-0.21032 1.09665,-0.34552 1.44217,-0.40561l0.45068,0.67602M183.37622,173.12209c-0.4657,0.18027 -0.69855,0.67602 -0.69855,1.48724c0.01502,0.55584 0.02253,0.85629 0.02253,0.90136c0,0.3305 -0.06009,0.6009 -0.18027,0.81122c-0.03005,0.04507 -0.18778,0.25538 -0.47321,0.63095c-0.28543,0.36054 -0.3981,0.72109 -0.33801,1.08163c0.06009,0.31547 0.30045,0.63846 0.72109,0.96896c0.52579,0.40561 0.84127,0.69104 0.94642,0.85629l-0.22534,0.45068c-0.4657,-0.3305 -0.96145,-0.57086 -1.48724,-0.72109c-0.24036,-0.06009 -0.41312,-0.14271 -0.51828,-0.24787c-0.10516,-0.12018 -0.17276,-0.31547 -0.20281,-0.58588c-0.12018,-1.18679 -0.03756,-2.02805 0.24787,-2.5238c0.27041,-0.34552 0.44317,-0.61593 0.51828,-0.81122c0.10516,-0.22534 0.1352,-0.59339 0.09014,-1.10416c-0.03005,-0.49575 0,-0.8638 0.09014,-1.10416c0.07511,-0.21032 0.21032,-0.39059 0.40561,-0.54081c0.19529,-0.1352 0.40561,-0.21032 0.63095,-0.22534l0.45068,0.67602M230.81013,148.87559c0.54081,0.82624 0.65348,1.38208 0.33801,1.66751l-1.35204,0.02253l0.42814,-1.35204c-1.24688,-2.01303 -2.51629,-3.37258 -3.80823,-4.07864c-1.21683,-0.69104 -2.59891,-0.96145 -4.14624,-0.81122c-1.47222,0.15023 -2.83176,0.63846 -4.07864,1.46471c-0.85629,0.57086 -1.5924,1.24688 -2.20832,2.02805c0.37557,0.30045 0.65348,0.63846 0.83376,1.01403c0.21032,0.42063 0.27041,0.83376 0.18027,1.23937c-0.10516,0.42063 -0.3981,0.71357 -0.87882,0.87882c-0.48072,0.16525 -0.85629,0.08262 -1.1267,-0.24787c0.24036,-0.97647 0.18778,-1.95294 -0.15774,-2.92941c-0.34552,-0.99149 -0.90887,-1.78769 -1.69004,-2.3886c-0.58588,-0.45068 -1.45719,-0.87131 -2.61394,-1.2619c-3.72561,-1.29195 -6.89538,-1.49475 -9.50932,-0.60842c-1.44217,0.49575 -2.67403,1.25439 -3.69556,2.27593c-0.63095,0.63095 -0.91638,1.20932 -0.85629,1.73511c0.01502,0.28543 0.14271,0.6009 0.38308,0.94642c0.15023,0.19529 0.36805,0.48072 0.65348,0.85629c0.36054,0.58588 0.48824,1.23937 0.38308,1.96045c-0.10516,0.73611 -0.42814,1.29946 -0.96896,1.69004c-0.55584,0.40561 -1.20181,0.49575 -1.93792,0.27041c-0.73611,-0.22534 -1.1943,-0.661 -1.37457,-1.30697c-0.40561,0.4657 -1.14172,0.90887 -2.20832,1.3295c-2.44869,1.03656 -4.2514,2.1257 -5.40814,3.26742c-1.42715,1.38208 -2.35104,3.07213 -2.77167,5.07013l0.47321,1.28443c0.58588,0.55584 1.66751,1.01403 3.24489,1.37457c1.60742,0.37557 2.70407,0.81122 3.28995,1.30697c-0.28543,0.6009 -0.90136,0.90136 -1.84778,0.90136c-0.96145,-0.01502 -1.94543,-0.36054 -2.95194,-1.03656c-0.67602,-0.45068 -1.50226,-1.17176 -2.47873,-2.16326c-0.51077,-0.48072 -0.81122,-0.92389 -0.90136,-1.3295c-0.07511,-0.39059 0.01502,-0.90887 0.27041,-1.55484c0.94642,-2.22335 2.36606,-4.14624 4.25891,-5.76869c1.89285,-1.63747 4.00353,-2.76416 6.33203,-3.38009c-0.25538,-0.96145 -0.25538,-1.93792 0,-2.92941c0.25538,-1.00652 0.7286,-1.8628 1.41964,-2.56887c0.51077,-0.54081 1.35204,-1.14923 2.5238,-1.82525c2.16326,-1.20181 4.01855,-1.89285 5.56588,-2.07312c0.9314,-0.10516 1.97547,-0.0676 3.13222,0.11267c0.76615,0.12018 1.7952,0.34552 3.08715,0.67602c0.99149,0.25538 1.7276,0.4657 2.20832,0.63095c0.7962,0.25538 1.48724,0.55584 2.07312,0.90136c0.9314,0.54081 1.72009,1.25439 2.36606,2.14072c1.36706,-1.74262 3.21484,-2.8543 5.54335,-3.33502c2.34353,-0.4657 4.48425,-0.15774 6.42217,0.92389c1.08163,0.6009 1.87032,1.33701 2.36606,2.20832c0.15023,0.27041 0.34552,0.73611 0.58588,1.3971c0.21032,0.61593 0.41312,1.07412 0.60842,1.37457z" fill="#937b50"/><path d="M217.15457,209.44678c0.34552,0 0.63846,0.0676 0.87882,0.20281c0.43566,0.22534 0.71357,0.60842 0.83376,1.14923c0.10516,0.52579 0.04507,1.02154 -0.18027,1.48724c-0.34552,0.70606 -1.06661,1.37457 -2.16326,2.00552c-0.67602,0.40561 -1.82525,1.01403 -3.44769,1.82525c-1.02154,0.51077 -1.77267,0.91638 -2.25339,1.21683c-0.91638,0.58588 -1.48724,0.9314 -1.71258,1.03656c-0.67602,0.31547 -1.29195,0.42063 -1.84778,0.31547c-0.48072,-0.09014 -1.00652,-0.39059 -1.57737,-0.90136c-0.81122,-0.72109 -1.29946,-1.13421 -1.46471,-1.23937c-0.97647,-0.43566 -1.69756,-0.77366 -2.16326,-1.01403c-0.84127,-0.40561 -1.34452,-0.90887 -1.50977,-1.50977c-0.10516,-0.36054 -0.08262,-0.73611 0.0676,-1.1267c0.1352,-0.37557 0.35303,-0.70606 0.65348,-0.99149c0.4657,-0.45068 1.14923,-0.81122 2.05059,-1.08163c1.62244,-0.51077 3.74814,-0.82624 6.3771,-0.94642c3.77068,-0.16525 5.93393,-0.28543 6.48977,-0.36054c0.45068,-0.04507 0.77366,-0.0676 0.96896,-0.0676M208.61422,196.82778l0.1352,0.36054c0.04507,0.07511 0.0676,0.15774 0.0676,0.24787l-0.11267,0.22534c-0.18027,0.30045 -0.42814,0.60842 -0.74362,0.92389l-0.24787,0.18027c-0.12018,0.06009 -0.2629,0.07511 -0.42814,0.04507l-0.18027,-0.02253c-0.09014,-0.03005 -0.16525,-0.10516 -0.22534,-0.22534l-0.56335,-0.81122c-0.09014,-0.15023 -0.1352,-0.2629 -0.1352,-0.33801c-0.01502,-0.03005 0,-0.12769 0.04507,-0.29294l0.27041,-0.60842c0.09014,-0.19529 0.18778,-0.31547 0.29294,-0.36054c0.06009,-0.03005 0.15774,-0.04507 0.29294,-0.04507h0.47321c0.16525,-0.03005 0.29294,-0.01502 0.38308,0.04507c0.07511,0.03005 0.15774,0.09014 0.24787,0.18027c0.21032,0.21032 0.35303,0.37557 0.42814,0.49575M208.88462,186.86779c0.01502,-0.42063 0.20281,-0.78118 0.56335,-1.08163c0.34552,-0.28543 0.7286,-0.3981 1.14923,-0.33801c0.22534,0.03005 0.47321,0.12018 0.74362,0.27041c0.15023,0.09014 0.37557,0.23285 0.67602,0.42814c0.88633,0.54081 1.85529,0.84878 2.90688,0.92389c0.10516,0.27041 0.03005,0.50326 -0.22534,0.69855c0.58588,0.04507 1.37457,0.37557 2.36606,0.99149c1.00652,0.63095 1.7952,0.96896 2.36606,1.01403c0.12018,0.22534 0.05258,0.43566 -0.20281,0.63095c-0.10516,0.09014 -0.33801,0.16525 -0.69855,0.22534c-0.61593,0.10516 -1.11167,0.1352 -1.48724,0.09014c-0.21032,-0.03005 -0.47321,-0.09014 -0.78869,-0.18027c-0.39059,-0.12018 -0.64597,-0.19529 -0.76615,-0.22534c-0.67602,-0.04507 -1.17928,-0.09014 -1.50977,-0.1352c-0.69104,-0.07511 -1.61493,-0.37557 -2.77167,-0.90136c-0.72109,-0.30045 -1.23937,-0.58588 -1.55484,-0.85629c-0.52579,-0.45068 -0.78118,-0.96896 -0.76615,-1.55484M230.35946,196.64751c0.67602,0.73611 1.02154,1.53231 1.03656,2.3886c0.01502,0.72109 -0.21783,1.38959 -0.69855,2.00552c-0.4657,0.6009 -1.04407,1.00652 -1.73511,1.21683c-0.75113,0.22534 -1.64498,0.22534 -2.68154,0c-1.20181,-0.34552 -2.09566,-0.6009 -2.68154,-0.76615c-0.99149,-0.25538 -1.5924,-0.42063 -1.80271,-0.49575c-0.64597,-0.25538 -1.13421,-0.58588 -1.46471,-0.99149c-0.58588,-0.73611 -0.76615,-1.83276 -0.54081,-3.28995c0.10516,-0.85629 0.3305,-1.53231 0.67602,-2.02805c0.27041,-0.37557 0.61593,-0.67602 1.03656,-0.90136c0.42063,-0.21032 0.8638,-0.31547 1.3295,-0.31547c0.6009,0.27041 1.47222,0.55584 2.61394,0.85629c1.23185,0.3305 2.10317,0.59339 2.61394,0.78869c0.9314,0.37557 1.69756,0.88633 2.29846,1.53231M220.76,165.61829c0.31547,0.31547 0.50326,0.55584 0.56335,0.72109c0.1352,0.36054 0.0676,0.85629 -0.20281,1.48724c-0.06009,0.15023 -0.12769,0.2629 -0.20281,0.33801c-0.03005,0.03005 -0.10516,0.07511 -0.22534,0.1352l-0.58588,0.27041l-0.22534,-0.0676l-0.87882,-0.38308c-0.07511,-0.07511 -0.12769,-0.17276 -0.15774,-0.29294c-0.18027,-0.70606 -0.08262,-1.38208 0.29294,-2.02805c0.09014,-0.16525 0.19529,-0.27041 0.31547,-0.31547c0.09014,-0.03005 0.19529,-0.04507 0.31547,-0.04507c0.07511,0 0.18778,0.00751 0.33801,0.02253c0.18027,-0.03005 0.31547,-0.03005 0.40561,0c0.04507,0.01502 0.12769,0.0676 0.24787,0.15774M220.15159,155.16255c0.18027,0.21032 0.29294,0.38308 0.33801,0.51828c0.06009,0.15023 0.09014,0.38308 0.09014,0.69855c-0.03005,0.67602 -0.11267,1.14172 -0.24787,1.3971h-0.45068c-0.03005,-0.06009 -0.0676,-0.18027 -0.11267,-0.36054c-0.04507,-0.15023 -0.10516,-0.2629 -0.18027,-0.33801l-0.24787,-0.11267c-0.27041,-0.09014 -0.4657,-0.17276 -0.58588,-0.24787c-0.36054,-0.16525 -0.56335,-0.40561 -0.60842,-0.72109c-0.01502,-0.1352 0.02253,-0.32299 0.11267,-0.56335l0.15774,-0.49575l0.11267,-0.24787c0.07511,-0.09014 0.21783,-0.16525 0.42814,-0.22534c0.21032,-0.06009 0.36805,-0.07511 0.47321,-0.04507c0.04507,0.01502 0.1352,0.09014 0.27041,0.22534l0.45068,0.51828M235.31692,138.1269c0.42063,0 0.75864,0.15023 1.01403,0.45068c0.09014,0.10516 0.21783,0.33801 0.38308,0.69855c0.21032,0.58588 0.27041,1.03656 0.18027,1.35204c-0.03005,0.10516 -0.1352,0.30045 -0.31547,0.58588c-0.12018,0.15023 -0.21783,0.24787 -0.29294,0.29294c-0.07511,0.06009 -0.18027,0.09014 -0.31547,0.09014c-0.94642,0.18027 -1.65249,0.16525 -2.11819,-0.04507c0.04507,-0.16525 0.03005,-0.3981 -0.04507,-0.69855c-0.07511,-0.3305 -0.11267,-0.56335 -0.11267,-0.69855c0,-0.15023 0.04507,-0.34552 0.1352,-0.58588c0.1352,-0.4657 0.30045,-0.81122 0.49575,-1.03656c0.30045,-0.27041 0.63095,-0.40561 0.99149,-0.40561M203.49901,157.07794c1.05158,0.06009 1.87783,0.18027 2.47873,0.36054c0.90136,0.27041 1.55484,0.70606 1.96045,1.30697c0.36054,0.51077 0.57837,1.23937 0.65348,2.18579c0.04507,0.43566 0.08262,0.81873 0.11267,1.14923c0.52579,0.1352 0.96145,0.29294 1.30697,0.47321c0.57086,0.27041 1.05158,0.63095 1.44217,1.08163c0.42063,0.4657 0.68353,0.98398 0.78869,1.55484c0.10516,0.54081 0.05258,1.08163 -0.15774,1.62244c-0.12018,0.30045 -0.27792,0.57086 -0.47321,0.81122c0.15023,0.1352 0.28543,0.27041 0.40561,0.40561c0.52579,0.58588 0.84878,1.27692 0.96896,2.07312c0.1352,0.81122 0.02253,1.54733 -0.33801,2.20832c-0.37557,0.67602 -0.96145,1.14172 -1.75765,1.3971c-0.55584,0.18027 -1.06661,0.21783 -1.53231,0.11267c-0.03005,0.24036 -0.03005,0.43566 0,0.58588c0.04507,0.25538 0.16525,0.55584 0.36054,0.90136c0.27041,0.48072 0.42063,0.76615 0.45068,0.85629c0.3305,0.73611 0.33801,1.50977 0.02253,2.32099c-0.30045,0.7962 -0.81122,1.36706 -1.53231,1.71258c-0.54081,0.25538 -1.5248,0.38308 -2.95194,0.38308c-1.30697,0.01502 -2.24588,0.22534 -2.81674,0.63095c-0.31547,-0.85629 -1.1267,-1.45719 -2.43366,-1.80271c-0.69104,-0.1352 -1.20181,-0.24787 -1.53231,-0.33801c-0.6009,-0.15023 -1.08914,-0.34552 -1.46471,-0.58588c-0.4657,-0.30045 -0.83376,-0.69855 -1.10416,-1.1943c-0.27041,-0.51077 -0.39059,-1.03656 -0.36054,-1.57737c0.03005,-0.55584 0.21783,-1.06661 0.56335,-1.53231c0.34552,-0.4657 0.77366,-0.78118 1.28443,-0.94642c0.3305,-0.10516 0.84878,-0.19529 1.55484,-0.27041c0.45068,-0.09014 0.80371,-0.23285 1.05909,-0.42814c-0.81122,-0.1352 -1.63747,-0.15023 -2.47873,-0.04507c-0.21032,-0.42063 -0.27792,-0.88633 -0.20281,-1.3971c0.06009,-0.4657 0.21783,-0.91638 0.47321,-1.35204c0.34552,-0.58588 1.00652,-1.27692 1.98299,-2.07312c0.31547,-0.27041 0.61593,-0.51077 0.90136,-0.72109l-0.65348,-0.18027c-0.37557,0.06009 -0.75864,0.02253 -1.14923,-0.11267c-0.34552,-0.10516 -0.63846,-0.25538 -0.87882,-0.45068l-2.3886,-0.67602c-0.39059,-0.12018 -0.72109,-0.23285 -0.99149,-0.33801c-0.16525,0.10516 -0.36054,0.20281 -0.58588,0.29294c-0.72109,0.30045 -1.18679,0.58588 -1.3971,0.85629c-0.40561,0.55584 -0.30045,1.47973 0.31547,2.77167c0.63095,1.35204 0.78869,2.31348 0.47321,2.88434c-0.12018,0.21032 -0.28543,0.37557 -0.49575,0.49575c-0.10516,0.04507 -0.21032,0.07511 -0.31547,0.09014c0.03005,0.03005 0.0676,0.05258 0.11267,0.0676c0.27041,0.16525 0.38308,0.31547 0.33801,0.45068c0.75113,-0.09014 1.42715,-0.31547 2.02805,-0.67602l0.45068,0.67602c-0.48072,0.25538 -0.8638,0.63095 -1.14923,1.1267l-1.62244,-0.18027c-0.1352,0 -0.25538,-0.03005 -0.36054,-0.09014c-0.04507,-0.03005 -0.15023,-0.16525 -0.31547,-0.40561c-0.28543,-0.31547 -0.49575,-0.54833 -0.63095,-0.69855c-0.25538,-0.31547 -0.31547,-0.60842 -0.18027,-0.87882l0.29294,-0.1352c-0.03005,-0.06009 -0.06009,-0.12018 -0.09014,-0.18027l-1.01403,-2.07312c-0.34552,-0.75113 -0.50326,-1.31448 -0.47321,-1.69004c0.01502,-0.4657 0.23285,-0.97647 0.65348,-1.53231c0.67602,-0.96145 1.47973,-1.76516 2.41113,-2.41113c-0.28543,-0.55584 -0.25538,-1.17176 0.09014,-1.84778c0.3305,-0.67602 0.83376,-1.16425 1.50977,-1.46471c0.1352,-0.06009 0.27792,-0.10516 0.42814,-0.1352c0.04507,-0.18027 0.10516,-0.35303 0.18027,-0.51828c0.40561,-0.96145 1.06661,-1.68253 1.98299,-2.16326c0.76615,-0.40561 1.69756,-0.65348 2.79421,-0.74362c0.661,-0.06009 1.66,-0.06009 2.99701,0M263.82234,183.57783c0.04507,0.04507 0.21032,0.24036 0.49575,0.58588c0.19529,0.22534 0.37557,0.39059 0.54081,0.49575c0.1352,0.07511 0.34552,0.17276 0.63095,0.29294c0.28543,0.09014 0.49575,0.18027 0.63095,0.27041l0.49575,0.42814c0.30045,0.22534 0.80371,0.3981 1.50977,0.51828c0.06009,0.10516 0.0676,0.21783 0.02253,0.33801c-0.04507,0.12018 -0.12769,0.21032 -0.24787,0.27041c-0.16525,0.09014 -0.40561,0.10516 -0.72109,0.04507c-0.58588,-0.06009 -1.01403,-0.15774 -1.28443,-0.29294c-0.21032,-0.10516 -0.48072,-0.30796 -0.81122,-0.60842c-0.3305,-0.31547 -0.59339,-0.52579 -0.78869,-0.63095c0.18027,0.43566 0.50326,0.90887 0.96896,1.41964c0.27041,0.28543 0.66851,0.70606 1.1943,1.2619c0.42063,0.49575 0.70606,1.00652 0.85629,1.53231c0.19529,0.61593 0.16525,1.16425 -0.09014,1.64498h-0.45068c-0.09014,-0.69104 -0.51077,-1.36706 -1.2619,-2.02805c-0.40561,-0.34552 -0.70606,-0.61593 -0.90136,-0.81122c-0.36054,-0.31547 -0.63846,-0.60842 -0.83376,-0.87882c-0.21032,-0.28543 -0.51077,-0.89385 -0.90136,-1.82525c-0.3305,-0.7962 -0.68353,-1.36706 -1.05909,-1.71258c0.15023,-0.19529 0.22534,-0.42063 0.22534,-0.67602c0.10516,0.03005 0.21032,0.03756 0.31547,0.02253c0.12018,-0.03005 0.17276,-0.09014 0.15774,-0.18027c0.42063,-0.1352 0.85629,0.03756 1.30697,0.51828M278.98767,206.85538c-0.48072,0.6009 -1.28443,0.87131 -2.41113,0.81122c-0.1352,-0.01502 -0.43566,-0.04507 -0.90136,-0.09014c0.61593,0.19529 1.14172,0.49575 1.57737,0.90136c0.42063,0.42063 0.661,0.84878 0.72109,1.28443c0.03005,0.24036 -0.00751,0.48072 -0.11267,0.72109c-0.10516,0.25538 -0.2629,0.43566 -0.47321,0.54081c-0.24036,0.12018 -0.63095,0.15023 -1.17176,0.09014c-1.62244,-0.16525 -3.19982,-0.20281 -4.73212,-0.11267c-0.48072,0.03005 -0.84878,0.02253 -1.10416,-0.02253c-0.40561,-0.07511 -0.69855,-0.24787 -0.87882,-0.51828c-0.24036,-0.3305 -0.27792,-0.7286 -0.11267,-1.1943c0.1352,-0.3305 0.37557,-0.66851 0.72109,-1.01403c0.43566,-0.4657 0.87131,-0.7286 1.30697,-0.78869c0.36054,0 0.54081,-0.09014 0.54081,-0.27041c0.78118,-0.01502 1.45719,0 2.02805,0.04507c0.03005,-0.22534 0.15023,-0.41312 0.36054,-0.56335c0.24036,-0.19529 0.49575,-0.2629 0.76615,-0.20281c-0.55584,-0.31547 -1.35204,-0.51077 -2.3886,-0.58588c-1.41213,-0.09014 -2.2609,-0.16525 -2.54633,-0.22534c-0.58588,-0.1352 -1.35204,-0.44317 -2.29846,-0.92389c-1.06661,-0.52579 -1.82525,-0.8638 -2.27593,-1.01403c-0.9314,-0.25538 -1.61493,-0.4657 -2.05059,-0.63095c-0.75113,-0.30045 -1.25439,-0.72109 -1.50977,-1.2619c-0.24036,-0.49575 -0.24787,-1.03656 -0.02253,-1.62244c0.21032,-0.54081 0.56335,-0.99149 1.05909,-1.35204c0.63095,-0.45068 1.70507,-0.7962 3.22235,-1.03656l3.76317,-0.60842c1.53231,-0.24036 2.67403,-0.28543 3.42516,-0.1352c0.6009,0.1352 1.11919,0.38308 1.55484,0.74362c0.49575,0.39059 0.81122,0.85629 0.94642,1.3971c0.06009,0.22534 0.08262,0.75113 0.0676,1.57737c0,0.64597 0.11267,1.13421 0.33801,1.46471c0.15023,0.21032 0.3981,0.41312 0.74362,0.60842c0.18027,0.12018 0.4657,0.28543 0.85629,0.49575c0.6009,0.37557 1.01403,0.91638 1.23937,1.62244c0.24036,0.72109 0.15774,1.34452 -0.24787,1.87032M242.79818,161.83259c-0.15023,0.43566 -0.44317,0.80371 -0.87882,1.10416c-0.39059,0.27041 -0.84127,0.45068 -1.35204,0.54081c-0.42063,0.07511 -0.90887,0.09765 -1.46471,0.0676c-0.19529,-0.01502 -0.68353,-0.0676 -1.46471,-0.15774c-2.28344,-0.21032 -4.49927,-0.08262 -6.64751,0.38308c-1.21683,0.31547 -2.13321,0.5333 -2.74914,0.65348c-1.06661,0.21032 -1.99801,0.27041 -2.79421,0.18027c-0.4657,-0.06009 -0.85629,-0.19529 -1.17176,-0.40561c-0.39059,-0.25538 -0.59339,-0.57086 -0.60842,-0.94642c-0.01502,-0.51077 0.30796,-1.00652 0.96896,-1.48724c0.22534,-0.16525 0.45819,-0.32299 0.69855,-0.47321c-0.03005,-0.15023 -0.05258,-0.32299 -0.0676,-0.51828c0,-0.52579 0.0676,-0.90136 0.20281,-1.1267c0.07511,-0.12018 0.16525,-0.20281 0.27041,-0.24787c0.06009,-0.03005 0.16525,-0.04507 0.31547,-0.04507l0.76615,0.02253c0.07511,0.03005 0.15774,0.12769 0.24787,0.29294c0.09014,0.1352 0.25538,0.33801 0.49575,0.60842c0.85629,-0.27041 1.76516,-0.42063 2.72661,-0.45068c-0.36054,-0.69104 -0.65348,-1.1943 -0.87882,-1.50977c-0.36054,-0.52579 -0.75864,-0.9314 -1.1943,-1.21683c-0.49575,-0.34552 -1.04407,-0.50326 -1.64498,-0.47321c-0.64597,0.03005 -1.14172,0.2629 -1.48724,0.69855c-0.18027,0.24036 -0.32299,0.57086 -0.42814,0.99149c-0.06009,0.24036 -0.1352,0.60842 -0.22534,1.10416c-0.19529,0.73611 -0.58588,1.47973 -1.17176,2.23086c-0.37557,0.48072 -0.96896,1.11167 -1.78018,1.89285c-0.69104,0.661 -1.1943,1.11919 -1.50977,1.37457c-0.6009,0.48072 -1.17176,0.84878 -1.71258,1.10416c-0.661,0.31547 -1.32199,0.48072 -1.98299,0.49575c-0.73611,0.03005 -1.38208,-0.12018 -1.93792,-0.45068c-0.61593,-0.36054 -1.02905,-0.88633 -1.23937,-1.57737c-0.22534,-0.73611 -0.15023,-1.38208 0.22534,-1.93792c0.28543,-0.42063 0.74362,-0.75864 1.37457,-1.01403c0.36054,-0.15023 0.9314,-0.34552 1.71258,-0.58588c1.56235,-0.52579 2.89937,-1.42715 4.01104,-2.70407c0.37557,-0.42063 0.88633,-1.10416 1.53231,-2.05059c0.61593,-0.81122 1.20932,-1.40461 1.78018,-1.78018c0.9314,-0.6009 2.05059,-0.85629 3.35756,-0.76615c1.11167,0.07511 2.27593,0.38308 3.49276,0.92389c0.25538,0.10516 1.31448,0.65348 3.17728,1.64498c1.27692,0.661 2.36606,1.11167 3.26742,1.35204c0.04507,0.01502 0.71357,0.15023 2.00552,0.40561c0.81122,0.15023 1.45719,0.34552 1.93792,0.58588c0.661,0.31547 1.17176,0.77366 1.53231,1.37457c0.40561,0.64597 0.50326,1.27692 0.29294,1.89285M262.51537,154.464c0.78118,0.06009 1.3295,0.12018 1.64498,0.18027c0.07511,0.01502 0.15023,0.03005 0.22534,0.04507c0.24036,-0.37557 0.59339,-0.7962 1.05909,-1.2619c0.48072,-0.48072 0.88633,-0.83376 1.21683,-1.05909c0.49575,-0.3305 0.97647,-0.50326 1.44217,-0.51828c0.27041,0 0.57086,0.03756 0.90136,0.11267c0.40561,0.10516 1.00652,0.28543 1.80271,0.54081c0.72109,0.19529 1.3295,0.30045 1.82525,0.31547l0.45068,1.35204c-0.15023,0.09014 -0.34552,0.07511 -0.58588,-0.04507c-0.40561,-0.22534 -0.61593,-0.33801 -0.63095,-0.33801c-0.06009,-0.01502 -0.25538,-0.02253 -0.58588,-0.02253l-1.01403,0.11267c-0.21032,0 -0.3981,0.03005 -0.56335,0.09014c-0.21032,0.09014 -0.45068,0.27792 -0.72109,0.56335l-1.3971,1.41964c0.1352,0.03005 0.28543,0.05258 0.45068,0.0676c0.3305,0.04507 0.81122,0.10516 1.44217,0.18027c0.73611,0.15023 1.29946,0.3981 1.69004,0.74362c0.40561,-0.30045 0.88633,-0.57837 1.44217,-0.83376c0.40561,-0.18027 1.00652,-0.45819 1.80271,-0.83376c0.67602,-0.36054 1.20932,-0.74362 1.59991,-1.14923c0.03005,0.01502 0.06009,0.03005 0.09014,0.04507c0.19529,-0.31547 0.42063,-0.61593 0.67602,-0.90136c1.18679,-1.27692 2.74163,-2.16326 4.66452,-2.659c1.75765,-0.45068 3.59792,-0.5333 5.52081,-0.24787c1.9229,0.28543 3.44018,0.88633 4.55185,1.80271c0.661,0.54081 1.15674,1.18679 1.48724,1.93792c0.36054,0.81122 0.47321,1.61493 0.33801,2.41113c-0.16525,1.00652 -0.71357,1.9229 -1.64498,2.74914c-0.30045,0.25538 -0.49575,0.43566 -0.58588,0.54081c-0.09014,0.09014 -0.15774,0.18778 -0.20281,0.29294c0.36054,0.49575 0.62344,0.98398 0.78869,1.46471c0.06009,0.19529 0.11267,0.3981 0.15774,0.60842c0.94642,0.82624 1.58489,1.87783 1.91538,3.15475c0.22534,0.97647 0.12769,1.7276 -0.29294,2.25339c-0.25538,0.31547 -0.68353,0.57086 -1.28443,0.76615c-0.15023,0.06009 -0.30045,0.11267 -0.45068,0.15774c0.04507,0.21032 0.00751,0.45068 -0.11267,0.72109c-0.12018,0.25538 -0.36054,0.54833 -0.72109,0.87882c-0.34552,0.31547 -0.62344,0.51828 -0.83376,0.60842c-0.39059,0.12018 -0.68353,0.21032 -0.87882,0.27041c-0.31547,0.12018 -0.50326,0.29294 -0.56335,0.51828c-0.7962,0 -1.38959,-0.01502 -1.78018,-0.04507c-0.661,-0.03005 -1.25439,-0.11267 -1.78018,-0.24787c-0.42063,-0.12018 -0.73611,-0.22534 -0.94642,-0.31547c-0.51077,-0.24036 -0.87882,-0.51828 -1.10416,-0.83376c-0.07511,-0.10516 -0.18778,-0.31547 -0.33801,-0.63095c-0.12018,-0.27041 -0.24036,-0.47321 -0.36054,-0.60842c-0.21032,-0.22534 -0.3305,-0.36054 -0.36054,-0.40561c-0.07511,-0.12018 -0.11267,-0.23285 -0.11267,-0.33801c-0.28543,0.10516 -0.62344,0.15774 -1.01403,0.15774c-0.06009,0 -0.57086,-0.04507 -1.53231,-0.1352c-0.72109,-0.03005 -1.2619,-0.05258 -1.62244,-0.0676c-0.63095,-0.04507 -1.15674,-0.14271 -1.57737,-0.29294c-0.52579,-0.19529 -0.94642,-0.54081 -1.2619,-1.03656c-0.31547,-0.51077 -0.37557,-1.00652 -0.18027,-1.48724l1.35204,-0.22534c-0.19529,-0.27041 -0.48072,-0.51828 -0.85629,-0.74362c-0.4657,-0.22534 -0.81122,-0.40561 -1.03656,-0.54081c-0.91638,-0.49575 -1.37457,-1.06661 -1.37457,-1.71258c0.01502,-0.45068 0.23285,-0.81873 0.65348,-1.10416c0.39059,-0.28543 0.82624,-0.41312 1.30697,-0.38308c0.12018,0 0.22534,-0.02253 0.31547,-0.0676c0.10516,-0.06009 0.1352,-0.12769 0.09014,-0.20281c0.06009,0.01502 0.12769,0.03005 0.20281,0.04507c-0.01502,-0.01502 -0.02253,-0.03005 -0.02253,-0.04507c-0.21032,-0.73611 -0.10516,-1.45719 0.31547,-2.16326c-0.15023,-0.28543 -0.24036,-0.6009 -0.27041,-0.94642c-0.22534,0.18027 -0.50326,0.34552 -0.83376,0.49575c-0.16525,0.07511 -0.52579,0.21783 -1.08163,0.42814c-0.94642,0.34552 -1.5924,0.76615 -1.93792,1.2619c-0.22534,0.3305 -0.31547,0.70606 -0.27041,1.1267c0.04507,0.43566 0.22534,0.74362 0.54081,0.92389c-0.63095,0.15023 -1.16425,-0.09765 -1.59991,-0.74362c-0.42063,-0.61593 -0.5333,-1.24688 -0.33801,-1.89285c0.12018,-0.40561 0.3305,-0.78118 0.63095,-1.1267c-0.21032,-0.07511 -0.38308,-0.1352 -0.51828,-0.18027c-0.31547,-0.09014 -0.69855,-0.15023 -1.14923,-0.18027l-2.29846,-0.15774l-0.09014,0.0676c-0.661,0.661 -1.20932,1.02905 -1.64498,1.10416c-0.28543,-0.39059 -0.48824,-0.78118 -0.60842,-1.17176c-0.10516,0.01502 -0.19529,0.03756 -0.27041,0.0676c-0.19529,0.07511 -0.4657,0.22534 -0.81122,0.45068c-0.36054,0.22534 -0.63846,0.37557 -0.83376,0.45068c-0.31547,0.12018 -0.63846,0.15023 -0.96896,0.09014c-0.34552,-0.04507 -0.63846,-0.17276 -0.87882,-0.38308c-0.25538,-0.21032 -0.42814,-0.48824 -0.51828,-0.83376c-0.09014,-0.36054 -0.06009,-0.68353 0.09014,-0.96896c0.18027,-0.3305 0.48072,-0.61593 0.90136,-0.85629c0.55584,-0.31547 1.11167,-0.52579 1.66751,-0.63095M283.69726,154.41893c-0.37557,0.30045 -0.90136,0.5333 -1.57737,0.69855c-0.7962,0.1352 -1.38208,0.24787 -1.75765,0.33801c-0.52579,0.12018 -1.02905,0.31547 -1.50977,0.58588c0.40561,0.24036 0.76615,0.39059 1.08163,0.45068c0.49575,0.09014 1.13421,-0.00751 1.91538,-0.29294c0.97647,-0.34552 1.62244,-0.54081 1.93792,-0.58588c0.76615,-0.10516 1.57737,0.0676 2.43366,0.51828c0.22534,-0.19529 0.42063,-0.3981 0.58588,-0.60842l-3.10968,-1.10416M291.58414,163.95078c-0.34552,0.82624 -0.90136,1.30697 -1.66751,1.44217c0.40561,0.39059 0.48072,0.89385 0.22534,1.50977c-0.01502,0.03005 -0.03005,0.0676 -0.04507,0.11267l2.41113,-0.65348c0.07511,-0.67602 -0.03756,-1.33701 -0.33801,-1.98299c-0.1352,-0.27041 -0.28543,-0.51828 -0.45068,-0.74362c-0.04507,0.10516 -0.09014,0.21032 -0.1352,0.31547M282.48043,167.71395c0.39059,0.04507 0.72109,0.33801 0.99149,0.87882c0.07511,0.16525 0.17276,0.40561 0.29294,0.72109c0.1352,0.28543 0.28543,0.50326 0.45068,0.65348c0.22534,0.21032 0.54081,0.33801 0.94642,0.38308c0.24036,0.03005 0.6009,0.03005 1.08163,0c0.82624,-0.10516 1.35955,-0.18778 1.59991,-0.24787c0.30045,-0.07511 0.84878,-0.29294 1.64498,-0.65348c0.34552,-0.15023 0.55584,-0.3305 0.63095,-0.54081c0,-0.01162 0,-0.01913 0,-0.02253c-1.21988,0.17968 -2.46676,0.14964 -3.74063,-0.09014l-0.24787,-0.74362l0.54081,-0.1352c-0.31547,-0.10516 -0.66851,-0.24787 -1.05909,-0.42814c-0.85629,-0.40561 -1.69004,-0.81873 -2.50127,-1.23937c-0.01502,0.19529 -0.05258,0.3981 -0.11267,0.60842c-0.12018,0.34552 -0.29294,0.63095 -0.51828,0.85629z" fill="#937b50"/></g></g></svg>