<svg version="1.1" xmlns="http://www.w3.org/2000/svg" xmlns:xlink="http://www.w3.org/1999/xlink" width="284.87778" height="270.96667" viewBox="0,0,284.87778,270.96667"><g transform="translate(-97.56111,-44.51667)"><g data-paper-data="{&quot;isPaintingLayer&quot;:true}" fill-rule="nonzero" stroke="none" stroke-width="1" stroke-linecap="butt" stroke-linejoin="miter" stroke-miterlimit="10" stroke-dasharray="" stroke-dashoffset="0" style="mix-blend-mode: normal"><path d="M114.71667,79.01667c0.22448,-0.14557 0.47448,-0.31224 0.75,-0.5c6.93268,-5.14701 15.06602,-9.31367 24.4,-12.5c7.64193,-2.63112 16.40859,-4.66445 26.3,-6.1c10.26068,-1.47214 22.07734,-2.45547 35.45,-2.95c3.47201,-0.13229 15.25534,-0.34896 35.35,-0.65c8.75885,-0.17187 15.74219,-0.43854 20.95,-0.8c0.23307,-0.03112 0.48307,-0.04779 0.75,-0.05c4.90443,-0.39922 9.50443,-0.94922 13.8,-1.65c2.23424,-0.35078 4.40091,-0.73411 6.5,-1.15c9.02852,-1.87799 17.22852,-4.59466 24.6,-8.15c-0.84961,1.47878 -1.73294,3.16211 -2.65,5.05l-2,4.2c-0.11693,0.26888 -0.23359,0.51888 -0.35,0.75c-0.08372,0.02734 -0.16706,0.07734 -0.25,0.15c-3.70104,1.94023 -7.91771,3.57357 -12.65,4.9c-3.35482,0.96354 -7.53815,1.91354 -12.55,2.85c-0.1,0.0082 -0.2,0.0082 -0.3,0c-0.13359,0.03568 -0.25026,0.06901 -0.35,0.1c-8.75872,1.63112 -18.65872,3.06445 -29.7,4.3c-5.53398,0.62435 -13.93398,1.45768 -25.2,2.5c-0.03333,-0.02513 -0.06667,-0.02513 -0.1,0c-0.03333,-0.01667 -0.06667,-0.01667 -0.1,0c-1.38255,0.1099 -2.81589,0.24323 -4.3,0.4c-7.98151,0.78698 -13.76484,1.40365 -17.35,1.85c-6.45977,0.79922 -12.2431,1.78255 -17.35,2.95c-6.08503,1.40404 -16.11836,4.45404 -30.1,9.15c-12.77344,4.3332 -22.77344,7.1832 -30,8.55c-0.05052,-0.02878 -0.08385,-0.02878 -0.1,0c-0.41719,0.06276 -0.81719,0.11276 -1.2,0.15c-3.43268,0.4832 -5.76602,0.01654 -7,-1.4c-0.73086,-0.78724 -1.06419,-1.85391 -1,-3.2c0.03698,-1.24023 0.38698,-2.4569 1.05,-3.65c0.65299,-1.21667 1.66966,-2.45 3.05,-3.7c0.47448,-0.42878 0.97448,-0.84544 1.5,-1.25c0.04974,-0.03945 0.09974,-0.08945 0.15,-0.15M144.01667,69.31667c-1.68932,0.42721 -3.55599,1.11055 -5.6,2.05c-1.23385,0.56888 -3.01719,1.48555 -5.35,2.75c-1.11706,0.59831 -1.63372,1.19831 -1.55,1.8c0.11745,0.63698 0.75078,0.90365 1.9,0.8c2.40065,-0.24401 5.33398,-1.11068 8.8,-2.6c5.39414,-2.26732 8.29414,-3.48398 8.7,-3.65c2.19961,-0.74935 5.58294,-1.56602 10.15,-2.45c4.56602,-0.94987 8.01602,-1.26654 10.35,-0.95c1.49154,0.20612 2.4082,0.32279 2.75,0.35c1.04401,0.02721 1.91068,-0.18945 2.6,-0.65c-1.94492,-0.50612 -4.26159,-0.72279 -6.95,-0.65c-1.46992,0.05 -3.88659,0.26667 -7.25,0.65l-13.1,1.6c-2.65378,0.36354 -4.47044,0.68021 -5.45,0.95M119.71667,79.66667c-0.94583,0.66354 -1.6125,1.21354 -2,1.65c-0.62279,0.8651 -0.83945,1.63177 -0.65,2.3c0.18503,0.74466 0.81836,1.27799 1.9,1.6c1.05039,0.29544 2.06706,0.27878 3.05,-0.05c0.74336,-0.26602 1.36003,-0.69935 1.85,-1.3c0.38451,-0.65299 0.66784,-1.13633 0.85,-1.45c0.35143,-0.43021 0.58477,-0.78021 0.7,-1.05c0.32656,-0.39089 0.52656,-0.74089 0.6,-1.05c0.26615,-0.93099 -0.01719,-1.86432 -0.85,-2.8c-0.25052,-0.27878 -0.48385,-0.46211 -0.7,-0.55c-0.38906,-0.06667 -0.9724,0.15 -1.75,0.65l-3,2.05M374.76667,48.86667c0.62539,-0.25651 1.22539,-0.38984 1.8,-0.4c-0.03672,-0.48385 -0.08672,-0.96719 -0.15,-1.45c1.93333,0.7 3.46667,2.08333 4.6,4.15c1.06667,1.93333 1.53333,4.01667 1.4,6.25c-0.2,3.66667 -1.93333,7.51667 -5.2,11.55c-2.56667,3.13333 -5.83333,6.18333 -9.8,9.15c-2.66667,2 -6.41667,4.48333 -11.25,7.45c-9.16667,5.6 -22.83333,13.48333 -41,23.65c-18.63333,10.43333 -32.31667,18.3 -41.05,23.6c-31.43333,19.06667 -55.81667,38.35 -73.15,57.85c-3.4,3.86667 -8.4,9.78333 -15,17.75c-5.96667,6.9 -11.4,12.35 -16.3,16.35c-6.5,5.26667 -13.3,9.01667 -20.4,11.25c-7.96667,2.53333 -15.5,2.88333 -22.6,1.05c-4.36667,-1.13333 -8.08333,-3.13333 -11.15,-6c-3.4,-3.13333 -5.26667,-6.7 -5.6,-10.7c-0.26667,-3.43333 0.66667,-7 2.8,-10.7c1.6,-2.73333 4.03333,-5.75 7.3,-9.05c11.9,-12.1 26.9,-23.7 45,-34.8c11.13333,-6.83333 27.95,-15.93333 50.45,-27.3l69.05,-34.95c19.63333,-9.93333 34.25,-17.8 43.85,-23.6c15.76667,-9.56667 28.93333,-19.48333 39.5,-29.75c0.7,-0.66667 1.43333,-1.11667 2.2,-1.35c0.9,-0.3 1.55,-0.11667 1.95,0.55c0.14987,0.24987 0.21654,0.56654 0.2,0.95c-0.00299,0.03385 -0.00299,0.06719 0,0.1c0.82526,-0.72214 1.67526,-1.25547 2.55,-1.6M124.86667,205.91667c-1.96667,1.86667 -3.25,3.6 -3.85,5.2c-0.4,1.06667 -0.53333,2.15 -0.4,3.25c0.1,1.16667 0.5,2.15 1.2,2.95c0.56667,0.7 1.68333,1.43333 3.35,2.2c1.93333,0.86667 3.41667,1.28333 4.45,1.25c1.2,-0.03333 2.4,-0.5 3.6,-1.4c0.8,-0.6 1.78333,-1.55 2.95,-2.85l3.3,-3.7c1,-1.13333 1.71667,-2.01667 2.15,-2.65c0.73333,-1.03333 1.21667,-2.03333 1.45,-3c0.36667,-1.46667 0.28333,-2.73333 -0.25,-3.8c-0.46667,-0.93333 -1.15,-1.66667 -2.05,-2.2c-0.86667,-0.46667 -1.85,-0.73333 -2.95,-0.8c-4.23333,-0.4 -8.55,1.45 -12.95,5.55M196.76667,153.31667c-2.73333,1.53333 -9.56667,4.93333 -20.5,10.2c-8.5,4.06667 -15.13333,7.78333 -19.9,11.15c-3.8,2.73333 -7.3,5.7 -10.5,8.9c-2.86667,2.93333 -3.8,5.43333 -2.8,7.5c0.46667,0.93333 1.26667,1.58333 2.4,1.95c1.06667,0.36667 2.16667,0.41667 3.3,0.15c0.93333,-0.23333 1.91667,-0.7 2.95,-1.4c0.6,-0.4 1.46667,-1.06667 2.6,-2c6.86667,-5.53333 15.01667,-11.23333 24.45,-17.1c5.53333,-3.43333 14.13333,-8.46667 25.8,-15.1l13.9,-7.9c7.63333,-4.26667 13.1,-7.25 16.4,-8.95c2.4,-1.2 4.2,-2.11667 5.4,-2.75c2.03333,-1.1 3.78333,-2.11667 5.25,-3.05c3.5,-2.46667 6.2,-4.21667 8.1,-5.25c2.26667,-1.16667 3.68333,-1.96667 4.25,-2.4c1.5,-1.06667 2.38333,-2.26667 2.65,-3.6c-6.43333,2.33333 -16.16667,6.41667 -29.2,12.25l-12.6,5.7c-4.5,2 -7.96667,3.65 -10.4,4.95c-2.63333,1.4 -6.48333,3.65 -11.55,6.75M121.21667,275.71667c1.72174,-0.24479 3.20508,-0.01146 4.45,0.7c1.11263,0.61628 2.01263,1.56628 2.7,2.85c1.36237,0.74648 2.5457,1.76315 3.55,3.05c1.06667,1.36667 1.81667,2.86667 2.25,4.5c0.8,3.1 0.4,6.91667 -1.2,11.45c-2.13333,6.06667 -5.03333,10.56667 -8.7,13.5c-2.2,1.76667 -4.65,2.91667 -7.35,3.45c-2.86667,0.53333 -5.5,0.26667 -7.9,-0.8c-2.6,-1.13333 -5.13333,-3.46667 -7.6,-7c-1.66667,-2.26667 -2.76667,-4.31667 -3.3,-6.15c-0.66667,-2.23333 -0.73333,-4.63333 -0.2,-7.2c0.46667,-2.3 1.38333,-4.55 2.75,-6.75c1.16667,-1.83333 2.7,-3.71667 4.6,-5.65c1.13333,-1.16667 2.91667,-2.81667 5.35,-4.95c1.23333,-1.1 2.3,-1.88333 3.2,-2.35c1.26667,-0.66667 2.46667,-0.9 3.6,-0.7c0.76667,0.13333 1.63333,0.53333 2.6,1.2c0.31432,0.21602 0.71432,0.49935 1.2,0.85M113.41667,281.76667c-0.83333,0.53333 -1.95,1.45 -3.35,2.75c-1.33333,1.3 -2.33333,2.38333 -3,3.25c-0.96667,1.3 -1.55,2.58333 -1.75,3.85c-0.33333,1.9 0.11667,3.5 1.35,4.8c0.6,0.63333 1.35,1.05 2.25,1.25c0.9,0.2 1.73333,0.11667 2.5,-0.25c0.53333,-0.23333 1.11667,-0.66667 1.75,-1.3c4.2,-3.8 7.98333,-7.98333 11.35,-12.55c-1.5,-2 -3.4,-3.31667 -5.7,-3.95c0.06667,0.53333 -0.43333,0.8 -1.5,0.8c-1.23333,0.03333 -2.53333,0.48333 -3.9,1.35z" fill="#cccccc"/><path d="M122.71667,77.61667c0.7776,-0.5 1.36094,-0.71667 1.75,-0.65c0.21615,0.08789 0.44948,0.27122 0.7,0.55c0.83281,0.93568 1.11615,1.86901 0.85,2.8c-0.07344,0.30911 -0.27344,0.65911 -0.6,1.05c-0.11523,0.26979 -0.34857,0.61979 -0.7,1.05c-0.18216,0.31367 -0.46549,0.79701 -0.85,1.45c-0.48997,0.60065 -1.10664,1.03398 -1.85,1.3c-0.98294,0.32878 -1.99961,0.34544 -3.05,0.05c-1.08164,-0.32201 -1.71497,-0.85534 -1.9,-1.6c-0.18945,-0.66823 0.02721,-1.4349 0.65,-2.3c0.3875,-0.43646 1.05417,-0.98646 2,-1.65l3,-2.05M149.46667,68.36667l13.1,-1.6c3.36341,-0.38333 5.78008,-0.6 7.25,-0.65c2.68841,-0.07279 5.00508,0.14388 6.95,0.65c-0.68932,0.46055 -1.55599,0.67721 -2.6,0.65c-0.3418,-0.02721 -1.25846,-0.14388 -2.75,-0.35c-2.33398,-0.31654 -5.78398,0.00013 -10.35,0.95c-4.56706,0.88398 -7.95039,1.70065 -10.15,2.45c-0.40586,0.16602 -3.30586,1.38268 -8.7,3.65c-3.46602,1.48932 -6.39935,2.35599 -8.8,2.6c-1.14922,0.10365 -1.78255,-0.16302 -1.9,-0.8c-0.08372,-0.60169 0.43294,-1.20169 1.55,-1.8c2.33281,-1.26445 4.11615,-2.18112 5.35,-2.75c2.04401,-0.93945 3.91068,-1.62279 5.6,-2.05c0.97956,-0.26979 2.79622,-0.58646 5.45,-0.95M208.31667,146.56667c2.43333,-1.3 5.9,-2.95 10.4,-4.95l12.6,-5.7c13.03333,-5.83333 22.76667,-9.91667 29.2,-12.25c-0.26667,1.33333 -1.15,2.53333 -2.65,3.6c-0.56667,0.43333 -1.98333,1.23333 -4.25,2.4c-1.9,1.03333 -4.6,2.78333 -8.1,5.25c-1.46667,0.93333 -3.21667,1.95 -5.25,3.05c-1.2,0.63333 -3,1.55 -5.4,2.75c-3.3,1.7 -8.76667,4.68333 -16.4,8.95l-13.9,7.9c-11.66667,6.63333 -20.26667,11.66667 -25.8,15.1c-9.43333,5.86667 -17.58333,11.56667 -24.45,17.1c-1.13333,0.93333 -2,1.6 -2.6,2c-1.03333,0.7 -2.01667,1.16667 -2.95,1.4c-1.13333,0.26667 -2.23333,0.21667 -3.3,-0.15c-1.13333,-0.36667 -1.93333,-1.01667 -2.4,-1.95c-1,-2.06667 -0.06667,-4.56667 2.8,-7.5c3.2,-3.2 6.7,-6.16667 10.5,-8.9c4.76667,-3.36667 11.4,-7.08333 19.9,-11.15c10.93333,-5.26667 17.76667,-8.66667 20.5,-10.2c5.06667,-3.1 8.91667,-5.35 11.55,-6.75M137.81667,200.36667c1.1,0.06667 2.08333,0.33333 2.95,0.8c0.9,0.53333 1.58333,1.26667 2.05,2.2c0.53333,1.06667 0.61667,2.33333 0.25,3.8c-0.23333,0.96667 -0.71667,1.96667 -1.45,3c-0.43333,0.63333 -1.15,1.51667 -2.15,2.65l-3.3,3.7c-1.16667,1.3 -2.15,2.25 -2.95,2.85c-1.2,0.9 -2.4,1.36667 -3.6,1.4c-1.03333,0.03333 -2.51667,-0.38333 -4.45,-1.25c-1.66667,-0.76667 -2.78333,-1.5 -3.35,-2.2c-0.7,-0.8 -1.1,-1.78333 -1.2,-2.95c-0.13333,-1.1 0,-2.18333 0.4,-3.25c0.6,-1.6 1.88333,-3.33333 3.85,-5.2c4.4,-4.1 8.71667,-5.95 12.95,-5.55M124.51667,283.56667c-3.36667,4.56667 -7.15,8.75 -11.35,12.55c-0.63333,0.63333 -1.21667,1.06667 -1.75,1.3c-0.76667,0.36667 -1.6,0.45 -2.5,0.25c-0.9,-0.2 -1.65,-0.61667 -2.25,-1.25c-1.23333,-1.3 -1.68333,-2.9 -1.35,-4.8c0.2,-1.26667 0.78333,-2.55 1.75,-3.85c0.66667,-0.86667 1.66667,-1.95 3,-3.25c1.4,-1.3 2.51667,-2.21667 3.35,-2.75c1.36667,-0.86667 2.66667,-1.31667 3.9,-1.35c1.06667,0 1.56667,-0.26667 1.5,-0.8c2.3,0.63333 4.2,1.95 5.7,3.95z" fill="#ffffff"/></g></g></svg>