<svg version="1.1" xmlns="http://www.w3.org/2000/svg" xmlns:xlink="http://www.w3.org/1999/xlink" width="58.81055" height="112.14353" viewBox="0,0,58.81055,112.14353"><g transform="translate(-223.35615,-71.51797)"><g data-paper-data="{&quot;isPaintingLayer&quot;:true}" fill-rule="nonzero" stroke="none" stroke-width="1" stroke-linecap="butt" stroke-linejoin="miter" stroke-miterlimit="10" stroke-dasharray="" stroke-dashoffset="0" style="mix-blend-mode: normal"><path d="M256.2954,125.53424c1.20425,-0.15655 2.6373,0.2288 4.29917,1.15608c0.60212,0.32515 1.06576,0.66234 1.39091,1.01157c0.36127,0.38536 0.73459,1.05974 1.11995,2.02313l0.27095,0.65029c0.03557,0.07907 0.06567,0.14531 0.09032,0.1987l-0.86706,2.56505c0.5374,-0.44393 1.02511,-1.034 1.46316,-1.77024c-0.42195,1.96575 -0.98796,3.71191 -1.69799,5.23848c0.90318,-0.3131 1.55348,-1.28854 1.95088,-2.92633c0.21963,-0.86494 0.41834,-1.78017 0.5961,-2.74568c0.11121,-0.03565 0.23163,-0.0778 0.36127,-0.12645c1.19221,-0.43353 2.31215,-0.49374 3.35985,-0.18064c0.56599,0.18064 1.06576,0.45762 1.49929,0.83093c0.45762,0.38536 0.78878,0.83695 0.9935,1.35478c0.13247,0.32515 0.24687,0.84298 0.34321,1.55348c0.07226,0.57804 0.12645,1.15608 0.16257,1.73412c0.03613,0.49374 0.07226,1.24037 0.10839,2.2399c0.04817,0.89114 0.11441,1.63777 0.1987,2.2399c0.0843,0.59008 0.283,0.92125 0.5961,0.9935c-0.13247,-0.42149 -0.17462,-0.93329 -0.12645,-1.53542c0.09634,-0.68642 0.16257,-1.20425 0.1987,-1.55348c0.14451,-1.39693 0.01204,-3.09492 -0.3974,-5.09397c-0.20472,-1.0477 -0.49976,-1.81842 -0.88512,-2.31215c-0.69846,-0.90318 -1.94486,-1.42703 -3.73919,-1.57154c-0.93202,-0.07555 -1.74489,-0.04544 -2.4386,0.09032c0.04097,-0.23831 0.0771,-0.48518 0.10839,-0.74061c0.13388,-0.30167 0.26033,-0.60875 0.37934,-0.92125c0.08481,-0.01326 0.16911,-0.03133 0.25289,-0.05419c0.38536,-0.09634 0.95737,-0.27095 1.71605,-0.52385c0.72255,-0.15655 1.45112,-0.09634 2.18571,0.18064c0.73459,0.26493 1.32467,0.69244 1.77024,1.28252c0.28902,0.38536 0.58406,0.96942 0.88512,1.75218c0.68642,1.98701 1.01157,3.9981 0.97544,6.03328c-0.01204,0.95135 -0.00602,1.56552 0.01806,1.8425c0.05871,0.55786 0.19117,1.03354 0.3974,1.42703c-0.22843,0.60899 -0.49939,1.24725 -0.81287,1.91475c-0.06078,0.1494 -0.12701,0.29994 -0.1987,0.4516c-0.36127,0.75868 -0.95135,1.93282 -1.77024,3.52243c-1.01157,1.93884 -1.80035,3.402 -2.36634,4.38948c-0.92727,1.60165 -1.8425,2.98653 -2.74568,4.15465c-0.99952,1.30058 -1.55348,2.0412 -1.66186,2.22184c-0.57804,0.86706 -0.93931,1.69197 -1.08382,2.47473l1.21027,0.01806c0.49374,-1.15608 1.34273,-2.34828 2.54699,-3.57662c0.11403,-0.12005 0.23445,-0.25252 0.36127,-0.3974c0.07583,0.04168 0.16012,0.07178 0.25289,0.09032c0.30106,0.04817 0.46364,0.07828 0.48772,0.09032c0.32515,0.10839 0.53589,0.34923 0.63223,0.72255c0.06021,0.18064 0.09032,0.51181 0.09032,0.9935c-0.02409,0.85502 -0.0843,1.55348 -0.18064,2.09539c-0.04003,0.22561 -0.0882,0.44237 -0.14451,0.65029c0.36367,-0.00894 0.72494,-0.02098 1.08382,-0.03613c0.10438,-0.27364 0.17664,-0.55664 0.21676,-0.849c0.03613,-0.43353 0.0843,-0.75266 0.14451,-0.95737c0.1686,-0.3974 0.25891,-0.69846 0.27095,-0.90318c0,-0.1686 -0.04215,-0.35525 -0.12645,-0.55997c-0.10839,-0.24085 -0.18666,-0.42149 -0.23483,-0.54191c-0.15655,-0.4817 -0.29504,-0.83093 -0.41547,-1.0477c-0.1686,-0.25289 -0.39138,-0.4516 -0.66836,-0.5961c-0.12579,-0.06017 -0.25825,-0.10834 -0.3974,-0.14451c0.53387,-0.49543 1.15405,-1.06746 1.86057,-1.71605c0.0111,-0.01091 0.02315,-0.02296 0.03613,-0.03613c-0.0087,0.22072 0.06355,0.45554 0.21676,0.70449l0.57804,0.77674c0.38536,0.55395 0.58406,1.15006 0.5961,1.78831c-0.07226,1.10791 -0.32515,2.16765 -0.75868,3.17921c-0.14348,0.31645 -0.23982,0.59945 -0.28902,0.849c0.21568,-0.01458 0.43245,-0.03265 0.65029,-0.05419c-0.22585,0.24405 -0.43056,0.46081 -0.61416,0.65029c-0.09634,0.1017 -0.19268,0.19804 -0.28902,0.28902c-1.18049,1.21944 -2.29442,2.14671 -3.34179,2.78181c-0.81889,0.49374 -1.14404,0.97544 -0.97544,1.4451c0.13247,0.34923 0.55997,0.54793 1.28252,0.5961c1.22833,0.07226 2.13754,0.02409 2.72762,-0.14451c0.34495,-0.08411 0.77246,-0.26475 1.28252,-0.54191c0.21921,-0.11252 0.45404,-0.24499 0.70449,-0.3974l6.86421,-3.97402c-1.31263,1.9268 -2.48075,3.44415 -3.50436,4.55206c-0.4817,0.52987 -1.3608,1.39693 -2.6373,2.60118c-0.86984,0.81865 -1.61045,1.46293 -2.22184,1.93282c-0.24174,0.1916 -0.46453,0.35417 -0.66836,0.48772c-1.09587,0.72255 -2.51688,1.34273 -4.26304,1.86057c-2.03518,0.52987 -3.55253,0.93931 -4.55206,1.22833c-0.49374,0.14451 -0.83695,0.3131 -1.02963,0.50579c-0.14451,0.14451 -0.23483,0.31912 -0.27095,0.52385c-0.03613,0.21676 0,0.3974 0.10839,0.54191c0.13247,0.15655 0.37332,0.27095 0.72255,0.34321c1.51736,0.3131 3.05879,0.32515 4.62431,0.03613c1.56552,-0.30106 2.99858,-0.8791 4.29917,-1.73412c-0.66234,1.2765 -1.81239,2.24592 -3.45017,2.90826c-0.73097,0.28897 -1.69437,0.5238 -2.8902,0.70449c-0.49426,0.0843 -1.03015,0.15655 -1.60767,0.21676c-0.72255,0.07226 -1.29456,0.10839 -1.71605,0.10839c-0.62621,-0.01204 -1.18619,-0.0843 -1.67992,-0.21676c-0.57804,-0.14451 -1.10189,-0.39138 -1.57154,-0.74061c0.1686,0.3974 0.43955,0.75266 0.81287,1.06576c0.34923,0.27697 0.74663,0.48772 1.19221,0.63223c0.31395,0.1065 0.67522,0.17273 1.08382,0.1987c-3.39122,1.21991 -6.161,2.15922 -8.30931,2.81794c-5.96103,1.83046 -11.8498,2.74568 -17.66632,2.74568c-0.84298,0.03613 -1.55348,0.06021 -2.13152,0.07226c-1.09587,0.03613 -2.01109,0.01204 -2.74568,-0.07226c-2.27603,-0.25289 -3.41404,-1.04167 -3.41404,-2.36634c0,-0.05513 0,-0.10933 0,-0.16257c0.31254,-0.3409 0.69188,-0.82261 1.13802,-1.4451l3.79338,-5.20235c0.44557,-0.59008 0.80083,-1.10791 1.06576,-1.55348c0.27697,-0.46966 0.55997,-1.02963 0.849,-1.67992c0.25407,-0.52455 0.67555,-1.45785 1.26446,-2.79988c0.44256,-0.5827 0.9062,-1.29923 1.39091,-2.14958c2.58914,-4.58819 4.93742,-10.01332 7.04485,-16.27541c0.17683,-0.52385 0.35746,-1.08382 0.54191,-1.67992c1.20048,-3.71741 2.68773,-8.85955 4.46174,-15.42641c0.15811,-0.58815 0.30863,-1.16017 0.4516,-1.71605c0.02093,0.04139 0.04502,0.07752 0.07226,0.10839c0.38536,-0.1686 0.7647,-0.52385 1.13802,-1.06576c0.54191,-0.80685 0.86104,-1.25844 0.95737,-1.35478c0.3131,-0.33719 0.7647,-0.64427 1.35478,-0.92125c0.32515,-0.15655 0.83093,-0.37934 1.51736,-0.66836c0.43353,-0.19268 1.06576,-0.52385 1.89669,-0.9935c0.75868,-0.37332 1.42101,-0.60212 1.98701,-0.68642M249.43119,126.67225c1.32467,-1.46918 2.89622,-2.57107 4.71463,-3.30566c0.63331,-0.27651 1.2535,-0.46316 1.86057,-0.55997c0.21225,-0.03565 0.42299,-0.05974 0.63223,-0.07226c1.21629,-0.06021 2.41452,0.27697 3.59468,1.01157c1.07178,0.66234 1.98098,1.5595 2.72762,2.69149c0.28902,0.43353 0.47568,0.70449 0.55997,0.81287c0.2288,0.27697 0.46966,0.47568 0.72255,0.5961c0.04878,0.02305 0.09695,0.04111 0.14451,0.05419l-0.41547,1.22833c-0.33893,-0.68157 -0.65806,-1.23553 -0.95737,-1.66186c-0.54191,-0.75868 -1.21027,-1.39693 -2.00507,-1.91475c-0.79481,-0.51783 -1.64982,-0.87308 -2.56505,-1.06576c-0.79481,-0.18064 -1.52338,-0.18666 -2.18571,-0.01806c-0.3974,0.0843 -0.91523,0.29504 -1.55348,0.63223l-2.72762,1.39091c-0.89114,0.45762 -1.56552,0.849 -2.02313,1.17414c-0.83978,0.62687 -1.62254,1.48791 -2.34828,2.58311c0.23586,-0.87421 0.45263,-1.69912 0.65029,-2.47473c0.15721,-0.08585 0.31376,-0.19423 0.46966,-0.32515c0.14451,-0.14451 0.37934,-0.40342 0.70449,-0.77674M271.07152,151.41955c0.65655,-0.69597 1.30082,-1.44863 1.93282,-2.25797c0.58345,0.61892 1.023,1.17287 1.31865,1.66186c0.49374,0.83093 0.74061,1.68595 0.74061,2.56505c0,0.54483 -0.04817,1.08072 -0.14451,1.60767c-0.30459,0.5453 -0.60565,1.04506 -0.90318,1.49929c-0.04944,0.04944 -0.10363,0.10363 -0.16257,0.16257c-0.00767,0.00856 -0.01971,0.01458 -0.03613,0.01806c0.04332,-0.1883 0.07343,-0.38099 0.09032,-0.57804c0.13247,-1.37284 -0.23483,-2.61924 -1.10189,-3.73919c-0.3974,-0.52987 -0.82491,-0.83695 -1.28252,-0.92125c-0.1525,-0.03316 -0.30304,-0.03918 -0.4516,-0.01806M249.84665,121.39765c0.7487,-0.83879 1.71812,-1.97078 2.90826,-3.39598c1.96292,-1.93884 3.91983,-2.90826 5.87071,-2.90826c1.77024,0 3.34781,1.19823 4.73269,3.59468c0.56599,0.98748 0.93329,1.95088 1.10189,2.8902c0.09065,0.48946 0.11474,0.91697 0.07226,1.28252l0.65029,-0.01806c-0.05795,0.82275 -0.13021,1.64163 -0.21676,2.45667c-0.30068,-0.63322 -0.75228,-1.24136 -1.35478,-1.82444c-0.51783,-0.49374 -1.2765,-1.07178 -2.27603,-1.73412c-0.80685,-0.54191 -1.45714,-0.89114 -1.95088,-1.0477c-0.40945,-0.12043 -1.12597,-0.19268 -2.14958,-0.21676c-1.57756,0 -2.73364,0.12043 -3.46823,0.36127c-0.59008,0.20472 -1.2765,0.56599 -2.05926,1.08382c-0.85417,0.57127 -1.66102,1.19145 -2.42054,1.86057c0.08999,-0.37177 0.17429,-0.721 0.25289,-1.0477c0.10453,-0.43837 0.20689,-0.88394 0.30708,-1.33671M275.78615,131.17012c0,0.03387 0,0.06398 0,0.09032c-0.0064,0.04643 -0.01242,0.08858 -0.01806,0.12645c-0.10118,0.68713 -0.19752,1.30731 -0.28902,1.86057c-0.03241,0.20406 -0.06854,0.39674 -0.10839,0.57804c-0.081,-0.61596 -0.2195,-1.30238 -0.41547,-2.05926c-0.25289,-0.98748 -0.50579,-1.79433 -0.75868,-2.42054c-0.34923,-0.86706 -0.77072,-1.58961 -1.26446,-2.16765c-0.51783,-0.60212 -1.12597,-1.08985 -1.82444,-1.46316c-0.71051,-0.37332 -1.45112,-0.58406 -2.22184,-0.63223c-0.56599,-0.03613 -1.19221,0.02409 -1.87863,0.18064c-0.1137,0.02211 -0.24014,0.04619 -0.37934,0.07226c0.47953,-1.32166 0.91908,-2.65838 1.31865,-4.01015c0.84382,-0.30106 1.65067,-0.4516 2.42054,-0.4516c1.47417,0 2.6724,0.78276 3.59468,2.34828c0.27857,0.47422 0.53147,1.01613 0.75868,1.62573c0.71051,1.9268 1.06576,4.03423 1.06576,6.3223z" fill="#ffffff"/><path d="M274.34106,96.72261c1.16812,4.50389 2.02916,9.03788 2.58311,13.60198c0.4817,4.07036 0.6804,7.77342 0.5961,11.10918c-0.03613,1.99905 -0.20472,4.72667 -0.50579,8.18287c-0.20472,2.60118 -0.45762,4.60625 -0.75868,6.01522c-0.3974,1.85454 -1.07178,3.85961 -2.02313,6.01522c-0.08382,0.18784 -0.17415,0.38653 -0.27095,0.5961c-0.6026,1.29344 -1.46363,2.99745 -2.58311,5.11203l-2.92633,5.59975c2.96245,-2.87815 5.51545,-6.10554 7.65901,-9.68215c2.15561,-3.58866 3.80542,-7.36398 4.94946,-11.32595c0.06021,-0.13247 0.17462,-0.1987 0.34321,-0.1987c0.15655,0 0.28902,0.05419 0.3974,0.16257c0.1686,0.15655 0.26493,0.42751 0.28902,0.81287c0.15655,1.49327 0.07226,3.36587 -0.25289,5.61782c-0.24085,1.60165 -0.49976,3.07083 -0.77674,4.40755c-1.57474,7.27897 -4.24215,12.81852 -8.00223,16.61862c-0.0858,0.01101 -0.17612,0.02305 -0.27095,0.03613c-1.06021,1.35492 -2.16811,2.64949 -3.32372,3.8837c0.3974,0.02409 0.95737,-0.0843 1.67992,-0.32515c1.03941,-0.36927 2.05098,-0.78474 3.0347,-1.2464c1.61153,-0.76451 3.14695,-1.65565 4.60625,-2.67343c0.45762,-0.30106 0.77072,-0.5961 0.93931,-0.88512c0.04817,-0.0843 0.11441,-0.22278 0.1987,-0.41547c0.07226,-0.15655 0.15655,-0.27095 0.25289,-0.34321c0.18064,-0.13247 0.39138,-0.15053 0.63223,-0.05419c0.2288,0.09634 0.39138,0.25891 0.48772,0.48772c0.15655,0.33719 0.14451,0.78276 -0.03613,1.33671c-0.49374,1.66186 -1.49327,3.25749 -2.99858,4.78688c-0.92727,0.95135 -2.39645,2.15561 -4.40755,3.61275l-3.41404,2.49279c-0.84298,0.60212 -1.33671,0.94533 -1.48123,1.02963c-0.80685,0.49374 -1.7582,0.94533 -2.85407,1.35478c-0.68642,0.25289 -1.69799,0.58406 -3.0347,0.9935c0.01204,0.18064 0.18064,0.25891 0.50579,0.23483c1.24037,-0.13247 2.42054,-0.35525 3.54049,-0.66836c0.79481,-0.21676 1.34876,-0.34321 1.66186,-0.37934c0.62621,-0.07226 1.15608,0 1.58961,0.21676c-0.97544,1.46918 -2.30011,2.66139 -3.97402,3.57662c-1.60165,0.86706 -3.32372,1.39091 -5.16622,1.57154c-0.59215,0.05791 -1.12202,0.06393 -1.58961,0.01806c-0.4086,-0.02597 -0.76987,-0.0922 -1.08382,-0.1987c-0.44557,-0.14451 -0.84298,-0.35525 -1.19221,-0.63223c-0.37332,-0.3131 -0.64427,-0.66836 -0.81287,-1.06576c0.46966,0.34923 0.9935,0.5961 1.57154,0.74061c0.49374,0.13247 1.05372,0.20472 1.67992,0.21676c0.42149,0 0.9935,-0.03613 1.71605,-0.10839c0.57752,-0.06021 1.11341,-0.13247 1.60767,-0.21676c1.19583,-0.18068 2.15922,-0.41552 2.8902,-0.70449c1.63777,-0.66234 2.78783,-1.63175 3.45017,-2.90826c-1.30058,0.85502 -2.73364,1.43306 -4.29917,1.73412c-1.56552,0.28902 -3.10696,0.27697 -4.62431,-0.03613c-0.34923,-0.07226 -0.59008,-0.18666 -0.72255,-0.34321c-0.10839,-0.14451 -0.14451,-0.32515 -0.10839,-0.54191c0.03613,-0.20472 0.12645,-0.37934 0.27095,-0.52385c0.19268,-0.19268 0.53589,-0.36127 1.02963,-0.50579c0.99952,-0.28902 2.51688,-0.69846 4.55206,-1.22833c1.74616,-0.51783 3.16717,-1.13802 4.26304,-1.86057c0.20383,-0.13355 0.42662,-0.29613 0.66836,-0.48772c0.61139,-0.46989 1.352,-1.11416 2.22184,-1.93282c1.2765,-1.20425 2.15561,-2.07131 2.6373,-2.60118c1.02361,-1.10791 2.19173,-2.62526 3.50436,-4.55206l-6.86421,3.97402c-0.25045,0.15242 -0.48527,0.28488 -0.70449,0.3974c-0.51006,0.27717 -0.93757,0.4578 -1.28252,0.54191c-0.59008,0.1686 -1.49929,0.21676 -2.72762,0.14451c-0.72255,-0.04817 -1.15006,-0.24687 -1.28252,-0.5961c-0.1686,-0.46966 0.15655,-0.95135 0.97544,-1.4451c1.04737,-0.6351 2.1613,-1.56237 3.34179,-2.78181c0.09634,-0.09098 0.19268,-0.18731 0.28902,-0.28902c0.1836,-0.18948 0.38832,-0.40625 0.61416,-0.65029c0.68172,-0.72278 1.54877,-1.68016 2.60118,-2.87213c0.01642,-0.00348 0.02846,-0.0095 0.03613,-0.01806c0.05894,-0.05894 0.11314,-0.11314 0.16257,-0.16257c0.29753,-0.45422 0.59859,-0.95399 0.90318,-1.49929c0.10773,-0.18548 0.21611,-0.37816 0.32515,-0.57804c1.57521,-2.94316 2.83365,-5.97787 3.77531,-9.10411c0.97069,-3.23194 1.60292,-6.56169 1.89669,-9.98924c-1.9268,4.01015 -3.48028,7.01474 -4.66044,9.01379c-1.04469,1.77198 -2.12851,3.37364 -3.25147,4.80495c0.00395,0.00701 0.00395,0.01303 0,0.01806c-0.632,0.80934 -1.27627,1.562 -1.93282,2.25797c-0.27933,0.30741 -0.56233,0.60245 -0.849,0.88512c-0.01298,0.01317 -0.02503,0.02521 -0.03613,0.03613c-0.70651,0.6486 -1.3267,1.22062 -1.86057,1.71605c-0.37812,0.37741 -0.71531,0.70858 -1.01157,0.9935c-0.12682,0.14488 -0.24725,0.27735 -0.36127,0.3974c-1.20425,1.22833 -2.05324,2.42054 -2.54699,3.57662l-1.21027,-0.01806c0.14451,-0.78276 0.50579,-1.60767 1.08382,-2.47473c0.10839,-0.18064 0.66234,-0.92125 1.66186,-2.22184c0.90318,-1.16812 1.81842,-2.55301 2.74568,-4.15465c0.56599,-0.98748 1.35478,-2.45064 2.36634,-4.38948c0.81889,-1.58961 1.40897,-2.76375 1.77024,-3.52243c0.07169,-0.15166 0.13792,-0.30219 0.1987,-0.4516c0.31348,-0.66751 0.58444,-1.30576 0.81287,-1.91475c0.17142,-0.44378 0.32195,-0.87129 0.4516,-1.28252c0.13092,-0.40681 0.25134,-0.83432 0.36127,-1.28252c0.19452,-0.71173 0.36913,-1.47643 0.52385,-2.29409c0.06647,-0.34189 0.1327,-0.73929 0.1987,-1.19221c0.03984,-0.18129 0.07597,-0.37398 0.10839,-0.57804c0.09149,-0.55325 0.18784,-1.17344 0.28902,-1.86057c0.00564,-0.03787 0.01166,-0.08001 0.01806,-0.12645c0.32717,-2.19601 0.54996,-3.77358 0.66836,-4.73269c0.2288,-1.80637 0.3673,-3.42608 0.41547,-4.85914c0.06021,-1.7582 0.00602,-3.69102 -0.16257,-5.79845c-0.12043,-1.54144 -0.32515,-3.46221 -0.61416,-5.76233c-0.74663,-5.76835 -1.61971,-10.49502 -2.61924,-14.18002c-0.08571,-0.32331 -0.17603,-0.62437 -0.27095,-0.90318c-0.18558,-0.58439 -0.38427,-1.07211 -0.5961,-1.46316c-0.43353,-0.81889 -0.98146,-1.40897 -1.6438,-1.77024c0.1272,1.42341 0.2115,2.84442 0.25289,4.26304c0.01397,0.23695 0.01999,0.47177 0.01806,0.70449c0.12748,4.68306 -0.17358,9.37361 -0.90318,14.07164c-0.55668,3.57088 -1.35149,7.06922 -2.38441,10.49502c-0.39957,1.35177 -0.83912,2.68848 -1.31865,4.01015c-0.31292,0.87708 -0.64409,1.74413 -0.9935,2.60118c-0.11901,0.31249 -0.24546,0.61957 -0.37934,0.92125c-0.03128,0.25543 -0.06741,0.5023 -0.10839,0.74061c-0.07108,0.45823 -0.14935,0.9038 -0.23483,1.33671c-0.17777,0.96552 -0.37647,1.88074 -0.5961,2.74568c-0.3974,1.63777 -1.0477,2.61322 -1.95088,2.92633c0.71003,-1.52657 1.27603,-3.27273 1.69799,-5.23848c-0.43805,0.73624 -0.92576,1.32632 -1.46316,1.77024l0.86706,-2.56505l0.50579,-1.4451l0.41547,-1.22833l0.43353,-1.26446c0.03946,-0.30031 0.07559,-0.6074 0.10839,-0.92125c0.01425,-0.13609 0.0263,-0.27458 0.03613,-0.41547c0.08656,-0.81503 0.15881,-1.63392 0.21676,-2.45667c0.6534,-8.09151 0.44868,-16.1118 -0.61416,-24.06087c-0.55099,-4.09713 -1.32773,-8.1735 -2.33022,-12.22914c-0.16408,-0.6716 -0.33267,-1.33394 -0.50579,-1.98701c-1.00936,-3.751 -2.17146,-7.04462 -3.4863,-9.88086c-0.23036,-0.49571 -0.46519,-0.97742 -0.70449,-1.4451c-0.77072,0.14451 -1.22231,0.95737 -1.35478,2.4386c-0.31607,3.80763 -0.64122,7.36016 -0.97544,10.6576c-0.24941,2.60974 -0.50833,5.06038 -0.77674,7.35193c-0.10867,1.0032 -0.22307,1.97262 -0.34321,2.90826c-0.11167,0.94886 -0.22608,1.86409 -0.34321,2.74568c-0.05904,0.44726 -0.11925,0.89284 -0.18064,1.33671c-0.82242,6.02416 -1.78582,11.65402 -2.8902,16.88958c-0.26489,1.3068 -0.54187,2.5833 -0.83093,3.82951c-0.1002,0.45277 -0.20256,0.89834 -0.30708,1.33671c-0.07861,0.3267 -0.1629,0.67593 -0.25289,1.0477c-0.27867,1.12037 -0.62188,2.45107 -1.02963,3.99208c-0.19767,0.77561 -0.41443,1.60052 -0.65029,2.47473c-0.07263,0.29052 -0.1509,0.57955 -0.23483,0.86706c-0.14296,0.55588 -0.29349,1.1279 -0.4516,1.71605c-1.77401,6.56687 -3.26126,11.70901 -4.46174,15.42641c-0.18445,0.5961 -0.36509,1.15608 -0.54191,1.67992c-2.10743,6.26209 -4.45571,11.68723 -7.04485,16.27541c-0.48471,0.85036 -0.94835,1.56688 -1.39091,2.14958c-0.58891,1.34203 -1.01039,2.27533 -1.26446,2.79988c-0.28902,0.65029 -0.57201,1.21027 -0.849,1.67992c-0.26493,0.44557 -0.62019,0.9634 -1.06576,1.55348l-3.79338,5.20235c-0.44614,0.62249 -0.82548,1.10419 -1.13802,1.4451c-0.04967,0.06002 -0.09785,0.11421 -0.14451,0.16257c-0.54191,0.54191 -1.09587,0.91523 -1.66186,1.11995c-0.27697,-0.56599 -0.27697,-1.22833 0,-1.98701c0.18064,-0.46966 0.52987,-1.0477 1.0477,-1.73412l4.44367,-6.08748c0.46966,-0.65029 0.79481,-1.11995 0.97544,-1.40897c0.06515,-0.10377 0.13138,-0.21818 0.1987,-0.34321c-0.00564,0.01039 -0.01166,0.01642 -0.01806,0.01806l4.89527,-9.95311c1.9268,-3.90176 3.30566,-6.90636 4.13659,-9.01379c0.48748,-1.21206 1.02338,-2.72941 1.60767,-4.55206c0.49788,-1.50644 1.02775,-3.22249 1.58961,-5.14816c1.42812,-4.94767 2.75279,-9.92121 3.97402,-14.92063c0.05043,-0.17918 0.0986,-0.36584 0.14451,-0.55997c2.15269,-8.79345 3.98917,-17.65672 5.50943,-26.58979c0.23314,-1.31837 0.45592,-2.64304 0.66836,-3.97402c0.19616,-1.20547 0.38282,-2.41574 0.55997,-3.63081c0.29486,-1.90247 0.57183,-3.81121 0.83093,-5.7262c0.5827,-4.29968 1.0945,-8.61691 1.53542,-12.95168c0.13247,-1.25242 0.51181,-1.98098 1.13802,-2.18571c0.4817,-0.15655 0.95135,-0.00602 1.40897,0.4516c0.36127,0.34923 0.66836,0.83695 0.92125,1.46316c1.42035,3.47854 2.6246,7.10332 3.61275,10.87436c1.21568,4.5776 2.11284,9.37051 2.69149,14.37872c0.41979,3.56401 0.6787,7.23696 0.77674,11.01887c0.03406,1.36306 0.0461,2.71784 0.03613,4.06433c-0.00927,2.86728 -0.11163,5.69727 -0.30708,8.48995c-0.00715,0.06506 -0.01317,0.13129 -0.01806,0.1987c-0.02569,0.38743 -0.05579,0.76676 -0.09032,1.13802c0.19734,-0.56487 0.37797,-1.10076 0.54191,-1.60767c0.53204,-1.60899 0.94148,-2.90356 1.22833,-3.8837c0.43353,-1.48123 0.80685,-2.93235 1.11995,-4.35336c0.69846,-3.0347 1.18017,-6.08145 1.4451,-9.14024c0.19268,-2.11948 0.28902,-4.53399 0.28902,-7.24355c0,-0.05438 0,-0.10857 0,-0.16257c-0.00305,-1.51698 -0.0452,-3.8773 -0.12645,-7.08098c0.45762,-0.21676 0.94533,0 1.46316,0.65029c0.61416,0.75868 1.13802,1.69197 1.57154,2.79988c0.10274,0.2568 0.2051,0.53979 0.30708,0.849c0.21902,0.63557 0.44181,1.3822 0.66836,2.2399z" fill="#000000"/><path d="M268.63292,130.6282c-1.0477,-0.3131 -2.16765,-0.25289 -3.35985,0.18064c-0.12965,0.04864 -0.25007,0.09079 -0.36127,0.12645c0.08547,-0.43292 0.16375,-0.87849 0.23483,-1.33671c0.69371,-0.13576 1.50658,-0.16586 2.4386,-0.09032c1.79433,0.14451 3.04072,0.66836 3.73919,1.57154c0.38536,0.49374 0.6804,1.26446 0.88512,2.31215c0.40945,1.99905 0.54191,3.69704 0.3974,5.09397c-0.03613,0.34923 -0.10236,0.86706 -0.1987,1.55348c-0.04817,0.60212 -0.00602,1.11393 0.12645,1.53542c-0.3131,-0.07226 -0.51181,-0.40342 -0.5961,-0.9935c-0.0843,-0.60212 -0.15053,-1.34876 -0.1987,-2.2399c-0.03613,-0.99952 -0.07226,-1.74616 -0.10839,-2.2399c-0.03613,-0.57804 -0.09032,-1.15608 -0.16257,-1.73412c-0.09634,-0.71051 -0.21074,-1.22833 -0.34321,-1.55348c-0.20472,-0.51783 -0.53589,-0.96942 -0.9935,-1.35478c-0.43353,-0.37332 -0.93329,-0.65029 -1.49929,-0.83093M256.25927,124.46848c0.66234,-0.1686 1.39091,-0.16257 2.18571,0.01806c0.91523,0.19268 1.77024,0.54793 2.56505,1.06576c0.79481,0.51783 1.46316,1.15608 2.00507,1.91475c0.29932,0.42633 0.61845,0.98029 0.95737,1.66186l-0.50579,1.4451c-0.02465,-0.05339 -0.05476,-0.11962 -0.09032,-0.1987l-0.27095,-0.65029c-0.38536,-0.9634 -0.75868,-1.63777 -1.11995,-2.02313c-0.32515,-0.34923 -0.78878,-0.68642 -1.39091,-1.01157c-1.66186,-0.92727 -3.09492,-1.31263 -4.29917,-1.15608c-0.56599,0.0843 -1.22833,0.3131 -1.98701,0.68642c-0.83093,0.46966 -1.46316,0.80083 -1.89669,0.9935c-0.68642,0.28902 -1.19221,0.51181 -1.51736,0.66836c-0.59008,0.27697 -1.04167,0.58406 -1.35478,0.92125c-0.09634,0.09634 -0.41547,0.54793 -0.95737,1.35478c-0.37332,0.54191 -0.75266,0.89716 -1.13802,1.06576c-0.02724,-0.03086 -0.05132,-0.06698 -0.07226,-0.10839c0.08392,-0.28751 0.1622,-0.57653 0.23483,-0.86706c0.72575,-1.09521 1.50851,-1.95624 2.34828,-2.58311c0.45762,-0.32515 1.132,-0.71653 2.02313,-1.17414l2.72762,-1.39091c0.63825,-0.33719 1.15608,-0.54793 1.55348,-0.63223M248.72671,127.44899c-0.1559,0.13092 -0.31244,0.2393 -0.46966,0.32515c0.40775,-1.54101 0.75096,-2.87171 1.02963,-3.99208c0.75952,-0.66911 1.56637,-1.2893 2.42054,-1.86057c0.78276,-0.51783 1.46918,-0.8791 2.05926,-1.08382c0.73459,-0.24085 1.89067,-0.36127 3.46823,-0.36127c1.02361,0.02409 1.74014,0.09634 2.14958,0.21676c0.49374,0.15655 1.14404,0.50579 1.95088,1.0477c0.99952,0.66234 1.7582,1.24037 2.27603,1.73412c0.6025,0.58307 1.0541,1.19122 1.35478,1.82444c-0.00983,0.14089 -0.02187,0.27938 -0.03613,0.41547c-0.03279,0.31386 -0.06891,0.62094 -0.10839,0.92125l-0.43353,1.26446c-0.04756,-0.01308 -0.09573,-0.03114 -0.14451,-0.05419c-0.25289,-0.12043 -0.49374,-0.31912 -0.72255,-0.5961c-0.0843,-0.10839 -0.27095,-0.37934 -0.55997,-0.81287c-0.74663,-1.132 -1.65584,-2.02916 -2.72762,-2.69149c-1.18017,-0.73459 -2.37839,-1.07178 -3.59468,-1.01157c-0.20924,0.01251 -0.41998,0.0366 -0.63223,0.07226c-0.60707,0.09681 -1.22725,0.28347 -1.86057,0.55997c-1.81842,0.73459 -3.38995,1.83648 -4.71463,3.30566c-0.32515,0.37332 -0.55997,0.63223 -0.70449,0.77674M268.72324,154.20136c0.27697,0.14451 0.49976,0.34321 0.66836,0.5961c0.12043,0.21676 0.25891,0.56599 0.41547,1.0477c0.04817,0.12043 0.12645,0.30106 0.23483,0.54191c0.0843,0.20472 0.12645,0.39138 0.12645,0.55997c-0.01204,0.20472 -0.10236,0.50579 -0.27095,0.90318c-0.06021,0.20472 -0.10839,0.52385 -0.14451,0.95737c-0.04012,0.29236 -0.11238,0.57536 -0.21676,0.849c-0.35888,0.01515 -0.72015,0.02719 -1.08382,0.03613c0.05631,-0.20792 0.10448,-0.42469 0.14451,-0.65029c0.09634,-0.54191 0.15655,-1.24037 0.18064,-2.09539c0,-0.4817 -0.03011,-0.81287 -0.09032,-0.9935c-0.09634,-0.37332 -0.30708,-0.61416 -0.63223,-0.72255c-0.02409,-0.01204 -0.18666,-0.04215 -0.48772,-0.09032c-0.09276,-0.01853 -0.17706,-0.04864 -0.25289,-0.09032c0.29626,-0.28493 0.63345,-0.61609 1.01157,-0.9935c0.13915,0.03618 0.27161,0.08435 0.3974,0.14451M267.00719,125.26328c0.68642,-0.15655 1.31263,-0.21676 1.87863,-0.18064c0.77072,0.04817 1.51133,0.25891 2.22184,0.63223c0.69846,0.37332 1.30661,0.86104 1.82444,1.46316c0.49374,0.57804 0.91523,1.30058 1.26446,2.16765c0.25289,0.62621 0.50579,1.43306 0.75868,2.42054c0.19597,0.75689 0.33446,1.44331 0.41547,2.05926c-0.066,0.45291 -0.13223,0.85031 -0.1987,1.19221c-0.15471,0.81767 -0.32934,1.58236 -0.52385,2.29409c-0.10994,0.4482 -0.23036,0.87571 -0.36127,1.28252c-0.12965,0.41123 -0.28017,0.83874 -0.4516,1.28252c-0.20623,-0.3935 -0.33869,-0.86918 -0.3974,-1.42703c-0.02409,-0.27697 -0.03011,-0.89114 -0.01806,-1.8425c0.03613,-2.03518 -0.28902,-4.04627 -0.97544,-6.03328c-0.30106,-0.78276 -0.5961,-1.36682 -0.88512,-1.75218c-0.44557,-0.59008 -1.03565,-1.01759 -1.77024,-1.28252c-0.73459,-0.27697 -1.46316,-0.33719 -2.18571,-0.18064c-0.75868,0.25289 -1.33069,0.42751 -1.71605,0.52385c-0.08378,0.02286 -0.16808,0.04093 -0.25289,0.05419c0.34942,-0.85704 0.68059,-1.7241 0.9935,-2.60118c0.13919,-0.02606 0.26564,-0.05015 0.37934,-0.07226M271.52312,151.43761c0.45762,0.0843 0.88512,0.39138 1.28252,0.92125c0.86706,1.11995 1.23435,2.36634 1.10189,3.73919c-0.01689,0.19706 -0.047,0.38973 -0.09032,0.57804c-1.0524,1.19197 -1.91946,2.14935 -2.60118,2.87213c-0.21785,0.02155 -0.43461,0.03961 -0.65029,0.05419c0.04921,-0.24955 0.14554,-0.53255 0.28902,-0.849c0.43353,-1.01157 0.68642,-2.07131 0.75868,-3.17921c-0.01204,-0.63825 -0.21074,-1.23435 -0.5961,-1.78831l-0.57804,-0.77674c-0.15321,-0.24894 -0.22547,-0.48377 -0.21676,-0.70449c0.28667,-0.28267 0.56967,-0.57771 0.849,-0.88512c0.14856,-0.02112 0.29908,-0.0151 0.4516,0.01806M279.01956,145.31401c-0.94167,3.12624 -2.2001,6.16095 -3.77531,9.10411c-0.10904,0.19988 -0.21742,0.39255 -0.32515,0.57804c0.09634,-0.52696 0.14451,-1.06284 0.14451,-1.60767c0,-0.8791 -0.24687,-1.73412 -0.74061,-2.56505c-0.29565,-0.48899 -0.7352,-1.04294 -1.31865,-1.66186c0.00395,-0.00503 0.00395,-0.01105 0,-0.01806c1.12296,-1.43131 2.20678,-3.03297 3.25147,-4.80495c1.18017,-1.99905 2.73364,-5.00365 4.66044,-9.01379c-0.29377,3.42755 -0.926,6.75729 -1.89669,9.98924M246.41455,127.1961c-0.00856,-0.07597 -0.00254,-0.16027 0.01806,-0.25289c0.01924,-0.08989 0.06139,-0.19226 0.12645,-0.30708c-0.04591,0.19414 -0.09408,0.38079 -0.14451,0.55997M256.18702,75.67838c0.13247,-1.48123 0.58406,-2.29409 1.35478,-2.4386c0.2393,0.46768 0.47413,0.94938 0.70449,1.4451c1.31484,2.83624 2.47694,6.12986 3.4863,9.88086c0.17311,0.65307 0.34171,1.31541 0.50579,1.98701c1.00249,4.05563 1.77923,8.13201 2.33022,12.22914c1.06284,7.94907 1.26757,15.96936 0.61416,24.06087l-0.65029,0.01806c0.04248,-0.36555 0.01839,-0.79306 -0.07226,-1.28252c-0.1686,-0.93931 -0.53589,-1.90271 -1.10189,-2.8902c-1.38488,-2.39645 -2.96245,-3.59468 -4.73269,-3.59468c-1.95088,0 -3.90779,0.96942 -5.87071,2.90826c-1.19013,1.4252 -2.15955,2.55719 -2.90826,3.39598c0.28907,-1.24621 0.56604,-2.52271 0.83093,-3.82951c1.10438,-5.23556 2.06778,-10.86542 2.8902,-16.88958c0.06139,-0.44388 0.1216,-0.88945 0.18064,-1.33671c0.11713,-0.8816 0.23154,-1.79682 0.34321,-2.74568c0.12014,-0.93565 0.23454,-1.90506 0.34321,-2.90826c0.26841,-2.29155 0.52733,-4.7422 0.77674,-7.35193c0.33422,-3.29743 0.65937,-6.84996 0.97544,-10.6576M276.09324,110.10783c0.28902,2.30011 0.49374,4.22089 0.61416,5.76233c0.1686,2.10743 0.22278,4.04025 0.16257,5.79845c-0.04817,1.43306 -0.18666,3.05277 -0.41547,4.85914c-0.1184,0.95912 -0.34119,2.53668 -0.66836,4.73269c0,-0.02634 0,-0.05645 0,-0.09032c0,-2.28807 -0.35525,-4.3955 -1.06576,-6.3223c-0.22721,-0.60961 -0.4801,-1.15151 -0.75868,-1.62573c-0.92228,-1.56552 -2.12051,-2.34828 -3.59468,-2.34828c-0.76987,0 -1.57672,0.15053 -2.42054,0.4516c1.03293,-3.4258 1.82773,-6.92414 2.38441,-10.49502c0.72961,-4.69802 1.03067,-9.38857 0.90318,-14.07164c0.00193,-0.23271 -0.00409,-0.46754 -0.01806,-0.70449c-0.04139,-1.41861 -0.12569,-2.83963 -0.25289,-4.26304c0.66234,0.36127 1.21027,0.95135 1.6438,1.77024c0.21183,0.39105 0.41052,0.87877 0.5961,1.46316c0.09493,0.27881 0.18525,0.57987 0.27095,0.90318c0.99952,3.685 1.87261,8.41167 2.61924,14.18002z" fill="#5b5d5e"/></g></g></svg>