<svg version="1.1" xmlns="http://www.w3.org/2000/svg" xmlns:xlink="http://www.w3.org/1999/xlink" width="32.396" height="24.72911" viewBox="0,0,32.396,24.72911"><g transform="translate(-223.802,-167.63545)"><g data-paper-data="{&quot;isPaintingLayer&quot;:true}" fill-rule="nonzero" stroke="none" stroke-width="1" stroke-linecap="butt" stroke-linejoin="miter" stroke-miterlimit="10" stroke-dasharray="" stroke-dashoffset="0" style="mix-blend-mode: normal"><path d="M254.68028,175.62931c-1.21776,3.73387 -3.58612,6.44249 -7.10509,8.12586c-0.61969,0.29297 -1.25543,0.56607 -1.90723,0.8193c0.22287,-0.09139 0.44225,-0.18989 0.65813,-0.29549c2.49001,-1.19922 4.55841,-2.96318 6.2052,-5.29188c0.69842,-0.98495 1.31626,-2.02363 1.8535,-3.11604c0.05373,-0.0985 0.15222,-0.17908 0.29549,-0.24176M256.198,171.08957c-1.55802,-0.8596 -3.22796,-1.45952 -5.00983,-1.79978c-0.96704,-0.19699 -1.952,-0.30444 -2.95486,-0.32235c2.00572,1.08345 3.00411,2.7713 2.99515,5.06356c0,0.94018 -0.2149,1.85798 -0.6447,2.75339c-0.976,2.01467 -2.36836,3.65328 -4.17709,4.91581c-0.34652,0.24214 -0.70021,0.466 -1.06106,0.67156c-1.09097,0.63007 -2.25053,1.10464 -3.47868,1.4237c-0.11105,0.02739 -0.22298,0.05425 -0.33578,0.08059c-0.32029,0.06908 -0.64263,0.14071 -0.96704,0.2149c-0.32487,0.08219 -0.65169,0.16726 -0.98048,0.25519c-0.93833,0.2482 -1.86508,0.52577 -2.78025,0.83273c-0.39338,0.13984 -0.78737,0.2831 -1.18195,0.4298c-0.75001,0.28464 -1.4932,0.58908 -2.22957,0.91332c-1.18268,0.532 -2.34224,1.11849 -3.47868,1.75948c-0.63147,0.35029 -1.21797,0.75323 -1.75948,1.2088c-0.51465,0.43239 -0.98922,0.91143 -1.42371,1.43714c-0.58202,0.68051 -1.28939,1.15956 -2.12212,1.43714l-0.72528,-0.09402l-0.08059,-0.20147l0.51038,-0.6447c0.38503,-3.86818 1.50429,-7.53489 3.35779,-11.00013c0.25362,-0.47485 0.52224,-0.94046 0.80587,-1.39684c1.51552,-2.40474 3.45409,-4.45971 5.8157,-6.16491c2.00174,-1.43756 4.13282,-2.60607 6.39324,-3.50554c0.59258,-0.23886 1.19251,-0.45823 1.79978,-0.65813c0.90451,-0.29587 1.82678,-0.55106 2.76682,-0.76558c2.34598,-0.5283 4.65167,-0.35369 6.91706,0.52381c1.06554,0.4298 2.0684,1.02525 3.00858,1.78635l0.04029,0.10745l0.98047,0.73871M225.38688,190.48419l1.6386,-1.36998c0.38108,-0.29839 0.77058,-0.58045 1.16852,-0.84616c1.99568,-1.34998 4.18049,-2.30359 6.55441,-2.86084c0.1659,-0.03707 0.33155,-0.07289 0.49695,-0.10745c0.51794,-0.1014 1.02833,-0.21332 1.53115,-0.33578c0.0432,-0.00878 0.08349,-0.01773 0.12088,-0.02686c1.00353,-0.2469 1.98848,-0.53791 2.95486,-0.87302c0.38793,-0.12787 0.76848,-0.26667 1.14165,-0.41637c0.40615,-0.14946 0.80461,-0.31063 1.19537,-0.48352c0.55169,-0.22668 1.09342,-0.47293 1.62517,-0.73872c0.00899,0.00227 0.01347,0.00227 0.01343,0c0.00899,-0.0022 0.01346,-0.00668 0.01343,-0.01343c0.34459,-0.16233 0.68485,-0.33246 1.02077,-0.51038c0.23928,-0.1255 0.46761,-0.25533 0.68499,-0.38951c3.02404,-1.81891 4.64026,-4.48724 4.84865,-8.00498c0.02686,-0.4477 -0.10745,-0.86407 -0.40293,-1.2491c-1.8095,-2.36907 -4.07042,-3.32268 -6.78275,-2.86084c-0.34627,0.06429 -0.69996,0.14935 -1.06106,0.25519c-0.29482,0.08831 -0.59478,0.19129 -0.89989,0.30892c-0.0503,0.01973 -0.09954,0.03763 -0.14774,0.05372c-3.29847,1.3172 -6.23543,3.18414 -8.81085,5.6008c-1.54504,1.43906 -2.83444,3.0508 -3.86818,4.83522c-0.61546,1.08908 -1.13927,2.23968 -1.57144,3.45181c-0.77901,2.14899 -1.26701,4.34275 -1.464,6.58128z" fill="#000000"/><path d="M242.14899,169.65243c0.36111,-0.10584 0.71479,-0.1909 1.06106,-0.25519c2.71233,-0.46184 4.97325,0.49177 6.78275,2.86084c0.29549,0.38503 0.42979,0.8014 0.40293,1.2491c-0.20839,3.51774 -1.82461,6.18607 -4.84865,8.00498c-0.21738,0.13417 -0.44571,0.26401 -0.68499,0.38951c-0.33592,0.17793 -0.67618,0.34806 -1.02077,0.51038c0.00004,0.00675 -0.00444,0.01122 -0.01343,0.01343c0.00004,0.00227 -0.00444,0.00227 -0.01343,0c-0.53175,0.26579 -1.07348,0.51203 -1.62517,0.73872c-0.39076,0.17289 -0.78922,0.33406 -1.19537,0.48352c-0.37317,0.1497 -0.75372,0.2885 -1.14165,0.41637c-0.96638,0.33511 -1.95133,0.62612 -2.95486,0.87302c1.48156,-0.79073 2.47994,-1.35036 2.99516,-1.6789c0.78293,-0.51059 1.46791,-1.0568 2.05497,-1.63861c0.14148,-0.14376 0.27579,-0.2915 0.40293,-0.44323c0.19342,-0.20839 0.37251,-0.42329 0.53725,-0.6447c0.00654,-0.00878 0.01102,-0.01773 0.01343,-0.02686c0.32773,-0.43858 0.60531,-0.89524 0.83274,-1.36998c0.5283,-1.10723 0.79244,-2.31156 0.79244,-3.61299c0,-0.81483 -0.26414,-1.88036 -0.79244,-3.19662c-0.53725,-1.34312 -1.04763,-2.1669 -1.53115,-2.47134z" fill="#303030"/><path d="M232.2905,175.61587c2.57543,-2.41667 5.51238,-4.2836 8.81085,-5.6008c0.0482,-0.01609 0.09744,-0.034 0.14774,-0.05372c0.30511,-0.11763 0.60507,-0.2206 0.89989,-0.30892l0.05373,0.20147c0.48352,0.30444 0.99391,1.12822 1.53115,2.47134c0.5283,1.31626 0.79244,2.38179 0.79244,3.19662c0,1.30142 -0.26414,2.50576 -0.79244,3.61299c-0.22742,0.47474 -0.505,0.9314 -0.83274,1.36998c-0.00241,0.00913 -0.00689,0.01808 -0.01343,0.02686c-0.16474,0.2214 -0.34383,0.4363 -0.53725,0.6447c-0.12714,0.15173 -0.26145,0.29947 -0.40293,0.44323c-0.58706,0.58181 -1.27204,1.12801 -2.05497,1.63861c-0.51521,0.32854 -1.5136,0.88817 -2.99516,1.6789c-0.03739,0.00913 -0.07768,0.01808 -0.12088,0.02686c-0.50283,0.12246 -1.01321,0.23438 -1.53115,0.33578c-0.16541,0.03456 -0.33106,0.07038 -0.49695,0.10745c-2.37392,0.55725 -4.55873,1.51086 -6.55441,2.86084c-0.39793,0.26572 -0.78744,0.54778 -1.16852,0.84616l-1.6386,1.36998c0.19699,-2.23853 0.68499,-4.43229 1.464,-6.58128c0.43218,-1.21213 0.95599,-2.36273 1.57144,-3.45181c1.03375,-1.78442 2.32314,-3.39617 3.86818,-4.83522z" fill="#141414"/></g></g></svg>