<svg version="1.1" xmlns="http://www.w3.org/2000/svg" xmlns:xlink="http://www.w3.org/1999/xlink" width="28.90253" height="50.8875" viewBox="0,0,28.90253,50.8875"><g transform="translate(-225.54874,-154.55625)"><g data-paper-data="{&quot;isPaintingLayer&quot;:true}" fill="#cccccc" fill-rule="nonzero" stroke="none" stroke-width="1" stroke-linecap="butt" stroke-linejoin="miter" stroke-miterlimit="10" stroke-dasharray="" stroke-dashoffset="0" style="mix-blend-mode: normal"><path d="M254.31237,155.40625c-0.16667,0.16667 -0.36667,0.28333 -0.6,0.35c-3.6,1.33333 -6.86667,2.78333 -9.8,4.35c-0.55482,0.28763 -1.07148,0.5043 -1.55,0.65c-0.35117,0.85247 -0.68451,1.66914 -1,2.45c-0.16667,1.00365 -0.25,2.62031 -0.25,4.85c0,1.1 -0.43333,4.8 -1.3,11.1c-0.6,4.5 -0.48333,8.13333 0.35,10.9c0.2,0.7 0.63333,1.86667 1.3,3.5c0.63333,1.5 1.05,2.68333 1.25,3.55c0.3,1.3 0.35,2.55 0.15,3.75c-0.26667,1.36667 -0.83333,2.43333 -1.7,3.2c-0.93333,0.8 -2.16667,1.25 -3.7,1.35c-1.06667,0.1 -2.45,0 -4.15,-0.3c-1.53333,-0.23333 -2.75,-0.5 -3.65,-0.8c-1.3,-0.5 -2.28333,-1.18333 -2.95,-2.05c-1.06667,-1.4 -1.4,-3.68333 -1,-6.85c0.61836,-4.94687 1.68503,-9.88021 3.2,-14.8c0.22578,-3.85091 0.90911,-7.88424 2.05,-12.1c1.1,-4.2 2.6,-7.4 4.5,-9.6c1.2,-1.4 2.61667,-2.46667 4.25,-3.2c1.76667,-0.8 3.5,-1.05 5.2,-0.75c0.14375,-0.03021 0.29375,-0.06354 0.45,-0.1c0.8,-0.2 1.43333,-0.3 1.9,-0.3c0.36667,0 0.85,0.05 1.45,0.15l1.4,0.3c0.93333,0.13333 2.35,0.1 4.25,-0.1c0.13333,0.13333 0.11667,0.3 -0.05,0.5z"/></g></g></svg>