<svg version="1.1" xmlns="http://www.w3.org/2000/svg" xmlns:xlink="http://www.w3.org/1999/xlink" width="259.60051" height="169.12431" viewBox="0,0,259.60051,169.12431"><g transform="translate(-30.62827,-71.73488)"><g data-paper-data="{&quot;isPaintingLayer&quot;:true}" fill-rule="nonzero" stroke-width="1" stroke-miterlimit="10" stroke-dasharray="" stroke-dashoffset="0" style="mix-blend-mode: normal"><g><g stroke="none" stroke-linecap="butt" stroke-linejoin="miter"><path d="M253.11809,86.22171c0.46066,-0.05381 0.89173,-0.10224 1.29321,-0.1453c0.01582,0.07632 0.05456,0.13444 0.11624,0.17437c0.09653,-0.06433 0.18855,-0.13214 0.27608,-0.20343c0.31887,-0.0325 0.61917,-0.06157 0.90089,-0.08718c-0.02259,0.02259 -0.04196,0.04196 -0.05812,0.05812c-0.35842,0.35842 -0.56184,0.72652 -0.61028,1.10431c0.6491,-0.37446 1.26422,-0.78131 1.84536,-1.22056c0.59654,-0.01937 1.50227,-0.02906 2.71719,-0.02906h1.52569l7.8319,1.07525c0.93801,0.13217 1.71781,0.24357 2.3394,0.3342c0.47057,0.728 1.0082,1.56107 1.61288,2.49923c0.39107,0.59363 0.80761,1.22812 1.24962,1.90349c0.08854,0.14008 0.17573,0.2757 0.26155,0.40685c1.17257,1.88812 2.09283,3.55428 2.76078,4.99847c0.37847,0.81268 0.71752,1.64576 1.01713,2.49923c1.23024,3.48427 1.84536,7.35421 1.84536,11.60981c0,0.20948 0,0.41775 0,0.62481c-0.01911,1.49327 -0.0966,2.9899 -0.23249,4.4899c-0.239,2.58498 -0.65553,5.18108 -1.24962,7.78831c-0.09778,0.42903 -0.19949,0.85525 -0.30514,1.27868c-0.57637,2.29963 -1.34649,4.78917 -2.31034,7.46864c-0.59877,1.70063 -1.27686,3.47334 -2.03426,5.31813c-0.27642,-0.01048 -0.5525,-0.02017 -0.82823,-0.02906c0.07731,0.35217 0.19839,0.71543 0.36326,1.08978c0.02539,0.04859 0.04961,0.09702 0.07265,0.1453c0.04499,0.08749 0.09343,0.18435 0.1453,0.29061c0.1408,0.25281 0.31032,0.5531 0.50856,0.90089c0.03954,0.06944 0.07829,0.13724 0.11624,0.20343l1.49663,2.57188c0.29061,0.48435 0.54731,0.91542 0.77011,1.29321c1.37157,1.56414 2.81009,3.10921 4.31554,4.6352c0.08567,0.11647 0.16801,0.22787 0.24702,0.3342c0.47466,0.65871 1.20602,1.53538 2.19409,2.63001l2.22315,2.4847c-0.75558,0.02906 -1.78724,-0.27608 -3.09498,-0.91542c-0.23249,-0.10656 -0.45044,-0.20827 -0.65387,-0.30514c-0.13562,-0.16468 -0.27123,-0.32451 -0.40685,-0.4795c-0.50766,-0.61645 -1.00169,-1.0233 -1.4821,-1.22056c-0.15416,-0.0677 -0.30915,-0.11129 -0.46497,-0.13077c-0.19374,-0.00969 -0.3681,0.0339 -0.5231,0.13077c-0.04756,0.02645 -0.09116,0.05551 -0.13077,0.08718c0.36701,0.46267 0.61887,0.84046 0.75558,1.13337l0.04359,0.10171c0.03436,0.00969 0.06826,0.01453 0.10171,0.01453c0.00969,0 0.01937,0 0.02906,0c0.37779,0.38748 0.74589,0.84276 1.10431,1.36586c0.37779,0.57153 0.80886,1.35617 1.29321,2.35393c0.55216,1.19149 0.98807,2.21347 1.30774,3.06592c0.41654,1.13337 0.69746,2.19894 0.84276,3.19669c0.24217,1.60803 0.19858,3.62292 -0.13077,6.04466c-0.0775,0.71683 -0.15983,1.24477 -0.24702,1.58382c-0.31967,1.37555 -0.9251,2.60579 -1.8163,3.69073c-0.46497,-1.87927 -0.87667,-3.30325 -1.23509,-4.27194c-0.45529,-1.20118 -0.99291,-2.228 -1.61288,-3.08045c-0.01937,-0.48435 -0.06297,-0.95901 -0.13077,-1.42398c-0.17437,-1.21087 -0.53278,-2.10207 -1.07525,-2.6736c-0.16468,0.09687 -0.23733,0.26639 -0.21796,0.50856c0.01937,0.23249 0.11624,0.38748 0.29061,0.46497c-0.05812,0.41654 -0.06297,0.96385 -0.01453,1.64194c0.06781,0.85245 0.10171,1.40945 0.10171,1.671l-0.10171,1.0026c-0.18405,1.51116 -0.37295,2.785 -0.56669,3.8215c-0.27123,1.36586 -0.60059,2.60579 -0.98807,3.71979c-0.60059,1.72428 -1.41429,3.35168 -2.44111,4.88222c-0.85245,1.27868 -1.8163,2.4508 -2.89155,3.51636c-0.21311,0.20343 -0.43107,0.40685 -0.65387,0.61028c0.08718,-0.28092 0.16952,-0.55216 0.24702,-0.8137c0.00969,-0.05812 0.02422,-0.1114 0.04359,-0.15983c0.30998,-1.15275 0.50372,-2.06816 0.58122,-2.74625c0.16468,-1.44336 -0.00969,-2.68813 -0.5231,-3.73432c-0.02906,0.16468 -0.08718,0.34873 -0.17437,0.55216c0.00969,-0.25186 0.01937,-0.50372 0.02906,-0.75558c0,-0.61996 -0.04359,-1.32227 -0.13077,-2.10691c-0.05812,-0.47466 -0.1889,-0.79433 -0.39232,-0.95901c-0.13562,-0.11624 -0.3003,-0.15983 -0.49403,-0.13077c-0.20343,0.03875 -0.32451,0.14046 -0.36326,0.30514c0.2228,1.45304 0.19374,2.86734 -0.08718,4.24288c-0.19374,0.98807 -0.53278,2.05848 -1.01713,3.21122c-0.31967,0.74589 -0.80402,1.76787 -1.45304,3.06592l-0.74105,1.46757c-0.51341,0.97838 -0.83308,1.57413 -0.95901,1.78724c-0.42623,0.69746 -0.98807,1.45304 -1.68553,2.26675c-1.43367,1.71459 -3.02717,3.27419 -4.78051,4.6788c0.93963,-2.23768 1.671,-4.55287 2.19409,-6.94554l-1.80177,3.96681c0.19374,-0.53278 0.39716,-1.20118 0.61028,-2.0052l0.49403,-1.85989c0.13562,-0.54247 0.21796,-0.96385 0.24702,-1.26415c0.03875,-0.47466 -0.02422,-0.87667 -0.1889,-1.20602c-0.0775,-0.17437 -0.16952,-0.26639 -0.27608,-0.27608c-0.12593,-0.02906 -0.2228,0.0339 -0.29061,0.1889c-0.06781,0.11624 -0.10656,0.26155 -0.11624,0.43591c-0.01937,0.72652 -0.2228,1.80662 -0.61028,3.24028c-0.23249,0.84276 -0.44076,1.49179 -0.62481,1.94708c-0.15499,0.35842 -0.3681,0.74589 -0.63934,1.16243c-0.1453,0.09687 -0.24702,0.2228 -0.30514,0.37779c0.01937,0 0.03875,0.00484 0.05812,0.01453c-0.26155,0.39716 -0.58122,0.83308 -0.95901,1.30774l-4.22835,4.99847c-0.61996,0.72652 -1.09947,1.26415 -1.43851,1.61288c-0.54247,0.58122 -1.05588,1.06556 -1.54022,1.45304c-0.2228,0.18405 -0.32451,0.34389 -0.30514,0.4795c-0.71683,0.51341 -1.48695,0.85729 -2.31034,1.03166c0.2228,-0.30998 0.45529,-0.75074 0.69746,-1.32227c0.28092,-0.71683 0.48435,-1.18665 0.61028,-1.40945c0.11624,-0.20343 0.30998,-0.51341 0.58122,-0.92995c0.34873,-0.62965 0.56184,-1.31258 0.63934,-2.04879c0.01937,-0.03875 0.03875,-0.08234 0.05812,-0.13077c0.13562,-0.31967 0.21796,-0.5909 0.24702,-0.8137c0.00969,-0.10656 0.00969,-0.38748 0,-0.84276c-0.00969,-0.34873 0.02906,-0.62481 0.11624,-0.82823c0.05812,-0.10656 0.09687,-0.1889 0.11624,-0.24702c0.04843,-0.09687 0.07265,-0.17921 0.07265,-0.24702c0,-0.1453 -0.0775,-0.29061 -0.23249,-0.43591c0.03875,-0.17437 0.0775,-0.34873 0.11624,-0.5231c-0.15499,0.06781 -0.29545,0.17437 -0.42138,0.31967c-0.1453,-0.06781 -0.28092,-0.07265 -0.40685,-0.01453c-0.25186,0.10656 -0.34389,0.39716 -0.27608,0.87183c0.01937,0.1453 0.0339,0.29061 0.04359,0.43591c-0.82339,1.87927 -2.0052,3.53089 -3.54542,4.95487c-0.1453,0.12593 -0.28576,0.25186 -0.42138,0.37779c-0.02906,0.01937 -0.05812,0.04359 -0.08718,0.07265c-0.02906,0.01937 -0.05328,0.0339 -0.07265,0.04359c-0.37064,0.31903 -0.75327,0.61448 -1.1479,0.88636c-0.0179,0.0025 -0.03727,0.0025 -0.05812,0c-0.11409,-0.01555 -0.23033,-0.01555 -0.34873,0c1.00249,-1.30168 1.54495,-2.57552 1.62741,-3.8215c0.00969,-0.19374 0.01937,-0.33904 0.02906,-0.43591c0.01937,-0.17437 0.05328,-0.31967 0.10171,-0.43591c0.06781,-0.15499 0.1114,-0.2567 0.13077,-0.30514c0.02906,-0.11624 0.01453,-0.20827 -0.04359,-0.27608c-0.17437,0 -0.30514,0.15983 -0.39232,0.4795c-0.0775,0.32936 -0.2228,0.74105 -0.43591,1.23509c-0.68777,1.56929 -1.62741,2.97874 -2.8189,4.22835c-0.03981,0.04181 -0.07856,0.08056 -0.11624,0.11624c-2.18142,0.92442 -4.57894,1.89312 -7.19256,2.90608c-2.06332,0.79433 -5.03237,1.90833 -8.90715,3.342c-2.52829,0.93963 -4.47053,1.60319 -5.8267,1.99067c-1.31742,0.34873 -2.30549,0.61028 -2.96421,0.78464c-1.16243,0.31967 -2.13597,0.63934 -2.92061,0.95901c-0.41654,0.16468 -1.08494,0.46982 -2.0052,0.91542c-0.85245,0.40685 -1.52569,0.7023 -2.01973,0.88636c-0.5909,0.21311 -1.40461,0.45529 -2.44111,0.72652c-1.20118,0.30998 -2.01489,0.53278 -2.44111,0.6684c-0.71589,0.22571 -1.36007,0.48242 -1.93255,0.77011c-1.07181,0.35906 -2.15675,0.73685 -3.25481,1.13337c-4.25257,1.53054 -10.44253,4.03461 -18.56988,7.51223c-0.10251,0.04386 -0.20422,0.08745 -0.30514,0.13077c-3.72399,1.59505 -6.84319,2.96576 -9.35759,4.11211c-0.43421,0.11193 -0.89434,0.25723 -1.38039,0.43591c-1.30774,0.48435 -2.40721,0.72652 -3.29841,0.72652c-0.35842,0 -0.98807,-0.1889 -1.88895,-0.56669c-0.03258,-0.01321 -0.06648,-0.02774 -0.10171,-0.04359c-2.78973,-0.10731 -5.80721,-0.57713 -9.05245,-1.40945c-4.84347,-1.24962 -7.26521,-2.85281 -7.26521,-4.80957c0,-0.63888 0.3342,-1.48649 1.0026,-2.54282c0.57134,-0.33745 1.15256,-0.66197 1.74365,-0.97354c0.26291,-0.14046 0.46634,-0.28576 0.61028,-0.43591c0.12419,0.03845 0.24528,0.06751 0.36326,0.08718c-0.07337,-0.06603 -0.15087,-0.14837 -0.23249,-0.24702c0.13864,-0.18417 0.17255,-0.37306 0.10171,-0.56669c-0.04843,-0.16468 -0.23249,-0.34873 -0.55216,-0.55216c-0.10421,-0.05702 -0.20108,-0.10546 -0.29061,-0.1453c-0.06051,-0.09751 -0.1041,-0.16532 -0.13077,-0.20343c-0.18364,-0.25844 -0.42097,-0.49577 -0.71199,-0.71199c-0.10656,-0.26987 -0.15983,-0.49752 -0.15983,-0.68293c0,-0.82339 1.49663,-2.5961 4.4899,-5.31813c5.03721,-4.56255 8.33562,-7.65269 9.89522,-9.27041c9.59008,-9.90006 14.38512,-19.61607 14.38512,-29.14803c0,-3.92321 -0.6684,-7.28458 -2.0052,-10.08411c-1.20394,-2.52443 -2.88463,-4.41339 -5.04206,-5.66686c1.30051,-1.13122 2.3467,-2.35177 3.13857,-3.66167c-0.76376,0.57683 -1.53871,1.13383 -2.32487,1.671c0.01574,-0.02531 0.03027,-0.05438 0.04359,-0.08718c0.00518,0.0028 0.01003,0.0028 0.01453,0c0.16468,-0.11624 0.27123,-0.26155 0.31967,-0.43591c0.03875,-0.16468 0.01937,-0.32936 -0.05812,-0.49403c-0.0775,-0.15499 -0.1889,-0.28576 -0.3342,-0.39232c-0.20343,-0.1453 -0.51825,-0.26639 -0.94448,-0.36326c-0.46312,-0.09899 -0.93778,-0.18133 -1.42398,-0.24702c-2.03195,-0.26094 -4.25995,-0.20766 -6.68399,0.15983c0.80402,-0.54247 1.43851,-0.93479 1.90349,-1.17696c0.73621,-0.38748 1.42882,-0.64418 2.07785,-0.77011c0.4456,-0.0775 1.114,-0.12593 2.0052,-0.1453c0.82339,0 1.43851,0.02906 1.84536,0.08718c0.39694,0.05105 0.75535,0.13338 1.07525,0.24702c0.22776,0.09263 0.43603,0.19919 0.62481,0.31967c0.28092,0.18405 0.46982,0.29545 0.56669,0.3342c0.2228,0.09687 0.41654,0.10656 0.58122,0.02906c0.10932,-0.04685 0.1965,-0.12918 0.26155,-0.24702c0.01589,-0.02619 0.03042,-0.05525 0.04359,-0.08718c0.05812,-0.15499 0.06781,-0.31483 0.02906,-0.4795c-0.05812,-0.23249 -0.23249,-0.49403 -0.5231,-0.78464c-0.82339,-0.79433 -1.97614,-1.4482 -3.45824,-1.96161c-1.75334,-0.51341 -3.06108,-0.91057 -3.92321,-1.19149c0.41654,-0.20343 1.09463,-0.35357 2.03426,-0.45044l1.07525,-0.10171c0.4456,-0.03875 0.76043,-0.04359 0.94448,-0.01453c0.26155,0.05812 0.58122,0.19374 0.95901,0.40685l1.83083,0.98807c0.5408,0.29084 1.00578,0.5427 1.39492,0.75558c0.00961,0.00749 0.01445,0.01234 0.01453,0.01453c0.4431,0.24456 0.79183,0.44314 1.04619,0.59575c0.91057,0.5231 1.69037,1.0365 2.3394,1.54022c0.34873,0.27123 0.60059,0.45044 0.75558,0.53763c0.3003,0.17437 0.58122,0.27608 0.84276,0.30514c0.46497,0.04843 0.90573,-0.10171 1.32227,-0.45044c0.2259,-0.19113 0.41964,-0.41393 0.58122,-0.6684c0.09399,0.01756 0.19086,0.00787 0.29061,-0.02906c0.25186,-0.0775 0.39716,-0.28576 0.43591,-0.62481c0.03875,-0.28092 0.00484,-0.58606 -0.10171,-0.91542c-0.84276,-2.85765 -1.39008,-4.7466 -1.64194,-5.66686c-0.58122,-2.14082 -1.02682,-4.05883 -1.3368,-5.75405c-0.09922,-0.46902 -0.23968,-0.76932 -0.42138,-0.90089c0.04526,-0.06028 0.08885,-0.12324 0.13077,-0.1889c5.00815,-7.97236 11.07218,-15.0632 18.19209,-21.27254c1.9277,-1.68553 4.63036,-3.86025 8.10798,-6.52416c3.45824,-2.64454 6.41276,-4.8241 8.86356,-6.53869c3.27419,-2.28612 6.36432,-4.25257 9.27041,-5.89935c4.7466,-2.6736 9.70148,-4.91128 14.86462,-6.71305c4.49455,-1.57685 9.06679,-2.79257 13.71672,-3.64714c0.26889,-0.04155 0.53528,-0.08514 0.79917,-0.13077c0.21243,-0.02531 0.43039,-0.04953 0.65387,-0.07265" fill="#ffffff"/><path d="M201.02365,157.82452c2.18925,0.86214 4.02008,1.46757 5.4925,1.8163c2.02457,0.49403 3.88931,0.65387 5.59421,0.4795c0.05812,0.04843 0.04843,0.09203 -0.02906,0.13077c-0.08718,0.05812 -0.17921,0.09687 -0.27608,0.11624l-2.47017,0.10171c-0.95901,0.01937 -1.66131,0.01937 -2.10691,0c-0.79433,0.00969 -1.50632,-0.04359 -2.13597,-0.15983c-1.64678,-0.2228 -3.17732,-0.78949 -4.59161,-1.70006c-0.33904,-0.20343 -0.4795,-0.41654 -0.42138,-0.63934c0.02906,-0.0775 0.0775,-0.13562 0.1453,-0.17437c0.05812,-0.03875 0.14046,-0.06297 0.24702,-0.07265c0.16468,-0.01937 0.34873,0.01453 0.55216,0.10171M190.76518,159.19174c-0.64903,0.33904 -1.60803,0.9251 -2.87702,1.75818c-0.60059,0.42623 -0.98807,0.72652 -1.16243,0.90089c-0.2228,0.25186 -0.42138,0.46013 -0.59575,0.62481c-0.10656,0.08718 -0.19858,0.15983 -0.27608,0.21796c-0.38748,0.31967 -0.7798,0.43591 -1.17696,0.34873l1.58382,-1.27868c0.78464,-0.61996 1.39492,-1.08978 1.83083,-1.40945c0.69746,-0.50372 1.34649,-0.9251 1.94708,-1.26415c1.27868,-0.69746 2.53798,-1.08009 3.77791,-1.1479c0.2228,-0.01937 0.4456,-0.02422 0.6684,-0.01453c-0.03875,0.1453 -0.2228,0.23733 -0.55216,0.27608c-1.00744,0.08718 -2.06332,0.41654 -3.16763,0.98807M190.31473,155.63178c-0.4456,0.06781 -0.84276,0.14046 -1.19149,0.21796c-0.33904,0.10656 -0.5909,0.17921 -0.75558,0.21796c-0.31967,0.0775 -0.5909,0.10656 -0.8137,0.08718c-0.17437,0 -0.29545,0.00484 -0.36326,0.01453c-0.05812,0.01937 -0.1889,0.10656 -0.39232,0.26155c-0.2228,0.16468 -0.5231,0.3003 -0.90089,0.40685c-0.61028,0.19374 -0.96385,0.30998 -1.06072,0.34873c-0.23249,0.10656 -0.53763,0.3003 -0.91542,0.58122c-0.11624,0.08718 -0.23249,0.17921 -0.34873,0.27608l-2.1505,1.75818c-0.11624,0.08718 -0.22764,0.16952 -0.3342,0.24702c-0.20343,0.15499 -0.38263,0.28092 -0.53763,0.37779c-0.31967,0.20343 -0.6345,0.32936 -0.94448,0.37779c-0.0775,-0.00969 -0.13077,-0.06781 -0.15983,-0.17437c-0.03875,-0.08718 -0.04843,-0.17921 -0.02906,-0.27608c0.09687,-0.34873 0.40685,-0.72652 0.92995,-1.13337c0.02906,-0.01937 0.05328,-0.0339 0.07265,-0.04359c0.79433,-0.67809 1.46757,-1.17696 2.01973,-1.49663c0.33904,-0.21311 0.72652,-0.4117 1.16243,-0.59575c0.24217,-0.10656 0.50372,-0.20827 0.78464,-0.30514c0.18405,-0.06781 0.86214,-0.29061 2.03426,-0.6684c0.21311,-0.06781 0.32936,-0.17921 0.34873,-0.3342c0.2228,0.08718 0.47466,0.1114 0.75558,0.07265c0.15499,-0.03875 0.39232,-0.10656 0.71199,-0.20343c1.46273,-0.41654 2.95452,-0.64903 4.47537,-0.69746c0.23249,-0.01937 0.42623,0.00484 0.58122,0.07265c0.24217,0.08718 0.36326,0.23733 0.36326,0.45044c-0.17437,0.03875 -0.39232,0.04359 -0.65387,0.01453c-0.3003,-0.04843 -0.53763,-0.07265 -0.71199,-0.07265c-0.29061,-0.02906 -0.74589,0.00969 -1.36586,0.11624l-0.61028,0.10171M198.16116,153.19202c0.09687,-0.12593 0.21311,-0.2567 0.34873,-0.39232c0.34873,-0.32936 0.69262,-0.65387 1.03166,-0.97354c0.76807,-1.09016 1.74161,-2.11213 2.92061,-3.06592c0.20914,-0.15972 0.42225,-0.31956 0.63934,-0.4795c1.38523,-1.01713 3.19185,-2.06816 5.41985,-3.1531c2.60579,-1.23024 5.89451,-2.62032 9.86616,-4.17023c2.24737,-0.88151 3.95227,-1.50632 5.11471,-1.87442c2.02457,-0.61996 4.34944,-1.12369 6.9746,-1.51116c1.59835,-0.24217 3.96681,-0.53278 7.10538,-0.87183c0.26155,-0.01937 0.51341,-0.04359 0.75558,-0.07265c0.65871,-0.2228 1.35617,-0.54247 2.09238,-0.95901c0.46497,-0.27123 1.12369,-0.69746 1.97614,-1.27868c0.65871,-0.45529 1.13822,-0.77011 1.43851,-0.94448c0.27123,-0.15499 0.67324,-0.36326 1.20602,-0.62481c0.4456,-0.27123 0.8137,-0.53763 1.10431,-0.79917c0.10656,0.05812 0.13562,0.16468 0.08718,0.31967c-0.00969,0 -0.08234,0.09203 -0.21796,0.27608c-0.28092,0.28092 -0.57153,0.73136 -0.87183,1.35133c-0.37779,0.74589 -0.63934,1.2254 -0.78464,1.43851c-0.3681,0.5231 -0.86698,1.01229 -1.49663,1.46757c-0.39716,0.28092 -0.99776,0.64903 -1.80177,1.10431c-0.47466,0.26155 -0.8912,0.47466 -1.24962,0.63934c0.06781,0.05812 0.14046,0.12109 0.21796,0.1889c0.28092,0.24217 0.52794,0.38748 0.74105,0.43591c-0.72652,0.23249 -1.49179,0.43107 -2.29581,0.59575c-0.70715,0.15499 -1.59835,0.28576 -2.6736,0.39232c-1.51116,0.17437 -2.39752,0.27123 -2.65907,0.29061c-1.99551,0.26155 -4.21867,0.76043 -6.66946,1.49663c-1.47242,0.43591 -3.62776,1.15759 -6.46604,2.16503l-6.29167,2.25222c-2.69297,0.96869 -4.60614,1.71943 -5.73952,2.25222c-2.92546,1.34649 -5.59906,3.09014 -8.02079,5.23095c-0.29061,0.26155 -0.54247,0.4456 -0.75558,0.55216c-0.0775,0.02906 -0.15015,0.04843 -0.21796,0.05812c-0.18405,0.05812 -0.38263,0.06297 -0.59575,0.01453c-0.18405,-0.05812 -0.31967,-0.16952 -0.40685,-0.3342c-0.15499,-0.28092 -0.09687,-0.61996 0.17437,-1.01713M232.48202,120.1049c-3.70041,3.06108 -7.9433,6.84867 -12.72865,11.36279c-5.48281,5.26001 -9.59977,9.19776 -12.35086,11.81323c-1.53054,1.44336 -2.73656,2.54282 -3.61807,3.29841c-0.68274,0.59075 -1.3463,1.13322 -1.99067,1.62741c-0.64887,0.49876 -1.27853,0.94921 -1.88895,1.35133c-0.01873,0.01245 -0.0381,0.02214 -0.05812,0.02906c-0.46558,0.54455 -0.86759,0.92718 -1.20602,1.1479c-0.3541,0.22912 -0.74158,0.3938 -1.16243,0.49403c-0.13145,-0.10482 -0.2816,-0.16778 -0.45044,-0.1889v0.05812c-0.23268,-0.05369 -0.4361,0.02864 -0.61028,0.24702c-0.03406,0.00072 -0.06796,0.00072 -0.10171,0c-0.82339,-0.01937 -1.62256,-0.2228 -2.39752,-0.61028c-0.6684,-0.32936 -1.34164,-0.79917 -2.01973,-1.40945c-0.46497,-0.42623 -1.04135,-1.02197 -1.72912,-1.78724c-0.55216,-0.62965 -0.90089,-1.14306 -1.04619,-1.54022c-0.17437,-0.4456 -0.14046,-0.78949 0.10171,-1.03166c0.25186,-0.27123 0.6684,-0.27123 1.24962,0c0.61028,0.28092 1.46757,0.88151 2.57188,1.80177c1.06556,0.88151 1.93255,1.45789 2.60095,1.72912c0.4739,0.19934 0.95825,0.32527 1.45304,0.37779c0.14266,0.0775 0.27343,0.11624 0.39232,0.11624c0.11738,-0.01022 0.21425,-0.03928 0.29061,-0.08718c0.02721,0.00008 0.05142,0.00008 0.07265,0c4.70668,-3.40133 10.54791,-8.54994 17.52369,-15.44584c4.46568,-4.42694 7.44442,-7.34271 8.93621,-8.74731c3.40981,-3.20638 6.55806,-5.91388 9.44477,-8.12251c1.14306,-0.87183 2.13597,-1.48695 2.97874,-1.84536c1.19149,-0.50372 2.28612,-0.62481 3.28388,-0.36326c0.43591,0.10656 0.90089,0.30514 1.39492,0.59575c0.29061,0.17437 0.70715,0.46013 1.24962,0.85729l1.65647,1.20602c-0.83569,-0.57486 -1.82376,-0.89937 -2.96421,-0.97354c-1.09463,-0.06781 -2.19409,0.09203 -3.29841,0.4795c-0.93963,0.32936 -1.91802,0.83792 -2.93515,1.52569c-0.6684,0.45529 -1.54991,1.13337 -2.64454,2.03426M250.12482,85.43707c1.41626,-0.23854 2.90805,-0.41775 4.47537,-0.53763c0.10239,-0.00776 0.20411,-0.01744 0.30514,-0.02906c0.27971,-0.0148 0.56548,-0.03417 0.85729,-0.05812c0.29871,-0.00999 0.60384,-0.02452 0.91542,-0.04359c0.17357,-0.00284 0.34794,-0.00768 0.5231,-0.01453c0.13104,-0.11431 0.26181,-0.2354 0.39232,-0.36326c0.37957,-0.03175 0.75736,-0.0705 1.13337,-0.11624c-0.00053,0.00534 -0.00537,0.01018 -0.01453,0.01453c-0.01298,0.01756 -0.02751,0.03209 -0.04359,0.04359c-0.07791,0.08071 -0.15541,0.15821 -0.23249,0.23249c-0.05638,0.05475 -0.1145,0.10803 -0.17437,0.15983c0.06595,-0.00136 0.12892,-0.00621 0.1889,-0.01453h0.01453c0.86797,-0.01173 1.78823,-0.01657 2.76078,-0.01453c0.15779,-0.05286 0.32247,-0.09645 0.49403,-0.13077c0.49403,-0.10656 1.21087,-0.1114 2.1505,-0.01453c0.24887,0.02751 0.49105,0.05657 0.72652,0.08718c0.05835,0.00742 0.11163,0.01226 0.15983,0.01453c0.63173,0.08866 1.22748,0.18553 1.78724,0.29061c0.47197,0.09441 0.91757,0.19612 1.3368,0.30514c0.37552,0.09524 0.72909,0.19696 1.06072,0.30514c0.54133,0.17679 1.06927,0.38021 1.58382,0.61028c0.03126,0.01915 0.06032,0.03368 0.08718,0.04359c0.47122,0.21807 0.9265,0.4554 1.36586,0.71199c0.32796,0.19279 0.64763,0.39622 0.95901,0.61028c-0.17399,-0.02899 -0.44038,-0.07258 -0.79917,-0.13077c-0.23355,-0.03046 -0.51447,-0.06921 -0.84276,-0.11624c-0.62159,-0.09063 -1.40139,-0.20203 -2.3394,-0.3342l-7.8319,-1.07525h-1.52569c-1.21492,0 -2.12065,0.00969 -2.71719,0.02906c-0.58114,0.43924 -1.19626,0.84609 -1.84536,1.22056c0.04843,-0.37779 0.25186,-0.74589 0.61028,-1.10431c0.01616,-0.01616 0.03553,-0.03553 0.05812,-0.05812c-0.28172,0.02562 -0.58201,0.05468 -0.90089,0.08718c-0.12483,0.01044 -0.25561,0.02013 -0.39232,0.02906c-0.40148,0.04306 -0.83255,0.0915 -1.29321,0.1453c-0.22348,0.02312 -0.44144,0.04734 -0.65387,0.07265c-0.26389,0.04563 -0.53028,0.08923 -0.79917,0.13077c-4.64992,0.85457 -9.22216,2.07028 -13.71672,3.64714c-5.16314,1.80177 -10.11802,4.03946 -14.86462,6.71305c-2.90608,1.64678 -5.99622,3.61323 -9.27041,5.89935c-2.4508,1.71459 -5.40532,3.89415 -8.86356,6.53869c-3.47761,2.66391 -6.18027,4.83863 -8.10798,6.52416c-7.11991,6.20933 -13.18394,13.30018 -18.19209,21.27254c-0.04193,0.06565 -0.08552,0.12862 -0.13077,0.1889c0.18171,0.13157 0.32217,0.43186 0.42138,0.90089c0.30998,1.69522 0.75558,3.61323 1.3368,5.75405c0.25186,0.92026 0.79917,2.80921 1.64194,5.66686c0.10656,0.32936 0.14046,0.6345 0.10171,0.91542c-0.03875,0.33904 -0.18405,0.54731 -0.43591,0.62481c-0.09975,0.03693 -0.19661,0.04662 -0.29061,0.02906c-0.16158,0.25447 -0.35531,0.47727 -0.58122,0.6684c-0.41654,0.34873 -0.85729,0.49888 -1.32227,0.45044c-0.26155,-0.02906 -0.54247,-0.13077 -0.84276,-0.30514c-0.15499,-0.08718 -0.40685,-0.26639 -0.75558,-0.53763c-0.64903,-0.50372 -1.42882,-1.01713 -2.3394,-1.54022c-0.25436,-0.15261 -0.60309,-0.35119 -1.04619,-0.59575c-0.00008,-0.00219 -0.00492,-0.00704 -0.01453,-0.01453c-0.38914,-0.21289 -0.85412,-0.46475 -1.39492,-0.75558l-1.83083,-0.98807c-0.37779,-0.21311 -0.69746,-0.34873 -0.95901,-0.40685c-0.18405,-0.02906 -0.49888,-0.02422 -0.94448,0.01453l-1.07525,0.10171c-0.93963,0.09687 -1.61772,0.24702 -2.03426,0.45044c0.86214,0.28092 2.16988,0.67809 3.92321,1.19149c1.4821,0.51341 2.63485,1.16728 3.45824,1.96161c0.29061,0.29061 0.46497,0.55216 0.5231,0.78464c0.03875,0.16468 0.02906,0.32451 -0.02906,0.4795c-0.01317,0.03194 -0.0277,0.061 -0.04359,0.08718c-0.06505,0.11783 -0.15223,0.20017 -0.26155,0.24702c-0.16468,0.0775 -0.35842,0.06781 -0.58122,-0.02906c-0.09687,-0.03875 -0.28576,-0.15015 -0.56669,-0.3342c-0.18878,-0.12048 -0.39705,-0.22704 -0.62481,-0.31967c-0.3199,-0.11363 -0.67831,-0.19597 -1.07525,-0.24702c-0.40685,-0.05812 -1.02197,-0.08718 -1.84536,-0.08718c-0.8912,0.01937 -1.5596,0.06781 -2.0052,0.1453c-0.64903,0.12593 -1.34164,0.38263 -2.07785,0.77011c-0.46497,0.24217 -1.09947,0.6345 -1.90349,1.17696c2.42405,-0.3675 4.65204,-0.42078 6.68399,-0.15983c0.4862,0.06569 0.96086,0.14803 1.42398,0.24702c0.42623,0.09687 0.74105,0.21796 0.94448,0.36326c0.1453,0.10656 0.2567,0.23733 0.3342,0.39232c0.0775,0.16468 0.09687,0.32936 0.05812,0.49403c-0.04843,0.17437 -0.15499,0.31967 -0.31967,0.43591c-0.0045,0.0028 -0.00935,0.0028 -0.01453,0c-0.01332,0.03281 -0.02785,0.06187 -0.04359,0.08718c0.78616,-0.53717 1.56111,-1.09417 2.32487,-1.671c-0.79187,1.30989 -1.83806,2.53045 -3.13857,3.66167c-0.09486,0.08813 -0.19658,0.17531 -0.30514,0.26155c-0.04079,0.03932 -0.08438,0.07806 -0.13077,0.11624c-0.00428,-0.03954 -0.00912,-0.07829 -0.01453,-0.11624c-0.00443,-0.03095 -0.00927,-0.06486 -0.01453,-0.10171c-0.73659,1.04222 -1.62779,2.04482 -2.6736,3.0078c-1.5596,1.41429 -3.55995,2.82859 -6.00106,4.24288c-2.35393,1.37555 -5.94779,3.21122 -10.78157,5.50703c-4.91128,2.32487 -8.51483,4.15086 -10.81063,5.47797c-2.09238,1.20118 -4.43178,2.69781 -7.01819,4.4899c-4.29132,2.98358 -7.91908,5.91388 -10.88329,8.79091c-3.60354,3.4873 -6.48057,7.10538 -8.63107,10.85422c-2.42174,4.22351 -3.899,8.63591 -4.43178,13.23721c-0.56184,4.93066 0.04843,9.45446 1.83083,13.57141c0.3003,0.6684 0.57637,1.17212 0.82823,1.51116c-0.00761,0.09876 -0.03667,0.18594 -0.08718,0.26155c0.53308,0.67729 1.10461,1.35053 1.71459,2.01973l0.15983,-0.02906c0.01937,-0.09687 0.10171,-0.25186 0.24702,-0.46497l0.98807,-1.3368c0.18405,-0.23249 0.30998,-0.37779 0.37779,-0.43591c0.30998,-0.21311 0.52794,-0.38263 0.65387,-0.50856c0.11624,-0.10656 0.24702,-0.28092 0.39232,-0.5231c0.16468,-0.25186 0.29061,-0.42623 0.37779,-0.5231c0.12593,-0.12593 0.31967,-0.26639 0.58122,-0.42138c0.30998,-0.18405 0.51341,-0.31483 0.61028,-0.39232c0.1453,-0.10656 0.30514,-0.26639 0.4795,-0.4795l0.43591,-0.5231c0.2228,-0.24217 0.42138,-0.42623 0.59575,-0.55216c0.25186,-0.18405 0.48435,-0.33904 0.69746,-0.46497c0.85245,-0.51341 1.56929,-0.89604 2.1505,-1.1479l0.10171,0.1453c0.08472,-0.0546 0.16222,-0.10788 0.23249,-0.15983c0.07663,-0.13338 0.2413,-0.25932 0.49403,-0.37779c0.04541,-0.02062 0.089,-0.04 0.13077,-0.05812c0.46702,-0.29757 1.00949,-0.60271 1.62741,-0.91542c0.46497,-0.23249 1.17212,-0.57153 2.12144,-1.01713c0.04843,-0.01937 1.3707,-0.69262 3.96681,-2.01973c1.58866,-0.8137 2.93515,-1.43367 4.03946,-1.85989c3.25481,-1.2593 6.1609,-1.64194 8.71825,-1.1479c0.25799,0.04968 0.52923,0.11265 0.8137,0.1889c0.89684,0.24316 1.93818,0.62095 3.12404,1.13337c0.5909,0.25186 1.04135,0.47466 1.35133,0.6684c0.13853,0.0837 0.26446,0.17088 0.37779,0.26155c0.29102,0.21622 0.52835,0.45355 0.71199,0.71199c0.02668,0.0381 0.07027,0.10591 0.13077,0.20343c0.08953,0.03985 0.1864,0.08828 0.29061,0.1453c0.31967,0.20343 0.50372,0.38748 0.55216,0.55216c0.07084,0.19363 0.03693,0.38252 -0.10171,0.56669c0.08162,0.09865 0.15912,0.18099 0.23249,0.24702c-0.11798,-0.01968 -0.23907,-0.04874 -0.36326,-0.08718c-0.14394,0.15015 -0.34737,0.29545 -0.61028,0.43591c-0.59109,0.31157 -1.17231,0.63608 -1.74365,0.97354c-1.32817,0.78351 -2.602,1.63596 -3.8215,2.55735c-0.38748,0.29061 -0.96385,0.73136 -1.72912,1.32227c-0.24959,0.1917 -0.49176,0.36606 -0.72652,0.5231c-0.07462,0.06236 -0.15212,0.12048 -0.23249,0.17437c-0.28792,0.20475 -0.55916,0.38396 -0.8137,0.53763c-0.19643,0.12211 -0.42407,0.25288 -0.68293,0.39232c-0.67563,0.39107 -1.56198,0.86089 -2.65907,1.40945c-1.45304,0.77496 -3.57448,2.16503 -6.36432,4.17023c-2.06741,1.47359 -3.79168,2.61665 -5.17283,3.42918c1.97977,1.30081 4.10605,2.31794 6.37886,3.05139c2.4508,0.78464 4.94034,1.19634 7.46864,1.23509c4.1557,0.0775 8.78606,-0.8912 13.89108,-2.90608c1.85989,-0.72652 4.07336,-1.71459 6.6404,-2.96421c0.66136,-0.31971 1.47022,-0.71203 2.42658,-1.17696c0.53176,-0.26378 1.10813,-0.54955 1.72912,-0.85729c0.73504,-0.35528 1.52936,-0.74275 2.38299,-1.16243c0.9438,-0.45464 2.03358,-0.96321 3.26934,-1.52569c2.51441,-1.14635 5.6336,-2.51705 9.35759,-4.11211c0.10092,-0.04333 0.20263,-0.08692 0.30514,-0.13077c8.12735,-3.47761 14.31731,-5.98169 18.56988,-7.51223c1.09807,-0.39652 2.18301,-0.77431 3.25481,-1.13337c0.57248,-0.28769 1.21666,-0.5444 1.93255,-0.77011c0.42623,-0.13562 1.23993,-0.35842 2.44111,-0.6684c1.0365,-0.27123 1.85021,-0.51341 2.44111,-0.72652c0.49403,-0.18405 1.16728,-0.4795 2.01973,-0.88636c0.92026,-0.4456 1.58866,-0.75074 2.0052,-0.91542c0.78464,-0.31967 1.75818,-0.63934 2.92061,-0.95901c0.65871,-0.17437 1.64678,-0.43591 2.96421,-0.78464c1.35617,-0.38748 3.29841,-1.05103 5.8267,-1.99067c3.87478,-1.43367 6.84383,-2.54767 8.90715,-3.342c2.61362,-1.01297 5.01114,-1.98166 7.19256,-2.90608c0.03769,-0.03568 0.07644,-0.07443 0.11624,-0.11624c1.19149,-1.24962 2.13113,-2.65907 2.8189,-4.22835c0.21311,-0.49403 0.35842,-0.90573 0.43591,-1.23509c0.08718,-0.31967 0.21796,-0.4795 0.39232,-0.4795c0.05812,0.06781 0.07265,0.15983 0.04359,0.27608c-0.01937,0.04843 -0.06297,0.15015 -0.13077,0.30514c-0.04843,0.11624 -0.08234,0.26155 -0.10171,0.43591c-0.00969,0.09687 -0.01937,0.24217 -0.02906,0.43591c-0.08245,1.24598 -0.62492,2.51982 -1.62741,3.8215c0.1184,-0.01555 0.23464,-0.01555 0.34873,0c0.02085,0.0025 0.04022,0.0025 0.05812,0c0.39463,-0.27188 0.77726,-0.56733 1.1479,-0.88636c0.01937,-0.00969 0.04359,-0.02422 0.07265,-0.04359c0.02906,-0.02906 0.05812,-0.05328 0.08718,-0.07265c0.13562,-0.12593 0.27608,-0.25186 0.42138,-0.37779c1.54022,-1.42398 2.72203,-3.07561 3.54542,-4.95487c-0.00969,-0.1453 -0.02422,-0.29061 -0.04359,-0.43591c-0.06781,-0.47466 0.02422,-0.76527 0.27608,-0.87183c0.12593,-0.05812 0.26155,-0.05328 0.40685,0.01453c0.12593,-0.1453 0.26639,-0.25186 0.42138,-0.31967c-0.03875,0.17437 -0.0775,0.34873 -0.11624,0.5231c0.15499,0.1453 0.23249,0.29061 0.23249,0.43591c0,0.06781 -0.02422,0.15015 -0.07265,0.24702c-0.01937,0.05812 -0.05812,0.14046 -0.11624,0.24702c-0.08718,0.20343 -0.12593,0.4795 -0.11624,0.82823c0.00969,0.45529 0.00969,0.73621 0,0.84276c-0.02906,0.2228 -0.1114,0.49403 -0.24702,0.8137c-0.01937,0.04843 -0.03875,0.09203 -0.05812,0.13077c-0.0775,0.73621 -0.29061,1.41914 -0.63934,2.04879c-0.27123,0.41654 -0.46497,0.72652 -0.58122,0.92995c-0.12593,0.2228 -0.32936,0.69262 -0.61028,1.40945c-0.24217,0.57153 -0.47466,1.01229 -0.69746,1.32227c0.82339,-0.17437 1.5935,-0.51825 2.31034,-1.03166c-0.01937,-0.13562 0.08234,-0.29545 0.30514,-0.4795c0.48435,-0.38748 0.99776,-0.87183 1.54022,-1.45304c0.33904,-0.34873 0.81855,-0.88636 1.43851,-1.61288l4.22835,-4.99847c0.37779,-0.47466 0.69746,-0.91057 0.95901,-1.30774c-0.01937,-0.00969 -0.03875,-0.01453 -0.05812,-0.01453c0.05812,-0.15499 0.15983,-0.28092 0.30514,-0.37779c0.27123,-0.41654 0.48435,-0.80402 0.63934,-1.16243c0.18405,-0.45529 0.39232,-1.10431 0.62481,-1.94708c0.38748,-1.43367 0.5909,-2.51376 0.61028,-3.24028c0.00969,-0.17437 0.04843,-0.31967 0.11624,-0.43591c0.06781,-0.15499 0.16468,-0.21796 0.29061,-0.1889c0.10656,0.00969 0.19858,0.10171 0.27608,0.27608c0.16468,0.32936 0.22764,0.73136 0.1889,1.20602c-0.02906,0.3003 -0.1114,0.72168 -0.24702,1.26415l-0.49403,1.85989c-0.21311,0.80402 -0.41654,1.47242 -0.61028,2.0052l1.80177,-3.96681c-0.5231,2.39268 -1.25446,4.70786 -2.19409,6.94554c1.75334,-1.40461 3.34684,-2.96421 4.78051,-4.6788c0.69746,-0.8137 1.2593,-1.56929 1.68553,-2.26675c0.12593,-0.21311 0.4456,-0.80886 0.95901,-1.78724l0.74105,-1.46757c0.64903,-1.29805 1.13337,-2.32002 1.45304,-3.06592c0.48435,-1.15275 0.82339,-2.22315 1.01713,-3.21122c0.28092,-1.37555 0.30998,-2.78984 0.08718,-4.24288c0.03875,-0.16468 0.15983,-0.26639 0.36326,-0.30514c0.19374,-0.02906 0.35842,0.01453 0.49403,0.13077c0.20343,0.16468 0.3342,0.48435 0.39232,0.95901c0.08718,0.78464 0.13077,1.48695 0.13077,2.10691c-0.00969,0.25186 -0.01937,0.50372 -0.02906,0.75558c0.08718,-0.20343 0.1453,-0.38748 0.17437,-0.55216c0.51341,1.04619 0.68777,2.29096 0.5231,3.73432c-0.0775,0.67809 -0.27123,1.5935 -0.58122,2.74625c-0.01937,0.04843 -0.0339,0.10171 -0.04359,0.15983c-0.0775,0.26155 -0.15983,0.53278 -0.24702,0.8137c0.2228,-0.20343 0.44076,-0.40685 0.65387,-0.61028c1.07525,-1.06556 2.0391,-2.23768 2.89155,-3.51636c1.02682,-1.53054 1.84052,-3.15794 2.44111,-4.88222c0.38748,-1.114 0.71683,-2.35393 0.98807,-3.71979c0.19374,-1.0365 0.38263,-2.31034 0.56669,-3.8215l0.10171,-1.0026c0,-0.26155 -0.0339,-0.81855 -0.10171,-1.671c-0.04843,-0.67809 -0.04359,-1.2254 0.01453,-1.64194c-0.17437,-0.0775 -0.27123,-0.23249 -0.29061,-0.46497c-0.01937,-0.24217 0.05328,-0.4117 0.21796,-0.50856c0.54247,0.57153 0.90089,1.46273 1.07525,2.6736c0.06781,0.46497 0.1114,0.93963 0.13077,1.42398c0.61996,0.85245 1.15759,1.87927 1.61288,3.08045c0.35842,0.96869 0.77011,2.39268 1.23509,4.27194c0.8912,-1.08494 1.49663,-2.31518 1.8163,-3.69073c0.08718,-0.33904 0.16952,-0.86698 0.24702,-1.58382c0.32936,-2.42174 0.37295,-4.43662 0.13077,-6.04466c-0.1453,-0.99776 -0.42623,-2.06332 -0.84276,-3.19669c-0.31967,-0.85245 -0.75558,-1.87442 -1.30774,-3.06592c-0.48435,-0.99776 -0.91542,-1.7824 -1.29321,-2.35393c-0.35842,-0.5231 -0.72652,-0.97838 -1.10431,-1.36586c-0.00969,0 -0.01937,0 -0.02906,0c-0.03345,0 -0.06735,-0.00484 -0.10171,-0.01453l-0.04359,-0.10171c-0.13671,-0.29292 -0.38858,-0.67071 -0.75558,-1.13337c0.03962,-0.03167 0.08321,-0.06073 0.13077,-0.08718c0.15499,-0.09687 0.32936,-0.14046 0.5231,-0.13077c0.15582,0.01949 0.31081,0.06308 0.46497,0.13077c0.48041,0.19726 0.97445,0.60411 1.4821,1.22056c0.13562,0.15499 0.27123,0.31483 0.40685,0.4795c0.20343,0.09687 0.42138,0.19858 0.65387,0.30514c1.30774,0.63934 2.3394,0.94448 3.09498,0.91542l-2.22315,-2.4847c-0.98807,-1.09463 -1.71943,-1.97129 -2.19409,-2.63001c-0.07901,-0.10633 -0.16135,-0.21773 -0.24702,-0.3342c-1.50545,-1.526 -2.94396,-3.07107 -4.31554,-4.6352c-0.2228,-0.37779 -0.4795,-0.80886 -0.77011,-1.29321l-1.49663,-2.57188c-0.03795,-0.06618 -0.0767,-0.13399 -0.11624,-0.20343c-0.19824,-0.34778 -0.36776,-0.64808 -0.50856,-0.90089c-0.05188,-0.10625 -0.10031,-0.20312 -0.1453,-0.29061c-0.02304,-0.04828 -0.04726,-0.09672 -0.07265,-0.1453c-0.16487,-0.37435 -0.28595,-0.73761 -0.36326,-1.08978c0.27574,0.00889 0.55182,0.01858 0.82823,0.02906c0.02388,0.0081 0.04809,0.01294 0.07265,0.01453l0.74105,1.07525c0.00605,-0.00257 0.0109,-0.00742 0.01453,-0.01453c0.05078,0.07761 0.10406,0.15026 0.15983,0.21796c0.01112,0.01362 0.02081,0.02815 0.02906,0.04359c0.01597,0.0137 0.0305,0.02823 0.04359,0.04359c-0.01695,-0.00666 -0.03633,-0.01635 -0.05812,-0.02906c-0.00265,0.00288 -0.00749,0.00288 -0.01453,0l1.78724,2.54282c0.19941,0.27665 0.40284,0.55272 0.61028,0.82823c0.00674,0.02316 0.01642,0.04738 0.02906,0.07265c0.15499,0.31967 0.38263,0.69262 0.68293,1.11884c0.21311,0.29061 0.37779,0.49403 0.49403,0.61028l0.23249,0.24702l0.21796,0.30514c0.04843,0.0775 0.1889,0.24217 0.42138,0.49403l0.97354,1.01713c0.12843,0.12843 0.24467,0.23014 0.34873,0.30514c1.29589,1.47041 2.69566,2.94283 4.19929,4.41725l1.671,1.96161c0.95802,1.11771 1.75235,2.03312 2.38299,2.74625c0.37696,0.599 0.62882,0.97679 0.75558,1.13337c0.1453,0.18405 0.24217,0.31967 0.29061,0.40685c0.0775,0.16468 0.09687,0.31483 0.05812,0.45044c-0.00696,0.02255 -0.01665,0.04193 -0.02906,0.05812c0.06928,0.06807 0.13709,0.13104 0.20343,0.1889c-0.17811,0.13005 -0.41544,0.18818 -0.71199,0.17437c-0.03992,-0.00318 -0.08351,-0.00802 -0.13077,-0.01453c-0.07515,-0.01498 -0.16233,-0.0392 -0.26155,-0.07265c-0.15654,-0.05146 -0.33575,-0.12896 -0.53763,-0.23249c-1.12369,-0.51341 -2.00035,-0.93479 -2.63001,-1.26415c-0.94932,-0.50372 -1.76302,-1.03166 -2.44111,-1.58382c-0.33904,-0.3003 -0.64418,-0.56184 -0.91542,-0.78464c0.92026,1.37555 1.671,2.86249 2.25222,4.46084c0.80402,2.23768 1.19634,4.53349 1.17696,6.88742c-0.01937,0.97838 -0.09203,2.02457 -0.21796,3.13857c-0.17437,1.34649 -0.42138,2.46048 -0.74105,3.342c-0.26155,0.6684 -0.76043,1.63709 -1.49663,2.90608l-1.1479,1.96161c-0.17437,0.30998 -0.34873,0.49888 -0.5231,0.56669c-0.2228,0.11624 -0.46013,0.09203 -0.71199,-0.07265c-0.23249,-0.16468 -0.38748,-0.37295 -0.46497,-0.62481c-0.06781,-0.20343 -0.09687,-0.46497 -0.08718,-0.78464c0.01937,-0.3681 0.02906,-0.63934 0.02906,-0.8137c0.00969,-0.39716 -0.09203,-1.0365 -0.30514,-1.91802c-0.40685,-1.65647 -0.81855,-3.10467 -1.23509,-4.3446c-0.08718,0.78464 -0.21796,1.57897 -0.39232,2.38299c-0.3681,1.64678 -1.00744,3.61323 -1.91802,5.89935c-0.33904,0.86214 -0.64418,1.53054 -0.91542,2.0052c-0.30998,0.5231 -0.71199,1.07041 -1.20602,1.64194c-0.31967,0.37779 -0.79433,0.87183 -1.42398,1.4821l-2.29581,2.3394c-0.5231,0.50372 -0.91057,0.92995 -1.16243,1.27868c-0.32936,0.46497 -0.54247,0.74589 -0.63934,0.84276c-0.28092,0.28092 -0.57637,0.40685 -0.88636,0.37779c-0.03875,-0.23249 0.01453,-0.50372 0.15983,-0.8137c0.02906,-0.0775 0.16468,-0.34389 0.40685,-0.79917c0.35842,-0.69746 0.64418,-1.52569 0.85729,-2.4847c0.00969,-0.11624 0.02906,-0.23733 0.05812,-0.36326c0.01937,-0.08718 0.03875,-0.17921 0.05812,-0.27608c0.06781,-0.42623 0.13562,-1.0026 0.20343,-1.72912c-0.15499,0.46497 -0.3342,0.93963 -0.53763,1.42398c-0.08718,0.20343 -0.19374,0.43591 -0.31967,0.69746c-0.32936,0.71683 -0.78464,1.64194 -1.36586,2.77531c-0.74589,1.47242 -1.39976,2.62516 -1.96161,3.45824c-0.97838,1.4821 -2.27643,2.94968 -3.89415,4.40272c-1.09463,0.99776 -2.63001,2.23284 -4.60614,3.70526c-0.49403,0.35842 -0.85729,0.42138 -1.08978,0.1889c-0.25186,-0.24217 -0.16952,-0.6345 0.24702,-1.17696c0.41654,-0.53278 0.81855,-1.16243 1.20602,-1.88895c0.24217,-0.46497 0.557,-1.10431 0.94448,-1.91802c-0.25186,0.41654 -0.7023,1.02197 -1.35133,1.8163l-0.94448,1.10431c-0.56184,0.78464 -0.96869,1.32227 -1.22056,1.61288c-0.46497,0.53278 -1.16243,1.23993 -2.09238,2.12144c-1.02682,0.93963 -1.74365,1.63225 -2.1505,2.07785c-0.42623,0.50372 -0.75558,0.87183 -0.98807,1.10431c-0.38748,0.40685 -0.77011,0.70715 -1.1479,0.90089c-0.25186,0.12593 -0.61512,0.26639 -1.08978,0.42138l-0.55216,0.17437c-0.67809,0.20343 -1.13337,0.15015 -1.36586,-0.15983c-0.02906,-0.05812 -0.05328,-0.12109 -0.07265,-0.1889c-0.10656,0.15499 -0.21311,0.30998 -0.31967,0.46497l-0.26155,-0.05812c0.19374,-0.2228 0.37779,-0.44076 0.55216,-0.65387c-0.00969,-0.15499 0.01937,-0.33904 0.08718,-0.55216c0.31967,-0.98807 0.78949,-2.02457 1.40945,-3.10951c0.2228,-0.41654 0.54247,-0.95416 0.95901,-1.61288c0.0775,-0.12593 0.16468,-0.26155 0.26155,-0.40685c0,-0.06781 0.00484,-0.13562 0.01453,-0.20343c0.04843,-0.23249 0.08718,-0.42623 0.11624,-0.58122c-0.18405,0.35842 -0.38748,0.71683 -0.61028,1.07525c-0.14746,0.23597 -0.30245,0.46845 -0.46497,0.69746c-0.24895,0.58954 -0.52987,1.16591 -0.84276,1.72912c0.00969,-0.05812 0.02422,-0.11624 0.04359,-0.17437c0.27865,-0.49634 0.53536,-1.00491 0.77011,-1.52569c-0.36746,0.51848 -0.77916,1.0222 -1.23509,1.51116c-1.12369,1.18181 -2.35877,2.12144 -3.70526,2.8189c-0.27123,0.3003 -0.54731,0.59575 -0.82823,0.88636c-0.02906,-0.18405 -0.05328,-0.3681 -0.07265,-0.55216c0.04828,-0.0414 0.09672,-0.08499 0.1453,-0.13077c-0.12862,0.06047 -0.26423,0.11859 -0.40685,0.17437c-0.31706,0.29984 -0.63188,0.56139 -0.94448,0.78464c-0.34873,0.26155 -0.61028,0.29545 -0.78464,0.10171c0.03409,-0.0918 0.07284,-0.18382 0.11624,-0.27608l-21.76657,7.68659c-2.39268,0.85245 -4.08789,1.50148 -5.08565,1.94708c-0.82339,0.38748 -1.43851,0.67809 -1.84536,0.87183c-0.72652,0.32936 -1.35617,0.5909 -1.88895,0.78464c-0.25186,0.08718 -1.29321,0.39232 -3.12404,0.91542c-1.11899,0.3185 -2.03441,0.65754 -2.74625,1.01713c0.03856,0.06051 0.08215,0.1041 0.13077,0.13077c-0.28822,0.10754 -0.57883,0.20925 -0.87183,0.30514c-0.32682,0.21432 -0.58837,0.379 -0.78464,0.49403c-0.49403,0.3003 -0.93479,0.50856 -1.32227,0.62481c-0.30998,0.08718 -0.50372,0.04359 -0.58122,-0.13077c-0.00409,-0.00814 -0.00893,-0.01782 -0.01453,-0.02906c-2.55796,0.91258 -4.80049,1.72628 -6.72759,2.44111c-4.30801,1.59808 -8.39105,3.18674 -12.24915,4.76598c-4.43999,1.82811 -8.58116,3.64441 -12.42351,5.44891c-1.28155,0.59949 -2.43914,1.14196 -3.47277,1.62741c-4.07147,1.90103 -6.24619,2.91331 -6.52416,3.03686c-3.83603,1.67584 -7.28458,2.89155 -10.34566,3.64714c-3.81666,0.92995 -7.47832,1.2593 -10.985,0.98807c-3.92321,-0.3003 -7.38145,-1.34164 -10.37472,-3.12404c-0.57153,-0.32936 -0.92026,-0.67324 -1.04619,-1.03166c-0.03103,-0.08616 -0.0504,-0.17334 -0.05812,-0.26155c-0.05279,0.0302 -0.10606,0.05926 -0.15983,0.08718c-0.20343,0.11624 -0.39716,0.17921 -0.58122,0.1889c-0.2228,0.01937 -0.38263,-0.04359 -0.4795,-0.1889c-0.09687,-0.1453 -0.09203,-0.31967 0.01453,-0.5231c0.0775,-0.16468 0.20827,-0.31483 0.39232,-0.45044c0.3003,-0.2228 0.67324,-0.45529 1.11884,-0.69746c0.5231,-0.27123 0.91057,-0.4795 1.16243,-0.62481c1.29805,-0.69746 3.05139,-1.8163 5.26001,-3.35653c2.3733,-1.64678 4.11211,-2.78984 5.21642,-3.42918c1.2125,-0.6457 2.18603,-1.18816 2.92061,-1.62741c0.24229,-0.14152 0.4554,-0.27229 0.63934,-0.39232c-0.23154,-0.17209 -0.49793,-0.39005 -0.79917,-0.65387c-0.06664,-0.05491 -0.13444,-0.11303 -0.20343,-0.17437c-0.62965,-0.55216 -1.11884,-0.93479 -1.46757,-1.1479c-0.72652,-0.4456 -1.58382,-0.72652 -2.57188,-0.84276l-1.42398,-0.10171c-0.15499,-0.01937 -0.71683,-0.10171 -1.68553,-0.24702c-1.42398,-0.19374 -2.85765,-0.20343 -4.301,-0.02906c-1.44336,0.17437 -2.83343,0.52794 -4.17023,1.06072c-0.40685,0.17437 -0.72652,0.24702 -0.95901,0.21796c-0.1198,-0.01998 -0.22636,-0.06841 -0.31967,-0.1453c-0.69742,0.4635 -1.38035,0.95269 -2.04879,1.46757c-0.12733,0.0991 -0.25326,0.19597 -0.37779,0.29061l-0.72652,0.91542c-0.42623,0.54247 -0.78949,0.93479 -1.08978,1.17696c-0.04843,0.03875 -0.1889,0.1453 -0.42138,0.31967c-0.17437,0.13562 -0.30998,0.25186 -0.40685,0.34873c-0.12593,0.13562 -0.29545,0.35357 -0.50856,0.65387c-0.18405,0.23249 -0.49403,0.55216 -0.92995,0.95901c-0.5909,0.58122 -1.07525,1.25446 -1.45304,2.01973c-0.1453,0.32936 -0.27123,0.56669 -0.37779,0.71199c-0.18405,0.23249 -0.38748,0.37295 -0.61028,0.42138c-0.42623,0.08718 -0.88636,-0.18405 -1.38039,-0.8137c-1.0365,-1.3368 -1.78724,-2.44111 -2.25222,-3.31294c-0.08533,-0.15541 -0.16767,-0.32009 -0.24702,-0.49403c-0.0803,-0.12158 -0.15779,-0.26204 -0.23249,-0.42138c-1.71459,-3.65198 -2.4847,-7.67691 -2.31034,-12.07478c0.16468,-4.13633 1.12853,-8.18063 2.89155,-12.1329c2.93515,-6.59681 8.13219,-13.00473 15.59114,-19.22375c4.57224,-3.81666 9.45446,-7.18287 14.64667,-10.09864c1.94708,-1.09463 4.70301,-2.52829 8.26781,-4.301c4.00071,-1.98582 6.78086,-3.39528 8.34046,-4.22835c5.21351,-2.80729 9.46123,-5.69884 12.74318,-8.67466c0.09138,0.04272 0.17857,0.08631 0.26155,0.13077c-0.08298,-0.04446 -0.17016,-0.08805 -0.26155,-0.13077c0.02361,-0.021 0.04783,-0.04522 0.07265,-0.07265c-0.04961,-0.03031 -0.10289,-0.05937 -0.15983,-0.08718c0.02899,-0.01657 0.06289,-0.03595 0.10171,-0.05812c0.07632,-0.05089 0.13444,-0.09933 0.17437,-0.1453c0.22015,-0.13562 0.43326,-0.27608 0.63934,-0.42138c0.2127,-0.19241 0.41612,-0.391 0.61028,-0.59575c-0.02248,0.00708 -0.04669,0.01192 -0.07265,0.01453c-0.21311,0.01937 -0.57637,-0.04359 -1.08978,-0.1889c-0.28902,-0.0823 -0.57963,-0.15495 -0.87183,-0.21796c-1.1188,-0.25186 -2.26186,-0.37779 -3.42918,-0.37779c-1.47242,0 -2.90608,0.19858 -4.301,0.59575c-0.40685,0.11624 -0.71199,0.15983 -0.91542,0.13077c-0.15499,-0.01937 -0.29545,-0.0775 -0.42138,-0.17437c-0.12593,-0.11624 -0.19374,-0.24702 -0.20343,-0.39232c-0.00969,-0.11624 0.04843,-0.29061 0.17437,-0.5231c0.68777,-1.12369 1.94708,-2.1505 3.77791,-3.08045c1.76302,-0.88151 3.28872,-1.29321 4.57708,-1.23509l-4.37366,-1.78724c-0.19374,-0.0775 -0.32451,-0.15983 -0.39232,-0.24702c-0.08718,-0.13562 -0.08234,-0.28576 0.01453,-0.45044c0.08718,-0.15499 0.20827,-0.26155 0.36326,-0.31967c0.12593,-0.04843 0.28576,-0.07265 0.4795,-0.07265c0.10656,0 0.27123,0.00484 0.49403,0.01453c0.28092,-0.00969 0.62481,-0.07265 1.03166,-0.1889c0.2228,-0.06781 0.56184,-0.16952 1.01713,-0.30514c1.40461,-0.34873 3.11435,-0.15983 5.12924,0.56669c1.99551,0.70715 3.91353,1.70975 5.75405,3.0078c0.68777,0.47466 1.20118,0.58606 1.54022,0.3342c0.12601,-0.0924 0.25194,-0.28614 0.37779,-0.58122c-1.37767,-4.38841 -2.37058,-8.01618 -2.97874,-10.88329c-0.10584,-0.47633 -0.12521,-0.86865 -0.05812,-1.17696c-0.15635,-0.01975 -0.2726,-0.11662 -0.34873,-0.29061c3.74885,-6.92617 9.12026,-13.63922 16.11424,-20.13916c5.1244,-4.7466 11.99728,-10.10833 20.61867,-16.08518c3.63261,-2.51861 6.67915,-4.52865 9.13964,-6.03012c3.40012,-2.07301 6.61619,-3.77307 9.6482,-5.10018c4.8297,-2.12432 9.48912,-3.45627 13.97827,-3.99587c1.14987,-0.30703 2.36074,-0.56858 3.63261,-0.78464M127.21198,221.03496c1.22373,-0.23642 2.45398,-0.3236 3.69073,-0.26155c0.57153,0.02906 1.39492,0.12109 2.47017,0.27608l0.97354,0.1453c1.39492,0.19374 2.43142,0.3681 3.10951,0.5231c0.60059,0.1453 1.07041,0.3003 1.40945,0.46497c0.37779,0.18405 0.86214,0.53278 1.45304,1.04619l0.01453,0.01453l1.68553,1.43851c0.31233,-0.21262 0.64653,-0.45479 1.0026,-0.72652c0.8137,-0.61996 1.42398,-1.08494 1.83083,-1.39492c1.63482,-1.21321 3.32035,-2.28362 5.05659,-3.21122c-0.19896,-0.09403 -0.65425,-0.32652 -1.36586,-0.69746c-1.59975,-0.85321 -3.19809,-1.46349 -4.79504,-1.83083c-0.13781,-0.02933 -0.27827,-0.05839 -0.42138,-0.08718c-1.93739,-0.38748 -3.76822,-0.39232 -5.4925,-0.01453c-0.98807,0.21311 -2.13597,0.61028 -3.44371,1.19149c-1.47242,0.70715 -2.58157,1.22056 -3.32747,1.54022c-1.34649,0.53278 -2.35393,0.93963 -3.02233,1.22056c-0.27729,0.11901 -0.55337,0.24009 -0.82823,0.36326M152.32055,177.67618c-0.20343,-0.00969 -0.46013,-0.02906 -0.77011,-0.05812c0.31967,0 0.65871,0.02422 1.01713,0.07265c-0.09687,-0.00969 -0.17921,-0.01453 -0.24702,-0.01453M225.4231,92.80399l0.27608,-0.27608c0.23287,-0.14474 0.46535,-0.29004 0.69746,-0.43591c-0.33874,0.36723 -0.69231,0.66269 -1.06072,0.88636l0.08718,-0.17437M167.62109,158.17636c-0.18042,0.19117 -0.38385,0.38975 -0.61028,0.59575c-0.02422,-0.04889 -0.05328,-0.09732 -0.08718,-0.1453h0.01453c0.13562,-0.04843 0.28092,-0.13077 0.43591,-0.24702c0.06603,-0.0462 0.14837,-0.11401 0.24702,-0.20343z" fill="#000000"/><path d="M131.06255,219.45115c0.74589,-0.31967 1.85505,-0.83308 3.32747,-1.54022c1.30774,-0.58122 2.45564,-0.97838 3.44371,-1.19149c1.72428,-0.37779 3.55511,-0.37295 5.4925,0.01453c0.14311,0.0288 0.28357,0.05786 0.42138,0.08718c1.59695,0.36735 3.19529,0.97762 4.79504,1.83083c0.71161,0.37094 1.1669,0.60343 1.36586,0.69746c-1.73623,0.9276 -3.42176,1.99801 -5.05659,3.21122c-0.40685,0.30998 -1.01713,0.77496 -1.83083,1.39492c-0.35607,0.27173 -0.69027,0.5139 -1.0026,0.72652l-1.68553,-1.43851l-0.01453,-0.01453c-0.5909,-0.51341 -1.07525,-0.86214 -1.45304,-1.04619c-0.33904,-0.16468 -0.80886,-0.31967 -1.40945,-0.46497c-0.67809,-0.15499 -1.71459,-0.32936 -3.10951,-0.5231l-0.97354,-0.1453c-1.07525,-0.15499 -1.89864,-0.24702 -2.47017,-0.27608c-1.23675,-0.06206 -2.46699,0.02513 -3.69073,0.26155c0.27487,-0.12317 0.55095,-0.24425 0.82823,-0.36326c0.6684,-0.28092 1.67584,-0.68777 3.02233,-1.22056z" fill="#425b63"/><path d="M255.76263,84.81226c-0.29182,0.02395 -0.57758,0.04333 -0.85729,0.05812c0.04427,-0.10557 0.08302,-0.21697 0.11624,-0.3342c0.29254,-0.00719 0.58315,-0.01688 0.87183,-0.02906c-0.03621,0.10538 -0.0798,0.2071 -0.13077,0.30514M257.59346,84.39088c-0.13051,0.12786 -0.26128,0.24895 -0.39232,0.36326c-0.17516,0.00685 -0.34952,0.01169 -0.5231,0.01453c0.00386,-0.09104 0.01839,-0.19276 0.04359,-0.30514c0.28981,-0.0196 0.58042,-0.04382 0.87183,-0.07265M147.83065,223.78121c0,1.95676 2.42174,3.55995 7.26521,4.80957c3.24524,0.83232 6.26273,1.30214 9.05245,1.40945c0.03523,0.01585 0.06913,0.03039 0.10171,0.04359c0.90089,0.37779 1.53054,0.56669 1.88895,0.56669c0.8912,0 1.99067,-0.24217 3.29841,-0.72652c0.48605,-0.17868 0.94618,-0.32398 1.38039,-0.43591c-1.23577,0.56249 -2.32555,1.07105 -3.26934,1.52569c-0.85362,0.41968 -1.64795,0.80716 -2.38299,1.16243c-0.62099,0.30775 -1.19736,0.59351 -1.72912,0.85729c-0.95636,0.46494 -1.76522,0.85726 -2.42658,1.17696c-2.56704,1.24962 -4.78051,2.23768 -6.6404,2.96421c-5.10502,2.01489 -9.73538,2.98358 -13.89108,2.90608c-2.52829,-0.03875 -5.01784,-0.45044 -7.46864,-1.23509c-2.2728,-0.73345 -4.39909,-1.75058 -6.37886,-3.05139c1.38115,-0.81253 3.10542,-1.95559 5.17283,-3.42918c2.78984,-2.0052 4.91128,-3.39528 6.36432,-4.17023c1.09708,-0.54856 1.98344,-1.01838 2.65907,-1.40945c0.25886,-0.13944 0.4865,-0.27021 0.68293,-0.39232c0.25455,-0.15367 0.52578,-0.33288 0.8137,-0.53763c0.08037,-0.05388 0.15787,-0.11201 0.23249,-0.17437c0.23476,-0.15703 0.47693,-0.3314 0.72652,-0.5231c0.76527,-0.5909 1.34164,-1.03166 1.72912,-1.32227c1.2195,-0.9214 2.49333,-1.77385 3.8215,-2.55735c-0.6684,1.05633 -1.0026,1.90394 -1.0026,2.54282M170.99215,157.58061c0.10856,-0.08624 0.21027,-0.17342 0.30514,-0.26155c2.15743,1.25348 3.83811,3.14243 5.04206,5.66686c1.3368,2.79953 2.0052,6.1609 2.0052,10.08411c0,9.53196 -4.79504,19.24797 -14.38512,29.14803c-1.5596,1.61772 -4.858,4.70786 -9.89522,9.27041c-2.99327,2.72203 -4.4899,4.49474 -4.4899,5.31813c0,0.18541 0.05328,0.41306 0.15983,0.68293c-0.11333,-0.09066 -0.23926,-0.17785 -0.37779,-0.26155c-0.30998,-0.19374 -0.76043,-0.41654 -1.35133,-0.6684c-1.18586,-0.51242 -2.2272,-0.89022 -3.12404,-1.13337c-0.28448,-0.07625 -0.55571,-0.13921 -0.8137,-0.1889c-2.55735,-0.49403 -5.46344,-0.1114 -8.71825,1.1479c-1.10431,0.42623 -2.4508,1.04619 -4.03946,1.85989c-2.5961,1.32711 -3.91837,2.00035 -3.96681,2.01973c-0.94932,0.4456 -1.65647,0.78464 -2.12144,1.01713c-0.61792,0.31271 -1.16039,0.61785 -1.62741,0.91542c-0.04177,0.01813 -0.08537,0.0375 -0.13077,0.05812c-0.25273,0.11848 -0.41741,0.24441 -0.49403,0.37779c-0.07027,0.05195 -0.14776,0.10523 -0.23249,0.15983l-0.10171,-0.1453c-0.58122,0.25186 -1.29805,0.6345 -2.1505,1.1479c-0.21311,0.12593 -0.4456,0.28092 -0.69746,0.46497c-0.17437,0.12593 -0.37295,0.30998 -0.59575,0.55216l-0.43591,0.5231c-0.17437,0.21311 -0.3342,0.37295 -0.4795,0.4795c-0.09687,0.0775 -0.3003,0.20827 -0.61028,0.39232c-0.26155,0.15499 -0.45529,0.29545 -0.58122,0.42138c-0.08718,0.09687 -0.21311,0.27123 -0.37779,0.5231c-0.1453,0.24217 -0.27608,0.41654 -0.39232,0.5231c-0.12593,0.12593 -0.34389,0.29545 -0.65387,0.50856c-0.06781,0.05812 -0.19374,0.20343 -0.37779,0.43591l-0.98807,1.3368c-0.1453,0.21311 -0.22764,0.3681 -0.24702,0.46497l-0.15983,0.02906c-0.60997,-0.66919 -1.1815,-1.34244 -1.71459,-2.01973c0.05052,-0.0756 0.07958,-0.16279 0.08718,-0.26155c-0.25186,-0.33904 -0.52794,-0.84276 -0.82823,-1.51116c-1.7824,-4.11695 -2.39268,-8.64076 -1.83083,-13.57141c0.53278,-4.6013 2.01004,-9.0137 4.43178,-13.23721c2.1505,-3.74885 5.02753,-7.36692 8.63107,-10.85422c2.96421,-2.87702 6.59197,-5.80733 10.88329,-8.79091c2.58642,-1.79209 4.92581,-3.28872 7.01819,-4.4899c2.29581,-1.32711 5.89935,-3.1531 10.81063,-5.47797c4.83379,-2.29581 8.42764,-4.13148 10.78157,-5.50703c2.44111,-1.41429 4.44147,-2.82859 6.00106,-4.24288c1.04581,-0.96298 1.93701,-1.96558 2.6736,-3.0078c0.00526,0.03686 0.0101,0.07076 0.01453,0.10171c0.00541,0.03795 0.01025,0.0767 0.01453,0.11624c0.04639,-0.03818 0.08998,-0.07693 0.13077,-0.11624M152.56757,177.69072c-0.35842,-0.04843 -0.69746,-0.07265 -1.01713,-0.07265c0.30998,0.02906 0.56669,0.04843 0.77011,0.05812c0.06781,0 0.15015,0.00484 0.24702,0.01453M258.45075,84.71055c-0.05998,0.00832 -0.12294,0.01317 -0.1889,0.01453c0.05986,-0.0518 0.11798,-0.10508 0.17437,-0.15983c0.07708,-0.07428 0.15457,-0.15177 0.23249,-0.23249c-0.06913,0.14228 -0.14179,0.26821 -0.21796,0.37779M254.52754,86.25077c-0.06168,-0.03992 -0.10043,-0.09804 -0.11624,-0.17437c0.13671,-0.00893 0.26749,-0.01862 0.39232,-0.02906c-0.08752,0.07129 -0.17955,0.1391 -0.27608,0.20343z" fill="#5b5d5e"/></g><path d="M170.54897,156.91221c-0.08783,-0.04446 -0.17743,-0.08805 -0.26881,-0.13077c-0.06675,-0.03012 -0.09581,-0.0834 -0.08718,-0.15983" fill="none" stroke-opacity="0.96863" stroke="#000000" stroke-linecap="round" stroke-linejoin="round"/></g><path d="M67.43383,228.77968c2.38299,-0.45529 4.72723,-1.15759 7.03272,-2.10691c0.53278,-0.2228 0.86698,-0.35842 1.0026,-0.40685c0.38748,-0.13562 0.73621,-0.2228 1.04619,-0.26155c0.0775,0.15499 0.02906,0.3003 -0.1453,0.43591c-0.06781,0.04843 -0.21796,0.10656 -0.45044,0.17437c-0.27123,0.06781 -0.84276,0.29061 -1.71459,0.6684c-0.86214,0.38748 -2.12629,0.83792 -3.79244,1.35133c-0.80402,0.25186 -1.41914,0.42138 -1.84536,0.50856c-0.69746,0.13562 -1.32711,0.16952 -1.88895,0.10171c0.06781,-0.2228 0.31967,-0.37779 0.75558,-0.46497M61.12763,194.03744c-3.49699,-0.16468 -8.75216,-0.24702 -15.76551,-0.24702c8.19516,1.9277 16.11424,4.73692 23.75724,8.42764c7.63331,3.69073 14.74838,8.14672 21.34519,13.36799c0.55216,0.40685 0.84276,0.80402 0.87183,1.19149c0.03875,0.49403 -0.27123,0.95416 -0.92995,1.38039c-0.79433,0.51341 -1.67584,0.8137 -2.64454,0.90089c-0.97838,0.09687 -1.90833,-0.0339 -2.78984,-0.39232c-3.32262,2.78015 -6.98913,5.0469 -10.99953,6.80024c-4.02008,1.75334 -8.17578,2.90608 -12.4671,3.45824l5.07112,-1.52569c4.456,-1.35617 7.82221,-2.58642 10.09864,-3.69073c3.57448,-1.74365 6.32558,-3.86994 8.25328,-6.37886c0.73621,0.45529 1.5596,0.62481 2.47017,0.50856c0.92026,-0.11624 1.68069,-0.48435 2.28128,-1.10431c-8.33078,-6.79055 -17.53822,-12.24915 -27.62233,-16.37579c-10.0938,-4.12664 -20.49274,-6.67915 -31.19682,-7.65753l-0.23249,-1.04619c0.62965,-0.21311 1.3707,-0.27123 2.22315,-0.17437c0.3681,0.03875 1.12369,0.17437 2.26675,0.40685c2.86734,0.60059 6.37886,0.91542 10.53456,0.94448c2.36362,0.01937 5.91388,-0.00484 10.6508,-0.07265c2.08269,0.01937 5.27939,0.16468 9.59008,0.43591c4.20414,0.25186 7.39598,0.38748 9.57555,0.40685c3.54542,0.02906 6.74212,-0.17437 9.59008,-0.61028c3.39043,-0.51341 6.45635,-1.3707 9.19776,-2.57188c0.0775,0.17437 0.0339,0.35357 -0.13077,0.53763c-0.12593,0.15499 -0.30514,0.28092 -0.53763,0.37779c-4.35913,2.04395 -9.69663,3.14826 -16.01252,3.31294c-2.24737,0.06781 -4.98878,0.01937 -8.22422,-0.1453c-3.65198,-0.2228 -6.39339,-0.37779 -8.22422,-0.46497M91.67057,168.72545c2.40236,3.30325 4.23804,6.04466 5.50703,8.22422c1.82115,3.13857 3.12888,6.13668 3.92321,8.99433c0.78464,2.82859 0.95416,5.29392 0.50856,7.39598c-0.26155,1.26899 -0.75558,2.41205 -1.4821,3.42918c-0.77496,1.09463 -1.70975,1.88895 -2.80437,2.38299c1.35617,-1.35617 2.30549,-3.06592 2.84796,-5.12924c0.49403,-1.89864 0.59575,-3.88447 0.30514,-5.95747c-0.26155,-1.80177 -0.8137,-3.70526 -1.65647,-5.71046c-0.63934,-1.51116 -1.54507,-3.29356 -2.71719,-5.3472c-5.74436,-10.06474 -12.8788,-19.13172 -21.40331,-27.20095c-8.5342,-8.07891 -17.97898,-14.70963 -28.33432,-19.89215c-0.46497,-0.2228 -0.70715,-0.46982 -0.72652,-0.74105c-0.02906,-0.29061 0.13077,-0.49403 0.4795,-0.61028c0.3003,-0.10656 0.61996,-0.12109 0.95901,-0.04359c0.69746,0.18405 1.42882,0.5231 2.19409,1.01713c0.42623,0.28092 1.08009,0.77011 1.96161,1.46757c4.24288,3.35168 9.33337,6.8293 15.27147,10.43284c2.69297,1.64678 8.04985,4.7466 16.07065,9.29947c6.74212,3.82634 12.04088,6.99398 15.89628,9.5029c5.68624,3.69073 10.60236,7.37661 14.74838,11.05765c-0.40685,0.15499 -0.92026,-0.02422 -1.54022,-0.53763c-5.80248,-4.70786 -12.68021,-9.50774 -20.6332,-14.39965c-4.79504,-2.95452 -12.07962,-7.14897 -21.85375,-12.58335c4.02008,3.24513 8.03532,7.14897 12.04572,11.71152c3.13857,3.58417 6.61619,7.99658 10.43284,13.23721M67.44836,142.28008c-0.23249,-0.10656 -0.43591,-0.15499 -0.61028,-0.1453c0.04843,0.03875 0.12593,0.11624 0.23249,0.23249c0.08718,0.10656 0.16468,0.17921 0.23249,0.21796c0.1453,0.09687 0.38748,0.18405 0.72652,0.26155l0.11624,-0.11624c-0.20343,-0.17437 -0.35842,-0.29061 -0.46497,-0.34873l-0.23249,-0.10171M174.8863,73.30417c1.71459,-0.92995 3.35653,-1.45304 4.92581,-1.56929c-9.60945,5.27939 -18.3713,11.82292 -26.28553,19.6306c-7.90455,7.79799 -14.56433,16.46781 -19.97933,26.00945c-5.415,9.54164 -9.44477,19.7081 -12.08931,30.49936c-2.64454,10.78157 -3.77307,21.65517 -3.38559,32.6208c-0.71683,-2.44111 -1.114,-5.17767 -1.19149,-8.20969c-0.04843,-2.31518 0.09203,-5.10502 0.42138,-8.36952c1.62741,-15.9544 5.65718,-30.07313 12.08931,-42.35618c4.46568,-8.51483 10.46675,-16.77779 18.00319,-24.7889c6.36432,-6.78086 14.0606,-13.61016 23.08884,-20.48789c1.77271,-1.35617 3.24028,-2.34908 4.40272,-2.97874M180.82924,73.08621c-0.32936,0.37779 -0.73621,0.75558 -1.22056,1.13337c-0.28092,0.21311 -0.73621,0.53278 -1.36586,0.95901c-8.56326,5.91873 -16.36125,12.77224 -23.39398,20.56055c-7.03272,7.79799 -13.05801,16.2547 -18.07584,25.37012c-5.00815,9.11542 -8.91684,18.73456 -11.72605,28.85742c-2.80921,10.11317 -4.41725,20.37165 -4.8241,30.77543c-0.45529,-13.17425 1.58866,-26.36787 6.13184,-39.58087c4.35913,-12.6899 10.70408,-24.51766 19.03485,-35.48329c4.88222,-6.42245 10.30691,-12.37508 16.27407,-17.85789c5.97685,-5.4925 12.36539,-10.40378 19.16563,-14.73385z" fill="#000000" stroke="none" stroke-linecap="butt" stroke-linejoin="miter"/><path d="M156.5582,188.74751c-0.01818,0.85464 -0.15002,1.67745 -0.3955,2.46844l-0.20457,0.65461c-0.09092,0.24548 -0.19548,0.45004 -0.31367,0.6137c-0.08183,0.1091 -0.25912,0.27731 -0.53187,0.50459c-0.23639,0.20002 -0.3955,0.37277 -0.47732,0.51823c-0.10001,0.28185 -0.19093,0.48641 -0.27276,0.6137c-0.06364,0.08183 -0.21366,0.20912 -0.45004,0.38186c-0.31822,0.2273 -0.6137,0.51369 -0.88646,0.85918c-0.20002,0.26367 -0.36368,0.45004 -0.49096,0.55915c-0.21821,0.16366 -0.43186,0.22275 -0.64097,0.17729c0.01666,-0.02497 0.03485,-0.05224 0.05455,-0.08183h0.01364c0.6728,-0.82736 1.42287,-1.59562 2.25023,-2.30479c0.01818,-0.20002 0.1091,-0.39096 0.27276,-0.57278c0.01818,-0.01818 0.17729,-0.18184 0.47732,-0.49096c0.3455,-0.31822 0.60915,-0.71371 0.79099,-1.18649c0.1182,-0.30004 0.23185,-0.76826 0.34095,-1.40469l0.13638,-0.9001c0.01818,-0.1182 0.05455,-0.21366 0.1091,-0.2864c0.06364,-0.09092 0.13638,-0.13183 0.21821,-0.12274M149.72565,182.18772c0.10001,0.05455 0.20002,0.12274 0.30004,0.20457c0.65461,0.4455 1.18195,0.99556 1.58198,1.65017c0.32731,0.51823 0.57278,1.10921 0.73644,1.77292c0.40005,1.41833 0.46368,2.87304 0.19093,4.3641c-0.28185,1.49106 -0.86827,2.82303 -1.75928,3.99588c-0.12729,0.17275 -0.26367,0.3455 -0.40914,0.51823c-1.01829,1.16376 -2.42753,2.2275 -4.22772,3.19124c-2.50026,1.13649 -4.35501,1.99112 -5.56422,2.56391c-1.1274,0.5546 -2.24114,1.15922 -3.34126,1.81383c-2.98214,1.7911 -5.21419,3.77768 -6.69616,5.95972c-0.16366,0.2273 -0.3364,0.3955 -0.51823,0.50459c-0.1182,0.06364 -0.21821,0.09547 -0.30004,0.09547c0.03637,0.17275 0.07728,0.3364 0.12274,0.49096c-0.3364,-0.13638 -0.59551,-0.48186 -0.77735,-1.03648c-0.30913,-0.90919 -0.4455,-1.95476 -0.40914,-3.13669c0.02728,-0.84554 0.16366,-1.9093 0.40914,-3.19124c0.50005,-2.56391 1.1183,-4.76868 1.85474,-6.61434c0.9001,-2.29115 2.05022,-4.21863 3.45037,-5.78243c0.60006,-0.6728 1.61835,-1.63199 3.05487,-2.87758c1.4456,-1.24559 2.58664,-2.14113 3.42309,-2.68665c1.19104,-0.77281 2.56391,-1.42742 4.11862,-1.96385c1.57289,-0.52732 3.18215,-0.86827 4.82778,-1.02284c1.65472,-0.15456 3.2958,-0.12274 4.92325,0.09547c0.51823,0.07274 0.9501,0.20457 1.29559,0.3955c0.42731,0.2273 0.6728,0.54096 0.73644,0.94101c-1.17286,-0.21821 -2.20932,-0.35459 -3.10942,-0.40914c-1.30013,-0.08183 -2.60482,-0.02728 -3.91405,0.16366M148.52552,183.21055c-0.28185,-0.08183 -0.4955,-0.15002 -0.64097,-0.20457c-0.23639,-0.10001 -0.41823,-0.21366 -0.54551,-0.34095c-1.19104,0.30913 -2.35025,0.71371 -3.47764,1.21377c-0.51823,0.23639 -1.02284,0.48641 -1.51379,0.75008c-2.61846,1.40924 -4.9187,3.26398 -6.90073,5.56422c-2.00022,2.30024 -3.50037,4.84597 -4.50048,7.63717c-0.5546,1.5638 -0.97283,3.21852 -1.25468,4.96416c-0.3455,2.16386 -0.36823,4.04134 -0.06819,5.63241c0.80918,-1.2365 1.84111,-2.41844 3.09578,-3.54583c1.10012,-0.98192 2.4639,-1.99112 4.09134,-3.02759c1.26378,-0.82736 2.63664,-1.62744 4.11862,-2.40025c0.26367,-0.13638 0.57278,-0.29549 0.92737,-0.47732l1.82747,-2.49572c0.71826,-1.00011 1.20922,-1.74109 1.47288,-2.22296c0.23639,-0.40914 0.39096,-0.79099 0.46368,-1.14558c0.03637,-0.16366 0.06819,-0.36823 0.09547,-0.6137c0.01818,-0.28185 0.03637,-0.49096 0.05455,-0.62734l0.17729,-1.09103c0.05455,-0.40914 0.08183,-0.64097 0.08183,-0.69553c0.01818,-0.27276 -0.01818,-0.6137 -0.1091,-1.02284l-0.24548,-1.52743c-0.06364,-0.41823 -0.12729,-0.7228 -0.19093,-0.91373c-0.15456,-0.48186 -0.38641,-0.92283 -0.69553,-1.32286c-0.28185,-0.35459 -0.59551,-0.66825 -0.94101,-0.94101c-0.1182,-0.10001 -0.17729,-0.18639 -0.17729,-0.25912c0.01818,-0.10001 0.08637,-0.15456 0.20457,-0.16366c0.10001,-0.00909 0.19548,0.01818 0.2864,0.08183c0.50914,0.28185 0.83645,0.53187 0.98192,0.75008c0.08183,0.12729 0.18639,0.3364 0.31367,0.62734c0.02728,0.05455 0.12274,0.1682 0.2864,0.34095c0.1091,0.13638 0.18639,0.25458 0.23185,0.35459c0.02728,0.08183 0.05455,0.2273 0.08183,0.4364c0.01818,0.18184 0.05455,0.31822 0.1091,0.40914c0.00909,0.01818 0.0591,0.08637 0.15002,0.20457c0.04546,0.09092 0.07728,0.16366 0.09547,0.21821c0.01818,0.07274 0.01818,0.15456 0,0.24548c-0.00909,0.04546 -0.03182,0.1182 -0.06819,0.21821c-0.03637,0.18184 -0.03182,0.41369 0.01364,0.69553c0.03637,0.16366 0.08183,0.40005 0.13638,0.70916c0.04546,0.30913 0.03182,0.76372 -0.04091,1.36378l-0.24548,1.99112c-0.06364,0.45459 -0.14547,0.78645 -0.24548,0.99556c-0.05455,0.08183 -0.13183,0.19093 -0.23185,0.32731c-0.1182,0.15456 -0.19548,0.26367 -0.23185,0.32731c-0.16366,0.32731 -0.2864,0.56824 -0.36823,0.7228c-0.13638,0.26367 -0.41369,0.69098 -0.83191,1.28195l-1.732,2.38661c0.45459,-0.2273 0.97738,-0.48641 1.56835,-0.77735c1.27287,-0.64552 2.31842,-1.22741 3.13669,-1.74564c1.18195,-0.72735 2.07295,-1.4456 2.67301,-2.15477c1.08194,-1.27287 1.67745,-2.84121 1.78655,-4.70504c0.08183,-1.34559 -0.12729,-2.53663 -0.62734,-3.57311c-0.27276,-0.5546 -0.62734,-1.04557 -1.06375,-1.47288c-0.45459,-0.4455 -0.95919,-0.77281 -1.51379,-0.98192z" fill="#000000" stroke="none" stroke-linecap="butt" stroke-linejoin="miter"/><path d="M145.48429,186.62001c0.06364,0.19093 0.12729,0.4955 0.19093,0.91373l0.24548,1.52743c0.09092,0.40914 0.12729,0.75008 0.1091,1.02284c0,0.05455 -0.02728,0.2864 -0.08183,0.69553l-0.17729,1.09103c-0.01818,0.13638 -0.03637,0.3455 -0.05455,0.62734c-0.02728,0.24548 -0.0591,0.45004 -0.09547,0.6137c-0.07274,0.35459 -0.2273,0.73644 -0.46368,1.14558c-0.26367,0.48186 -0.75462,1.22286 -1.47288,2.22296l-1.82747,2.49572c-0.35459,0.18184 -0.6637,0.34095 -0.92737,0.47732c-1.48197,0.77281 -2.85485,1.57289 -4.11862,2.40025c-1.62744,1.03648 -2.99122,2.04568 -4.09134,3.02759c-1.25468,1.1274 -2.2866,2.30933 -3.09578,3.54583c-0.30004,-1.59108 -0.27731,-3.46855 0.06819,-5.63241c0.28185,-1.74564 0.70007,-3.40036 1.25468,-4.96416c1.00011,-2.79121 2.50026,-5.33693 4.50048,-7.63717c1.98203,-2.30024 4.28227,-4.15498 6.90073,-5.56422c0.49096,-0.26367 0.99556,-0.51369 1.51379,-0.75008l0.01364,0.05455c-0.1182,0.00909 -0.18639,0.06364 -0.20457,0.16366c0,0.07274 0.0591,0.15911 0.17729,0.25912c0.3455,0.27276 0.65916,0.58642 0.94101,0.94101c0.30913,0.40005 0.54096,0.841 0.69553,1.32286z" fill="#141414" stroke="none" stroke-linecap="butt" stroke-linejoin="miter"/><path d="M151.7304,189.23847c-0.1091,1.86384 -0.70462,3.43218 -1.78655,4.70504c-0.60006,0.70916 -1.49106,1.42742 -2.67301,2.15477c-0.81827,0.51823 -1.86384,1.10012 -3.13669,1.74564c-0.59097,0.29094 -1.11376,0.55005 -1.56835,0.77735l1.732,-2.38661c0.41823,-0.59097 0.69553,-1.01829 0.83191,-1.28195c0.08183,-0.15456 0.20457,-0.3955 0.36823,-0.7228c0.03637,-0.06364 0.11365,-0.17275 0.23185,-0.32731c0.10001,-0.13638 0.17729,-0.24548 0.23185,-0.32731c0.10001,-0.20912 0.18184,-0.54096 0.24548,-0.99556l0.24548,-1.99112c0.07274,-0.60006 0.08637,-1.05466 0.04091,-1.36378c-0.05455,-0.30913 -0.10001,-0.54551 -0.13638,-0.70916c-0.04546,-0.28185 -0.05001,-0.51369 -0.01364,-0.69553c0.03637,-0.10001 0.0591,-0.17275 0.06819,-0.21821c0.01818,-0.09092 0.01818,-0.17275 0,-0.24548c-0.01818,-0.05455 -0.05001,-0.12729 -0.09547,-0.21821c-0.09092,-0.1182 -0.14093,-0.18639 -0.15002,-0.20457c-0.05455,-0.09092 -0.09092,-0.2273 -0.1091,-0.40914c-0.02728,-0.20912 -0.05455,-0.35459 -0.08183,-0.4364c-0.04546,-0.10001 -0.12274,-0.21821 -0.23185,-0.35459c-0.16366,-0.17275 -0.25912,-0.2864 -0.2864,-0.34095c-0.12729,-0.29094 -0.23185,-0.50005 -0.31367,-0.62734c-0.14547,-0.21821 -0.47277,-0.46823 -0.98192,-0.75008c-0.09092,-0.06364 -0.18639,-0.09092 -0.2864,-0.08183l-0.01364,-0.05455c1.1274,-0.50005 2.2866,-0.90464 3.47764,-1.21377c0.12729,0.12729 0.30913,0.24094 0.54551,0.34095c0.14547,0.05455 0.35913,0.12274 0.64097,0.20457c0.5546,0.20912 1.05921,0.53642 1.51379,0.98192c0.4364,0.42731 0.79099,0.91828 1.06375,1.47288c0.50005,1.03648 0.70916,2.2275 0.62734,3.57311z" fill="#303030" stroke="none" stroke-linecap="butt" stroke-linejoin="miter"/></g></g></svg>