<svg version="1.1" xmlns="http://www.w3.org/2000/svg" xmlns:xlink="http://www.w3.org/1999/xlink" width="185.07726" height="114.23448" viewBox="0,0,185.07726,114.23448"><g transform="translate(-126.015,-89.63542)"><g data-paper-data="{&quot;isPaintingLayer&quot;:true}" fill-rule="nonzero" stroke="none" stroke-width="1" stroke-linecap="butt" stroke-linejoin="miter" stroke-miterlimit="10" stroke-dasharray="" stroke-dashoffset="0" style="mix-blend-mode: normal"><g><path d="M248.66676,202.53499c0.06389,0.01825 0.13235,0.02282 0.20537,0.01369c-0.30121,0.08215 -0.50659,0.15517 -0.61612,0.21906c-0.00913,-0.05477 0.00456,-0.10497 0.04107,-0.15061c0.03651,-0.04564 0.08671,-0.06846 0.15061,-0.06846c0.05477,-0.00913 0.12779,-0.01369 0.21906,-0.01369M302.11861,156.05214l1.04056,5.85999c0.87626,4.61862 2.45535,9.60235 4.73728,14.95118c0.18255,0.41987 0.27839,0.73934 0.28752,0.95841c0.02738,0.40162 -0.1004,0.68458 -0.38336,0.84888c-0.25558,0.15517 -0.55679,0.15061 -0.90364,-0.01369c-0.20994,-0.1004 -0.44726,-0.30121 -0.71196,-0.60243c-0.82149,-0.83975 -1.44218,-1.51064 -1.86205,-2.01266c-0.65719,-0.77586 -1.19117,-1.52433 -1.60191,-2.24542c-0.18255,-0.38336 -0.35598,-0.71652 -0.52028,-0.99948c0.3286,1.53345 0.47008,3.09886 0.42444,4.69621c-0.08215,2.24542 -0.53397,4.39043 -1.35546,6.43503c-0.35598,0.858 -0.78955,1.74796 -1.3007,2.66985c-0.61156,1.12271 -1.20942,2.01266 -1.79359,2.66985c-0.46551,0.51115 -1.24593,1.19117 -2.34126,2.04004l-1.67037,1.31439c-0.2647,0.20994 -0.48377,0.31947 -0.65719,0.3286c-0.22819,0.01825 -0.42444,-0.09128 -0.58874,-0.3286c-0.1643,-0.21906 -0.23732,-0.45638 -0.21906,-0.71196c0.01825,-0.20994 0.08671,-0.45182 0.20537,-0.72565c0.15517,-0.31947 0.26014,-0.5431 0.31491,-0.67089c0.15517,-0.35598 0.29209,-0.95841 0.41075,-1.80729c0.20994,-1.58822 0.34685,-2.99389 0.41075,-4.217c-0.3286,0.63894 -0.71652,1.27788 -1.16378,1.91682c-0.90364,1.32352 -2.14045,2.82502 -3.71041,4.50452c-0.61156,0.64807 -1.11814,1.13184 -1.51976,1.45131c-0.45638,0.36511 -0.99948,0.70283 -1.6293,1.01318c-0.41987,0.20994 -1.00405,0.48377 -1.75252,0.82149l-2.83415,1.21855c-0.63894,0.25558 -1.12727,0.49746 -1.465,0.72565c-0.43813,0.29209 -0.72109,0.47008 -0.84888,0.53397c-0.35598,0.14604 -0.66176,0.15517 -0.91733,0.02738c0.05477,-0.23732 0.19625,-0.46551 0.42444,-0.68458c0.06389,-0.05477 0.27839,-0.24645 0.6435,-0.57505c0.55679,-0.46551 1.09076,-1.08163 1.60191,-1.84836c0.05477,-0.1004 0.11866,-0.19625 0.19168,-0.28752c0.03651,-0.06389 0.08215,-0.14148 0.13692,-0.23276c0.20081,-0.34685 0.45638,-0.82606 0.76673,-1.43761c-0.29209,0.34685 -0.61156,0.69827 -0.95841,1.05425c-0.13692,0.15517 -0.30578,0.3286 -0.50659,0.52028c-0.54766,0.50202 -1.26875,1.15009 -2.16327,1.9442c-1.16835,1.0223 -2.14045,1.79816 -2.9163,2.32757c-1.37828,0.95841 -3.02127,1.79359 -4.92896,2.50556c-1.32352,0.50202 -3.10798,1.05425 -5.3534,1.65668c-0.53853,0.14604 -0.87626,0.07759 -1.01318,-0.20537c-0.13692,-0.30121 0.07759,-0.62068 0.6435,-0.95841c0.54766,-0.31947 1.11814,-0.73478 1.71145,-1.24593c0.36511,-0.31947 0.858,-0.77129 1.47869,-1.35546c-0.36511,0.27383 -0.9721,0.6435 -1.82098,1.10902l-1.19117,0.65719c-0.7576,0.4929 -1.30983,0.82149 -1.65668,0.98579c-0.58417,0.31947 -1.43305,0.69371 -2.54663,1.12271c-1.23224,0.46551 -2.09937,0.82606 -2.6014,1.08163c-0.55679,0.29209 -0.97666,0.50202 -1.25962,0.62981c-0.48377,0.21906 -0.9219,0.34685 -1.31439,0.38336c-0.2647,0.02738 -0.63894,0.02738 -1.12271,0l-0.53397,-0.05477c-0.65719,-0.04564 -1.036,-0.25101 -1.1364,-0.61612c-0.00913,-0.05477 -0.01369,-0.1141 -0.01369,-0.17799c-0.00563,0 -0.0102,0 -0.01369,0c0.0179,-0.066 0.02246,-0.12533 0.01369,-0.17799c0.01825,-0.01825 0.04564,-0.03195 0.08215,-0.04107c0.04564,-0.14604 0.13235,-0.30121 0.26014,-0.46551c0.62068,-0.74847 1.39654,-1.49238 2.32757,-2.23172c0.33773,-0.28296 0.80324,-0.63894 1.39654,-1.06794c0.23732,-0.17343 0.4929,-0.36511 0.76673,-0.57505l0.79411,-0.56135c0.01825,0.14604 -0.00913,0.29665 -0.08215,0.45182c-0.06389,0.13692 -0.1643,0.23732 -0.30121,0.30121c-0.33773,0.82149 -0.82149,1.49238 -1.45131,2.01266c-0.37424,0.28296 -0.65263,0.4929 -0.83519,0.62981c-0.18255,0.14604 -0.52484,0.4792 -1.02687,0.99948c-0.41987,0.429 -0.77129,0.73934 -1.05425,0.93103c0.77586,0.12779 1.5654,0.09128 2.36864,-0.10953c0.03651,-0.12779 0.18255,-0.23276 0.43813,-0.31491c0.55679,-0.17343 1.17291,-0.41987 1.84836,-0.73934c0.41075,-0.18255 1.01774,-0.48377 1.82098,-0.90364l5.43555,-2.9163c0.50202,-0.28296 0.93559,-0.55223 1.3007,-0.8078c-0.01825,-0.00913 -0.03651,-0.01825 -0.05477,-0.02738c0.10953,-0.10953 0.25101,-0.17799 0.42444,-0.20537c0.36511,-0.28296 0.68001,-0.55223 0.94472,-0.8078c0.31947,-0.3286 0.73022,-0.82606 1.23224,-1.49238c0.83975,-1.13184 1.39654,-2.0081 1.67037,-2.62878c0.06389,-0.14604 0.14604,-0.26014 0.24645,-0.34229c0.10953,-0.11866 0.2145,-0.14604 0.31491,-0.08215c0.08215,0.05477 0.12779,0.16886 0.13692,0.34229c0.03651,0.36511 -0.0502,0.74847 -0.26014,1.15009c-0.11866,0.23732 -0.33316,0.57048 -0.6435,0.99948l-1.06794,1.465c-0.46551,0.62981 -0.88539,1.14096 -1.25962,1.53345l2.98476,-2.84784c-1.29613,1.92595 -2.74288,3.70585 -4.34022,5.33971c2.01722,-0.62981 3.95686,-1.43761 5.81891,-2.42341c0.90364,-0.48377 1.66124,-0.95385 2.2728,-1.41023c0.17343,-0.14604 0.65263,-0.56135 1.43761,-1.24593l1.16378,-1.01318c1.0223,-0.91277 1.79816,-1.64299 2.32757,-2.19065c0.83062,-0.84888 1.50607,-1.66581 2.02635,-2.45079c0.72109,-1.12271 1.2368,-2.35495 1.54715,-3.69672c0.1004,-0.12779 0.24645,-0.16886 0.43813,-0.12322c0.17343,0.03651 0.29665,0.12779 0.36967,0.27383c0.12779,0.21906 0.13692,0.5431 0.02738,0.9721c-0.20081,0.71196 -0.41075,1.34634 -0.62981,1.90313c-0.09128,0.20994 -0.18255,0.41987 -0.27383,0.62981c0.14604,-0.12779 0.25558,-0.2647 0.3286,-0.41075c0.08215,1.10445 -0.20081,2.25911 -0.84888,3.46396c-0.30121,0.56592 -0.78955,1.3007 -1.465,2.20434c-0.03651,0.02738 -0.06846,0.05933 -0.09584,0.09584c-0.15517,0.20081 -0.31947,0.41531 -0.4929,0.6435c0.2647,-0.1004 0.52484,-0.20537 0.78042,-0.31491c1.32352,-0.54766 2.57401,-1.2368 3.75149,-2.06743c1.44218,-0.97666 2.72462,-2.11306 3.84733,-3.4092c0.72109,-0.84888 1.43761,-1.83011 2.14958,-2.94369c0.52941,-0.83062 1.14096,-1.88031 1.83467,-3.14906l0.42444,-0.82149c0.1004,-0.24645 0.26927,-0.74847 0.50659,-1.50607c0.19168,-0.60243 0.38793,-1.08163 0.58874,-1.43761c-0.11866,-0.13692 -0.15061,-0.30578 -0.09584,-0.50659c0.06389,-0.20994 0.18712,-0.33316 0.36967,-0.36967c0.2647,0.68458 0.2647,1.59735 0,2.73831c-0.10953,0.41075 -0.23276,0.83519 -0.36967,1.27332c0.24645,0.96754 0.35598,2.0583 0.3286,3.27228c-0.01825,0.95841 -0.15061,2.34582 -0.39706,4.16223c1.15922,-0.62981 2.11763,-1.49694 2.87523,-2.6014c0.19168,-0.28296 0.44726,-0.71196 0.76673,-1.28701c1.12271,-2.02635 1.86205,-3.77887 2.21803,-5.25756c0.21906,-0.94015 0.34229,-1.97615 0.36967,-3.10798c0.01825,-0.84888 -0.01369,-1.894 -0.09584,-3.13537c-0.06389,-1.03143 -0.16886,-1.86662 -0.31491,-2.50556c-0.11866,-0.57505 -0.27839,-1.10445 -0.4792,-1.58822c-0.00913,-0.01825 -0.01825,-0.02738 -0.02738,-0.02738c-0.12779,-0.05477 -0.20994,-0.1141 -0.24645,-0.17799c-0.02738,-0.05477 -0.02738,-0.10497 0,-0.15061c0.00913,-0.03651 0.03651,-0.06389 0.08215,-0.08215c-0.06389,-0.1004 -0.12779,-0.20081 -0.19168,-0.30121c-0.12779,-0.19168 -0.18255,-0.34229 -0.1643,-0.45182c0.02738,-0.15517 0.13692,-0.24188 0.3286,-0.26014c0.17343,-0.03651 0.33773,-0.01825 0.4929,0.05477c0.52028,0.29209 0.93103,0.91733 1.23224,1.87574c0.07302,0.19168 0.13235,0.3788 0.17799,0.56135c0.15517,0.15517 0.31034,0.32403 0.46551,0.50659c0.93103,1.01318 1.73426,1.63842 2.40971,1.87574l-1.08163,-2.95738c-0.47464,-1.30526 -0.81237,-2.33213 -1.01318,-3.0806c-0.20994,-0.7576 -0.3788,-1.62473 -0.50659,-2.6014c-0.08215,-0.58417 -0.17799,-1.45587 -0.28752,-2.61509l-0.26014,-2.79308c-0.07302,-0.64807 -0.10953,-1.14553 -0.10953,-1.49238c0,-0.45638 0.03651,-0.86713 0.10953,-1.23224c0.01825,-0.09128 0.04107,-0.18255 0.06846,-0.27383c0.13692,-0.44726 0.14148,-0.7576 0.01369,-0.93103c0.07302,-0.05477 0.14604,-0.06846 0.21906,-0.04107c0.08215,0.00913 0.15061,0.0502 0.20537,0.12322l0.01369,0.05477M244.47714,179.82069c0.35598,1.22311 0.49746,2.4873 0.42444,3.79256c0,1.27788 -0.19168,2.5375 -0.57505,3.77887c-0.15517,0.43813 -0.27839,0.74847 -0.36967,0.93103c-0.31947,0.69371 -0.89908,1.47869 -1.73883,2.35495c-0.429,0.41987 -0.79867,0.74391 -1.10902,0.9721c-0.43813,0.31947 -0.87626,0.53397 -1.31439,0.6435c-0.67545,0.18255 -1.48782,0.15061 -2.4371,-0.09584c-0.57505,-0.13692 -1.29157,-0.37424 -2.14958,-0.71196c-0.93103,-0.34685 -2.31387,-0.89908 -4.14854,-1.65668c0.05477,-0.17343 0.2145,-0.20081 0.4792,-0.08215c0.50202,0.19168 1.29613,0.36054 2.38233,0.50659l1.45131,0.19168c0.94015,0.13692 1.68406,0.18712 2.23172,0.15061c0.77586,-0.02738 1.52433,-0.17799 2.24542,-0.45182c0.18255,-0.06389 0.36511,-0.13235 0.54766,-0.20537c0.01825,-0.02738 0.04564,-0.04564 0.08215,-0.05477c0.13692,-0.08215 0.27383,-0.15974 0.41075,-0.23276c0.04564,-0.02738 0.08671,-0.0502 0.12322,-0.06846c0.03651,-0.02738 0.07759,-0.04564 0.12322,-0.05477c0.73934,-0.44726 1.29157,-0.96754 1.65668,-1.56084c0.20081,-0.31947 0.39249,-0.7576 0.57505,-1.31439c0.33773,-1.04969 0.50659,-2.1587 0.50659,-3.32705c0.00913,-0.36511 -0.00913,-0.84431 -0.05477,-1.43761c-0.1004,-1.8438 -0.23732,-3.28141 -0.41075,-4.31284c-0.07302,-0.429 -0.07759,-0.74847 -0.01369,-0.95841l1.08163,3.20383M138.80568,167.23815c0.05477,-0.51115 0.26014,-0.858 0.61612,-1.04056c0.5933,3.97968 2.39146,8.04607 5.39447,12.19918c1.6795,2.38233 3.38638,4.25808 5.12064,5.62723c1.92595,1.46956 4.20331,2.64703 6.83209,3.53242c2.2089,0.71196 4.74184,1.2505 7.59882,1.6156c1.5152,0.17343 4.08009,0.36967 7.69466,0.58874c3.30423,0.22819 5.87368,0.46551 7.70835,0.71196c2.0081,0.31034 4.36761,0.79867 7.07854,1.465c1.56084,0.38336 3.90209,0.99036 7.02377,1.82098c3.7241,0.96754 8.20124,1.97158 13.43142,3.01214c0.95841,0.19168 1.9442,0.38793 2.95738,0.58874c0.14604,0.01825 0.30121,0.04107 0.46551,0.06846c1.12271,0.21906 2.25454,0.43357 3.39551,0.6435c0.03651,-0.00913 0.07302,-0.00456 0.10953,0.01369c1.40567,0.25558 2.82046,0.50202 4.24438,0.73934c0.54766,0.10953 1.10902,0.20994 1.68406,0.30121c4.8742,0.83975 9.80772,1.6293 14.80058,2.36864c3.66934,0.54766 6.58564,0.79411 8.74891,0.73934c2.04461,-0.05477 3.89753,-0.35142 5.55877,-0.88995c0.05477,-0.02738 0.12779,-0.05477 0.21906,-0.08215c0.01825,-0.00913 0.03195,-0.00913 0.04107,0c0.13692,-0.17343 0.27383,-0.35142 0.41075,-0.53397c0.9219,-0.12779 1.83923,-0.34229 2.752,-0.6435c0.00913,0 0.02738,-0.00913 0.05477,-0.02738c0.02738,-0.00913 0.05933,-0.01825 0.09584,-0.02738c0.17343,-0.06389 0.33773,-0.12779 0.4929,-0.19168c1.9442,-0.7576 3.61001,-1.85749 4.99742,-3.29967c0.27383,-0.27383 0.48377,-0.45638 0.62981,-0.54766c0.23732,-0.18255 0.47464,-0.28296 0.71196,-0.30121c-0.82149,1.22311 -1.81641,2.26367 -2.98476,3.12168c-0.70283,0.51115 -1.47413,0.96754 -2.31387,1.36916c-1.38741,0.63894 -2.79764,1.03143 -4.23069,1.17747c-0.33773,0.17343 -0.67545,0.34229 -1.01318,0.50659c-0.05477,0.00913 -0.10497,0.02282 -0.15061,0.04107l-0.01369,0.01369c-0.21906,0.08215 -0.43813,0.16886 -0.65719,0.26014c-1.24137,0.45638 -2.54663,0.8078 -3.91579,1.05425c-2.02635,0.36511 -4.25808,0.50659 -6.69517,0.42444c-1.88031,-0.07302 -4.1166,-0.29665 -6.70886,-0.67089c-3.41376,-0.47464 -7.19263,-1.15465 -11.33661,-2.04004c-0.61156,-0.12779 -1.2368,-0.26014 -1.87574,-0.39706c-0.81237,-0.17343 -1.62473,-0.35598 -2.4371,-0.54766c-0.34685,-0.08215 -0.7576,-0.17799 -1.23224,-0.28752c-1.05881,-0.25558 -2.41884,-0.58874 -4.08009,-0.99948c-0.95841,-0.22819 -2.00353,-0.48377 -3.13537,-0.76673c-2.02635,-0.50202 -4.37217,-1.0862 -7.03746,-1.75252c-6.38027,-1.6156 -11.54655,-2.82959 -15.49885,-3.64196c-5.70482,-1.15922 -10.93499,-1.9442 -15.69053,-2.35495c-2.41884,-0.18255 -4.23069,-0.3286 -5.43555,-0.43813c-2.09937,-0.17343 -3.89753,-0.39249 -5.39447,-0.65719c-4.10747,-0.77586 -7.42995,-2.15414 -9.96746,-4.13485c-2.24542,-1.73426 -4.14398,-4.18505 -5.69569,-7.35237c-1.10445,-2.2728 -2.16783,-5.27125 -3.19013,-8.99536c-0.14604,-0.53853 -0.20537,-0.99948 -0.17799,-1.38285M127.81135,134.69331c0.01825,-0.08215 0.04107,-0.15517 0.06846,-0.21906c0.02738,-0.01825 0.05477,-0.02282 0.08215,-0.01369c0.02738,-0.01825 0.05477,-0.02738 0.08215,-0.02738c0.03651,-0.00913 0.06846,-0.01369 0.09584,-0.01369c-0.03651,0.02738 -0.07302,0.05933 -0.10953,0.09584c-0.03651,0.01825 -0.06846,0.04564 -0.09584,0.08215c-0.04564,0.02738 -0.08671,0.05933 -0.12322,0.09584M158.15185,130.84598c-0.04564,0.02738 -0.08215,0.07302 -0.10953,0.13692c-0.00913,0 -0.01825,0 -0.02738,0c-0.02738,-0.06389 0.00456,-0.10953 0.09584,-0.13692c0.01825,0 0.03195,0 0.04107,0M188.7388,135.28204c-1.10445,0.78498 -2.19521,1.39654 -3.27228,1.83467c-1.1866,0.48377 -2.64247,0.8717 -4.36761,1.16378c-0.41987,0.07302 -0.76673,0.10497 -1.04056,0.09584c-0.21906,-0.01825 -0.52941,-0.05933 -0.93103,-0.12322l-4.3813,-0.76673c-0.429,-0.1004 -0.71652,-0.17799 -0.86257,-0.23276c-0.15517,-0.07302 -0.37424,-0.20081 -0.65719,-0.38336c-0.30121,-0.20081 -0.52941,-0.33316 -0.68458,-0.39706c-0.19168,-0.09128 -0.57048,-0.20081 -1.1364,-0.3286c-0.50202,-0.10953 -0.87626,-0.24188 -1.12271,-0.39706c0.09128,-0.13692 0.27383,-0.1643 0.54766,-0.08215c0.96754,0.22819 1.68863,0.46551 2.16327,0.71196c0.1004,0.06389 0.26014,0.15061 0.4792,0.26014c0.20081,0.11866 0.36967,0.20537 0.50659,0.26014c0.20081,0.07302 0.50659,0.14148 0.91733,0.20537l4.18962,0.71196c0.39249,0.08215 0.73934,0.12322 1.04056,0.12322c0.30121,0.00913 0.7074,-0.02738 1.21855,-0.10953c1.10445,-0.19168 2.04917,-0.39706 2.83415,-0.61612c2.34582,-0.70283 4.36761,-1.9442 6.06536,-3.7241c0.1004,-0.09128 0.20537,-0.15517 0.31491,-0.19168c0.11866,-0.03651 0.20994,-0.00456 0.27383,0.09584c-0.51115,0.5933 -1.20942,1.22311 -2.09481,1.88944M158.57629,123.16501c2.4371,-2.03548 4.65513,-3.68303 6.6541,-4.94265c0.23732,-0.15517 0.46095,-0.29665 0.67089,-0.42444c2.67442,-1.63386 5.15715,-2.72006 7.44821,-3.25859c0.95841,-0.22819 2.44166,-0.43357 4.44976,-0.61612c1.99897,-0.15517 3.49591,-0.19168 4.49083,-0.10953c1.37828,0.12779 2.77026,0.50202 4.17593,1.12271c1.36003,0.68458 2.5877,1.56997 3.68303,2.65616c1.06794,1.09532 1.95333,2.3732 2.65616,3.83364c0.21906,0.47464 0.34229,0.93559 0.36967,1.38285c0.00913,0.22819 -0.00456,0.44269 -0.04107,0.6435c-0.08215,0.31947 -0.22819,0.62068 -0.43813,0.90364c-0.09128,-0.22819 -0.18255,-0.44726 -0.27383,-0.65719c-0.37424,-0.82149 -0.73934,-1.53345 -1.09532,-2.13588c-0.64807,-1.0862 -1.43305,-2.02635 -2.35495,-2.82046c-0.00913,0.12779 -0.01825,0.26927 -0.02738,0.42444c-0.05477,0.95841 -0.27383,1.92138 -0.65719,2.88892c-0.31947,0.76673 -0.74847,1.56084 -1.28701,2.38233c-1.10445,1.74339 -2.45079,3.27228 -4.03901,4.58667c-1.58822,1.31439 -3.19013,2.23172 -4.80574,2.752c-0.24645,0.06389 -0.48377,0.12779 -0.71196,0.19168c-1.67037,0.40162 -3.47766,0.41075 -5.42186,0.02738c-2.47361,-0.73934 -4.33566,-1.26419 -5.58616,-1.57453c-1.14096,-0.31947 -2.33669,-0.56135 -3.58719,-0.72565c-0.13692,-0.01825 -0.28752,-0.03651 -0.45182,-0.05477c-1.47869,-0.15517 -2.9163,-0.16886 -4.31284,-0.04107c-0.01825,0 -0.03195,0.00456 -0.04107,0.01369c-0.02738,-0.00913 -0.0502,-0.00913 -0.06846,0c-1.57909,0.1643 -3.08973,0.51572 -4.53191,1.05425c-0.11866,0.03651 -0.22819,0.06389 -0.3286,0.08215c-0.17343,0.03651 -0.33316,0.04564 -0.4792,0.02738c-0.09128,-0.00913 -0.16886,-0.0502 -0.23276,-0.12322c-0.13692,0.20081 -0.26927,0.39249 -0.39706,0.57505c-0.05477,-0.40162 0.13692,-0.94928 0.57505,-1.64299c0.03651,-0.07302 0.07759,-0.13692 0.12322,-0.19168c0.65719,-1.0862 1.53345,-2.19521 2.62878,-3.32705c0.80324,-0.83062 1.88487,-1.79816 3.2449,-2.90261M158.12447,124.49309c-2.08112,1.76165 -3.75605,3.50504 -5.0248,5.23018c-0.13692,0.14604 -0.26014,0.30121 -0.36967,0.46551c0.20994,-0.08215 0.41987,-0.1643 0.62981,-0.24645c1.42392,-0.51115 2.91174,-0.84888 4.46345,-1.01318c1.43305,-0.14604 3.02583,-0.15517 4.77835,-0.02738c0.12779,0 0.26927,0.00913 0.42444,0.02738c1.47869,0.14604 3.00302,0.38336 4.57298,0.71196c0.27383,0.04564 0.60243,0.1141 0.98579,0.20537l3.38182,-1.1364c1.37828,-0.47464 2.36408,-0.86257 2.95738,-1.16378c0.52941,-0.25558 0.99036,-0.52028 1.38285,-0.79411c0.17343,-0.14604 0.3788,-0.33316 0.61612,-0.56135c0.27383,-0.27383 0.4792,-0.47008 0.61612,-0.58874l1.15009,-0.99948c0.40162,-0.37424 0.63438,-0.58874 0.69827,-0.6435c0.27383,-0.2647 0.58417,-0.62525 0.93103,-1.08163l1.27332,-1.7799c0.35598,-0.46551 0.62068,-0.82606 0.79411,-1.08163c0.34685,-0.60243 0.62981,-1.23224 0.84888,-1.88944c0.19168,-0.56592 0.31034,-1.12727 0.35598,-1.68406c0.04564,-0.17343 0.09128,-0.29209 0.13692,-0.35598c0.10953,-0.09128 0.20537,-0.1004 0.28752,-0.02738c0.05477,0.08215 0.09128,0.18255 0.10953,0.30121c-0.00913,0.68458 -0.07302,1.1866 -0.19168,1.50607c-0.06389,0.20081 -0.19168,0.48833 -0.38336,0.86257c-0.05477,0.10953 -0.11866,0.31034 -0.19168,0.60243c-0.06389,0.21906 -0.13235,0.38793 -0.20537,0.50659c-0.07302,0.12779 -0.19625,0.30121 -0.36967,0.52028c-0.14604,0.19168 -0.24645,0.36511 -0.30121,0.52028c-0.02738,0.02738 -0.07759,0.12779 -0.15061,0.30121c-0.05477,0.12779 -0.10497,0.23732 -0.15061,0.3286c-0.03651,0.08215 -0.10953,0.15517 -0.21906,0.21906c-0.05477,0.05477 -0.13692,0.11866 -0.24645,0.19168c-0.19168,0.1643 -0.40618,0.39706 -0.6435,0.69827c-0.13692,0.20081 -0.33773,0.47464 -0.60243,0.82149c-0.28296,0.36511 -0.72109,0.82149 -1.31439,1.36916l-2.05373,1.86205c-0.43813,0.41075 -0.78498,0.67089 -1.04056,0.78042c-0.13692,0.07302 -0.30121,0.13692 -0.4929,0.19168c-0.20081,0.07302 -0.33316,0.11866 -0.39706,0.13692c-0.41075,0.20994 -0.71652,0.37424 -0.91733,0.4929c-0.3286,0.14604 -0.89451,0.36054 -1.69775,0.6435l-3.25859,1.1364c0.50202,0.1004 1.04969,0.22819 1.64299,0.38336c1.32352,0.31034 2.46448,0.51115 3.42289,0.60243c1.36003,0.17343 2.54663,0.12779 3.55981,-0.13692c1.83467,-0.4929 3.66477,-1.64299 5.49032,-3.45027c1.33264,-1.31439 2.34582,-2.69267 3.03953,-4.13485c0.36511,-0.76673 0.62981,-1.52889 0.79411,-2.28649c0.1643,-0.80324 0.18712,-1.52433 0.06846,-2.16327c-0.06389,-0.30121 -0.1141,-0.52941 -0.15061,-0.68458c-0.02738,-0.29209 -0.02738,-0.54766 0,-0.76673c-0.94015,-0.5933 -1.97615,-1.05425 -3.10798,-1.38285c-0.50202,-0.18255 -1.01774,-0.3286 -1.54715,-0.43813c-2.82046,-0.54766 -5.87824,-0.40618 -9.17335,0.42444c-2.82959,0.69371 -5.63179,1.86662 -8.40662,3.51873c-0.46551,0.25558 -0.93103,0.53853 -1.39654,0.84888c-1.7799,1.15922 -3.58263,2.52838 -5.40817,4.10747M302.03646,97.52072c1.15009,0.51115 2.21803,1.08163 3.20383,1.71145c0.21906,0.14604 0.43813,0.28752 0.65719,0.42444c0.03651,0.01825 0.06389,0.03651 0.08215,0.05477h-0.01369c-1.2505,-0.43813 -2.51925,-0.858 -3.80625,-1.25962c-5.75958,-1.81641 -12.00294,-3.30423 -18.73005,-4.46345c-6.69974,-1.17747 -14.42634,-2.1085 -23.17981,-2.79308c-3.12168,-0.23732 -5.67743,-0.39249 -7.66727,-0.46551c-2.80221,-0.07302 -5.35796,-0.00913 -7.66727,0.19168c-2.07199,0.17343 -3.91579,0.47464 -5.53139,0.90364c-1.95333,0.52028 -3.66934,1.24137 -5.14803,2.16327c-1.54258,0.93103 -3.41376,2.56945 -5.61354,4.91527c-2.44623,2.59227 -4.24895,4.32653 -5.40817,5.20279c-0.66632,0.50202 -1.32808,0.92646 -1.98528,1.27332c-1.47869,0.78498 -2.94369,1.20486 -4.39499,1.25962c-0.17343,0.01825 -0.33773,-0.00456 -0.4929,-0.06846c-0.02738,0.00913 -0.05477,0.01369 -0.08215,0.01369c0,-0.00913 0,-0.01825 0,-0.02738c-0.13692,-0.06389 -0.26014,-0.13235 -0.36967,-0.20537c-0.01825,-0.01825 -0.03651,-0.02738 -0.05477,-0.02738c-0.02738,-0.00913 -0.05933,-0.01369 -0.09584,-0.01369c-0.12779,-0.02738 -0.25558,-0.06846 -0.38336,-0.12322c-0.1643,-0.07302 -0.3286,-0.18712 -0.4929,-0.34229c-0.09128,-0.09128 -0.19168,-0.20994 -0.30121,-0.35598c-0.1004,-0.13692 -0.2145,-0.29665 -0.34229,-0.4792c-0.13692,-0.17343 -0.25558,-0.34229 -0.35598,-0.50659c-0.38336,-0.52028 -0.66176,-0.96754 -0.83519,-1.34177c-0.14604,-0.29209 -0.2647,-0.57048 -0.35598,-0.83519c-0.13692,-0.41987 -0.20537,-0.82149 -0.20537,-1.20486c-0.20994,0.13692 -0.34229,0.37424 -0.39706,0.71196c-0.03651,0.17343 -0.04564,0.46095 -0.02738,0.86257l-0.01369,0.73934c0,0.51115 0.00456,0.8717 0.01369,1.08163c0.03651,0.58417 0.19168,1.17291 0.46551,1.76621c0.19168,0.43813 0.20994,0.73022 0.05477,0.87626c-0.1004,0.1004 -0.23276,0.13692 -0.39706,0.10953c-0.15517,-0.03651 -0.28752,-0.11866 -0.39706,-0.24645c-0.06389,-0.07302 -0.13235,-0.20081 -0.20537,-0.38336c-0.09128,-0.22819 -0.15517,-0.36511 -0.19168,-0.41075c-0.15517,-0.31947 -0.51115,-0.68001 -1.06794,-1.08163c-0.62981,-0.46551 -1.16835,-0.82149 -1.6156,-1.06794c-0.04564,-0.04564 -0.09584,-0.07759 -0.15061,-0.09584c-0.29209,-0.15517 -0.59787,-0.29209 -0.91733,-0.41075c-0.43813,-0.14604 -0.88082,-0.25558 -1.32808,-0.3286c-0.31947,-0.04564 -0.62068,-0.06389 -0.90364,-0.05477c-0.25558,-0.01825 -0.51115,-0.01369 -0.76673,0.01369c-0.25558,0.01825 -0.49746,0.0502 -0.72565,0.09584c-0.01825,0.07302 0.02738,0.15517 0.13692,0.24645l3.68303,3.0806l0.01369,-0.01369c0.28296,-0.03651 0.47008,0.00913 0.56135,0.13692c0.10953,0.10953 0.10953,0.25101 0,0.42444c-0.07302,0.09128 -0.20081,0.18255 -0.38336,0.27383c-0.20994,0.08215 -0.52028,0.1643 -0.93103,0.24645c-0.09128,0.01825 -0.19168,0.03651 -0.30121,0.05477c-0.30121,0.05477 -0.57048,0.09128 -0.8078,0.10953c-0.11866,0.01825 -0.22819,0.03651 -0.3286,0.05477c-0.53853,0.07302 -0.98123,0.12322 -1.32808,0.15061c-0.1004,0 -0.20081,0 -0.30121,0c-0.12779,0.00913 -0.24188,0.01825 -0.34229,0.02738c0.09128,0.02738 0.19625,0.05477 0.31491,0.08215c-0.12779,0.00913 -0.24188,0.01825 -0.34229,0.02738c-2.49186,0.10953 -5.10695,0.1141 -7.84526,0.01369c0.77586,0.53853 1.465,1.06794 2.06743,1.58822c1.06794,0.87626 1.95333,1.79359 2.65616,2.752c0.86713,1.21399 1.50151,2.5375 1.90313,3.97055c0.41987,1.46043 0.57505,2.92543 0.46551,4.39499c-0.08215,1.47869 -0.43357,2.90717 -1.05425,4.28546c-0.61156,1.36916 -1.42849,2.59227 -2.45079,3.66934c0.73022,-1.1866 1.29613,-2.42797 1.69775,-3.7241c0.5933,-1.91682 0.78955,-3.83364 0.58874,-5.75046c-0.20081,-2.05373 -0.83062,-3.86558 -1.88944,-5.43555c-0.65719,-0.97666 -1.51976,-1.92138 -2.5877,-2.83415c-0.80324,-0.68458 -1.8438,-1.43761 -3.12168,-2.25911c-1.64299,-1.06794 -3.04865,-1.77077 -4.217,-2.1085c-1.04969,-0.31034 -2.57858,-0.51115 -4.58667,-0.60243c-2.63791,-0.13692 -4.7601,-0.15517 -6.36658,-0.05477c-2.32757,0.12779 -4.39043,0.48833 -6.18859,1.08163c-1.23224,0.41987 -2.66073,1.05881 -4.28546,1.91682c-1.8438,1.0223 -3.22664,1.76621 -4.14854,2.23172c-0.19168,0.10953 -0.36967,0.1643 -0.53397,0.1643c-0.20994,0.01825 -0.34229,-0.0502 -0.39706,-0.20537c-0.1004,-0.25558 0.05477,-0.49746 0.46551,-0.72565c2.69267,-1.56084 4.85138,-2.71093 6.47611,-3.45027c1.15009,-0.50202 2.2728,-0.92646 3.36812,-1.27332c-3.56893,-0.54766 -6.15207,-0.88082 -7.74942,-0.99948c-3.18557,-0.28296 -6.02429,-0.25101 -8.51615,0.09584c-3.63283,0.51115 -7.15612,1.69775 -10.56988,3.55981c-3.24946,1.78903 -6.20228,4.08009 -8.85844,6.87316c-3.92491,4.13485 -7.11048,9.21442 -9.55671,15.23871l0.30121,-0.61612c-0.41075,0.96754 -0.71652,1.95789 -0.91733,2.97107c-0.02738,0.38336 -0.0502,0.81237 -0.06846,1.28701l-0.08215,1.76621c-0.03651,0.90364 -0.04107,1.60648 -0.01369,2.1085c0.03651,0.78498 0.15517,1.47413 0.35598,2.06743c0.10953,0.07302 0.23732,0.03195 0.38336,-0.12322l0.84888,-0.78042c0.41075,-0.41987 0.83062,-0.8078 1.25962,-1.16378c0.15517,-0.04564 0.31491,-0.07759 0.4792,-0.09584c0.19168,-0.08215 0.429,-0.17799 0.71196,-0.28752c0.48377,-0.15517 0.84431,-0.17799 1.08163,-0.06846c2.5375,-0.46551 4.60949,-0.80324 6.21597,-1.01318l0.02738,-0.12322c0.04564,-0.07302 0.12322,-0.1141 0.23276,-0.12322c0.10953,-0.01825 0.20081,0.00456 0.27383,0.06846c0.00913,0.03651 0.02738,0.06846 0.05477,0.09584c3.22208,-0.38336 6.1612,-0.50202 8.81737,-0.35598c0.02738,-0.01825 0.05933,-0.03651 0.09584,-0.05477c0.09128,-0.05477 0.16886,-0.06846 0.23276,-0.04107c0.06389,0.02738 0.09128,0.02738 0.08215,0c0.07302,0.01825 0.13235,0.06389 0.17799,0.13692c0.07302,0.00913 0.15517,0.01369 0.24645,0.01369c1.13184,0.10953 2.31387,0.2647 3.54611,0.46551c0.95841,0.1643 1.95333,0.36967 2.98476,0.61612c0.23732,0.05477 0.4929,0.11866 0.76673,0.19168c0.10953,0 0.19625,0.00913 0.26014,0.02738c0.08215,0.01825 0.15061,0.0502 0.20537,0.09584c1.5152,0.40162 3.23577,0.90821 5.16172,1.51976c3.74236,1.16835 6.85034,2.31844 9.32395,3.45027c0.20994,0.07302 1.53345,0.7074 3.97055,1.90313c1.6156,0.73934 2.98476,1.32352 4.10747,1.75252c2.5375,0.94015 5.24387,1.54258 8.1191,1.80729c2.72918,0.2647 5.51314,0.2145 8.35185,-0.15061c0.02738,-0.01825 0.04564,-0.02738 0.05477,-0.02738c0.13692,-0.11866 0.28752,-0.18255 0.45182,-0.19168c0.10953,-0.01825 0.24645,0.00913 0.41075,0.08215c1.44218,-0.21906 3.25859,-0.57048 5.44924,-1.05425c0.01825,0 0.03195,0.00456 0.04107,0.01369c0.06389,-0.02738 0.13235,-0.04564 0.20537,-0.05477c0.04564,-0.00913 0.08671,-0.01825 0.12322,-0.02738c1.1866,-0.2647 2.2226,-0.48833 3.10798,-0.67089c1.23224,-0.25558 2.17239,-0.44269 2.82046,-0.56135c0.57505,-0.09128 1.14096,-0.16886 1.69775,-0.23276c0.08215,-0.01825 0.16886,-0.03195 0.26014,-0.04107c0.30121,-0.03651 0.60243,-0.06846 0.90364,-0.09584c0.53853,-0.05477 1.07707,-0.09584 1.6156,-0.12322c1.3509,-0.06389 2.63791,-0.03651 3.86102,0.08215c0.90364,0.09128 1.76165,0.23732 2.57401,0.43813h0.01369c0.00913,0.00913 0.01825,0.01369 0.02738,0.01369h0.02738c0.12779,0.01825 0.24645,0.04564 0.35598,0.08215c0.50202,0.12779 0.99036,0.27383 1.465,0.43813c0.38336,0.13692 0.77129,0.29209 1.16378,0.46551c0.24645,0.10953 0.48833,0.22819 0.72565,0.35598c1.36916,0.69371 2.69267,1.59278 3.97055,2.69724c1.64299,1.44218 3.15362,3.17644 4.53191,5.20279c0.7576,1.14096 1.49238,2.41884 2.20434,3.83364c0.36511,0.69371 0.72109,1.43305 1.06794,2.21803c0.08215,0.15517 0.15517,0.31491 0.21906,0.4792c-0.07302,0 -0.13692,-0.00456 -0.19168,-0.01369c0.46551,1.15922 0.98579,2.48274 1.56084,3.97055c0.77586,2.12676 1.43761,4.03445 1.98528,5.72307c0.03651,0.04564 0.06389,0.1004 0.08215,0.1643c-0.00913,0 -0.01825,-0.00913 -0.02738,-0.02738c0.41987,1.36003 0.74847,2.56945 0.98579,3.62826c0.429,1.81641 0.70283,3.55981 0.82149,5.23018c0.03651,0.20081 0.07759,0.51572 0.12322,0.94472c0.11866,0.71196 0.18255,1.07707 0.19168,1.09532c0.00913,0.27383 -0.00456,0.70283 -0.04107,1.28701l-0.09584,1.98528c-0.05477,0.77586 -0.14604,1.3509 -0.27383,1.72514c-0.07302,0.18255 -0.15974,0.35142 -0.26014,0.50659c0.12779,0.08215 0.2647,0.16886 0.41075,0.26014c-0.13692,0.17343 -0.2647,0.31034 -0.38336,0.41075c-0.11866,0.08215 -0.22819,0.11866 -0.3286,0.10953c-0.02738,0 -0.16886,-0.03651 -0.42444,-0.10953c-0.02738,0 -0.06389,0 -0.10953,0c-0.02738,0.00913 -0.05933,0.00913 -0.09584,0c-0.24645,0.06389 -0.5933,0.05933 -1.04056,-0.01369c-0.4929,-0.07302 -0.9721,-0.17343 -1.43761,-0.30121c-0.25558,-0.00913 -0.57961,-0.02282 -0.9721,-0.04107c-0.62068,-0.03651 -1.12271,-0.1141 -1.50607,-0.23276c-0.14604,-0.03651 -0.26927,-0.09128 -0.36967,-0.1643c-0.48377,-0.03651 -0.98123,-0.11866 -1.49238,-0.24645c-0.73022,-0.1643 -1.72514,-0.4792 -2.98476,-0.94472c-2.47361,-0.91277 -4.56842,-1.68406 -6.28443,-2.31387c-0.22819,-0.07302 -0.45182,-0.14148 -0.67089,-0.20537c-0.72109,-0.27383 -1.37372,-0.51115 -1.95789,-0.71196c-0.14604,-0.04564 -0.27383,-0.09128 -0.38336,-0.13692c-3.1947,-1.13184 -6.05167,-2.01266 -8.57092,-2.64247c-0.06389,-0.00913 -0.12779,-0.02282 -0.19168,-0.04107c-0.24645,-0.06389 -0.4792,-0.12322 -0.69827,-0.17799c-4.60949,-1.05881 -10.13175,-1.75708 -16.56679,-2.09481c-7.47559,-0.20994 -13.06631,-0.39249 -16.77216,-0.54766c-6.57195,-0.25558 -12.14898,-0.82149 -16.73109,-1.69775c-5.98778,-1.15009 -11.20882,-2.97563 -15.66315,-5.47662c-1.13184,-0.62068 -2.09481,-1.23224 -2.88892,-1.83467c-0.94928,-0.72109 -1.72057,-1.49694 -2.31387,-2.32757c-0.02738,-0.02738 -0.0502,-0.05933 -0.06846,-0.09584c2.01722,1.11358 3.55524,1.9442 4.61406,2.49186c1.73426,0.87626 3.32249,1.60191 4.76466,2.17696c4.79205,1.99897 10.46948,3.44571 17.0323,4.34022c-0.30121,-0.17343 -0.61612,-0.36511 -0.94472,-0.57505c-0.62068,-0.39249 -1.11814,-0.73934 -1.49238,-1.04056c-0.86713,-0.69371 -1.57909,-1.53802 -2.13588,-2.53294c-0.20994,-0.38336 -0.48377,-1.0223 -0.82149,-1.91682c-0.27383,-0.67545 -0.41075,-1.21399 -0.41075,-1.6156c-0.00913,-0.31947 0.09128,-0.78955 0.30121,-1.41023c0.04564,-0.13692 0.1004,-0.17799 0.1643,-0.12322c-0.03651,0.38336 -0.01825,0.68001 0.05477,0.88995c0.00913,0.06389 0.08215,0.25101 0.21906,0.56135l0.4792,0.90364c0.60243,1.13184 1.06338,1.90769 1.38285,2.32757c0.61156,0.79411 1.41023,1.52889 2.39602,2.20434c0.77586,0.52941 1.74339,1.08163 2.90261,1.65668c0.63894,0.30121 1.14096,0.51572 1.50607,0.6435c0.34685,0.12779 0.52484,0.19168 0.53397,0.19168c0.20994,0.1004 0.3788,0.20537 0.50659,0.31491c0.00913,0 0.02282,0.00913 0.04107,0.02738c2.49186,0.22819 5.34884,0.41531 8.57092,0.56135c2.30018,0.12779 5.75046,0.28752 10.35082,0.4792c6.1612,0.27383 11.29097,0.73934 15.38931,1.39654c1.59735,0.23732 3.23577,0.52941 4.91527,0.87626l4.8742,-0.06846c1.24137,0 2.15414,0.00456 2.73831,0.01369c1.33264,0 2.9802,0.09128 4.94265,0.27383c0.13692,0 0.27839,0.00456 0.42444,0.01369c0.50202,0.04564 0.96754,0.09128 1.39654,0.13692c0.80324,0.08215 1.465,0.16886 1.98528,0.26014c1.25962,0.20994 2.35039,0.52028 3.27228,0.93103c0.54766,0.2647 1.36916,0.72109 2.46448,1.36916l2.30018,1.42392c-0.58417,-0.17343 -1.32808,-0.50202 -2.23172,-0.98579c-1.05881,-0.53853 -1.78447,-0.88539 -2.17696,-1.04056c-0.94928,-0.39249 -2.06286,-0.67545 -3.34074,-0.84888c-0.58417,-0.07302 -1.39654,-0.15061 -2.4371,-0.23276c-0.34685,-0.02738 -0.70283,-0.0502 -1.06794,-0.06846c-0.20994,-0.01825 -0.40618,-0.03195 -0.58874,-0.04107h-0.02738c-1.90769,-0.11866 -3.42289,-0.17343 -4.5456,-0.1643c-0.19168,0 -0.37424,0 -0.54766,0c-1.24137,0.02738 -2.2728,0.05477 -3.09429,0.08215c1.20486,0.30121 2.42341,0.62981 3.65565,0.98579c1.24137,0.33773 2.53294,0.72109 3.87471,1.15009c0.18255,0.05477 0.36511,0.1141 0.54766,0.17799c0.03651,0.01825 0.07759,0.03195 0.12322,0.04107c0.31947,0.1004 0.64807,0.20537 0.98579,0.31491c2.21803,0.73022 4.55929,1.55627 7.02377,2.47817c1.27788,0.46551 2.33213,0.74391 3.16275,0.83519c0.15517,0.00913 0.31491,0.02738 0.4792,0.05477c0.01825,-0.00913 0.03651,-0.01369 0.05477,-0.01369c0.01825,0 0.04107,0 0.06846,0c0.12779,0 0.25558,0.00456 0.38336,0.01369c0.01825,0.03651 0.04564,0.06389 0.08215,0.08215c0.18255,0 0.4929,0.01369 0.93103,0.04107c0.20994,0.01825 0.41075,0.03195 0.60243,0.04107c0.13692,-0.08215 0.33773,-0.23276 0.60243,-0.45182c0.08215,-0.05477 0.23732,-0.15517 0.46551,-0.30121c0.20081,-0.11866 0.36054,-0.21906 0.4792,-0.30121c0.25558,-0.22819 0.4792,-0.56592 0.67089,-1.01318c0.06389,-0.14604 0.10953,-0.2647 0.13692,-0.35598c0.10953,-0.05477 0.22363,-0.1004 0.34229,-0.13692c0.33773,-1.98984 0.43357,-4.05727 0.28752,-6.20228c-0.01825,-0.05477 -0.03195,-0.10497 -0.04107,-0.15061c-0.08215,-0.54766 -0.14148,-0.94472 -0.17799,-1.19117c-0.07302,-0.44726 -0.17799,-0.82149 -0.31491,-1.12271c-0.09128,-0.24645 -0.14148,-0.41075 -0.15061,-0.4929c-0.02738,-0.23732 0.0502,-0.3788 0.23276,-0.42444c-0.15517,-0.80324 -0.33773,-1.62017 -0.54766,-2.45079c-0.06389,-0.21906 -0.11866,-0.43357 -0.1643,-0.6435c-2.7657,-1.6156 -5.54508,-2.87979 -8.33816,-3.79256c-2.71093,-0.87626 -5.38991,-1.41479 -8.03695,-1.6156c-0.12779,-0.01825 -0.2647,-0.02738 -0.41075,-0.02738c-0.41987,-0.02738 -0.82606,-0.0502 -1.21855,-0.06846c-1.96246,-0.02738 -4.13941,0.1643 -6.53087,0.57505c-0.20994,0.03651 -0.41531,0.07302 -0.61612,0.10953c-2.0081,0.34685 -4.15311,0.84888 -6.43503,1.50607v0.01369c-0.14604,0.03651 -0.28296,0.07759 -0.41075,0.12322c-0.02738,0.1643 -0.06846,0.30121 -0.12322,0.41075c-0.1643,-0.03651 -0.31034,-0.10497 -0.43813,-0.20537c-5.44011,1.72514 -9.5704,2.94369 -12.39086,3.65565c-5.91475,1.47869 -11.3001,1.96702 -16.15604,1.465c-2.79308,-0.29209 -5.44468,-0.90821 -7.9548,-1.84836c-2.63791,-1.0223 -4.98373,-2.36408 -7.03746,-4.02532c-0.60243,-0.47464 -0.9721,-0.93559 -1.10902,-1.38285c-0.01825,-0.05477 -0.02738,-0.09584 -0.02738,-0.12322c2.66529,1.43305 4.71446,2.47361 6.14751,3.12168c2.33669,1.05881 4.4954,1.82098 6.47611,2.28649c3.57806,0.84888 7.59882,0.98123 12.06226,0.39706c3.18557,-0.39249 7.17894,-1.26875 11.98012,-2.62878c2.95738,-0.82149 5.40817,-1.49238 7.35237,-2.01266c-0.19168,-0.1004 -0.35598,-0.23276 -0.4929,-0.39706c-0.10953,-0.15517 -0.20994,-0.35598 -0.30121,-0.60243c-0.00913,-0.03651 -0.07759,-0.25558 -0.20537,-0.65719c-0.33773,-1.16835 -1.00405,-2.45535 -1.99897,-3.86102c-0.17343,-0.22819 -0.34229,-0.45638 -0.50659,-0.68458c-0.60243,-0.73022 -1.15009,-1.38741 -1.64299,-1.97158l-0.01369,0.09584c-0.17343,-0.20081 -0.36054,-0.39706 -0.56135,-0.58874l-4.25808,-4.20331c-0.71196,-0.73022 -1.25962,-1.25506 -1.64299,-1.57453c-0.46551,-0.38336 -1.06338,-0.81237 -1.79359,-1.28701c-0.81237,-0.52941 -1.43305,-0.91733 -1.86205,-1.16378c-0.27383,-0.19168 -0.39706,-0.36511 -0.36967,-0.52028c-1.13184,0.05477 -2.21347,0.06389 -3.2449,0.02738c-2.89348,-0.13692 -5.49944,-0.65263 -7.81788,-1.54715c-1.14096,-0.43813 -2.43253,-1.07251 -3.87471,-1.90313l-0.27383,2.49186c-0.03651,0.39249 -0.1004,0.68001 -0.19168,0.86257c-0.1643,0.31947 -0.39249,0.48377 -0.68458,0.4929c-0.3286,0.05477 -0.67545,-0.20537 -1.04056,-0.78042l-0.61612,-0.94472c-0.31034,-0.53853 -0.49746,-0.86713 -0.56135,-0.98579c-0.21906,-0.37424 -0.36967,-0.71652 -0.45182,-1.02687c-0.2647,-0.84888 -0.23276,-1.57909 0.09584,-2.19065c0.00913,-0.03651 0.02282,-0.06846 0.04107,-0.09584c-0.47464,-0.31034 -0.90364,-0.56592 -1.28701,-0.76673c-1.0862,-0.62981 -2.19521,-1.20486 -3.32705,-1.72514c-0.00913,0.00913 -0.00913,0.02282 0,0.04107c0.01825,0.19168 -0.03651,0.36054 -0.1643,0.50659c-0.07302,0.09128 -0.20994,0.19168 -0.41075,0.30121c-0.25558,0.11866 -0.41531,0.19625 -0.4792,0.23276c-0.30121,0.21906 -0.57048,0.62068 -0.8078,1.20486c-0.43813,0.98579 -0.66632,1.75708 -0.68458,2.31387c-0.02738,0.2647 -0.07759,0.44269 -0.15061,0.53397c-0.08215,0.11866 -0.22819,0.15517 -0.43813,0.10953c-0.15517,-0.00913 -0.35142,-0.12779 -0.58874,-0.35598c-1.14096,-1.13184 -1.91682,-2.23629 -2.32757,-3.31336c-0.25558,-0.66632 -0.36967,-1.33264 -0.34229,-1.99897c0.01825,-0.69371 0.18712,-1.30983 0.50659,-1.84836c-1.04969,-0.3286 -2.11306,-0.61612 -3.19013,-0.86257c-0.11866,0.03651 -0.25558,0.06389 -0.41075,0.08215l-0.72565,0.17799c-0.35598,0.06389 -0.59787,0.11866 -0.72565,0.1643l-0.01369,0.01369c-0.07302,0.09128 -0.18255,0.17799 -0.3286,0.26014c-0.30121,0.1004 -0.52028,0.19168 -0.65719,0.27383c-0.28296,0.15517 -0.57961,0.50659 -0.88995,1.05425c-0.24645,0.39249 -0.40618,0.71652 -0.4792,0.9721c-0.07302,0.24645 -0.09128,0.58874 -0.05477,1.02687c0.03651,0.55679 0.0502,0.91277 0.04107,1.06794c-0.02738,0.31947 -0.10497,0.61612 -0.23276,0.88995c-0.10953,0.25558 -0.2145,0.40618 -0.31491,0.45182c-0.20994,0.1004 -0.47008,0.08215 -0.78042,-0.05477c-1.25962,-0.51115 -2.30018,-1.58366 -3.12168,-3.21752c-0.29209,-0.61156 -0.46095,-1.1364 -0.50659,-1.57453c-0.05477,-0.40162 0.00913,-1.00405 0.19168,-1.80729c-0.04564,-0.10953 -0.05933,-0.22819 -0.04107,-0.35598l0.15061,-0.61612c0.00913,-0.03651 0.02282,-0.07302 0.04107,-0.10953c-1.37828,-0.07302 -2.73375,-0.08671 -4.06639,-0.04107c-0.07302,0.04564 -0.16886,0.1141 -0.28752,0.20537c-0.31034,0.18255 -0.53853,0.35142 -0.68458,0.50659c-0.41075,0.40162 -0.7074,0.98123 -0.88995,1.73883c-0.20994,0.81237 -0.23732,1.62017 -0.08215,2.42341c0.02738,0.22819 0.08671,0.57048 0.17799,1.02687c-1.04056,0.00913 -1.97158,-0.28296 -2.79308,-0.87626c-0.5933,-0.47464 -0.99948,-1.01318 -1.21855,-1.6156c-0.13692,-0.34685 -0.19168,-0.73478 -0.1643,-1.16378c0.00913,-0.40162 0.10497,-0.77129 0.28752,-1.10902c0.05477,-0.1004 0.11866,-0.17799 0.19168,-0.23276c0.02738,-0.06389 0.04564,-0.11866 0.05477,-0.1643c-0.00913,-0.08215 0,-0.15974 0.02738,-0.23276c-1.0862,0.15517 -2.16327,0.34685 -3.23121,0.57505c-0.94928,0.20081 -1.74796,0.42444 -2.39602,0.67089c-0.84888,0.28296 -1.58822,0.62981 -2.21803,1.04056c-0.29209,0.19168 -0.50659,0.33773 -0.6435,0.43813c-0.03651,0.01825 -0.07302,0.04107 -0.10953,0.06846c-0.51115,0.51115 -1.12271,1.10445 -1.83467,1.7799c-0.25558,0.23732 -0.46551,0.35142 -0.62981,0.34229c-0.18255,-0.01825 -0.35598,-0.15517 -0.52028,-0.41075c-0.41075,-0.58417 -0.68458,-1.48325 -0.82149,-2.69724l-0.12322,-1.21855c-0.03651,-0.45638 -0.0502,-0.80324 -0.04107,-1.04056c0.01825,-0.25558 0.08215,-0.58417 0.19168,-0.98579l0.09584,-0.35598c-0.01825,-0.05477 -0.02738,-0.10953 -0.02738,-0.1643l-0.15061,-0.46551c0,-0.03651 0.00456,-0.06389 0.01369,-0.08215l0.57505,-1.05425l0.08215,-0.38336c0.04564,-1.19573 0.27383,-2.44623 0.68458,-3.75149c0.41987,-1.44218 1.0862,-3.0806 1.99897,-4.91527c1.95333,-3.94317 4.10747,-7.22914 6.46242,-9.85792c2.92087,-3.27685 6.40309,-5.8965 10.44666,-7.85896c4.07096,-1.95333 8.29709,-3.03953 12.67839,-3.25859c1.83467,-0.1004 3.92491,-0.04107 6.27073,0.17799c1.16835,0.09128 3.2449,0.32403 6.22966,0.69827c1.59735,0.20081 3.20383,0.39249 4.81943,0.57505c0.2647,-0.05477 0.52028,-0.1004 0.76673,-0.13692c1.04056,-0.1643 2.21803,-0.2647 3.53242,-0.30121c0.82149,-0.00913 1.99897,0 3.53242,0.02738c1.37828,0.01825 2.42797,0.06389 3.14906,0.13692c1.14096,0.10953 2.14958,0.30121 3.02583,0.57505c0.94928,0.29209 2.04004,0.8078 3.27228,1.54715c-0.07302,-0.10953 -0.15061,-0.20081 -0.23276,-0.27383c2.1085,0.14604 4.23069,0.28296 6.36658,0.41075c0.93103,0.05477 1.80272,0.09128 2.61509,0.10953c0.05477,0.09128 0.12322,0.18255 0.20537,0.27383c0.31034,-0.07302 0.65719,-0.13692 1.04056,-0.19168c0.21906,-0.04564 0.44726,-0.09128 0.68458,-0.13692c0.11866,-0.02738 0.24645,-0.0502 0.38336,-0.06846c0.28296,-0.06389 0.58874,-0.1141 0.91733,-0.15061c0.15517,-0.03651 0.3286,-0.05933 0.52028,-0.06846c-0.22819,-0.1643 -0.45638,-0.34229 -0.68458,-0.53397l-0.01369,-0.01369c-0.09128,-0.08215 -0.19625,-0.18255 -0.31491,-0.30121c-0.2647,-0.2647 -0.58874,-0.58874 -0.9721,-0.9721h-0.01369c-0.52941,-0.53853 -0.96754,-0.88082 -1.31439,-1.02687c-0.43813,-0.11866 -0.75304,-0.24188 -0.94472,-0.36967c-0.14604,-0.09128 -0.25558,-0.21906 -0.3286,-0.38336c-0.06389,-0.17343 -0.0502,-0.3286 0.04107,-0.46551c0.08215,-0.12779 0.28752,-0.22819 0.61612,-0.30121c1.09532,-0.22819 1.95789,-0.33773 2.5877,-0.3286c0.04564,-0.00913 0.08671,-0.00913 0.12322,0c0.39249,0.01825 0.83062,0.07759 1.31439,0.17799c0.30121,0.07302 0.74391,0.19168 1.32808,0.35598c0.46551,0.13692 0.7576,0.23732 0.87626,0.30121c0.02738,0.01825 0.05933,0.03651 0.09584,0.05477c0.20994,0.1004 0.41531,0.21906 0.61612,0.35598l1.84836,1.12271c-0.01825,-0.39249 0,-0.74847 0.05477,-1.06794c0.06389,-0.31947 0.1004,-0.53853 0.10953,-0.65719c-0.00913,-0.00913 -0.01369,-0.01825 -0.01369,-0.02738c-0.03651,-0.27383 -0.04564,-0.48833 -0.02738,-0.6435c0.01825,-0.27383 0.13235,-0.5933 0.34229,-0.95841c0.30121,-0.4929 0.47008,-0.79867 0.50659,-0.91733c0.01825,-0.04564 0.03651,-0.08671 0.05477,-0.12322c0.10953,-0.2647 0.2145,-0.429 0.31491,-0.4929c0.12779,-0.06389 0.26014,-0.06846 0.39706,-0.01369h0.01369c0.14604,0.06389 0.26014,0.1643 0.34229,0.30121c0.09128,0.15517 0.15517,0.43813 0.19168,0.84888c0.00913,0.06389 0.01825,0.13235 0.02738,0.20537c0.1004,0.70283 0.30578,1.38285 0.61612,2.04004c0.31034,0.64807 0.69827,1.2368 1.16378,1.76621c0.05477,0.04564 0.10497,0.09128 0.15061,0.13692c0.12779,0.13692 0.31491,0.31947 0.56135,0.54766c0.17343,-0.09128 0.42444,-0.14148 0.75304,-0.15061c1.48782,-0.01825 2.97107,-0.50202 4.44976,-1.45131c0.95841,-0.61156 1.91682,-1.4011 2.87523,-2.36864c0.39249,-0.41987 1.31895,-1.47869 2.77939,-3.17644c1.13184,-1.32352 2.10394,-2.34126 2.9163,-3.05322c3.0304,-2.6014 7.32498,-4.28546 12.88376,-5.05219c3.36812,-0.48377 7.1333,-0.66176 11.29554,-0.53397c2.78395,0.08215 6.55369,0.35598 11.30923,0.82149c5.64092,0.54766 10.33256,1.0862 14.07492,1.6156c5.10239,0.72109 9.73926,1.56997 13.91063,2.54663c2.65616,0.62068 4.89702,1.26875 6.72256,1.9442c0.77586,0.28296 1.51976,0.58874 2.23172,0.91733M190.58716,149.22005c1.48782,0.67545 2.6516,1.34177 3.49135,1.99897c0.33773,0.25558 0.88539,0.74847 1.64299,1.47869l1.465,1.47869c0.31034,0.3286 0.60699,0.63438 0.88995,0.91733c0.23732,-0.09128 0.52941,0 0.87626,0.27383c0.1004,0.09128 0.20081,0.17799 0.30121,0.26014c0.61156,0.52028 1.23224,1.15465 1.86205,1.90313c0.429,0.53853 1.04056,1.3509 1.83467,2.4371c0.25558,0.35598 0.4929,0.68914 0.71196,0.99948c0,-0.01825 0,-0.03651 0,-0.05477c0.04564,0.05477 0.08671,0.10953 0.12322,0.1643c0.28296,0.44726 0.53853,0.88995 0.76673,1.32808c0.33773,0.5933 0.60243,1.14096 0.79411,1.64299c0.11866,0.39249 0.31034,1.09076 0.57505,2.09481c0.01825,0.08215 0.03195,0.1643 0.04107,0.24645c0.14604,-0.04564 0.29209,-0.08671 0.43813,-0.12322c1.30526,-0.34685 2.28649,-0.58874 2.94369,-0.72565c1.12271,-0.24645 2.21803,-0.45638 3.28597,-0.62981c0.08215,-0.00913 0.1643,-0.02738 0.24645,-0.05477c2.8661,-0.46551 5.5177,-0.66176 7.9548,-0.58874c0.17343,0 0.35598,0.00456 0.54766,0.01369c0.07302,0.00913 0.14604,0.01369 0.21906,0.01369c4.43607,0.23732 8.66219,1.31895 12.67839,3.2449c1.03143,0.50202 1.87118,0.99036 2.51925,1.465c0.38336,0.30121 0.73022,0.62068 1.04056,0.95841c-0.31947,-1.0862 -0.69371,-2.19521 -1.12271,-3.32705c-0.01825,-0.01825 -0.02738,-0.03651 -0.02738,-0.05477c-0.7576,-2.04461 -1.69775,-4.17593 -2.82046,-6.39396c-0.1643,-0.3286 -0.33316,-0.63438 -0.50659,-0.91733c-0.94015,-1.72514 -1.83923,-3.18557 -2.69724,-4.3813c-1.63386,-2.21803 -3.39094,-3.96599 -5.27125,-5.24387c-0.73022,-0.48377 -1.50607,-0.9219 -2.32757,-1.31439c-0.51115,-0.25558 -1.04512,-0.4792 -1.60191,-0.67089c-0.31034,-0.1004 -0.62981,-0.20081 -0.95841,-0.30121c0,0.07302 0.00913,0.16886 0.02738,0.28752c0.02738,0.31947 -0.0502,0.82149 -0.23276,1.50607l-0.36967,1.47869c-0.03651,0.11866 -0.06846,0.24645 -0.09584,0.38336c-0.12779,0.41987 -0.28296,0.86713 -0.46551,1.34177c-0.31947,0.79411 -0.64807,1.38285 -0.98579,1.76621c-0.19168,0.19168 -0.44726,0.40618 -0.76673,0.6435c-0.12779,0.1004 -0.24645,0.19168 -0.35598,0.27383c-0.15517,0.09128 -0.28296,0.18255 -0.38336,0.27383c-0.01825,0.01825 -0.03651,0.02738 -0.05477,0.02738l-0.88995,0.76673c-0.13692,0.10953 -0.36967,0.27383 -0.69827,0.4929c-0.30121,0.20081 -0.52941,0.36511 -0.68458,0.4929c-0.20994,0.17343 -0.37424,0.29209 -0.4929,0.35598c-0.20994,0.09128 -0.39706,0.1004 -0.56135,0.02738c0.06389,-0.20994 0.09128,-0.48377 0.08215,-0.82149c-0.01825,-0.30121 -0.09128,-0.72565 -0.21906,-1.27332l-0.39706,-1.76621c-0.14604,-0.60243 -0.26014,-1.04512 -0.34229,-1.32808c-0.11866,-0.52028 -0.20537,-0.96754 -0.26014,-1.34177l-0.06846,-0.54766l-0.01369,-0.01369c-0.10953,-0.28296 -0.22819,-0.54766 -0.35598,-0.79411l-2.56032,3.61457c-0.09128,0.12779 -0.18712,0.24188 -0.28752,0.34229c-0.15517,0.15517 -0.30578,0.2647 -0.45182,0.3286c-0.1643,0.07302 -0.31491,0.1004 -0.45182,0.08215c-0.15517,-0.05477 -0.32403,-0.18255 -0.50659,-0.38336c-0.51115,-0.56592 -0.95385,-1.21855 -1.32808,-1.95789c-0.12779,-0.23732 -0.25101,-0.48833 -0.36967,-0.75304c-0.09128,-0.21906 -0.17799,-0.44269 -0.26014,-0.67089c-0.33773,-0.96754 -0.45182,-1.79359 -0.34229,-2.47817c0.02738,-0.1643 0.07759,-0.31491 0.15061,-0.45182c0.04564,-0.14604 0.10953,-0.27839 0.19168,-0.39706l0.30121,0.1643c-0.03651,0.20994 -0.03651,0.43357 0,0.67089c0.03651,0.17343 0.07759,0.36054 0.12322,0.56135c0.07302,0.27383 0.2145,0.66176 0.42444,1.16378c0.27383,0.73022 0.50202,1.26419 0.68458,1.60191c0.10953,0.17343 0.20081,0.34685 0.27383,0.52028c0.21906,0.34685 0.43813,0.64807 0.65719,0.90364c0.15517,0.17343 0.28752,0.26014 0.39706,0.26014c0.1004,-0.00913 0.22363,-0.08215 0.36967,-0.21906c0.02738,-0.01825 0.05477,-0.0502 0.08215,-0.09584c0.09128,-0.11866 0.18255,-0.22819 0.27383,-0.3286c0.429,-0.56592 0.74391,-1.01318 0.94472,-1.34177c0.11866,-0.1643 0.22363,-0.32403 0.31491,-0.4792c0.27383,-0.47464 0.4929,-0.92646 0.65719,-1.35546c0.00913,-0.03651 0.02738,-0.06846 0.05477,-0.09584c0.00913,-0.06389 0.02282,-0.12779 0.04107,-0.19168c-0.00913,-0.00913 -0.01369,-0.01825 -0.01369,-0.02738c-0.21906,-0.2647 -0.45638,-0.51572 -0.71196,-0.75304c-0.41987,-0.33773 -0.8717,-0.59787 -1.35546,-0.78042c-0.31947,-0.1004 -0.63438,-0.1643 -0.94472,-0.19168c-0.20994,-0.01825 -0.41075,-0.02282 -0.60243,-0.01369c-0.07302,-0.03651 -0.10953,-0.10497 -0.10953,-0.20537c0,-0.04564 0,-0.07759 0,-0.09584c-0.57505,0.07302 -1.19573,0.15974 -1.86205,0.26014c-0.05477,0 -0.10497,0.00913 -0.15061,0.02738c-0.63894,0.09128 -1.30983,0.19625 -2.01266,0.31491c0.02738,0.02738 0.0502,0.05477 0.06846,0.08215c0.00913,0.02738 0.01825,0.05477 0.02738,0.08215c-0.01825,0.07302 -0.0502,0.15517 -0.09584,0.24645c-0.20994,0.54766 -0.47008,1.05881 -0.78042,1.53345c-0.48377,0.68458 -1.07251,1.26419 -1.76621,1.73883c-0.11866,0.08215 -0.24645,0.1643 -0.38336,0.24645c-0.52028,0.30121 -0.98579,0.43357 -1.39654,0.39706c-0.47464,-0.05477 -0.9721,-0.43357 -1.49238,-1.1364c-0.5933,-0.79411 -1.07251,-1.27332 -1.43761,-1.43761c-0.18255,0.44726 -0.36511,0.77129 -0.54766,0.9721c-0.31034,0.31034 -0.63438,0.43357 -0.9721,0.36967c-0.37424,-0.04564 -0.73478,-0.38336 -1.08163,-1.01318c-0.05477,-0.15517 -0.08671,-0.28296 -0.09584,-0.38336c-1.06794,0.15517 -2.09025,0.27839 -3.06691,0.36967c0.00913,0.00913 0.03195,0.01369 0.06846,0.01369M195.51612,148.54917c-0.51115,0.07302 -0.90364,0.13692 -1.17747,0.19168c0.00913,0.01825 0.02282,0.03651 0.04107,0.05477c0.30121,0.20081 0.52484,0.27383 0.67089,0.21906c0.14604,-0.02738 0.27839,-0.15061 0.39706,-0.36967c0.02738,-0.02738 0.0502,-0.05933 0.06846,-0.09584M201.96485,147.38538c-1.85292,0.34685 -3.37725,0.62525 -4.57298,0.83519c0.22819,0.22819 0.429,0.47464 0.60243,0.73934c0.31034,0.43813 0.48377,0.67545 0.52028,0.71196c0.21906,0.2647 0.44269,0.43357 0.67089,0.50659c0.34685,0.11866 0.73934,0.0502 1.17747,-0.20537c0.40162,-0.23732 0.81693,-0.66176 1.24593,-1.27332c0.06389,-0.07302 0.11866,-0.14604 0.1643,-0.21906c0.31034,-0.41987 0.54766,-0.73934 0.71196,-0.95841c0.08215,-0.11866 0.14604,-0.20537 0.19168,-0.26014c-0.06389,0.00913 -0.12779,0.02282 -0.19168,0.04107c-0.11866,0.01825 -0.23276,0.04107 -0.34229,0.06846c-0.05477,-0.00913 -0.1141,-0.00456 -0.17799,0.01369M171.28206,144.18156c-0.06389,0.3286 0.03195,0.79411 0.28752,1.39654c0.44726,0.99492 0.99492,1.94877 1.64299,2.86154c0.03651,-0.70283 0.09584,-1.2505 0.17799,-1.64299c0.1004,-0.44726 0.26927,-0.82606 0.50659,-1.1364c-0.08215,-0.04564 -0.16886,-0.09128 -0.26014,-0.13692c-0.87626,-0.53853 -1.65212,-1.01318 -2.32757,-1.42392c-0.01825,0.02738 -0.02738,0.05477 -0.02738,0.08215M155.46831,137.74653c-0.21906,-0.04564 -0.43813,-0.09128 -0.65719,-0.13692c-0.66632,-0.13692 -1.33264,-0.26014 -1.99897,-0.36967c-1.3509,-0.19168 -2.7018,-0.3286 -4.0527,-0.41075c-0.02738,0.03651 -0.05477,0.08671 -0.08215,0.15061c-0.02738,0.04564 -0.04564,0.09584 -0.05477,0.15061c0.01825,0.00913 0.03651,0.02282 0.05477,0.04107c0.03651,0.07302 0.03195,0.20994 -0.01369,0.41075c-0.19168,1.04969 -0.06389,2.10394 0.38336,3.16275c0.44726,1.05881 1.13184,1.88944 2.05373,2.49186c0.53853,0.31947 0.9721,0.3788 1.3007,0.17799c-0.11866,-0.71196 -0.13235,-1.40567 -0.04107,-2.08112c0.13692,-1.05881 0.50202,-1.93051 1.09532,-2.61509c0.23732,-0.27383 0.50202,-0.46551 0.79411,-0.57505c0.17343,-0.06389 0.3286,-0.08671 0.46551,-0.06846c0.02738,-0.00913 0.05477,-0.00913 0.08215,0c0.20994,-0.14604 0.43357,-0.25558 0.67089,-0.3286M143.22805,136.73335c-1.29613,0.06389 -2.58314,0.18255 -3.86102,0.35598c-0.02738,0.03651 -0.06389,0.07759 -0.10953,0.12322c-0.06389,0.07302 -0.10953,0.13692 -0.13692,0.19168c-0.05477,0.10953 -0.08215,0.22819 -0.08215,0.35598c0,0.09128 0,0.22819 0,0.41075c-0.00913,0.14604 -0.0502,0.28752 -0.12322,0.42444c-0.00913,0.46551 0.13692,0.93103 0.43813,1.39654c0.21906,0.34685 0.63894,0.83975 1.25962,1.47869c0.22819,0.19168 0.39249,0.32403 0.4929,0.39706c0.20081,0.12779 0.39706,0.20537 0.58874,0.23276c-0.17343,-0.38336 -0.22819,-0.90821 -0.1643,-1.57453c0.11866,-1.05881 0.36054,-1.93051 0.72565,-2.61509c0.2647,-0.47464 0.58874,-0.86713 0.9721,-1.17747M160.68479,142.44273c0.25558,0.56592 0.73022,1.29157 1.42392,2.17696c0.30121,0.34685 0.56135,0.56592 0.78042,0.65719c0.24645,-1.19573 0.51572,-2.06743 0.8078,-2.61509c0.429,-0.858 1.0223,-1.42392 1.7799,-1.69775c-1.6795,-0.74847 -3.37269,-1.39198 -5.07957,-1.93051c-0.13692,0.52941 -0.18255,1.09076 -0.13692,1.68406c0.04564,0.5933 0.18712,1.16835 0.42444,1.72514M209.38567,146.33113c0.2647,0.09128 0.53397,0.21906 0.8078,0.38336c0.55679,0.35598 1.036,0.8078 1.43761,1.35546c0.00913,0 0.01369,0.00456 0.01369,0.01369c0.09128,-0.07302 0.20537,-0.11866 0.34229,-0.13692c0.14604,-0.01825 0.27383,0 0.38336,0.05477c0.05477,0.04564 0.09128,0.10953 0.10953,0.19168c0.04564,0.1004 0.0502,0.22363 0.01369,0.36967c-0.03651,0.19168 -0.12322,0.38336 -0.26014,0.57505c0.00913,0.03651 0.02282,0.06846 0.04107,0.09584c0.02738,-0.02738 0.05477,-0.05477 0.08215,-0.08215c0.04564,-0.24645 0.12779,-0.46551 0.24645,-0.65719l0.17799,-0.24645c0.01825,-0.03651 0.03195,-0.06846 0.04107,-0.09584c0.03651,-0.09128 0.08671,-0.18255 0.15061,-0.27383c0.03651,-0.04564 0.07759,-0.1004 0.12322,-0.1643c0,-0.03651 0.00456,-0.06846 0.01369,-0.09584c0.1004,-0.20081 0.22363,-0.40618 0.36967,-0.61612c0.09128,-0.17343 0.19625,-0.3286 0.31491,-0.46551c0.02738,-0.01825 0.05477,-0.04107 0.08215,-0.06846c0.06389,-0.07302 0.12322,-0.14148 0.17799,-0.20537c-0.12779,-0.00913 -0.25101,-0.01369 -0.36967,-0.01369c-0.71196,-0.01825 -1.44674,-0.02282 -2.20434,-0.01369c-0.08215,0 -0.16886,0.00456 -0.26014,0.01369c-0.429,0.00913 -0.86257,0.02738 -1.3007,0.05477c-0.18255,0.00913 -0.36054,0.01825 -0.53397,0.02738M213.61636,147.65921c-0.07302,0.15517 -0.13692,0.31034 -0.19168,0.46551c-0.00913,0.00913 -0.01369,0.01825 -0.01369,0.02738v0.01369c-0.14604,0.4929 -0.20081,0.98123 -0.1643,1.465c0.02738,0.11866 0.06846,0.33773 0.12322,0.65719l0.61612,2.66985c0.10953,0.39249 0.16886,0.69827 0.17799,0.91733l0.01369,0.8078c0.03651,0.46551 0.0502,0.72565 0.04107,0.78042c-0.00913,0.17343 -0.06846,0.40162 -0.17799,0.68458c-0.08215,0.31034 -0.14148,0.53397 -0.17799,0.67089c0.81237,-0.3286 1.54715,-0.79867 2.20434,-1.41023c0.14604,-0.12779 0.28752,-0.25558 0.42444,-0.38336c0.05477,-0.06389 0.11866,-0.13692 0.19168,-0.21906c0.40162,-0.44726 0.74847,-0.93559 1.04056,-1.465c0.24645,-0.4929 0.50659,-1.15465 0.78042,-1.98528l0.28752,-0.72565c0.03651,-0.09128 0.07759,-0.17343 0.12322,-0.24645c0.00913,-0.04564 0.02282,-0.09128 0.04107,-0.13692c0.05477,-0.1004 0.09584,-0.18255 0.12322,-0.24645c0.18255,-0.30121 0.28296,-0.48833 0.30121,-0.56135c0.03651,-0.08215 0.06846,-0.19625 0.09584,-0.34229c0.03651,-0.14604 0.06389,-0.25558 0.08215,-0.3286c0.08215,-0.15517 0.14604,-0.28296 0.19168,-0.38336c0.00913,-0.05477 0.02282,-0.1004 0.04107,-0.13692c0.06389,-0.10953 0.10953,-0.2647 0.13692,-0.46551c0,-0.01825 0,-0.03195 0,-0.04107c0.02738,-0.27383 0.04564,-0.44726 0.05477,-0.52028v-0.01369c-0.19168,-0.06389 -0.39706,-0.12779 -0.61612,-0.19168c-0.20081,-0.05477 -0.40162,-0.1004 -0.60243,-0.13692c-1.17747,-0.27383 -2.39602,-0.46095 -3.65565,-0.56135c-0.38336,0.21906 -0.73478,0.4929 -1.05425,0.82149c-0.03651,0.02738 -0.06846,0.06389 -0.09584,0.10953c-0.11866,0.12779 -0.23276,0.2647 -0.34229,0.41075z" fill="#000000"/><path d="M310.19663,112.69097c0.25558,2.14501 0.50659,3.71954 0.75304,4.72359c0.31034,1.2505 0.1141,4.48627 -0.58874,9.70732c-0.67545,4.96547 -1.39654,8.88126 -2.16327,11.74736c-0.38336,1.42392 -1.36459,4.06639 -2.94369,7.92741c-1.58822,3.85189 -2.55119,6.40765 -2.88892,7.66727c-0.11866,0.40162 -0.20081,0.93103 -0.24645,1.58822l-0.01369,-0.05477c-0.05477,-0.07302 -0.12322,-0.1141 -0.20537,-0.12322c-0.07302,-0.02738 -0.14604,-0.01369 -0.21906,0.04107c0.12779,0.17343 0.12322,0.48377 -0.01369,0.93103c-0.02738,0.09128 -0.0502,0.18255 -0.06846,0.27383c-0.07302,0.36511 -0.10953,0.77586 -0.10953,1.23224c0,0.34685 0.03651,0.84431 0.10953,1.49238l0.26014,2.79308c0.10953,1.15922 0.20537,2.03091 0.28752,2.61509c0.12779,0.97666 0.29665,1.8438 0.50659,2.6014c0.20081,0.74847 0.53853,1.77534 1.01318,3.0806l1.08163,2.95738c-0.67545,-0.23732 -1.47869,-0.86257 -2.40971,-1.87574c-0.15517,-0.18255 -0.31034,-0.35142 -0.46551,-0.50659c-0.04564,-0.18255 -0.10497,-0.36967 -0.17799,-0.56135c-0.30121,-0.95841 -0.71196,-1.58366 -1.23224,-1.87574c-0.15517,-0.07302 -0.31947,-0.09128 -0.4929,-0.05477c-0.19168,0.01825 -0.30121,0.10497 -0.3286,0.26014c-0.01825,0.10953 0.03651,0.26014 0.1643,0.45182c0.06389,0.1004 0.12779,0.20081 0.19168,0.30121c-0.04564,0.01825 -0.07302,0.04564 -0.08215,0.08215c-0.02738,0.04564 -0.02738,0.09584 0,0.15061c0.03651,0.06389 0.11866,0.12322 0.24645,0.17799c0.00913,0 0.01825,0.00913 0.02738,0.02738c0.20081,0.48377 0.36054,1.01318 0.4792,1.58822c0.14604,0.63894 0.25101,1.47413 0.31491,2.50556c0.08215,1.24137 0.1141,2.28649 0.09584,3.13537c-0.02738,1.13184 -0.15061,2.16783 -0.36967,3.10798c-0.35598,1.47869 -1.09532,3.23121 -2.21803,5.25756c-0.31947,0.57505 -0.57505,1.00405 -0.76673,1.28701c-0.7576,1.10445 -1.71601,1.97158 -2.87523,2.6014c0.24645,-1.81641 0.3788,-3.20383 0.39706,-4.16223c0.02738,-1.21399 -0.08215,-2.30475 -0.3286,-3.27228c0.13692,-0.43813 0.26014,-0.86257 0.36967,-1.27332c0.2647,-1.14096 0.2647,-2.05373 0,-2.73831c-0.18255,0.03651 -0.30578,0.15974 -0.36967,0.36967c-0.05477,0.20081 -0.02282,0.36967 0.09584,0.50659c-0.20081,0.35598 -0.39706,0.83519 -0.58874,1.43761c-0.23732,0.7576 -0.40618,1.25962 -0.50659,1.50607l-0.42444,0.82149c-0.69371,1.26875 -1.30526,2.31844 -1.83467,3.14906c-0.71196,1.11358 -1.42849,2.09481 -2.14958,2.94369c-1.12271,1.29613 -2.40515,2.43253 -3.84733,3.4092c-1.17747,0.83062 -2.42797,1.51976 -3.75149,2.06743l-0.28752,-0.3286c0.02738,-0.03651 0.05933,-0.06846 0.09584,-0.09584c0.67545,-0.90364 1.16378,-1.63842 1.465,-2.20434c0.64807,-1.20486 0.93103,-2.35951 0.84888,-3.46396c-0.07302,0.14604 -0.18255,0.28296 -0.3286,0.41075c0.09128,-0.20994 0.18255,-0.41987 0.27383,-0.62981c0.21906,-0.55679 0.429,-1.19117 0.62981,-1.90313c0.10953,-0.429 0.1004,-0.75304 -0.02738,-0.9721c-0.07302,-0.14604 -0.19625,-0.23732 -0.36967,-0.27383c-0.19168,-0.04564 -0.33773,-0.00456 -0.43813,0.12322c-0.31034,1.34177 -0.82606,2.57401 -1.54715,3.69672c-0.52028,0.78498 -1.19573,1.60191 -2.02635,2.45079c-0.52941,0.54766 -1.30526,1.27788 -2.32757,2.19065l-1.16378,1.01318c-0.78498,0.68458 -1.26419,1.09989 -1.43761,1.24593c-0.61156,0.45638 -1.36916,0.92646 -2.2728,1.41023c-1.86205,0.98579 -3.80169,1.79359 -5.81891,2.42341c1.59735,-1.63386 3.04409,-3.41376 4.34022,-5.33971l-2.98476,2.84784c0.37424,-0.39249 0.79411,-0.90364 1.25962,-1.53345l1.06794,-1.465c0.31034,-0.429 0.52484,-0.76216 0.6435,-0.99948c0.20994,-0.40162 0.29665,-0.78498 0.26014,-1.15009c-0.00913,-0.17343 -0.05477,-0.28752 -0.13692,-0.34229c-0.1004,-0.06389 -0.20537,-0.03651 -0.31491,0.08215c-0.1004,0.08215 -0.18255,0.19625 -0.24645,0.34229c-0.27383,0.62068 -0.83062,1.49694 -1.67037,2.62878c-0.50202,0.66632 -0.91277,1.16378 -1.23224,1.49238c-0.2647,0.25558 -0.57961,0.52484 -0.94472,0.8078c-0.17343,0.02738 -0.31491,0.09584 -0.42444,0.20537c0.01825,0.00913 0.03651,0.01825 0.05477,0.02738c-0.36511,0.25558 -0.79867,0.52484 -1.3007,0.8078l-5.43555,2.9163c-0.80324,0.41987 -1.41023,0.72109 -1.82098,0.90364c-0.67545,0.31947 -1.29157,0.56592 -1.84836,0.73934c-0.25558,0.08215 -0.40162,0.18712 -0.43813,0.31491c-0.80324,0.20081 -1.59278,0.23732 -2.36864,0.10953c0.28296,-0.19168 0.63438,-0.50202 1.05425,-0.93103c0.50202,-0.52028 0.84431,-0.85344 1.02687,-0.99948c0.18255,-0.13692 0.46095,-0.34685 0.83519,-0.62981c0.62981,-0.52028 1.11358,-1.19117 1.45131,-2.01266c0.13692,-0.06389 0.23732,-0.1643 0.30121,-0.30121c0.07302,-0.15517 0.1004,-0.30578 0.08215,-0.45182l-0.79411,0.56135c-0.27383,0.20994 -0.52941,0.40162 -0.76673,0.57505l-0.13692,-0.20537c1.16835,-0.858 2.16327,-1.89856 2.98476,-3.12168c-0.23732,0.01825 -0.47464,0.11866 -0.71196,0.30121c-0.14604,0.09128 -0.35598,0.27383 -0.62981,0.54766c-1.38741,1.44218 -3.05322,2.54207 -4.99742,3.29967c-0.15517,0.06389 -0.31947,0.12779 -0.4929,0.19168c-0.03651,0.00913 -0.06846,0.01825 -0.09584,0.02738c-0.02738,0.01825 -0.04564,0.02738 -0.05477,0.02738c-0.91277,0.30121 -1.83011,0.51572 -2.752,0.6435l-0.45182,0.53397c-0.09128,0.02738 -0.1643,0.05477 -0.21906,0.08215c-1.66124,0.53853 -3.51417,0.83519 -5.55877,0.88995c-2.16327,0.05477 -5.07957,-0.19168 -8.74891,-0.73934c-4.99286,-0.73934 -9.92638,-1.52889 -14.80058,-2.36864c-0.57505,-0.09128 -1.1364,-0.19168 -1.68406,-0.30121c-1.42392,-0.23732 -2.83872,-0.48377 -4.24438,-0.73934c-0.03651,-0.01825 -0.07302,-0.02282 -0.10953,-0.01369l0.15061,-0.93103c0.12779,-1.90769 0.36511,-3.51417 0.71196,-4.81943c0.21906,-0.81237 1.14096,-2.55576 2.7657,-5.23018c1.12271,-1.86205 2.00353,-3.1947 2.64247,-3.99794l-0.31491,-0.23276c0.10953,0.04564 0.23732,0.09128 0.38336,0.13692c0.58417,0.20081 1.2368,0.43813 1.95789,0.71196c0.21906,0.06389 0.44269,0.13235 0.67089,0.20537c1.71601,0.62981 3.81082,1.4011 6.28443,2.31387c1.25962,0.46551 2.25454,0.78042 2.98476,0.94472c0.51115,0.12779 1.00861,0.20994 1.49238,0.24645c0.1004,0.07302 0.22363,0.12779 0.36967,0.1643c0.38336,0.11866 0.88539,0.19625 1.50607,0.23276c0.39249,0.01825 0.71652,0.03195 0.9721,0.04107c0.46551,0.12779 0.94472,0.22819 1.43761,0.30121c0.44726,0.07302 0.79411,0.07759 1.04056,0.01369c0.03651,0.00913 0.06846,0.00913 0.09584,0c0.04564,0 0.08215,0 0.10953,0c0.25558,0.07302 0.39706,0.10953 0.42444,0.10953c0.1004,0.00913 0.20994,-0.02738 0.3286,-0.10953c0.11866,-0.1004 0.24645,-0.23732 0.38336,-0.41075c-0.14604,-0.09128 -0.28296,-0.17799 -0.41075,-0.26014c0.1004,-0.15517 0.18712,-0.32403 0.26014,-0.50659c0.12779,-0.37424 0.21906,-0.94928 0.27383,-1.72514l0.09584,-1.98528c0.03651,-0.58417 0.0502,-1.01318 0.04107,-1.28701c-0.00913,-0.01825 -0.07302,-0.38336 -0.19168,-1.09532c-0.04564,-0.429 -0.08671,-0.74391 -0.12322,-0.94472c-0.11866,-1.67037 -0.39249,-3.41376 -0.82149,-5.23018c-0.23732,-1.05881 -0.56592,-2.26824 -0.98579,-3.62826c0.00913,0.01825 0.01825,0.02738 0.02738,0.02738c-0.01825,-0.06389 -0.04564,-0.11866 -0.08215,-0.1643c-0.54766,-1.68863 -1.20942,-3.59632 -1.98528,-5.72307c-0.57505,-1.48782 -1.09532,-2.81133 -1.56084,-3.97055c0.05477,0.00913 0.11866,0.01369 0.19168,0.01369c-0.06389,-0.1643 -0.13692,-0.32403 -0.21906,-0.4792c-0.34685,-0.78498 -0.70283,-1.52433 -1.06794,-2.21803c-0.71196,-1.41479 -1.44674,-2.69267 -2.20434,-3.83364c-1.37828,-2.02635 -2.88892,-3.76062 -4.53191,-5.20279c-1.27788,-1.10445 -2.6014,-2.00353 -3.97055,-2.69724c-0.23732,-0.12779 -0.4792,-0.24645 -0.72565,-0.35598c-0.39249,-0.17343 -0.78042,-0.3286 -1.16378,-0.46551c-0.47464,-0.1643 -0.96297,-0.31034 -1.465,-0.43813c-0.10953,-0.03651 -0.22819,-0.06389 -0.35598,-0.08215h-0.02738c-0.00913,0 -0.01825,-0.00456 -0.02738,-0.01369c-0.61156,-0.29209 -1.3509,-0.6435 -2.21803,-1.05425c-1.87118,-0.86713 -3.32705,-1.43761 -4.36761,-1.71145c-0.76673,-0.20994 -1.34634,-0.35598 -1.73883,-0.43813c-0.24645,-0.07302 -0.41987,-0.10953 -0.52028,-0.10953c-0.3286,-0.04564 -0.64807,-0.05933 -0.95841,-0.04107c-0.41987,0.03651 -0.82606,0.11866 -1.21855,0.24645l0.05477,-0.26014c0.1643,-0.21906 0.35142,-0.50202 0.56135,-0.84888c0.45638,-0.74847 1.00861,-1.77534 1.65668,-3.0806c0.1643,-0.33773 0.33316,-0.68914 0.50659,-1.05425c0.3286,-0.68458 0.63438,-1.31895 0.91733,-1.90313c0.76673,-1.71601 1.27788,-3.07147 1.53345,-4.06639c1.13184,-4.19875 0.7074,-8.58461 -1.27332,-13.15759c-0.38336,-0.86713 -0.81237,-1.72057 -1.28701,-2.56032c-0.1643,-0.31034 -0.34685,-0.62525 -0.54766,-0.94472c-1.33264,-2.24542 -3.01671,-4.44519 -5.05219,-6.59933c0.1004,-0.01825 0.20994,-0.03651 0.3286,-0.05477c0.23732,-0.01825 0.50659,-0.05477 0.8078,-0.10953c0.10953,-0.01825 0.20994,-0.03651 0.30121,-0.05477c0.41075,-0.08215 0.72109,-0.1643 0.93103,-0.24645c0.18255,-0.09128 0.31034,-0.18255 0.38336,-0.27383c0.10953,-0.17343 0.10953,-0.31491 0,-0.42444c-0.09128,-0.12779 -0.27839,-0.17343 -0.56135,-0.13692l-0.01369,0.01369l-3.68303,-3.0806c-0.10953,-0.09128 -0.15517,-0.17343 -0.13692,-0.24645c0.22819,-0.04564 0.47008,-0.07759 0.72565,-0.09584c0.25558,-0.02738 0.51115,-0.03195 0.76673,-0.01369c0.28296,-0.00913 0.58417,0.00913 0.90364,0.05477c0.44726,0.07302 0.88995,0.18255 1.32808,0.3286c0.31947,0.11866 0.62525,0.25558 0.91733,0.41075c0.05477,0.01825 0.10497,0.0502 0.15061,0.09584c0.44726,0.24645 0.98579,0.60243 1.6156,1.06794c0.55679,0.40162 0.91277,0.76216 1.06794,1.08163c0.03651,0.04564 0.1004,0.18255 0.19168,0.41075c0.07302,0.18255 0.14148,0.31034 0.20537,0.38336c0.10953,0.12779 0.24188,0.20994 0.39706,0.24645c0.1643,0.02738 0.29665,-0.00913 0.39706,-0.10953c0.15517,-0.14604 0.13692,-0.43813 -0.05477,-0.87626c-0.27383,-0.5933 -0.429,-1.18204 -0.46551,-1.76621c-0.00913,-0.20994 -0.01369,-0.57048 -0.01369,-1.08163l0.01369,-0.73934c-0.01825,-0.40162 -0.00913,-0.68914 0.02738,-0.86257c0.05477,-0.33773 0.18712,-0.57505 0.39706,-0.71196c0,0.38336 0.06846,0.78498 0.20537,1.20486c0.09128,0.2647 0.20994,0.5431 0.35598,0.83519c0.17343,0.37424 0.45182,0.82149 0.83519,1.34177c0.1004,0.1643 0.21906,0.33316 0.35598,0.50659c0.12779,0.18255 0.24188,0.34229 0.34229,0.4792c0.10953,0.14604 0.20994,0.2647 0.30121,0.35598c0.1643,0.15517 0.3286,0.26927 0.4929,0.34229c0.12779,0.05477 0.25558,0.09584 0.38336,0.12322c0.03651,0 0.06846,0.00456 0.09584,0.01369c0.01825,0 0.03651,0.00913 0.05477,0.02738c0.10953,0.07302 0.23276,0.14148 0.36967,0.20537c0,0.00913 0,0.01825 0,0.02738c0.02738,0 0.05477,-0.00456 0.08215,-0.01369c0.15517,0.06389 0.31947,0.08671 0.4929,0.06846c1.45131,-0.05477 2.9163,-0.47464 4.39499,-1.25962c0.65719,-0.34685 1.31895,-0.77129 1.98528,-1.27332c1.15922,-0.87626 2.96194,-2.61052 5.40817,-5.20279c2.19978,-2.34582 4.07096,-3.98424 5.61354,-4.91527c1.47869,-0.9219 3.1947,-1.64299 5.14803,-2.16327c1.6156,-0.429 3.4594,-0.73022 5.53139,-0.90364c2.30931,-0.20081 4.86507,-0.2647 7.66727,-0.19168c1.98984,0.07302 4.5456,0.22819 7.66727,0.46551c8.75347,0.68458 16.48008,1.6156 23.17981,2.79308c6.72712,1.15922 12.97047,2.64703 18.73005,4.46345c1.28701,0.40162 2.55576,0.82149 3.80625,1.25962c1.67037,1.40567 2.84328,3.96599 3.51873,7.68097c0.18255,0.98579 0.41987,2.752 0.71196,5.29863M243.39551,176.61687c-0.06389,0.20994 -0.05933,0.52941 0.01369,0.95841c0.17343,1.03143 0.31034,2.46904 0.41075,4.31284c0.04564,0.5933 0.06389,1.07251 0.05477,1.43761c0,1.16835 -0.16886,2.27736 -0.50659,3.32705c-0.18255,0.55679 -0.37424,0.99492 -0.57505,1.31439c-0.36511,0.5933 -0.91733,1.11358 -1.65668,1.56084c-0.04564,0.00913 -0.08671,0.02738 -0.12322,0.05477c-0.03651,0.01825 -0.07759,0.04107 -0.12322,0.06846c-0.13692,0.07302 -0.27383,0.15061 -0.41075,0.23276c-0.03651,0.00913 -0.06389,0.02738 -0.08215,0.05477c-0.18255,0.07302 -0.36511,0.14148 -0.54766,0.20537c-0.72109,0.27383 -1.46956,0.42444 -2.24542,0.45182c-0.54766,0.03651 -1.29157,-0.01369 -2.23172,-0.15061l-1.45131,-0.19168c-1.0862,-0.14604 -1.88031,-0.31491 -2.38233,-0.50659c-0.2647,-0.11866 -0.42444,-0.09128 -0.4792,0.08215c1.83467,0.7576 3.21752,1.30983 4.14854,1.65668c0.858,0.33773 1.57453,0.57505 2.14958,0.71196c0.94928,0.24645 1.76165,0.27839 2.4371,0.09584c0.43813,-0.10953 0.87626,-0.32403 1.31439,-0.6435c0.31034,-0.22819 0.68001,-0.55223 1.10902,-0.9721c0.83975,-0.87626 1.41936,-1.66124 1.73883,-2.35495c0.09128,-0.18255 0.2145,-0.4929 0.36967,-0.93103c0.38336,-1.24137 0.57505,-2.50099 0.57505,-3.77887c0.07302,-1.30526 -0.06846,-2.56945 -0.42444,-3.79256l-1.08163,-3.20383M214.05449,147.13894c0.31947,-0.3286 0.67089,-0.60243 1.05425,-0.82149c1.25962,0.1004 2.47817,0.28752 3.65565,0.56135c0.20081,0.03651 0.40162,0.08215 0.60243,0.13692c0.21906,0.06389 0.42444,0.12779 0.61612,0.19168v0.01369c-0.00913,0.07302 -0.02738,0.24645 -0.05477,0.52028c0,0.00913 0,0.02282 0,0.04107c-0.02738,0.20081 -0.07302,0.35598 -0.13692,0.46551c-0.01825,0.03651 -0.03195,0.08215 -0.04107,0.13692c-0.04564,0.1004 -0.10953,0.22819 -0.19168,0.38336c-0.01825,0.07302 -0.04564,0.18255 -0.08215,0.3286c-0.02738,0.14604 -0.05933,0.26014 -0.09584,0.34229c-0.01825,0.07302 -0.11866,0.26014 -0.30121,0.56135c-0.02738,0.06389 -0.06846,0.14604 -0.12322,0.24645c-0.01825,0.04564 -0.03195,0.09128 -0.04107,0.13692c-0.04564,0.07302 -0.08671,0.15517 -0.12322,0.24645l-0.28752,0.72565c-0.27383,0.83062 -0.53397,1.49238 -0.78042,1.98528c-0.29209,0.52941 -0.63894,1.01774 -1.04056,1.465c-0.07302,0.08215 -0.13692,0.15517 -0.19168,0.21906c-0.13692,0.12779 -0.27839,0.25558 -0.42444,0.38336c-0.65719,0.61156 -1.39198,1.08163 -2.20434,1.41023c0.03651,-0.13692 0.09584,-0.36054 0.17799,-0.67089c0.10953,-0.28296 0.16886,-0.51115 0.17799,-0.68458c0.00913,-0.05477 -0.00456,-0.31491 -0.04107,-0.78042l-0.01369,-0.8078c-0.00913,-0.21906 -0.06846,-0.52484 -0.17799,-0.91733l-0.61612,-2.66985c-0.05477,-0.31947 -0.09584,-0.53853 -0.12322,-0.65719c-0.03651,-0.48377 0.01825,-0.9721 0.1643,-1.465v-0.01369c0,-0.00913 0.00456,-0.01825 0.01369,-0.02738c0.05477,-0.15517 0.11866,-0.31034 0.19168,-0.46551c0.10953,-0.14604 0.22363,-0.28296 0.34229,-0.41075c0.02738,-0.04564 0.05933,-0.08215 0.09584,-0.10953M160.26035,140.71759c-0.04564,-0.5933 0,-1.15465 0.13692,-1.68406c1.70688,0.53853 3.40007,1.18204 5.07957,1.93051c-0.7576,0.27383 -1.3509,0.83975 -1.7799,1.69775c-0.29209,0.54766 -0.56135,1.41936 -0.8078,2.61509c-0.21906,-0.09128 -0.4792,-0.31034 -0.78042,-0.65719c-0.69371,-0.88539 -1.16835,-1.61104 -1.42392,-2.17696c-0.23732,-0.55679 -0.3788,-1.13184 -0.42444,-1.72514M142.25595,137.91082c-0.36511,0.68458 -0.60699,1.55627 -0.72565,2.61509c-0.06389,0.66632 -0.00913,1.19117 0.1643,1.57453c-0.19168,-0.02738 -0.38793,-0.10497 -0.58874,-0.23276c-0.1004,-0.07302 -0.2647,-0.20537 -0.4929,-0.39706c-0.62068,-0.63894 -1.04056,-1.13184 -1.25962,-1.47869c-0.30121,-0.46551 -0.44726,-0.93103 -0.43813,-1.39654c0.07302,-0.13692 0.1141,-0.27839 0.12322,-0.42444c0,-0.18255 0,-0.31947 0,-0.41075c0,-0.12779 0.02738,-0.24645 0.08215,-0.35598c0.02738,-0.05477 0.07302,-0.11866 0.13692,-0.19168c0.04564,-0.04564 0.08215,-0.08671 0.10953,-0.12322c1.27788,-0.17343 2.56489,-0.29209 3.86102,-0.35598c-0.38336,0.31034 -0.7074,0.70283 -0.9721,1.17747M154.79742,138.07512c-0.02738,-0.00913 -0.05477,-0.00913 -0.08215,0c-0.13692,-0.01825 -0.29209,0.00456 -0.46551,0.06846c-0.29209,0.10953 -0.55679,0.30121 -0.79411,0.57505c-0.5933,0.68458 -0.95841,1.55627 -1.09532,2.61509c-0.09128,0.67545 -0.07759,1.36916 0.04107,2.08112c-0.3286,0.20081 -0.76216,0.14148 -1.3007,-0.17799c-0.9219,-0.60243 -1.60648,-1.43305 -2.05373,-2.49186c-0.44726,-1.05881 -0.57505,-2.11306 -0.38336,-3.16275c0.04564,-0.20081 0.0502,-0.33773 0.01369,-0.41075c-0.01825,-0.01825 -0.03651,-0.03195 -0.05477,-0.04107c0.00913,-0.05477 0.02738,-0.10497 0.05477,-0.15061c0.02738,-0.06389 0.05477,-0.1141 0.08215,-0.15061c1.3509,0.08215 2.7018,0.21906 4.0527,0.41075c0.66632,0.10953 1.33264,0.23276 1.99897,0.36967c0.21906,0.04564 0.43813,0.09128 0.65719,0.13692c-0.23732,0.07302 -0.46095,0.18255 -0.67089,0.3286M171.30944,144.09941c0.67545,0.41075 1.45131,0.88539 2.32757,1.42392c0.09128,0.04564 0.17799,0.09128 0.26014,0.13692c-0.23732,0.31034 -0.40618,0.68914 -0.50659,1.1364c-0.08215,0.39249 -0.14148,0.94015 -0.17799,1.64299c-0.64807,-0.91277 -1.19573,-1.86662 -1.64299,-2.86154c-0.25558,-0.60243 -0.35142,-1.06794 -0.28752,-1.39654c0,-0.02738 0.00913,-0.05477 0.02738,-0.08215M202.14284,147.37169c0.10953,-0.02738 0.22363,-0.0502 0.34229,-0.06846c0.06389,-0.01825 0.12779,-0.03195 0.19168,-0.04107c-0.04564,0.05477 -0.10953,0.14148 -0.19168,0.26014c-0.1643,0.21906 -0.40162,0.53853 -0.71196,0.95841c-0.04564,0.07302 -0.1004,0.14604 -0.1643,0.21906c-0.429,0.61156 -0.84431,1.036 -1.24593,1.27332c-0.43813,0.25558 -0.83062,0.32403 -1.17747,0.20537c-0.22819,-0.07302 -0.45182,-0.24188 -0.67089,-0.50659c-0.03651,-0.03651 -0.20994,-0.27383 -0.52028,-0.71196c-0.17343,-0.2647 -0.37424,-0.51115 -0.60243,-0.73934c1.19573,-0.20994 2.72006,-0.48833 4.57298,-0.83519c0.06389,-0.01825 0.12322,-0.02282 0.17799,-0.01369M195.44766,148.64501c-0.11866,0.21906 -0.25101,0.34229 -0.39706,0.36967c-0.14604,0.05477 -0.36967,-0.01825 -0.67089,-0.21906c-0.01825,-0.01825 -0.03195,-0.03651 -0.04107,-0.05477c0.27383,-0.05477 0.66632,-0.11866 1.17747,-0.19168c-0.01825,0.03651 -0.04107,0.06846 -0.06846,0.09584M205.70264,146.8651v-0.06846c0.66632,-0.1004 1.28701,-0.18712 1.86205,-0.26014c0,0.01825 0,0.0502 0,0.09584c0,0.1004 0.03651,0.16886 0.10953,0.20537c0.19168,-0.00913 0.39249,-0.00456 0.60243,0.01369c0.31034,0.02738 0.62525,0.09128 0.94472,0.19168c0.48377,0.18255 0.93559,0.44269 1.35546,0.78042c0.25558,0.23732 0.4929,0.48833 0.71196,0.75304c0,0.00913 0.00456,0.01825 0.01369,0.02738c-0.01825,0.06389 -0.03195,0.12779 -0.04107,0.19168c-0.02738,0.02738 -0.04564,0.05933 -0.05477,0.09584c-0.1643,0.429 -0.38336,0.88082 -0.65719,1.35546c-0.09128,0.15517 -0.19625,0.31491 -0.31491,0.4792c-0.20081,0.3286 -0.51572,0.77586 -0.94472,1.34177c-0.09128,0.1004 -0.18255,0.20994 -0.27383,0.3286c-0.02738,0.04564 -0.05477,0.07759 -0.08215,0.09584c-0.14604,0.13692 -0.26927,0.20994 -0.36967,0.21906c-0.10953,0 -0.24188,-0.08671 -0.39706,-0.26014c-0.21906,-0.25558 -0.43813,-0.55679 -0.65719,-0.90364c-0.07302,-0.17343 -0.1643,-0.34685 -0.27383,-0.52028c-0.18255,-0.33773 -0.41075,-0.8717 -0.68458,-1.60191c-0.20994,-0.50202 -0.35142,-0.88995 -0.42444,-1.16378c-0.04564,-0.20081 -0.08671,-0.38793 -0.12322,-0.56135c-0.03651,-0.23732 -0.03651,-0.46095 0,-0.67089z" fill="#ffffff"/><path d="M194.05112,177.90387c6.43503,0.33773 11.9573,1.036 16.56679,2.09481c0.21906,0.05477 0.45182,0.1141 0.69827,0.17799c0.06389,0.01825 0.12779,0.03195 0.19168,0.04107c2.51925,0.62981 5.37622,1.51064 8.57092,2.64247l0.31491,0.23276c-0.63894,0.80324 -1.51976,2.13588 -2.64247,3.99794c-1.62473,2.67442 -2.54663,4.41781 -2.7657,5.23018c-0.34685,1.30526 -0.58417,2.91174 -0.71196,4.81943l-0.15061,0.93103c-1.14096,-0.20994 -2.2728,-0.42444 -3.39551,-0.6435c-0.1643,-0.02738 -0.31947,-0.0502 -0.46551,-0.06846c-1.01318,-0.20081 -1.99897,-0.39706 -2.95738,-0.58874c-5.23018,-1.04056 -9.70732,-2.04461 -13.43142,-3.01214c-3.12168,-0.83062 -5.46293,-1.43761 -7.02377,-1.82098c-2.71093,-0.66632 -5.07044,-1.15465 -7.07854,-1.465c-1.83467,-0.24645 -4.40412,-0.48377 -7.70835,-0.71196c-3.61457,-0.21906 -6.17946,-0.41531 -7.69466,-0.58874c-2.85697,-0.36511 -5.38991,-0.90364 -7.59882,-1.6156c-2.62878,-0.88539 -4.90614,-2.06286 -6.83209,-3.53242c-1.73426,-1.36916 -3.44115,-3.2449 -5.12064,-5.62723c-3.00302,-4.15311 -4.80117,-8.2195 -5.39447,-12.19918l0.26014,-0.17799c0.5933,0.83062 1.36459,1.60648 2.31387,2.32757c0.79411,0.60243 1.75708,1.21399 2.88892,1.83467c4.45432,2.50099 9.67537,4.32653 15.66315,5.47662c4.58211,0.87626 10.15914,1.44218 16.73109,1.69775c3.70585,0.15517 9.29657,0.33773 16.77216,0.54766M212.4252,118.01699c1.98071,4.57298 2.40515,8.95884 1.27332,13.15759c-0.25558,0.99492 -0.76673,2.35039 -1.53345,4.06639c-0.28296,0.58417 -0.58874,1.21855 -0.91733,1.90313c-0.17343,0.36511 -0.34229,0.71652 -0.50659,1.05425c-0.64807,1.30526 -1.20029,2.33213 -1.65668,3.0806c-0.20994,0.34685 -0.39706,0.62981 -0.56135,0.84888l-0.05477,0.26014c0.39249,-0.12779 0.79867,-0.20994 1.21855,-0.24645c0.31034,-0.01825 0.62981,-0.00456 0.95841,0.04107c0.1004,0 0.27383,0.03651 0.52028,0.10953c0.39249,0.08215 0.9721,0.22819 1.73883,0.43813c1.04056,0.27383 2.49643,0.84431 4.36761,1.71145c0.86713,0.41075 1.60648,0.76216 2.21803,1.05425h-0.01369c-0.81237,-0.20081 -1.67037,-0.34685 -2.57401,-0.43813c-1.22311,-0.11866 -2.51012,-0.14604 -3.86102,-0.08215c-0.53853,0.02738 -1.07707,0.06846 -1.6156,0.12322c-0.30121,0.02738 -0.60243,0.05933 -0.90364,0.09584c-0.09128,0.00913 -0.17799,0.02282 -0.26014,0.04107c-0.55679,0.06389 -1.12271,0.14148 -1.69775,0.23276c-0.64807,0.11866 -1.58822,0.30578 -2.82046,0.56135c-0.88539,0.18255 -1.92138,0.40618 -3.10798,0.67089c-0.03651,0.00913 -0.07759,0.01825 -0.12322,0.02738c-0.07302,0.00913 -0.14148,0.02738 -0.20537,0.05477c-0.00913,-0.00913 -0.02282,-0.01369 -0.04107,-0.01369c-2.19065,0.48377 -4.00706,0.83519 -5.44924,1.05425c-0.1643,-0.07302 -0.30121,-0.1004 -0.41075,-0.08215c-0.1643,0.00913 -0.31491,0.07302 -0.45182,0.19168c-0.00913,0 -0.02738,0.00913 -0.05477,0.02738c-2.83872,0.36511 -5.62267,0.41531 -8.35185,0.15061c-2.87523,-0.2647 -5.58159,-0.86713 -8.1191,-1.80729c-1.12271,-0.429 -2.49186,-1.01318 -4.10747,-1.75252c-2.4371,-1.19573 -3.76062,-1.83011 -3.97055,-1.90313c-2.47361,-1.13184 -5.58159,-2.28193 -9.32395,-3.45027c-1.92595,-0.61156 -3.64652,-1.11814 -5.16172,-1.51976c-0.05477,-0.04564 -0.12322,-0.07759 -0.20537,-0.09584c-0.06389,-0.01825 -0.15061,-0.02738 -0.26014,-0.02738c-0.27383,-0.07302 -0.52941,-0.13692 -0.76673,-0.19168c-1.03143,-0.24645 -2.02635,-0.45182 -2.98476,-0.61612c-1.23224,-0.20081 -2.41428,-0.35598 -3.54611,-0.46551c-0.09128,0 -0.17343,-0.00456 -0.24645,-0.01369c-0.04564,-0.07302 -0.10497,-0.11866 -0.17799,-0.13692c0.00913,0.02738 -0.01825,0.02738 -0.08215,0c-0.06389,-0.02738 -0.14148,-0.01369 -0.23276,0.04107c-0.03651,0.01825 -0.06846,0.03651 -0.09584,0.05477c-2.65616,-0.14604 -5.59528,-0.02738 -8.81737,0.35598c-0.02738,-0.02738 -0.04564,-0.05933 -0.05477,-0.09584c-0.07302,-0.06389 -0.1643,-0.08671 -0.27383,-0.06846c-0.10953,0.00913 -0.18712,0.0502 -0.23276,0.12322l-0.02738,0.12322c-1.60648,0.20994 -3.67847,0.54766 -6.21597,1.01318c-0.23732,-0.10953 -0.59787,-0.08671 -1.08163,0.06846c-0.28296,0.10953 -0.52028,0.20537 -0.71196,0.28752c-0.1643,0.01825 -0.32403,0.0502 -0.4792,0.09584c-0.429,0.35598 -0.84888,0.74391 -1.25962,1.16378l-0.84888,0.78042c-0.14604,0.15517 -0.27383,0.19625 -0.38336,0.12322c-0.20081,-0.5933 -0.31947,-1.28244 -0.35598,-2.06743c-0.02738,-0.50202 -0.02282,-1.20486 0.01369,-2.1085l0.08215,-1.76621c0.01825,-0.47464 0.04107,-0.90364 0.06846,-1.28701c0.20081,-1.01318 0.50659,-2.00353 0.91733,-2.97107l-0.30121,0.61612c2.44623,-6.02429 5.63179,-11.10386 9.55671,-15.23871c2.65616,-2.79308 5.60898,-5.08413 8.85844,-6.87316c3.41376,-1.86205 6.93706,-3.04865 10.56988,-3.55981c2.49186,-0.34685 5.33058,-0.3788 8.51615,-0.09584c1.59735,0.11866 4.18049,0.45182 7.74942,0.99948c-1.09532,0.34685 -2.21803,0.77129 -3.36812,1.27332c-1.62473,0.73934 -3.78343,1.88944 -6.47611,3.45027c-0.41075,0.22819 -0.56592,0.47008 -0.46551,0.72565c0.05477,0.15517 0.18712,0.22363 0.39706,0.20537c0.1643,0 0.34229,-0.05477 0.53397,-0.1643c0.9219,-0.46551 2.30475,-1.20942 4.14854,-2.23172c1.62473,-0.858 3.05322,-1.49694 4.28546,-1.91682c1.79816,-0.5933 3.86102,-0.95385 6.18859,-1.08163c1.60648,-0.1004 3.72867,-0.08215 6.36658,0.05477c2.0081,0.09128 3.53699,0.29209 4.58667,0.60243c1.16835,0.33773 2.57401,1.04056 4.217,2.1085c1.27788,0.82149 2.31844,1.57453 3.12168,2.25911c1.06794,0.91277 1.93051,1.85749 2.5877,2.83415c1.05881,1.56997 1.68863,3.38182 1.88944,5.43555c0.20081,1.91682 0.00456,3.83364 -0.58874,5.75046c-0.40162,1.29613 -0.96754,2.5375 -1.69775,3.7241c1.0223,-1.07707 1.83923,-2.30018 2.45079,-3.66934c0.62068,-1.37828 0.9721,-2.80677 1.05425,-4.28546c0.10953,-1.46956 -0.04564,-2.93456 -0.46551,-4.39499c-0.40162,-1.43305 -1.036,-2.75657 -1.90313,-3.97055c-0.70283,-0.95841 -1.58822,-1.87574 -2.65616,-2.752c-0.60243,-0.52028 -1.29157,-1.04969 -2.06743,-1.58822c2.73831,0.1004 5.3534,0.09584 7.84526,-0.01369c0.1004,-0.00913 0.2145,-0.01825 0.34229,-0.02738c-0.11866,-0.02738 -0.22363,-0.05477 -0.31491,-0.08215c0.1004,-0.00913 0.2145,-0.01825 0.34229,-0.02738c0.1004,0 0.20081,0 0.30121,0c0.34685,-0.02738 0.78955,-0.07759 1.32808,-0.15061c2.03548,2.15414 3.71954,4.35392 5.05219,6.59933c0.20081,0.31947 0.38336,0.63438 0.54766,0.94472c0.47464,0.83975 0.90364,1.69319 1.28701,2.56032M155.33139,126.06762c-1.09532,1.13184 -1.97158,2.24085 -2.62878,3.32705c-0.04564,0.05477 -0.08671,0.11866 -0.12322,0.19168c-0.43813,0.69371 -0.62981,1.24137 -0.57505,1.64299c0.12779,-0.18255 0.26014,-0.37424 0.39706,-0.57505c0.06389,0.07302 0.14148,0.1141 0.23276,0.12322c0.14604,0.01825 0.30578,0.00913 0.4792,-0.02738c0.1004,-0.01825 0.20994,-0.04564 0.3286,-0.08215c1.44218,-0.53853 2.95281,-0.88995 4.53191,-1.05425c0.01825,-0.00913 0.04107,-0.00913 0.06846,0c0.00913,-0.00913 0.02282,-0.01369 0.04107,-0.01369c1.39654,-0.12779 2.83415,-0.1141 4.31284,0.04107c0.1643,0.01825 0.31491,0.03651 0.45182,0.05477c1.2505,0.1643 2.44623,0.40618 3.58719,0.72565c1.2505,0.31034 3.11255,0.83519 5.58616,1.57453c1.9442,0.38336 3.75149,0.37424 5.42186,-0.02738c0.22819,-0.06389 0.46551,-0.12779 0.71196,-0.19168c1.6156,-0.52028 3.21752,-1.43761 4.80574,-2.752c1.58822,-1.31439 2.93456,-2.84328 4.03901,-4.58667c0.53853,-0.82149 0.96754,-1.6156 1.28701,-2.38233c0.38336,-0.96754 0.60243,-1.93051 0.65719,-2.88892c0.00913,-0.15517 0.01825,-0.29665 0.02738,-0.42444c0.9219,0.79411 1.70688,1.73426 2.35495,2.82046c0.35598,0.60243 0.72109,1.31439 1.09532,2.13588c0.09128,0.20994 0.18255,0.429 0.27383,0.65719c0.20994,-0.28296 0.35598,-0.58417 0.43813,-0.90364c0.03651,-0.20081 0.0502,-0.41531 0.04107,-0.6435c-0.02738,-0.44726 -0.15061,-0.90821 -0.36967,-1.38285c-0.70283,-1.46043 -1.58822,-2.73831 -2.65616,-3.83364c-1.09532,-1.0862 -2.323,-1.97158 -3.68303,-2.65616c-1.40567,-0.62068 -2.79764,-0.99492 -4.17593,-1.12271c-0.99492,-0.08215 -2.49186,-0.04564 -4.49083,0.10953c-2.0081,0.18255 -3.49135,0.38793 -4.44976,0.61612c-2.29105,0.53853 -4.77379,1.62473 -7.44821,3.25859c-0.20994,0.12779 -0.43357,0.26927 -0.67089,0.42444c-1.99897,1.25962 -4.217,2.90717 -6.6541,4.94265c-1.36003,1.10445 -2.44166,2.07199 -3.2449,2.90261M190.83361,133.39261c-0.06389,-0.1004 -0.15517,-0.13235 -0.27383,-0.09584c-0.10953,0.03651 -0.2145,0.1004 -0.31491,0.19168c-1.69775,1.7799 -3.71954,3.02127 -6.06536,3.7241c-0.78498,0.21906 -1.7297,0.42444 -2.83415,0.61612c-0.51115,0.08215 -0.91733,0.11866 -1.21855,0.10953c-0.30121,0 -0.64807,-0.04107 -1.04056,-0.12322l-4.18962,-0.71196c-0.41075,-0.06389 -0.71652,-0.13235 -0.91733,-0.20537c-0.13692,-0.05477 -0.30578,-0.14148 -0.50659,-0.26014c-0.21906,-0.10953 -0.3788,-0.19625 -0.4792,-0.26014c-0.47464,-0.24645 -1.19573,-0.48377 -2.16327,-0.71196c-0.27383,-0.08215 -0.45638,-0.05477 -0.54766,0.08215c0.24645,0.15517 0.62068,0.28752 1.12271,0.39706c0.56592,0.12779 0.94472,0.23732 1.1364,0.3286c0.15517,0.06389 0.38336,0.19625 0.68458,0.39706c0.28296,0.18255 0.50202,0.31034 0.65719,0.38336c0.14604,0.05477 0.43357,0.13235 0.86257,0.23276l4.3813,0.76673c0.40162,0.06389 0.71196,0.10497 0.93103,0.12322c0.27383,0.00913 0.62068,-0.02282 1.04056,-0.09584c1.72514,-0.29209 3.18101,-0.68001 4.36761,-1.16378c1.07707,-0.43813 2.16783,-1.04969 3.27228,-1.83467c0.88539,-0.66632 1.58366,-1.29613 2.09481,-1.88944M158.11078,130.84598c-0.09128,0.02738 -0.12322,0.07302 -0.09584,0.13692c0.00913,0 0.01825,0 0.02738,0c0.02738,-0.06389 0.06389,-0.10953 0.10953,-0.13692c-0.00913,0 -0.02282,0 -0.04107,0M128.03042,134.51532c0.03651,-0.03651 0.07302,-0.06846 0.10953,-0.09584c-0.02738,0 -0.05933,0.00456 -0.09584,0.01369c-0.02738,0 -0.05477,0.00913 -0.08215,0.02738c-0.02738,-0.00913 -0.05477,-0.00456 -0.08215,0.01369c-0.02738,0.06389 -0.0502,0.13692 -0.06846,0.21906c0.03651,-0.03651 0.07759,-0.06846 0.12322,-0.09584c0.02738,-0.03651 0.05933,-0.06389 0.09584,-0.08215z" fill="#5b5d5e"/><path d="M169.62538,174.90542c-0.36511,-0.12779 -0.86713,-0.34229 -1.50607,-0.6435c-1.15922,-0.57505 -2.12676,-1.12727 -2.90261,-1.65668c-0.98579,-0.67545 -1.78447,-1.41023 -2.39602,-2.20434c-0.31947,-0.41987 -0.78042,-1.19573 -1.38285,-2.32757l-0.4792,-0.90364c-0.13692,-0.31034 -0.20994,-0.49746 -0.21906,-0.56135c-0.07302,-0.20994 -0.09128,-0.50659 -0.05477,-0.88995l0.17799,-0.05477c0.13692,0.44726 0.50659,0.90821 1.10902,1.38285c2.05373,1.66124 4.39955,3.00302 7.03746,4.02532c2.51012,0.94015 5.16172,1.55627 7.9548,1.84836c4.85594,0.50202 10.24129,0.01369 16.15604,-1.465c2.82046,-0.71196 6.95075,-1.93051 12.39086,-3.65565c0.12779,0.1004 0.27383,0.16886 0.43813,0.20537c0.05477,-0.10953 0.09584,-0.24645 0.12322,-0.41075c0.12779,-0.04564 0.2647,-0.08671 0.41075,-0.12322v-0.01369c2.28193,-0.65719 4.42694,-1.15922 6.43503,-1.50607c0.20081,-0.03651 0.40618,-0.07302 0.61612,-0.10953c2.39146,-0.41075 4.56842,-0.60243 6.53087,-0.57505c0.39249,0.01825 0.79867,0.04107 1.21855,0.06846c0.14604,0 0.28296,0.00913 0.41075,0.02738c2.64703,0.20081 5.32602,0.73934 8.03695,1.6156c2.79308,0.91277 5.57247,2.17696 8.33816,3.79256c0.04564,0.20994 0.1004,0.42444 0.1643,0.6435c0.20994,0.83062 0.39249,1.64755 0.54766,2.45079c-0.18255,0.04564 -0.26014,0.18712 -0.23276,0.42444c0.00913,0.08215 0.05933,0.24645 0.15061,0.4929c0.13692,0.30121 0.24188,0.67545 0.31491,1.12271c0.03651,0.24645 0.09584,0.6435 0.17799,1.19117c0.00913,0.04564 0.02282,0.09584 0.04107,0.15061c0.14604,2.14501 0.0502,4.21244 -0.28752,6.20228c-0.11866,0.03651 -0.23276,0.08215 -0.34229,0.13692c-0.02738,0.09128 -0.07302,0.20994 -0.13692,0.35598c-0.19168,0.44726 -0.41531,0.78498 -0.67089,1.01318c-0.11866,0.08215 -0.27839,0.18255 -0.4792,0.30121c-0.22819,0.14604 -0.38336,0.24645 -0.46551,0.30121c-0.2647,0.21906 -0.46551,0.36967 -0.60243,0.45182c-0.19168,-0.00913 -0.39249,-0.02282 -0.60243,-0.04107c-0.43813,-0.02738 -0.74847,-0.04107 -0.93103,-0.04107c-0.03651,-0.01825 -0.06389,-0.04564 -0.08215,-0.08215c-0.12779,-0.00913 -0.25558,-0.01369 -0.38336,-0.01369c-0.02738,0 -0.0502,0 -0.06846,0c-0.01825,0 -0.03651,0.00456 -0.05477,0.01369c-0.1643,-0.02738 -0.32403,-0.04564 -0.4792,-0.05477c-0.83062,-0.09128 -1.88487,-0.36967 -3.16275,-0.83519c-2.46448,-0.9219 -4.80574,-1.74796 -7.02377,-2.47817c-0.33773,-0.10953 -0.66632,-0.2145 -0.98579,-0.31491c-0.04564,-0.00913 -0.08671,-0.02282 -0.12322,-0.04107c-0.18255,-0.06389 -0.36511,-0.12322 -0.54766,-0.17799c-1.34177,-0.429 -2.63334,-0.81237 -3.87471,-1.15009c-1.23224,-0.35598 -2.45079,-0.68458 -3.65565,-0.98579c0.82149,-0.02738 1.85292,-0.05477 3.09429,-0.08215c0.17343,0 0.35598,0 0.54766,0c1.12271,-0.00913 2.63791,0.04564 4.5456,0.1643h0.02738c0.18255,0.00913 0.3788,0.02282 0.58874,0.04107c0.36511,0.01825 0.72109,0.04107 1.06794,0.06846c1.04056,0.08215 1.85292,0.15974 2.4371,0.23276c1.27788,0.17343 2.39146,0.45638 3.34074,0.84888c0.39249,0.15517 1.11814,0.50202 2.17696,1.04056c0.90364,0.48377 1.64755,0.81237 2.23172,0.98579l-2.30018,-1.42392c-1.09532,-0.64807 -1.91682,-1.10445 -2.46448,-1.36916c-0.9219,-0.41075 -2.01266,-0.72109 -3.27228,-0.93103c-0.52028,-0.09128 -1.18204,-0.17799 -1.98528,-0.26014c-0.429,-0.04564 -0.89451,-0.09128 -1.39654,-0.13692c-0.14604,-0.00913 -0.28752,-0.01369 -0.42444,-0.01369c-1.96246,-0.18255 -3.61001,-0.27383 -4.94265,-0.27383c-0.58417,-0.00913 -1.49694,-0.01369 -2.73831,-0.01369l-4.8742,0.06846c-1.6795,-0.34685 -3.31792,-0.63894 -4.91527,-0.87626c-4.09834,-0.65719 -9.22811,-1.12271 -15.38931,-1.39654c-4.60036,-0.19168 -8.05064,-0.35142 -10.35082,-0.4792c-3.22208,-0.14604 -6.07905,-0.33316 -8.57092,-0.56135c-0.01825,-0.01825 -0.03195,-0.02738 -0.04107,-0.02738c-0.12779,-0.10953 -0.29665,-0.2145 -0.50659,-0.31491c-0.00913,0 -0.18712,-0.06389 -0.53397,-0.19168z" fill="#77a7b5"/><path d="M187.16427,117.41456c-0.02738,0.21906 -0.02738,0.47464 0,0.76673c0.03651,0.15517 0.08671,0.38336 0.15061,0.68458c0.11866,0.63894 0.09584,1.36003 -0.06846,2.16327c-0.1643,0.7576 -0.429,1.51976 -0.79411,2.28649c-0.69371,1.44218 -1.70688,2.82046 -3.03953,4.13485c-1.82554,1.80729 -3.65565,2.95738 -5.49032,3.45027c-1.01318,0.2647 -2.19978,0.31034 -3.55981,0.13692c-0.95841,-0.09128 -2.09937,-0.29209 -3.42289,-0.60243c-0.5933,-0.15517 -1.14096,-0.28296 -1.64299,-0.38336l3.25859,-1.1364c0.80324,-0.28296 1.36916,-0.49746 1.69775,-0.6435c0.20081,-0.11866 0.50659,-0.28296 0.91733,-0.4929c0.06389,-0.01825 0.19625,-0.06389 0.39706,-0.13692c0.19168,-0.05477 0.35598,-0.11866 0.4929,-0.19168c0.25558,-0.10953 0.60243,-0.36967 1.04056,-0.78042l2.05373,-1.86205c0.5933,-0.54766 1.03143,-1.00405 1.31439,-1.36916c0.2647,-0.34685 0.46551,-0.62068 0.60243,-0.82149c0.23732,-0.30121 0.45182,-0.53397 0.6435,-0.69827c0.10953,-0.07302 0.19168,-0.13692 0.24645,-0.19168c0.10953,-0.06389 0.18255,-0.13692 0.21906,-0.21906c0.04564,-0.09128 0.09584,-0.20081 0.15061,-0.3286c0.07302,-0.17343 0.12322,-0.27383 0.15061,-0.30121c0.05477,-0.15517 0.15517,-0.3286 0.30121,-0.52028c0.17343,-0.21906 0.29665,-0.39249 0.36967,-0.52028c0.07302,-0.11866 0.14148,-0.28752 0.20537,-0.50659c0.07302,-0.29209 0.13692,-0.4929 0.19168,-0.60243c0.19168,-0.37424 0.31947,-0.66176 0.38336,-0.86257c0.11866,-0.31947 0.18255,-0.82149 0.19168,-1.50607c-0.01825,-0.11866 -0.05477,-0.21906 -0.10953,-0.30121l0.04107,-0.02738c1.13184,0.3286 2.16783,0.78955 3.10798,1.38285z" fill="#303030"/><path d="M164.92918,119.53675c2.77482,-1.65212 5.57703,-2.82502 8.40662,-3.51873c3.2951,-0.83062 6.35288,-0.9721 9.17335,-0.42444c0.52941,0.10953 1.04512,0.25558 1.54715,0.43813l-0.04107,0.02738c-0.08215,-0.07302 -0.17799,-0.06389 -0.28752,0.02738c-0.04564,0.06389 -0.09128,0.18255 -0.13692,0.35598c-0.04564,0.55679 -0.1643,1.11814 -0.35598,1.68406c-0.21906,0.65719 -0.50202,1.28701 -0.84888,1.88944c-0.17343,0.25558 -0.43813,0.61612 -0.79411,1.08163l-1.27332,1.7799c-0.34685,0.45638 -0.65719,0.81693 -0.93103,1.08163c-0.06389,0.05477 -0.29665,0.26927 -0.69827,0.6435l-1.15009,0.99948c-0.13692,0.11866 -0.34229,0.31491 -0.61612,0.58874c-0.23732,0.22819 -0.44269,0.41531 -0.61612,0.56135c-0.39249,0.27383 -0.85344,0.53853 -1.38285,0.79411c-0.5933,0.30121 -1.57909,0.68914 -2.95738,1.16378l-3.38182,1.1364c-0.38336,-0.09128 -0.71196,-0.15974 -0.98579,-0.20537c-1.56997,-0.3286 -3.09429,-0.56592 -4.57298,-0.71196c-0.15517,-0.01825 -0.29665,-0.02738 -0.42444,-0.02738c-1.75252,-0.12779 -3.3453,-0.11866 -4.77835,0.02738c-1.55171,0.1643 -3.03953,0.50202 -4.46345,1.01318c-0.20994,0.08215 -0.41987,0.1643 -0.62981,0.24645c0.10953,-0.1643 0.23276,-0.31947 0.36967,-0.46551c1.26875,-1.72514 2.94369,-3.46853 5.0248,-5.23018c1.82554,-1.57909 3.62826,-2.94825 5.40817,-4.10747c0.46551,-0.31034 0.93103,-0.5933 1.39654,-0.84888z" fill="#141414"/><path d="M211.22034,146.24898c0.09128,-0.00913 0.17799,-0.01369 0.26014,-0.01369c0.7576,-0.00913 1.49238,-0.00456 2.20434,0.01369c0.11866,0 0.24188,0.00456 0.36967,0.01369c-0.05477,0.06389 -0.1141,0.13235 -0.17799,0.20537c-0.02738,0.02738 -0.05477,0.0502 -0.08215,0.06846c-0.11866,0.13692 -0.22363,0.29209 -0.31491,0.46551c-0.14604,0.20994 -0.26927,0.41531 -0.36967,0.61612c-0.00913,0.02738 -0.01369,0.05933 -0.01369,0.09584c-0.04564,0.06389 -0.08671,0.11866 -0.12322,0.1643c-0.06389,0.09128 -0.1141,0.18255 -0.15061,0.27383c-0.00913,0.02738 -0.02282,0.05933 -0.04107,0.09584l-0.17799,0.24645c-0.11866,0.19168 -0.20081,0.41075 -0.24645,0.65719c-0.02738,0.02738 -0.05477,0.05477 -0.08215,0.08215c-0.01825,-0.02738 -0.03195,-0.05933 -0.04107,-0.09584c0.13692,-0.19168 0.22363,-0.38336 0.26014,-0.57505c0.03651,-0.14604 0.03195,-0.26927 -0.01369,-0.36967c-0.01825,-0.08215 -0.05477,-0.14604 -0.10953,-0.19168c-0.10953,-0.05477 -0.23732,-0.07302 -0.38336,-0.05477c-0.13692,0.01825 -0.25101,0.06389 -0.34229,0.13692c0,-0.00913 -0.00456,-0.01369 -0.01369,-0.01369c-0.40162,-0.54766 -0.88082,-0.99948 -1.43761,-1.35546c-0.27383,-0.1643 -0.5431,-0.29209 -0.8078,-0.38336c0.17343,-0.00913 0.35142,-0.01825 0.53397,-0.02738c0.43813,-0.02738 0.8717,-0.04564 1.3007,-0.05477z" fill="#624948"/><path d="M212.95917,153.61504l0.39706,1.76621c0.12779,0.54766 0.20081,0.9721 0.21906,1.27332c0.00913,0.33773 -0.01825,0.61156 -0.08215,0.82149c0.1643,0.07302 0.35142,0.06389 0.56135,-0.02738c0.11866,-0.06389 0.28296,-0.18255 0.4929,-0.35598c0.15517,-0.12779 0.38336,-0.29209 0.68458,-0.4929c0.3286,-0.21906 0.56135,-0.38336 0.69827,-0.4929l0.88995,-0.76673c0.01825,0 0.03651,-0.00913 0.05477,-0.02738c0.1004,-0.09128 0.22819,-0.18255 0.38336,-0.27383c0.10953,-0.08215 0.22819,-0.17343 0.35598,-0.27383c0.31947,-0.23732 0.57505,-0.45182 0.76673,-0.6435c0.33773,-0.38336 0.66632,-0.9721 0.98579,-1.76621c0.18255,-0.47464 0.33773,-0.9219 0.46551,-1.34177c0.02738,-0.13692 0.05933,-0.2647 0.09584,-0.38336l0.36967,-1.47869c0.18255,-0.68458 0.26014,-1.1866 0.23276,-1.50607c-0.01825,-0.11866 -0.02738,-0.2145 -0.02738,-0.28752c0.3286,0.1004 0.64807,0.20081 0.95841,0.30121c0.55679,0.19168 1.09076,0.41531 1.60191,0.67089c0.82149,0.39249 1.59735,0.83062 2.32757,1.31439c1.88031,1.27788 3.63739,3.02583 5.27125,5.24387c0.858,1.19573 1.75708,2.65616 2.69724,4.3813c0.17343,0.28296 0.34229,0.58874 0.50659,0.91733c1.12271,2.21803 2.06286,4.34935 2.82046,6.39396c0,0.01825 0.00913,0.03651 0.02738,0.05477c0.429,1.13184 0.80324,2.24085 1.12271,3.32705c-0.31034,-0.33773 -0.65719,-0.65719 -1.04056,-0.95841c-0.64807,-0.47464 -1.48782,-0.96297 -2.51925,-1.465c-4.01619,-1.92595 -8.24232,-3.00758 -12.67839,-3.2449c-0.07302,0 -0.14604,-0.00456 -0.21906,-0.01369c-0.19168,-0.00913 -0.37424,-0.01369 -0.54766,-0.01369c-2.4371,-0.07302 -5.0887,0.12322 -7.9548,0.58874c-0.08215,0.02738 -0.1643,0.04564 -0.24645,0.05477c-0.93103,-1.17747 -1.76621,-2.8661 -2.50556,-5.06588c-0.83062,-2.38233 -1.18204,-4.4817 -1.05425,-6.29812c0.1004,-0.1004 0.19625,-0.2145 0.28752,-0.34229l2.56032,-3.61457c0.12779,0.24645 0.24645,0.51115 0.35598,0.79411l0.01369,0.01369l0.06846,0.54766c0.05477,0.37424 0.14148,0.82149 0.26014,1.34177c0.08215,0.28296 0.19625,0.72565 0.34229,1.32808z" fill="#425b63"/><path d="M193.58561,148.83669c0.00913,0.1004 0.04107,0.22819 0.09584,0.38336c0.34685,0.62981 0.7074,0.96754 1.08163,1.01318c0.33773,0.06389 0.66176,-0.05933 0.9721,-0.36967c0.18255,-0.20081 0.36511,-0.52484 0.54766,-0.9721c0.36511,0.1643 0.84431,0.6435 1.43761,1.43761c0.52028,0.70283 1.01774,1.08163 1.49238,1.1364c0.41075,0.03651 0.87626,-0.09584 1.39654,-0.39706c0.13692,-0.08215 0.2647,-0.1643 0.38336,-0.24645c0.69371,-0.47464 1.28244,-1.05425 1.76621,-1.73883c0.31034,-0.47464 0.57048,-0.98579 0.78042,-1.53345c0.04564,-0.09128 0.07759,-0.17343 0.09584,-0.24645c-0.00913,-0.02738 -0.01825,-0.05477 -0.02738,-0.08215c-0.01825,-0.02738 -0.04107,-0.05477 -0.06846,-0.08215c0.70283,-0.11866 1.37372,-0.22363 2.01266,-0.31491c0.04564,-0.01825 0.09584,-0.02738 0.15061,-0.02738v0.06846c-0.08215,0.11866 -0.14604,0.25101 -0.19168,0.39706c-0.07302,0.13692 -0.12322,0.28752 -0.15061,0.45182c-0.10953,0.68458 0.00456,1.51064 0.34229,2.47817c0.08215,0.22819 0.16886,0.45182 0.26014,0.67089c0.11866,0.2647 0.24188,0.51572 0.36967,0.75304c0.37424,0.73934 0.81693,1.39198 1.32808,1.95789c0.18255,0.20081 0.35142,0.3286 0.50659,0.38336c0.13692,0.01825 0.28752,-0.00913 0.45182,-0.08215c0.14604,-0.06389 0.29665,-0.17343 0.45182,-0.3286c-0.12779,1.81641 0.22363,3.91579 1.05425,6.29812c0.73934,2.19978 1.57453,3.8884 2.50556,5.06588c-1.06794,0.17343 -2.16327,0.38336 -3.28597,0.62981c-0.65719,0.13692 -1.63842,0.3788 -2.94369,0.72565c-0.14604,0.03651 -0.29209,0.07759 -0.43813,0.12322c-0.00913,-0.08215 -0.02282,-0.1643 -0.04107,-0.24645c-0.2647,-1.00405 -0.45638,-1.70232 -0.57505,-2.09481c-0.19168,-0.50202 -0.45638,-1.04969 -0.79411,-1.64299c-0.22819,-0.43813 -0.48377,-0.88082 -0.76673,-1.32808c-0.03651,-0.05477 -0.07759,-0.10953 -0.12322,-0.1643c0,0.01825 0,0.03651 0,0.05477c-0.21906,-0.31034 -0.45638,-0.6435 -0.71196,-0.99948c-0.79411,-1.0862 -1.40567,-1.89856 -1.83467,-2.4371c-0.62981,-0.74847 -1.2505,-1.38285 -1.86205,-1.90313c-0.1004,-0.08215 -0.20081,-0.16886 -0.30121,-0.26014c-0.34685,-0.27383 -0.63894,-0.36511 -0.87626,-0.27383c-0.28296,-0.28296 -0.57961,-0.58874 -0.88995,-0.91733l-1.465,-1.47869c-0.7576,-0.73022 -1.30526,-1.22311 -1.64299,-1.47869c-0.83975,-0.65719 -2.00353,-1.32352 -3.49135,-1.99897c-0.03651,0 -0.05933,-0.00456 -0.06846,-0.01369c0.97666,-0.09128 1.99897,-0.2145 3.06691,-0.36967z" fill="#557580"/></g><path d="M171.47374,96.39801c0.05477,-0.20081 0.16886,-0.35598 0.34229,-0.46551c1.05881,-0.73022 2.39146,-1.20942 3.99794,-1.43761c1.01318,-0.14604 2.46904,-0.20537 4.36761,-0.17799c2.58314,0.03651 4.49996,0.19168 5.75046,0.46551c2.16327,0.48377 3.8382,1.37828 5.0248,2.68355c-2.05373,-1.04056 -4.51365,-1.67493 -7.37975,-1.90313c-1.83467,-0.14604 -4.42694,-0.12322 -7.77681,0.06846c-0.95841,0.05477 -1.69319,0.13692 -2.20434,0.24645c-0.80324,0.18255 -1.45587,0.4792 -1.95789,0.88995c-0.1643,-0.03651 -0.21906,-0.15974 -0.1643,-0.36967M182.65975,97.5481c3.07604,0.14604 5.79153,0.91733 8.14648,2.31387c0.11866,0.07302 0.57961,0.36511 1.38285,0.87626c0.56592,0.35598 1.04056,0.62981 1.42392,0.82149l-0.08215,0.28752c-0.9219,-0.20994 -2.40971,-0.73022 -4.46345,-1.56084c-1.88031,-0.7576 -3.37725,-1.22311 -4.49083,-1.39654c-0.7576,-0.11866 -1.6156,-0.1643 -2.57401,-0.13692c-0.57505,0.00913 -1.43305,0.05933 -2.57401,0.15061c-1.86205,0.14604 -3.28597,0.28296 -4.27177,0.41075c-1.57909,0.20081 -2.9802,0.47008 -4.20331,0.8078c-0.72109,0.20081 -1.20942,0.31491 -1.465,0.34229c-0.44726,0.01825 -0.78042,0.04107 -0.99948,0.06846c-0.39249,0.03651 -0.69827,0.13692 -0.91733,0.30121c-0.1004,-0.05477 -0.15974,-0.14604 -0.17799,-0.27383c-0.02738,-0.11866 -0.00913,-0.23276 0.05477,-0.34229c0.1004,-0.1643 0.28752,-0.30578 0.56135,-0.42444c1.21399,-0.58417 2.63791,-1.036 4.27177,-1.35546c1.09532,-0.21906 2.59227,-0.42444 4.49083,-0.61612c1.2505,-0.11866 2.23172,-0.20081 2.94369,-0.24645c1.07707,-0.06389 2.0583,-0.07302 2.94369,-0.02738z" fill="#000000"/></g></g></svg>