<svg version="1.1" xmlns="http://www.w3.org/2000/svg" xmlns:xlink="http://www.w3.org/1999/xlink" width="190.98148" height="128.82883" viewBox="0,0,190.98148,128.82883"><g transform="translate(-118.59962,-94.83816)"><g data-paper-data="{&quot;isPaintingLayer&quot;:true}" fill-rule="nonzero" stroke="none" stroke-width="1" stroke-linecap="butt" stroke-linejoin="miter" stroke-miterlimit="10" stroke-dasharray="" stroke-dashoffset="0" style="mix-blend-mode: normal"><g><path d="M197.41508,136.92629c0.68959,0.71244 1.33242,1.44378 1.92848,2.19399c3.15823,3.98739 4.73736,8.19836 4.73736,12.63293c0,1.04303 -0.15837,2.51967 -0.47513,4.4299c-0.1074,0.6484 -0.23316,1.34713 -0.37731,2.09617c-0.07995,0.41381 -0.15914,0.80509 -0.23757,1.17386c-0.29776,1.4643 -0.57258,2.62418 -0.8245,3.47965c-0.11147,0.38776 -0.2186,0.71383 -0.32142,0.97822v0.27949c0.36723,-0.23462 0.73988,-0.42095 1.11795,-0.55898c0.31817,-0.10689 0.63959,-0.18141 0.96424,-0.22358c0.10852,-0.01448 0.29485,-0.02845 0.55898,-0.04192c0.41683,-0.00931 1.02705,-0.01398 1.83066,-0.01398c1.09933,0 2.68776,0.18633 4.7653,0.55898c0.99481,0.17573 1.83327,0.3248 2.51541,0.44718c-0.02213,-0.00102 -0.04542,-0.00102 -0.06987,0c-0.85709,0.02794 -1.7375,0.11646 -2.64118,0.26551c-1.23554,0.19816 -2.51653,0.50559 -3.84299,0.92231h-0.01398c-0.51203,0.16897 -1.03375,0.35064 -1.56513,0.545c-0.28164,0.1087 -0.56579,0.2205 -0.85245,0.33539c-0.08385,0.02794 -0.16303,0.06055 -0.23757,0.09782c-0.53103,0.21427 -1.06672,0.44252 -1.60706,0.68475c-0.61929,0.27705 -1.50433,0.70559 -2.65515,1.28565c-0.82384,0.41658 -1.78342,0.91034 -2.87875,1.4813c-0.03756,0.01732 -0.07481,0.0313 -0.11179,0.04192c-0.06442,0.03811 -0.12962,0.07071 -0.19564,0.09782c-0.01274,0.01103 -0.02671,0.02035 -0.04192,0.02794c-2.03095,1.05274 -3.7312,1.87724 -5.10069,2.47349c-0.1677,-0.02794 -0.3121,-0.01863 -0.43321,0.02794c-0.14906,0.05591 -0.27483,0.16303 -0.37731,0.32142c-0.00931,0 -0.02794,0.00931 -0.05591,0.02794c-2.70174,1.10864 -5.43142,1.89122 -8.18904,2.34771c-2.90669,0.49376 -5.73885,0.61022 -8.49648,0.34936c-1.2018,-0.12111 -2.69707,-0.34004 -4.48581,-0.6568c-2.72037,-0.53103 -4.197,-0.81052 -4.4299,-0.83846c-2.72968,-0.45649 -6.09753,-0.7686 -10.10356,-0.93629c-2.06244,-0.10131 -3.88844,-0.15256 -5.47799,-0.15372c-0.07286,-0.01863 -0.15205,-0.02794 -0.23757,-0.02794c-0.07508,0 -0.16825,0.01398 -0.27949,0.04192c-0.26996,0.0028 -0.53547,0.00746 -0.79654,0.01398c-1.07607,0.02853 -2.11019,0.08443 -3.10234,0.1677c-1.27579,0.11646 -2.48225,0.27949 -3.61938,0.4891c-0.0805,0.01444 -0.16434,0.02842 -0.25155,0.04192c-0.04254,-0.05598 -0.10776,-0.08859 -0.19564,-0.09782c0.01863,0.02794 -0.00931,0.04192 -0.08385,0.04192c-0.08385,-0.00931 -0.16303,0.0233 -0.23757,0.09782c-0.02725,0.02388 -0.05055,0.04716 -0.06987,0.06987c-2.65549,0.54752 -5.5249,1.44189 -8.60828,2.6831c-0.02442,-0.03228 -0.05237,-0.06023 -0.08385,-0.08385c-0.08385,-0.04658 -0.17701,-0.05124 -0.27949,-0.01398c-0.11179,0.03726 -0.17701,0.10248 -0.19564,0.19564v0.12577c-1.51652,0.62164 -3.46829,1.50203 -5.85531,2.64118c-0.26355,-0.04789 -0.61291,0.07323 -1.04809,0.36334c-0.24247,0.16424 -0.45675,0.31796 -0.64282,0.46116c-0.13709,0.0698 -0.27683,0.13967 -0.41924,0.20962c-0.34594,0.47491 -0.66736,0.96867 -0.96424,1.4813l-0.61488,0.99218c-0.10248,0.18633 -0.21427,0.2562 -0.33539,0.20962c-0.35403,-0.53103 -0.6568,-1.17386 -0.90833,-1.92848c-0.15837,-0.48445 -0.33539,-1.18318 -0.53103,-2.09617l-0.39128,-1.76079c-0.10463,-0.46848 -0.19779,-0.8877 -0.27949,-1.2577c-0.05543,-1.05937 -0.00883,-2.12143 0.13975,-3.18619l-0.13975,0.68475c0.81983,-6.58663 2.6272,-12.43263 5.4221,-17.53798c1.8819,-3.45635 4.19235,-6.49348 6.93134,-9.11137c2.87875,-2.739 6.03697,-4.83517 9.4747,-6.28851c2.37565,-0.99685 5.17056,-1.77476 8.38468,-2.33374c1.59996,-0.29565 4.22718,-0.65432 7.88161,-1.07603c-0.97807,0.63344 -1.96559,1.35545 -2.96259,2.16604c-1.41608,1.15522 -3.2514,2.85546 -5.50594,5.10069c-0.33539,0.33539 -0.42389,0.61488 -0.26551,0.83846c0.10248,0.13042 0.2562,0.16303 0.46116,0.09782c0.15837,-0.04658 0.32142,-0.1444 0.4891,-0.29346c0.79189,-0.71736 1.95642,-1.81668 3.49362,-3.29798c1.37882,-1.28565 2.62255,-2.29182 3.7312,-3.01849c1.62104,-1.06207 3.5635,-1.96109 5.82736,-2.69707c1.54651,-0.5124 3.63802,-1.05274 6.27454,-1.62104c2.01232,-0.43787 3.57281,-0.64282 4.68145,-0.61488c1.23907,0.02794 2.80886,0.34936 4.7094,0.96424c1.47198,0.47513 2.70639,0.95027 3.70323,1.4254c1.28565,0.61488 2.38032,1.31826 3.28401,2.11016c1.45334,1.27634 2.54801,2.89271 3.28401,4.84915c0.70804,1.85394 1.02014,3.80106 0.93629,5.84133c-0.05591,1.37882 -0.28881,2.74831 -0.69873,4.1085c0.72667,-1.32292 1.21112,-2.74366 1.45334,-4.26222c0.24222,-1.51856 0.21894,-3.01849 -0.06987,-4.49978c-0.28881,-1.4813 -0.82915,-2.8834 -1.62104,-4.20632c-0.78258,-1.3136 -1.76079,-2.45019 -2.93464,-3.40977c-0.94094,-0.76394 -2.05425,-1.44403 -3.3399,-2.04027c-0.72266,-0.3416 -1.54717,-0.677 -2.47349,-1.00616c2.73577,-0.61929 5.31172,-1.31335 7.72788,-2.08219c0.11584,-0.02925 0.22763,-0.06186 0.33539,-0.09782c0.01386,-0.00164 0.02319,-0.0063 0.02794,-0.01398c-0.00474,0.00426 -0.01405,0.00426 -0.02794,0c-0.11103,-0.00164 -0.21817,-0.01095 -0.32142,-0.02794c0.1107,-0.02213 0.22251,-0.05007 0.33539,-0.08385c0.09698,-0.02507 0.1948,-0.05303 0.29346,-0.08385c0.34689,-0.11372 0.77077,-0.27675 1.27167,-0.4891c2.57324,1.58887 4.81847,3.31238 6.7357,5.17056c0.26799,0.25864 0.52885,0.5195 0.78258,0.78258M177.26387,144.55637c-1.36019,-0.78258 -2.79955,-1.33224 -4.31811,-1.64898c-1.54651,-0.25155 -3.02314,-0.2562 -4.4299,-0.01398c-1.00616,0.17701 -2.46883,0.61022 -4.38799,1.29962c-1.92848,0.70804 -3.3399,1.29962 -4.23426,1.77476c-2.10549,1.13658 -4.26687,2.8601 -6.48415,5.17056c-0.17701,0.18633 -0.35867,0.38197 -0.545,0.58693c-1.63967,1.7701 -3.40046,3.97808 -5.28235,6.62391c-1.04342,1.44403 -1.84929,2.68776 -2.41759,3.7312c-0.78894,1.39381 -1.36655,2.70741 -1.73283,3.9408c-0.0251,0.08133 -0.0484,0.16052 -0.06987,0.23757c-0.24222,0.81052 -0.28415,1.40676 -0.12577,1.78874c0.07453,-0.21427 0.15372,-0.43787 0.23757,-0.67077c0.07453,0.04658 0.16303,0.06522 0.26551,0.05591c0.14287,-0.0238 0.29659,-0.07504 0.46116,-0.15372c0.09476,-0.04789 0.19258,-0.10379 0.29346,-0.1677c1.28565,-0.92231 2.6831,-1.66762 4.19235,-2.23592c0.01863,-0.01863 0.04192,-0.02794 0.06987,-0.02794c0.00931,-0.00931 0.0233,-0.01863 0.04192,-0.02794c1.34155,-0.49376 2.76694,-0.85245 4.2762,-1.07603c0.15837,-0.02794 0.3121,-0.05124 0.46116,-0.06987c1.26701,-0.17701 2.5061,-0.2562 3.71721,-0.23757c1.3136,-0.01863 3.29332,0.00931 5.93915,0.08385c2.00301,-0.12111 3.77777,-0.59625 5.32427,-1.4254c0.22358,-0.13042 0.44252,-0.26086 0.6568,-0.39128c1.45334,-0.94094 2.79023,-2.26386 4.01068,-3.96875c1.22043,-1.72352 2.14741,-3.58678 2.78092,-5.58978c0.31675,-0.95959 0.53103,-1.85394 0.64282,-2.6831c0.12111,-1.06207 0.08385,-2.07288 -0.11179,-3.03247c-0.02794,-0.14906 -0.05591,-0.29346 -0.08385,-0.43321c1.11795,0.54966 2.1381,1.27167 3.06041,2.16604c0.51432,0.49194 1.05933,1.10216 1.63501,1.83066c0.14914,0.18455 0.29819,0.37552 0.44718,0.57295c0.13734,-0.33193 0.1979,-0.67197 0.18166,-1.02014c-0.00627,-0.20935 -0.04352,-0.42363 -0.11179,-0.64282c-0.13975,-0.43787 -0.38197,-0.85709 -0.72667,-1.2577c-1.07138,-1.2577 -2.2825,-2.28716 -3.63337,-3.08835M181.80559,159.94226c-0.10248,0.06522 -0.18633,0.15837 -0.25155,0.27949c-1.21112,2.18934 -2.8834,3.9408 -5.01684,5.25441c-0.71736,0.42855 -1.58843,0.87574 -2.61322,1.34155c-0.48445,0.22358 -0.88506,0.37265 -1.2018,0.44718c-0.28881,0.07453 -0.63817,0.12577 -1.04809,0.15372l-4.31811,0.40527c-0.42855,0.03726 -0.7453,0.04658 -0.95027,0.02794c-0.15837,-0.01863 -0.34936,-0.05591 -0.57295,-0.11179c-0.24222,-0.06522 -0.42389,-0.11179 -0.545,-0.13975c-0.54034,-0.12111 -1.3136,-0.17235 -2.31976,-0.15372c-0.29812,0 -0.47048,0.07918 -0.51706,0.23757c0.27949,0.09316 0.68009,0.13042 1.2018,0.11179c0.59625,-0.02794 1.00616,-0.0233 1.22976,0.01398c0.15837,0.02794 0.41458,0.09782 0.7686,0.20962c0.31675,0.11179 0.5683,0.17701 0.75461,0.19564c0.14906,0.01863 0.45184,0.01863 0.90833,0l4.51375,-0.37731c0.40991,-0.03726 0.72201,-0.07918 0.93629,-0.12577c0.28881,-0.06522 0.62419,-0.19098 1.00616,-0.37731c1.63036,-0.72667 2.9719,-1.49061 4.02465,-2.29182c0.94094,-0.71736 1.85394,-1.61173 2.739,-2.6831c0.70804,-0.87574 1.2251,-1.67694 1.55117,-2.40361c-0.07453,-0.07453 -0.1677,-0.07918 -0.27949,-0.01398M149.20311,166.04911c-0.00931,0 -0.0233,0.00467 -0.04192,0.01398c-0.08385,0.04658 -0.10715,0.09782 -0.06987,0.15372c0.00931,0 0.01863,0 0.02794,0c0.02794,-0.06522 0.05591,-0.12111 0.08385,-0.1677M120.54145,177.45229c-0.0278,0.01346 -0.05575,0.02744 -0.08385,0.04192c-0.0278,0.01346 -0.05575,0.02744 -0.08385,0.04192c-0.02348,0.01121 -0.04676,0.02053 -0.06987,0.02794c-0.0084,0.07802 -0.01306,0.15722 -0.01398,0.23757c0.0302,-0.04026 0.05815,-0.08218 0.08385,-0.12577c0.03028,-0.03584 0.05822,-0.07312 0.08385,-0.11179c0.02794,-0.03588 0.05591,-0.07315 0.08385,-0.11179M163.34529,209.59361c4.75132,-0.32607 10.40168,-1.2251 16.95105,-2.69707c3.69859,-0.82915 9.25576,-2.12412 16.67156,-3.88491c6.43758,-1.36019 12.06929,-2.11947 16.89514,-2.27784c0.24222,-0.00931 0.4891,-0.01398 0.74065,-0.01398c0.06568,-0.00135 0.1309,-0.006 0.19564,-0.01398c2.65691,-0.03978 5.70333,0.07667 9.13931,0.34936l0.37731,0.13975c-0.40991,0.95959 -0.92698,2.5061 -1.55117,4.63953c-0.90368,3.06507 -1.35552,5.03081 -1.35552,5.89724c0,1.37882 0.19098,3.02314 0.57295,4.93299l0.08385,0.95027c-1.17386,0.09316 -2.34305,0.18166 -3.50759,0.26551c-0.17072,0.01302 -0.34306,0.027 -0.51706,0.04192c-1.03731,0.07561 -2.05279,0.1455 -3.04643,0.20962c-5.4221,0.3447 -10.09889,0.53569 -14.03037,0.57295c-3.29798,0 -5.7668,0.01398 -7.40648,0.04192c-2.85079,0.04658 -5.30564,0.18633 -7.36455,0.41924c-1.87259,0.22358 -4.46718,0.66146 -7.78379,1.3136c-3.62405,0.73599 -6.20933,1.21579 -7.75583,1.43937c-2.90669,0.4006 -5.54321,0.54034 -7.90955,0.41924c-2.83216,-0.18633 -5.38484,-0.74997 -7.65801,-1.69091c-2.08686,-0.89437 -4.27153,-2.29182 -6.55404,-4.19235c-4.04328,-3.30729 -6.8801,-6.84749 -8.51046,-10.6206l0.19564,-0.23757c0.81052,0.66146 1.78407,1.22043 2.92068,1.67694c0.93163,0.38197 2.04027,0.73599 3.32593,1.06207c5.04944,1.27634 10.6765,1.69558 16.88117,1.2577z" fill="#5b5d5e"/><path d="M120.45761,177.5641c-0.02561,0.03868 -0.05357,0.07595 -0.08385,0.11179c-0.02569,0.04359 -0.05364,0.08552 -0.08385,0.12577c0.00091,-0.08035 0.00557,-0.15953 0.01398,-0.23757c0.02312,-0.00742 0.04639,-0.01674 0.06987,-0.02794c0.0281,-0.01448 0.05605,-0.02845 0.08385,-0.04192c0.0281,-0.01448 0.05605,-0.02845 0.08385,-0.04192c-0.02794,0.03865 -0.05591,0.07591 -0.08385,0.11179M149.11926,166.21681c-0.00931,0 -0.01863,0 -0.02794,0c-0.03726,-0.05591 -0.01398,-0.10715 0.06987,-0.15372c0.01863,-0.00931 0.03261,-0.01398 0.04192,-0.01398c-0.02794,0.04658 -0.05591,0.10248 -0.08385,0.1677M182.08507,159.95624c-0.32607,0.72667 -0.84313,1.52788 -1.55117,2.40361c-0.88506,1.07138 -1.79805,1.96574 -2.739,2.6831c-1.05274,0.80121 -2.39429,1.56513 -4.02465,2.29182c-0.38197,0.18633 -0.71736,0.3121 -1.00616,0.37731c-0.21427,0.04658 -0.52637,0.0885 -0.93629,0.12577l-4.51375,0.37731c-0.45649,0.01863 -0.75928,0.01863 -0.90833,0c-0.18633,-0.01863 -0.43787,-0.08385 -0.75461,-0.19564c-0.35403,-0.11179 -0.61022,-0.18166 -0.7686,-0.20962c-0.22358,-0.03726 -0.63351,-0.04192 -1.22976,-0.01398c-0.52171,0.01863 -0.92231,-0.01863 -1.2018,-0.11179c0.04658,-0.15837 0.21894,-0.23757 0.51706,-0.23757c1.00616,-0.01863 1.77943,0.03261 2.31976,0.15372c0.12111,0.02794 0.30279,0.07453 0.545,0.13975c0.22358,0.05591 0.41458,0.09316 0.57295,0.11179c0.20496,0.01863 0.52171,0.00931 0.95027,-0.02794l4.31811,-0.40527c0.40991,-0.02794 0.75928,-0.07918 1.04809,-0.15372c0.31675,-0.07453 0.71736,-0.22358 1.2018,-0.44718c1.02479,-0.46582 1.89586,-0.913 2.61322,-1.34155c2.13343,-1.3136 3.80571,-3.06507 5.01684,-5.25441c0.06522,-0.12111 0.14906,-0.21427 0.25155,-0.27949c0.11179,-0.06522 0.20496,-0.06055 0.27949,0.01398M180.89724,147.64472c0.3447,0.4006 0.58693,0.81983 0.72667,1.2577c0.06827,0.21919 0.10554,0.43347 0.11179,0.64282c0.01623,0.34816 -0.04432,0.6882 -0.18166,1.02014c-0.14899,-0.19743 -0.29805,-0.38841 -0.44718,-0.57295c-0.57568,-0.7285 -1.12068,-1.33871 -1.63501,-1.83066c-0.92231,-0.89437 -1.94246,-1.61637 -3.06041,-2.16604c0.02794,0.13975 0.05591,0.28415 0.08385,0.43321c0.19564,0.95959 0.23291,1.9704 0.11179,3.03247c-0.11179,0.82915 -0.32607,1.72352 -0.64282,2.6831c-0.63351,2.00301 -1.56049,3.86626 -2.78092,5.58978c-1.22043,1.70489 -2.55734,3.0278 -4.01068,3.96875c-0.21427,0.13042 -0.43321,0.26086 -0.6568,0.39128c-1.54651,0.82915 -3.32126,1.30428 -5.32427,1.4254c-2.64583,-0.07453 -4.62556,-0.10248 -5.93915,-0.08385c-1.21112,-0.01863 -2.45019,0.06055 -3.71721,0.23757c-0.14906,0.01863 -0.30279,0.04192 -0.46116,0.06987c-1.50925,0.22358 -2.93464,0.58227 -4.2762,1.07603c-0.01863,0.00931 -0.03261,0.01863 -0.04192,0.02794c-0.02794,0 -0.05124,0.00931 -0.06987,0.02794c-1.50925,0.5683 -2.90669,1.3136 -4.19235,2.23592c-0.10088,0.0639 -0.1987,0.1198 -0.29346,0.1677c-0.16456,0.07868 -0.31829,0.12992 -0.46116,0.15372c-0.10248,0.00931 -0.19098,-0.00931 -0.26551,-0.05591c-0.08385,0.23291 -0.16303,0.45649 -0.23757,0.67077c-0.15837,-0.38197 -0.11646,-0.97822 0.12577,-1.78874c0.02147,-0.07703 0.04476,-0.15624 0.06987,-0.23757c0.36628,-1.23339 0.94389,-2.54699 1.73283,-3.9408c0.5683,-1.04342 1.37416,-2.28716 2.41759,-3.7312c1.8819,-2.64583 3.64268,-4.8538 5.28235,-6.62391c0.18633,-0.20496 0.368,-0.4006 0.545,-0.58693c2.21728,-2.31044 4.37866,-4.03396 6.48415,-5.17056c0.89437,-0.47513 2.30579,-1.06672 4.23426,-1.77476c1.91916,-0.68941 3.38183,-1.12262 4.38799,-1.29962c1.40676,-0.24222 2.8834,-0.23757 4.4299,0.01398c1.51856,0.31675 2.95793,0.86643 4.31811,1.64898c1.35086,0.80121 2.56198,1.83066 3.63337,3.08835M171.0033,144.91971c0.17701,0.68009 0.24688,1.19249 0.20962,1.53719c-0.01863,0.22358 -0.06987,0.545 -0.15372,0.96424c-0.01863,0.11179 -0.02794,0.32607 -0.02794,0.64282c-0.00931,0.22358 -0.03261,0.40991 -0.06987,0.55898c-0.03726,0.13975 -0.11179,0.34004 -0.22358,0.60091c-0.09316,0.23291 -0.14906,0.42855 -0.1677,0.58693c-0.01863,0.02794 -0.03726,0.1444 -0.05591,0.34936c-0.01863,0.13042 -0.03726,0.24688 -0.05591,0.34936c-0.02794,0.09316 -0.0885,0.18633 -0.18166,0.27949c-0.03726,0.06522 -0.10248,0.14906 -0.19564,0.25155c-0.14906,0.20496 -0.29812,0.4891 -0.44718,0.85245c-0.08385,0.24222 -0.20962,0.5683 -0.37731,0.97822c-0.17701,0.43787 -0.4891,1.00152 -0.93629,1.69091l-1.53719,2.37565c-0.32607,0.53103 -0.60091,0.88506 -0.8245,1.06207c-0.11179,0.10248 -0.25155,0.20496 -0.41924,0.30743c-0.19564,0.12111 -0.32142,0.20031 -0.37731,0.23757c-0.33539,0.31675 -0.59158,0.55433 -0.7686,0.7127c-0.27949,0.24222 -0.77325,0.61022 -1.4813,1.10398l-2.93464,1.9704c0.52171,-0.03726 1.09467,-0.05591 1.71886,-0.05591c1.39745,-0.04658 2.57596,-0.1444 3.53554,-0.29346c1.39745,-0.20496 2.55267,-0.57295 3.46567,-1.10398c1.68626,-0.95027 3.1955,-2.55734 4.52773,-4.82119c0.95959,-1.64898 1.5931,-3.27002 1.90053,-4.86311c0.1677,-0.86643 0.22825,-1.69558 0.18166,-2.48746c-0.04658,-0.83846 -0.20962,-1.55117 -0.4891,-2.1381c-0.14906,-0.28881 -0.26086,-0.50309 -0.33539,-0.64282c-0.11179,-0.28881 -0.17701,-0.54034 -0.19564,-0.75461c-1.09933,-0.3447 -2.24523,-0.53103 -3.43772,-0.55898c-0.54034,-0.03726 -1.08534,-0.04192 -1.63501,-0.01398c-2.92532,0.19564 -5.90655,1.13658 -8.94367,2.82284c-2.60857,1.4254 -5.06342,3.32126 -7.36455,5.68761c-0.38197,0.37265 -0.76394,0.7686 -1.14591,1.18783c-1.45334,1.62104 -2.87875,3.44704 -4.2762,5.47799c-1.57009,2.29538 -2.76724,4.45677 -3.59144,6.48415c-0.07083,0.18859 -0.1407,0.3749 -0.20962,0.55898c0.17868,-0.13432 0.36035,-0.26475 0.545,-0.39128c1.27463,-0.89229 2.65345,-1.62362 4.13644,-2.19399c1.37882,-0.52171 2.94395,-0.94561 4.69543,-1.27167c0.13975,-0.03726 0.28415,-0.06522 0.43321,-0.08385c1.49992,-0.25155 3.06973,-0.42389 4.7094,-0.51706c0.27949,-0.01863 0.61954,-0.03261 1.02014,-0.04192l3.04643,-2.01232c1.22976,-0.82915 2.09617,-1.47198 2.59926,-1.92848c0.45649,-0.38197 0.83846,-0.7686 1.14591,-1.15988c0.13042,-0.17701 0.28881,-0.41458 0.47513,-0.7127c0.19564,-0.33539 0.3447,-0.58227 0.44718,-0.74065l0.86643,-1.27167c0.30743,-0.47513 0.48445,-0.74997 0.53103,-0.8245c0.19564,-0.33539 0.40527,-0.77325 0.62885,-1.3136l0.79654,-2.08219c0.23291,-0.55898 0.39594,-0.98753 0.4891,-1.28565c0.18633,-0.68009 0.30279,-1.37416 0.34936,-2.08219c0.03726,-0.60556 0.00931,-1.18783 -0.08385,-1.74681c-0.00931,-0.19564 0.00467,-0.33073 0.04192,-0.40527c0.07453,-0.11179 0.16303,-0.13975 0.26551,-0.08385c0.07453,0.05591 0.13509,0.13975 0.18166,0.25155M219.04757,106.21039c-1.78874,1.01548 -3.29332,2.17071 -4.51375,3.46567c-1.26701,1.34155 -2.67844,3.45169 -4.23426,6.33044c-1.73283,3.20481 -3.06041,5.39415 -3.98272,6.568c-0.52221,0.66204 -1.06257,1.24898 -1.62104,1.76079c-1.24628,1.17586 -2.57386,1.97707 -3.98272,2.40361c-0.17871,0.05175 -0.35573,0.07504 -0.53103,0.06987c-0.01517,0.01073 -0.03381,0.02005 -0.05591,0.02794c-0.00495,-0.01153 -0.01426,-0.02551 -0.02794,-0.04192c-0.13458,-0.00554 -0.26966,-0.03348 -0.40527,-0.08385c-0.02023,-0.00728 -0.03887,-0.01659 -0.05591,-0.02794c-0.03217,0.00565 -0.06478,0.01029 -0.09782,0.01398c-0.12908,0.01171 -0.26417,0.0024 -0.40527,-0.02794c-0.182,-0.03166 -0.37298,-0.10154 -0.57295,-0.20962c-0.12024,-0.06733 -0.25533,-0.15583 -0.40527,-0.26551c-0.14066,-0.10248 -0.29437,-0.22358 -0.46116,-0.36334c-0.17548,-0.14258 -0.34318,-0.28233 -0.50309,-0.41924c-0.49326,-0.4204 -0.87522,-0.78374 -1.14591,-1.09001c-0.22516,-0.25187 -0.42081,-0.50807 -0.58693,-0.7686c-0.23469,-0.36199 -0.40703,-0.72999 -0.51706,-1.10398c-0.1677,0.18633 -0.23757,0.45184 -0.20962,0.79654c0.01863,0.17701 0.0885,0.47048 0.20962,0.88039l0.19564,0.72667c0.12111,0.49376 0.21894,0.84778 0.29346,1.06207c0.18633,0.55898 0.4891,1.09933 0.90833,1.62104c0.30743,0.37265 0.40527,0.6568 0.29346,0.85245c-0.07453,0.13042 -0.20031,0.20031 -0.37731,0.20962c-0.15837,0 -0.30279,-0.04658 -0.43321,-0.13975c-0.09316,-0.06522 -0.20031,-0.17701 -0.32142,-0.33539c-0.14906,-0.19564 -0.24222,-0.31675 -0.27949,-0.36334c-0.24222,-0.27018 -0.68941,-0.52637 -1.34155,-0.7686c-0.75153,-0.30064 -1.38038,-0.51491 -1.88655,-0.64282c-0.05674,-0.0154 -0.11263,-0.02936 -0.1677,-0.04192c-0.33911,-0.07406 -0.67914,-0.12529 -1.02014,-0.15372c-0.46174,-0.03945 -0.9229,-0.03479 -1.38347,0.01398c-0.31435,0.03887 -0.62178,0.09476 -0.92231,0.1677c-0.25428,0.06783 -0.5058,0.14702 -0.75461,0.23757c-0.23014,0.0853 -0.45839,0.18313 -0.68475,0.29346c0,0.07453 0.06987,0.13975 0.20962,0.19564l4.4299,2.04027h0.01398c0.27018,-0.11179 0.47048,-0.12111 0.60091,-0.02794c0.13975,0.10248 0.17235,0.25155 0.09782,0.44718c-0.03726,0.11179 -0.13975,0.23291 -0.30743,0.36334c-0.17331,0.13564 -0.45279,0.29867 -0.83846,0.4891c-0.09229,0.04505 -0.19011,0.09163 -0.29346,0.13975c-0.2673,0.11992 -0.51885,0.22704 -0.75461,0.32142c-0.10725,0.05085 -0.21439,0.09742 -0.32142,0.13975c-0.5009,0.21235 -0.92479,0.37538 -1.27167,0.4891c-0.09866,0.03082 -0.19647,0.05877 -0.29346,0.08385c-0.11289,0.03378 -0.22468,0.06172 -0.33539,0.08385c0.10324,0.017 0.21038,0.02631 0.32142,0.02794c0.0139,0.00426 0.02323,0.00426 0.02794,0c-0.00477,0.00769 -0.01408,0.01233 -0.02794,0.01398c-0.10776,0.03596 -0.21956,0.06856 -0.33539,0.09782c-2.41616,0.76885 -4.99212,1.46292 -7.72788,2.08219c0.92632,0.32916 1.75081,0.66456 2.47349,1.00616c1.28565,0.59625 2.39895,1.27634 3.3399,2.04027c1.17386,0.95959 2.15207,2.09617 2.93464,3.40977c0.79189,1.32292 1.33224,2.72501 1.62104,4.20632c0.28881,1.4813 0.3121,2.98123 0.06987,4.49978c-0.24222,1.51856 -0.72667,2.9393 -1.45334,4.26222c0.40991,-1.36019 0.64282,-2.72968 0.69873,-4.1085c0.08385,-2.04027 -0.22825,-3.98739 -0.93629,-5.84133c-0.73599,-1.95642 -1.83066,-3.57281 -3.28401,-4.84915c-0.90368,-0.79189 -1.99834,-1.49527 -3.28401,-2.11016c-0.99685,-0.47513 -2.23126,-0.95027 -3.70323,-1.4254c-1.90053,-0.61488 -3.47033,-0.93629 -4.7094,-0.96424c-1.10864,-0.02794 -2.66913,0.17701 -4.68145,0.61488c-2.63652,0.5683 -4.72802,1.10864 -6.27454,1.62104c-2.26386,0.73599 -4.20632,1.63501 -5.82736,2.69707c-1.10864,0.72667 -2.35237,1.73283 -3.7312,3.01849c-1.53719,1.4813 -2.70174,2.58062 -3.49362,3.29798c-0.1677,0.14906 -0.33073,0.24688 -0.4891,0.29346c-0.20496,0.06522 -0.35867,0.03261 -0.46116,-0.09782c-0.15837,-0.22358 -0.06987,-0.50309 0.26551,-0.83846c2.25455,-2.24523 4.08987,-3.94547 5.50594,-5.10069c0.99699,-0.81059 1.98452,-1.5326 2.96259,-2.16604c-3.65444,0.42171 -6.28164,0.78039 -7.88161,1.07603c-3.21413,0.55898 -6.00903,1.33689 -8.38468,2.33374c-3.43772,1.45334 -6.59596,3.54952 -9.4747,6.28851c-2.739,2.61789 -5.04944,5.655 -6.93134,9.11137c-2.7949,5.10535 -4.60227,10.95133 -5.4221,17.53798l0.13975,-0.68475c-0.14859,1.06475 -0.19516,2.12682 -0.13975,3.18619c0.0817,0.37 0.17486,0.78923 0.27949,1.2577l0.39128,1.76079c0.19564,0.913 0.37265,1.61173 0.53103,2.09617c0.25155,0.75461 0.55433,1.39745 0.90833,1.92848c0.12111,0.04658 0.23291,-0.0233 0.33539,-0.20962l0.61488,-0.99218c0.29689,-0.51262 0.61831,-1.00637 0.96424,-1.4813c0.14239,-0.06994 0.28215,-0.13983 0.41924,-0.20962c0.18608,-0.14319 0.40035,-0.29692 0.64282,-0.46116c0.43518,-0.29011 0.78454,-0.41122 1.04809,-0.36334c2.38702,-1.13914 4.33879,-2.01953 5.85531,-2.64118v-0.12577c0.01863,-0.09316 0.08385,-0.15837 0.19564,-0.19564c0.10248,-0.03726 0.19564,-0.03261 0.27949,0.01398c0.03148,0.02362 0.05943,0.05157 0.08385,0.08385c3.08337,-1.24122 5.9528,-2.13558 8.60828,-2.6831c0.01932,-0.02271 0.04261,-0.046 0.06987,-0.06987c0.07453,-0.07453 0.15372,-0.10715 0.23757,-0.09782c0.07453,0 0.10248,-0.01398 0.08385,-0.04192c0.08789,0.00924 0.1531,0.04185 0.19564,0.09782c0.0872,-0.0135 0.17105,-0.02748 0.25155,-0.04192c1.13713,-0.20962 2.3436,-0.37265 3.61938,-0.4891c0.99215,-0.08326 2.02627,-0.13917 3.10234,-0.1677c0.26107,-0.00652 0.52659,-0.01117 0.79654,-0.01398c0.11124,-0.02794 0.20441,-0.04192 0.27949,-0.04192c0.08552,0 0.16471,0.00931 0.23757,0.02794c1.58957,0.00117 3.41557,0.05241 5.47799,0.15372c4.00602,0.1677 7.37388,0.47979 10.10356,0.93629c0.23291,0.02794 1.70955,0.30743 4.4299,0.83846c1.78874,0.31675 3.28401,0.53569 4.48581,0.6568c2.75762,0.26086 5.58978,0.1444 8.49648,-0.34936c2.75762,-0.45649 5.48732,-1.23907 8.18904,-2.34771c0.02794,-0.01863 0.04658,-0.02794 0.05591,-0.02794c0.10248,-0.15837 0.22825,-0.26551 0.37731,-0.32142c0.12111,-0.04658 0.26551,-0.05591 0.43321,-0.02794c1.3695,-0.59625 3.06973,-1.42074 5.10069,-2.47349c0.01521,-0.00761 0.02918,-0.01692 0.04192,-0.02794c0.06602,-0.02711 0.13123,-0.05971 0.19564,-0.09782c0.03698,-0.01062 0.07424,-0.02461 0.11179,-0.04192c1.09532,-0.57096 2.05491,-1.06472 2.87875,-1.4813c1.15081,-0.58005 2.03587,-1.0086 2.65515,-1.28565c0.54034,-0.24222 1.07603,-0.47048 1.60706,-0.68475c0.07453,-0.03726 0.15372,-0.06987 0.23757,-0.09782c0.28666,-0.11489 0.57081,-0.22668 0.85245,-0.33539c0.53139,-0.19436 1.0531,-0.37604 1.56513,-0.545h0.01398c1.32644,-0.41672 2.60744,-0.72415 3.84299,-0.92231c0.90368,-0.14906 1.78407,-0.23757 2.64118,-0.26551c0.02446,-0.00102 0.04774,-0.00102 0.06987,0c0.12388,-0.00488 0.24499,-0.00953 0.36334,-0.01398c0.53329,-0.00648 1.055,0.01215 1.56513,0.05591c0.41924,0.03726 0.84313,0.0885 1.27167,0.15372c0.26966,0.0433 0.53983,0.09454 0.81052,0.15372c1.53155,0.32047 3.0734,0.86082 4.62556,1.62104c2.01232,0.98753 3.95944,2.30113 5.84133,3.9408c1.04546,0.92173 2.10286,1.97913 3.1722,3.1722c0.54842,0.60952 1.09809,1.25235 1.64898,1.92848c0.11179,0.13042 0.22358,0.27018 0.33539,0.41924c-0.06405,0.00827 -0.12926,0.01758 -0.19564,0.02794c0.76944,1.0134 1.62654,2.18261 2.57131,3.50759c1.34155,1.90053 2.50143,3.61007 3.47965,5.12863c0.04658,0.03726 0.09316,0.08385 0.13975,0.13975c-0.01863,0 -0.03726,-0.00467 -0.05591,-0.01398c0.78258,1.22976 1.43006,2.33374 1.94246,3.31195c0.89437,1.68626 1.61637,3.33059 2.16604,4.93299c0.10248,0.19564 0.23291,0.49842 0.39128,0.90833c0.29812,0.66146 0.45184,1.00152 0.46116,1.02014c0.09316,0.27018 0.20031,0.69873 0.32142,1.28565l0.41924,1.99834c0.14906,0.77325 0.20962,1.36019 0.18166,1.76079c-0.02718,0.20661 -0.07377,0.39292 -0.13975,0.55898c0.15914,0.06062 0.32218,0.11653 0.4891,0.1677c-0.08902,0.20617 -0.18218,0.36454 -0.27949,0.47513c-0.09843,0.1166 -0.20093,0.18647 -0.30743,0.20962c-0.02794,0.00931 -0.17235,0.01398 -0.43321,0.01398c-0.03028,0 -0.06754,0 -0.11179,0c-0.03228,0.02732 -0.06488,0.05062 -0.09782,0.06987c-0.22358,0.12111 -0.5683,0.20496 -1.03411,0.25155c-0.50649,0.05564 -1.00492,0.0836 -1.49527,0.08385c-0.24896,0.04996 -0.57037,0.11518 -0.96424,0.19564c-0.62419,0.13042 -1.14125,0.18633 -1.55117,0.1677c-0.15793,0 -0.29769,-0.01863 -0.41924,-0.05591c-0.47203,0.08436 -0.97978,0.1356 -1.52322,0.15372c-0.75461,0.02794 -1.82135,-0.0233 -3.20016,-0.15372c-2.66446,-0.25155 -4.92833,-0.45649 -6.7916,-0.61488c-0.24349,-0.02312 -0.48107,-0.04639 -0.7127,-0.06987c-0.78817,-0.06849 -1.49622,-0.12438 -2.12412,-0.1677c-0.14906,-0.00931 -0.28881,-0.01863 -0.41924,-0.02794c-3.43597,-0.27269 -6.48241,-0.38913 -9.13931,-0.34936c-0.06474,0.00797 -0.12996,0.01263 -0.19564,0.01398c-0.25155,0 -0.49842,0.00467 -0.74065,0.01398c-4.82585,0.15837 -10.45756,0.91767 -16.89514,2.27784c-7.41579,1.76079 -12.97297,3.05575 -16.67156,3.88491c-6.54937,1.47198 -12.19973,2.37101 -16.95105,2.69707c-6.20467,0.43787 -11.83172,0.01863 -16.88117,-1.2577c-1.28565,-0.32607 -2.39429,-0.68009 -3.32593,-1.06207c-1.13658,-0.45649 -2.11016,-1.01548 -2.92068,-1.67694c-0.02794,-0.02794 -0.05591,-0.05124 -0.08385,-0.06987c2.2825,0.55898 4.01999,0.96424 5.21248,1.21579c1.93779,0.40991 3.69392,0.71736 5.26838,0.92231c5.25441,0.69873 11.23083,0.62419 17.92927,-0.22358c-0.33539,-0.08385 -0.69406,-0.19098 -1.07603,-0.32142c-0.70804,-0.22358 -1.29031,-0.42855 -1.74681,-0.61488c-1.03411,-0.45649 -1.95642,-1.10864 -2.76694,-1.95642c-0.30743,-0.31675 -0.7453,-0.87574 -1.3136,-1.67694c-0.44718,-0.58693 -0.72201,-1.07138 -0.8245,-1.45334c-0.08385,-0.31675 -0.11179,-0.81518 -0.08385,-1.49527c0.01863,-0.13975 0.06055,-0.19098 0.12577,-0.15372c0.07453,0.38197 0.17235,0.67077 0.29346,0.86643c0.03726,0.06522 0.16303,0.22825 0.37731,0.4891l0.69873,0.7686c0.88506,0.95027 1.54185,1.5931 1.9704,1.92848c0.81052,0.63351 1.79339,1.15056 2.94862,1.55117c0.89437,0.31675 1.98438,0.60556 3.27002,0.86643c0.73599,0.13042 1.29497,0.20962 1.67694,0.23757c0.37265,0.03726 0.56364,0.05591 0.57295,0.05591c0.24222,0.03726 0.43787,0.09316 0.58693,0.1677c0.00931,0 0.02794,0.00467 0.05591,0.01398c2.5061,-0.42855 5.37087,-0.99218 8.59431,-1.69091c2.30113,-0.48445 5.74352,-1.23907 10.32714,-2.26386c6.14878,-1.34155 11.3333,-2.23126 15.55359,-2.66913c1.63967,-0.17701 3.33059,-0.31675 5.07274,-0.41924l4.80723,-1.34155c1.21112,-0.33539 2.10549,-0.57295 2.6831,-0.7127c1.32722,-0.347 2.97154,-0.69636 4.93299,-1.04809c0.14921,-0.02092 0.29826,-0.04421 0.44718,-0.06987c0.50309,-0.09316 0.97355,-0.17235 1.41143,-0.23757c0.81052,-0.13975 1.48595,-0.23291 2.02631,-0.27949c1.30428,-0.12111 2.46417,-0.09782 3.47965,0.06987c0.60556,0.11179 1.53253,0.3447 2.78092,0.69873l2.6272,0.79654c-0.61488,-0.01863 -1.43006,-0.1444 -2.44553,-0.37731c-1.18318,-0.25155 -1.9937,-0.40527 -2.43156,-0.46116c-1.03411,-0.13042 -2.20797,-0.11179 -3.52157,0.05591c-0.58693,0.07453 -1.40676,0.20962 -2.4595,0.40527c-0.33539,0.05591 -0.68941,0.12111 -1.06207,0.19564c-0.20194,0.04109 -0.40225,0.07835 -0.60091,0.11179c-0.0047,0.00746 -0.01401,0.01211 -0.02794,0.01398c-1.89867,0.3947 -3.40792,0.73941 -4.52773,1.03411c-0.18633,0.04658 -0.36334,0.09316 -0.53103,0.13975c-1.21112,0.35403 -2.21728,0.65215 -3.01849,0.89437c1.2577,-0.00931 2.54335,-0.00467 3.85695,0.01398c1.31557,0.01984 2.68973,0.06176 4.12247,0.12577c0.19692,0.01306 0.39255,0.02238 0.58693,0.02794c0.04622,0.00662 0.08815,0.01128 0.12577,0.01398c0.35721,0.01638 0.71591,0.03501 1.07603,0.05591c2.36634,0.13042 4.88175,0.32142 7.54622,0.57295c1.40676,0.13042 2.52472,0.13042 3.35387,0c0.16289,-0.02714 0.32127,-0.05975 0.47513,-0.09782c0.02565,-0.00007 0.04895,-0.00474 0.06987,-0.01398c0.02323,-0.00044 0.0465,-0.0051 0.06987,-0.01398c0.12235,-0.02417 0.24345,-0.05211 0.36334,-0.08385c0.02805,0.02492 0.06066,0.04822 0.09782,0.06987c0.18436,-0.05379 0.50577,-0.12367 0.96424,-0.20962c0.20162,-0.03639 0.39726,-0.07831 0.58693,-0.12577c0.12497,-0.11292 0.28334,-0.31323 0.47513,-0.60091c0.07453,-0.07453 0.20031,-0.20962 0.37731,-0.40527c0.1677,-0.17701 0.29812,-0.32142 0.39128,-0.43321c0.19564,-0.27949 0.32607,-0.66612 0.39128,-1.15988c0.02794,-0.1677 0.04192,-0.29812 0.04192,-0.39128c0.09316,-0.08385 0.19564,-0.15837 0.30743,-0.22358c-0.19564,-2.04959 -0.64749,-4.11781 -1.35552,-6.20467c-0.02794,-0.04658 -0.05124,-0.09316 -0.06987,-0.13975c-0.21427,-0.5124 -0.37731,-0.88506 -0.4891,-1.11795c-0.18633,-0.42855 -0.38663,-0.77325 -0.60091,-1.03411c-0.15837,-0.20496 -0.25155,-0.35403 -0.27949,-0.44718c-0.08385,-0.21427 -0.04658,-0.368 0.11179,-0.46116c-0.36334,-0.76394 -0.75928,-1.52788 -1.18783,-2.29182c-0.11179,-0.19564 -0.21894,-0.39128 -0.32142,-0.58693c-3.14892,-0.85709 -6.2233,-1.3695 -9.22316,-1.53719c-2.91168,-0.15445 -5.69726,0.01325 -8.35674,0.50309c-0.13603,0.02828 -0.27578,0.05623 -0.41924,0.08385c-0.40104,0.08083 -0.80164,0.16933 -1.2018,0.26551c-1.94845,0.48834 -4.04928,1.24296 -6.30249,2.26386c-0.19269,0.09243 -0.38834,0.1856 -0.58693,0.27949c-1.87018,0.87938 -3.84524,1.94143 -5.92518,3.18619h-0.01398c-0.12431,0.08607 -0.24542,0.16992 -0.36334,0.25155c0.00931,0.15837 0.00467,0.30279 -0.01398,0.43321c-0.1677,0 -0.33073,-0.03261 -0.4891,-0.09782c-4.90039,3.13959 -8.6502,5.43142 -11.24945,6.87545c-5.45005,3.01849 -10.63924,4.91435 -15.56758,5.68761c-2.83216,0.44718 -5.60376,0.53103 -8.31482,0.25155c-2.87875,-0.30743 -5.54787,-1.00616 -8.00737,-2.09617c-0.70804,-0.32607 -1.19249,-0.68475 -1.45334,-1.07603c-0.02794,-0.04658 -0.05124,-0.0885 -0.06987,-0.12577c3.01849,0.71736 5.31496,1.21112 6.88942,1.4813c2.58994,0.41924 4.92368,0.59625 7.00121,0.53103c3.74516,-0.10248 7.74186,-1.02014 11.99011,-2.75298c3.03712,-1.23907 6.74502,-3.15823 11.12368,-5.75748c2.70261,-1.58868 4.93852,-2.9023 6.70776,-3.9408c-0.20489,-0.02348 -0.39587,-0.10266 -0.57295,-0.23757c-0.15837,-0.13042 -0.3121,-0.30279 -0.46116,-0.51706c-0.01863,-0.03726 -0.13975,-0.23757 -0.36334,-0.60091c-0.64202,-1.06734 -1.64353,-2.162 -3.00452,-3.28401c-0.21089,-0.17327 -0.43449,-0.35028 -0.67077,-0.53103c-0.79352,-0.5577 -1.50156,-1.06545 -2.12412,-1.52322v0.08385c-0.22704,-0.12864 -0.46461,-0.26373 -0.7127,-0.40527l-5.29633,-3.04643c-0.89437,-0.52171 -1.57446,-0.8897 -2.04027,-1.10398c-0.5683,-0.25155 -1.26701,-0.51706 -2.09617,-0.79654c-0.95027,-0.31675 -1.66762,-0.54034 -2.15207,-0.67077c-0.31675,-0.11179 -0.48445,-0.25155 -0.50309,-0.41924c-1.10864,0.35403 -2.17071,0.64749 -3.18619,0.88039c-2.88807,0.63351 -5.59912,0.81518 -8.13315,0.545c-1.22976,-0.13042 -2.66913,-0.41458 -4.31811,-0.85245l0.37731,2.51541c0.07453,0.4006 0.0885,0.70339 0.04192,0.90833c-0.07453,0.36334 -0.25155,0.58693 -0.53103,0.67077c-0.31675,0.13975 -0.73134,-0.02794 -1.24373,-0.50309l-0.85245,-0.78258c-0.44718,-0.43787 -0.71736,-0.70804 -0.81052,-0.81052c-0.30743,-0.31675 -0.54966,-0.61488 -0.72667,-0.89437c-0.47513,-0.76394 -0.63351,-1.49061 -0.47513,-2.18002c0,-0.04658 0.00467,-0.08385 0.01398,-0.11179c-0.54966,-0.17701 -1.03877,-0.31675 -1.46732,-0.41924c-1.22976,-0.32607 -2.47349,-0.60091 -3.7312,-0.8245c0,0.00931 0.00467,0.01863 0.01398,0.02794c0.06522,0.19564 0.05591,0.38197 -0.02794,0.55898c-0.06522,0.11179 -0.18166,0.24222 -0.34936,0.39128c-0.20496,0.18633 -0.33539,0.30743 -0.39128,0.36334c-0.24222,0.28881 -0.40527,0.75928 -0.4891,1.41143c-0.15837,1.0807 -0.17701,1.89586 -0.05591,2.44553c0.04658,0.27018 0.04658,0.45649 0,0.55898c-0.05591,0.13975 -0.19098,0.21894 -0.40527,0.23757c-0.1677,0.02794 -0.39128,-0.04192 -0.67077,-0.20962c-1.43471,-0.80121 -2.49211,-1.68159 -3.1722,-2.64118c-0.42855,-0.58693 -0.71736,-1.21112 -0.86643,-1.87259c-0.15837,-0.69873 -0.15372,-1.35552 0.01398,-1.9704c-1.12228,-0.04556 -2.24957,-0.05488 -3.38183,-0.02794c-0.09888,0.07817 -0.22464,0.15271 -0.37731,0.22358l-0.67077,0.33539c-0.33539,0.1677 -0.55898,0.28881 -0.67077,0.36334c-0.00448,0.00309 -0.00913,0.00309 -0.01398,0c-0.03792,0.1221 -0.11711,0.23856 -0.23757,0.34936c-0.27949,0.18633 -0.47513,0.34004 -0.58693,0.46116c-0.24222,0.23291 -0.44252,0.6568 -0.60091,1.27167c-0.14906,0.45649 -0.22358,0.81983 -0.22358,1.09001c0,0.26086 0.06987,0.60091 0.20962,1.02014c0.19564,0.53103 0.30743,0.88039 0.33539,1.04809c0.06522,0.31675 0.06987,0.62885 0.01398,0.93629c-0.04658,0.27949 -0.12111,0.45649 -0.22358,0.53103c-0.1677,0.15837 -0.42855,0.20962 -0.78258,0.15372c-1.36019,-0.17701 -2.66446,-0.96424 -3.91286,-2.36168c-0.44718,-0.52171 -0.74997,-0.99218 -0.90833,-1.41143c-0.16995,-0.39362 -0.27709,-1.01315 -0.32142,-1.85861c-0.04865,-0.07991 -0.08593,-0.1824 -0.11179,-0.30743v-0.6568c0,-0.03993 0,-0.07719 0,-0.11179c-1.3642,0.28273 -2.70574,0.62277 -4.02465,1.02014c-0.05591,0.06522 -0.13042,0.15372 -0.22358,0.26551c-0.25155,0.27018 -0.43321,0.49842 -0.545,0.68475c-0.28881,0.5124 -0.42855,1.16455 -0.41924,1.95642c0.01863,0.85709 0.20962,1.6583 0.57295,2.40361c0.08385,0.22358 0.22825,0.54966 0.43321,0.97822c-1.01548,0.27949 -2.00767,0.22825 -2.97656,-0.15372c-0.71736,-0.29812 -1.2577,-0.71736 -1.62104,-1.2577c-0.23291,-0.30743 -0.39128,-0.67077 -0.47513,-1.09001c-0.09316,-0.4006 -0.09782,-0.79189 -0.01398,-1.17386c0.02579,-0.11605 0.06772,-0.21388 0.12577,-0.29346c0.00513,-0.07499 0.00513,-0.13557 0,-0.18166c-0.01765,-0.08825 -0.03162,-0.16744 -0.04192,-0.23757c-1.01129,0.4374 -2.00814,0.91719 -2.99054,1.43937c-0.89437,0.44718 -1.63036,0.87107 -2.20797,1.27167c-0.76394,0.50309 -1.4021,1.03877 -1.9145,1.60706c-0.23291,0.27949 -0.40991,0.48445 -0.53103,0.61488c-0.03002,0.02882 -0.06263,0.05678 -0.09782,0.08385c-0.36414,0.64726 -0.80201,1.39723 -1.3136,2.24989c-0.19564,0.29812 -0.37265,0.46116 -0.53103,0.4891c-0.18633,0.03726 -0.39128,-0.04658 -0.61488,-0.25155c-0.5683,-0.48445 -1.07603,-1.30428 -1.52322,-2.4595l-0.43321,-1.14591c-0.1677,-0.44718 -0.27483,-0.78722 -0.32142,-1.02014c-0.05591,-0.27018 -0.08385,-0.61488 -0.08385,-1.03411l-0.01398,-0.37731c-0.01568,-0.04505 -0.03432,-0.09163 -0.05591,-0.13975l-0.25155,-0.44718c-0.00565,-0.02403 -0.01496,-0.05197 -0.02794,-0.08385l0.29346,-1.15988l-0.01398,-0.41924c-0.25739,-1.19085 -0.35987,-2.48116 -0.30743,-3.87093c0.03726,-1.53719 0.26551,-3.33059 0.68475,-5.38018c0.88506,-4.40662 2.1381,-8.21234 3.75914,-11.41715c2.02164,-4.00602 4.77462,-7.5043 8.25891,-10.49484c3.49362,-2.99054 7.36921,-5.17521 11.62677,-6.55404c1.78874,-0.5683 3.86626,-1.06207 6.23261,-1.4813c1.17386,-0.19564 3.28866,-0.50773 6.34442,-0.93629c1.63479,-0.22646 3.26981,-0.46404 4.90504,-0.7127c0.23272,-0.1115 0.46564,-0.21864 0.69873,-0.32142c0.98753,-0.43787 2.12412,-0.84313 3.40977,-1.21579c0.81052,-0.24222 1.97971,-0.54966 3.50759,-0.92231c1.35086,-0.33539 2.38964,-0.56364 3.11631,-0.68475c1.15522,-0.19564 2.20331,-0.27018 3.14426,-0.22358c1.01552,0.04447 2.22664,0.25874 3.63337,0.64282c-0.09261,-0.07326 -0.19509,-0.14312 -0.30743,-0.20962c2.13719,-0.39994 4.27062,-0.81919 6.4003,-1.2577c0.92016,-0.18734 1.78659,-0.37833 2.59926,-0.57295c0.0864,0.08083 0.17956,0.1507 0.27949,0.20962c0.29025,-0.14575 0.60702,-0.30413 0.95027,-0.47513c0.21191,-0.09559 0.43084,-0.19808 0.6568,-0.30743c0.11383,-0.04815 0.23029,-0.09939 0.34936,-0.15372c0.28084,-0.12836 0.5743,-0.26343 0.88039,-0.40527c0.15863,-0.06419 0.31701,-0.13407 0.47513,-0.20962c-0.24826,-0.09414 -0.50912,-0.21059 -0.78258,-0.34936h-0.01398c-0.12072,-0.06033 -0.26045,-0.13487 -0.41924,-0.22358c-0.32248,-0.17305 -0.72307,-0.40129 -1.2018,-0.68475l-0.01398,-0.01398c-0.6636,-0.38223 -1.18531,-0.5965 -1.56513,-0.64282c-0.46582,0 -0.80585,-0.03726 -1.02014,-0.11179c-0.1677,-0.05591 -0.30743,-0.15837 -0.41924,-0.30743c-0.11179,-0.15837 -0.13975,-0.3121 -0.08385,-0.46116c0.04658,-0.14906 0.21894,-0.30279 0.51706,-0.46116c1.02735,-0.51367 1.85183,-0.85372 2.47349,-1.02014c0.03392,-0.00197 0.06653,-0.00662 0.09782,-0.01398c0.4006,-0.08385 0.85709,-0.13975 1.3695,-0.1677c0.30743,-0.00931 0.7686,-0.00931 1.38347,0c0.50309,0.01863 0.8245,0.04192 0.96424,0.06987c0.02995,0.00619 0.0579,0.01084 0.08385,0.01398c0.24422,0.05587 0.48645,0.12108 0.72667,0.19564l2.11016,0.62885c-0.12111,-0.39128 -0.19564,-0.7453 -0.22358,-1.06207c-0.01751,-0.33259 -0.04545,-0.56084 -0.08385,-0.68475c0.00226,-0.00255 0.00226,-0.00721 0,-0.01398c-0.10248,-0.27949 -0.17235,-0.49376 -0.20962,-0.64282c-0.05591,-0.27018 -0.0233,-0.61488 0.09782,-1.03411c0.1677,-0.5683 0.2562,-0.913 0.26551,-1.03411c0.00263,-0.05092 0.00728,-0.10216 0.01398,-0.15372c0.02496,-0.2765 0.08552,-0.46283 0.18166,-0.55898c0.09932,-0.09029 0.22974,-0.12755 0.39128,-0.11179h0.01398c0.15837,0.02794 0.29346,0.09782 0.40527,0.20962c0.12111,0.12111 0.26086,0.38197 0.41924,0.78258c0.02224,0.05931 0.04552,0.11522 0.06987,0.1677c0.27519,0.68246 0.65716,1.30665 1.14591,1.87259c0.47262,0.55701 1.01297,1.02749 1.62104,1.41143c0.06558,0.04527 0.13079,0.0872 0.19564,0.12577c0.15707,0.09422 0.38066,0.22464 0.67077,0.39128c0.1479,-0.13596 0.38547,-0.25242 0.7127,-0.34936c1.45906,-0.42011 2.79595,-1.29118 4.01068,-2.61322c0.78217,-0.84345 1.51351,-1.87291 2.19399,-3.08835c0.29812,-0.52171 0.94094,-1.80737 1.92848,-3.85695c0.76394,-1.60241 1.45801,-2.8601 2.08219,-3.7731c2.30113,-3.36319 6.08821,-6.15809 11.36125,-8.38468c3.18619,-1.35086 6.85216,-2.51074 10.99792,-3.47965c2.77627,-0.65215 6.56336,-1.37416 11.36125,-2.16604c5.72022,-0.94094 10.49017,-1.64434 14.30987,-2.11016c5.22645,-0.63351 10.02902,-1.01548 14.4077,-1.14591c2.76694,-0.08385 5.1426,-0.03261 7.12698,0.15372c0.8396,0.07631 1.65012,0.17879 2.43156,0.30743c1.27804,0.21013 2.47985,0.48962 3.60542,0.83846c0.26166,0.08053 0.51786,0.16438 0.7686,0.25155c0.03687,0.0146 0.07413,0.02856 0.11179,0.04192c-0.00927,-0.00073 -0.0186,-0.00073 -0.02794,0c-1.34086,-0.10386 -2.70105,-0.18771 -4.08054,-0.25155c-6.15896,-0.26169 -12.70833,-0.08468 -19.64812,0.53103c-6.91271,0.60556 -14.77568,1.71886 -23.58892,3.3399c-3.14892,0.58693 -5.70624,1.10864 -7.672,1.56513c-2.78559,0.66146 -5.29166,1.39279 -7.51828,2.19399c-2.00301,0.72667 -3.74516,1.51391 -5.22645,2.36168M186.0119,175.63561c1.64898,0.27018 2.97656,0.61954 3.98272,1.04809c0.4006,0.1677 1.06207,0.5124 1.98438,1.03411l1.84463,1.07603c0.4009,0.22942 0.77354,0.44369 1.11795,0.64282c0.21427,-0.14328 0.53103,-0.11999 0.95027,0.06987c0.11656,0.05124 0.23302,0.10248 0.34936,0.15372c0.74425,0.36239 1.52216,0.83286 2.33374,1.41143c0.57761,0.40991 1.39745,1.04809 2.4595,1.9145c0.3431,0.28004 0.65986,0.54555 0.95027,0.79654c0.00113,-0.01936 0.00113,-0.04265 0,-0.06987c0.05237,0.05266 0.10361,0.1039 0.15372,0.15372c0.39845,0.36792 0.7711,0.73592 1.11795,1.10398c0.48445,0.49376 0.88506,0.96424 1.2018,1.41143c0.24222,0.3447 0.61954,0.98287 1.13194,1.9145c0.03726,0.07453 0.07453,0.14906 0.11179,0.22358c0.13221,-0.0758 0.25798,-0.15033 0.37731,-0.22358c1.20851,-0.68563 2.11218,-1.1887 2.71105,-1.50925c1.04878,-0.54078 2.07823,-1.03921 3.08835,-1.49527c0.07703,-0.03009 0.15157,-0.0627 0.22358,-0.09782c2.71345,-1.20672 5.27543,-2.09642 7.68596,-2.66913c0.18946,-0.04374 0.37577,-0.08566 0.55898,-0.12577c0.0754,-0.01652 0.14994,-0.03515 0.22358,-0.05591c4.43592,-0.93577 8.88445,-0.9777 13.34563,-0.12577c1.14591,0.22358 2.10549,0.4891 2.87875,0.79654c0.45649,0.18633 0.88039,0.4006 1.27167,0.64282c-0.59661,-0.97144 -1.25806,-1.96363 -1.98438,-2.97656c-0.0154,-0.02151 -0.03403,-0.04479 -0.05591,-0.06987c-1.27721,-1.78494 -2.7585,-3.6389 -4.44389,-5.56184c-0.24583,-0.25805 -0.48805,-0.51425 -0.72667,-0.7686c-1.39017,-1.43569 -2.66651,-2.62818 -3.82901,-3.57747c-2.18934,-1.7701 -4.37866,-3.03247 -6.568,-3.78708c-0.85524,-0.29648 -1.73564,-0.5294 -2.64118,-0.69873c-0.57175,-0.10987 -1.15402,-0.19371 -1.74681,-0.25155c-0.3447,-0.01863 -0.68941,-0.03261 -1.03411,-0.04192c0.01863,0.06522 0.05591,0.15837 0.11179,0.27949c0.11179,0.30743 0.1677,0.82915 0.1677,1.56513v1.53719c0.00222,0.13363 0.00222,0.26872 0,0.40527c-0.00851,0.45141 -0.04113,0.93585 -0.09782,1.45334c-0.10248,0.86643 -0.27483,1.53253 -0.51706,1.99834c-0.13042,0.24222 -0.32142,0.52171 -0.57295,0.83846c-0.10285,0.12682 -0.19601,0.24327 -0.27949,0.34936c-0.11962,0.14564 -0.2221,0.26675 -0.30743,0.36334c-0.01281,0.0274 -0.02678,0.05069 -0.04192,0.06987l-0.67077,0.96424c-0.10248,0.13975 -0.28881,0.368 -0.55898,0.68475c-0.25155,0.27949 -0.43787,0.50309 -0.55898,0.67077c-0.15837,0.22358 -0.28881,0.38197 -0.39128,0.47513c-0.17701,0.14906 -0.35403,0.20962 -0.53103,0.18166c0,-0.23291 -0.05124,-0.51706 -0.15372,-0.85245c-0.10248,-0.27949 -0.28415,-0.67543 -0.545,-1.18783l-0.85245,-1.63501c-0.30743,-0.54966 -0.53569,-0.95492 -0.68475,-1.21579c-0.26086,-0.48445 -0.46582,-0.90368 -0.61488,-1.2577l-0.20962,-0.51706h-0.01398c-0.17701,-0.26086 -0.36334,-0.49376 -0.55898,-0.69873l-1.5931,4.24824c-0.05855,0.14542 -0.11912,0.27585 -0.18166,0.39128c-0.11095,0.19986 -0.23207,0.35359 -0.36334,0.46116c-0.12854,0.11358 -0.26828,0.17413 -0.41924,0.18166c-0.15837,0 -0.35403,-0.07918 -0.58693,-0.23757c-0.6493,-0.41534 -1.26419,-0.94171 -1.84463,-1.57912c-0.18957,-0.20896 -0.37589,-0.43255 -0.55898,-0.67077c-0.14695,-0.17999 -0.29135,-0.37099 -0.43321,-0.57295c-0.58693,-0.86643 -0.913,-1.64434 -0.97822,-2.33374c-0.01405,-0.17316 -0.01405,-0.34084 0,-0.50309c0.01886,-0.15907 0.05146,-0.31279 0.09782,-0.46116l0.34936,0.09782c0.02794,0.21427 0.0885,0.43787 0.18166,0.67077c0.07453,0.1677 0.16303,0.34004 0.26551,0.51706c0.13975,0.24222 0.37731,0.58693 0.7127,1.03411c0.47513,0.65215 0.84778,1.11795 1.11795,1.39745c0.13549,0.15281 0.27058,0.29255 0.40527,0.41924c0.3003,0.30078 0.59843,0.54766 0.89437,0.74065c0.18633,0.13042 0.33539,0.18166 0.44718,0.15372c0.10573,-0.0302 0.20354,-0.12802 0.29346,-0.29346c0.0254,-0.03792 0.04869,-0.07984 0.06987,-0.12577c0.06,-0.14465 0.11591,-0.2844 0.1677,-0.41924c0.27617,-0.66856 0.47648,-1.1856 0.60091,-1.55117c0.06183,-0.19258 0.11773,-0.38357 0.1677,-0.57295c0.14706,-0.53198 0.24487,-1.0304 0.29346,-1.49527c0.00732,-0.03654 0.01197,-0.07381 0.01398,-0.11179c0.00931,-0.06248 0.01398,-0.1277 0.01398,-0.19564h-0.01398c-0.00131,-0.00455 -0.00597,-0.0092 -0.01398,-0.01398c-0.28765,-0.21846 -0.59041,-0.40944 -0.90833,-0.57295c-0.49376,-0.22358 -1.00616,-0.35867 -1.53719,-0.40527c-0.33539,-0.01863 -0.66146,0 -0.97822,0.05591c-0.20496,0.02794 -0.40527,0.07453 -0.60091,0.13975c-0.07453,-0.00931 -0.12577,-0.06522 -0.15372,-0.1677c-0.01863,-0.03726 -0.02794,-0.06987 -0.02794,-0.09782c-0.56098,0.2253 -1.15723,0.47218 -1.78874,0.74065c-0.03934,0.01886 -0.08126,0.03749 -0.12577,0.05591c-0.60335,0.26009 -1.23684,0.53958 -1.90053,0.83846c0.03726,0.01863 0.06987,0.04658 0.09782,0.08385c0.01863,0.02794 0.03261,0.05591 0.04192,0.08385c0.00931,0.07453 0.00467,0.16303 -0.01398,0.26551c-0.06096,0.59945 -0.18673,1.16773 -0.37731,1.70489c-0.28776,0.7975 -0.72095,1.52417 -1.29962,2.18002c-0.0972,0.11496 -0.19968,0.22676 -0.30743,0.33539c-0.42855,0.43787 -0.84778,0.69406 -1.2577,0.7686c-0.48445,0.06522 -1.07603,-0.17701 -1.77476,-0.72667c-0.80121,-0.63351 -1.39745,-0.97822 -1.78874,-1.03411c-0.07453,0.49376 -0.17701,0.85709 -0.30743,1.09001c-0.21427,0.39128 -0.49842,0.60091 -0.85245,0.62885c-0.37265,0.04658 -0.81052,-0.19564 -1.3136,-0.72667c-0.10248,-0.13042 -0.17701,-0.24222 -0.22358,-0.33539c-1.00616,0.42855 -1.97971,0.81518 -2.92068,1.15988c0.01863,0.00931 0.04192,0.00931 0.06987,0M189.64526,174.21021c0.3447,0.12111 0.58693,0.13975 0.72667,0.05591c0.13042,-0.07453 0.22825,-0.23291 0.29346,-0.47513c0.01863,-0.03726 0.03261,-0.07453 0.04192,-0.11179c-0.48445,0.20496 -0.85709,0.37265 -1.11795,0.50309c0.01863,0.00931 0.03726,0.01863 0.05591,0.02794M193.26466,173.42764c0.41924,0.35403 0.65215,0.545 0.69873,0.57295c0.27949,0.19564 0.54034,0.30279 0.78258,0.32142c0.37265,0.01863 0.7453,-0.15372 1.11795,-0.51706c0.32607,-0.33539 0.61954,-0.85709 0.88039,-1.56513c0.03625,-0.09345 0.06886,-0.18662 0.09782,-0.27949c0.20157,-0.4978 0.3553,-0.87512 0.46116,-1.13194c0.05964,-0.12864 0.10623,-0.22646 0.13975,-0.29346c0.00931,-0.00931 0.0233,-0.01863 0.04192,-0.02794c-0.07726,0.03399 -0.15645,0.0666 -0.23757,0.09782c-0.11103,0.05422 -0.22748,0.10546 -0.34936,0.15372c-0.04301,0.02428 -0.0896,0.04756 -0.13975,0.06987c-1.73283,0.83846 -3.16756,1.51856 -4.30414,2.04027c0.29812,0.1677 0.5683,0.35403 0.81052,0.55898M141.61498,175.17446c0.09316,1.09001 0.49842,2.09617 1.21579,3.01849c0.71736,0.93163 1.61173,1.57446 2.6831,1.92848c0.60556,0.17701 1.04342,0.12111 1.3136,-0.1677c-0.30743,-0.67077 -0.50309,-1.35086 -0.58693,-2.04027c-0.14906,-1.0807 -0.01863,-2.04493 0.39128,-2.89271c0.15837,-0.31675 0.368,-0.57295 0.62885,-0.7686c0.15837,-0.10248 0.30743,-0.1677 0.44718,-0.19564c0.03042,-0.00609 0.05837,-0.01073 0.08385,-0.01398c0.17228,-0.19214 0.3586,-0.35984 0.55898,-0.50309c-0.22229,0.01222 -0.44587,0.0262 -0.67077,0.04192c-0.68941,0.04658 -1.37882,0.10715 -2.06823,0.18166c-1.38896,0.15528 -2.75846,0.3649 -4.1085,0.62885c-0.00754,0.05935 -0.01685,0.12456 -0.02794,0.19564c-0.00645,0.04938 -0.0111,0.09596 -0.01398,0.13975c0.01987,0.0127 0.03851,0.02668 0.05591,0.04192c0.05591,0.06522 0.0885,0.20031 0.09782,0.40527M153.87059,175.21637c0.19564,0.57761 0.4891,1.10864 0.88039,1.5931c0.38197,0.48445 1.04342,1.07603 1.98438,1.77476c0.38197,0.27018 0.69406,0.41924 0.93629,0.44718c-0.07453,-1.24839 -0.04192,-2.17536 0.09782,-2.78092c0.20496,-0.95959 0.63817,-1.67694 1.29962,-2.15207c-1.83531,-0.28881 -3.67062,-0.48445 -5.50594,-0.58693c0,0.5683 0.10248,1.13658 0.30743,1.70489M168.33419,176.44613c-1.01548,-0.30743 -1.90518,-0.57295 -2.66913,-0.79654c-0.00931,0.02794 -0.00931,0.05591 0,0.08385c0.01863,0.3447 0.23757,0.78258 0.6568,1.3136c0.68941,0.85709 1.47198,1.64898 2.34771,2.37565c-0.14906,-0.68941 -0.23291,-1.24373 -0.25155,-1.66297c-0.01863,-0.46582 0.04658,-0.87574 0.19564,-1.22976c-0.09316,-0.03726 -0.18633,-0.06522 -0.27949,-0.08385M136.0112,175.77536c-1.25188,0.40126 -2.4863,0.85775 -3.70323,1.3695c-0.01689,0.03872 -0.04019,0.0853 -0.06987,0.13975c-0.04658,0.09316 -0.07453,0.1677 -0.08385,0.22358c-0.02794,0.11179 -0.0233,0.24222 0.01398,0.39128c0.01863,0.08385 0.05124,0.21427 0.09782,0.39128c0.02645,0.15343 0.02645,0.30249 0,0.44718c0.11547,0.45265 0.38099,0.87654 0.79654,1.27167c0.30743,0.27949 0.85245,0.65215 1.63501,1.11795c0.27018,0.13042 0.46582,0.21894 0.58693,0.26551c0.23291,0.07453 0.44252,0.09782 0.62885,0.06987c-0.26086,-0.33539 -0.44718,-0.83846 -0.55898,-1.50925c-0.1677,-1.07138 -0.15837,-1.9937 0.02794,-2.76694c0.13042,-0.54034 0.34004,-1.01083 0.62885,-1.41143M204.6818,168.00555c0.64261,0.20198 1.23885,0.51874 1.78874,0.95027c0.01048,0.01211 0.0198,0.02144 0.02794,0.02794c0.07453,-0.10248 0.17235,-0.18166 0.29346,-0.23757c0.13975,-0.05591 0.26551,-0.06522 0.37731,-0.02794c0.0758,0.0341 0.13637,0.08067 0.18166,0.13975c0.069,0.09301 0.10626,0.21413 0.11179,0.36334c0.00931,0.20496 -0.02794,0.41924 -0.11179,0.64282c0.01863,0.02794 0.03726,0.05591 0.05591,0.08385c0.02794,-0.03726 0.05124,-0.06987 0.06987,-0.09782c-0.01863,-0.26086 0.00467,-0.49842 0.06987,-0.7127l0.11179,-0.27949c0.00273,-0.04083 0.00739,-0.08275 0.01398,-0.12577c0.01361,-0.09946 0.03691,-0.20194 0.06987,-0.30743c0.01863,-0.06522 0.04192,-0.13042 0.06987,-0.19564c-0.00931,-0.03726 -0.00931,-0.06987 0,-0.09782c0.03726,-0.22358 0.09782,-0.46116 0.18166,-0.7127c0.05532,-0.18968 0.12518,-0.37135 0.20962,-0.545c0.02031,-0.02623 0.03895,-0.05419 0.05591,-0.08385c0.04658,-0.08385 0.0885,-0.1677 0.12577,-0.25155c-0.12467,0.02798 -0.25045,0.05594 -0.37731,0.08385c-0.70407,0.16748 -1.42143,0.35845 -2.15207,0.57295c-0.09385,0.02805 -0.18702,0.05601 -0.27949,0.08385c-0.41924,0.12111 -0.83846,0.25155 -1.2577,0.39128c-0.17701,0.06522 -0.35403,0.12577 -0.53103,0.18166c0.28881,0.00931 0.58693,0.06055 0.89437,0.15372M213.82112,165.89539c-0.21427,0 -0.42855,0.00467 -0.64282,0.01398c-1.22043,0.04658 -2.46883,0.18633 -3.74516,0.41924c-0.32189,0.30497 -0.59672,0.66364 -0.8245,1.07603c-0.02461,0.04155 -0.04789,0.08348 -0.06987,0.12577c-0.07453,0.1677 -0.14906,0.33539 -0.22358,0.50309c-0.02794,0.17701 -0.04658,0.35403 -0.05591,0.53103c0,0.00528 0,0.00993 0,0.01398c0,0.01059 0,0.01991 0,0.02794c-0.01863,0.5124 0.05124,1.00152 0.20962,1.46732c0.05591,0.12111 0.15372,0.32607 0.29346,0.61488l1.3136,2.48746c0.20496,0.36334 0.34004,0.64749 0.40527,0.85245l0.23757,0.79654c0.15837,0.44718 0.24222,0.69873 0.25155,0.75461c0.02794,0.1677 0.02794,0.40991 0,0.72667c-0.00931,0.32607 -0.00931,0.56364 0,0.7127c0.70804,-0.54034 1.3136,-1.2018 1.81668,-1.98438c0.10175,-0.15448 0.19491,-0.31286 0.27949,-0.47513c0.05837,-0.09112 0.10961,-0.18429 0.15372,-0.27949c0.27989,-0.5442 0.4895,-1.11716 0.62885,-1.71886c0.12111,-0.54966 0.20962,-1.26701 0.26551,-2.15207l0.09782,-0.79654c0.01164,-0.10474 0.02096,-0.1979 0.02794,-0.27949c0.01164,-0.0512 0.02096,-0.09779 0.02794,-0.13975c0.01863,-0.12111 0.03726,-0.21427 0.05591,-0.27949c0.09316,-0.3447 0.1444,-0.55433 0.15372,-0.62885c0.00931,-0.08385 0.00931,-0.20496 0,-0.36334c-0.00931,-0.15837 -0.01398,-0.27483 -0.01398,-0.34936c0.03726,-0.17701 0.06522,-0.32142 0.08385,-0.43321c0,-0.05591 0.00467,-0.10248 0.01398,-0.13975c0.02794,-0.13042 0.02794,-0.29812 0,-0.50309c0,-0.01863 0,-0.03261 0,-0.04192c-0.05591,-0.27949 -0.08385,-0.45649 -0.08385,-0.53103v-0.01398c-0.20496,-0.00931 -0.42389,-0.01398 -0.6568,-0.01398M248.64553,195.26976c0.31675,1.26701 0.44718,2.56198 0.39128,3.88491c-0.02794,0.47513 -0.06055,0.81518 -0.09782,1.02014c-0.13975,0.76394 -0.50773,1.68159 -1.10398,2.75298c-0.30743,0.54034 -0.58227,0.96424 -0.8245,1.27167c-0.35403,0.43787 -0.73134,0.76394 -1.13194,0.97822c-0.62419,0.36334 -1.43471,0.545 -2.43156,0.545c-0.60556,0.01863 -1.37416,-0.0233 -2.30579,-0.12577c-1.01548,-0.10248 -2.52472,-0.28881 -4.52773,-0.55898c0,-0.17701 0.14906,-0.24688 0.44718,-0.20962c0.54034,0.06522 1.3695,0.02794 2.48746,-0.11179l1.4813,-0.20962c0.95959,-0.11179 1.70022,-0.25155 2.22195,-0.41924c0.76394,-0.24222 1.47198,-0.59158 2.12412,-1.04809c0.15445,-0.1123 0.30351,-0.23342 0.44718,-0.36334c0.02991,-0.019 0.05787,-0.04228 0.08385,-0.06987c0.11878,-0.10015 0.23524,-0.20729 0.34936,-0.32142c0.03735,-0.03541 0.0746,-0.07268 0.11179,-0.11179c0.0306,-0.02569 0.05855,-0.05364 0.08385,-0.08385c0.61841,-0.63074 1.03299,-1.28754 1.24373,-1.9704c0.11179,-0.36334 0.18166,-0.84778 0.20962,-1.45334c0.05591,-1.11795 -0.06987,-2.25455 -0.37731,-3.40977c-0.08385,-0.3447 -0.22825,-0.81052 -0.43321,-1.39745c-0.57761,-1.79805 -1.09001,-3.18152 -1.53719,-4.15042c-0.18633,-0.40991 -0.27018,-0.72201 -0.25155,-0.93629l1.90053,2.87875c0.66146,1.10864 1.14125,2.3151 1.43937,3.61938M307.60386,173.69316c-1.02479,-0.61488 -1.81668,-1.11795 -2.37565,-1.50925c-0.84778,-0.58693 -1.56513,-1.18318 -2.15207,-1.78874c-0.28936,-0.32604 -0.55021,-0.61485 -0.78258,-0.86643c0.72853,1.42274 1.2782,2.93199 1.64898,4.52773c0.5124,2.23592 0.62885,4.47183 0.34936,6.70776c-0.12111,0.94094 -0.3121,1.93314 -0.57295,2.97656c-0.31675,1.26701 -0.67543,2.30113 -1.07603,3.10234c-0.31675,0.61488 -0.90368,1.49061 -1.76079,2.6272l-1.3136,1.73283c-0.20496,0.27949 -0.39128,0.44252 -0.55898,0.4891c-0.22358,0.08385 -0.44718,0.03261 -0.67077,-0.15372c-0.20496,-0.17701 -0.33539,-0.39594 -0.39128,-0.6568c-0.03726,-0.20496 -0.03261,-0.45649 0.01398,-0.75461c0.06522,-0.3447 0.10715,-0.60091 0.12577,-0.7686c0.05591,-0.38197 0.03261,-1.00616 -0.06987,-1.87259c-0.21846,-1.61648 -0.45602,-3.04188 -0.7127,-4.2762c-0.15707,0.72241 -0.36669,1.46307 -0.62885,2.22195c-0.54034,1.52788 -1.3695,3.33059 -2.48746,5.40812c-0.42855,0.79189 -0.79654,1.39745 -1.10398,1.81668c-0.35403,0.47513 -0.80121,0.95492 -1.34155,1.43937c-0.3447,0.31675 -0.85245,0.73599 -1.52322,1.2577l-2.47349,1.9704c-0.54966,0.41924 -0.96424,0.78258 -1.24373,1.09001c-0.36334,0.4006 -0.60091,0.64749 -0.7127,0.74065c-0.29812,0.23291 -0.59158,0.32142 -0.88039,0.26551c-0.00931,-0.24222 0.06987,-0.50309 0.23757,-0.78258c0.03726,-0.06522 0.19564,-0.30279 0.47513,-0.7127c0.43226,-0.62346 0.7956,-1.38274 1.09001,-2.27784c0.0404,-0.10289 0.07765,-0.21001 0.11179,-0.32142c0.02492,-0.07998 0.04822,-0.1685 0.06987,-0.26551c0.12031,-0.40509 0.2554,-0.95009 0.40527,-1.63501c-0.19772,0.42557 -0.42132,0.85878 -0.67077,1.29962c-0.1066,0.18844 -0.23236,0.39806 -0.37731,0.62885c-0.39696,0.65574 -0.9373,1.48956 -1.62104,2.50143c-0.88506,1.32292 -1.63967,2.34771 -2.26386,3.07438c-1.09933,1.30428 -2.50143,2.56198 -4.20632,3.7731c-1.16455,0.82915 -2.77627,1.83531 -4.83517,3.01849c-0.50309,0.28881 -0.85245,0.3121 -1.04809,0.06987c-0.21427,-0.26086 -0.09316,-0.62885 0.36334,-1.10398c0.45649,-0.46582 0.913,-1.02479 1.3695,-1.67694c0.28251,-0.40613 0.64584,-0.97909 1.09001,-1.71886c-0.26872,0.37037 -0.76248,0.89673 -1.4813,1.57912l-1.02014,0.95027c-0.61742,0.67922 -1.06926,1.1497 -1.35552,1.41143c-0.49376,0.45649 -1.23907,1.04809 -2.23592,1.77476c-1.0807,0.78258 -1.83998,1.36485 -2.27784,1.74681c-0.46582,0.43787 -0.81983,0.75461 -1.06207,0.95027c-0.42855,0.3447 -0.82915,0.58693 -1.2018,0.72667c-0.25155,0.09316 -0.61954,0.18633 -1.10398,0.27949l-0.53103,0.09782c-0.67077,0.12111 -1.09933,0.01863 -1.28565,-0.30743c-0.02863,-0.05248 -0.04727,-0.11303 -0.05591,-0.18166c-0.00797,0.0088 -0.01728,0.01812 -0.02794,0.02794c-0.00167,-0.07406 -0.01098,-0.14392 -0.02794,-0.20962c0.01856,-0.01904 0.03719,-0.03767 0.05591,-0.05591c0.02012,-0.1496 0.07136,-0.32197 0.15372,-0.51706c0.40991,-0.913 0.97355,-1.85394 1.69091,-2.82284c0.25918,-0.35886 0.62251,-0.834 1.09001,-1.4254c0.19491,-0.23068 0.40454,-0.48223 0.62885,-0.75461l0.62885,-0.75461c0.06522,0.13975 0.07918,0.28881 0.04192,0.44718c-0.02794,0.1677 -0.09782,0.29812 -0.20962,0.39128c-0.12111,0.89437 -0.42855,1.68159 -0.92231,2.36168c-0.29812,0.37265 -0.51706,0.65215 -0.6568,0.83846c-0.13975,0.19564 -0.38663,0.61488 -0.74065,1.2577c-0.29812,0.53103 -0.5683,0.93163 -0.81052,1.2018c0.81376,-0.07678 1.58701,-0.31902 2.31976,-0.72667c-0.00423,-0.13108 0.10758,-0.27548 0.33539,-0.43321c0.5124,-0.31675 1.06207,-0.71736 1.64898,-1.2018c0.35403,-0.29812 0.87107,-0.75928 1.55117,-1.38347l4.5976,-4.30414c0.40784,-0.40784 0.76653,-0.79447 1.07603,-1.15988c-0.01783,0 -0.03646,0 -0.05591,0c0.07685,-0.13662 0.18866,-0.24841 0.33539,-0.33539c0.30005,-0.36574 0.54228,-0.70578 0.72667,-1.02014c0.23291,-0.40991 0.50773,-1.00616 0.8245,-1.78874c0.53103,-1.33224 0.84778,-2.34305 0.95027,-3.03247c0.02794,-0.1677 0.07918,-0.30279 0.15372,-0.40527c0.08385,-0.13975 0.18633,-0.19098 0.30743,-0.15372c0.09316,0.02794 0.1677,0.12577 0.22358,0.29346c0.12111,0.3447 0.13509,0.74065 0.04192,1.18783c-0.05591,0.27949 -0.18166,0.67077 -0.37731,1.17386l-0.67077,1.71886c-0.29597,0.74585 -0.57081,1.35607 -0.8245,1.83066l2.18002,-3.57747c-0.77325,2.23592 -1.73283,4.36935 -2.87875,6.4003c1.826,-1.14591 3.52623,-2.45485 5.10069,-3.92684c0.75461,-0.70804 1.37416,-1.3695 1.85861,-1.98438c0.14906,-0.18633 0.52171,-0.71736 1.11795,-1.5931l0.86643,-1.32758c0.77325,-1.16455 1.35086,-2.08219 1.73283,-2.75298c0.59625,-1.05274 1.04342,-2.04027 1.34155,-2.96259c0.41924,-1.28565 0.60556,-2.63186 0.55898,-4.03863c0.05591,-0.15837 0.18166,-0.24222 0.37731,-0.25155c0.19564,-0.00931 0.34936,0.05124 0.46116,0.18166c0.17701,0.18633 0.26551,0.50773 0.26551,0.96424c0,0.75461 -0.03726,1.43006 -0.11179,2.02631c-0.03316,0.24441 -0.07508,0.48663 -0.12577,0.72667l0.01398,-0.01398c0.11179,-0.18633 0.18633,-0.35403 0.22358,-0.50309c0.37265,1.06207 0.4006,2.27319 0.08385,3.63337c-0.14665,0.63801 -0.44012,1.48115 -0.88039,2.52938c-0.01623,0.05547 -0.03486,0.10671 -0.05591,0.15372c-0.10015,0.24386 -0.20729,0.4954 -0.32142,0.75461c0.23583,-0.16646 0.46873,-0.33882 0.69873,-0.51706c1.14915,-0.88495 2.20189,-1.89111 3.15823,-3.01849c1.15522,-1.34155 2.1148,-2.79955 2.87875,-4.37402c0.49376,-1.02479 0.94561,-2.17536 1.35552,-3.45169c0.30743,-0.9689 0.63817,-2.16604 0.99218,-3.59144l0.19564,-0.93629c0.03726,-0.26086 0.06987,-0.79654 0.09782,-1.60706c0.02794,-0.66146 0.09316,-1.18783 0.19564,-1.57912c-0.15837,-0.09316 -0.23291,-0.25155 -0.22358,-0.47513c0.00931,-0.22358 0.09782,-0.37265 0.26551,-0.44718c0.44718,0.59625 0.68941,1.48595 0.72667,2.66913c0.00703,0.44868 -0.0116,0.90517 -0.05591,1.3695c0.51262,0.88792 0.91788,1.93135 1.21579,3.13028c0.23291,0.95959 0.46116,2.36168 0.68475,4.20632c0.97822,-0.92231 1.69558,-2.02631 2.15207,-3.31195c0.12111,-0.31675 0.26551,-0.81052 0.43321,-1.4813c0.57761,-2.2825 0.84313,-4.20166 0.79654,-5.75748c-0.02794,-0.97822 -0.17701,-2.03095 -0.44718,-3.15823c-0.20496,-0.84778 -0.50773,-1.87259 -0.90833,-3.07438c-0.3447,-1.00616 -0.66612,-1.8027 -0.96424,-2.38964c-0.27741,-0.54278 -0.58486,-1.02257 -0.92231,-1.43937c-0.0016,0.00142 -0.00627,0.00142 -0.01398,0c-0.14906,-0.01863 -0.25155,-0.06055 -0.30743,-0.12577c-0.04658,-0.04658 -0.06055,-0.09782 -0.04192,-0.15372c0.00597,-0.04188 0.01994,-0.07449 0.04192,-0.09782c-0.07613,-0.08024 -0.15532,-0.15943 -0.23757,-0.23757c-0.17701,-0.15837 -0.27018,-0.29346 -0.27949,-0.40527c-0.00931,-0.15837 0.07453,-0.27483 0.25155,-0.34936c0.15837,-0.07453 0.32607,-0.09316 0.50309,-0.05591c0.59625,0.13975 1.16919,0.64282 1.71886,1.50925c0.10837,0.16671 0.21086,0.3344 0.30743,0.50309c0.19965,0.11616 0.40461,0.24193 0.61488,0.37731c1.17386,0.75461 2.12412,1.15988 2.85079,1.21579l-1.84463,-2.6272c-0.81052,-1.15522 -1.41143,-2.07754 -1.8027,-2.76694c-0.4006,-0.69873 -0.79189,-1.50925 -1.17386,-2.43156c-0.23291,-0.54966 -0.55898,-1.38813 -0.97822,-2.51541l-0.99218,-2.66913c-0.23291,-0.63351 -0.4006,-1.12262 -0.50309,-1.46732c-0.12003,-0.44252 -0.19455,-0.85709 -0.22358,-1.24373c0,-0.09552 0,-0.18869 0,-0.27949c0.01863,-0.47513 -0.05591,-0.78258 -0.22358,-0.92231c0.05591,-0.06522 0.12577,-0.09782 0.20962,-0.09782c0.08385,-0.00931 0.15837,0.01398 0.22358,0.06987l0.01398,0.04192l2.57131,5.51992c2.08686,4.32277 4.96094,8.82256 8.62225,13.49935c0.27949,0.35403 0.45184,0.64282 0.51706,0.86643c0.13975,0.39128 0.0885,0.70804 -0.15372,0.95027c-0.20496,0.21427 -0.50309,0.28881 -0.89437,0.22358c-0.22358,-0.04658 -0.50773,-0.18166 -0.85245,-0.40527M140.02189,205.83447c1.63036,3.7731 4.46718,7.31331 8.51046,10.6206c2.2825,1.90053 4.46718,3.29798 6.55404,4.19235c2.27319,0.94094 4.82585,1.50458 7.65801,1.69091c2.36634,0.12111 5.00287,-0.01863 7.90955,-0.41924c1.54651,-0.22358 4.13178,-0.70339 7.75583,-1.43937c3.31661,-0.65215 5.9112,-1.09001 7.78379,-1.3136c2.05892,-0.23291 4.51375,-0.37265 7.36455,-0.41924c1.63967,-0.02794 4.1085,-0.04192 7.40648,-0.04192c3.93149,-0.03726 8.60828,-0.22825 14.03037,-0.57295c0.99364,-0.06412 2.00913,-0.13399 3.04643,-0.20962c0.17399,-0.01492 0.34634,-0.0289 0.51706,-0.04192c1.16455,-0.08385 2.33374,-0.17235 3.50759,-0.26551c0.03726,-0.00931 0.07453,-0.01398 0.11179,-0.01398c1.45334,-0.11179 2.91134,-0.23291 4.37402,-0.36334c0.57542,-0.04971 1.14839,-0.10095 1.71886,-0.15372c5.04846,-0.44889 10.13518,-0.96596 15.26013,-1.55117c3.75447,-0.42855 6.69378,-0.95492 8.81789,-1.57912c2.00672,-0.59057 3.75353,-1.37314 5.24042,-2.34771c0.06806,-0.03865 0.13326,-0.08057 0.19564,-0.12577c0.01682,-0.00645 0.03078,-0.01576 0.04192,-0.02794c0.08866,-0.20947 0.17251,-0.42374 0.25155,-0.64282c0.88345,-0.35177 1.73123,-0.79895 2.54335,-1.34155c0.02104,-0.01382 0.03967,-0.0278 0.05591,-0.04192c0.03261,-0.0186 0.06055,-0.03723 0.08385,-0.05591c0.15739,-0.10358 0.31112,-0.2107 0.46116,-0.32142c1.7142,-1.24839 3.06973,-2.77161 4.06657,-4.56966c0.18633,-0.33539 0.33539,-0.57295 0.44718,-0.7127c0.19564,-0.24222 0.40527,-0.39594 0.62885,-0.46116c-0.48358,1.41582 -1.19162,2.70148 -2.12412,3.85695c-0.55741,0.70055 -1.19558,1.35268 -1.9145,1.95642c-1.19748,1.0047 -2.48312,1.76864 -3.85695,2.29182c-0.29011,0.25355 -0.58823,0.50043 -0.89437,0.74065c-0.03774,0.03275 -0.07966,0.06536 -0.12577,0.09782v0c-0.18862,0.14797 -0.3796,0.29237 -0.57295,0.43321c-1.09933,0.78258 -2.29647,1.47664 -3.59144,2.08219c-1.90053,0.88506 -4.06657,1.60706 -6.49813,2.16604c-1.86325,0.41924 -4.12713,0.79189 -6.7916,1.11795c-3.49818,0.42109 -7.39705,0.7425 -11.69664,0.96424c-0.64818,0.03596 -1.30497,0.06856 -1.9704,0.09782c-0.83846,0.03726 -1.69091,0.06987 -2.55734,0.09782c-0.36334,0.00931 -0.78722,0.0233 -1.27167,0.04192c-1.11064,0.02984 -2.55001,0.06245 -4.31811,0.09782c-0.98577,0.01718 -2.07579,0.03581 -3.27002,0.05591c-2.13343,0.03726 -4.5976,0.07453 -7.3925,0.11179c-6.71707,0.09316 -12.13451,0.26086 -16.25232,0.50309c-5.92518,0.35403 -11.29138,0.95492 -16.09861,1.8027c-2.43156,0.45649 -4.2529,0.78722 -5.46403,0.99218c-2.12412,0.38197 -3.95944,0.63351 -5.50594,0.75461c-4.25756,0.32607 -7.89558,-0.15372 -10.91407,-1.43937c-2.67377,-1.12727 -5.1892,-3.04643 -7.54622,-5.75748c-1.69558,-1.9471 -3.53554,-4.62556 -5.51992,-8.03533c-0.27949,-0.49376 -0.45184,-0.93163 -0.51706,-1.3136c-0.09316,-0.52171 0.01398,-0.91767 0.32142,-1.18783M257.11407,213.01735c0.04658,-0.03726 0.11646,-0.06055 0.20962,-0.06987c0.06543,-0.01309 0.13065,-0.02707 0.19564,-0.04192c-0.27171,0.16012 -0.45338,0.28124 -0.545,0.36334c-0.01561,-0.03913 -0.01095,-0.08571 0.01398,-0.13975c0.01863,-0.04658 0.06055,-0.08385 0.12577,-0.11179z" fill="#000000"/><path d="M170.55612,144.75201c-0.03726,0.07453 -0.05124,0.20962 -0.04192,0.40527c0.09316,0.55898 0.12111,1.14125 0.08385,1.74681c-0.04658,0.70804 -0.16303,1.4021 -0.34936,2.08219c-0.09316,0.29812 -0.2562,0.72667 -0.4891,1.28565l-0.79654,2.08219c-0.22358,0.54034 -0.43321,0.97822 -0.62885,1.3136c-0.04658,0.07453 -0.22358,0.34936 -0.53103,0.8245l-0.86643,1.27167c-0.10248,0.15837 -0.25155,0.40527 -0.44718,0.74065c-0.18633,0.29812 -0.3447,0.53569 -0.47513,0.7127c-0.30743,0.39128 -0.68941,0.77791 -1.14591,1.15988c-0.50309,0.45649 -1.3695,1.09933 -2.59926,1.92848l-3.04643,2.01232c-0.4006,0.00931 -0.74065,0.0233 -1.02014,0.04192c-1.63967,0.09316 -3.20947,0.26551 -4.7094,0.51706c-0.14906,0.01863 -0.29346,0.04658 -0.43321,0.08385c-1.75146,0.32607 -3.31661,0.74997 -4.69543,1.27167c-1.483,0.57037 -2.86182,1.3017 -4.13644,2.19399c-0.18466,0.12653 -0.36632,0.25695 -0.545,0.39128c0.06893,-0.18407 0.1388,-0.3704 0.20962,-0.55898c0.8242,-2.02739 2.02135,-4.18878 3.59144,-6.48415c1.39745,-2.03095 2.82284,-3.85695 4.2762,-5.47799c0.38197,-0.41924 0.76394,-0.81518 1.14591,-1.18783c2.30113,-2.36634 4.75599,-4.26222 7.36455,-5.68761c3.03712,-1.68626 6.01834,-2.6272 8.94367,-2.82284c0.54966,-0.02794 1.09467,-0.0233 1.63501,0.01398l-0.02794,0.05591c-0.10248,-0.05591 -0.19098,-0.02794 -0.26551,0.08385z" fill="#141414"/><path d="M170.84959,144.61227c1.19249,0.02794 2.3384,0.21427 3.43772,0.55898c0.01863,0.21427 0.08385,0.46582 0.19564,0.75461c0.07453,0.13975 0.18633,0.35403 0.33539,0.64282c0.27949,0.58693 0.44252,1.29962 0.4891,2.1381c0.04658,0.79189 -0.01398,1.62104 -0.18166,2.48746c-0.30743,1.5931 -0.94094,3.21413 -1.90053,4.86311c-1.33224,2.26386 -2.84147,3.87093 -4.52773,4.82119c-0.913,0.53103 -2.06823,0.89902 -3.46567,1.10398c-0.95959,0.14906 -2.1381,0.24688 -3.53554,0.29346c-0.62419,0 -1.19715,0.01863 -1.71886,0.05591l2.93464,-1.9704c0.70804,-0.49376 1.2018,-0.86176 1.4813,-1.10398c0.17701,-0.15837 0.43321,-0.39594 0.7686,-0.7127c0.05591,-0.03726 0.18166,-0.11646 0.37731,-0.23757c0.1677,-0.10248 0.30743,-0.20496 0.41924,-0.30743c0.22358,-0.17701 0.49842,-0.53103 0.8245,-1.06207l1.53719,-2.37565c0.44718,-0.68941 0.75928,-1.25304 0.93629,-1.69091c0.1677,-0.40991 0.29346,-0.73599 0.37731,-0.97822c0.14906,-0.36334 0.29812,-0.64749 0.44718,-0.85245c0.09316,-0.10248 0.15837,-0.18633 0.19564,-0.25155c0.09316,-0.09316 0.15372,-0.18633 0.18166,-0.27949c0.01863,-0.10248 0.03726,-0.21894 0.05591,-0.34936c0.01863,-0.20496 0.03726,-0.32142 0.05591,-0.34936c0.01863,-0.15837 0.07453,-0.35403 0.1677,-0.58693c0.11179,-0.26086 0.18633,-0.46116 0.22358,-0.60091c0.03726,-0.14906 0.06055,-0.33539 0.06987,-0.55898c0,-0.31675 0.00931,-0.53103 0.02794,-0.64282c0.08385,-0.41924 0.13509,-0.74065 0.15372,-0.96424c0.03726,-0.3447 -0.03261,-0.85709 -0.20962,-1.53719c-0.04658,-0.11179 -0.10715,-0.19564 -0.18166,-0.25155z" fill="#303030"/><path d="M214.47792,165.90938v0.01398c0,0.07453 0.02794,0.25155 0.08385,0.53103c0,0.00931 0,0.0233 0,0.04192c0.02794,0.20496 0.02794,0.37265 0,0.50309c-0.00931,0.03726 -0.01398,0.08385 -0.01398,0.13975c-0.01863,0.11179 -0.04658,0.2562 -0.08385,0.43321c0,0.07453 0.00467,0.19098 0.01398,0.34936c0.00931,0.15837 0.00931,0.27949 0,0.36334c-0.00931,0.07453 -0.06055,0.28415 -0.15372,0.62885c-0.01863,0.06522 -0.03726,0.15837 -0.05591,0.27949c-0.00699,0.04195 -0.0163,0.08855 -0.02794,0.13975c-0.00699,0.08159 -0.0163,0.17475 -0.02794,0.27949l-0.09782,0.79654c-0.05591,0.88506 -0.1444,1.60241 -0.26551,2.15207c-0.13935,0.60171 -0.34896,1.17466 -0.62885,1.71886c-0.0441,0.0952 -0.09534,0.18837 -0.15372,0.27949c-0.08458,0.16227 -0.17774,0.32065 -0.27949,0.47513c-0.50309,0.78258 -1.10864,1.44403 -1.81668,1.98438c-0.00931,-0.14906 -0.00931,-0.38663 0,-0.7127c0.02794,-0.31675 0.02794,-0.55898 0,-0.72667c-0.00931,-0.05591 -0.09316,-0.30743 -0.25155,-0.75461l-0.23757,-0.79654c-0.06522,-0.20496 -0.20031,-0.4891 -0.40527,-0.85245l-1.3136,-2.48746c-0.13975,-0.28881 -0.23757,-0.49376 -0.29346,-0.61488c-0.15837,-0.46582 -0.22825,-0.95492 -0.20962,-1.46732c0,-0.00805 0,-0.01736 0,-0.02794c0,-0.00405 0,-0.00869 0,-0.01398c0.00931,-0.17701 0.02794,-0.35403 0.05591,-0.53103c0.07453,-0.1677 0.14906,-0.33539 0.22358,-0.50309c0.02199,-0.04228 0.04527,-0.08421 0.06987,-0.12577c0.22777,-0.41239 0.50261,-0.77106 0.8245,-1.07603c1.27634,-0.23291 2.52472,-0.37265 3.74516,-0.41924c0.21427,-0.00931 0.42855,-0.01398 0.64282,-0.01398c0.23291,0 0.45184,0.00467 0.6568,0.01398M135.38236,177.18677c-0.18633,0.77325 -0.19564,1.69558 -0.02794,2.76694c0.11179,0.67077 0.29812,1.17386 0.55898,1.50925c-0.18633,0.02794 -0.39594,0.00467 -0.62885,-0.06987c-0.12111,-0.04658 -0.31675,-0.13509 -0.58693,-0.26551c-0.78258,-0.46582 -1.32758,-0.83846 -1.63501,-1.11795c-0.41556,-0.39514 -0.68108,-0.81904 -0.79654,-1.27167c0.02645,-0.14469 0.02645,-0.29375 0,-0.44718c-0.04658,-0.17701 -0.07918,-0.30743 -0.09782,-0.39128c-0.03726,-0.14906 -0.04192,-0.27949 -0.01398,-0.39128c0.00931,-0.05591 0.03726,-0.13042 0.08385,-0.22358c0.0297,-0.05445 0.05299,-0.10102 0.06987,-0.13975c1.21693,-0.51174 2.45136,-0.96825 3.70323,-1.3695c-0.28881,0.4006 -0.49842,0.87107 -0.62885,1.41143M168.61368,176.52998c-0.14906,0.35403 -0.21427,0.76394 -0.19564,1.22976c0.01863,0.41924 0.10248,0.97355 0.25155,1.66297c-0.87574,-0.72667 -1.6583,-1.51856 -2.34771,-2.37565c-0.41924,-0.53103 -0.63817,-0.9689 -0.6568,-1.3136c-0.00931,-0.02794 -0.00931,-0.05591 0,-0.08385c0.76394,0.22358 1.65365,0.4891 2.66913,0.79654c0.09316,0.01863 0.18633,0.04658 0.27949,0.08385M153.56316,173.51148c1.83531,0.10248 3.67062,0.29812 5.50594,0.58693c-0.66146,0.47513 -1.09467,1.19249 -1.29962,2.15207c-0.13975,0.60556 -0.17235,1.53253 -0.09782,2.78092c-0.24222,-0.02794 -0.55433,-0.17701 -0.93629,-0.44718c-0.94094,-0.69873 -1.60241,-1.29031 -1.98438,-1.77476c-0.39128,-0.48445 -0.68475,-1.01548 -0.88039,-1.5931c-0.20496,-0.5683 -0.30743,-1.13658 -0.30743,-1.70489M141.51715,174.76919c-0.01739,-0.01524 -0.03603,-0.02922 -0.05591,-0.04192c0.00288,-0.04378 0.00754,-0.09037 0.01398,-0.13975c0.0111,-0.07108 0.02042,-0.13629 0.02794,-0.19564c1.35003,-0.26395 2.71953,-0.47356 4.1085,-0.62885c0.68941,-0.07453 1.37882,-0.13509 2.06823,-0.18166c0.22489,-0.01572 0.4485,-0.0297 0.67077,-0.04192c-0.20038,0.14323 -0.38671,0.31093 -0.55898,0.50309c-0.02547,0.00325 -0.05342,0.0079 -0.08385,0.01398c-0.13975,0.02794 -0.28881,0.09316 -0.44718,0.19564c-0.26086,0.19564 -0.47048,0.45184 -0.62885,0.7686c-0.40991,0.84778 -0.54034,1.81203 -0.39128,2.89271c0.08385,0.68941 0.27949,1.3695 0.58693,2.04027c-0.27018,0.28881 -0.70804,0.3447 -1.3136,0.1677c-1.07138,-0.35403 -1.96574,-0.99685 -2.6831,-1.92848c-0.71736,-0.92231 -1.12262,-1.92848 -1.21579,-3.01849c-0.00931,-0.20496 -0.04192,-0.34004 -0.09782,-0.40527M192.45414,172.86866c1.13658,-0.52171 2.57131,-1.2018 4.30414,-2.04027c0.05015,-0.02231 0.09673,-0.04559 0.13975,-0.06987c0.12188,-0.04826 0.23833,-0.0995 0.34936,-0.15372c0.08112,-0.03122 0.1603,-0.06383 0.23757,-0.09782c-0.01863,0.00931 -0.03261,0.01863 -0.04192,0.02794c-0.03352,0.067 -0.0801,0.16482 -0.13975,0.29346c-0.10587,0.25681 -0.25958,0.63413 -0.46116,1.13194c-0.02897,0.09287 -0.06158,0.18604 -0.09782,0.27949c-0.26086,0.70804 -0.55433,1.22976 -0.88039,1.56513c-0.37265,0.36334 -0.7453,0.53569 -1.11795,0.51706c-0.24222,-0.01863 -0.50309,-0.12577 -0.78258,-0.32142c-0.04658,-0.02794 -0.27949,-0.21894 -0.69873,-0.57295c-0.24222,-0.20496 -0.5124,-0.39128 -0.81052,-0.55898M189.58937,174.18226c0.26086,-0.13042 0.63351,-0.29812 1.11795,-0.50309c-0.00931,0.03726 -0.0233,0.07453 -0.04192,0.11179c-0.06522,0.24222 -0.16303,0.4006 -0.29346,0.47513c-0.13975,0.08385 -0.38197,0.06522 -0.72667,-0.05591c-0.01863,-0.00931 -0.03726,-0.01863 -0.05591,-0.02794M202.08255,168.62042c0.02794,0.10248 0.07918,0.15837 0.15372,0.1677c0.19564,-0.06522 0.39594,-0.11179 0.60091,-0.13975c0.31675,-0.05591 0.64282,-0.07453 0.97822,-0.05591c0.53103,0.04658 1.04342,0.18166 1.53719,0.40527c0.31792,0.16351 0.62071,0.3545 0.90833,0.57295c0.00801,0.00477 0.01266,0.00942 0.01398,0.01398h0.01398c0,0.06795 -0.00467,0.13316 -0.01398,0.19564c-0.002,0.03799 -0.00666,0.07525 -0.01398,0.11179c-0.04858,0.46487 -0.1464,0.9633 -0.29346,1.49527c-0.04996,0.18939 -0.10587,0.38037 -0.1677,0.57295c-0.12442,0.36556 -0.32472,0.88261 -0.60091,1.55117c-0.05179,0.13484 -0.10767,0.27457 -0.1677,0.41924c-0.02119,0.04593 -0.04447,0.08786 -0.06987,0.12577c-0.08992,0.16544 -0.18775,0.26326 -0.29346,0.29346c-0.11179,0.02794 -0.26086,-0.0233 -0.44718,-0.15372c-0.29594,-0.19298 -0.59405,-0.43987 -0.89437,-0.74065c-0.13468,-0.12667 -0.26977,-0.26643 -0.40527,-0.41924c-0.27018,-0.27949 -0.64282,-0.7453 -1.11795,-1.39745c-0.33539,-0.44718 -0.57295,-0.79189 -0.7127,-1.03411c-0.10248,-0.17701 -0.19098,-0.34936 -0.26551,-0.51706c-0.09316,-0.23291 -0.15372,-0.45649 -0.18166,-0.67077l-0.34936,-0.09782l-0.02794,-0.05591c0.63151,-0.26847 1.22776,-0.51535 1.78874,-0.74065c0,0.02794 0.00931,0.06055 0.02794,0.09782M224.27403,103.84871c2.22659,-0.80121 4.73269,-1.53253 7.51828,-2.19399c1.96574,-0.45649 4.52307,-0.97822 7.672,-1.56513c8.81325,-1.62104 16.67622,-2.73435 23.58892,-3.3399c6.93979,-0.61572 13.48916,-0.79272 19.64812,-0.53103c1.37951,0.06383 2.73968,0.14768 4.08054,0.25155c2.0219,0.95078 3.85255,3.16807 5.49197,6.65185c0.43787,0.92231 1.14125,2.59926 2.11016,5.03081c0.81983,2.05892 1.4813,3.54952 1.98438,4.47183c0.62419,1.15522 1.27634,4.39265 1.95642,9.71226c0.64282,5.07739 0.96424,9.13465 0.96424,12.17177c0,1.49992 -0.27483,4.36004 -0.8245,8.58033c-0.55898,4.22029 -0.83846,6.9919 -0.83846,8.31482c0,0.43692 0.05591,0.98193 0.1677,1.63501l-0.01398,-0.04192c-0.06522,-0.05591 -0.13975,-0.07918 -0.22358,-0.06987c-0.08385,0 -0.15372,0.03261 -0.20962,0.09782c0.1677,0.13975 0.24222,0.44718 0.22358,0.92231c0,0.09081 0,0.18397 0,0.27949c0.02904,0.38663 0.10358,0.80121 0.22358,1.24373c0.10248,0.3447 0.27018,0.83382 0.50309,1.46732l0.99218,2.66913c0.41924,1.12727 0.7453,1.96574 0.97822,2.51541c0.38197,0.92231 0.77325,1.73283 1.17386,2.43156c0.39128,0.68941 0.99218,1.61173 1.8027,2.76694l1.84463,2.6272c-0.72667,-0.05591 -1.67694,-0.46116 -2.85079,-1.21579c-0.21027,-0.13538 -0.41523,-0.26114 -0.61488,-0.37731c-0.09658,-0.16868 -0.19906,-0.33637 -0.30743,-0.50309c-0.54966,-0.86643 -1.12262,-1.3695 -1.71886,-1.50925c-0.17701,-0.03726 -0.3447,-0.01863 -0.50309,0.05591c-0.17701,0.07453 -0.26086,0.19098 -0.25155,0.34936c0.00931,0.11179 0.10248,0.24688 0.27949,0.40527c0.08225,0.07813 0.16143,0.15731 0.23757,0.23757c-0.02199,0.02333 -0.03596,0.05594 -0.04192,0.09782c-0.01863,0.05591 -0.00467,0.10715 0.04192,0.15372c0.05591,0.06522 0.15837,0.10715 0.30743,0.12577c0.00772,0.00142 0.01237,0.00142 0.01398,0c0.33747,0.4168 0.6449,0.89659 0.92231,1.43937c0.29812,0.58693 0.61954,1.38347 0.96424,2.38964c0.4006,1.2018 0.70339,2.22659 0.90833,3.07438c0.27018,1.12727 0.41924,2.18002 0.44718,3.15823c0.04658,1.55582 -0.21894,3.47498 -0.79654,5.75748c-0.1677,0.67077 -0.3121,1.16455 -0.43321,1.4813c-0.45649,1.28565 -1.17386,2.38964 -2.15207,3.31195c-0.22358,-1.84463 -0.45184,-3.24674 -0.68475,-4.20632c-0.2979,-1.19893 -0.70317,-2.24237 -1.21579,-3.13028c0.04428,-0.46432 0.06291,-0.92082 0.05591,-1.3695c-0.03726,-1.18318 -0.27949,-2.07288 -0.72667,-2.66913c-0.1677,0.07453 -0.2562,0.22358 -0.26551,0.44718c-0.00931,0.22358 0.06522,0.38197 0.22358,0.47513c-0.10248,0.39128 -0.1677,0.91767 -0.19564,1.57912c-0.02794,0.81052 -0.06055,1.34621 -0.09782,1.60706l-0.19564,0.93629c-0.35403,1.4254 -0.68475,2.62255 -0.99218,3.59144c-0.40991,1.27634 -0.86176,2.4269 -1.35552,3.45169c-0.76394,1.57446 -1.72352,3.03247 -2.87875,4.37402c-0.95634,1.12739 -2.0091,2.13355 -3.15823,3.01849l-0.37731,-0.23757c0.02104,-0.04702 0.03967,-0.09826 0.05591,-0.15372c0.44026,-1.04823 0.73374,-1.89136 0.88039,-2.52938c0.31675,-1.36019 0.28881,-2.57131 -0.08385,-3.63337c-0.03726,0.14906 -0.11179,0.31675 -0.22358,0.50309l-0.01398,0.01398c0.05069,-0.24004 0.09261,-0.48226 0.12577,-0.72667c0.07453,-0.59625 0.11179,-1.27167 0.11179,-2.02631c0,-0.45649 -0.0885,-0.77791 -0.26551,-0.96424c-0.11179,-0.13042 -0.26551,-0.19098 -0.46116,-0.18166c-0.19564,0.00931 -0.32142,0.09316 -0.37731,0.25155c0.04658,1.40676 -0.13975,2.75298 -0.55898,4.03863c-0.29812,0.92231 -0.7453,1.90985 -1.34155,2.96259c-0.38197,0.67077 -0.95959,1.58843 -1.73283,2.75298l-0.86643,1.32758c-0.59625,0.87574 -0.9689,1.40676 -1.11795,1.5931c-0.48445,0.61488 -1.10398,1.27634 -1.85861,1.98438c-1.57446,1.47198 -3.27468,2.78092 -5.10069,3.92684c1.14591,-2.03095 2.10549,-4.16439 2.87875,-6.4003l-2.18002,3.57747c0.25369,-0.47458 0.52852,-1.0848 0.8245,-1.83066l0.67077,-1.71886c0.19564,-0.50309 0.32142,-0.89437 0.37731,-1.17386c0.09316,-0.44718 0.07918,-0.84313 -0.04192,-1.18783c-0.05591,-0.1677 -0.13042,-0.26551 -0.22358,-0.29346c-0.12111,-0.03726 -0.22358,0.01398 -0.30743,0.15372c-0.07453,0.10248 -0.12577,0.23757 -0.15372,0.40527c-0.10248,0.68941 -0.41924,1.70022 -0.95027,3.03247c-0.31675,0.78258 -0.59158,1.37882 -0.8245,1.78874c-0.1844,0.31435 -0.42662,0.65439 -0.72667,1.02014c-0.14673,0.08698 -0.25853,0.19878 -0.33539,0.33539c0.01943,0 0.03807,0 0.05591,0c-0.30951,0.36541 -0.6682,0.75205 -1.07603,1.15988l-4.5976,4.30414c-0.68009,0.62419 -1.19715,1.08534 -1.55117,1.38347c-0.58693,0.48445 -1.13658,0.88506 -1.64898,1.2018c-0.22781,0.15772 -0.33961,0.30213 -0.33539,0.43321c-0.73276,0.40765 -1.506,0.64989 -2.31976,0.72667c0.24222,-0.27018 0.5124,-0.67077 0.81052,-1.2018c0.35403,-0.64282 0.60091,-1.06207 0.74065,-1.2577c0.13975,-0.18633 0.35867,-0.46582 0.6568,-0.83846c0.49376,-0.68009 0.80121,-1.46732 0.92231,-2.36168c0.11179,-0.09316 0.18166,-0.22358 0.20962,-0.39128c0.03726,-0.15837 0.0233,-0.30743 -0.04192,-0.44718l-0.62885,0.75461c-0.22431,0.2724 -0.43394,0.52393 -0.62885,0.75461l-0.18166,-0.15372c0.9325,-1.15548 1.64054,-2.44113 2.12412,-3.85695c-0.22358,0.06522 -0.43321,0.21894 -0.62885,0.46116c-0.11179,0.13975 -0.26086,0.37731 -0.44718,0.7127c-0.99685,1.79805 -2.35237,3.32126 -4.06657,4.56966c-0.15004,0.1107 -0.30377,0.21784 -0.46116,0.32142c-0.0233,0.01867 -0.05124,0.0373 -0.08385,0.05591c-0.01623,0.01412 -0.03486,0.0281 -0.05591,0.04192c-0.81212,0.5426 -1.6599,0.98978 -2.54335,1.34155l-0.29346,0.67077c-0.06238,0.0452 -0.12758,0.08713 -0.19564,0.12577c-1.4869,0.97458 -3.23372,1.75714 -5.24042,2.34771c-2.12412,0.62419 -5.06342,1.15056 -8.81789,1.57912c-5.12496,0.58522 -10.21167,1.10227 -15.26013,1.55117c-0.57048,0.05277 -1.14343,0.10401 -1.71886,0.15372c-1.46267,0.13042 -2.92068,0.25155 -4.37402,0.36334c-0.03726,0 -0.07453,0.00467 -0.11179,0.01398l-0.08385,-0.95027c-0.38197,-1.90985 -0.57295,-3.55418 -0.57295,-4.93299c0,-0.86643 0.45184,-2.83216 1.35552,-5.89724c0.62419,-2.13343 1.14125,-3.67995 1.55117,-4.63953l-0.37731,-0.13975c0.13042,0.00931 0.27018,0.01863 0.41924,0.02794c0.6279,0.0433 1.33594,0.09921 2.12412,0.1677c0.23164,0.02348 0.46921,0.04676 0.7127,0.06987c1.86325,0.15837 4.12713,0.36334 6.7916,0.61488c1.37882,0.13042 2.44553,0.18166 3.20016,0.15372c0.54343,-0.01812 1.05117,-0.06937 1.52322,-0.15372c0.12155,0.03726 0.26129,0.05591 0.41924,0.05591c0.40991,0.01863 0.92698,-0.03726 1.55117,-0.1677c0.39387,-0.08046 0.71529,-0.14568 0.96424,-0.19564c0.49034,-0.00025 0.98877,-0.0282 1.49527,-0.08385c0.46582,-0.04658 0.81052,-0.13042 1.03411,-0.25155c0.03293,-0.01925 0.06554,-0.04254 0.09782,-0.06987c0.04425,0 0.08152,0 0.11179,0c0.26086,0 0.40527,-0.00467 0.43321,-0.01398c0.10653,-0.02315 0.20899,-0.09301 0.30743,-0.20962c0.09731,-0.1106 0.19047,-0.26897 0.27949,-0.47513c-0.16693,-0.05117 -0.32996,-0.10707 -0.4891,-0.1677c0.06598,-0.16606 0.11255,-0.35239 0.13975,-0.55898c0.02794,-0.4006 -0.03261,-0.98753 -0.18166,-1.76079l-0.41924,-1.99834c-0.12111,-0.58693 -0.22825,-1.01548 -0.32142,-1.28565c-0.00931,-0.01863 -0.16303,-0.35867 -0.46116,-1.02014c-0.15837,-0.40991 -0.28881,-0.7127 -0.39128,-0.90833c-0.54966,-1.60241 -1.27167,-3.24674 -2.16604,-4.93299c-0.5124,-0.97822 -1.15988,-2.08219 -1.94246,-3.31195c0.01863,0.00931 0.03726,0.01398 0.05591,0.01398c-0.04658,-0.05591 -0.09316,-0.10248 -0.13975,-0.13975c-0.97822,-1.51856 -2.1381,-3.22811 -3.47965,-5.12863c-0.94477,-1.32499 -1.80187,-2.49419 -2.57131,-3.50759c0.06638,-0.01037 0.13159,-0.01969 0.19564,-0.02794c-0.11179,-0.14906 -0.22358,-0.28881 -0.33539,-0.41924c-0.55091,-0.67612 -1.10057,-1.31895 -1.64898,-1.92848c-1.06934,-1.19307 -2.12675,-2.25047 -3.1722,-3.1722c-1.8819,-1.63967 -3.82901,-2.95327 -5.84133,-3.9408c-1.55215,-0.76022 -3.094,-1.30057 -4.62556,-1.62104c-0.27069,-0.05917 -0.54086,-0.11041 -0.81052,-0.15372c-0.42855,-0.06522 -0.85245,-0.11646 -1.27167,-0.15372c-0.51013,-0.04374 -1.03186,-0.06238 -1.56513,-0.05591c-0.11834,0.00444 -0.23947,0.00909 -0.36334,0.01398c-0.68213,-0.12239 -1.5206,-0.27145 -2.51541,-0.44718c-2.07754,-0.37265 -3.66598,-0.55898 -4.7653,-0.55898c-0.8036,0 -1.41383,0.00467 -1.83066,0.01398c-0.26413,0.01346 -0.45047,0.02744 -0.55898,0.04192c-0.32465,0.04217 -0.64607,0.11671 -0.96424,0.22358c-0.37808,0.13804 -0.75073,0.32435 -1.11795,0.55898v-0.27949c0.10281,-0.26439 0.20994,-0.59045 0.32142,-0.97822c0.2519,-0.85546 0.52674,-2.01534 0.8245,-3.47965c0.07842,-0.36877 0.15761,-0.76004 0.23757,-1.17386c0.14415,-0.74905 0.26993,-1.44778 0.37731,-2.09617c0.31675,-1.91026 0.47513,-3.38688 0.47513,-4.4299c0,-4.43457 -1.57912,-8.64555 -4.73736,-12.63293c-0.59606,-0.75022 -1.23888,-1.48156 -1.92848,-2.19399c-0.25373,-0.26308 -0.51459,-0.52393 -0.78258,-0.78258c-1.91723,-1.85817 -4.16247,-3.58169 -6.7357,-5.17056c0.10704,-0.04232 0.21416,-0.08891 0.32142,-0.13975c0.23579,-0.09436 0.48733,-0.2015 0.75461,-0.32142c0.10335,-0.04811 0.20118,-0.09469 0.29346,-0.13975c0.38568,-0.19043 0.66517,-0.35348 0.83846,-0.4891c0.1677,-0.13042 0.27018,-0.25155 0.30743,-0.36334c0.07453,-0.19564 0.04192,-0.3447 -0.09782,-0.44718c-0.13042,-0.09316 -0.33073,-0.08385 -0.60091,0.02794h-0.01398l-4.4299,-2.04027c-0.13975,-0.05591 -0.20962,-0.12111 -0.20962,-0.19564c0.22635,-0.11033 0.45461,-0.20816 0.68475,-0.29346c0.24881,-0.09055 0.50036,-0.16974 0.75461,-0.23757c0.30053,-0.07294 0.60796,-0.12882 0.92231,-0.1677c0.46058,-0.04877 0.92173,-0.05342 1.38347,-0.01398c0.34099,0.02842 0.68104,0.07966 1.02014,0.15372c0.05506,0.01256 0.11095,0.02652 0.1677,0.04192c0.50617,0.12792 1.13502,0.34219 1.88655,0.64282c0.65215,0.24222 1.09933,0.49842 1.34155,0.7686c0.03726,0.04658 0.13042,0.1677 0.27949,0.36334c0.12111,0.15837 0.22825,0.27018 0.32142,0.33539c0.13042,0.09316 0.27483,0.13975 0.43321,0.13975c0.17701,-0.00931 0.30279,-0.07918 0.37731,-0.20962c0.11179,-0.19564 0.01398,-0.47979 -0.29346,-0.85245c-0.41924,-0.52171 -0.72201,-1.06207 -0.90833,-1.62104c-0.07453,-0.21427 -0.17235,-0.5683 -0.29346,-1.06207l-0.19564,-0.72667c-0.12111,-0.40991 -0.19098,-0.70339 -0.20962,-0.88039c-0.02794,-0.3447 0.04192,-0.61022 0.20962,-0.79654c0.11001,0.37399 0.28236,0.742 0.51706,1.10398c0.16613,0.26052 0.36177,0.51673 0.58693,0.7686c0.27069,0.30627 0.65266,0.66962 1.14591,1.09001c0.1599,0.13691 0.3276,0.27665 0.50309,0.41924c0.16679,0.13975 0.32051,0.26086 0.46116,0.36334c0.14994,0.10968 0.28503,0.19819 0.40527,0.26551c0.19997,0.10808 0.39095,0.17795 0.57295,0.20962c0.14108,0.03035 0.27617,0.03967 0.40527,0.02794c0.03304,-0.00368 0.06565,-0.00833 0.09782,-0.01398c0.01703,0.01135 0.03566,0.02067 0.05591,0.02794c0.1356,0.05037 0.27069,0.07831 0.40527,0.08385c0.01368,0.01641 0.023,0.03039 0.02794,0.04192c0.02209,-0.0079 0.04073,-0.01721 0.05591,-0.02794c0.1753,0.00517 0.35231,-0.01812 0.53103,-0.06987c1.40887,-0.42655 2.73646,-1.22776 3.98272,-2.40361c0.55846,-0.51182 1.09882,-1.09875 1.62104,-1.76079c0.92231,-1.17386 2.24989,-3.36319 3.98272,-6.568c1.55582,-2.87875 2.96725,-4.98889 4.23426,-6.33044c1.22043,-1.29497 2.72501,-2.45019 4.51375,-3.46567c1.4813,-0.84778 3.22344,-1.63501 5.22645,-2.36168M247.20615,191.65037l-1.90053,-2.87875c-0.01863,0.21427 0.06522,0.52637 0.25155,0.93629c0.44718,0.9689 0.95959,2.35237 1.53719,4.15042c0.20496,0.58693 0.34936,1.05274 0.43321,1.39745c0.30743,1.15522 0.43321,2.29182 0.37731,3.40977c-0.02794,0.60556 -0.09782,1.09001 -0.20962,1.45334c-0.21074,0.68286 -0.62531,1.33966 -1.24373,1.9704c-0.02529,0.0302 -0.05325,0.05815 -0.08385,0.08385c-0.03719,0.03913 -0.07447,0.07638 -0.11179,0.11179c-0.11413,0.11413 -0.23058,0.22127 -0.34936,0.32142c-0.02598,0.02758 -0.05394,0.05088 -0.08385,0.06987c-0.14367,0.12992 -0.29274,0.25103 -0.44718,0.36334c-0.65215,0.45649 -1.36019,0.80585 -2.12412,1.04809c-0.52171,0.1677 -1.26236,0.30743 -2.22195,0.41924l-1.4813,0.20962c-1.11795,0.13975 -1.9471,0.17701 -2.48746,0.11179c-0.29812,-0.03726 -0.44718,0.03261 -0.44718,0.20962c2.00301,0.27018 3.51226,0.45649 4.52773,0.55898c0.93163,0.10248 1.70022,0.1444 2.30579,0.12577c0.99685,0 1.80737,-0.18166 2.43156,-0.545c0.4006,-0.21427 0.77791,-0.54034 1.13194,-0.97822c0.24222,-0.30743 0.51706,-0.73134 0.8245,-1.27167c0.59625,-1.07138 0.96424,-1.98903 1.10398,-2.75298c0.03726,-0.20496 0.06987,-0.545 0.09782,-1.02014c0.05591,-1.32292 -0.07453,-2.61789 -0.39128,-3.88491c-0.29812,-1.30428 -0.77791,-2.51074 -1.43937,-3.61938M238.15069,149.50333c-0.39183,-0.01106 -0.79243,-0.04366 -1.2018,-0.09782c0.04909,0.08184 0.09102,0.15638 0.12577,0.22358l0.75461,0.06987c0.09316,0 0.18166,-0.0233 0.26551,-0.06987c0.08385,-0.02794 0.10248,-0.06987 0.05591,-0.12577z" fill="#ffffff"/><path d="M204.31847,167.67016c0.41924,-0.13975 0.83846,-0.27018 1.2577,-0.39128c0.09247,-0.02783 0.18564,-0.05579 0.27949,-0.08385c0.73065,-0.2145 1.448,-0.40548 2.15207,-0.57295c0.12685,-0.02791 0.25263,-0.05587 0.37731,-0.08385c-0.03726,0.08385 -0.07918,0.1677 -0.12577,0.25155c-0.01696,0.02966 -0.03559,0.05761 -0.05591,0.08385c-0.08443,0.17367 -0.15431,0.35534 -0.20962,0.545c-0.08385,0.25155 -0.1444,0.4891 -0.18166,0.7127c-0.00931,0.02794 -0.00931,0.06055 0,0.09782c-0.02794,0.06522 -0.05124,0.13042 -0.06987,0.19564c-0.03297,0.1055 -0.05627,0.20797 -0.06987,0.30743c-0.00659,0.04301 -0.01124,0.08494 -0.01398,0.12577l-0.11179,0.27949c-0.06522,0.21427 -0.0885,0.45184 -0.06987,0.7127c-0.01863,0.02794 -0.04192,0.06055 -0.06987,0.09782c-0.01863,-0.02794 -0.03726,-0.05591 -0.05591,-0.08385c0.08385,-0.22358 0.12111,-0.43787 0.11179,-0.64282c-0.00554,-0.14921 -0.04279,-0.27032 -0.11179,-0.36334c-0.04531,-0.05906 -0.10587,-0.10565 -0.18166,-0.13975c-0.11179,-0.03726 -0.23757,-0.02794 -0.37731,0.02794c-0.12111,0.05591 -0.21894,0.13509 -0.29346,0.23757c-0.00815,-0.00652 -0.01747,-0.01583 -0.02794,-0.02794c-0.54988,-0.43154 -1.14613,-0.74829 -1.78874,-0.95027c-0.30743,-0.09316 -0.60556,-0.1444 -0.89437,-0.15372c0.17701,-0.05591 0.35403,-0.11646 0.53103,-0.18166z" fill="#624948"/><path d="M216.07101,165.96527c0.59279,0.05783 1.17506,0.14167 1.74681,0.25155c0.90554,0.16933 1.78593,0.40225 2.64118,0.69873c2.18934,0.75461 4.37866,2.01698 6.568,3.78708c1.16251,0.94929 2.43884,2.14177 3.82901,3.57747c0.23863,0.25435 0.48084,0.51054 0.72667,0.7686c1.68538,1.92294 3.16668,3.7769 4.44389,5.56184c0.02188,0.02507 0.04051,0.04836 0.05591,0.06987c0.7263,1.01294 1.38777,2.00512 1.98438,2.97656c-0.39128,-0.24222 -0.81518,-0.45649 -1.27167,-0.64282c-0.77325,-0.30743 -1.73283,-0.57295 -2.87875,-0.79654c-4.46118,-0.85194 -8.90972,-0.81001 -13.34563,0.12577c-0.07367,0.02074 -0.14818,0.03938 -0.22358,0.05591c-0.1832,0.0401 -0.36953,0.08202 -0.55898,0.12577c-2.41052,0.57269 -4.97252,1.46241 -7.68596,2.66913c-0.07202,0.03512 -0.14655,0.06772 -0.22358,0.09782c-1.21648,-0.89546 -2.48815,-2.33483 -3.81503,-4.31811c-1.43326,-2.13941 -2.32762,-4.11912 -2.6831,-5.93915c0.06256,-0.11543 0.12312,-0.24586 0.18166,-0.39128l1.5931,-4.24824c0.19564,0.20496 0.38197,0.43787 0.55898,0.69873h0.01398l0.20962,0.51706c0.14906,0.35403 0.35403,0.77325 0.61488,1.2577c0.14906,0.26086 0.37731,0.66612 0.68475,1.21579l0.85245,1.63501c0.26086,0.5124 0.44252,0.90833 0.545,1.18783c0.10248,0.33539 0.15372,0.61954 0.15372,0.85245c0.17701,0.02794 0.35403,-0.03261 0.53103,-0.18166c0.10248,-0.09316 0.23291,-0.25155 0.39128,-0.47513c0.12111,-0.1677 0.30743,-0.39128 0.55898,-0.67077c0.27018,-0.31675 0.45649,-0.545 0.55898,-0.68475l0.67077,-0.96424c0.01514,-0.01918 0.02911,-0.04247 0.04192,-0.06987c0.08534,-0.09658 0.18782,-0.2177 0.30743,-0.36334c0.08348,-0.10609 0.17664,-0.22254 0.27949,-0.34936c0.25155,-0.31675 0.44252,-0.59625 0.57295,-0.83846c0.24222,-0.46582 0.41458,-1.13194 0.51706,-1.99834c0.05671,-0.5175 0.08931,-1.00193 0.09782,-1.45334c0.00222,-0.13654 0.00222,-0.27163 0,-0.40527v-1.53719c0,-0.73599 -0.05591,-1.2577 -0.1677,-1.56513c-0.05591,-0.12111 -0.09316,-0.21427 -0.11179,-0.27949c0.3447,0.00931 0.68941,0.0233 1.03411,0.04192z" fill="#425b63"/><path d="M188.8627,174.47573c0.04658,0.09316 0.12111,0.20496 0.22358,0.33539c0.50309,0.53103 0.94094,0.77325 1.3136,0.72667c0.35403,-0.02794 0.63817,-0.23757 0.85245,-0.62885c0.13042,-0.23291 0.23291,-0.59625 0.30743,-1.09001c0.39128,0.05591 0.98753,0.4006 1.78874,1.03411c0.69873,0.54966 1.29031,0.79189 1.77476,0.72667c0.40991,-0.07453 0.82915,-0.33073 1.2577,-0.7686c0.10776,-0.10863 0.21024,-0.22043 0.30743,-0.33539c0.57867,-0.65585 1.01188,-1.38252 1.29962,-2.18002c0.19058,-0.53715 0.31636,-1.10544 0.37731,-1.70489c0.01863,-0.10248 0.0233,-0.19098 0.01398,-0.26551c-0.00931,-0.02794 -0.0233,-0.05591 -0.04192,-0.08385c-0.02794,-0.03726 -0.06055,-0.06522 -0.09782,-0.08385c0.66368,-0.29888 1.29719,-0.57837 1.90053,-0.83846c0.04451,-0.01842 0.08644,-0.03705 0.12577,-0.05591l0.02794,0.05591c-0.04636,0.14837 -0.07897,0.30209 -0.09782,0.46116c-0.01405,0.16223 -0.01405,0.32993 0,0.50309c0.06522,0.68941 0.39128,1.46732 0.97822,2.33374c0.14186,0.20198 0.28627,0.39296 0.43321,0.57295c0.18308,0.23823 0.36942,0.46181 0.55898,0.67077c0.58045,0.63739 1.19533,1.16378 1.84463,1.57912c0.23291,0.15837 0.42855,0.23757 0.58693,0.23757c0.15095,-0.00754 0.29069,-0.06809 0.41924,-0.18166c0.13127,-0.10758 0.25238,-0.26129 0.36334,-0.46116c0.35548,1.82003 1.24984,3.79974 2.6831,5.93915c1.32688,1.98328 2.59857,3.42266 3.81503,4.31811c-1.01013,0.45605 -2.03958,0.95448 -3.08835,1.49527c-0.59886,0.32055 -1.50254,0.82361 -2.71105,1.50925c-0.11933,0.07326 -0.2451,0.14779 -0.37731,0.22358c-0.03726,-0.07453 -0.07453,-0.14906 -0.11179,-0.22358c-0.5124,-0.93163 -0.8897,-1.5698 -1.13194,-1.9145c-0.31675,-0.44718 -0.71736,-0.91767 -1.2018,-1.41143c-0.34685,-0.36807 -0.71951,-0.73607 -1.11795,-1.10398c-0.05011,-0.04982 -0.10136,-0.10106 -0.15372,-0.15372c0.00113,0.02721 0.00113,0.05051 0,0.06987c-0.2904,-0.251 -0.60716,-0.51651 -0.95027,-0.79654c-1.06207,-0.86643 -1.8819,-1.50458 -2.4595,-1.9145c-0.81157,-0.57856 -1.58948,-1.04903 -2.33374,-1.41143c-0.11635,-0.05124 -0.2328,-0.10248 -0.34936,-0.15372c-0.41924,-0.18986 -0.73599,-0.21315 -0.95027,-0.06987c-0.34441,-0.19914 -0.71706,-0.41341 -1.11795,-0.64282l-1.84463,-1.07603c-0.92231,-0.52171 -1.58377,-0.86643 -1.98438,-1.03411c-1.00616,-0.42855 -2.33374,-0.77791 -3.98272,-1.04809c-0.02794,0.00931 -0.05124,0.00931 -0.06987,0c0.94094,-0.3447 1.9145,-0.73134 2.92068,-1.15988z" fill="#557580"/><path d="M162.47887,200.74775c2.4595,1.09001 5.12863,1.78874 8.00737,2.09617c2.71105,0.27949 5.48266,0.19564 8.31482,-0.25155c4.92833,-0.77325 10.11752,-2.66913 15.56758,-5.68761c2.59926,-1.44403 6.34906,-3.73584 11.24945,-6.87545c0.15837,0.06522 0.32142,0.09782 0.4891,0.09782c0.01863,-0.13042 0.0233,-0.27483 0.01398,-0.43321c0.11791,-0.08163 0.23903,-0.16548 0.36334,-0.25155h0.01398c2.07994,-1.24475 4.055,-2.30681 5.92518,-3.18619c0.19859,-0.09389 0.39423,-0.18706 0.58693,-0.27949c2.25321,-1.0209 4.35403,-1.77553 6.30249,-2.26386c0.40017,-0.09618 0.80077,-0.18469 1.2018,-0.26551c0.14346,-0.02762 0.2832,-0.05557 0.41924,-0.08385c2.65948,-0.48983 5.44506,-0.65753 8.35674,-0.50309c2.99986,0.1677 6.07424,0.68009 9.22316,1.53719c0.10248,0.19564 0.20962,0.39128 0.32142,0.58693c0.42855,0.76394 0.8245,1.52788 1.18783,2.29182c-0.15837,0.09316 -0.19564,0.24688 -0.11179,0.46116c0.02794,0.09316 0.12111,0.24222 0.27949,0.44718c0.21427,0.26086 0.41458,0.60556 0.60091,1.03411c0.11179,0.23291 0.27483,0.60556 0.4891,1.11795c0.01863,0.04658 0.04192,0.09316 0.06987,0.13975c0.70804,2.08686 1.15988,4.15508 1.35552,6.20467c-0.11179,0.06522 -0.21427,0.13975 -0.30743,0.22358c0,0.09316 -0.01398,0.22358 -0.04192,0.39128c-0.06522,0.49376 -0.19564,0.88039 -0.39128,1.15988c-0.09316,0.11179 -0.22358,0.2562 -0.39128,0.43321c-0.17701,0.19564 -0.30279,0.33073 -0.37731,0.40527c-0.19178,0.28769 -0.35016,0.48798 -0.47513,0.60091c-0.18968,0.04746 -0.38532,0.08939 -0.58693,0.12577c-0.45846,0.08596 -0.77988,0.15583 -0.96424,0.20962c-0.03716,-0.02165 -0.06976,-0.04494 -0.09782,-0.06987c-0.11988,0.03174 -0.24098,0.05968 -0.36334,0.08385c-0.02337,0.00887 -0.04666,0.01354 -0.06987,0.01398c-0.02092,0.00924 -0.04421,0.0139 -0.06987,0.01398c-0.15386,0.03807 -0.31224,0.07067 -0.47513,0.09782c-0.82915,0.13042 -1.9471,0.13042 -3.35387,0c-2.66446,-0.25155 -5.17987,-0.44252 -7.54622,-0.57295c-0.36013,-0.02089 -0.71882,-0.03953 -1.07603,-0.05591c-0.03763,-0.0027 -0.07955,-0.00735 -0.12577,-0.01398c-0.19436,-0.00557 -0.39,-0.01488 -0.58693,-0.02794c-1.43274,-0.06401 -2.8069,-0.10594 -4.12247,-0.12577c-1.3136,-0.01863 -2.59926,-0.0233 -3.85695,-0.01398c0.80121,-0.24222 1.80737,-0.54034 3.01849,-0.89437c0.1677,-0.04658 0.3447,-0.09316 0.53103,-0.13975c1.11981,-0.29469 2.62905,-0.6394 4.52773,-1.03411c0.01394,-0.00186 0.02326,-0.00652 0.02794,-0.01398c0.19866,-0.03344 0.39896,-0.07071 0.60091,-0.11179c0.37265,-0.07453 0.72667,-0.13975 1.06207,-0.19564c1.05274,-0.19564 1.87259,-0.33073 2.4595,-0.40527c1.3136,-0.1677 2.48746,-0.18633 3.52157,-0.05591c0.43787,0.05591 1.24839,0.20962 2.43156,0.46116c1.01548,0.23291 1.83066,0.35867 2.44553,0.37731l-2.6272,-0.79654c-1.24839,-0.35403 -2.17536,-0.58693 -2.78092,-0.69873c-1.01548,-0.1677 -2.17536,-0.19098 -3.47965,-0.06987c-0.54034,0.04658 -1.21579,0.13975 -2.02631,0.27949c-0.43787,0.06522 -0.90833,0.1444 -1.41143,0.23757c-0.14891,0.02565 -0.29798,0.04895 -0.44718,0.06987c-1.96146,0.35173 -3.60578,0.70109 -4.93299,1.04809c-0.57761,0.13975 -1.47198,0.37731 -2.6831,0.7127l-4.80723,1.34155c-1.74215,0.10248 -3.43307,0.24222 -5.07274,0.41924c-4.22029,0.43787 -9.40483,1.32758 -15.55359,2.66913c-4.58362,1.02479 -8.02601,1.77943 -10.32714,2.26386c-3.22344,0.69873 -6.08821,1.26236 -8.59431,1.69091c-0.02794,-0.00931 -0.04658,-0.01398 -0.05591,-0.01398c-0.14906,-0.07453 -0.3447,-0.13042 -0.58693,-0.1677c-0.00931,0 -0.20031,-0.01863 -0.57295,-0.05591c-0.38197,-0.02794 -0.94094,-0.10715 -1.67694,-0.23757c-1.28565,-0.26086 -2.37565,-0.54966 -3.27002,-0.86643c-1.15522,-0.4006 -2.1381,-0.91767 -2.94862,-1.55117c-0.42855,-0.33539 -1.08534,-0.97822 -1.9704,-1.92848l-0.69873,-0.7686c-0.21427,-0.26086 -0.34004,-0.42389 -0.37731,-0.4891c-0.12111,-0.19564 -0.21894,-0.48445 -0.29346,-0.86643l0.1677,-0.09782c0.26086,0.39128 0.7453,0.74997 1.45334,1.07603z" fill="#77a7b5"/></g><path d="M176.69092,124.78247c-3.78244,-0.65215 -7.60213,-0.70339 -11.45908,-0.15372c-3.84764,0.54966 -7.49963,1.66297 -10.95599,3.3399c0.70804,-0.73599 1.52322,-1.35552 2.44553,-1.85861c0.94094,-0.50309 2.17071,-0.93629 3.68927,-1.29962c4.98423,-1.22043 10.04299,-1.46267 15.17629,-0.72667c0.68009,0.10248 1.04809,0.33539 1.10398,0.69873M175.75463,127.24198c0.58693,0.22358 0.95492,0.34936 1.10398,0.37731c0.05591,0.00931 0.20962,0.02794 0.46116,0.05591c0.18633,0.01863 0.33539,0.04658 0.44718,0.08385c0.11179,0.03726 0.24222,0.10248 0.39128,0.19564c0.07453,0.04658 0.19098,0.12111 0.34936,0.22358c0.66146,0.42855 1.39745,0.59158 2.20797,0.4891c0.12111,0.19564 0.13042,0.39128 0.02794,0.58693c-0.18633,-0.06522 -0.44252,-0.12111 -0.7686,-0.1677c-0.40991,-0.04658 -0.66612,-0.08385 -0.7686,-0.11179c-0.25155,-0.05591 -0.6568,-0.20496 -1.21579,-0.44718c-1.01548,-0.41924 -1.95177,-0.71736 -2.80886,-0.89437c-0.30743,-0.07453 -0.66612,-0.13509 -1.07603,-0.18166c-0.61488,-0.07453 -1.54651,-0.11179 -2.7949,-0.11179c-1.11795,0 -1.92848,0.01398 -2.43156,0.04192c-0.90368,0.05591 -1.70489,0.17701 -2.40361,0.36334c-0.67077,0.20496 -1.17851,0.33539 -1.52322,0.39128c-0.20496,0.03726 -0.49842,0.06987 -0.88039,0.09782c-0.4006,0.02794 -0.68941,0.05591 -0.86643,0.08385c-0.4006,0.06522 -1.06672,0.24688 -1.99834,0.545l-2.75298,0.93629c-0.08385,0.14906 -0.3121,0.28415 -0.68475,0.40527c-2.48746,0.72667 -4.66747,2.00301 -6.54006,3.82901c-0.19564,-0.20496 -0.15837,-0.5124 0.11179,-0.92231c0.52171,-0.76394 1.25304,-1.44403 2.19399,-2.04027c0.72667,-0.46582 1.63967,-0.90833 2.739,-1.32758c1.33224,-0.5124 3.29798,-1.12727 5.89724,-1.84463c0.57761,-0.1677 1.01083,-0.27018 1.29962,-0.30743c0.30743,-0.04658 0.7686,-0.09782 1.38347,-0.15372c0.28881,-0.04658 0.7453,-0.15372 1.3695,-0.32142c0.59625,-0.15837 1.0574,-0.2562 1.38347,-0.29346c0.27018,-0.02794 0.68475,-0.04192 1.24373,-0.04192l3.25605,0.01398c0.82915,0.00931 1.44403,0.03261 1.84463,0.06987c0.68941,0.06522 1.29031,0.19098 1.8027,0.37731z" fill="#000000"/></g></g></svg>