<svg version="1.1" xmlns="http://www.w3.org/2000/svg" xmlns:xlink="http://www.w3.org/1999/xlink" width="40.68358" height="82.21195" viewBox="0,0,40.68358,82.21195"><g transform="translate(-259.14961,-141.46515)"><g data-paper-data="{&quot;isPaintingLayer&quot;:true}" fill-rule="nonzero" stroke="none" stroke-width="1" stroke-linecap="butt" stroke-linejoin="miter" stroke-miterlimit="10" stroke-dasharray="" stroke-dashoffset="0" style="mix-blend-mode: normal"><path d="M290.53319,218.44139l-0.2,0.1626c0.4194,-0.72861 0.48607,-0.78281 0.2,-0.1626M290.58319,217.83166c0.71133,-0.65028 1.37799,-1.32776 2,-2.03244c-0.21068,0.36976 -0.42734,0.7356 -0.65,1.09752l-0.95,0.77233l-0.4,0.1626M289.73319,218.56334l-0.15,0.24389l-0.2,0.04065c0.11445,-0.09315 0.23112,-0.188 0.35,-0.28454z" data-paper-data="{&quot;index&quot;:null}" fill="#4fe7da"/><path d="M283.98319,222.22174l-0.1,0.0813l4.15,-2.39828c-0.88229,0.64287 -1.81562,1.2526 -2.8,1.8292c-0.57422,0.33556 -1.14089,0.63366 -1.7,0.89428c-0.20039,0.06574 -0.38372,0.13348 -0.55,0.20324c-3.50495,1.35327 -6.97161,1.08228 -10.4,-0.81298c-5.06667,-2.81833 -8.35,-6.67997 -9.85,-11.58493c-3.26667,-10.8126 -4.3,-21.7878 -3.1,-32.9256c1.2,-11.0294 4.6,-21.59811 10.2,-31.70613c0.96328,-1.74695 2.37995,-3.18321 4.25,-4.30878c1.92448,-0.08479 3.97448,0.02361 6.15,0.32519l0.5,0.77233c0.56667,0 1.05,0.0813 1.45,0.24389c0.4,0.1355 0.68333,0.43359 0.85,0.89428l3.3,1.86985l0.45,0.77233l0.95,0.36584c0.2,0.37939 0.48333,0.75878 0.85,1.13817c2.03333,2.08665 3.45,4.36298 4.25,6.82901l1.4,1.50401c0.1,1.02977 0.3,1.95115 0.6,2.76412c2.6,7.2897 4.26667,15.09429 5,23.41376c-0.43333,4.20039 -0.8,8.25172 -1.1,12.15402c-0.62826,8.12141 -2.67826,15.20787 -6.15,21.25937c-0.62201,0.70469 -1.28867,1.38217 -2,2.03244l-0.55,0.20324l-0.3,0.52844c-0.11888,0.09654 -0.23555,0.19139 -0.35,0.28454l-1.2,0.32519c-0.06667,0.48779 -0.38333,0.74523 -0.95,0.77233c-0.13333,0 -0.28333,0 -0.45,0l-0.45,0.77233l-1.9,0.73168l-0.45,0.77233M275.03319,206.44997l0.2,-0.32519c3.66667,-3.06222 5.16667,-7.30325 4.5,-12.7231c-0.3,-2.38473 -1.03333,-4.55268 -2.2,-6.50382c-2.86667,-4.82367 -5.81667,-4.30878 -8.85,1.54466c-3.36667,8.45497 -1.25,14.45745 6.35,18.00746z" data-paper-data="{&quot;index&quot;:null}" fill="#000000"/><path d="M279.73319,193.40168c0.66667,5.41985 -0.83333,9.66088 -4.5,12.7231l-0.2,0.32519c-7.6,-3.55001 -9.71667,-9.55249 -6.35,-18.00746c3.03333,-5.85344 5.98333,-6.36832 8.85,-1.54466c1.16667,1.95115 1.9,4.11909 2.2,6.50382z" data-paper-data="{&quot;index&quot;:null}" fill="#ffffff"/></g></g></svg>