<svg version="1.1" xmlns="http://www.w3.org/2000/svg" xmlns:xlink="http://www.w3.org/1999/xlink" width="75.77056" height="97.81588" viewBox="0,0,75.77056,97.81588"><g transform="translate(-202.11472,-131.09206)"><g data-paper-data="{&quot;isPaintingLayer&quot;:true}" fill-rule="nonzero" stroke="none" stroke-width="1" stroke-linecap="butt" stroke-linejoin="miter" stroke-miterlimit="10" stroke-dasharray="" stroke-dashoffset="0" style="mix-blend-mode: normal"><path d="M263.38011,139.80206c2.26667,1.66667 4.13333,3.4 5.6,5.2c1.7,2.16667 3.31667,5.25 4.85,9.25c2.8,7.43333 4.15,14.53333 4.05,21.3c-0.03333,2.63333 -0.3,5.46667 -0.8,8.5c-1.3,8.56667 -3.71667,16.8 -7.25,24.7c-1.8,3.96667 -3.61667,6.96667 -5.45,9c-1.7,1.83333 -4.08333,3.63333 -7.15,5.4c-6.66667,3.73333 -13.46667,5.65 -20.4,5.75c-3.66667,0.06667 -7.18333,-0.43333 -10.55,-1.5c-3.53333,-1.06667 -6.7,-2.66667 -9.5,-4.8c-5.03333,-3.8 -8.81667,-9.15 -11.35,-16.05c-1.96667,-5.46667 -3.06667,-11.98333 -3.3,-19.55c-0.06667,-3.56667 0.08333,-6.51667 0.45,-8.85c0.23333,-1.7 0.78333,-4.13333 1.65,-7.3c1.53333,-5.76667 2.81667,-10.08333 3.85,-12.95c1.73333,-4.7 3.75,-8.68333 6.05,-11.95c2.6,-3.7 5.93333,-7.1 10,-10.2c2.26667,-1.76667 4.3,-2.93333 6.1,-3.5c1.3,-0.46667 3.5,-0.8 6.6,-1c4.23333,-0.26667 7.4,-0.2 9.5,0.2c2.7,0.5 6.21667,1.95 10.55,4.35c2.66667,1.46667 4.83333,2.8 6.5,4M254.33011,153.60206c-0.8,2 -1.38333,4.63333 -1.75,7.9c-0.36667,3.36667 -0.18333,6.1 0.55,8.2c0.56667,1.76667 1.51667,3.31667 2.85,4.65c1.03333,1.03333 2.21667,1.78333 3.55,2.25c1.43333,0.5 2.76667,0.53333 4,0.1c1.8,-0.6 3.28333,-2.1 4.45,-4.5c1.56667,-3.2 2.2,-7.35 1.9,-12.45c-0.16667,-3.73333 -0.95,-6.63333 -2.35,-8.7c-0.93333,-1.3 -2.08333,-2.28333 -3.45,-2.95c-1.5,-0.66667 -2.96667,-0.8 -4.4,-0.4c-2.3,0.66667 -4.08333,2.63333 -5.35,5.9z" fill="#000000"/><path d="M267.53011,151.05206c1.4,2.06667 2.18333,4.96667 2.35,8.7c0.3,5.1 -0.33333,9.25 -1.9,12.45c-1.16667,2.4 -2.65,3.9 -4.45,4.5c-1.23333,0.43333 -2.56667,0.4 -4,-0.1c-1.33333,-0.46667 -2.51667,-1.21667 -3.55,-2.25c-1.33333,-1.33333 -2.28333,-2.88333 -2.85,-4.65c-0.73333,-2.1 -0.91667,-4.83333 -0.55,-8.2c0.36667,-3.26667 0.95,-5.9 1.75,-7.9c1.26667,-3.26667 3.05,-5.23333 5.35,-5.9c1.43333,-0.4 2.9,-0.26667 4.4,0.4c1.36667,0.66667 2.51667,1.65 3.45,2.95z" fill="#ffffff"/></g></g></svg>