<svg version="1.1" xmlns="http://www.w3.org/2000/svg" xmlns:xlink="http://www.w3.org/1999/xlink" width="71.53174" height="95.38857" viewBox="0,0,71.53174,95.38857"><g transform="translate(-204.23413,-132.30571)"><g data-paper-data="{&quot;isPaintingLayer&quot;:true}" fill-rule="nonzero" stroke="none" stroke-width="1" stroke-linecap="butt" stroke-linejoin="miter" stroke-miterlimit="10" stroke-dasharray="" stroke-dashoffset="0" style="mix-blend-mode: normal"><path d="M268.03083,147.64429c2.66667,3.63333 4.56667,7.66667 5.7,12.1c0.43333,1.7 0.68333,3.11667 0.75,4.25c0.03333,0.43333 0.03333,1.05 0,1.85c0.03333,0.73333 0.08333,1.35 0.15,1.85c0.1,0.7 0.31667,1.75 0.65,3.15c0.26667,1.3 0.31667,2.61667 0.15,3.95c0.93333,9.73333 -0.08333,18.51667 -3.05,26.35c-2.13333,5.73333 -5.28333,10.73333 -9.45,15c-4.4,4.46667 -9.36667,7.53333 -14.9,9.2c-2.56667,0.76667 -6.58333,1.41667 -12.05,1.95c-2.46667,0.26667 -4.38333,0.4 -5.75,0.4c-2.1,-0.03333 -3.96667,-0.31667 -5.6,-0.85c-1.43333,-0.46667 -2.91667,-1.21667 -4.45,-2.25c-0.96667,-0.66667 -2.3,-1.7 -4,-3.1c-2.7,-2.3 -4.55,-4.16667 -5.55,-5.6c-1.06667,-1.53333 -2.03333,-3.71667 -2.9,-6.55c-0.23333,-0.73333 -0.45,-1.5 -0.65,-2.3c-2.76667,-11.13333 -3.51667,-21.76667 -2.25,-31.9c0.56667,-4.56667 1.53333,-8.88333 2.9,-12.95c0.53333,-1.56667 1.11667,-3.08333 1.75,-4.55c2.53333,-5.83333 5.88333,-10.76667 10.05,-14.8c4.43333,-4.33333 9.6,-7.38333 15.5,-9.15c6.16667,-1.8 12.05,-1.85 17.65,-0.15c0.8,0.23333 1.51667,0.5 2.15,0.8c0.2,0.03333 0.41667,0.08333 0.65,0.15c0.9,0.26667 1.81667,0.8 2.75,1.6c0.6,0.53333 1.35,1.33333 2.25,2.4l4.35,5.2c1.46667,1.73333 2.53333,3.05 3.2,3.95M250.53083,163.99429c0.53333,4.16667 2.3,7.41667 5.3,9.75c1.23333,1 2.5,1.6 3.8,1.8c1.6,0.23333 2.9,-0.15 3.9,-1.15c1.06667,-1.03333 1.56667,-2.86667 1.5,-5.5c-0.13333,-7.4 -1.56667,-13.08333 -4.3,-17.05c-1.13333,-1.63333 -2.33333,-2.5 -3.6,-2.6c-1.76667,-0.13333 -3.28333,1.1 -4.55,3.7c-1.8,3.66667 -2.48333,7.35 -2.05,11.05z" fill="#000000"/><path d="M260.73083,151.84429c2.73333,3.96667 4.16667,9.65 4.3,17.05c0.06667,2.63333 -0.43333,4.46667 -1.5,5.5c-1,1 -2.3,1.38333 -3.9,1.15c-1.3,-0.2 -2.56667,-0.8 -3.8,-1.8c-3,-2.33333 -4.76667,-5.58333 -5.3,-9.75c-0.43333,-3.7 0.25,-7.38333 2.05,-11.05c1.26667,-2.6 2.78333,-3.83333 4.55,-3.7c1.26667,0.1 2.46667,0.96667 3.6,2.6z" fill="#ffffff"/></g></g></svg>