<svg version="1.1" xmlns="http://www.w3.org/2000/svg" xmlns:xlink="http://www.w3.org/1999/xlink" width="202.07487" height="203.73871" viewBox="0,0,202.07487,203.73871"><g transform="translate(-125.93759,-87.28356)"><g data-paper-data="{&quot;isPaintingLayer&quot;:true}" fill-rule="nonzero" stroke-linecap="butt" stroke-linejoin="miter" stroke-miterlimit="10" stroke-dasharray="" stroke-dashoffset="0" style="mix-blend-mode: normal"><path d="M290.33514,145.34115c-7.05279,1.7632 -13.08886,-2.04457 -19.95231,-2.30105c-10.03104,-0.37485 -21.21595,-0.26033 -30.98184,-2.73656c-13.16482,-3.33807 -26.50323,-8.35321 -39.08709,-13.51867c-1.86159,-0.76415 -3.89444,-1.57032 -5.94552,-2.46394c-2.97212,4.83869 -8.21609,8.50999 -11.921,12.71049c-3.04949,3.4574 -5.92458,7.07449 -8.83228,10.72192c-3.76119,4.71807 -6.39036,19.74431 -7.7342,25.79162c-0.10105,0.45474 -0.20404,0.90903 -0.30868,1.36292c-1.07934,1.59653 -1.70964,3.52154 -1.70964,5.59376c0,0.38426 0.02167,0.76346 0.06386,1.13644c-0.9883,3.90014 -1.99858,7.7887 -2.85332,11.69752c0.53858,2.41358 1.80537,4.8947 2.08624,7.14166c0.51495,4.1196 0.99717,8.02541 1.90188,12.04873c0.14313,0.63649 3.07277,3.18253 3.54289,3.65266c3.22417,3.22417 6.83707,5.6749 10.12411,8.77751c2.06212,1.94642 4.3174,3.76979 6.02511,6.04674c0.47094,0.62792 1.67421,3.08736 2.45826,3.28201c9.1297,2.26657 18.04401,5.25774 27.14615,7.62291c8.08204,2.1001 17.72627,3.1732 26.08308,2.90538c2.87376,-0.0921 5.60678,-2.15914 8.23514,-3.03526c2.87971,-0.9599 5.90016,-1.4661 8.65189,-2.68061c4.09681,-1.80818 8.85882,-5.41493 13.5133,-9.21899c-0.33366,0.20863 -0.66596,0.41961 -0.99702,0.63193c4.11358,-4.69916 7.79498,-9.78831 11.70748,-15.63527c2.95996,-4.42344 4.55797,-9.60748 7.39917,-14.12218c3.40314,-5.40763 8.98263,-11.17615 10.73686,-17.26021c1.68693,-5.85064 2.07209,-11.09245 2.74274,-17.12829c0.19739,-1.77654 -0.55655,-4.14559 0.9375,-5.63964c3.14098,-3.14098 5.54203,-4.30881 8.13279,-3.50349l0.00002,-0.51558l-0.33225,-1.329l-0.20777,-0.41553l-0.13232,0.04726l-0.22728,-0.11364l-0.29275,0.07319h-1.13379l-3.75,-0.9375l-1.02273,-1.78977l-1.78977,-1.02273l-0.9375,-3.75v-1.13379l0.24574,-0.98297l-1.77519,-0.35504l-0.90533,-0.42884l-0.9779,-0.21731l-0.27912,-0.13956l-1.76192,-0.58731l-0.33298,-0.2119l-0.0399,0.01088l-0.18651,-0.11191l-0.42299,-0.094l-0.07983,-0.03991c-1.40303,0.96646 -3.01415,1.71259 -4.82349,2.16492zM320.45772,214.61108c2.35031,8.6178 -10.24015,20.71996 -16.43015,26.20617c-7.93989,7.03713 -16.36372,13.78131 -25.11004,19.85627c-2.23361,5.77094 -6.04192,12.53088 -11.90465,14.56155c-5.85126,2.02669 -11.47938,4.02324 -17.857,4.10106c-0.41474,0.00506 -0.83183,0.04935 -1.25082,0.12224l-0.38016,0.19008l-0.68547,0.15233l-0.60823,0.3509l-1.97527,0.56436l-0.88825,0.44413l-0.80629,0.17918l-0.72879,0.38869l-1.23228,0.30807l-4.0528,1.35093l-1.39536,0.55815l-1.98855,0.99427l-0.52697,0.1171l-0.45543,0.28982l-1.76192,0.58731l-1.79084,0.89542l-0.52697,0.1171l-0.45543,0.28982l-1.76192,0.58731l-0.27912,0.13956l-0.52697,0.1171l-0.45543,0.28982l-2.8957,0.96523l-0.59728,0.29864l-0.0418,0.07314l-0.20898,0.05225l-0.18692,0.09346l-1.68226,0.37384l-1.67184,0.41796h-0.20898l-0.01363,0.00303l-0.60388,0.15097h-0.92329l-0.89572,0.22393h-9.07029l-0.72471,-0.18118l-0.74616,0.03553l-1.16142,-0.23228h-3.41457l-0.72471,-0.18118l-0.74616,0.03553l-1.16142,-0.23228h-1.52493l-0.5237,-0.13093l-0.53696,0.05555l-4.76335,-0.68048h-1.73457l-0.60814,-0.15203l-0.62486,0.04999l-2.26757,-0.37793l-0.11386,-0.0495l-0.12402,0.00591l-5.66893,-1.13379l-0.90533,-0.42884l-0.9779,-0.21731l-0.77534,-0.38767l-0.71301,-0.17825l-0.25948,-0.13839l-0.29321,-0.02255l-2.26757,-0.75586l-0.84515,-0.53782l-0.9434,-0.33693l-0.29809,-0.19872l-0.18094,-0.06031l-0.45543,-0.28982l-0.15496,-0.03444l-5.66893,3.77929l-3.77336,-0.83853l-0.56485,-0.28242l-0.3984,-0.0996l-1.2025,-0.26722l-1.00908,-0.07762l-3.40136,-1.13379l-0.45543,-0.28982l-0.52697,-0.1171l-0.90703,-0.45351l-1.36054,-0.30234l-0.18692,-0.09346l-0.20898,-0.05225l-0.0418,-0.07314l-1.07402,-0.53701l-0.35983,-0.30843l-0.44632,-0.1594l-0.74528,-0.49685l-0.33822,-0.16911l-0.35983,-0.30843l-0.44632,-0.1594l-1.13379,-0.75586l-0.99054,-1.08959l-1.08959,-0.99054l-3.02343,-4.53515l-0.06151,-0.17222l-0.12931,-0.12931l-1.04196,-1.73661l-1.41272,-2.11908l-0.1594,-0.44632l-0.30843,-0.35983l-0.75586,-1.51172l-0.06904,-0.31067l-0.18633,-0.258l-0.72189,-1.80474l-1.09776,-2.56145l-0.05068,-0.31419l-0.17086,-0.2685l-1.06409,-3.19227l-0.674,-1.68501l-0.05275,-0.38684l-0.1951,-0.33818l-1.51172,-5.29101l-0.01438,-0.43149l-0.17214,-0.39593l-0.32869,-1.97213l-0.68321,-2.73285v-0.24979l-0.10296,-0.22759l-0.75586,-4.15722l0.01998,-0.30638l-0.10374,-0.28898l-0.35349,-3.53487l-0.71548,-4.29285l0.02003,-0.25034l-0.08485,-0.23637l-0.37383,-3.73829l-0.37338,-3.36041l0.05656,-0.41852l-0.10243,-0.40972v-7.55858l0.09237,-0.36946l-0.05514,-0.37682l0.34071,-3.40708v-1.89351l0.13093,-0.5237l-0.05555,-0.53696l0.36863,-2.58038l0.36977,-2.95816l0.02443,-0.0631l-0.00696,-0.0673l0.68048,-4.76335v-9.29314l0.13093,-0.5237l-0.05555,-0.53696l0.30255,-2.11785v-2.11249l0.10243,-0.40972l-0.05656,-0.41852l0.07655,-0.68899c-0.29405,-2.33815 -1.11046,-4.90165 -0.62476,-7.14089c0,-2.87254 0.80745,-5.55649 2.20777,-7.83727c0.24941,-0.40622 0.51762,-0.79966 0.80343,-1.17909l0.33601,-1.42806l0.02456,-0.04763v-0.05359l1.51172,-6.04686l0.2043,-0.38307l0.0493,-0.43134l2.26757,-6.04686l0.13956,-0.20236l0.0435,-0.24194l3.40136,-7.55858l0.09717,-0.1232l0.03404,-0.15317l4.91308,-9.82615l0.17787,-0.20751l0.07815,-0.2619l6.04686,-10.20408l0.14328,-0.14486l0.06853,-0.19188l5.29101,-7.93651l0.12729,-0.11572l0.06505,-0.15926l3.78132,-5.15635l0.47159,-0.94318l0.19138,-0.22328l0.08562,-0.28134l0.98559,-1.64266l0.86546,-1.73092l1.35165,-3.37914l1.39757,-3.84332l1.07199,-3.57331l0.33381,-0.5614l0.04777,-0.21494c1.68336,-0.44545 3.32094,-1.16632 4.75647,-2.02764l2.96896,-1.48448c1.79577,-0.59859 3.33537,-1.6893 4.53507,-3.09826c7.3525,0.47121 14.66192,1.81375 22.03628,2.27286c1.35292,0.08423 2.76423,0.19511 4.1659,0.15263c0.0377,0.00042 0.07544,0.00063 0.11324,0.00063c0.76898,0 1.51769,-0.0868 2.23686,-0.25113c0.26789,-0.05336 0.53394,-0.11648 0.79764,-0.1907c4.66356,1.15898 9.24362,2.50867 13.9394,3.59675c4.42725,1.02586 9.0233,3.34131 13.41508,1.86768c0.82407,-0.27651 1.92839,-0.00488 2.52981,-0.63245c0.69609,-0.72636 1.15738,-1.62446 1.59099,-2.54537l0.04287,0.02287l0.29321,0.02255l2.11297,0.70432l2.48881,0.71109l0.14472,0.08349l0.16658,0.01281l2.26757,0.75586l0.12018,0.07648l0.14153,0.01618l2.5307,0.94901l2.88765,0.6417l0.35216,0.17608l0.39257,0.0302l5.47144,1.82381l3.95638,1.07901l0.10828,0.06074l0.12398,0.00664l4.65598,1.43261l4.65097,1.0733l0.52027,0.26544l0.57872,0.07892l3.77929,1.51172l0.11765,0.08497l0.14296,0.02502l2.96637,1.31839l3.32335,0.997l0.41516,0.24685l0.47577,0.08326l3.35567,1.49141l5.24505,2.24788l0.17955,0.13646l0.22015,0.04892l8.16206,4.08103l3.24568,1.44252l0.40035,0.31277l0.48434,0.15337l4.91308,3.02343l0.24556,0.25114l0.32371,0.1363l3.02343,2.26757l0.15752,0.19387l0.22342,0.11171l2.6455,2.26757l0.1702,0.23982l0.25217,0.1513l2.6455,2.6455l0.47503,0.79172l0.65287,0.65287l1.13379,1.88964l0.98905,3.24973l0.12648,0.18973l-0.02901,0.13055l0.03894,0.12794l-0.11156,0.19887l-0.43377,1.95195l0.91333,1.36999l-0.08017,0.36075l0.03344,0.05851l-0.07599,0.13299l-0.30194,1.35871v0.02002l-0.04003,0.16013l-0.37384,1.68226l-0.07559,0.15117l-0.30234,1.36054l-0.09346,0.18692l-0.05225,0.20898l-0.07314,0.0418l-0.29864,0.59728l-0.01523,0.04569l0.06489,0.09734l0.1594,0.44632l0.30843,0.35983l0.75586,1.51172l0.17918,0.80629l0.38869,0.72879l0.17825,0.71301l0.38767,0.77534l0.17918,0.80629l0.38869,0.72879l0.75586,3.02343v0.92329l0.22393,0.89572v0.20898l0.3379,1.52054l0.41796,1.67184v0.20898l0.04673,0.21028l-0.04673,0.07009v1.23285l0.154,0.61599v0.92329l0.22393,0.89572v0.76907l0.23228,1.16142l-0.03553,0.74616l0.18118,0.72471v5.29101l-0.29241,1.16963l-0.09247,1.20208l-0.75586,2.26757l-0.28982,0.45543l-0.1171,0.52697l-0.23842,0.47683l-0.64,1.6l-0.35556,0.49231l-0.17682,0.58097l-0.98559,1.64266l-2.89462,5.78924l-0.30843,0.35983l-0.1594,0.44632l-1.25271,1.87906l-1.96019,3.92038l-1.04697,2.44293l-0.31217,0.41076l-0.15022,0.49357l-0.8246,1.37433l-0.53267,1.33167l-0.57949,0.80238l-0.38408,0.91219l-0.53861,0.71815l-0.38746,0.96864l-0.00827,0.01145c3.6693,2.12011 6.49832,5.7893 7.7292,10.30255z" fill="#ffffff" stroke="none" stroke-width="0.5"/><path d="M265.64767,141.04859c6.65308,0.60361 14.92894,0.73444 24.82757,0.39248c4.2685,-0.11008 10.16907,-0.2927 17.70169,-0.54788c3.32376,-1.28468 5.59346,-2.08339 6.80908,-2.39613c1.51283,-0.36544 2.60685,-0.23604 3.28204,0.3882c0.49808,0.46872 0.67324,1.10872 0.52548,1.91999c-0.15207,0.74475 -0.53008,1.35385 -1.13401,1.8273c-0.47736,0.36502 -1.12535,0.67432 -1.94397,0.92788c-0.92057,0.22678 -1.62818,0.38962 -2.12281,0.48854c-2.58461,0.83586 -4.51692,1.42894 -5.79691,1.77926c-1.08257,0.3041 -2.07184,0.50194 -2.96779,0.5935c-0.13825,0.44322 -0.35857,0.90847 -0.66097,1.39575c-0.05789,0.13737 -0.16135,0.34451 -0.3104,0.62141c0.19958,-0.01296 0.39916,-0.02591 0.59874,-0.03887c0.35248,1.31325 0.4812,2.52413 0.38613,3.63262c-0.06092,0.60522 -0.18772,1.48194 -0.38042,2.63017c5.29925,-1.21251 10.69374,-1.72971 16.18348,-1.55163c0.17496,0.12225 0.16912,0.28965 -0.0175,0.50219c-0.19094,0.14601 -0.41622,0.27755 -0.67586,0.39461c-0.48815,0.19871 -0.94887,0.56265 -1.38217,1.09183c-0.0311,0.03542 -0.38232,0.54258 -1.05365,1.52145c-0.0311,0.03542 -0.06113,0.08747 -0.09007,0.15616c-0.82685,1.15599 -1.80986,2.22191 -2.94904,3.19776c-2.69134,2.27913 -5.46474,3.29426 -8.32019,3.04538c-0.60306,-0.02766 -1.22707,-0.12076 -1.87203,-0.27932c-0.08036,0.30585 -0.143,0.62725 -0.18793,0.9642c-0.11665,0.77586 -0.22618,1.91868 -0.32859,3.42849c-0.04278,0.37022 -0.08231,0.79032 -0.1186,1.26033c0.56492,6.64403 0.19459,13.03144 -1.11099,19.16222c-0.02894,0.06869 -0.04018,0.15292 -0.0337,0.25271c-1.52851,6.81333 -4.36659,13.77848 -8.51427,20.89545c-1.05877,1.82378 -2.23701,3.70845 -3.53472,5.65402c-0.80093,0.25648 -1.60002,0.63488 -2.38441,1.14929c-1.19365,0.7828 -2.00535,1.6411 -2.59346,2.57882c-1.28387,0.81536 -2.36922,1.91535 -3.16725,3.21118c-2.57019,1.72486 -4.30448,4.76351 -6.92639,6.02597c-0.87254,0.42013 -1.73289,0.88323 -2.58309,1.37338l2.64277,-4.55828c0.63375,-1.04325 1.54895,-2.63922 2.7456,-4.78792c5.6476,-10.25406 9.43052,-21.18875 11.34877,-32.80408c0.08986,-0.67391 0.18082,-1.33118 0.27284,-1.97182c0.33916,-2.49388 0.62886,-5.23506 0.8691,-8.22357c0.45714,-5.30743 0.66481,-10.59866 0.623,-15.8737c-0.01728,-0.26611 -0.01791,-0.53329 -0.00193,-0.80156c-0.02242,-2.4036 -0.10749,-4.48579 -0.25519,-6.24659c-0.00648,-0.09979 -0.01296,-0.19958 -0.01943,-0.29937c-0.15506,-1.35948 -0.35245,-2.5993 -0.59219,-3.71945c-0.15464,-0.32399 -0.35119,-0.77889 -0.58964,-1.36467c-0.31146,-0.68125 -0.48985,-1.37115 -0.5352,-2.06968c-2.04721,0.36672 -3.78274,0.64641 -5.20658,0.83905c-11.61712,1.65604 -24.61722,1.04692 -39.0003,-1.82738c-9.16983,-1.80977 -21.9109,-5.37522 -38.2232,-10.69635c-1.36508,-0.44584 -2.62822,-0.86489 -3.7894,-1.25716c-1.94783,-0.67524 -3.65851,-1.29906 -5.13201,-1.87148c-1.5422,-0.60136 -2.84723,-1.1513 -3.9151,-1.64984c-0.12873,0.07517 -0.25639,0.16696 -0.38296,0.27539c-1.61869,1.30761 -3.38427,2.92538 -5.29672,4.85332c-0.56635,0.53782 -1.14609,1.12661 -1.73923,1.76638c-0.56203,0.60435 -1.12298,1.22532 -1.68285,1.86293c-0.31535,0.2877 -0.59637,0.58987 -0.84305,0.90652l-0.04666,0.05313c-0.1512,0.24364 -0.31795,0.50499 -0.50026,0.78405c-0.03326,0.00216 -0.06545,0.02095 -0.09655,0.05637c-0.49118,0.66655 -0.98129,1.34973 -1.47032,2.04955c-0.18662,0.21254 -0.35445,0.45725 -0.5035,0.73416c-0.43114,0.56244 -0.84457,1.14044 -1.24028,1.73399c-0.82253,1.22252 -1.6118,2.44287 -2.36781,3.66108c-0.12441,0.14169 -0.21556,0.28123 -0.27346,0.41859c-1.99888,3.16948 -3.80941,6.41024 -5.43159,9.72228c-1.56895,3.09303 -2.98463,6.24136 -4.24707,9.44497c-0.37436,0.98883 -0.74524,1.9649 -1.11264,2.92823c-0.02217,0.08719 -0.04641,0.17258 -0.0727,0.25615c-0.46632,1.1171 -0.77882,2.33401 -0.93915,3.57006c-1.21537,1.65582 -1.9332,3.69959 -1.9332,5.91103c0,0.10983 0.00177,0.21925 0.00528,0.32823c-2.16112,6.7333 -2.94025,14.6157 -2.33738,23.6472c0.0125,0.18385 0.02521,0.36757 0.03814,0.55117c-0.92841,-2.21918 -1.91437,-4.3651 -2.91939,-6.37512c-1.55312,-3.10624 -1.7961,-7.27992 -2.05336,-11.40091c1.83231,-11.12308 5.0688,-21.55203 9.70948,-31.28688c1.6157,-3.41183 3.4042,-6.73467 5.3655,-9.96852c0.1512,-0.24364 0.3024,-0.48728 0.4536,-0.73092c0.4536,-0.73092 0.90937,-1.42858 1.36729,-2.09297c0.88258,-1.32663 1.75609,-2.53576 2.62052,-3.62738c0.51278,-0.33392 0.97459,-0.68124 1.38541,-1.04194c0.18878,-0.17928 0.36093,-0.35746 0.51645,-0.53458c0.16848,0.02246 0.35574,0.07712 0.5618,0.16395c1.00484,-1.50158 1.92392,-2.78047 2.75725,-3.83667c0.27346,-0.41859 0.55015,-0.78729 0.83009,-1.1061c1.32451,-1.72275 2.67645,-3.28027 4.05583,-4.67255c0.59529,-0.60651 1.19275,-1.17975 1.79236,-1.71972c-3.93582,-2.48358 -7.4174,-5.4309 -10.44473,-8.84196c-4.64726,-5.20989 -7.62401,-10.92907 -8.93023,-17.15753c1.86141,1.91677 4.18592,4.02061 6.97351,6.31151c1.62296,1.33099 3.34788,2.68877 5.17474,4.07333c3.49214,3.88193 8.08824,7.27465 13.78831,10.17816c4.59461,2.34061 11.20662,4.88429 19.83601,7.63104c10.6416,3.38441 19.08632,5.85921 25.33417,7.42443z" fill="#000000" stroke="none" stroke-width="1"/><path d="M284.44025,210.89163c-10.26083,21.73276 -35.95373,35.80272 -64.52344,33.172c-34.11129,-3.14099 -59.84289,-28.94054 -58.99332,-58.37175" fill="none" stroke="#000000" stroke-width="4.5"/></g></g></svg>