<svg version="1.1" xmlns="http://www.w3.org/2000/svg" xmlns:xlink="http://www.w3.org/1999/xlink" width="178.7396" height="80.19448" viewBox="0,0,178.7396,80.19448"><g transform="translate(-226.64912,-156.68172)"><g data-paper-data="{&quot;isPaintingLayer&quot;:true}" fill-rule="nonzero" stroke="none" stroke-width="1" stroke-linecap="butt" stroke-linejoin="miter" stroke-miterlimit="10" stroke-dasharray="" stroke-dashoffset="0" style="mix-blend-mode: normal"><path d="M249.5094,159.21681c2.67108,0.38852 5.32759,0.81104 7.96953,1.26755c2.70993,0.49536 5.41501,0.97616 8.11522,1.44238c2.71964,0.49536 5.43443,0.95673 8.14436,1.3841c2.70022,0.4468 5.39558,0.88874 8.08608,1.32583c2.73907,0.43709 5.483,0.84018 8.23178,1.20927c2.7585,0.40795 5.52185,0.79161 8.29006,1.15099c2.74878,0.36909 5.483,0.72848 8.20264,1.07814c2.54481,0.33024 5.09448,0.62649 7.649,0.88874c0.36909,0.03885 0.7479,0.08742 1.13642,0.1457l13.17085,1.47152c1.47638,1.38896 2.55452,3.04017 3.23443,4.95364c0.58278,1.59293 0.31082,3.01589 -0.81589,4.26887c-1.60265,1.76777 -3.44812,3.21501 -5.53642,4.34172c-2.95276,1.60265 -6.07549,2.63223 -9.3682,3.08874l-0.11656,0.43709l-1.6755,0.59735c-4.21545,0.13598 -8.44547,0.15541 -12.69005,0.05828c-3.74922,-0.0777 -7.50816,-0.23311 -11.27681,-0.46622c-2.37969,-0.11656 -4.76909,-0.28653 -7.16821,-0.50993c-2.14658,-0.20397 -4.29801,-0.4468 -6.4543,-0.72848c-1.67064,-0.23311 -3.34613,-0.49051 -5.02649,-0.77218c-1.93289,-0.33996 -3.85607,-0.70905 -5.76953,-1.10728c-3.53554,-0.72848 -7.01765,-1.58808 -10.44635,-2.57881c0.80618,0.33996 1.62207,0.65077 2.44768,0.93245c2.64194,0.99073 5.34701,1.79205 8.11522,2.40397c2.78764,0.63135 5.58013,1.16556 8.37748,1.60265c2.65165,0.40795 5.29359,0.74305 7.92582,1.0053c2.85563,0.3011 5.73068,0.53907 8.62516,0.71391c2.59337,0.17483 5.18675,0.29625 7.78012,0.36424c2.73907,0.10684 5.48785,0.17969 8.24635,0.21854c2.81677,0.04857 5.62869,0.0777 8.43575,0.08742l-0.01457,1.25298l9.64502,1.44238c0.0777,0.81589 0.35938,1.56865 0.84503,2.25828c0.75762,1.16556 1.14128,2.39911 1.15099,3.70066c0.02914,3.02075 -1.12671,5.54128 -3.46755,7.56158c-2.03973,1.76777 -4.31744,3.16644 -6.83311,4.19602c-1.37925,0.56335 -2.78764,0.9713 -4.22516,1.22384c-2.86534,0.46622 -5.5947,1.18984 -8.18807,2.17086c-2.47682,-0.3011 -4.96335,-0.70419 -7.4596,-1.20927c-2.36026,-0.46622 -4.7011,-1.01501 -7.02251,-1.64636c-2.64194,-0.68962 -5.25474,-1.47152 -7.8384,-2.34569c-2.6128,-0.85475 -5.19161,-1.80176 -7.73642,-2.84106c-2.66137,-1.14614 -5.29845,-2.35541 -7.91125,-3.62781c-2.77792,-1.39867 -5.483,-2.9139 -8.11522,-4.54569c-2.9139,-1.79691 -5.73068,-3.71523 -8.45032,-5.75496c0.18455,0.36909 0.39823,0.72362 0.64106,1.06358c1.00044,1.32097 2.19028,2.42825 3.56953,3.32185c2.40883,1.52494 4.82251,2.99647 7.24105,4.41457c2.37969,1.35011 4.78852,2.61766 7.22648,3.80265c2.51567,1.17527 5.05077,2.2777 7.60529,3.30728c2.60309,1.01015 5.25474,1.91832 7.95496,2.7245c2.72936,0.84503 5.47814,1.59779 8.24635,2.25828c2.66137,0.60221 5.35673,1.09757 8.08608,1.48609c2.70993,0.36909 5.41015,0.74305 8.10065,1.12185c2.9139,0.37881 5.78896,0.76733 8.62516,1.16556c0.09713,0.2234 0.1894,0.44194 0.27682,0.65563c0.0777,0.24283 0.04371,0.4468 -0.10199,0.61192c-1.44724,1.70949 -3.26357,3.01103 -5.449,3.90463c-0.20397,-0.03885 -0.40795,-0.09227 -0.61192,-0.16026c-0.94216,-0.3011 -1.44724,-0.04857 -1.51523,0.75762l0.99073,0.49536c-0.91302,1.38896 -2.0543,2.5351 -3.42384,3.43841c-2.43797,1.6415 -5.00706,3.00132 -7.70728,4.07947c-2.67108,1.06843 -5.40529,1.65121 -8.20264,1.74834l-0.78675,-0.20397l-0.05828,0.1894c-0.57307,-0.16512 -1.15585,-0.32539 -1.74834,-0.48079c-3.43841,-1.03929 -6.82825,-2.22914 -10.16953,-3.56953c-10.00441,-4.08918 -19.07636,-9.72273 -27.21587,-16.90065c-2.49624,-2.0883 -4.86136,-4.37086 -7.09536,-6.84768c-0.67991,-0.79647 -1.5298,-1.33068 -2.54967,-1.60265c-0.27196,1.63179 0.07285,3.21986 1.03444,4.76423c1.4958,2.36998 3.30243,4.48741 5.41986,6.35231c2.166,1.95232 4.4437,3.77836 6.83311,5.47814c-0.43709,0.61192 -0.96159,1.13157 -1.57351,1.55894c-2.43797,1.7192 -5.11876,2.02516 -8.04238,0.91788c-1.50552,-1.46667 -2.91876,-3.01103 -4.23973,-4.63311c-0.66049,-0.80618 -1.24327,-1.66578 -1.74834,-2.57881c-0.80618,-1.54437 -1.93775,-2.59337 -3.3947,-3.14702c0.3011,1.73863 0.98587,3.39956 2.0543,4.98278c1.5638,2.36998 3.46269,4.44856 5.69668,6.23576c-1.68035,0.40795 -3.29757,0.16998 -4.85165,-0.71391c-0.11656,-0.06799 -0.23311,-0.13598 -0.34967,-0.20397c-0.03885,-0.04857 -0.08742,-0.08742 -0.1457,-0.11656l-0.01457,0.01457c-0.1457,-0.10684 -0.31082,-0.21369 -0.49536,-0.32053l-0.78675,-0.45166c-0.1457,-0.09713 -0.25254,-0.1117 -0.32053,-0.04371c-0.09713,0.06799 -0.0777,0.19426 0.05828,0.37881c0.15541,0.19426 0.39823,0.37395 0.72848,0.53907c0.17483,0.10684 0.43709,0.25254 0.78675,0.43709c0.03885,0.01943 0.08256,0.03885 0.13113,0.05828c1.75806,1.42781 3.72008,1.76777 5.88609,1.01987l1.13642,1.03444c-0.09713,0.03885 -0.18455,0.05342 -0.26225,0.04371c-0.06799,-0.01943 -0.13598,-0.02914 -0.20397,-0.02914c-0.01943,0.00971 -0.04371,0.01457 -0.07285,0.01457c-1.26269,0.12627 -2.2777,0.14084 -3.04503,0.04371c-1.05872,-0.12627 -2.04459,-0.40795 -2.95761,-0.84503l-0.01457,-0.01457l-0.36424,-0.21854v-0.04371l-0.36424,-0.24768c-0.03885,-0.00971 -0.06313,0 -0.07285,0.02914c0,0.01943 0,0.034 0,0.04371c-0.10684,-0.11656 -0.19426,-0.23311 -0.26225,-0.34967c-1.69978,-2.06887 -3.34128,-4.19117 -4.9245,-6.36688c-1.65121,-2.24371 -2.87991,-4.69139 -3.68609,-7.34304c-0.72848,-2.42825 -1.37439,-4.86622 -1.93775,-7.3139c-0.03885,-0.4468 -0.07285,-0.8936 -0.10199,-1.3404c-0.06605,-0.819 -0.12255,-1.63856 -0.16951,-2.45868c1.89849,1.10193 3.74347,1.34057 6.27425,1.01555c7.538,-0.96809 13.40983,-9.03392 14.25442,-16.33839c0.24722,-2.13812 5.00412,-6.96018 3.20197,-9.6634v-2.54949c-0.41667,-1.66667 -0.03522,-3.78522 -1.25,-5c-3.04261,-3.04261 -5.37731,-4.61827 -7.60838,-4.94251c-0.09066,-0.11322 -0.19788,-0.21051 -0.32881,-0.28533c-0.31598,-0.18056 -0.6567,-0.34166 -1.01801,-0.48334c0.95279,-0.58288 1.96924,-1.06422 3.04935,-1.44404c1.90375,0.78675 3.87549,1.33068 5.91523,1.63179z" fill="#ffffff"/><path d="M333.10932,193.42605l-0.13113,0.90331c0.16512,0.21369 0.3351,0.42737 0.50993,0.64106c1.60265,2.166 2.58366,4.59911 2.94304,7.29933c0.37881,2.92362 -0.58278,5.36158 -2.88477,7.3139c-2.20485,1.8649 -4.69624,3.15673 -7.47417,3.87549l-6.9788,0.45166c1.24327,-0.25254 2.47682,-0.6362 3.70066,-1.15099c2.49624,-1.03929 4.74481,-2.49624 6.74569,-4.37086c2.03973,-1.9426 3.23929,-4.35143 3.59867,-7.22648c0.31082,-2.9139 -0.37881,-5.5947 -2.06887,-8.04238l2.03973,0.30596z" fill="#ffffff"/><path d="M327.2378,192.52274c1.82605,2.22428 2.74878,4.73995 2.76821,7.54701c0,2.42825 -0.81104,4.50198 -2.43311,6.22119c-1.93289,2.03002 -4.13774,3.68123 -6.61456,4.95364c-0.36909,0.19426 -0.7479,0.3011 -1.13642,0.32053c-2.33112,0.13598 -4.40485,0.79161 -6.22119,1.96689v0.40795l-5.14304,-0.21854l0.01457,-0.11656c0.50508,-0.11656 1.01015,-0.24768 1.51523,-0.39338c2.68079,-0.73819 5.27902,-1.65607 7.79469,-2.75364c2.33112,-1.00044 4.43885,-2.31655 6.32317,-3.94834c2.13686,-1.84547 3.43841,-4.13289 3.90463,-6.86225c0.46622,-2.71964 -0.24283,-5.16247 -2.12715,-7.32847z" fill="#ffffff"/><path d="M336.0815,171.4115l2.9139,0.30596l-0.08742,0.64106c1.14614,0.92274 1.93775,2.05916 2.37483,3.40927c0.8936,2.79735 0.15541,5.10905 -2.21457,6.93509c-2.36998,1.82605 -4.97306,3.16644 -7.80926,4.02119l0.05828,0.84503l-3.30728,0.16026l0.01457,-0.10199c1.48609,-0.33996 2.87991,-0.89845 4.18145,-1.6755c2.58366,-1.48609 4.26887,-3.63752 5.05562,-6.4543c0.77704,-2.76821 0.36909,-5.34216 -1.22384,-7.72185z" fill="#ffffff"/><path d="M293.68419,232.37038c1.43753,-0.12627 2.85563,-0.44194 4.2543,-0.94702c2.70993,-0.99073 5.33245,-2.12229 7.86754,-3.3947c2.44768,-1.22384 4.35629,-3.02075 5.72582,-5.39072l1.10728,0.42252l-0.34967,1.89404c-1.02958,0.72848 -1.95232,1.56865 -2.76821,2.52053c-1.89404,2.24371 -4.2543,3.70066 -7.08079,4.37086c-2.09801,0.48565 -4.19602,0.85475 -6.29403,1.10728l-2.46225,-0.58278z" fill="#ffffff"/><path d="M308.15172,231.51078c0.91302,-0.58278 1.85519,-1.15585 2.82649,-1.7192c2.35055,-1.39867 3.79779,-3.34128 4.34172,-5.82781l1.89404,0.5245c-0.46622,2.95276 -1.93775,5.24988 -4.41457,6.89138c-2.06887,1.35011 -4.29315,2.28256 -6.67284,2.79735c-0.46622,0.11656 -0.93245,0.23311 -1.39867,0.34967l-2.84106,-0.45166l0.02914,-0.24768c2.24371,-0.34967 4.32229,-1.12185 6.23576,-2.31655z" fill="#ffffff"/><path d="M330.06429,170.75587l1.61722,0.17483c0.16512,0.66049 0.47594,1.25784 0.93245,1.79205c2.19514,2.39911 2.50596,4.98278 0.93245,7.75099c-1.45695,2.51567 -3.54039,4.23487 -6.25033,5.15761c-2.30198,0.78675 -4.56997,1.60265 -6.80397,2.44768l-3.17616,0.10199c2.07859,-0.76733 4.16203,-1.52494 6.25033,-2.27285c2.74878,-1.01015 5.24988,-2.4234 7.5033,-4.23973c1.12671,-0.92274 1.79691,-2.09315 2.01059,-3.51125c0.42737,-3.07903 -0.57792,-5.54613 -3.01589,-7.40132z" fill="#ffffff"/><path d="M256.60475,219.92801c-0.21369,1.03929 -0.70905,1.88432 -1.48609,2.5351c-0.01943,0.00971 -0.04857,0.034 -0.08742,0.07285c-0.20397,0.17483 -0.43223,0.3351 -0.68477,0.48079c-0.13598,0.06799 -0.28168,0.13598 -0.43709,0.20397c-0.33996,0.1457 -0.74305,0.29139 -1.20927,0.43709c-0.47594,0.15541 -0.86446,0.24768 -1.16556,0.27682c-0.18455,0.01943 -0.46622,0.02428 -0.84503,0.01457c-0.12627,0 -0.24283,0.00971 -0.34967,0.02914c-0.25254,0.17483 -0.47108,0.38852 -0.65563,0.64106l-3.13245,-2.37483l1.20927,0.27682c0.23311,0.05828 0.47108,0.09227 0.71391,0.10199c3.03046,0.1457 5.36644,-1.02472 7.00794,-3.51125l1.12185,0.81589z" fill="#ffffff"/><path d="M318.3941,222.39026c0.19426,-0.08742 0.38852,-0.17483 0.58278,-0.26225c2.55452,-1.01015 3.83178,-2.8022 3.83178,-5.37615l1.98146,0.24768c-0.1457,2.73907 -1.54923,4.48256 -4.21059,5.23046c-0.32053,0.10684 -0.64592,0.19426 -0.97616,0.26225z" fill="#ffffff"/><path d="M241.10278,225.78496l-0.75762,-0.77218l0.87417,0.45166c0.12627,0.01943 0.25739,0.04371 0.39338,0.07285c1.89404,0.59249 3.5841,0.34967 5.07019,-0.72848l1.5298,1.48609c-1.77748,1.8649 -3.79779,1.93289 -6.06092,0.20397c-0.33024,-0.27196 -0.67991,-0.50993 -1.04901,-0.71391z" fill="#ffffff"/><path d="M260.05773,222.43397c-0.88388,2.3117 -2.50596,3.52097 -4.86622,3.62781c-0.0777,0.00971 -0.15541,0.01457 -0.23311,0.01457c-0.24283,-0.01943 -0.55364,-0.01943 -0.93245,0c-0.56335,0.02914 -0.9713,0.034 -1.22384,0.01457c-0.18455,-0.01943 -0.29625,0 -0.3351,0.05828c-0.05828,0.05828 -0.0777,0.13113 -0.05828,0.21854c-0.00971,0.01943 -0.00971,0.03885 0,0.05828l-0.58278,-0.34967l0.16026,-0.26225c0.13598,0.01943 0.27196,0.02914 0.40795,0.02914c3.17616,-0.05828 5.26931,-1.52494 6.27946,-4.4l1.3841,0.99073z" fill="#ffffff"/><path d="M320.04045,217.39291c-0.78675,2.36026 -2.55452,3.80265 -5.30331,4.32715l-0.65563,-0.37881c0.31082,-0.15541 0.61678,-0.28653 0.91788,-0.39338c2.36026,-0.90331 3.51125,-2.49139 3.45298,-4.76423l1.61722,0.20397z" fill="#ffffff"/><path d="M250.57297,229.89356c0.34967,0.93245 0.45651,1.87947 0.32053,2.84106c-1.14614,-0.37881 -2.24856,-0.84989 -3.30728,-1.41324c-2.50596,-1.40839 -4.6671,-3.25386 -6.48344,-5.53642c0.36909,0.20397 0.71876,0.44194 1.04901,0.71391c2.26313,1.72892 4.28344,1.66093 6.06092,-0.20397c1.07814,1.05872 1.8649,2.25828 2.36026,3.59867M252.40873,226.42602c-0.00971,-0.01943 -0.00971,-0.03885 0,-0.05828c-0.01943,-0.08742 0,-0.16026 0.05828,-0.21854c0.03885,-0.05828 0.15055,-0.0777 0.3351,-0.05828c0.25254,0.01943 0.66049,0.01457 1.22384,-0.01457c0.37881,-0.01943 0.68962,-0.01943 0.93245,0c0.0777,0 0.15541,-0.00486 0.23311,-0.01457c2.36026,-0.10684 3.98234,-1.31611 4.86622,-3.62781c1.61236,1.20441 3.23929,2.39426 4.88079,3.56953c1.90375,1.28212 3.83664,2.54481 5.79867,3.78808c1.95232,1.21413 3.94348,2.36998 5.9735,3.46755c-2.22428,0 -4.46313,-0.15541 -6.71655,-0.46622c-2.68079,-0.38852 -5.29845,-1.01987 -7.85297,-1.89404c-2.72936,-0.92274 -5.38587,-2.07859 -7.96953,-3.46755l-1.36954,-0.78675c-0.11656,-0.02914 -0.20397,-0.05342 -0.26225,-0.07285c-0.04857,-0.02914 -0.09227,-0.0777 -0.13113,-0.1457M245.19682,223.71609c0.0777,0.00971 0.16512,-0.00486 0.26225,-0.04371l1.22384,1.13642c-1.48609,1.07814 -3.17616,1.32097 -5.07019,0.72848c-0.13598,-0.02914 -0.26711,-0.05342 -0.39338,-0.07285l-0.87417,-0.45166l-0.87417,-0.94702c-0.43709,-0.50508 -0.86446,-1.01501 -1.28212,-1.5298c-0.02914,-0.01943 -0.04857,-0.034 -0.05828,-0.04371c-0.01943,-0.00971 -0.02914,-0.02428 -0.02914,-0.04371c0,-0.00971 0,-0.02428 0,-0.04371c0.00971,-0.02914 0.034,-0.03885 0.07285,-0.02914l0.36424,0.24768v0.04371l0.36424,0.21854l0.01457,0.01457c0.91302,0.43709 1.89889,0.71876 2.95761,0.84503c0.76733,0.09713 1.78234,0.08256 3.04503,-0.04371c0.02914,0 0.05342,-0.00486 0.07285,-0.01457c0.06799,0 0.13598,0.00971 0.20397,0.02914M244.32265,222.63794c-2.166,0.7479 -4.12803,0.40795 -5.88609,-1.01987c-0.04857,-0.01943 -0.09227,-0.03885 -0.13113,-0.05828c-0.34967,-0.18455 -0.61192,-0.33024 -0.78675,-0.43709c-0.33024,-0.16512 -0.57307,-0.34481 -0.72848,-0.53907c-0.13598,-0.18455 -0.15541,-0.31082 -0.05828,-0.37881c0.06799,-0.06799 0.17483,-0.05342 0.32053,0.04371l0.78675,0.45166c0.18455,0.10684 0.34967,0.21369 0.49536,0.32053l0.01457,-0.01457c0.05828,0.02914 0.10684,0.06799 0.1457,0.11656c0.11656,0.06799 0.23311,0.13598 0.34967,0.20397c1.55408,0.88388 3.1713,1.12185 4.85165,0.71391l0.62649,0.59735M255.4829,219.11212c-1.6415,2.48653 -3.97748,3.65695 -7.00794,3.51125c-0.24283,-0.00971 -0.48079,-0.04371 -0.71391,-0.10199l-1.20927,-0.27682l-1.22384,-1.06358c2.92362,1.10728 5.60441,0.80132 8.04238,-0.91788c0.61192,-0.42737 1.13642,-0.94702 1.57351,-1.55894l0.53907,0.40795M258.67362,221.44324c-1.01015,2.87505 -3.10331,4.34172 -6.27946,4.4c-0.13598,0 -0.27196,-0.00971 -0.40795,-0.02914l-1.0053,-0.26225l-1.29669,-0.93245c0.18455,-0.25254 0.40309,-0.46622 0.65563,-0.64106c0.10684,-0.01943 0.2234,-0.02914 0.34967,-0.02914c0.37881,0.00971 0.66049,0.00486 0.84503,-0.01457c0.3011,-0.02914 0.68962,-0.12141 1.16556,-0.27682c0.46622,-0.1457 0.86931,-0.29139 1.20927,-0.43709c0.15541,-0.06799 0.3011,-0.13598 0.43709,-0.20397c0.25254,-0.1457 0.48079,-0.30596 0.68477,-0.48079c0.03885,-0.03885 0.06799,-0.06313 0.08742,-0.07285c0.77704,-0.65077 1.2724,-1.4958 1.48609,-2.5351l2.06887,1.51523M320.06959,216.38762l2.73907,0.36424c0,2.57395 -1.27726,4.366 -3.83178,5.37615c-0.19426,0.08742 -0.38852,0.17483 -0.58278,0.26225c-0.57307,-0.08742 -1.15099,-0.16998 -1.73377,-0.24768c-1.65121,-0.20397 -3.28786,-0.52936 -4.90993,-0.97616c2.18543,-0.8936 4.00176,-2.19514 5.449,-3.90463c0.1457,-0.16512 0.17969,-0.36909 0.10199,-0.61192c-0.08742,-0.21369 -0.17969,-0.43223 -0.27682,-0.65563l1.42781,0.1894c0.05828,2.27285 -1.09271,3.86092 -3.45298,4.76423c-0.3011,0.10684 -0.60706,0.23797 -0.91788,0.39338l0.65563,0.37881c2.74878,-0.5245 4.51655,-1.96689 5.30331,-4.32715c0.10684,-0.32053 0.11656,-0.65563 0.02914,-1.0053M319.63251,215.13464l2.5351,-0.04371l0.32053,0.5245l-2.84106,-0.34967l-0.01457,-0.13113M328.37422,217.37834c2.35055,0.26225 4.72538,0.47108 7.1245,0.62649c2.29227,0.1457 4.5894,0.25739 6.89138,0.3351c2.68079,0.13598 5.34701,0.22826 7.99867,0.27682c3.42869,0.08742 6.85253,0.12141 10.27151,0.10199c-0.38852,0.09713 -0.77218,0.1894 -1.15099,0.27682c-2.68079,0.68962 -5.40044,1.27726 -8.15893,1.76291c-2.5351,0.41766 -5.08476,0.76247 -7.649,1.03444c-2.58366,0.31082 -5.17704,0.5585 -7.78012,0.74305c-2.68079,0.20397 -5.35187,0.31567 -8.01324,0.3351c-2.77792,-0.00971 -5.54613,-0.13598 -8.30463,-0.37881c0.33024,-0.06799 0.65563,-0.15541 0.97616,-0.26225c2.66137,-0.7479 4.0649,-2.49139 4.21059,-5.23046c1.18499,0.13598 2.37969,0.26225 3.5841,0.37881M306.12656,234.177c2.37969,-0.51479 4.60397,-1.44724 6.67284,-2.79735c2.47682,-1.6415 3.94834,-3.93863 4.41457,-6.89138c2.76821,0.69934 5.55584,1.24812 8.36291,1.64636c3.08874,0.42737 6.15805,0.69934 9.20794,0.81589c2.89448,0.09713 5.77924,0.10199 8.6543,0.01457c2.78764,-0.08742 5.57041,-0.24768 8.34834,-0.48079c2.73907,-0.21369 5.50242,-0.46137 8.29006,-0.74305c-0.29139,0.1457 -0.5585,0.28168 -0.80132,0.40795c-2.42825,1.25298 -4.92936,2.34084 -7.5033,3.26357c-2.50596,0.88388 -5.05562,1.65121 -7.649,2.30198c-2.5351,0.61192 -5.08962,1.16556 -7.66357,1.66093c-2.6128,0.48565 -5.24017,0.91302 -7.88211,1.28212c-2.59337,0.34967 -5.18189,0.57792 -7.76556,0.68477c-2.60309,0.10684 -5.2256,0.1117 -7.86754,0.01457c-2.74878,-0.15541 -5.48785,-0.43223 -8.21721,-0.83046c0.46622,-0.11656 0.93245,-0.23311 1.39867,-0.34967M309.52126,227.47502c0.81589,-0.95188 1.73863,-1.79205 2.76821,-2.52053l0.34967,-1.89404l2.68079,0.90331c-0.54393,2.48653 -1.99117,4.42913 -4.34172,5.82781c-0.9713,0.56335 -1.91346,1.13642 -2.82649,1.7192c-1.91346,1.1947 -3.99205,1.96689 -6.23576,2.31655l-0.71391,0.11656l-5.05562,-0.99073c2.09801,-0.25254 4.19602,-0.62163 6.29403,-1.10728c2.82649,-0.6702 5.18675,-2.12715 7.08079,-4.37086M311.53185,222.63794c-1.36954,2.36998 -3.27814,4.16688 -5.72582,5.39072c-2.5351,1.2724 -5.15761,2.40397 -7.86754,3.3947c-1.39867,0.50508 -2.81677,0.82075 -4.2543,0.94702l-2.02516,-0.5245l-0.13113,-0.26225l-0.24768,-0.05828c2.79735,-0.09713 5.53156,-0.67991 8.20264,-1.74834c2.70022,-1.07814 5.26931,-2.43797 7.70728,-4.07947c1.36954,-0.90331 2.51081,-2.04945 3.42384,-3.43841l0.91788,0.37881M331.06958,193.12009c1.69006,2.44768 2.37969,5.12847 2.06887,8.04238c-0.35938,2.87505 -1.55894,5.28388 -3.59867,7.22648c-2.00088,1.87461 -4.24944,3.33156 -6.74569,4.37086c-1.22384,0.51479 -2.45739,0.89845 -3.70066,1.15099l-4.74966,0.04371l-0.74305,-0.42252c1.81633,-1.17527 3.89006,-1.8309 6.22119,-1.96689c0.38852,-0.01943 0.76733,-0.12627 1.13642,-0.32053c2.47682,-1.2724 4.68167,-2.92362 6.61456,-4.95364c1.62207,-1.7192 2.43311,-3.79293 2.43311,-6.22119c-0.01943,-2.80706 -0.94216,-5.32273 -2.76821,-7.54701l3.83178,0.59735M332.97819,194.32936l0.13113,-0.90331c1.65121,0.28168 3.30243,0.53907 4.95364,0.77218c2.54481,0.33996 5.08476,0.65563 7.61986,0.94702c3.32185,0.37881 6.65827,0.71391 10.00926,1.0053c2.70993,0.25254 5.41015,0.4468 8.10065,0.58278c2.55452,0.16512 5.09448,0.27682 7.61986,0.3351c3.62295,0.0777 7.22648,0.08256 10.81059,0.01457c-1.10728,0.61192 -2.22428,1.1947 -3.35099,1.74834c-2.39911,1.20441 -4.80309,2.34569 -7.21191,3.42384c-2.29227,1.01015 -4.62825,1.96203 -7.00794,2.85563c-2.40883,0.90331 -4.85165,1.7192 -7.32847,2.44768c-2.49624,0.7479 -5.00706,1.44724 -7.53244,2.09801c-2.51567,0.62163 -5.04105,1.17527 -7.57615,1.66093c-2.51567,0.47594 -5.0362,0.87417 -7.56158,1.1947c-2.8362,0.39823 -5.69668,0.71391 -8.58145,0.94702c2.77792,-0.71876 5.26931,-2.01059 7.47417,-3.87549c2.30198,-1.95232 3.26357,-4.39028 2.88477,-7.3139c-0.35938,-2.70022 -1.3404,-5.13333 -2.94304,-7.29933c-0.17483,-0.21369 -0.34481,-0.42737 -0.50993,-0.64106M324.97952,192.18764l0.90331,0.13113c1.88432,2.166 2.59337,4.60883 2.12715,7.32847c-0.46622,2.72936 -1.76777,5.01677 -3.90463,6.86225c-1.88432,1.63179 -3.99205,2.9479 -6.32317,3.94834c-2.51567,1.09757 -5.1139,2.01545 -7.79469,2.75364c-0.50508,0.1457 -1.01015,0.27682 -1.51523,0.39338l-0.37881,0.10199l-3.83178,-0.40795c2.59337,-0.98101 5.32273,-1.70463 8.18807,-2.17086c1.43753,-0.25254 2.84591,-0.66049 4.22516,-1.22384c2.51567,-1.02958 4.79337,-2.42825 6.83311,-4.19602c2.34084,-2.02031 3.49669,-4.54083 3.46755,-7.56158c-0.00971,-1.30154 -0.39338,-2.5351 -1.15099,-3.70066c-0.48565,-0.68962 -0.76733,-1.44238 -0.84503,-2.25828M327.63117,191.67771c0.49536,-0.10684 0.98587,-0.04857 1.47152,0.17483c0.02914,0.00971 0.05342,0.01943 0.07285,0.02914l-1.54437,-0.20397M333.08018,178.15719c-0.21369,1.4181 -0.88388,2.58852 -2.01059,3.51125c-2.25342,1.81633 -4.75452,3.22958 -7.5033,4.23973c-2.0883,0.7479 -4.17174,1.50552 -6.25033,2.27285l-3.08874,0.08742l1.6755,-0.59735l0.11656,-0.43709c3.29271,-0.45651 6.41545,-1.48609 9.3682,-3.08874c2.0883,-1.12671 3.93377,-2.57395 5.53642,-4.34172c1.12671,-1.25298 1.39867,-2.67594 0.81589,-4.26887c-0.67991,-1.91346 -1.75806,-3.56468 -3.23443,-4.95364l1.55894,0.17483c2.43797,1.85519 3.44326,4.32229 3.01589,7.40132M340.83116,171.95057c2.6128,0.31082 5.21589,0.61192 7.80926,0.90331c1.98146,0.19426 3.9532,0.39338 5.91523,0.59735c1.54437,0.16512 3.08874,0.33024 4.63311,0.49536c1.9426,0.20397 3.87549,0.39823 5.79867,0.58278c2.93333,0.33024 5.8618,0.64106 8.78542,0.93245c4.15717,0.39823 8.30463,0.79647 12.44237,1.1947c4.39028,0.41766 8.78542,0.7819 13.18542,1.09271c-1.76777,0.47594 -3.53554,0.95188 -5.30331,1.42781c-2.64194,0.71876 -5.29845,1.36954 -7.96953,1.95232c-2.37969,0.51479 -4.76423,0.99073 -7.15364,1.42781c-2.56424,0.48565 -5.12362,0.92759 -7.67814,1.32583c-2.5351,0.40795 -5.07019,0.76247 -7.60529,1.06358c-2.29227,0.26225 -4.60397,0.50993 -6.93509,0.74305c-2.79735,0.29139 -5.62384,0.5585 -8.47946,0.80132c-2.81677,0.21369 -5.61898,0.4128 -8.40661,0.59735c-2.87505,0.18455 -5.72582,0.34481 -8.55231,0.48079l-0.05828,-0.84503c2.8362,-0.85475 5.43929,-2.19514 7.80926,-4.02119c2.36998,-1.82605 3.10816,-4.13774 2.21457,-6.93509c-0.43709,-1.35011 -1.2287,-2.48653 -2.37483,-3.40927l0.08742,-0.64106c0.61192,0.0777 1.22384,0.15541 1.83576,0.23311M332.206,185.95188c-1.30154,0.77704 -2.69536,1.33554 -4.18145,1.6755l-0.34967,0.10199l-7.18277,0.34967c2.23399,-0.84503 4.50198,-1.66093 6.80397,-2.44768c2.70993,-0.92274 4.79337,-2.64194 6.25033,-5.15761c1.57351,-2.76821 1.26269,-5.35187 -0.93245,-7.75099c-0.45651,-0.53422 -0.76733,-1.13157 -0.93245,-1.79205l3.99205,0.43709l0.36424,0.40795c1.59293,2.37969 2.00088,4.95364 1.22384,7.72185c-0.78675,2.81677 -2.47196,4.96821 -5.05562,6.4543z" fill="#5b5d5e"/><path d="M327.63117,191.67771l1.54437,0.20397c2.48653,0.34967 4.96335,0.69934 7.43046,1.04901c2.62251,0.33996 5.24503,0.69448 7.86754,1.06358c2.51567,0.32053 5.04105,0.61192 7.57615,0.87417c2.58366,0.26225 5.17704,0.47594 7.78012,0.64106c2.7585,0.15541 5.51214,0.27682 8.26092,0.36424c2.60309,0.0777 5.20132,0.04371 7.79469,-0.10199c2.81677,-0.1457 5.65297,-0.04371 8.5086,0.30596c0.50508,0.04857 1.0053,0.14084 1.50066,0.27682c-1.2724,1.28212 -2.71479,2.33598 -4.32715,3.16159c-2.51567,1.26269 -5.05562,2.43311 -7.61986,3.51125c-2.62251,1.07814 -5.24503,2.11744 -7.86754,3.11788c-2.74878,1.07814 -5.55584,2.04459 -8.42118,2.89933c-2.70993,0.85475 -5.45386,1.6075 -8.23178,2.25828c-1.69978,0.39823 -3.39956,0.77704 -5.09933,1.13642c-2.86534,0.57307 -5.72582,1.06843 -8.58145,1.48609c-3.9532,0.57307 -7.92096,0.94216 -11.9033,1.10728c-0.55364,0.00971 -1.11214,0.02914 -1.6755,0.05828l-2.5351,0.04371h-1.03444l1.04901,0.13113l2.84106,0.34967c2.59337,0.27196 5.20132,0.52936 7.82383,0.77218c2.52538,0.26225 5.06534,0.46137 7.61986,0.59735c2.50596,0.1457 4.99249,0.26225 7.4596,0.34967c2.51567,0.09713 5.04591,0.15055 7.59072,0.16026c2.56424,-0.01943 5.12847,0.04371 7.69271,0.1894c1.1947,0.0777 2.35055,0.25739 3.46755,0.53907l0.08742,0.30596c-0.75762,0.63135 -1.59779,1.083 -2.52053,1.35497c-1.62207,0.46622 -3.23929,0.84503 -4.85165,1.13642c-2.60309,0.49536 -5.20618,0.94702 -7.80926,1.35497c-2.60309,0.38852 -5.21103,0.72848 -7.82383,1.01987c-2.12715,0.23311 -4.27373,0.4128 -6.43973,0.53907c-3.94348,0.25254 -7.86754,0.26711 -11.77217,0.04371c2.0883,0.46622 4.19117,0.84018 6.3086,1.12185c1.5638,0.19426 3.11788,0.34967 4.66225,0.46622c2.01059,0.1457 4.02604,0.23311 6.04635,0.26225c2.48653,0.01943 4.98278,-0.01457 7.48873,-0.10199c2.34084,-0.11656 4.6671,-0.27196 6.9788,-0.46622c2.43797,-0.21369 4.85651,-0.20883 7.25562,0.01457l0.13113,0.42252c-1.37925,0.9713 -2.8362,1.81148 -4.37086,2.52053c-2.48653,1.05872 -5.00706,2.00574 -7.56158,2.84106c-2.49624,0.83532 -5.01192,1.55408 -7.54701,2.15629c-2.52538,0.63135 -5.07019,1.18499 -7.63443,1.66093c-2.70022,0.51479 -5.41015,0.95188 -8.12979,1.31126c-6.99337,0.90331 -13.98674,0.91788 -20.98011,0.04371c-2.64194,-0.33996 -5.27417,-0.78675 -7.89668,-1.3404l0.07285,0.11656l-5.40529,-1.31126l0.08742,0.1457l-1.35497,-0.32053l-0.02914,-0.1894c-2.15629,-0.56335 -4.26887,-1.20441 -6.33774,-1.92318c-1.81633,-0.60221 -3.62295,-1.25298 -5.41986,-1.95232c-2.36026,-0.8936 -4.68653,-1.87947 -6.9788,-2.95761c-3.07903,-1.50552 -6.07549,-3.15673 -8.9894,-4.95364c-1.78719,-1.07814 -3.51125,-2.21942 -5.17218,-3.42384c-4.50684,-3.10816 -8.68344,-6.62913 -12.52979,-10.5629c-0.26225,-0.3011 -0.51965,-0.59249 -0.77218,-0.87417c0.21369,0.32053 0.43709,0.6362 0.6702,0.94702c1.40839,1.80662 2.90905,3.53068 4.50198,5.17218c1.06843,1.08786 2.22914,2.12229 3.48212,3.10331c1.83576,1.45695 3.70066,2.88477 5.5947,4.28344c1.96203,1.42781 3.96291,2.85077 6.00264,4.26887c1.80662,1.24327 3.63267,2.45739 5.47814,3.64238c3.35099,2.01059 6.76026,3.88521 10.2278,5.62384c-0.20397,0.33996 -0.48565,0.52936 -0.84503,0.56821c-0.5245,0.0777 -1.03929,0.06799 -1.54437,-0.02914c-1.4958,-0.29139 -2.9819,-0.4468 -4.45827,-0.46622c-2.59337,-0.04857 -5.15275,-0.27682 -7.67814,-0.68477c-2.06887,-0.3011 -4.11346,-0.80132 -6.13377,-1.50066c-3.24415,-1.09757 -6.3426,-2.46711 -9.29536,-4.10861c0.50508,1.117 0.87903,2.28256 1.12185,3.49669c0.13598,0.60221 0.17969,1.1947 0.13113,1.77748c-0.01943,0.27196 -0.16512,0.50022 -0.43709,0.68477c-0.4468,0.25254 -0.92274,0.33024 -1.42781,0.23311c-0.69934,-0.12627 -1.37925,-0.36424 -2.03973,-0.71391c-5.06048,-3.04017 -9.42648,-6.88653 -13.098,-11.53906c-0.93245,-1.21413 -1.84062,-2.44282 -2.7245,-3.68609c-0.70905,-0.95188 -1.33554,-1.94746 -1.87947,-2.98675c-0.06799,-0.1457 -0.16512,-0.29625 -0.29139,-0.45166c-1.04901,-1.9426 -1.9426,-3.94834 -2.68079,-6.01721c-0.32053,-0.90331 -0.57307,-1.8309 -0.75762,-2.78278c-0.23311,-1.22384 -0.26711,-2.45739 -0.10199,-3.70066c0.05828,-0.68962 0.1457,-1.3841 0.26225,-2.08344l0.27682,1.3404c0.56335,2.44768 1.20927,4.88565 1.93775,7.3139c0.80618,2.65165 2.03488,5.09933 3.68609,7.34304c1.58322,2.17572 3.22472,4.29801 4.9245,6.36688c0.06799,0.11656 0.15541,0.23311 0.26225,0.34967c0,0.01943 0.00971,0.034 0.02914,0.04371c0.00971,0.00971 0.02914,0.02428 0.05828,0.04371c0.41766,0.51479 0.84503,1.02472 1.28212,1.5298l0.87417,0.94702l0.75762,0.77218c1.81633,2.28256 3.97748,4.12803 6.48344,5.53642c1.05872,0.56335 2.16115,1.03444 3.30728,1.41324c0.13598,-0.96159 0.02914,-1.90861 -0.32053,-2.84106c-0.49536,-1.3404 -1.28212,-2.53995 -2.36026,-3.59867l-1.5298,-1.48609l-1.22384,-1.13642l-1.13642,-1.03444l-0.62649,-0.59735c-2.23399,-1.78719 -4.13289,-3.86578 -5.69668,-6.23576c-1.06843,-1.58322 -1.7532,-3.24415 -2.0543,-4.98278c1.45695,0.55364 2.58852,1.60265 3.3947,3.14702c0.50508,0.91302 1.08786,1.77263 1.74834,2.57881c1.32097,1.62207 2.73421,3.16644 4.23973,4.63311l1.22384,1.06358l3.13245,2.37483l1.29669,0.93245l0.84503,0.5245l0.58278,0.34967c0.03885,0.06799 0.08256,0.11656 0.13113,0.1457c0.05828,0.01943 0.1457,0.04371 0.26225,0.07285l1.36954,0.78675c2.58366,1.38896 5.24017,2.54481 7.96953,3.46755c2.55452,0.87417 5.17218,1.50552 7.85297,1.89404c2.25342,0.31082 4.49227,0.46622 6.71655,0.46622c-2.03002,-1.09757 -4.02119,-2.25342 -5.9735,-3.46755c-1.96203,-1.24327 -3.89492,-2.50596 -5.79867,-3.78808c-1.6415,-1.17527 -3.26843,-2.36512 -4.88079,-3.56953l-1.3841,-0.99073l-2.06887,-1.51523l-1.12185,-0.81589l-0.53907,-0.40795c-2.3894,-1.69978 -4.6671,-3.52582 -6.83311,-5.47814c-2.11744,-1.8649 -3.92406,-3.98234 -5.41986,-6.35231c-0.96159,-1.54437 -1.3064,-3.13245 -1.03444,-4.76423c1.01987,0.27196 1.86976,0.80618 2.54967,1.60265c2.23399,2.47682 4.59911,4.75938 7.09536,6.84768c8.13951,7.17792 17.21146,12.81147 27.21587,16.90065c3.34128,1.3404 6.73112,2.53024 10.16953,3.56953c0.59249,0.15541 1.17527,0.31567 1.74834,0.48079l0.05828,-0.1894l0.78675,0.20397l0.24768,0.05828l0.13113,0.26225l2.02516,0.5245l2.46225,0.58278l5.05562,0.99073l0.68477,0.13113l2.84106,0.45166c2.72936,0.39823 5.46843,0.67505 8.21721,0.83046c2.64194,0.09713 5.26445,0.09227 7.86754,-0.01457c2.58366,-0.10684 5.17218,-0.3351 7.76556,-0.68477c2.64194,-0.36909 5.26931,-0.79647 7.88211,-1.28212c2.57395,-0.49536 5.12847,-1.04901 7.66357,-1.66093c2.59337,-0.65077 5.14304,-1.4181 7.649,-2.30198c2.57395,-0.92274 5.07505,-2.01059 7.5033,-3.26357c0.24283,-0.12627 0.50993,-0.26225 0.80132,-0.40795c-2.78764,0.28168 -5.55099,0.52936 -8.29006,0.74305c-2.77792,0.23311 -5.5607,0.39338 -8.34834,0.48079c-2.87505,0.08742 -5.75982,0.08256 -8.6543,-0.01457c-3.04989,-0.11656 -6.1192,-0.38852 -9.20794,-0.81589c-2.80706,-0.39823 -5.5947,-0.94702 -8.36291,-1.64636l-1.89404,-0.5245l-2.68079,-0.90331l-1.10728,-0.42252l-0.91788,-0.37881l-0.99073,-0.49536c0.06799,-0.80618 0.57307,-1.05872 1.51523,-0.75762c0.20397,0.06799 0.40795,0.12141 0.61192,0.16026c1.62207,0.4468 3.25872,0.77218 4.90993,0.97616c0.58278,0.0777 1.16071,0.16026 1.73377,0.24768l1.20927,0.10199c2.7585,0.24283 5.52671,0.36909 8.30463,0.37881c2.66137,-0.01943 5.33245,-0.13113 8.01324,-0.3351c2.60309,-0.18455 5.19646,-0.43223 7.78012,-0.74305c2.56424,-0.27196 5.1139,-0.61678 7.649,-1.03444c2.7585,-0.48565 5.47814,-1.07329 8.15893,-1.76291c0.37881,-0.08742 0.76247,-0.17969 1.15099,-0.27682c-3.41898,0.01943 -6.84282,-0.01457 -10.27151,-0.10199c-2.65165,-0.04857 -5.31788,-0.14084 -7.99867,-0.27682c-2.30198,-0.0777 -4.59911,-0.1894 -6.89138,-0.3351c-2.39911,-0.15541 -4.77395,-0.36424 -7.1245,-0.62649c-1.20441,-0.11656 -2.39911,-0.24283 -3.5841,-0.37881l-1.98146,-0.24768l-2.73907,-0.36424l-1.61722,-0.20397l-1.42781,-0.1894c-2.8362,-0.39823 -5.71125,-0.78675 -8.62516,-1.16556c-2.69051,-0.37881 -5.39072,-0.75276 -8.10065,-1.12185c-2.72936,-0.38852 -5.42472,-0.88388 -8.08608,-1.48609c-2.76821,-0.66049 -5.51699,-1.41324 -8.24635,-2.25828c-2.70022,-0.80618 -5.35187,-1.71435 -7.95496,-2.7245c-2.55452,-1.02958 -5.08962,-2.13201 -7.60529,-3.30728c-2.43797,-1.18499 -4.84679,-2.45254 -7.22648,-3.80265c-2.41854,-1.4181 -4.83222,-2.88962 -7.24105,-4.41457c-1.37925,-0.8936 -2.56909,-2.00088 -3.56953,-3.32185c-0.24283,-0.33996 -0.45651,-0.69448 -0.64106,-1.06358c2.71964,2.03973 5.53642,3.95805 8.45032,5.75496c2.63223,1.63179 5.3373,3.14702 8.11522,4.54569c2.6128,1.2724 5.24988,2.48168 7.91125,3.62781c2.54481,1.03929 5.12362,1.98631 7.73642,2.84106c2.58366,0.87417 5.19646,1.65607 7.8384,2.34569c2.32141,0.63135 4.66225,1.18013 7.02251,1.64636c2.49624,0.50508 4.98278,0.90817 7.4596,1.20927l3.83178,0.40795l0.36424,0.01457l5.14304,0.21854l0.74305,0.01457l4.74966,-0.04371l6.9788,-0.45166c2.88477,-0.23311 5.74525,-0.54879 8.58145,-0.94702c2.52538,-0.32053 5.04591,-0.71876 7.56158,-1.1947c2.5351,-0.48565 5.06048,-1.03929 7.57615,-1.66093c2.52538,-0.65077 5.0362,-1.35011 7.53244,-2.09801c2.47682,-0.72848 4.91964,-1.54437 7.32847,-2.44768c2.37969,-0.8936 4.71567,-1.84547 7.00794,-2.85563c2.40883,-1.07814 4.8128,-2.21942 7.21191,-3.42384c1.12671,-0.55364 2.24371,-1.13642 3.35099,-1.74834c-3.5841,0.06799 -7.18763,0.06313 -10.81059,-0.01457c-2.52538,-0.05828 -5.06534,-0.16998 -7.61986,-0.3351c-2.69051,-0.13598 -5.39072,-0.33024 -8.10065,-0.58278c-3.35099,-0.29139 -6.68741,-0.62649 -10.00926,-1.0053c-2.5351,-0.29139 -5.07505,-0.60706 -7.61986,-0.94702c-1.65121,-0.23311 -3.30243,-0.49051 -4.95364,-0.77218l-2.03973,-0.30596l-3.83178,-0.59735l-1.35497,-0.20397l-0.90331,-0.13113l-9.64502,-1.44238c2.81677,0.04857 5.5947,0.21369 8.33377,0.49536c1.33068,0.12627 2.65165,0.27196 3.96291,0.43709M244.64317,206.36379l-0.49536,-0.50993l0.56821,0.80132l-0.07285,-0.29139M336.0815,171.4115l-0.40795,-0.04371l-3.99205,-0.43709l-1.61722,-0.17483l-1.55894,-0.17483l-13.17085,-1.47152c-0.38852,-0.05828 -0.76733,-0.10684 -1.13642,-0.1457c-2.55452,-0.26225 -5.10419,-0.5585 -7.649,-0.88874c-2.71964,-0.34967 -5.45386,-0.70905 -8.20264,-1.07814c-2.76821,-0.35938 -5.53156,-0.74305 -8.29006,-1.15099c-2.74878,-0.36909 -5.49271,-0.77218 -8.23178,-1.20927c-2.69051,-0.43709 -5.38587,-0.87903 -8.08608,-1.32583c-2.70993,-0.42737 -5.42472,-0.88874 -8.14436,-1.3841c-2.70022,-0.46622 -5.40529,-0.94702 -8.11522,-1.44238c-2.64194,-0.45651 -5.29845,-0.87903 -7.96953,-1.26755c-2.03973,-0.3011 -4.01148,-0.84503 -5.91523,-1.63179l-1.22384,-0.58278l0.07285,-0.23311l0.55364,-0.08742l57.40392,8.82913c1.47638,0.24283 2.93333,0.48079 4.37086,0.71391c0.48565,0.0777 0.9713,0.15541 1.45695,0.23311c3.38984,0.59249 6.79911,1.07814 10.2278,1.45695c1.73863,0.18455 3.5064,0.37395 5.30331,0.56821c3.14702,0.34967 6.29889,0.68477 9.45562,1.0053c1.91346,0.18455 3.85121,0.36424 5.81324,0.53907l43.47546,4.38543c1.20441,0.15541 2.41368,0.27682 3.62781,0.36424c0.39823,0.03885 0.79161,0.08256 1.18013,0.13113c2.62251,0.27196 5.23046,0.48565 7.82383,0.64106c2.66137,0.12627 5.32273,0.30596 7.9841,0.53907c1.33068,0.13598 2.70993,0.30596 4.13774,0.50993l0.13113,0.32053c-0.0777,0.24283 -0.2234,0.42737 -0.43709,0.55364c-0.09713,0.05828 -0.19912,0.11656 -0.30596,0.17483c-1.55408,0.63135 -3.14702,1.14614 -4.7788,1.54437c-1.73863,0.43709 -3.5064,0.88874 -5.30331,1.35497c-3.21501,0.86446 -6.43002,1.66093 -9.64502,2.3894c-2.14658,0.47594 -4.30287,0.92274 -6.46887,1.3404c-1.63179,0.32053 -3.283,0.60706 -4.95364,0.8596c-0.60221,0.09713 -1.1947,0.18455 -1.77748,0.26225c-3.02075,0.49536 -6.06578,0.92759 -9.13509,1.29669c-2.36998,0.25254 -4.74966,0.51479 -7.13907,0.78675c-4.51655,0.49536 -9.06224,0.8936 -13.63707,1.1947c-4.67196,0.28168 -9.34878,0.48079 -14.03045,0.59735c-2.95276,0.06799 -5.91523,0.12141 -8.88741,0.16026c-1.17527,0.01943 -2.35541,0.03885 -3.54039,0.05828c-2.80706,-0.00971 -5.61898,-0.03885 -8.43575,-0.08742c-2.7585,-0.03885 -5.50728,-0.1117 -8.24635,-0.21854c-2.59337,-0.06799 -5.18675,-0.1894 -7.78012,-0.36424c-2.89448,-0.17483 -5.76953,-0.4128 -8.62516,-0.71391c-2.63223,-0.26225 -5.27417,-0.59735 -7.92582,-1.0053c-2.79735,-0.43709 -5.58984,-0.9713 -8.37748,-1.60265c-2.76821,-0.61192 -5.47328,-1.41324 -8.11522,-2.40397c-0.82561,-0.28168 -1.6415,-0.59249 -2.44768,-0.93245c3.42869,0.99073 6.91081,1.85033 10.44635,2.57881c1.91346,0.39823 3.83664,0.76733 5.76953,1.10728c1.68035,0.28168 3.35585,0.53907 5.02649,0.77218c2.15629,0.28168 4.30772,0.5245 6.4543,0.72848c2.39911,0.2234 4.78852,0.39338 7.16821,0.50993c3.76865,0.23311 7.52759,0.38852 11.27681,0.46622c4.24459,0.09713 8.47461,0.0777 12.69005,-0.05828l3.08874,-0.08742l3.17616,-0.10199l7.18277,-0.34967h0.3351l3.30728,-0.16026c2.82649,-0.13598 5.67726,-0.29625 8.55231,-0.48079c2.78764,-0.18455 5.58984,-0.38366 8.40661,-0.59735c2.85563,-0.24283 5.68211,-0.50993 8.47946,-0.80132c2.33112,-0.23311 4.64282,-0.48079 6.93509,-0.74305c2.5351,-0.3011 5.07019,-0.65563 7.60529,-1.06358c2.55452,-0.39823 5.1139,-0.84018 7.67814,-1.32583c2.3894,-0.43709 4.77395,-0.91302 7.15364,-1.42781c2.67108,-0.58278 5.32759,-1.23355 7.96953,-1.95232c1.76777,-0.47594 3.53554,-0.95188 5.30331,-1.42781c-4.4,-0.31082 -8.79514,-0.67505 -13.18542,-1.09271c-4.13774,-0.39823 -8.2852,-0.79647 -12.44237,-1.1947c-2.92362,-0.29139 -5.85209,-0.60221 -8.78542,-0.93245c-1.92318,-0.18455 -3.85607,-0.37881 -5.79867,-0.58278c-1.54437,-0.16512 -3.08874,-0.33024 -4.63311,-0.49536c-1.96203,-0.20397 -3.93377,-0.40309 -5.91523,-0.59735c-2.59337,-0.29139 -5.19646,-0.59249 -7.80926,-0.90331c-0.61192,-0.0777 -1.22384,-0.15541 -1.83576,-0.23311z" fill="#000000"/></g></g></svg>