<svg version="1.1" xmlns="http://www.w3.org/2000/svg" xmlns:xlink="http://www.w3.org/1999/xlink" width="121.20958" height="44.03138" viewBox="0,0,121.20958,44.03138"><g transform="translate(-171.18619,-150.80231)"><g data-paper-data="{&quot;isPaintingLayer&quot;:true}" fill="#000000" fill-rule="nonzero" stroke="none" stroke-width="1" stroke-linecap="butt" stroke-linejoin="miter" stroke-miterlimit="10" stroke-dasharray="" stroke-dashoffset="0" style="mix-blend-mode: normal"><path d="M229.98209,173.04769c-3.72832,0.64062 -7.44864,1.40128 -11.16096,2.28198c-2.71072,0.63619 -5.50442,1.34153 -8.38109,2.11602l-9.41836,2.44794c-5.33845,1.41068 -9.30772,2.60008 -11.90779,3.56819c-4.28736,1.6043 -7.88321,3.5267 -10.78755,5.76719l-1.49366,1.12025c-0.58087,0.41491 -1.12025,0.70534 -1.61813,0.8713c-0.60853,0.22128 -1.21706,0.29043 -1.82558,0.20745c-0.66385,-0.11064 -1.1894,-0.38725 -1.57664,-0.82981c-0.38725,-0.41491 -0.5947,-0.94045 -0.62236,-1.57664c-0.02766,-0.60853 0.09681,-1.1894 0.37342,-1.7426c0.38725,-0.77449 1.17557,-1.64579 2.36496,-2.61391c2.77241,-2.22612 5.88421,-4.25916 9.33538,-6.09911c3.49342,-3.38461 8.04355,-6.09533 13.6504,-8.13215c4.48098,-1.6043 10.92585,-3.00115 19.3346,-4.19055l19.41759,-2.69689c3.87245,-0.52555 9.28006,-1.3277 16.22281,-2.40645l23.7326,-3.65117c1.88091,-0.2766 3.31925,-0.62236 4.31502,-1.03726c0.69151,-0.30426 2.42028,-1.466 5.18632,-3.48521c2.01921,-1.52132 3.81713,-2.24049 5.39377,-2.15751c0.60853,0.22128 1.09258,0.66385 1.45217,1.3277c0.33192,0.63619 0.47023,1.31387 0.41491,2.03304c-0.02766,0.94045 -0.48406,2.24049 -1.36919,3.90011c-1.24472,2.40645 -2.32347,4.21821 -3.23626,5.43526c-0.80302,1.07605 -1.66049,1.97502 -2.57242,2.69689c1.09021,0.44375 2.01683,0.99696 2.77987,1.65962c1.02343,0.91279 1.34153,1.75643 0.95428,2.53092c-0.94045,-0.1383 -2.0607,-0.05532 -3.36074,0.24894c-1.49366,0.38725 -2.62774,0.65002 -3.40223,0.78832c-1.10642,0.19362 -2.37879,0.26277 -3.81713,0.20745c-0.55321,-0.02766 -1.82558,-0.12447 -3.81713,-0.29043c-8.77839,-0.80388 -17.5329,-0.94218 -26.26353,-0.41491c-0.33095,0.09184 -0.69054,0.18865 -1.07875,0.29043c-1.88091,0.49789 -3.22243,0.81598 -4.02459,0.95428c-1.24472,0.22128 -2.71072,0.37342 -4.398,0.4564c-1.96389,0.08298 -3.44372,0.1383 -4.43949,0.16596c-1.29939,0.05532 -2.75156,0.1383 -4.35651,0.24894M195.33746,191.67695c-0.24894,0.22128 -0.67768,0.38725 -1.28621,0.49789c-2.82136,0.63619 -4.90972,1.05109 -6.26508,1.24472c-2.35113,0.33192 -4.46715,0.42874 -6.34806,0.29043c-0.05532,0.44257 -0.33192,0.76066 -0.82981,0.95428c-0.47023,0.19362 -0.96811,0.22128 -1.49366,0.08298c-0.2766,-0.08298 -0.71917,-0.26277 -1.3277,-0.53938c-0.55321,-0.24894 -0.99577,-0.41491 -1.3277,-0.49789c-0.11064,-0.16596 -0.12447,-0.35958 -0.04149,-0.58087c0.08298,-0.22128 0.20745,-0.40108 0.37342,-0.53938c0.22128,-0.16596 0.5947,-0.35958 1.12025,-0.58087c0.41491,-0.24894 0.94045,-0.74683 1.57664,-1.49366c0.55321,-0.38725 1.1894,-0.65002 1.90857,-0.78832c1.3277,-0.2766 3.72032,-0.19362 7.17787,0.24894c3.04264,0.38725 5.35228,0.23511 6.92892,-0.4564c0.2766,0.30426 0.40108,0.67768 0.37342,1.12025c-0.05532,0.44257 -0.23511,0.78832 -0.53938,1.03726z"/></g></g></svg>