<svg version="1.1" xmlns="http://www.w3.org/2000/svg" xmlns:xlink="http://www.w3.org/1999/xlink" width="98.64471" height="127.26217" viewBox="0,0,98.64471,127.26217"><g transform="translate(-190.67765,-116.36892)"><g data-paper-data="{&quot;isPaintingLayer&quot;:true}" fill-rule="nonzero" stroke="none" stroke-width="1" stroke-linecap="butt" stroke-linejoin="miter" stroke-miterlimit="10" stroke-dasharray="" stroke-dashoffset="0" style="mix-blend-mode: normal"><path d="M275.57235,120.47544c-1.43333,-0.06667 -3.73333,0.3 -6.9,1.1c-1.96667,0.56667 -3.36667,1.1 -4.2,1.6c-0.7,0.43333 -1.2,0.68333 -1.5,0.75c-0.56667,0.2 -1.03333,0.13333 -1.4,-0.2c0.13333,-0.13333 0.26667,-0.3 0.4,-0.5c-0.1,0.1 -0.18333,0.2 -0.25,0.3c-0.23333,0.13333 -0.61667,0.3 -1.15,0.5c-0.53333,0.3 -1.03333,0.6 -1.5,0.9c-3.83333,2.43333 -7.03333,4.93333 -9.6,7.5c-2.63333,3.3 -5.36667,6.91667 -8.2,10.85c-2.6,3.66667 -6.21667,8.98333 -10.85,15.95c-2.16667,3.16667 -3.76667,5.6 -4.8,7.3c-1.63333,2.76667 -2.88333,5.35 -3.75,7.75c-0.13333,0.4 -0.23333,0.83333 -0.3,1.3c-0.3,1 -0.68333,2.23333 -1.15,3.7c-0.33333,1.3 -0.7,2.76667 -1.1,4.4l-3.05,13.25c-1.43333,6.26667 -2.45,11.01667 -3.05,14.25c-0.96667,5.23333 -1.55,9.98333 -1.75,14.25c-0.1,1.13333 -0.2,2.86667 -0.3,5.2c-0.16667,2 -0.45,3.7 -0.85,5.1c-0.53333,1.76667 -1.33333,3.31667 -2.4,4.65c-1.2,1.46667 -2.6,2.43333 -4.2,2.9c-2.33333,0.7 -4.66667,0.36667 -7,-1c-2.2,-1.33333 -3.8,-3.15 -4.8,-5.45c-1.53333,-3.56667 -1.65,-8.41667 -0.35,-14.55c0.83333,-4.16667 2.15,-8.68333 3.95,-13.55c1.13333,-3.13333 2.88333,-7.55 5.25,-13.25c3.13333,-7.46667 5.6,-13.08333 7.4,-16.85c3,-6.13333 6.03333,-11.45 9.1,-15.95c1.23333,-1.73333 3.4,-4.58333 6.5,-8.55c5.03333,-6.3 8.91667,-11.1 11.65,-14.4c4.43333,-5.2 8.55,-9.75 12.35,-13.65c2.06667,-2.03333 3.83333,-3.51667 5.3,-4.45c1.06667,-0.7 2.1,-1.21667 3.1,-1.55c2.5,-1.4 5.08333,-2.38333 7.75,-2.95c0.9,-0.2 1.75,-0.26667 2.55,-0.2c2.5,-0.53333 5.1,-0.68333 7.8,-0.45c0.36667,-0.06667 0.73333,-0.1 1.1,-0.1c1.9,-0.03333 3.65,0.33333 5.25,1.1c0.33333,0.13333 0.63333,0.3 0.9,0.5c0.53333,0.16667 1.05,0.35 1.55,0.55c1.83333,0.8 3.11667,1.75 3.85,2.85c0.83333,0.26667 1.63333,0.56667 2.4,0.9c0,0.3 -0.2,0.5 -0.6,0.6c-0.33333,0.06667 -0.66667,0.05 -1,-0.05l-7.65,-1.7c-1.8,-0.4 -3.3,-0.61667 -4.5,-0.65M204.52235,199.82544c-0.3,0.3 -0.96667,0.98333 -2,2.05c-0.83333,0.76667 -1.46667,1.45 -1.9,2.05c-1.16667,1.53333 -2.13333,4.03333 -2.9,7.5c-0.73333,2.96667 -1.18333,5.2 -1.35,6.7c-0.16667,1.5 -0.26667,2.85 -0.3,4.05c0.03333,1.16667 0.2,3.33333 0.5,6.5c0.5,3.46667 1.65,5.33333 3.45,5.6c0.73333,0.1 1.41667,-0.1 2.05,-0.6c0.6,-0.43333 0.96667,-1.01667 1.1,-1.75c0.06667,-0.56667 -0.05,-1.28333 -0.35,-2.15c-0.36667,-1.06667 -0.56667,-1.81667 -0.6,-2.25c-0.06667,-0.6 0.06667,-1.36667 0.4,-2.3c0.43333,-1.3 0.68333,-2.08333 0.75,-2.35c0.06667,-0.6 0.1,-1.36667 0.1,-2.3c-0.06667,-1.03333 -0.11667,-1.8 -0.15,-2.3c-0.03333,-1.66667 0.38333,-4.15 1.25,-7.45c0.53333,-1.96667 1,-3.41667 1.4,-4.35c0.8,-2 1.23333,-3.11667 1.3,-3.35c0.2,-0.73333 0.31667,-2.15 0.35,-4.25c0.03333,-1.83333 0.23333,-3.23333 0.6,-4.2h-1.6c0.13333,1.66667 -0.56667,3.38333 -2.1,5.15z" fill="#cccccc"/><path d="M207.62235,198.87544c-0.03333,2.1 -0.15,3.51667 -0.35,4.25c-0.06667,0.23333 -0.5,1.35 -1.3,3.35c-0.4,0.93333 -0.86667,2.38333 -1.4,4.35c-0.86667,3.3 -1.28333,5.78333 -1.25,7.45c0.03333,0.5 0.08333,1.26667 0.15,2.3c0,0.93333 -0.03333,1.7 -0.1,2.3c-0.06667,0.26667 -0.31667,1.05 -0.75,2.35c-0.33333,0.93333 -0.46667,1.7 -0.4,2.3c0.03333,0.43333 0.23333,1.18333 0.6,2.25c0.3,0.86667 0.41667,1.58333 0.35,2.15c-0.13333,0.73333 -0.5,1.31667 -1.1,1.75c-0.63333,0.5 -1.31667,0.7 -2.05,0.6c-1.8,-0.26667 -2.95,-2.13333 -3.45,-5.6c-0.3,-3.16667 -0.46667,-5.33333 -0.5,-6.5c0.03333,-1.2 0.13333,-2.55 0.3,-4.05c0.16667,-1.5 0.61667,-3.73333 1.35,-6.7c0.76667,-3.46667 1.73333,-5.96667 2.9,-7.5c0.43333,-0.6 1.06667,-1.28333 1.9,-2.05c1.03333,-1.06667 1.7,-1.75 2,-2.05c1.53333,-1.76667 2.23333,-3.48333 2.1,-5.15h1.6c-0.36667,0.96667 -0.56667,2.36667 -0.6,4.2z" fill="#ffffff"/></g></g></svg>