<svg version="1.1" xmlns="http://www.w3.org/2000/svg" xmlns:xlink="http://www.w3.org/1999/xlink" width="191.89519" height="174.17322" viewBox="0,0,191.89519,174.17322"><g transform="translate(-145.71075,-97.05937)"><g data-paper-data="{&quot;isPaintingLayer&quot;:true}" fill-rule="nonzero" stroke="none" stroke-width="1" stroke-linecap="butt" stroke-linejoin="miter" stroke-miterlimit="10" stroke-dasharray="" stroke-dashoffset="0" style="mix-blend-mode: normal"><path d="M241.78545,223.82353c-2.02361,-2.95542 -4.07546,-5.87319 -6.15556,-8.75332c-1.95773,-2.72011 -3.96722,-5.38376 -6.02849,-7.99093c-1.91067,-2.4001 -3.89664,-4.74373 -5.95791,-7.03089c-0.29736,-0.32965 -0.59385,-0.65907 -0.88945,-0.98828c-0.2631,-0.29413 -0.52665,-0.59062 -0.79063,-0.88945c-0.4862,-0.51528 -0.99916,-1.00942 -1.53889,-1.48242c-1.14828,-1.0071 -2.77659,-2.17891 -4.88492,-3.51544c-9.43099,-5.98614 -19.47847,-10.79575 -30.14246,-14.42885c-5.38685,-1.83522 -10.83179,-3.33647 -16.33481,-4.50372c-4.44647,-0.93945 -8.93137,-1.66419 -13.45469,-2.17421c-0.83588,-0.08651 -1.67356,-0.17122 -2.51305,-0.25412c-0.12159,-0.00768 -0.24395,-0.0171 -0.36707,-0.02824c0.13306,-0.02706 0.26953,-0.05059 0.40943,-0.07059c0.78919,-0.12534 1.71629,-0.1771 2.78129,-0.1553c0.41744,0.00728 0.85512,0.0261 1.313,0.05647c2.25892,0.16001 4.78138,0.51296 7.56738,1.05887c1.15807,0.22629 2.73931,0.56984 4.74373,1.03063c0.83794,0.19864 1.74621,0.41513 2.72482,0.64944c3.58604,0.86592 6.18379,1.51065 7.79327,1.9342c2.88954,0.75297 5.45905,1.50124 7.70857,2.2448c10.32515,3.40721 21.16796,9.01215 32.52845,16.81483c0.06401,0.04397 0.12519,0.08633 0.18354,0.12707c-0.00335,-0.01209 -0.00805,-0.02621 -0.01412,-0.04236c-0.01313,-0.03779 -0.02724,-0.07545 -0.04236,-0.11295c-0.02666,-0.11861 -0.04078,-0.23626 -0.04236,-0.35295c0.06608,0.06103 0.13195,0.12221 0.19766,0.18354c0.16077,0.14842 0.26431,0.3555 0.3106,0.62121c0.84599,0.66558 1.40602,1.31502 1.68008,1.94832c0.29127,0.27005 0.57363,0.53829 0.84709,0.80474c1.14719,1.12226 2.23429,2.29877 3.26132,3.52956c2.24951,2.69188 4.42371,5.44023 6.52263,8.24505c2.25892,3.02131 4.47078,6.06614 6.63558,9.1345c2.05185,2.91777 4.08488,5.86377 6.09908,8.83802c1.8542,2.74835 3.7178,5.52024 5.59083,8.31565c1.7789,2.67305 3.55779,5.32258 5.3367,7.94857c1.7357,2.5446 3.50048,5.08117 5.29435,7.60974c0.0843,0.11787 0.16902,0.23552 0.25412,0.35295c0.09989,0.08423 0.20343,0.19717 0.3106,0.33885c0.25744,0.35189 0.51627,0.70014 0.77651,1.04475c1.15848,1.5661 2.34911,3.12381 3.57192,4.67314c1.00497,1.27034 2.0309,2.53628 3.07777,3.79781c0.63062,0.74356 1.04475,1.30829 1.24241,1.69419c0.09412,0.17883 0.12236,0.32943 0.08471,0.45178c-0.03294,0.10353 -0.09883,0.17413 -0.19766,0.21178c-0.08942,0.04706 -0.21178,0.06118 -0.36707,0.04236c-0.25412,-0.02824 -0.50355,-0.14119 -0.74826,-0.33885c-0.16001,-0.13177 -0.36237,-0.34355 -0.60709,-0.63532l-2.99307,-3.69898c-0.22748,-0.28659 -0.43454,-0.55484 -0.62121,-0.80474c-0.20203,-0.26119 -0.38086,-0.5012 -0.53649,-0.72003c-0.34825,-0.48943 -0.80474,-1.19064 -1.36947,-2.10362l-0.72003,-1.18593c-0.04651,0.03026 -0.09357,0.05849 -0.14119,0.08471c-0.21265,-0.28582 -0.42443,-0.5776 -0.63532,-0.87533c-0.45484,-0.62028 -0.90663,-1.2462 -1.35535,-1.87773c-0.24501,-0.34844 -0.48973,-0.69668 -0.73414,-1.04475c-2.13657,-3.04954 -4.23077,-6.12261 -6.28262,-9.21922c-2.05185,-3.08719 -4.10841,-6.18379 -6.16968,-9.28981c-2.05185,-3.08719 -4.12253,-6.16026 -6.21203,-9.21922M252.93885,191.70452l0.42355,-0.12707c0.88474,1.76007 2.09421,3.24249 3.62839,4.44725c0.71532,-0.08471 1.20476,-0.4659 1.4683,-1.14357c0.21648,-0.54591 0.34355,-1.13416 0.38119,-1.76478c0.02824,-0.3859 0.24471,-0.66356 0.64944,-0.83297l0.14119,0.42355c-0.37648,0.65886 -0.64944,1.393 -0.81886,2.20244c-0.17883,0.81886 -0.63062,1.38359 -1.35535,1.69419c-0.18825,0.06589 -0.3906,0.10353 -0.60709,0.11295c-1.75066,-0.81886 -2.9413,-2.16479 -3.57192,-4.03783c-0.11295,-0.32943 -0.22589,-0.65415 -0.33885,-0.97416M262.38396,190.928c1.21418,4.29195 3.7931,7.17678 7.73681,8.65449c0.33885,0.13177 0.67767,0.14589 1.01652,0.04236c-0.89415,-3.58604 -1.97185,-7.12031 -3.23308,-10.6028l0.76239,0.14119c2.4001,3.27543 3.69427,6.84265 3.88252,10.70163c0.04706,0.90357 -0.38119,1.40241 -1.28476,1.49654c-0.2353,-0.00941 -0.47061,-0.01412 -0.70591,-0.01412c-4.04724,-0.58356 -6.6497,-2.94601 -7.80739,-7.08736c-0.1553,-0.55061 -0.26354,-1.10593 -0.32473,-1.66596c-0.06118,-0.55061 -0.0753,-1.10593 -0.04236,-1.66596M273.11384,187.03137c1.81655,3.55779 4.37195,6.50381 7.6662,8.83802c1.80713,1.27064 3.77428,1.66125 5.90142,1.17181c0.13177,-3.58604 -1.42594,-6.68735 -4.67314,-9.30392c-0.97887,-0.80003 -1.9342,-1.61889 -2.86601,-2.45658c1.32711,-1.04475 2.65893,-0.73885 3.99546,0.91769c2.22127,2.73894 4.97433,4.37195 8.25917,4.89904c-0.16942,-2.21186 -1.21888,-4.04724 -3.14838,-5.50611c-1.0824,-0.82827 -2.16009,-1.69889 -3.23308,-2.61187c-1.05417,-0.90357 -2.11774,-1.79772 -3.19072,-2.68246c1.49654,0.01882 2.92719,0.71061 4.29195,2.07539c1.44947,1.45889 2.91306,2.90366 4.39077,4.3343c1.48712,1.43065 1.96714,3.08719 1.44006,4.96962c-3.18856,-0.03581 -5.92279,-1.34881 -8.20271,-3.93899c-0.11247,-0.12552 -0.22541,-0.25729 -0.33885,-0.39531c-0.62121,-0.76239 -1.42594,-1.28005 -2.41422,-1.55301c0.8943,0.70131 1.70375,1.44488 2.42834,2.23068c2.18601,2.38146 3.62137,5.16746 4.30607,8.358c0.06589,0.29177 -0.02353,0.52708 -0.26824,0.70591c-2.24951,1.73184 -4.6402,1.61418 -7.17207,-0.35295c-3.28485,-2.56953 -5.69907,-5.70848 -7.24267,-9.41687c-0.02824,-0.0753 -0.00471,-0.16942 0.07059,-0.28236M254.18127,108.51979c1.18593,0.63062 4.88962,2.80483 11.11106,6.52263c4.49902,2.68246 8.29212,4.66373 11.37931,5.94379c4.23548,1.75066 8.60743,2.9366 13.11585,3.55779c0.59297,0.08471 0.88474,0.28707 0.87533,0.60709c0,0.19766 -0.17413,0.3906 -0.52238,0.57885c-0.66827,0.32001 -1.44477,0.52708 -2.32951,0.62121c-0.66827,0.06589 -1.48712,0.08001 -2.45658,0.04236c-3.59545,-0.14119 -7.13913,-0.68708 -10.63104,-1.63772l21.74211,9.6004c0.48943,0.19766 0.82356,0.41413 1.0024,0.64944c0.08394,0.11618 0.1357,0.24324 0.1553,0.38119c3.76288,1.38465 7.61246,2.48588 11.54872,3.30367c3.05895,0.62121 6.13673,1.1671 9.23333,1.63772c3.53897,0.53649 7.07795,1.04946 10.61692,1.53889c1.29888,0.18825 2.52717,0.5412 3.68486,1.05887c0.14119,0.04706 0.21648,0.13648 0.22589,0.26824c-0.00941,0.03765 -0.02353,0.06589 -0.04236,0.08471c-0.63062,0.80944 -1.44477,1.43065 -2.44246,1.86361c-2.28716,1.0071 -4.6402,1.79772 -7.05913,2.37187c-1.95773,0.48943 -3.96252,0.82356 -6.01437,1.0024c-3.84017,0.29177 -7.6662,0.25883 -11.47813,-0.09883c-3.00248,-0.29177 -5.99555,-0.68708 -8.97921,-1.18593c0.48943,0.29177 0.98357,0.58356 1.48242,0.87533c2.39069,1.37418 4.73903,2.82836 7.04501,4.36254c3.39779,2.24951 6.71088,4.62608 9.93925,7.12972c2.07068,1.61889 4.08017,3.30367 6.02849,5.05433c2.57894,2.33422 5.02139,4.80021 7.32737,7.39796c1.74125,1.97656 3.43544,4.019 5.08257,6.12732c0.56473,0.72473 0.96475,1.53889 1.20006,2.44246c0.14119,0.50826 -0.05177,0.86592 -0.57885,1.07299c-0.16001,-0.03765 -0.3106,-0.08471 -0.45178,-0.14119c-1.78831,-0.81886 -3.51073,-1.83067 -5.16728,-3.03542c-3.03072,-2.21186 -6.15085,-4.27783 -9.3604,-6.19791c-2.30598,-1.38359 -4.6402,-2.7107 -7.00265,-3.98134c-1.90126,-1.01652 -3.81193,-2.01421 -5.73201,-2.99307c0.32943,0.3859 0.65886,0.7718 0.98828,1.15769c0.93828,1.09016 1.85126,2.2055 2.73894,3.34603c0.65385,0.83809 1.29388,1.68989 1.92008,2.55541c2.39069,3.3225 4.54607,6.82383 6.46616,10.50398c1.12945,2.17421 2.1695,4.37666 3.12013,6.60734c0.48943,1.14828 0.78122,2.32951 0.87533,3.54368c0.01882,0.27295 -0.09412,0.47061 -0.33885,0.59297c-0.02824,0.00941 -0.05177,0.00941 -0.07059,0c-1.06358,-0.75297 -2.0189,-1.66596 -2.86601,-2.73894c-2.58834,-3.27543 -5.44023,-6.32968 -8.55566,-9.16274c-1.71301,-1.56242 -3.44486,-3.08719 -5.19552,-4.57431c0.26354,0.44237 0.53649,0.88474 0.81886,1.32711c0.91835,1.44668 1.84545,2.88203 2.78129,4.30607c0.85927,1.28929 1.72518,2.56934 2.59775,3.84017c3.06836,4.4802 6.28733,8.86626 9.65689,13.15821c1.94957,2.47264 3.95436,4.90569 6.01437,7.29914c0.39013,0.45597 0.78073,0.90776 1.17181,1.35535c0.67525,0.77632 1.35293,1.54341 2.03302,2.30127c1.22601,1.36524 2.46371,2.70647 3.7131,4.02371c0.90232,0.94849 1.8106,1.885 2.72482,2.80953c0.03335,0.03301 0.06629,0.06596 0.09883,0.09883c0.06052,0.06096 0.1217,0.12213 0.18354,0.18354c-0.75489,0.31094 -1.50785,0.62153 -2.25892,0.9318c-0.08413,-0.08026 -0.16883,-0.16496 -0.25412,-0.25412c-0.03078,-0.02621 -0.06371,-0.05445 -0.09883,-0.08471c-0.65484,-0.66315 -1.30429,-1.33142 -1.94832,-2.00479c-1.37862,-1.43293 -2.72456,-2.88711 -4.03783,-4.36254c-0.43648,-0.49278 -0.86944,-0.98692 -1.29888,-1.48242c-0.7254,-0.84081 -1.44073,-1.6879 -2.14597,-2.54129c-1.31267,-1.57639 -2.59272,-3.17175 -3.84017,-4.78609c-1.53419,-2.00479 -3.03542,-4.03783 -4.50372,-6.09908c-1.47771,-2.07068 -2.90836,-4.17429 -4.29195,-6.31085c-1.7789,-2.76718 -3.52015,-5.55788 -5.22375,-8.37212c-1.15769,-1.92008 -2.30127,-3.82605 -3.43074,-5.71789c-0.2353,-0.40472 -0.45649,-0.80474 -0.66356,-1.20006c-0.27295,-0.48943 -0.65415,-0.9271 -1.14357,-1.313l-11.12518,-9.48747l-0.45178,-0.67767c0.05647,-0.11295 0.12707,-0.21178 0.21178,-0.29648c0.33885,-0.3106 0.68708,-0.32943 1.04475,-0.05647c2.99307,2.17421 5.90142,4.49432 8.72507,6.9603c2.22127,1.94832 4.4143,3.92958 6.5791,5.94379c2.4001,2.24951 4.77668,4.52725 7.12972,6.83324c2.17421,2.10833 4.30607,4.27783 6.39557,6.50851c-0.29177,-0.63062 -0.57885,-1.26123 -0.86121,-1.89185c-1.43065,-3.1719 -3.06366,-6.23086 -4.89904,-9.17686c-2.24951,-3.60487 -4.78609,-6.97441 -7.60974,-10.10867c-1.94832,-2.14597 -3.93428,-4.24489 -5.95791,-6.29673c-0.06589,-0.06589 -0.11295,-0.14119 -0.14119,-0.22589c0,-0.02824 0.00941,-0.05177 0.02824,-0.07059c0.20707,-0.29177 0.49885,-0.35766 0.87533,-0.19766c3.31308,1.30829 6.52263,2.84247 9.62865,4.60255c2.11774,1.19535 4.22606,2.40481 6.32497,3.62839c2.58834,1.49654 5.12963,3.05424 7.62386,4.67314c0.16045,0.10548 0.32046,0.20902 0.48002,0.3106c2.22542,1.47216 4.41375,2.95457 6.56499,4.44725c-0.25412,-0.3859 -0.50826,-0.7718 -0.76239,-1.15769c-1.26123,-1.97656 -2.68717,-3.83546 -4.27783,-5.57671c-2.69188,-2.92719 -5.52965,-5.71319 -8.51331,-8.358c-3.27543,-2.89895 -6.70147,-5.60494 -10.27808,-8.118c-3.85899,-2.72011 -7.83092,-5.22375 -11.91581,-7.51091c-1.49654,-0.83768 -3.04954,-1.47301 -4.65902,-1.90596c-0.75297,-0.21648 -1.13887,-0.63062 -1.15769,-1.24241c-0.01882,-0.44237 0.20237,-0.60709 0.66356,-0.49414c8.48036,1.89185 17.02661,2.47539 25.63875,1.75066c2.61658,-0.21648 5.17669,-0.72473 7.68033,-1.52477c1.393,-0.47061 2.77188,-1.01181 4.13665,-1.6236c-0.75297,-0.11295 -1.50595,-0.22589 -2.25892,-0.33885c-0.51786,-0.07438 -1.03552,-0.14967 -1.55301,-0.22589c-2.88546,-0.43325 -5.76087,-0.91328 -8.62625,-1.44006c-4.44255,-0.7718 -8.84743,-1.69419 -13.21468,-2.76718c-2.31539,-0.54591 -4.55078,-1.27535 -6.70617,-2.18833c-1.57183,-0.67767 -3.12954,-1.393 -4.67314,-2.14597c-0.47356,-0.23394 -0.95357,-0.47866 -1.44006,-0.73414c0.24001,-0.05242 0.47531,-0.10419 0.70591,-0.1553c-2.16425,-1.1452 -6.29619,-3.0088 -12.39582,-5.59083c-5.35553,-2.26833 -9.47805,-4.36254 -12.36758,-6.28262c-0.27295,-0.17883 -0.40943,-0.35766 -0.40943,-0.53649c0.00941,-0.21648 0.1553,-0.33885 0.43767,-0.36707c0.24471,-0.02824 0.49414,0.01412 0.74826,0.12707c3.15308,1.50595 6.46145,2.60717 9.92513,3.30367c3.44486,0.68708 6.91794,0.95063 10.41927,0.79063c-3.13271,-0.36038 -6.41285,-1.17925 -9.84042,-2.45658c-0.05887,-0.02308 -0.12004,-0.04662 -0.18354,-0.07059c-2.84247,-1.0824 -5.97672,-2.56482 -9.40275,-4.44725c-1.12004,-0.62121 -4.10841,-2.36716 -8.96509,-5.23787c-3.66133,-2.15538 -6.69676,-3.82134 -9.10626,-4.99786c-4.28243,-2.10376 -9.03087,-3.93913 -14.24532,-5.50611c-0.68885,-0.19898 -1.38536,-0.39664 -2.08951,-0.59297c-4.89433,-1.36476 -10.5981,-2.60717 -17.11131,-3.72722c-0.19427,-0.03409 -0.37311,-0.06703 -0.53649,-0.09883c-0.27428,-0.0589 -0.49546,-0.11537 -0.66356,-0.16942c-0.44237,-0.13177 -0.80474,-0.3153 -1.08711,-0.55061c0.32001,-0.26354 0.74356,-0.41884 1.27064,-0.4659c0.35766,-0.02824 0.82827,0 1.41183,0.08471c7.14552,0.95305 13.89405,2.44959 20.24557,4.48961c5.76176,1.84563 11.19728,4.13749 16.30658,6.87558M240.68421,270.71022c-0.03272,0.02122 -0.07037,0.04004 -0.11295,0.05647c-0.1428,0.08821 -0.28869,0.17291 -0.43767,0.25412c-0.12394,0.07163 -0.25101,0.14221 -0.38119,0.21178c-1.50252,-2.16171 -2.96613,-4.35475 -4.39077,-6.5791c-0.23317,-0.37502 -0.46847,-0.7515 -0.70591,-1.12945c-1.99538,-3.20013 -4.06605,-6.37675 -6.21203,-9.52982c-0.6858,-0.99754 -1.37288,-1.99053 -2.06127,-2.97895c-1.28862,-1.8499 -2.5828,-3.68527 -3.88252,-5.50611c-1.76007,-2.45658 -3.55779,-4.88021 -5.39318,-7.2709c-2.07068,-2.66364 -4.21665,-5.25199 -6.43792,-7.76503c-1.79224,-2.02975 -3.66057,-3.9969 -5.60494,-5.90142c-0.60076,-0.57697 -1.20784,-1.15112 -1.82125,-1.72242c-0.0185,-0.01718 -0.03732,-0.03599 -0.05647,-0.05647c-2.58055,-2.38616 -5.29596,-4.57449 -8.14623,-6.56499c-2.88012,-2.00479 -5.90613,-3.76487 -9.07804,-5.28022c-1.71225,-0.80607 -3.4582,-1.52609 -5.23787,-2.16009c-0.45781,-0.15788 -0.91901,-0.31317 -1.38359,-0.4659c-1.39172,-0.35079 -2.90236,-0.66609 -4.53195,-0.94592c-0.41458,-0.07008 -0.94165,-0.15479 -1.58124,-0.25412c-1.42094,-0.20828 -3.3975,-0.48123 -5.92966,-0.81886c-3.09131,-0.40958 -6.15027,-0.84724 -9.17686,-1.313c-1.83755,-0.281 -3.66351,-0.57278 -5.47788,-0.87533c-0.96369,-0.16269 -1.92372,-0.32741 -2.88012,-0.49414c-1.79772,-0.32001 -3.14838,-0.60709 -4.05194,-0.86121c0.43314,0.00475 0.8661,0.00945 1.29888,0.01412c2.06101,0.04357 4.11756,0.12357 6.16968,0.24001c6.91243,0.39697 13.7786,1.23935 20.59852,2.52717c1.1306,0.21376 2.133,0.43024 3.00719,0.64944c0.96916,0.09354 1.93862,0.20177 2.90836,0.32473c0.26615,0.08082 0.52969,0.16081 0.79063,0.24001c0.7761,0.22696 1.54319,0.47168 2.30127,0.73414c1.40138,0.48388 2.78026,1.02507 4.13665,1.6236c2.63369,1.16273 5.17967,2.54162 7.63798,4.13665c0.62121,0.41413 1.24241,0.83768 1.86361,1.27064c2.92439,2.02116 5.63039,4.28007 8.118,6.77675c0.67495,0.67991 1.33381,1.37642 1.97656,2.08951c0.0475,0.05294 0.09456,0.10471 0.14119,0.1553c1.51264,1.69379 2.97623,3.43504 4.39077,5.22375c1.69419,2.12715 3.37426,4.28254 5.04021,6.46616c2.28716,3.00248 4.55078,6.04261 6.79087,9.12038c2.44717,3.36014 4.86139,6.725 7.24267,10.09455c1.7789,2.50364 3.52956,4.99786 5.25199,7.48267c0.47141,0.68213 0.94203,1.36451 1.41183,2.04714c0.77617,1.11865 1.55268,2.23869 2.32951,3.36014c0.70602,1.02773 1.42135,2.03953 2.14597,3.03542c-0.18868,0.11618 -0.38163,0.22912 -0.57885,0.33885z" fill="#000000"/><path d="M254.16715,242.33256c2.05185,3.0966 4.14606,6.16968 6.28262,9.21922c0.24442,0.34807 0.48914,0.69632 0.73414,1.04475c0.44874,0.63153 0.90052,1.25744 1.35535,1.87773c0.21089,0.29773 0.42266,0.58951 0.63532,0.87533c0.04761,-0.02621 0.09467,-0.05445 0.14119,-0.08471l0.72003,1.18593c0.56473,0.91298 1.02122,1.61418 1.36947,2.10362c0.15563,0.21884 0.33447,0.45884 0.53649,0.72003c0.18667,0.2499 0.39373,0.51815 0.62121,0.80474l2.99307,3.69898c0.24471,0.29177 0.44708,0.50355 0.60709,0.63532c0.24471,0.19766 0.49414,0.3106 0.74826,0.33885c0.1553,0.01882 0.27765,0.00471 0.36707,-0.04236l0.05647,0.18354c-5.69741,1.78405 -11.16588,3.27588 -16.40541,4.47549c-5.14845,1.17652 -8.68272,1.76478 -10.6028,1.76478c-0.54591,0 -1.38359,-0.14119 -2.51305,-0.42355h-0.55061v-0.33885c-0.72462,-0.99588 -1.43995,-2.0077 -2.14597,-3.03542c-0.77684,-1.12144 -1.55334,-2.24149 -2.32951,-3.36014c-0.4698,-0.68264 -0.9404,-1.36502 -1.41183,-2.04714c-1.72242,-2.48481 -3.47309,-4.97903 -5.25199,-7.48267c-2.38128,-3.36956 -4.7955,-6.73441 -7.24267,-10.09455c-2.24009,-3.07777 -4.50372,-6.11791 -6.79087,-9.12038c-1.66596,-2.18362 -3.34603,-4.33901 -5.04021,-6.46616c-1.41455,-1.78872 -2.87814,-3.52996 -4.39077,-5.22375c-0.04662,-0.05059 -0.09368,-0.10235 -0.14119,-0.1553c-0.64275,-0.71309 -1.3016,-1.40958 -1.97656,-2.08951c-2.4876,-2.49669 -5.1936,-4.75561 -8.118,-6.77675c-0.62121,-0.43296 -1.24241,-0.85651 -1.86361,-1.27064c-2.45831,-1.59503 -5.0043,-2.97391 -7.63798,-4.13665c-1.35638,-0.59852 -2.73527,-1.13972 -4.13665,-1.6236c-0.75808,-0.26247 -1.52518,-0.5072 -2.30127,-0.73414c-0.26093,-0.07919 -0.52447,-0.1592 -0.79063,-0.24001c-0.96975,-0.12295 -1.9392,-0.23119 -2.90836,-0.32473c-0.87419,-0.2192 -1.87659,-0.43568 -3.00719,-0.64944c-6.81992,-1.28782 -13.68611,-2.1302 -20.59852,-2.52717c-2.05211,-0.11644 -4.10867,-0.19644 -6.16968,-0.24001v-0.52238c-0.29968,-3.51276 -0.01732,-7.63999 0.84709,-12.3817c0.11199,-0.61204 0.23435,-1.23795 0.36707,-1.87773c0.34792,-1.67007 0.75264,-3.36897 1.21418,-5.09669c0.9685,-3.57239 2.18737,-7.26666 3.65662,-11.08282c0.83949,0.08291 1.67717,0.16762 2.51305,0.25412c4.52332,0.51003 9.00822,1.23476 13.45469,2.17421c5.50303,1.16726 10.94797,2.66849 16.33481,4.50372c10.66398,3.63309 20.71147,8.44271 30.14246,14.42885c2.10833,1.33653 3.73663,2.50835 4.88492,3.51544c0.53973,0.473 1.0527,0.96714 1.53889,1.48242c0.26398,0.29883 0.52752,0.59532 0.79063,0.88945c0.2956,0.3292 0.59209,0.65864 0.88945,0.98828c2.06127,2.28716 4.04724,4.63078 5.95791,7.03089c2.06127,2.60717 4.07076,5.27082 6.02849,7.99093c2.08009,2.88012 4.13194,5.7979 6.15556,8.75332c2.08951,3.05895 4.16018,6.13203 6.21203,9.21922c2.06127,3.10601 4.11782,6.20262 6.16968,9.28981z" fill="#cccccc"/><path d="M259.78621,113.17881c4.85667,2.87071 7.84504,4.61667 8.96509,5.23787c3.42603,1.88243 6.56028,3.36485 9.40275,4.44725c0.06349,0.02398 0.12467,0.0475 0.18354,0.07059c3.42757,1.27733 6.70771,2.0962 9.84042,2.45658c-3.50132,0.16001 -6.97441,-0.10353 -10.41927,-0.79063c-3.46368,-0.6965 -6.77205,-1.79772 -9.92513,-3.30367c-0.25412,-0.11295 -0.50355,-0.1553 -0.74826,-0.12707c-0.28236,0.02824 -0.42825,0.1506 -0.43767,0.36707c0,0.17883 0.13648,0.35766 0.40943,0.53649c2.88954,1.92008 7.01206,4.01429 12.36758,6.28262c6.09964,2.58203 10.23158,4.44562 12.39582,5.59083c-0.23059,0.0511 -0.4659,0.10287 -0.70591,0.1553c0.48649,0.25548 0.96651,0.50021 1.44006,0.73414c1.5436,0.75297 3.1013,1.4683 4.67314,2.14597c2.15538,0.91298 4.39077,1.64243 6.70617,2.18833c4.36725,1.07299 8.77215,1.99538 13.21468,2.76718c2.86538,0.52678 5.7408,1.00681 8.62625,1.44006c0.51748,0.07622 1.03516,0.15151 1.55301,0.22589c0.75297,0.11295 1.50595,0.22589 2.25892,0.33885c-1.36476,0.61179 -2.74364,1.15298 -4.13665,1.6236c-2.50364,0.80003 -5.06374,1.30829 -7.68033,1.52477c-8.61214,0.72473 -17.15837,0.14119 -25.63875,-1.75066c-0.4612,-0.11295 -0.68238,0.05177 -0.66356,0.49414c0.01882,0.61179 0.40472,1.02593 1.15769,1.24241c1.60947,0.43296 3.16249,1.06828 4.65902,1.90596c4.08488,2.28716 8.05682,4.79079 11.91581,7.51091c3.57663,2.51305 7.00265,5.21905 10.27808,8.118c2.98366,2.64482 5.82143,5.43082 8.51331,8.358c1.59065,1.74125 3.0166,3.60016 4.27783,5.57671c0.25412,0.3859 0.50826,0.7718 0.76239,1.15769c-2.15123,-1.49267 -4.33956,-2.97509 -6.56499,-4.44725c-0.15956,-0.10159 -0.31957,-0.20512 -0.48002,-0.3106c-2.49423,-1.61889 -5.03551,-3.1766 -7.62386,-4.67314c-2.09892,-1.22359 -4.20724,-2.43305 -6.32497,-3.62839c-3.10601,-1.76007 -6.31556,-3.29426 -9.62865,-4.60255c-0.37648,-0.16001 -0.66827,-0.09412 -0.87533,0.19766c-0.01882,0.01882 -0.02824,0.04236 -0.02824,0.07059c0.02824,0.08471 0.0753,0.16001 0.14119,0.22589c2.02361,2.05185 4.00959,4.15076 5.95791,6.29673c2.82365,3.13426 5.36023,6.50381 7.60974,10.10867c1.83537,2.94601 3.46839,6.00496 4.89904,9.17686c0.28236,0.63062 0.56944,1.26123 0.86121,1.89185c-2.08951,-2.23068 -4.22136,-4.40018 -6.39557,-6.50851c-2.35304,-2.30598 -4.72961,-4.58372 -7.12972,-6.83324c-2.16479,-2.01421 -4.35784,-3.99546 -6.5791,-5.94379c-2.82365,-2.46598 -5.73201,-4.78609 -8.72507,-6.9603c-0.35766,-0.27295 -0.70591,-0.25412 -1.04475,0.05647c-0.08471,0.08471 -0.1553,0.18354 -0.21178,0.29648l0.45178,0.67767l11.12518,9.48747c0.48943,0.3859 0.87062,0.82356 1.14357,1.313c0.20707,0.39531 0.42825,0.79533 0.66356,1.20006c1.12945,1.89185 2.27304,3.79781 3.43074,5.71789c1.7036,2.81424 3.44486,5.60494 5.22375,8.37212c1.38359,2.13657 2.81424,4.24018 4.29195,6.31085c1.4683,2.06127 2.96954,4.09429 4.50372,6.09908c1.24745,1.61434 2.5275,3.2097 3.84017,4.78609c0.70525,0.85338 1.42058,1.70047 2.14597,2.54129c0.42943,0.4955 0.86239,0.98964 1.29888,1.48242c1.31325,1.47543 2.65919,2.92961 4.03783,4.36254c0.64403,0.67337 1.29348,1.34164 1.94832,2.00479c-2.26958,4.37489 -4.87204,8.30918 -7.80739,11.80286c-4.55549,5.41199 -11.10635,11.4452 -19.6526,18.0996c-6.11122,4.76642 -15.40573,9.35485 -27.88355,13.7653c-2.27833,0.80573 -4.66431,1.60577 -7.15795,2.4001l-1.01652,-0.04236c0.03765,-0.12236 0.00941,-0.27295 -0.08471,-0.45178c-0.19766,-0.3859 -0.61179,-0.95063 -1.24241,-1.69419c-1.04689,-1.26153 -2.07282,-2.52746 -3.07777,-3.79781c-1.22281,-1.54934 -2.41345,-3.10704 -3.57192,-4.67314c-0.26023,-0.34461 -0.51906,-0.69286 -0.77651,-1.04475c-0.10717,-0.14166 -0.21071,-0.25461 -0.3106,-0.33885c-0.08512,-0.11743 -0.16982,-0.23508 -0.25412,-0.35295c-1.79387,-2.52856 -3.55865,-5.06514 -5.29435,-7.60974c-1.7789,-2.62599 -3.55779,-5.27551 -5.3367,-7.94857c-1.87302,-2.79541 -3.73663,-5.56729 -5.59083,-8.31565c-2.01421,-2.97425 -4.04724,-5.92025 -6.09908,-8.83802c-2.16479,-3.06836 -4.37666,-6.1132 -6.63558,-9.1345c-2.09892,-2.80483 -4.27312,-5.55318 -6.52263,-8.24505c-1.02703,-1.23079 -2.11413,-2.40731 -3.26132,-3.52956c-0.27346,-0.26645 -0.55583,-0.5347 -0.84709,-0.80474c-0.27406,-0.6333 -0.83409,-1.28274 -1.68008,-1.94832c-0.04629,-0.26571 -0.14982,-0.47277 -0.3106,-0.62121c-0.0657,-0.06133 -0.13158,-0.12251 -0.19766,-0.18354c0.00158,0.11669 0.0157,0.23435 0.04236,0.35295l-0.12707,0.02824c-11.36049,-7.80268 -22.2033,-13.40763 -32.52845,-16.81483c-2.24951,-0.74356 -4.81903,-1.49183 -7.70857,-2.2448c-1.60947,-0.42355 -4.20724,-1.06828 -7.79327,-1.9342c-0.97861,-0.23432 -1.88688,-0.45079 -2.72482,-0.64944c-2.00443,-0.4608 -3.58566,-0.80433 -4.74373,-1.03063c-2.786,-0.54591 -5.30846,-0.89886 -7.56738,-1.05887c-0.45789,-0.03037 -0.89555,-0.04919 -1.313,-0.05647c-1.06501,-0.0218 -1.99211,0.02996 -2.78129,0.1553c0.11269,-0.28751 0.22564,-0.57458 0.33885,-0.86121c2.42834,-6.13673 5.29435,-12.04286 8.59802,-17.7184c3.50132,-6.00496 7.25208,-11.33696 11.25224,-15.99598c6.08026,-7.08736 10.15572,-11.79345 12.2264,-14.11825c4.35784,-4.88492 8.16976,-8.87567 11.43579,-11.97227c3.61361,-3.4161 7.06317,-6.19269 10.34868,-8.32977c2.78372,-1.79717 5.44737,-3.13841 7.99093,-4.02371c0.27659,-0.09478 0.54954,-0.1842 0.81886,-0.26824c0.18633,-0.05963 0.36987,-0.11611 0.55061,-0.16942c0.16339,0.0318 0.34222,0.06474 0.53649,0.09883c6.51322,1.12004 12.21699,2.36245 17.11131,3.72722c0.70415,0.19633 1.40065,0.39399 2.08951,0.59297c5.21445,1.56698 9.96289,3.40235 14.24532,5.50611c2.40952,1.17652 5.44493,2.84247 9.10626,4.99786M273.04325,187.31374c1.5436,3.70839 3.95781,6.84736 7.24267,9.41687c2.53188,1.96714 4.92257,2.0848 7.17207,0.35295c0.24471,-0.17883 0.33414,-0.41413 0.26824,-0.70591c-0.6847,-3.19053 -2.12006,-5.97654 -4.30607,-8.358l0.32473,-0.28236c2.27992,2.59019 5.01415,3.90318 8.20271,3.93899c0.52708,-1.88243 0.04706,-3.53897 -1.44006,-4.96962c-1.47771,-1.43065 -2.9413,-2.87542 -4.39077,-4.3343c-1.36476,-1.36476 -2.79541,-2.05656 -4.29195,-2.07539c1.07299,0.88474 2.13657,1.7789 3.19072,2.68246c1.07299,0.91298 2.15068,1.7836 3.23308,2.61187c1.9295,1.45889 2.97895,3.29426 3.14838,5.50611c-3.28485,-0.52708 -6.0379,-2.16009 -8.25917,-4.89904c-1.33653,-1.65655 -2.66835,-1.96244 -3.99546,-0.91769c0.9318,0.83768 1.88714,1.65655 2.86601,2.45658c3.2472,2.61658 4.80491,5.71789 4.67314,9.30392c-2.12715,0.48943 -4.09429,0.09883 -5.90142,-1.17181c-3.29426,-2.33422 -5.84966,-5.28022 -7.6662,-8.83802c-0.0753,0.11295 -0.09883,0.20707 -0.07059,0.28236M262.42632,192.59396c0.06118,0.56003 0.16942,1.11535 0.32473,1.66596c1.15769,4.14135 3.76016,6.50381 7.80739,7.08736c0.2353,0 0.47061,0.00471 0.70591,0.01412c0.90357,-0.09412 1.33182,-0.59297 1.28476,-1.49654c-0.18825,-3.85899 -1.48242,-7.4262 -3.88252,-10.70163l-0.76239,-0.14119c1.26123,3.48251 2.33892,7.01677 3.23308,10.6028c-0.33885,0.10353 -0.67767,0.08942 -1.01652,-0.04236c-3.94369,-1.47771 -6.52263,-4.36254 -7.73681,-8.65449c-0.03294,0.56003 -0.01882,1.11535 0.04236,1.66596M256.84961,196.71649c0.21648,-0.00941 0.41884,-0.04706 0.60709,-0.11295c0.72473,-0.3106 1.17652,-0.87533 1.35535,-1.69419c0.16942,-0.80944 0.44237,-1.5436 0.81886,-2.20244l-0.14119,-0.42355c-0.40472,0.16942 -0.62121,0.44708 -0.64944,0.83297c-0.03765,0.63062 -0.16472,1.21888 -0.38119,1.76478c-0.26354,0.67767 -0.75297,1.05887 -1.4683,1.14357c-1.53419,-1.20476 -2.74364,-2.68717 -3.62839,-4.44725l-0.42355,0.12707c0.11295,0.32001 0.22589,0.64474 0.33885,0.97416c0.63062,1.87302 1.82125,3.21896 3.57192,4.03783z" fill="#ffffff"/></g></g></svg>