<svg version="1.1" xmlns="http://www.w3.org/2000/svg" xmlns:xlink="http://www.w3.org/1999/xlink" width="38.12211" height="30.66027" viewBox="0,0,38.12211,30.66027"><g transform="translate(-224.07767,-162.11845)"><g data-paper-data="{&quot;isPaintingLayer&quot;:true}" fill-rule="nonzero" stroke="none" stroke-width="1" stroke-linecap="butt" stroke-linejoin="miter" stroke-miterlimit="10" stroke-dasharray="" stroke-dashoffset="0" style="mix-blend-mode: normal"><path d="M248.04311,163.15433c0.29724,0.05411 0.60212,0.12235 0.91464,0.20477c-0.07196,-0.00612 -0.14022,-0.01521 -0.20477,-0.0273c-0.18412,-0.03288 -0.42074,-0.09203 -0.70986,-0.17747M253.74936,177.92506l0.28667,-0.87369c0.03641,-0.10921 0.08646,-0.19568 0.15017,-0.25936c0.07281,-0.08191 0.15017,-0.10921 0.23206,-0.08191c-0.14561,0.83728 -0.40499,1.62906 -0.77812,2.37533l-0.30032,0.60067c-0.12742,0.23661 -0.26392,0.42774 -0.40953,0.57336c-0.10011,0.09101 -0.30032,0.22751 -0.60067,0.40953c-0.26392,0.15472 -0.45049,0.30032 -0.55971,0.43683c-0.14561,0.26392 -0.26847,0.45049 -0.36858,0.55971c-0.07281,0.07281 -0.23661,0.17747 -0.49145,0.31398c-0.35493,0.18202 -0.69167,0.41863 -1.01021,0.70986c-0.24572,0.22751 -0.44138,0.38223 -0.58702,0.46414c-0.23661,0.13652 -0.45504,0.16836 -0.65526,0.09556c0.025,-0.02279 0.04775,-0.04554 0.06826,-0.06826c0.80275,-0.71882 1.66735,-1.365 2.59376,-1.9385c0.04551,-0.19112 0.16382,-0.36858 0.35493,-0.53241c0.0182,-0.0091 0.20477,-0.14106 0.55971,-0.39588c0.38223,-0.26392 0.70531,-0.61432 0.96925,-1.05115c0.15472,-0.27302 0.33673,-0.71897 0.54606,-1.33783M252.57534,169.51688c-1.26435,-0.28368 -2.56577,-0.4384 -3.90427,-0.46414c0.09926,0.0855 0.19482,0.17196 0.28667,0.25936c0.57336,0.54606 1.00565,1.17401 1.29687,1.88388c0.23661,0.56426 0.39133,1.18765 0.46414,1.87024c0.17292,1.45614 0.00455,2.90317 -0.5051,4.34112c-0.50965,1.42884 -1.29687,2.65746 -2.36168,3.68587c-0.1543,0.14864 -0.31811,0.29425 -0.49145,0.43683c-1.18578,0.99516 -2.74658,1.82335 -4.6824,2.48453c-2.63926,0.73718 -4.60504,1.29687 -5.89737,1.67911c-1.20131,0.36403 -2.39352,0.78723 -3.57665,1.26957c-3.23991,1.31052 -5.76086,2.92593 -7.56284,4.84622c-0.19112,0.20022 -0.39133,0.34128 -0.60067,0.42319c-0.11569,0.04284 -0.22033,0.05649 -0.31398,0.04096c0.01596,0.17231 0.03416,0.34068 0.0546,0.5051c-0.30943,-0.19112 -0.50965,-0.57336 -0.60067,-1.14671c-0.16382,-0.9465 -0.13197,-2.00218 0.09556,-3.16711c0.15472,-0.82819 0.37417,-2.42265 0.82012,-3.65127c0.89188,-2.45723 1.43859,-4.21788 2.44878,-5.92883c1.25591,-2.1296 2.37494,-4.0205 4.00399,-5.34923c0.69167,-0.56426 2.33269,-2.24102 3.95263,-3.25122c1.61996,-1.0011 3.05126,-1.30208 3.97044,-1.71161c2.02012,-0.33987 2.5913,-0.93388 4.70555,-1.05427c2.0334,-0.19216 3.11002,-0.03601 4.76639,0.06411c1.65636,0.10921 3.27176,0.72391 4.84622,1.19716c0.50055,0.14561 0.90554,0.33673 1.21497,0.57336c0.39133,0.30032 0.58702,0.65071 0.58702,1.05115c-1.1285,-0.39133 -2.13415,-0.68711 -3.01694,-0.88734M225.65494,186.38888c-0.6783,2.08058 -0.99228,3.92807 -0.94195,5.54244c0.97835,-1.08357 2.17966,-2.08467 3.60395,-3.00329c1.24682,-0.79178 2.75303,-1.57446 4.51859,-2.34803c1.38333,-0.61886 2.86678,-1.19676 4.45033,-1.73372c0.27956,-0.09432 0.61175,-0.20352 0.99655,-0.32762l2.19786,-2.1842c0.87369,-0.87369 1.47434,-1.52895 1.80198,-1.96579c0.29122,-0.37313 0.5051,-0.72807 0.64162,-1.06481c0.06371,-0.15472 0.12742,-0.35493 0.19112,-0.60067c0.06371,-0.26392 0.11376,-0.46414 0.15017,-0.60067l0.34128,-1.05115c0.11831,-0.40044 0.18202,-0.62797 0.19112,-0.68256c0.0546,-0.26392 0.07281,-0.60522 0.0546,-1.02385l-0.01366,-1.5426c0,-0.41863 -0.01366,-0.73262 -0.04096,-0.94195c-0.08191,-0.49145 -0.24117,-0.96014 -0.47779,-1.40608c-0.21842,-0.40044 -0.48234,-0.75993 -0.79178,-1.07846c-0.10011,-0.11831 -0.14106,-0.21387 -0.12286,-0.28667c0.0273,-0.09101 0.10011,-0.13197 0.21842,-0.12286c0.10011,0.0091 0.19568,0.05005 0.28667,0.12286c0.45504,0.35493 0.73262,0.65526 0.83273,0.90099c0.06371,0.13652 0.13652,0.35493 0.21842,0.65526c0.0273,0.06371 0.10467,0.19112 0.23206,0.38223c0.09101,0.15472 0.15017,0.28667 0.17747,0.39588c0.0182,0.08191 0.02275,0.22751 0.01366,0.43683c-0.0091,0.18202 0.00455,0.32307 0.04096,0.42319c0.0091,0.0273 0.04551,0.10467 0.10921,0.23206c0.03641,0.09101 0.05916,0.16836 0.06826,0.23206c0.0091,0.07281 -0.00455,0.15017 -0.04096,0.23206c-0.0182,0.04551 -0.05005,0.11376 -0.09556,0.20477c-0.06371,0.18202 -0.09556,0.41408 -0.09556,0.69622c0.0091,0.16382 0.0182,0.40499 0.0273,0.72352c-0.0091,0.30943 -0.09556,0.75537 -0.25936,1.33783l-0.55971,1.9385c-0.12742,0.43683 -0.25936,0.74627 -0.39588,0.92829c-0.06371,0.08191 -0.15472,0.18202 -0.27302,0.30032c-0.14561,0.13652 -0.24117,0.23206 -0.28667,0.28667c-0.20932,0.29122 -0.36858,0.50965 -0.47779,0.65526c-0.17292,0.23661 -0.51421,0.61886 -1.02385,1.14671l-2.1023,2.075c0.5024,-0.15205 1.06665,-0.32496 1.69277,-0.51876c1.35603,-0.44594 2.47999,-0.85549 3.37187,-1.22861c1.28322,-0.53696 2.27521,-1.1103 2.97598,-1.72007c1.27412,-1.09211 2.1114,-2.5528 2.51185,-4.38208c0.29122,-1.31052 0.26847,-2.51639 -0.06826,-3.61761c-0.18202,-0.60067 -0.45504,-1.14215 -0.81908,-1.62451c-0.38223,-0.50965 -0.83273,-0.91009 -1.35148,-1.20131c-0.26392,-0.13652 -0.45959,-0.24117 -0.58702,-0.31398c-0.21999,-0.132 -0.3838,-0.27305 -0.49145,-0.42319c-1.22428,0.12029 -2.43925,0.34327 -3.64491,0.66892c-0.53262,0.14252 -1.06501,0.30633 -1.59721,0.49145c-2.81218,0.98289 -5.37862,2.45723 -7.69934,4.42302c-2.32983,1.96579 -4.20915,4.25011 -5.638,6.85296c-0.79178,1.45614 -1.46524,3.02605 -2.02039,4.70971M252.15215,163.05879c-0.89188,-0.07281 -1.70186,-0.10467 -2.42992,-0.09556c-0.42294,0.00597 -0.98264,0.03782 -1.67911,0.09556c-0.36076,0.0407 -0.7612,0.08621 -1.20131,0.13652c-2.09319,0.23661 -3.63581,0.50055 -4.62779,0.79178c-1.70186,0.48234 -3.59031,1.39699 -5.6653,2.74392c-0.45504,0.28212 -0.69167,0.43229 -0.70986,0.45049c-0.28212,0.16382 -0.53696,0.28212 -0.76448,0.35493c0.12742,-0.37313 0.38678,-0.71442 0.77812,-1.02385c0.27302,-0.20932 0.66436,-0.44594 1.17401,-0.70986c2.51185,-1.27412 4.72791,-2.19786 6.6482,-2.77122c2.51185,-0.75537 4.85532,-1.04205 7.03042,-0.86003c0.41863,0.03641 1.04205,0.09101 1.87024,0.16382c0.14561,0.0091 0.56426,0.00455 1.25591,-0.01366c0.50965,-0.0091 0.92829,0.0091 1.25591,0.0546c0.9647,0.13652 1.97033,0.56881 3.01694,1.29687c1.73827,1.19221 2.96688,2.65746 3.68587,4.39572c0.37313,0.93739 0.49145,1.75648 0.35493,2.45723c-0.16382,0.75537 -0.61432,1.44704 -1.35148,2.075c-0.45504,0.38223 -1.16946,0.81908 -2.14326,1.31052l-0.77812,0.39588c0.24572,-0.33673 0.76448,-0.73718 1.55625,-1.20131c0.75537,-0.43683 1.25591,-0.85094 1.50164,-1.24227c0.44594,-0.72807 0.45049,-1.67456 0.01366,-2.83948c-0.31852,-0.88279 -0.79633,-1.70641 -1.43338,-2.47088c-0.60067,-0.72807 -1.31052,-1.36513 -2.1296,-1.91119c-0.89188,-0.59156 -1.81563,-1.00565 -2.77122,-1.24227c-0.53696,-0.13652 -1.35603,-0.25027 -2.45723,-0.34128z" fill="#000000"/><path d="M246.25478,169.24283c0.10764,0.15013 0.27146,0.29119 0.49145,0.42319c0.12742,0.07281 0.32307,0.17747 0.58702,0.31398c0.51876,0.29122 0.96925,0.69167 1.35148,1.20131c0.36403,0.48234 0.63707,1.02385 0.81908,1.62451c0.33673,1.1012 0.35948,2.30707 0.06826,3.61761c-0.40044,1.82928 -1.23772,3.28996 -2.51185,4.38208c-0.70077,0.60977 -1.69277,1.18311 -2.97598,1.72007c-0.89188,0.37313 -2.01584,0.78268 -3.37187,1.22861c-0.62611,0.19379 -1.19037,0.3667 -1.69277,0.51876l2.1023,-2.075c0.50965,-0.52785 0.85094,-0.91009 1.02385,-1.14671c0.10921,-0.14561 0.26847,-0.36403 0.47779,-0.65526c0.04551,-0.0546 0.14106,-0.15017 0.28667,-0.28667c0.11831,-0.11831 0.20932,-0.21842 0.27302,-0.30032c0.13652,-0.18202 0.26847,-0.49145 0.39588,-0.92829l0.55971,-1.9385c0.16382,-0.58247 0.25027,-1.0284 0.25936,-1.33783c-0.0091,-0.31852 -0.0182,-0.55971 -0.0273,-0.72352c0,-0.28212 0.03185,-0.51421 0.09556,-0.69622c0.04551,-0.09101 0.07735,-0.15927 0.09556,-0.20477c0.03641,-0.08191 0.05005,-0.15927 0.04096,-0.23206c-0.0091,-0.06371 -0.03185,-0.14106 -0.06826,-0.23206c-0.06371,-0.12742 -0.10011,-0.20477 -0.10921,-0.23206c-0.03641,-0.10011 -0.05005,-0.24117 -0.04096,-0.42319c0.0091,-0.20932 0.00455,-0.35493 -0.01366,-0.43683c-0.0273,-0.10921 -0.08646,-0.24117 -0.17747,-0.39588c-0.12742,-0.19112 -0.20477,-0.31852 -0.23206,-0.38223c-0.08191,-0.30032 -0.15472,-0.51876 -0.21842,-0.65526c-0.10011,-0.24572 -0.37768,-0.54606 -0.83273,-0.90099c-0.09101,-0.07281 -0.18657,-0.11376 -0.28667,-0.12286l-0.01366,-0.0546c1.20565,-0.32564 2.42063,-0.5486 3.64491,-0.66892z" fill="#303030"/><path d="M235.33501,172.48107c3.12939,-1.88493 2.78464,-1.41846 5.67767,-2.15875c0.53219,-0.1851 1.06459,-0.26807 1.59721,-0.41058l0.01366,0.0546c-0.11831,-0.0091 -0.19112,0.03185 -0.21842,0.12286c-0.0182,0.07281 0.02275,0.16836 0.12286,0.28667c0.30943,0.31852 0.57336,0.67801 0.79178,1.07846c0.23661,0.44594 0.39588,0.91464 0.47779,1.40608c0.0273,0.20932 0.04096,0.52331 0.04096,0.94195l0.01366,1.5426c0.0182,0.41863 0,0.75993 -0.0546,1.02385c-0.0091,0.0546 -0.07281,0.28212 -0.19112,0.68256l-0.34128,1.05115c-0.03641,0.13652 -0.08646,0.33673 -0.15017,0.60067c-0.06371,0.24572 -0.12742,0.44594 -0.19112,0.60067c-0.13652,0.33673 -0.35037,0.69167 -0.64162,1.06481c-0.32762,0.43683 -0.92829,1.09211 -1.80198,1.96579l-2.19786,2.1842c-0.3848,0.12411 -0.71699,0.23332 -0.99655,0.32762c-1.58355,0.53696 -3.06699,1.11485 -4.45033,1.73372c-1.76557,0.77357 -3.27176,1.55625 -4.51859,2.34803c-1.42429,0.91862 -2.62561,1.91972 -3.60395,3.00329c-0.05033,-1.61438 0.26365,-3.46185 0.94195,-5.54244c0.55517,-1.68366 1.22861,-3.25357 2.02039,-4.70971c1.42884,-2.60286 1.44822,-4.07851 3.77806,-6.04429c0,0 0.24029,-0.19523 0.46796,-0.38022c0.61492,-0.49963 3.41364,-2.77359 3.41364,-2.77359z" fill="#141414"/></g></g></svg>