<svg version="1.1" xmlns="http://www.w3.org/2000/svg" xmlns:xlink="http://www.w3.org/1999/xlink" width="194.65357" height="117.9392" viewBox="0,0,194.65357,117.9392"><g transform="translate(-140.67322,-121.2804)"><g data-paper-data="{&quot;isPaintingLayer&quot;:true}" fill-rule="nonzero" stroke-width="1" stroke-miterlimit="10" stroke-dasharray="" stroke-dashoffset="0" style="mix-blend-mode: normal"><g stroke="none" stroke-linecap="butt" stroke-linejoin="miter"><path d="M154.26241,186.17363c3.67474,4.45423 7.54899,8.73214 11.62275,12.83374c1.85593,1.87449 3.74898,3.68402 5.67914,5.42859c1.70745,1.55898 3.42883,3.06692 5.16412,4.52383c0.25983,0.22271 0.52894,0.44542 0.80733,0.66813c2.93237,2.44055 5.95289,4.7883 9.06157,7.04325c2.54262,1.83737 5.13164,3.6005 7.76706,5.2894c0.49182,0.30623 0.979,0.61246 1.46154,0.91868c0.0464,0.02784 0.0928,0.05568 0.13919,0.08352c3.27571,2.03224 6.61639,3.99953 10.02201,5.90185c0.57534,0.31551 1.15067,0.63565 1.72601,0.96044c0.12063,0.07424 0.24591,0.14847 0.37583,0.22271c-0.81661,-0.05568 -1.51258,-0.10208 -2.08792,-0.13919c-0.13919,-0.07424 -0.27839,-0.14384 -0.41758,-0.20879c-1.93945,-1.03004 -3.86497,-2.08792 -5.77658,-3.17364c-2.04152,-1.15067 -4.06912,-2.31991 -6.08281,-3.5077c-0.96508,-0.57534 -1.93481,-1.15532 -2.90917,-1.73993c-0.74237,-0.4547 -1.48474,-0.91404 -2.22711,-1.37803c-2.0044,-1.27131 -3.95777,-2.59366 -5.86009,-3.96705c-2.90453,-2.06936 -5.71626,-4.25008 -8.43519,-6.54215c-0.00928,-0.00928 -0.01856,-0.01856 -0.02784,-0.02784c-2.83957,-2.37559 -5.56314,-4.83469 -8.17072,-7.37732c-2.57974,-2.52406 -5.07133,-5.1502 -7.47475,-7.87842c-2.42199,-2.72821 -4.75118,-5.54459 -6.98757,-8.44911c-0.47326,-0.62174 -0.94188,-1.24347 -1.40587,-1.86521c0.02784,-0.01856 0.06032,-0.03712 0.09744,-0.05568c-0.35263,-0.5011 -0.63102,-0.90012 -0.83517,-1.19707c-0.37118,-0.51966 -1.0486,-1.38267 -2.03224,-2.58902c-0.16703,-0.20415 -0.32943,-0.40366 -0.48718,-0.59854c-0.64957,-0.81661 -1.15532,-1.48938 -1.51722,-2.01832c-0.43614,-0.65886 -1.03468,-1.68426 -1.79561,-3.0762l-1.19707,-2.22711c-0.89085,-1.65178 -1.47546,-2.87205 -1.75385,-3.66082c-0.0464,-0.13919 -0.04176,-0.23199 0.01392,-0.27839c0.20415,0.25055 0.40366,0.50574 0.59854,0.76557c0.21343,0.25983 0.42222,0.52894 0.62638,0.80733l0.01392,0.01392c0.56591,0.73708 1.11805,1.48409 1.65642,2.24103c0.90904,1.26047 1.78597,2.55034 2.63078,3.86961c0.43614,0.68669 0.73309,1.14604 0.89085,1.37803c0.30623,0.44542 0.73773,1.01148 1.29451,1.69817c0.23199,0.28767 0.48718,0.59854 0.76557,0.9326c0.96508,1.16923 1.65178,2.04616 2.06008,2.63078c0.05568,0.07424 0.17631,0.25983 0.36191,0.55678c0.01856,-0.01856 0.03712,-0.02784 0.05568,-0.02784c0.84445,1.08572 1.70745,2.15752 2.58902,3.2154M241.06418,224.25728c-0.88157,-0.49182 -1.76777,-0.98364 -2.65862,-1.47546c-2.03224,-1.1414 -4.06448,-2.29671 -6.09672,-3.46595c-2.98804,-1.73529 -5.95753,-3.52626 -8.90846,-5.37291c-3.10868,-1.94872 -6.18488,-3.97633 -9.2286,-6.08281c-2.91381,-2.0044 -5.75802,-4.07376 -8.53263,-6.20808c-2.83957,-2.16216 -5.59098,-4.38927 -8.25424,-6.68134c-2.40343,-2.06008 -4.74654,-4.20368 -7.02933,-6.43079c-2.65398,-2.57046 -5.20588,-5.25228 -7.6557,-8.04545c-2.18071,-2.5055 -4.32431,-5.05277 -6.43079,-7.64179c-1.23419,-1.51258 -2.45447,-3.04372 -3.66082,-4.59342c-0.03712,-0.03712 -0.0696,-0.07424 -0.09744,-0.11136c0.07424,-0.05568 0.14847,-0.10671 0.22271,-0.15311c-0.11136,-0.12992 -0.32015,-0.36191 -0.62638,-0.69597c-0.32479,-0.35263 -0.70525,-0.81661 -1.1414,-1.39195c-0.65527,-0.84851 -1.31876,-1.73471 -1.99048,-2.65862c-0.637,-0.88316 -1.28193,-1.80185 -1.93481,-2.75605c-0.51966,-0.77021 -0.97436,-1.46154 -1.36411,-2.074c-0.29695,-0.48254 -0.55678,-0.91868 -0.77949,-1.30843c-0.02784,-0.05568 -0.05104,-0.11136 -0.0696,-0.16703c-0.10208,-0.20415 -0.15311,-0.38047 -0.15311,-0.52894c0,-0.12992 0.04176,-0.24591 0.12528,-0.34799c0.07424,-0.10208 0.17167,-0.15311 0.29231,-0.15311c0.15775,0.18559 0.32015,0.39439 0.48718,0.62638c0.31551,0.40831 0.66813,0.89085 1.05788,1.44762c0.07424,0.12063 0.15311,0.24591 0.23663,0.37583l1.28059,1.89305c0.67379,0.98767 1.28161,1.85995 1.82345,2.61686c0.66342,0.9309 1.22948,1.69183 1.69817,2.28279l0.86301,1.0718c0.38974,0.49182 0.76093,0.98828 1.11356,1.48938c0.27839,0.38974 0.55214,0.78413 0.82125,1.18315c0.06496,0.12992 0.12063,0.24127 0.16703,0.33407c1.31771,1.67034 2.64934,3.32211 3.99489,4.95533c2.27351,2.77461 4.61198,5.47035 7.01541,8.08721c2.13432,2.34775 4.32895,4.63518 6.58391,6.8623c2.57974,2.5519 5.27548,4.98781 8.08721,7.30772c2.72821,2.24567 5.52139,4.41247 8.37952,6.50039c2.56118,1.85593 5.16876,3.66082 7.82274,5.41467c2.90453,1.90233 5.84617,3.75361 8.82494,5.55387c3.03444,1.83737 6.07816,3.64226 9.13117,5.41467c2.03224,1.17851 4.06912,2.34775 6.11064,3.5077c1.02076,0.58462 2.04616,1.16459 3.0762,1.73993c3.22932,1.82809 6.46327,3.67474 9.70187,5.53995c1.20635,0.69597 2.39879,1.39659 3.5773,2.10184c-0.37118,-0.01856 -0.74237,-0.03248 -1.11356,-0.04176c-1.79097,-0.93724 -3.58658,-1.88841 -5.38683,-2.85349c-3.13652,-1.67034 -6.26376,-3.35923 -9.38172,-5.06668M237.33376,125.08111c0.40214,0.40037 0.80581,0.79939 1.21099,1.19707c0.07424,0.08352 0.15311,0.16703 0.23663,0.25055c1.6425,1.62394 3.28499,3.20612 4.92749,4.74654c0.00928,0.00928 0.0232,0.01856 0.04176,0.02784c0.08352,-0.03712 0.17167,-0.07424 0.26447,-0.11136c2.56118,2.44983 5.23372,4.7651 8.01761,6.94581c2.6911,2.0972 5.42395,4.13872 8.19856,6.12456c6.71846,4.79757 13.54828,9.40492 20.48945,13.82203c2.94165,1.86521 5.91113,3.6701 8.90846,5.41467c2.97877,1.72601 5.99465,3.40563 9.04765,5.03885c2.61686,1.40122 5.243,2.75141 7.87842,4.05056c2.40343,1.1878 4.81149,2.34311 7.2242,3.46595c1.84665,0.86301 3.68866,1.71673 5.52603,2.56118c0.24127,0.10208 0.4779,0.20879 0.70989,0.32015c1.25275,0.56606 2.51014,1.13212 3.77217,1.69817c-0.00928,0.37118 -0.00928,0.73773 0,1.09964c-0.4547,-0.16703 -0.90941,-0.33871 -1.36411,-0.51502c-1.02076,-0.39902 -2.04152,-0.80269 -3.06228,-1.21099c-2.9602,-1.20635 -5.89721,-2.49158 -8.81102,-3.85569c-2.5055,-1.1878 -5.00173,-2.39415 -7.48867,-3.61906c-2.6911,-1.31771 -5.36827,-2.6911 -8.03153,-4.12016c-3.33139,-1.77241 -6.62102,-3.61906 -9.8689,-5.53995c-2.95093,-1.73529 -5.87865,-3.5077 -8.78318,-5.31723c-8.50943,-5.30796 -16.74975,-11.00102 -24.72097,-17.07918c-3.25715,-2.48694 -6.37511,-5.127 -9.35388,-7.92017c-0.03712,-0.02784 -0.0696,-0.05104 -0.09744,-0.0696c-0.12063,-0.12992 -0.24591,-0.25055 -0.37583,-0.36191c0.07424,-0.03712 0.14384,-0.0696 0.20879,-0.09744c-1.89305,-1.79097 -3.43811,-3.27107 -4.63518,-4.44031c-0.38974,-0.38974 -0.73773,-0.73773 -1.04396,-1.04396c-0.0928,-0.0928 -0.18095,-0.18095 -0.26447,-0.26447c-0.04357,-0.04357 -0.08997,-0.08997 -0.13919,-0.13919c-0.55207,-0.55544 -1.00677,-1.03798 -1.36411,-1.44762c-0.08993,-0.09446 -0.17345,-0.18726 -0.25055,-0.27839c-0.05568,-0.05568 -0.10208,-0.11136 -0.13919,-0.16703c-0.30623,-0.35263 -0.57534,-0.69597 -0.80733,-1.03004c-0.19487,-0.28767 -0.37118,-0.5707 -0.52894,-0.84909c-0.26911,-0.47326 -0.28303,-0.80733 -0.04176,-1.0022c0.14847,-0.10208 0.34335,-0.11136 0.58462,-0.02784c0.28767,0.10208 0.62638,0.36655 1.01612,0.79341c0.06496,0.06496 0.12992,0.12992 0.19487,0.19487c0.30623,0.31551 0.6171,0.63565 0.9326,0.96044c0.10084,0.10273 0.20292,0.20481 0.30623,0.30623c0.48899,0.49976 0.98082,0.99622 1.47546,1.48938M274.56833,167.46587c3.89745,1.08572 7.21492,3.22467 9.95242,6.41687c0.47326,0.55678 0.77485,1.19707 0.90477,1.92089l-0.70989,-0.18095c-0.33407,-0.32479 -0.57534,-0.70525 -0.72381,-1.1414c-0.05568,-0.15775 -0.10208,-0.31551 -0.13919,-0.47326c-2.6911,-2.77461 -5.80906,-4.84397 -9.35388,-6.20808l0.0696,-0.33407M271.58956,173.04758c0.56606,0.02784 1.05788,0.21343 1.47546,0.55678c0.15775,0.12063 0.31551,0.24127 0.47326,0.36191c2.0044,1.5961 4.22224,2.41271 6.6535,2.44983c0.07424,0 0.14847,-0.00928 0.22271,-0.02784c0.05568,0.0928 0.10208,0.18559 0.13919,0.27839c0.01856,0.0464 0.03712,0.09744 0.05568,0.15311c0.00928,0.03712 0.01392,0.08352 0.01392,0.13919c0,0.05568 -0.00464,0.116 -0.01392,0.18095c-0.00928,0.0464 -0.0232,0.0928 -0.04176,0.13919c-0.01856,0.03712 -0.03712,0.07424 -0.05568,0.11136c-0.02784,0.0464 -0.05568,0.0928 -0.08352,0.13919l-4.67694,-1.55898c2.17144,1.97656 2.41735,3.72114 0.73773,5.23372c-0.16703,0.14847 -0.38047,0.22271 -0.6403,0.22271c-3.06228,0.03712 -5.25228,-1.37339 -6.56999,-4.23152c2.0508,2.46839 4.43103,3.41027 7.14068,2.82565c0.28767,-0.08352 0.35727,-0.27375 0.20879,-0.5707c-1.25275,-2.57974 -3.1458,-4.63518 -5.67914,-6.16632c0.20415,-0.08352 0.41758,-0.16239 0.6403,-0.23663M286.72002,165.60066c-0.84445,1.01148 -1.93016,1.33627 -3.25715,0.97436c-1.12284,-0.27839 -2.23639,-0.63565 -3.34067,-1.0718c-0.40831,-0.16703 -0.81197,-0.33407 -1.21099,-0.5011l0.11136,-0.26447l5.05277,1.39195l2.04616,-0.65421c-1.31771,-0.93724 -2.75141,-1.71673 -4.30111,-2.33847c-2.43127,-0.97436 -4.89965,-1.84201 -7.40515,-2.60294l0.0696,-0.32015c1.31771,0.07424 2.63078,0.35263 3.93921,0.83517c2.96949,1.1414 5.74874,2.57046 8.33776,4.28719c0.06496,0.0464 0.05104,0.13455 -0.04176,0.26447M208.08897,230.04778c2.33847,1.30843 4.6723,2.62614 7.00149,3.95313l3.24323,1.82345c-2.97877,-1.27131 -5.89721,-2.63078 -8.75534,-4.0784c-1.20635,-0.60318 -2.39879,-1.21563 -3.5773,-1.83737c0.57534,0.03712 1.27131,0.08352 2.08792,0.13919M256.94629,232.21921c0.01856,0.00928 0.0464,0.0232 0.08352,0.04176c1.55898,0.91868 3.10868,1.85593 4.6491,2.81173c0.49182,0.30623 0.98364,0.61246 1.47546,0.91868l-4.84397,-2.51942c-0.81661,-0.42686 -1.63322,-0.85373 -2.44983,-1.28059c-0.00928,0 -0.01856,-0.00464 -0.02784,-0.01392c0.37118,0.00928 0.74237,0.0232 1.11356,0.04176M323.78755,180.63368c0.17631,0.08352 0.35263,0.16703 0.52894,0.25055c1.6889,0.75165 3.37779,1.5033 5.06668,2.25495c1.958,0.87229 3.93921,1.73993 5.94361,2.60294c-0.6403,-0.20415 -1.27131,-0.40831 -1.89305,-0.61246c-3.02516,-0.99292 -6.04105,-2.04616 -9.04765,-3.15972c-0.20415,-0.08352 -0.40366,-0.16239 -0.59854,-0.23663c-0.00928,-0.36191 -0.00928,-0.72845 0,-1.09964z" fill="#000000"/><path d="M250.48766,231.9965c-5.51211,-0.20415 -11.74339,-0.46398 -18.69384,-0.77949c-11.37684,-0.51966 -19.27846,-0.90941 -23.70485,-1.16923c-0.12992,-0.07424 -0.25519,-0.14847 -0.37583,-0.22271c-0.57534,-0.32479 -1.15067,-0.64494 -1.72601,-0.96044c-3.40563,-1.90233 -6.7463,-3.86961 -10.02201,-5.90185c-0.0464,-0.02784 -0.0928,-0.05568 -0.13919,-0.08352c-0.48254,-0.30623 -0.96972,-0.61246 -1.46154,-0.91868c-2.63542,-1.6889 -5.22444,-3.45203 -7.76706,-5.2894c-3.10868,-2.25495 -6.1292,-4.6027 -9.06157,-7.04325c-0.27839,-0.22271 -0.5475,-0.44542 -0.80733,-0.66813c-1.73529,-1.4569 -3.45667,-2.96485 -5.16412,-4.52383c-1.93016,-1.74457 -3.82321,-3.5541 -5.67914,-5.42859c-4.07376,-4.1016 -7.94801,-8.37952 -11.62275,-12.83374c-0.88157,-1.05788 -1.74457,-2.12968 -2.58902,-3.2154c-0.01856,0 -0.03712,0.00928 -0.05568,0.02784c-0.18559,-0.29695 -0.30623,-0.48254 -0.36191,-0.55678c-0.40831,-0.58462 -1.095,-1.46154 -2.06008,-2.63078c-0.27839,-0.33407 -0.53358,-0.64494 -0.76557,-0.9326c-0.55678,-0.68669 -0.98828,-1.25275 -1.29451,-1.69817c-0.15775,-0.23199 -0.4547,-0.69133 -0.89085,-1.37803c-0.84481,-1.31927 -1.72174,-2.60914 -2.63078,-3.86961c-0.53836,-0.75694 -1.0905,-1.50395 -1.65642,-2.24103c4.53774,-2.03224 10.88038,-5.07133 19.02791,-9.11725c1.55898,-0.73309 3.1226,-1.44762 4.69086,-2.1436c0.38974,0.61246 0.84445,1.30379 1.36411,2.074c0.65287,0.95421 1.29781,1.87289 1.93481,2.75605c0.67172,0.9239 1.33522,1.81011 1.99048,2.65862c0.43614,0.57534 0.81661,1.03932 1.1414,1.39195c0.30623,0.33407 0.51502,0.56606 0.62638,0.69597c-0.07424,0.0464 -0.14847,0.09744 -0.22271,0.15311c0.02784,0.03712 0.06032,0.07424 0.09744,0.11136c1.20635,1.5497 2.42663,3.08084 3.66082,4.59342c2.10648,2.58902 4.25008,5.13628 6.43079,7.64179c2.44983,2.79317 5.00173,5.47499 7.6557,8.04545c2.28279,2.22711 4.6259,4.37071 7.02933,6.43079c2.66326,2.29207 5.41467,4.51918 8.25424,6.68134c2.77461,2.13432 5.61882,4.20368 8.53263,6.20808c3.04372,2.10648 6.11992,4.13408 9.2286,6.08281c2.95093,1.84665 5.92041,3.63762 8.90846,5.37291c2.03224,1.16923 4.06448,2.32455 6.09672,3.46595c0.89085,0.49182 1.77705,0.98364 2.65862,1.47546c3.11796,1.70745 6.2452,3.39635 9.38172,5.06668z" fill="#cccccc"/><path d="M214.51976,136.6621c7.75778,-4.48207 14.31849,-8.62079 19.68212,-12.41616c0.03712,0.05568 0.08352,0.11136 0.13919,0.16703c0.0771,0.09113 0.16062,0.18393 0.25055,0.27839c0.35734,0.40964 0.81204,0.89219 1.36411,1.44762c0.04922,0.04922 0.09562,0.09562 0.13919,0.13919c0.08352,0.08352 0.17167,0.17167 0.26447,0.26447c0.30623,0.30623 0.65421,0.65421 1.04396,1.04396c1.19707,1.16923 2.74213,2.64934 4.63518,4.44031c-0.06496,0.02784 -0.13455,0.06032 -0.20879,0.09744c0.12992,0.11136 0.25519,0.23199 0.37583,0.36191c0.02784,0.01856 0.06032,0.04176 0.09744,0.0696c2.97877,2.79317 6.09672,5.43323 9.35388,7.92017c7.97121,6.07816 16.21153,11.77122 24.72097,17.07918c2.90453,1.80953 5.83225,3.58194 8.78318,5.31723c3.24788,1.92089 6.53751,3.76753 9.8689,5.53995c2.66326,1.42906 5.34043,2.80245 8.03153,4.12016c2.48694,1.22491 4.98317,2.43127 7.48867,3.61906c2.91381,1.36411 5.85082,2.64934 8.81102,3.85569c1.02076,0.40831 2.04152,0.81197 3.06228,1.21099c0.4547,0.17631 0.90941,0.34799 1.36411,0.51502c-0.02784,3.22932 0.0232,6.09208 0.15311,8.58831c0.36191,7.14533 1.05324,17.05598 2.074,29.73197c0.34335,4.30575 0.61246,7.90161 0.80733,10.78758c-2.83029,0.0464 -7.19636,0.28767 -13.09821,0.72381c-6.59783,0.48254 -12.14241,0.72381 -16.63376,0.72381c-16.6384,0.13919 -24.9808,0.20879 -25.02719,0.20879c-3.89745,0 -8.9363,-0.0928 -15.11654,-0.27839c-1.17851,-0.70525 -2.37095,-1.40587 -3.5773,-2.10184c-3.23859,-1.86521 -6.47255,-3.71186 -9.70187,-5.53995c-1.03004,-0.57534 -2.05544,-1.15532 -3.0762,-1.73993c-2.04152,-1.15996 -4.0784,-2.32919 -6.11064,-3.5077c-3.053,-1.77241 -6.09672,-3.5773 -9.13117,-5.41467c-2.97877,-1.80025 -5.92041,-3.65154 -8.82494,-5.55387c-2.65398,-1.75385 -5.26156,-3.55874 -7.82274,-5.41467c-2.85813,-2.08792 -5.6513,-4.25471 -8.37952,-6.50039c-2.81173,-2.31991 -5.50747,-4.75582 -8.08721,-7.30772c-2.25495,-2.22711 -4.44959,-4.51455 -6.58391,-6.8623c-2.40343,-2.61686 -4.7419,-5.31259 -7.01541,-8.08721c-1.34555,-1.63322 -2.67718,-3.28499 -3.99489,-4.95533c-0.0464,-0.0928 -0.10208,-0.20415 -0.16703,-0.33407c-0.26911,-0.39902 -0.54286,-0.79341 -0.82125,-1.18315c-0.35263,-0.5011 -0.72381,-0.99756 -1.11356,-1.48938l-0.86301,-1.0718c-0.46869,-0.59096 -1.03475,-1.35189 -1.69817,-2.28279c-0.54184,-0.75691 -1.14966,-1.62919 -1.82345,-2.61686l-1.28059,-1.89305l-0.18095,-0.40366c5.99465,-2.6447 12.04498,-5.01101 18.15098,-7.09893c4.63866,-1.58773 9.77494,-3.76844 15.40885,-6.54215c4.44698,-2.18282 9.20279,-4.73472 14.26745,-7.6557M286.76178,165.33619c-2.58902,-1.71673 -5.36827,-3.1458 -8.33776,-4.28719c-1.30843,-0.48254 -2.6215,-0.76093 -3.93921,-0.83517l-0.0696,0.32015c2.5055,0.76093 4.97389,1.62858 7.40515,2.60294c1.5497,0.62174 2.98341,1.40122 4.30111,2.33847l-2.04616,0.65421l-5.05277,-1.39195l-0.11136,0.26447c0.39902,0.16703 0.80269,0.33407 1.21099,0.5011c1.10428,0.43614 2.21784,0.79341 3.34067,1.0718c1.32699,0.36191 2.41271,0.03712 3.25715,-0.97436c0.0928,-0.12992 0.10671,-0.21807 0.04176,-0.26447M270.94927,173.28421c2.53334,1.53114 4.42639,3.58658 5.67914,6.16632c0.14847,0.29695 0.07888,0.48718 -0.20879,0.5707c-2.70965,0.58462 -5.08988,-0.35727 -7.14068,-2.82565c1.31771,2.85813 3.5077,4.26863 6.56999,4.23152c0.25983,0 0.47326,-0.07424 0.6403,-0.22271c1.67961,-1.51258 1.4337,-3.25715 -0.73773,-5.23372l4.67694,1.55898c0.02784,-0.0464 0.05568,-0.0928 0.08352,-0.13919c0.01856,-0.03712 0.03712,-0.07424 0.05568,-0.11136c0.01856,-0.0464 0.03248,-0.0928 0.04176,-0.13919c0.00928,-0.06496 0.01392,-0.12528 0.01392,-0.18095c0,-0.05568 -0.00464,-0.10208 -0.01392,-0.13919c-0.01856,-0.05568 -0.03712,-0.10671 -0.05568,-0.15311c-0.03712,-0.0928 -0.08352,-0.18559 -0.13919,-0.27839c-0.07424,0.01856 -0.14847,0.02784 -0.22271,0.02784c-2.43127,-0.03712 -4.6491,-0.85373 -6.6535,-2.44983c-0.15775,-0.12063 -0.31551,-0.24127 -0.47326,-0.36191c-0.41758,-0.34335 -0.90941,-0.52894 -1.47546,-0.55678c-0.22271,0.07424 -0.43614,0.15311 -0.6403,0.23663M283.85261,174.00802c0.03712,0.15775 0.08352,0.31551 0.13919,0.47326c0.14847,0.43614 0.38974,0.81661 0.72381,1.1414l0.70989,0.18095c-0.12992,-0.72381 -0.4315,-1.36411 -0.90477,-1.92089c-2.73749,-3.1922 -6.05497,-5.33115 -9.95242,-6.41687l-0.0696,0.33407c3.54482,1.36411 6.66278,3.43347 9.35388,6.20808z" fill="#ffffff"/></g><path d="M323.78755,180.63368c-0.00928,-0.08352 -0.00928,-0.17167 0,-0.26447c0.02784,-3.32211 0.00464,-5.40539 -0.0696,-6.24984M323.78755,181.73332c-0.02784,3.22932 0.0232,6.09208 0.15311,8.58831c0.36191,7.14533 1.05324,17.05598 2.074,29.73197c0.34335,4.30575 0.61246,7.90161 0.80733,10.78758c0.33407,-0.00928 0.64494,-0.01392 0.9326,-0.01392c0.11136,0 0.72845,-0.03248 1.85129,-0.09744c1.13212,-0.07424 1.93016,-0.11136 2.39415,-0.11136h0.20879M323.78755,180.63368c-0.00928,0.37118 -0.00928,0.73773 0,1.09964M208.08897,230.04778c4.42639,0.25983 12.328,0.64957 23.70485,1.16923c6.95045,0.31551 13.18173,0.57534 18.69384,0.77949M256.94629,232.21921c-0.37118,-0.01856 -0.74237,-0.03248 -1.11356,-0.04176c-1.69817,-0.05568 -3.47987,-0.116 -5.34507,-0.18095M256.94629,232.21921c6.18024,0.18559 11.21909,0.27839 15.11654,0.27839c0.0464,0 8.3888,-0.0696 25.02719,-0.20879c4.49135,0 10.03593,-0.24127 16.63376,-0.72381c5.90185,-0.43614 10.26792,-0.67741 13.09821,-0.72381c0.26911,4.02737 0.39902,6.6535 0.38974,7.87842M204.23328,229.9921c0.13919,0 0.20415,-0.0696 0.19487,-0.20879c0.36191,0.03712 0.8862,0.07888 1.5729,0.12528c0.57534,0.03712 1.27131,0.08352 2.08792,0.13919" fill="none" stroke-opacity="0.96863" stroke="#000000" stroke-linecap="round" stroke-linejoin="round"/></g></g></svg>