<svg version="1.1" xmlns="http://www.w3.org/2000/svg" xmlns:xlink="http://www.w3.org/1999/xlink" width="190.32224" height="174.30281" viewBox="0,0,190.32224,174.30281"><g transform="translate(-164.73938,-105.66087)"><g data-paper-data="{&quot;isPaintingLayer&quot;:true}" fill-rule="nonzero" stroke="none" stroke-width="1" stroke-linecap="butt" stroke-linejoin="miter" stroke-miterlimit="10" stroke-dasharray="" stroke-dashoffset="0" style="mix-blend-mode: normal"><path d="M248.86118,272.66448c0.65005,1.12367 1.30476,2.24734 1.9641,3.371c0.60362,1.03081 1.22118,2.05232 1.85266,3.06456c-0.2043,0.11144 -0.40861,0.22288 -0.61291,0.33432c-0.03715,0.01857 -0.0743,0.04178 -0.11144,0.06964c-0.15788,0.0743 -0.31574,0.15324 -0.47361,0.23681c-0.12073,0.0743 -0.2461,0.14858 -0.3761,0.22288c-1.29083,-2.18234 -2.53058,-4.38788 -3.71925,-6.61664c-0.2043,-0.38075 -0.40396,-0.7615 -0.59898,-1.14224c-1.67157,-3.21313 -3.41743,-6.40304 -5.23759,-9.56974c-0.58505,-1.00294 -1.1701,-2.00124 -1.75514,-2.99489c-1.09581,-1.86659 -2.2009,-3.70996 -3.31528,-5.53011c-1.50441,-2.47022 -3.04596,-4.90791 -4.62468,-7.31313c-1.79229,-2.67451 -3.66816,-5.27473 -5.62763,-7.80066c-1.56942,-2.04304 -3.22707,-4.01641 -4.97293,-5.92014c-0.53861,-0.58505 -1.08653,-1.16545 -1.64371,-1.74122c-0.00928,-0.01857 -0.02321,-0.03249 -0.04178,-0.04178c-2.32162,-2.4145 -4.79647,-4.62003 -7.42456,-6.61664c-2.65594,-2.01517 -5.47441,-3.78425 -8.45536,-5.30723c-1.61584,-0.81721 -3.27349,-1.53692 -4.97293,-2.15912c-0.43648,-0.16716 -0.87293,-0.32038 -1.30941,-0.45968c-1.34654,-0.36217 -2.80917,-0.6872 -4.38788,-0.97508c-0.40861,-0.065 -0.92401,-0.14395 -1.5462,-0.23681c-1.37441,-0.2136 -3.29671,-0.49218 -5.76692,-0.83578c-3.00883,-0.4179 -5.98515,-0.85899 -8.92897,-1.32332c-1.783,-0.27859 -3.55672,-0.57112 -5.32117,-0.87758c-0.93793,-0.15788 -1.87123,-0.32503 -2.79987,-0.50148c-1.74586,-0.31574 -3.05061,-0.60362 -3.91426,-0.86365c0.42718,0.00928 0.85436,0.01857 1.28153,0.02786c2.02446,0.03715 4.04428,0.11608 6.05944,0.23681c6.77915,0.39003 13.47472,1.2351 20.08671,2.53521c1.09581,0.2136 2.07088,0.43182 2.92525,0.6547c0.93793,0.09286 1.87587,0.2043 2.81381,0.33432c0.26002,0.0743 0.52004,0.14858 0.78007,0.22288c0.73363,0.23216 1.46262,0.47826 2.18698,0.73828c1.33725,0.4829 2.64666,1.03081 3.92818,1.64371c2.48877,1.1701 4.87078,2.5538 7.14597,4.15106c0.57576,0.4179 1.15153,0.84507 1.72729,1.28153c2.69309,2.03374 5.14937,4.3043 7.36884,6.81165c0.60362,0.67792 1.18867,1.37441 1.75514,2.08947c0.03715,0.065 0.07893,0.12536 0.12536,0.18108c1.33725,1.69014 2.61415,3.43601 3.83068,5.23759c1.47655,2.1359 2.93454,4.29966 4.37394,6.49127c1.96873,3.01811 3.91426,6.07337 5.83657,9.16577c2.09876,3.38029 4.16499,6.76057 6.19874,10.14086c1.52298,2.51664 3.01811,5.02399 4.48538,7.52206c0.39932,0.6872 0.80329,1.37441 1.21189,2.0616M265.9669,245.13929c1.50441,2.68379 3.00883,5.34439 4.51323,7.98174c1.46727,2.5538 2.97167,5.10293 4.51323,7.64744c0.065,0.13002 0.13466,0.25074 0.20894,0.36217c0.09286,0.08358 0.18573,0.19502 0.27859,0.33432c0.22288,0.35289 0.44575,0.71042 0.66863,1.07259c0.99366,1.56013 2.02446,3.1249 3.0924,4.69434c0.87293,1.26297 1.76444,2.53058 2.67451,3.80282c0.5479,0.74291 0.9008,1.30941 1.05866,1.69942c0.08358,0.17644 0.09752,0.32968 0.04178,0.45968c-0.03715,0.10215 -0.10215,0.17644 -0.19502,0.22288c-0.10215,0.03715 -0.22752,0.04644 -0.3761,0.02786c-0.25074,-0.02786 -0.48754,-0.1393 -0.71042,-0.33432c-0.14858,-0.1393 -0.32968,-0.35289 -0.54325,-0.64077l-2.60487,-3.71925c-0.19502,-0.28788 -0.37146,-0.55255 -0.52934,-0.794c-0.17644,-0.27859 -0.33432,-0.5247 -0.47361,-0.73828c-0.29717,-0.49218 -0.67792,-1.19797 -1.14224,-2.11732l-0.59898,-1.18403c-0.05572,0.02786 -0.1068,0.06037 -0.15324,0.09752c-0.18573,-0.29717 -0.36681,-0.59434 -0.54325,-0.89151c-0.39003,-0.63148 -0.77541,-1.26297 -1.15617,-1.89444c-0.2136,-0.35289 -0.42254,-0.70114 -0.62683,-1.04473c-1.82016,-3.06456 -3.59852,-6.15695 -5.33509,-9.27723c-1.73658,-3.10169 -3.47315,-6.21267 -5.20973,-9.33293c-1.73658,-3.10169 -3.49172,-6.18945 -5.26545,-9.26329c-1.718,-2.97167 -3.4685,-5.90622 -5.25151,-8.80361c-1.68087,-2.73023 -3.41279,-5.40474 -5.19581,-8.02354c-1.66228,-2.4145 -3.40351,-4.76861 -5.22365,-7.06238c-0.26002,-0.33432 -0.52004,-0.66863 -0.78007,-1.00294c-0.23216,-0.28788 -0.45968,-0.58041 -0.68255,-0.87758c-0.44575,-0.52934 -0.91007,-1.03081 -1.39297,-1.50441c-1.0401,-1.01222 -2.53521,-2.18698 -4.48538,-3.52423c-8.74789,-6.01766 -18.21083,-10.85593 -28.38883,-14.51479c-5.14472,-1.83872 -10.37767,-3.34315 -15.69884,-4.51323c-4.29036,-0.94723 -8.64573,-1.67157 -13.06611,-2.17304c-0.81721,-0.10215 -1.63443,-0.19038 -2.45163,-0.26466c-0.12073,-0.01857 -0.24146,-0.03249 -0.36217,-0.04178c0.13002,-0.02786 0.26466,-0.05109 0.40396,-0.06964c0.79863,-0.12073 1.718,-0.17179 2.75809,-0.15324c0.40861,0.00928 0.84043,0.02786 1.29547,0.05572c2.21018,0.15788 4.66647,0.51076 7.36884,1.05866c1.12367,0.23216 2.65594,0.58505 4.59682,1.05866c0.79863,0.18573 1.67157,0.39932 2.61879,0.64077c3.45458,0.86365 5.95264,1.50904 7.49421,1.93624c2.78595,0.7615 5.25151,1.5137 7.39671,2.25662c9.87155,3.42673 20.04491,9.05898 30.52008,16.8968c0.05572,0.04644 0.11608,0.09752 0.18108,0.15324c-0.00928,-0.01857 -0.01857,-0.04178 -0.02786,-0.06964c0,-0.03715 -0.00465,-0.0743 -0.01394,-0.11144c-0.02786,-0.12073 -0.03715,-0.23681 -0.02786,-0.34824c0.065,0.05572 0.12536,0.11608 0.18108,0.18108c0.14858,0.14858 0.23216,0.36217 0.25074,0.64077c0.77078,0.65933 1.26761,1.31405 1.49049,1.9641c0.25074,0.26002 0.50148,0.52934 0.7522,0.80794c1.02152,1.11439 1.98266,2.28912 2.88345,3.52423c1.95946,2.71165 3.84462,5.47441 5.65548,8.2882c1.94088,3.03668 3.83532,6.09658 5.68334,9.1797c1.75514,2.93454 3.48708,5.89692 5.19581,8.88719c1.56942,2.75809 3.14813,5.54405 4.73611,8.35785M236.66362,106.96318c-0.27859,-0.05572 -0.49683,-0.11144 -0.6547,-0.16716c-0.42718,-0.13002 -0.76613,-0.31574 -1.01687,-0.55719c0.33432,-0.26002 0.76613,-0.41326 1.29547,-0.45968c-0.80262,0.35731 -0.24666,-0.48146 1.37905,0.08358c8.14393,0.07221 21.63021,3.43373 27.71286,5.48602c5.49761,1.84802 10.64233,4.15106 15.43416,6.90916c1.10509,0.63148 4.36244,0.98426 10.15722,4.71744c4.18821,2.70237 7.74494,4.69434 10.67019,5.97586c4.01175,1.76444 8.21392,2.95775 12.60643,3.57994c0.57576,0.08358 0.84043,0.28788 0.794,0.61291c-0.01857,0.19502 -0.2043,0.38539 -0.55719,0.57112c-0.69649,0.32503 -1.48584,0.53397 -2.36806,0.62683c-0.65933,0.065 -1.46727,0.07893 -2.42378,0.04178c-3.52887,-0.1393 -6.97417,-0.6872 -10.33588,-1.64371l20.54639,9.65332c0.46432,0.19502 0.77541,0.41326 0.93329,0.6547c0.0743,0.11144 0.11608,0.23681 0.12536,0.3761c3.5753,1.39297 7.26669,2.50271 11.07416,3.32921c2.96239,0.6222 5.948,1.1701 8.95683,1.64371c3.44529,0.53861 6.89059,1.05401 10.33588,1.5462c1.26297,0.18573 2.44235,0.53861 3.53816,1.05866c0.13002,0.04644 0.19502,0.1393 0.19502,0.27859c-0.01857,0.03715 -0.03715,0.065 -0.05572,0.08358c-0.69649,0.80794 -1.55548,1.43012 -2.57701,1.86659c-2.35877,1.01222 -4.75469,1.80622 -7.18776,2.38199c-1.97802,0.49218 -3.98855,0.83115 -6.03158,1.01687c-3.81676,0.28788 -7.58707,0.25074 -11.31097,-0.11144c-2.94381,-0.28788 -5.85978,-0.68255 -8.74789,-1.18403c0.45503,0.28788 0.91471,0.58041 1.37905,0.87758c2.22876,1.38369 4.40644,2.84632 6.53306,4.38788c3.13883,2.25662 6.18481,4.64325 9.13791,7.15989c1.89444,1.62513 3.71925,3.31993 5.47441,5.08436c2.32162,2.3402 4.49932,4.81969 6.53306,7.43848c1.53226,1.98731 3.01347,4.03962 4.44359,6.15695c0.4829,0.72435 0.79863,1.54156 0.94723,2.45163c0.09286,0.51076 -0.13002,0.86829 -0.66863,1.07259c-0.15788,-0.03715 -0.30181,-0.08358 -0.43182,-0.1393c-1.69014,-0.81721 -3.29671,-1.83408 -4.81969,-3.05061c-2.77666,-2.21947 -5.66013,-4.29501 -8.65038,-6.2266c-2.14518,-1.39297 -4.32288,-2.72559 -6.53306,-3.99785c-1.783,-1.02152 -3.5753,-2.02446 -5.37689,-3.00883c0.28788,0.39003 0.57576,0.77541 0.86365,1.15617c0.82649,1.09581 1.62513,2.21947 2.39591,3.371c0.55719,0.83578 1.10974,1.69014 1.65765,2.56308c2.04304,3.34315 3.83996,6.86273 5.39083,10.55875c0.91007,2.18234 1.72729,4.39716 2.45163,6.64449c0.38075,1.15153 0.55719,2.33555 0.52934,3.55208c0,0.27859 -0.13002,0.47826 -0.39003,0.59898c-0.02786,0.00928 -0.05109,0.00928 -0.06964,0c-0.97508,-0.7522 -1.82944,-1.66693 -2.56308,-2.74416c-2.24734,-3.29671 -4.77327,-6.37054 -7.57779,-9.22149c-1.55085,-1.56942 -3.12027,-3.10169 -4.70825,-4.59682c0.22288,0.44575 0.45503,0.89151 0.69649,1.33725c0.77078,1.45799 1.55085,2.90203 2.3402,4.33215c0.71506,1.29083 1.44869,2.57701 2.2009,3.85854c2.60022,4.50396 5.36295,8.9104 8.2882,13.21933c1.69014,2.48877 3.44065,4.94043 5.25151,7.3549c0.33432,0.44575 0.67327,0.89615 1.01687,1.35119c0.60362,0.77078 1.20725,1.5462 1.81086,2.32627c1.06795,1.35583 2.16376,2.70237 3.28743,4.03962c0.78935,0.94723 1.59264,1.88515 2.40985,2.81381c0.02786,0.03715 0.05572,0.06964 0.08358,0.09752c0.05572,0.05572 0.11144,0.11608 0.16716,0.18108c-0.77078,0.31574 -1.54156,0.63148 -2.31233,0.94723c-0.08358,-0.09286 -0.16251,-0.17644 -0.23681,-0.25074c-0.01857,-0.03715 -0.04178,-0.06964 -0.06964,-0.09752c-0.59434,-0.65933 -1.17939,-1.33261 -1.75514,-2.01982c-1.21653,-1.4394 -2.40519,-2.89739 -3.56602,-4.37394c-0.38075,-0.49218 -0.7615,-0.98901 -1.14224,-1.49049c-0.64077,-0.84507 -1.26761,-1.69942 -1.88051,-2.56308c-1.14224,-1.5787 -2.25662,-3.18063 -3.34315,-4.80576c-1.31869,-2.01517 -2.60951,-4.0582 -3.87246,-6.1291c-1.26297,-2.08018 -2.47485,-4.1975 -3.63566,-6.35197c-1.49513,-2.77666 -2.9531,-5.58119 -4.37394,-8.41357c-0.95651,-1.9223 -1.90373,-3.83532 -2.84167,-5.73906c-0.19502,-0.40861 -0.3761,-0.81256 -0.54325,-1.21189c-0.22288,-0.49218 -0.55719,-0.92864 -1.00294,-1.30941l-10.08514,-9.54188l-0.3761,-0.68255c0.065,-0.11144 0.14395,-0.20894 0.23681,-0.29252c0.36217,-0.31574 0.70577,-0.33432 1.03081,-0.05572c2.74881,2.18234 5.4001,4.51323 7.9539,6.99273c2.00588,1.95946 3.98392,3.9514 5.93408,5.97586c2.15448,2.25662 4.28572,4.54574 6.39376,6.86737c1.94088,2.11732 3.83996,4.29501 5.69727,6.53306c-0.23216,-0.63148 -0.45503,-1.26297 -0.66863,-1.89444c-1.11439,-3.18526 -2.43772,-6.2591 -3.96998,-9.22149c-1.88515,-3.62174 -4.07213,-7.01131 -6.56091,-10.16872c-1.72729,-2.15448 -3.49172,-4.2625 -5.29331,-6.32412c-0.05572,-0.065 -0.09286,-0.1393 -0.11144,-0.22288c0,-0.02786 0.00928,-0.05109 0.02786,-0.06964c0.23216,-0.29717 0.52934,-0.36681 0.89151,-0.20894c3.13883,1.31869 6.1616,2.86024 9.06826,4.62468c1.96873,1.20725 3.93283,2.42378 5.89228,3.6496c2.4145,1.50441 4.77792,3.06919 7.09025,4.69434c0.1393,0.11144 0.28324,0.22288 0.43182,0.33432c2.0616,1.46727 4.08142,2.9531 6.05944,4.45752c-0.2136,-0.39003 -0.42718,-0.78007 -0.64077,-1.1701c-1.05866,-1.98731 -2.28912,-3.8539 -3.69139,-5.59976c-2.38663,-2.94381 -4.92649,-5.74371 -7.61958,-8.39964c-2.9531,-2.91597 -6.07802,-5.63691 -9.37472,-8.16284c-3.54744,-2.73023 -7.22955,-5.24687 -11.04629,-7.54992c-1.40227,-0.84507 -2.87417,-1.48121 -4.41574,-1.90837c-0.72435,-0.22288 -1.06795,-0.64077 -1.03081,-1.25367c0.01857,-0.44575 0.25074,-0.61291 0.69649,-0.50148c8.19069,1.90373 16.56712,2.49343 25.12927,1.76908c2.60951,-0.22288 5.18651,-0.73363 7.73102,-1.53226c1.42083,-0.47361 2.83239,-1.02152 4.23465,-1.64371c-0.73363,-0.11144 -1.46727,-0.22288 -2.2009,-0.33432c-0.50148,-0.0743 -1.00294,-0.14858 -1.50441,-0.22288c-2.81381,-0.43648 -5.60904,-0.91936 -8.38572,-1.44869c-4.30894,-0.78007 -8.5668,-1.70871 -12.77359,-2.78595c-2.23806,-0.5479 -4.37394,-1.28153 -6.4077,-2.2009c-1.48584,-0.67792 -2.95775,-1.39763 -4.41574,-2.15912c-0.43648,-0.23216 -0.88221,-0.47826 -1.33725,-0.73828c0.24146,-0.05572 0.47826,-0.1068 0.71042,-0.15324c-2.03374,-1.15153 -5.93872,-3.02275 -11.71492,-5.61369c-5.07042,-2.28449 -8.94291,-4.38788 -11.61742,-6.31018c-0.25074,-0.18573 -0.36681,-0.36681 -0.34824,-0.54325c0.02786,-0.22288 0.18108,-0.34824 0.45968,-0.3761c0.25074,-0.02786 0.49218,0.01857 0.72435,0.1393c2.97167,1.5137 6.13373,2.61879 9.48616,3.31528c3.33386,0.6872 6.73735,0.95186 10.21051,0.794c-3.06456,-0.36217 -6.22196,-1.18403 -9.47222,-2.46557c-0.05572,-0.01857 -0.11608,-0.04178 -0.18108,-0.06964c-2.70237,-1.08653 -5.65548,-2.57701 -8.85933,-4.47145c-1.04937,-0.6222 -3.64273,-0.5478 -8.16526,-3.4359c-3.40815,-2.16376 -6.24518,-3.83996 -8.51108,-5.02864c-4.03034,-2.11732 -8.54358,-3.95604 -13.53972,-5.51618c-0.65933,-0.2043 -1.32797,-0.40861 -2.00588,-0.61291c-4.69896,-1.36511 -18.35208,-3.58694 -24.67619,-4.71989c-0.18573,-0.03715 -0.35289,-0.06964 -0.50148,-0.09752M302.04496,195.64688c-0.53861,-0.77078 -1.28619,-1.29083 -2.24269,-1.56013c0.81721,0.70577 1.55085,1.45799 2.2009,2.25662c1.9223,2.37736 3.07384,5.17259 3.45458,8.38572c0.03715,0.28788 -0.0743,0.5247 -0.33432,0.71042c-2.37736,1.73658 -4.72218,1.61584 -7.03453,-0.36217c-2.99953,-2.58164 -5.089,-5.73442 -6.2684,-9.45831c-0.01857,-0.0743 0.01394,-0.17179 0.09752,-0.29252c1.45799,3.5753 3.70067,6.5377 6.72807,8.88719c1.67157,1.28153 3.5753,1.67622 5.7112,1.18403c0.47361,-3.60316 -0.77078,-6.72343 -3.73316,-9.36081c-0.89151,-0.79863 -1.75514,-1.6205 -2.59093,-2.46557c1.40227,-1.04937 2.68843,-0.74291 3.85854,0.91936c1.93159,2.75809 4.49467,4.4018 7.68923,4.93113c0.03715,-2.22876 -0.82649,-4.07678 -2.59093,-5.54405c-0.99366,-0.82649 -1.97802,-1.69942 -2.9531,-2.61879c-0.95651,-0.91007 -1.9223,-1.80622 -2.89739,-2.68843c1.47655,0.01857 2.8231,0.71042 4.03962,2.07554c1.30011,1.46727 2.60951,2.92061 3.92818,4.36001c1.33725,1.4394 1.65765,3.10633 0.96115,5.00078c-3.14813,-0.04644 -5.72049,-1.36511 -7.71708,-3.95604c-0.11144,-0.13002 -0.2136,-0.26466 -0.30646,-0.40396M280.8439,200.94018c0,-0.55719 0.04178,-1.11903 0.12536,-1.6855c0.78935,4.30894 3.0599,7.20632 6.81165,8.69216c0.32503,0.13002 0.65933,0.14395 1.00294,0.04178c-0.5479,-3.60316 -1.27689,-7.15524 -2.18698,-10.65626l0.73828,0.1393c2.05232,3.29671 2.99025,6.88129 2.81381,10.75377c-0.03715,0.91007 -0.50612,1.41155 -1.40691,1.50441c-0.23216,-0.00928 -0.46432,-0.01394 -0.69649,-0.01394c-3.93748,-0.58505 -6.28231,-2.95775 -7.03453,-7.1181c-0.09286,-0.5479 -0.14858,-1.10045 -0.16716,-1.65765M277.06893,203.25252c-0.25074,0.81721 -0.7522,1.38369 -1.50441,1.69942c-0.18573,0.065 -0.38539,0.10215 -0.59898,0.11144c-1.653,-0.81721 -2.70237,-2.1684 -3.14813,-4.05356c-0.08358,-0.33432 -0.16716,-0.65933 -0.25074,-0.97508l0.43182,-0.1393c0.71506,1.77373 1.76908,3.26421 3.16205,4.47145c0.71506,-0.08358 1.2351,-0.46432 1.56013,-1.14224c0.26931,-0.5479 0.45039,-1.14224 0.54325,-1.783c0.065,-0.38075 0.30646,-0.65933 0.72435,-0.83578l0.09752,0.43182c-0.43648,0.65933 -0.77541,1.39763 -1.01687,2.21484z" fill="#000000"/><path d="M268.02852,250.90621c1.73658,3.12027 3.51494,6.21267 5.33509,9.27723c0.2043,0.3436 0.41326,0.69185 0.62683,1.04473c0.38075,0.63148 0.76613,1.26297 1.15617,1.89444c0.17644,0.29717 0.35753,0.59434 0.54325,0.89151c0.04644,-0.03715 0.09752,-0.06964 0.15324,-0.09752l0.59898,1.18403c0.46432,0.91936 0.84507,1.62513 1.14224,2.11732c0.1393,0.2136 0.29717,0.45968 0.47361,0.73828c0.15788,0.24146 0.33432,0.50612 0.52934,0.794l2.60487,3.71925c0.2136,0.28788 0.39468,0.50148 0.54325,0.64077c0.22288,0.19502 0.45968,0.30646 0.71042,0.33432c0.14858,0.01857 0.27395,0.00928 0.3761,-0.02786l0.04178,0.18108c-5.79477,1.79229 -11.33418,3.28743 -16.6182,4.48538c-5.19116,1.17939 -8.73396,1.76908 -10.62839,1.76908c-0.53861,0 -1.35583,-0.1393 -2.45163,-0.4179h-0.52934l0.04178,-0.33432c-0.63148,-1.01222 -1.24903,-2.03374 -1.85266,-3.06456c-0.65933,-1.12367 -1.31405,-2.24734 -1.9641,-3.371c-0.40861,-0.6872 -0.81256,-1.37441 -1.21189,-2.0616c-1.46727,-2.49807 -2.96239,-5.00542 -4.48538,-7.52206c-2.03374,-3.38029 -4.09999,-6.76057 -6.19874,-10.14086c-1.9223,-3.0924 -3.86783,-6.14766 -5.83657,-9.16577c-1.4394,-2.19162 -2.89739,-4.35537 -4.37394,-6.49127c-1.21653,-1.80158 -2.49343,-3.54744 -3.83068,-5.23759c-0.04644,-0.05572 -0.08822,-0.11608 -0.12536,-0.18108c-0.56647,-0.71506 -1.15153,-1.41155 -1.75514,-2.08947c-2.21947,-2.50736 -4.67575,-4.77792 -7.36884,-6.81165c-0.57576,-0.43648 -1.15153,-0.86365 -1.72729,-1.28153c-2.2752,-1.59728 -4.65718,-2.98097 -7.14597,-4.15106c-1.28153,-0.61291 -2.59093,-1.16081 -3.92818,-1.64371c-0.72435,-0.26002 -1.45334,-0.50612 -2.18698,-0.73828c-0.26002,-0.0743 -0.52004,-0.14858 -0.78007,-0.22288c-0.93793,-0.13002 -1.87587,-0.24146 -2.81381,-0.33432c-0.85436,-0.22288 -1.82944,-0.44111 -2.92525,-0.6547c-6.61199,-1.30011 -13.30756,-2.14518 -20.08671,-2.53521c-2.01517,-0.12073 -4.03497,-0.19966 -6.05944,-0.23681l0.04178,-0.52934c0.03715,-3.52887 0.70577,-7.6753 2.00588,-12.43927c0.16716,-0.6222 0.34824,-1.25367 0.54325,-1.89444c0.49218,-1.68087 1.05401,-3.38492 1.6855,-5.11223c1.28153,-3.60316 2.82774,-7.31777 4.63861,-11.14381c0.81721,0.0743 1.63443,0.16251 2.45163,0.26466c4.42037,0.50148 8.77574,1.22583 13.06611,2.17304c5.32117,1.1701 10.55411,2.67451 15.69884,4.51323c10.178,3.65888 19.64096,8.49715 28.38883,14.51479c1.95016,1.33725 3.44529,2.51199 4.48538,3.52423c0.4829,0.47361 0.94723,0.97508 1.39297,1.50441c0.22288,0.29717 0.45039,0.58969 0.68255,0.87758c0.26002,0.33432 0.52004,0.66863 0.78007,1.00294c1.82016,2.29376 3.56137,4.6479 5.22365,7.06238c1.783,2.61879 3.51494,5.29331 5.19581,8.02354c1.783,2.89739 3.53351,5.83192 5.25151,8.80361c1.77373,3.07384 3.52887,6.1616 5.26545,9.26329c1.73658,3.12027 3.47315,6.23124 5.20973,9.33293z" fill="#cccccc"/><path d="M237.04879,107.15577c0.14858,0.02786 0.31574,0.06037 0.50148,0.09752c6.32412,1.13296 19.9772,3.35478 24.67618,4.71989c0.67792,0.2043 1.34654,0.40861 2.00588,0.61291c4.99613,1.56013 9.50938,3.39886 13.53972,5.51618c2.2659,1.18867 5.10293,2.86489 8.51108,5.02864c4.52253,2.88811 7.1159,2.81369 8.16527,3.4359c3.20385,1.89444 6.15695,3.38492 8.85933,4.47145c0.065,0.02786 0.12536,0.05109 0.18108,0.06964c3.25029,1.28153 6.4077,2.1034 9.47222,2.46557c-3.47315,0.15788 -6.87665,-0.1068 -10.21051,-0.794c-3.35243,-0.69649 -6.51448,-1.80158 -9.48616,-3.31528c-0.23216,-0.12073 -0.47361,-0.16716 -0.72435,-0.1393c-0.27859,0.02786 -0.43182,0.15324 -0.45968,0.3761c-0.01857,0.17644 0.09752,0.35753 0.34824,0.54325c2.67451,1.9223 6.547,4.02569 11.61742,6.31018c5.7762,2.59093 9.68118,4.46216 11.71492,5.61369c-0.23216,0.04644 -0.46897,0.09752 -0.71042,0.15324c0.45503,0.26002 0.9008,0.50612 1.33725,0.73828c1.45799,0.7615 2.92989,1.48121 4.41574,2.15912c2.03374,0.91936 4.16964,1.653 6.4077,2.2009c4.20679,1.07723 8.46465,2.00588 12.77359,2.78595c2.77666,0.52934 5.5719,1.01222 8.38572,1.44869c0.50148,0.0743 1.00294,0.14858 1.50441,0.22288c0.73363,0.11144 1.46727,0.22288 2.2009,0.33432c-1.40227,0.6222 -2.81381,1.1701 -4.23465,1.64371c-2.5445,0.79863 -5.1215,1.30941 -7.73102,1.53226c-8.56216,0.72435 -16.93858,0.13466 -25.12927,-1.76908c-0.44575,-0.11144 -0.67792,0.05572 -0.69649,0.50148c-0.03715,0.61291 0.30646,1.03081 1.03081,1.25367c1.54156,0.42718 3.01347,1.06331 4.41574,1.90837c3.81676,2.30305 7.49885,4.81969 11.04629,7.54992c3.29671,2.52593 6.42161,5.24687 9.37472,8.16284c2.69309,2.65594 5.23295,5.45582 7.61958,8.39964c1.40227,1.74586 2.63273,3.61245 3.69139,5.59976c0.2136,0.39003 0.42718,0.78007 0.64077,1.1701c-1.97802,-1.50441 -3.99785,-2.99025 -6.05944,-4.45752c-0.14858,-0.11144 -0.29252,-0.22288 -0.43182,-0.33432c-2.31233,-1.62513 -4.67575,-3.18991 -7.09025,-4.69434c-1.95946,-1.22583 -3.92354,-2.44235 -5.89228,-3.6496c-2.90667,-1.76444 -5.92944,-3.30599 -9.06826,-4.62468c-0.36217,-0.15788 -0.65933,-0.08822 -0.89151,0.20894c-0.01857,0.01857 -0.02786,0.04178 -0.02786,0.06964c0.01857,0.08358 0.05572,0.15788 0.11144,0.22288c1.80158,2.0616 3.56602,4.16964 5.29331,6.32412c2.48877,3.15742 4.67575,6.547 6.56091,10.16872c1.53226,2.96239 2.85559,6.03623 3.96998,9.22149c0.2136,0.63148 0.43648,1.26297 0.66863,1.89444c-1.8573,-2.23806 -3.75638,-4.41574 -5.69727,-6.53306c-2.10804,-2.32162 -4.23929,-4.61075 -6.39376,-6.86737c-1.95016,-2.02446 -3.92818,-4.01641 -5.93408,-5.97586c-2.5538,-2.47949 -5.20509,-4.81041 -7.9539,-6.99273c-0.32503,-0.27859 -0.66863,-0.26002 -1.03081,0.05572c-0.09286,0.08358 -0.17179,0.18108 -0.23681,0.29252l0.3761,0.68255l10.08514,9.54188c0.44575,0.38075 0.78007,0.81721 1.00294,1.30941c0.16716,0.39932 0.34824,0.80329 0.54325,1.21189c0.93793,1.90373 1.88515,3.81676 2.84167,5.73906c1.42083,2.83239 2.87881,5.63691 4.37394,8.41357c1.16081,2.15448 2.3727,4.27179 3.63566,6.35197c1.26297,2.07088 2.5538,4.11392 3.87246,6.1291c1.08653,1.62513 2.2009,3.22707 3.34315,4.80576c0.61291,0.86365 1.23975,1.718 1.88051,2.56308c0.38075,0.50148 0.7615,0.99829 1.14224,1.49049c1.16081,1.47655 2.34948,2.93454 3.56602,4.37394c0.57576,0.6872 1.16081,1.36047 1.75514,2.01982c-2.65594,4.4018 -5.59976,8.35785 -8.83146,11.86816c-4.99613,5.4326 -12.02602,11.49205 -21.08964,18.17833c-6.47269,4.79182 -16.0703,9.40723 -28.79281,13.84618c-2.33092,0.80794 -4.76398,1.61121 -7.29919,2.40985l-1.00294,-0.04178c0.05572,-0.13002 0.04178,-0.28324 -0.04178,-0.45968c-0.15788,-0.39003 -0.51076,-0.95651 -1.05866,-1.69942c-0.91007,-1.27225 -1.80158,-2.53986 -2.67451,-3.80282c-1.06795,-1.56942 -2.09876,-3.1342 -3.0924,-4.69434c-0.22288,-0.36217 -0.44575,-0.71969 -0.66863,-1.07259c-0.09286,-0.1393 -0.18573,-0.25074 -0.27859,-0.33432c-0.0743,-0.11144 -0.14395,-0.23216 -0.20894,-0.36217c-1.54156,-2.5445 -3.04596,-5.09364 -4.51323,-7.64744c-1.50441,-2.63737 -3.00883,-5.29795 -4.51323,-7.98174c-1.58801,-2.81381 -3.16671,-5.59976 -4.73611,-8.35785c-1.70871,-2.99025 -3.44065,-5.95264 -5.19581,-8.88719c-1.84802,-3.08311 -3.74246,-6.14301 -5.68334,-9.1797c-1.81086,-2.81381 -3.69603,-5.57655 -5.65548,-8.2882c-0.9008,-1.2351 -1.86194,-2.40985 -2.88345,-3.52423c-0.25074,-0.27859 -0.50148,-0.5479 -0.7522,-0.80794c-0.22288,-0.65005 -0.71969,-1.30476 -1.49049,-1.9641c-0.01857,-0.27859 -0.10215,-0.49218 -0.25074,-0.64077c-0.05572,-0.065 -0.11608,-0.12536 -0.18108,-0.18108c-0.00928,0.11144 0,0.22752 0.02786,0.34824l-0.1393,0.02786c-10.47517,-7.83781 -20.64853,-13.47007 -30.52008,-16.8968c-2.14518,-0.74291 -4.61075,-1.49513 -7.39671,-2.25662c-1.54156,-0.42718 -4.03962,-1.07259 -7.49421,-1.93624c-0.94723,-0.24146 -1.82016,-0.45503 -2.61879,-0.64077c-1.94088,-0.47361 -3.47315,-0.82649 -4.59682,-1.05866c-2.70237,-0.5479 -5.15865,-0.9008 -7.36884,-1.05866c-0.45503,-0.02786 -0.88687,-0.04644 -1.29547,-0.05572c-1.0401,-0.01857 -1.95946,0.03249 -2.75809,0.15324c0.1393,-0.28788 0.27859,-0.57576 0.4179,-0.86365c2.97167,-6.16624 6.35662,-12.10032 10.15479,-17.80222c4.01175,-6.03623 8.21392,-11.39454 12.60643,-16.07493c6.65841,-7.13202 11.12059,-11.86351 13.38649,-14.19441c4.75469,-4.91255 8.89182,-8.92433 12.41141,-12.0353c3.88176,-3.43601 4.46856,-6.41455 7.92314,-8.55044c2.23262,-2.30162 0.79251,-2.122 3.39272,-3.00421c0.26931,-0.09286 0.54325,-0.18573 0.82184,-0.27859c0.18573,-0.05572 0.3761,-0.11144 0.57112,-0.16716M278.37346,200.79845c-0.4179,0.17644 -0.65933,0.45503 -0.72435,0.83578c-0.09286,0.64077 -0.27395,1.2351 -0.54325,1.783c-0.32503,0.67792 -0.84507,1.05866 -1.56013,1.14224c-1.39297,-1.20725 -2.447,-2.69773 -3.16205,-4.47145l-0.43182,0.1393c0.08358,0.31574 0.16716,0.64077 0.25074,0.97508c0.44575,1.88515 1.49513,3.23635 3.14813,4.05356c0.2136,-0.00928 0.41326,-0.04644 0.59898,-0.11144c0.7522,-0.31574 1.25367,-0.88221 1.50441,-1.69942c0.24146,-0.81721 0.58041,-1.55548 1.01687,-2.21484l-0.09752,-0.43182M281.39622,202.79041c0.7522,4.16036 3.09705,6.53306 7.03453,7.1181c0.23216,0 0.46432,0.00465 0.69649,0.01394c0.9008,-0.09286 1.36976,-0.59434 1.40691,-1.50441c0.17644,-3.87246 -0.7615,-7.45706 -2.81381,-10.75377l-0.73828,-0.1393c0.91007,3.50101 1.63906,7.05309 2.18698,10.65626c-0.3436,0.10215 -0.67792,0.08822 -1.00294,-0.04178c-3.75174,-1.48584 -6.0223,-4.38323 -6.81165,-8.69216c-0.08358,0.56647 -0.12536,1.12831 -0.12536,1.6855c0.01857,0.55719 0.0743,1.10974 0.16716,1.65765M310.45367,200.19947c0.69649,-1.89444 0.3761,-3.56137 -0.96115,-5.00078c-1.31869,-1.4394 -2.62808,-2.89275 -3.92818,-4.36001c-1.21653,-1.36511 -2.56308,-2.05696 -4.03962,-2.07554c0.97508,0.88221 1.94088,1.77836 2.89739,2.68843c0.97508,0.91936 1.95946,1.79229 2.9531,2.61879c1.76444,1.46727 2.62808,3.31528 2.59093,5.54405c-3.19457,-0.52934 -5.75764,-2.17304 -7.68923,-4.93113c-1.1701,-1.66228 -2.45628,-1.96873 -3.85854,-0.91936c0.83578,0.84507 1.69942,1.66693 2.59093,2.46557c2.96239,2.63737 4.20679,5.75764 3.73316,9.36081c-2.1359,0.49218 -4.03962,0.09752 -5.7112,-1.18403c-3.02741,-2.34948 -5.27009,-5.31188 -6.72807,-8.88719c-0.08358,0.12073 -0.11608,0.21824 -0.09752,0.29252c1.17939,3.72389 3.26884,6.87665 6.2684,9.45831c2.31233,1.97802 4.65718,2.09876 7.03453,0.36217c0.26002,-0.18573 0.37146,-0.42254 0.33432,-0.71042c-0.38075,-3.21313 -1.53226,-6.00836 -3.45458,-8.38572l0.34824,-0.29252c1.9966,2.59093 4.56896,3.90962 7.71708,3.95604z" fill="#ffffff"/></g></g></svg>