<svg version="1.1" xmlns="http://www.w3.org/2000/svg" xmlns:xlink="http://www.w3.org/1999/xlink" width="426.29586" height="217.13047" viewBox="0,0,426.29586,217.13047"><g transform="translate(72.99644,-165.15662)"><g data-paper-data="{&quot;isPaintingLayer&quot;:true}" fill-rule="nonzero" stroke="none" stroke-width="1" stroke-linecap="butt" stroke-linejoin="miter" stroke-miterlimit="10" stroke-dasharray="" stroke-dashoffset="0" style="mix-blend-mode: normal"><path d="M190.41006,165.22598c2.47461,-0.11849 5.15794,-0.08516 8.05,0.1c2.5,0.13333 6.23333,0.5 11.2,1.1l20.8,2.55c7.53333,0.93333 13.21667,1.38333 17.05,1.35c4.83333,0 12.18333,-0.46667 22.05,-1.4c0.05,-0.00169 0.1,-0.00169 0.15,0c1.59102,-0.05299 3.12435,-0.05299 4.6,0c6.40482,0.25677 11.72148,1.55677 15.95,3.9c3.56667,1.96667 7.26667,5.25 11.1,9.85c2.13333,2.56667 5.31667,6.48333 9.55,11.75c2.4974,2.74036 5.18073,5.20703 8.05,7.4c0.31901,-0.07383 0.61901,-0.04049 0.9,0.1c0.43333,0.16667 0.98333,0.65 1.65,1.45c0.15599,0.19648 0.30599,0.39648 0.45,0.6c0.98099,0.63203 1.96432,1.23203 2.95,1.8c-0.17422,0.24193 -0.35755,0.49193 -0.55,0.75c0.15833,0.15495 0.30833,0.30495 0.45,0.45c1.58047,0.54141 3.2138,1.40807 4.9,2.6c0.75469,0.52422 1.68802,1.24089 2.8,2.15c0.02305,0.03555 0.03971,0.05221 0.05,0.05c0.49167,0.4151 1.00833,0.84844 1.55,1.3c0.40508,0.12708 0.82174,0.27708 1.25,0.45c1.2,0.46667 2.68333,1.26667 4.45,2.4c0.87292,0.55547 1.67292,1.0888 2.4,1.6c0.15924,0.02643 0.30924,0.05977 0.45,0.1c0.47786,0.13659 0.97786,0.43659 1.5,0.9c0.26901,0.23724 0.53568,0.50391 0.8,0.8c2.96667,3.4 5.21667,7.2 6.75,11.4c0.6,1.56667 1.05,3.18333 1.35,4.85c0.5,3.23333 0.21667,6.38333 -0.85,9.45c-0.6,1.56667 -1.35,2.23333 -2.25,2l-9.55,-13.55c-1.16667,-1.6 -2.15,-2.58333 -2.95,-2.95c-0.3,-0.16667 -0.8,-0.36667 -1.5,-0.6c-0.7,-0.2 -1.21667,-0.4 -1.55,-0.6c-0.1474,-0.08841 -0.28073,-0.18841 -0.4,-0.3c-0.05365,0.03516 -0.10365,0.06849 -0.15,0.1c-0.0918,-0.18255 -0.1918,-0.36589 -0.3,-0.55c-0.68424,0.28945 -1.51758,0.58945 -2.5,0.9c-0.01719,0.02292 -0.03385,0.03958 -0.05,0.05c-0.37878,0.13099 -0.77878,0.26432 -1.2,0.4c-3.43333,1.13333 -6.13333,1.85 -8.1,2.15c-2.85065,0.43854 -5.38398,0.28854 -7.6,-0.45c-1.31562,0.00404 -2.36562,-0.01263 -3.15,-0.05c-2.53333,-0.16667 -4.73333,-0.58333 -6.6,-1.25c-1.16667,-0.36667 -2.93333,-1.18333 -5.3,-2.45c-2.1,-1.03333 -3.81667,-2.01667 -5.15,-2.95c-1.56667,-1.06667 -3.43333,-2.68333 -5.6,-4.85c-2.3,-2.26667 -4.1,-4.28333 -5.4,-6.05c-1.23932,-1.68359 -2.22266,-3.35026 -2.95,-5c-0.67201,-0.38607 -1.43867,-0.75273 -2.3,-1.1c-3.36667,-1.33333 -7.26667,-2 -11.7,-2c-1.61328,-0.01667 -3.42995,0.06667 -5.45,0.25c-0.99219,0.09154 -2.04219,0.2082 -3.15,0.35c-1.10104,0.1418 -2.25104,0.30846 -3.45,0.5c-4.17604,0.61484 -8.69271,1.43151 -13.55,2.45c5.54141,0.56094 10.05807,2.31094 13.55,5.25c3.63333,3 6.01667,7 7.15,12c0.96667,4.5 0.73333,9.18333 -0.7,14.05c-1.06667,3.73333 -2.71667,6.46667 -4.95,8.2c-1.5,1.16667 -3.51667,2.06667 -6.05,2.7c-0.30404,0.07604 -0.6207,0.14271 -0.95,0.2c-2.21224,0.51172 -4.67891,0.86172 -7.4,1.05c-0.40286,0.04271 -0.81953,0.07604 -1.25,0.1c-0.68086,0.0401 -1.44753,0.07344 -2.3,0.1c0.03333,0.17852 0.05,0.37852 0.05,0.6c-0.03333,0.73333 -0.25,1.5 -0.65,2.3c-2.9,6.1 -6.05,10.93333 -9.45,14.5c-2.91263,3.06497 -6.0293,5.34831 -9.35,6.85c0.82201,1.54036 1.68867,3.3737 2.6,5.5c1.33333,3.06667 2.25,5.66667 2.75,7.8c0.66667,2.76667 0.91667,5.58333 0.75,8.45c-0.06667,1 -0.23333,2.5 -0.5,4.5l-0.75,4.35c-0.66667,2.73333 -1.75,5.31667 -3.25,7.75c-1.5,2.43333 -3.33333,4.51667 -5.5,6.25c-1.13333,1 -2.1,1.3 -2.9,0.9c-0.63333,-0.33333 -0.98333,-0.95 -1.05,-1.85c-0.03333,-0.46667 0.08333,-1.16667 0.35,-2.1c0.31589,-1.38008 0.49922,-2.96341 0.55,-4.75c0.08372,-1.76159 0.03372,-3.72826 -0.15,-5.9c-0.13333,-1.9 -0.38333,-3.8 -0.75,-5.7c-0.44206,-2.32409 -1.09206,-4.57409 -1.95,-6.75c-1.80378,0.76198 -3.70378,1.26198 -5.7,1.5c-3,0.36667 -5.96667,0.13333 -8.9,-0.7c-0.16797,-0.04766 -0.33464,-0.09766 -0.5,-0.15c-0.63437,-0.19661 -1.25104,-0.42995 -1.85,-0.7v0.05c-0.18958,0.17995 -0.38958,0.34661 -0.6,0.5c-0.00703,0.0431 -0.0237,0.07643 -0.05,0.1c-5.70221,5.26966 -11.23555,8.38633 -16.6,9.35c-0.96667,0.16667 -2.45,0.31667 -4.45,0.45c-4.93333,0.36667 -8.98333,0.33333 -12.15,-0.1c-3.10039,-0.45599 -5.81706,-1.30599 -8.15,-2.55c-0.43151,0.70625 -1.01484,1.43958 -1.75,2.2c-1.8,1.83333 -4.03333,3.63333 -6.7,5.4c-1.0806,0.7349 -2.49727,1.61823 -4.25,2.65c-0.02487,0.04128 -0.0582,0.07461 -0.1,0.1c-0.91302,0.53906 -1.91302,1.1224 -3,1.75c-1.0375,0.59076 -1.9875,1.09076 -2.85,1.5c-3.53281,2.42096 -7.41615,4.23763 -11.65,5.45c-2.43333,0.7 -6.56667,1.43333 -12.4,2.2c-5.46667,0.66667 -9.45,1.08333 -11.95,1.25c-4.46667,0.36667 -8.46667,0.43333 -12,0.2c-3.13333,-0.2 -6.81667,-0.66667 -11.05,-1.4c-4.86667,-0.93333 -8.51667,-1.63333 -10.95,-2.1c-2.26667,-0.43333 -4.13333,-0.65 -5.6,-0.65c-2.06667,0.03333 -3.83333,0.45 -5.3,1.25c-1.36667,0.8 -2.96667,2.45 -4.8,4.95c-4.13333,5.76667 -10.16667,14.51667 -18.1,26.25c-4.11797,5.96719 -7.98464,11.26719 -11.6,15.9c-0.61276,0.8487 -1.22943,1.66536 -1.85,2.45c-0.0276,0.44909 -0.09427,0.88242 -0.2,1.3c-0.3,1.13333 -1.15,2.58333 -2.55,4.35c-1.16667,1.5 -2.2,2.5 -3.1,3c-1,0.53333 -2.28333,0.76667 -3.85,0.7c-1.36667,-0.06667 -3.55,-0.55 -6.55,-1.45c-2.30885,-0.73516 -4.47552,-1.43516 -6.5,-2.1c-4.49779,-1.46367 -8.29779,-2.74701 -11.4,-3.85c-6.53333,-2.36667 -12.36667,-4.76667 -17.5,-7.2c-3.07005,-1.44284 -6.00339,-2.94284 -8.8,-4.5c-8.82383,-4.9319 -16.27383,-10.44857 -22.35,-16.55c-1.76667,-1.76667 -2.85,-3.31667 -3.25,-4.65c-0.09883,-0.32917 -0.16549,-0.6625 -0.2,-1c-0.1,-0.09049 -0.15,-0.24049 -0.15,-0.45c-0.02188,-0.26289 0.01146,-0.51289 0.1,-0.75c0.04909,-0.64323 0.19909,-1.3099 0.45,-2c0.15573,-0.43607 0.33906,-0.85273 0.55,-1.25c0.13047,-0.23281 0.2638,-0.46615 0.4,-0.7c0.42904,-0.57956 0.92904,-1.11289 1.5,-1.6c0.57982,-0.48477 1.21315,-0.90143 1.9,-1.25l8.3,-11.75c1.43333,-1.86667 3.23333,-4.03333 5.4,-6.5c2.46667,-2.8 4.31667,-4.91667 5.55,-6.35c1.2,-1.43333 4.53333,-5.53333 10,-12.3c2.82695,-3.56615 5.32695,-6.78281 7.5,-9.65c3.44674,-4.5099 6.09674,-8.1599 7.95,-10.95c1.36667,-2.03333 2.53333,-3.51667 3.5,-4.45c0.07786,-0.07448 0.14453,-0.15781 0.2,-0.25c3.34076,-4.26419 7.39076,-8.33086 12.15,-12.2c0.08529,-0.03893 0.15195,-0.08893 0.2,-0.15c2.00911,-1.59427 4.12578,-3.16094 6.35,-4.7c3.95299,-2.67448 8.28633,-5.24115 13,-7.7c4.73333,-2.43333 11.71667,-5.65 20.95,-9.65c9.63333,-4.13333 16.63333,-7.3 21,-9.5c8.1,-4.06667 18.18333,-10.01667 30.25,-17.85c16,-10.36667 25.88333,-16.66667 29.65,-18.9c1.7,-0.96667 3.23333,-1.56667 4.6,-1.8c1.76667,-0.3 3.11667,0.1 4.05,1.2c-0.05547,0.10078 -0.12214,0.20078 -0.2,0.3c0.47513,-0.01341 0.9418,-0.03008 1.4,-0.05c0.56549,-0.61549 1.48216,-1.18216 2.75,-1.7l37.5,-15.35c4.96667,-2.03333 8.78333,-3.5 11.45,-4.4c1.84844,-0.61615 3.63177,-1.14948 5.35,-1.6c0.04128,0.00638 0.07461,0.00638 0.1,0c2.25143,-0.55742 4.38477,-0.95742 6.4,-1.2c1.00951,-0.1224 2.05951,-0.2224 3.15,-0.3M170.56006,173.32598c-0.97786,0.43906 -2.62786,1.23906 -4.95,2.4c-0.00977,0.03021 -0.02643,0.04688 -0.05,0.05c-1.52982,0.7957 -3.34648,1.7457 -5.45,2.85c-8.34062,4.34688 -16.67396,8.33021 -25,11.95c3.48568,0.41029 8.45234,1.09362 14.9,2.05c5.63333,0.7 11.33333,1.1 17.1,1.2c2.08411,0.03932 3.80078,0.10599 5.15,0.2c-0.03438,0.30599 -0.05104,0.60599 -0.05,0.9c0.14466,0.03281 0.29466,0.06615 0.45,0.1c1.3,0.3 2.93333,0.86667 4.9,1.7c2.66667,1.1 4.8,2.16667 6.4,3.2c0.33737,0.21797 0.65404,0.43464 0.95,0.65l-0.05,-1.25c-0.06667,-1.2 0.01667,-2.11667 0.25,-2.75c0.16667,-0.43333 0.46667,-0.93333 0.9,-1.5c0.6,-0.76667 0.95,-1.25 1.05,-1.45c0.26667,-0.53333 0.5,-0.91667 0.7,-1.15l1,0.2c-0.46667,0.6 -0.83333,1.71667 -1.1,3.35c-0.2,1.26667 -0.31667,2.23333 -0.35,2.9c0,1.56667 -0.01667,2.45 -0.05,2.65c-0.0375,0.3099 -0.10417,0.59323 -0.2,0.85c0.74427,0.72734 1.3776,1.49401 1.9,2.3c0.83333,1.33333 1.51667,2.98333 2.05,4.95c0.03789,0.16081 0.08789,0.41081 0.15,0.75v0.05c0.20729,0.90352 0.52396,2.42018 0.95,4.55c0.21367,1.10872 0.44701,2.22539 0.7,3.35c0.23893,0.01172 0.48893,0.01172 0.75,0c0.08151,0.02786 0.16484,0.04453 0.25,0.05c1.8,0.1 3.83333,-0.08333 6.1,-0.55c1.23333,-0.23333 3.21667,-0.73333 5.95,-1.5l15.7,-4.45c0.97852,-0.27461 1.89518,-0.52461 2.75,-0.75c0.3513,-0.19206 0.71797,-0.37539 1.1,-0.55c1.7,-0.8 4.38333,-1.53333 8.05,-2.2c7.1,-1.33333 12.46667,-2.28333 16.1,-2.85c2.65599,-0.41315 5.18932,-0.76315 7.6,-1.05c1.12383,-0.12943 2.20716,-0.24609 3.25,-0.35c1.88177,-0.19336 3.68177,-0.34336 5.4,-0.45c4.16667,-0.26667 7.66667,-0.13333 10.5,0.4c0.76068,0.14805 1.47734,0.33138 2.15,0.55c0.05013,0.00833 0.08346,0.00833 0.1,0c0.04167,0.02526 0.075,0.04193 0.1,0.05v-0.05c-0.45547,-0.73815 -0.7388,-1.45482 -0.85,-2.15c-0.06667,-0.36667 -0.08333,-0.85 -0.05,-1.45c0.06667,-0.86667 0.1,-1.36667 0.1,-1.5c0,-1.2 -0.3,-2.1 -0.9,-2.7l0.6,-0.35c1.26667,0.43333 2.1,0.9 2.5,1.4c0.10221,0.125 0.18555,0.25833 0.25,0.4c-0.0957,0.6082 -0.12904,1.32487 -0.1,2.15c0.77617,1.9707 1.40951,3.48737 1.9,4.55c0.96667,2.13333 2,3.98333 3.1,5.55c1.63333,2.36667 4.11667,4.96667 7.45,7.8c4.23333,3.5 8.03333,5.93333 11.4,7.3c3.66667,1.46667 8.31667,2.31667 13.95,2.55c2.76667,0.13333 5.11667,0.03333 7.05,-0.3c0.41602,-0.0776 0.81602,-0.1776 1.2,-0.3c0.32708,0.11523 0.66042,0.19857 1,0.25c1.06667,0.16667 2.11667,0.11667 3.15,-0.15c0.73086,-0.22969 1.51419,-0.59635 2.35,-1.1c-0.8,-0.53333 -1.31667,-1.16667 -1.55,-1.9c1.26966,-0.10469 2.51966,-0.00469 3.75,0.3c0.34154,-0.25937 0.64154,-0.52604 0.9,-0.8c0.56914,-0.61771 0.96914,-1.23437 1.2,-1.85c0.175,-0.52513 0.25833,-1.05846 0.25,-1.6c-0.37565,-0.16992 -0.77565,-0.38659 -1.2,-0.65c-3.90495,-2.26211 -6.90495,-4.16211 -9,-5.7c-0.04297,-0.02448 -0.09297,-0.05781 -0.15,-0.1c-0.4224,-0.31771 -0.80573,-0.61771 -1.15,-0.9c-1.39414,-1.12552 -2.62747,-2.29219 -3.7,-3.5c-0.74167,-0.28568 -1.475,-0.63568 -2.2,-1.05c-1.76667,-1 -3.55,-2.38333 -5.35,-4.15c-1.13333,-1.1 -2.68333,-2.8 -4.65,-5.1l-15.35,-17.8c-1.73333,-2.06667 -3.16667,-3.65 -4.3,-4.75c-1.66667,-1.63333 -3.33333,-2.95 -5,-3.95c-3.02721,-1.7763 -6.71055,-2.80964 -11.05,-3.1c-1.42005,-0.07487 -2.92005,-0.07487 -4.5,0c-7.46667,0.9 -13.01667,1.55 -16.65,1.95c-1.75911,0.19831 -3.57578,0.34831 -5.45,0.45c-7.8043,0.41992 -16.48763,-0.03008 -26.05,-1.35c-13.1,-1.8 -19.81667,-2.71667 -20.15,-2.75c-3.82852,-0.34961 -7.41185,-0.44961 -10.75,-0.3c-3.31315,0.18242 -6.37982,0.61576 -9.2,1.3c-3.3,0.8 -6.93333,2.13333 -10.9,4M143.51006,264.67598c-0.89909,0.6526 -1.79909,1.31927 -2.7,2c-1.8,1.36667 -5.61667,4.56667 -11.45,9.6h-0.05c-0.02161,0.05039 -0.05495,0.08372 -0.1,0.1c0.11419,0.15508 0.33086,0.57174 0.65,1.25c0.02813,-0.10326 0.04479,-0.21992 0.05,-0.35c0.06667,-1.16667 0.36667,-1.88333 0.9,-2.15c0.4,-0.2 0.81667,-0.18333 1.25,0.05c0.05091,0.03125 0.10091,0.06458 0.15,0.1c-0.5026,0.34753 -0.9026,0.79753 -1.2,1.35c-0.31693,0.64883 -0.50026,1.38216 -0.55,2.2c0.63542,1.24883 1.53542,2.53216 2.7,3.85c0.66667,0.73333 1.86667,1.91667 3.6,3.55c3.63333,3.33333 7.25,7.01667 10.85,11.05c0.03932,0.11797 0.02266,0.21797 -0.05,0.3c0.97148,0.88503 1.82148,1.55169 2.55,2c1.86667,1.2 4.16667,2 6.9,2.4c1.7,0.26667 4.2,0.41667 7.5,0.45c3.26667,0 5.71667,-0.1 7.35,-0.3c5.2,-0.6 9.91667,-2.46667 14.15,-5.6c1.16667,-0.83333 2.03333,-1.33333 2.6,-1.5c0.26458,-0.07057 0.53125,-0.10391 0.8,-0.1c-1.27747,-0.67266 -2.47747,-1.47266 -3.6,-2.4c-1.4,-1.2 -2.9,-2.83333 -4.5,-4.9c-1.76667,-2.4 -3.11667,-4.2 -4.05,-5.4c-1.00404,-1.24987 -1.80404,-2.3332 -2.4,-3.25c-0.28711,0.41445 -0.73711,0.73112 -1.35,0.95c-0.8,0.26667 -1.71667,0.33333 -2.75,0.2c-2.36667,-0.33333 -5.38333,-1.25 -9.05,-2.75c-2.9,-1.16667 -5.21667,-2.21667 -6.95,-3.15c-2.5,-1.3 -4.6,-2.71667 -6.3,-4.25c-1.36667,-1.2 -2.91667,-2.85 -4.65,-4.95c-0.0974,-0.11133 -0.1974,-0.22799 -0.3,-0.35M8.31006,365.57598c-1.38112,-1.87331 -3.39779,-3.82331 -6.05,-5.85c-7.23333,-5.5 -15.26667,-9.45 -24.1,-11.85c0.43333,0.9 0.41667,1.8 -0.05,2.7c-0.36667,-1.03333 -0.95,-1.95 -1.75,-2.75c-0.83333,-0.83333 -1.76667,-1.43333 -2.8,-1.8c-0.36667,-0.13333 -1.06667,-0.31667 -2.1,-0.55c-0.93333,-0.23333 -1.65,-0.46667 -2.15,-0.7c-0.46667,-0.23333 -1,-0.6 -1.6,-1.1l-1.55,-1.3c-1,-0.73333 -2.25,-1.33333 -3.75,-1.8c-0.7,-0.26667 -2.05,-0.63333 -4.05,-1.1c-5.16667,-1.5 -9.05,-2.51667 -11.65,-3.05c-4.46667,-0.9 -8.36667,-0.98333 -11.7,-0.25c-1.03333,0.23333 -1.9,0.6 -2.6,1.1c-0.40169,0.3013 -0.71836,0.63464 -0.95,1c-0.18346,0.35182 -0.28346,0.73516 -0.3,1.15c-0.03333,0.93333 0.55,2 1.75,3.2c6.67474,6.59974 14.02474,12.13307 22.05,16.6c2.69961,1.5082 5.46628,2.89154 8.3,4.15c0.9,0.43333 2.73333,1.21667 5.5,2.35c9.275,3.85 17.04167,6.81667 23.3,8.9c2.08333,0.725 4,1.34167 5.75,1.85c2.83333,0.9 5.13333,1.25 6.9,1.05c0.33763,-0.02734 0.6543,-0.07734 0.95,-0.15l4.95,-6.95c-0.16081,-0.94076 -0.52747,-1.94076 -1.1,-3c-0.32422,-0.6069 -0.72422,-1.22357 -1.2,-1.85M255.21006,223.72598c-1.43333,-2.96667 -3.45,-5.48333 -6.05,-7.55c-1.63333,-1.33333 -3.5,-2.45 -5.6,-3.35c-1.17122,-0.49688 -2.37122,-0.89688 -3.6,-1.2c-1.0776,-0.27526 -2.1776,-0.47526 -3.3,-0.6c-0.83255,-0.08372 -1.69922,-0.11706 -2.6,-0.1c-2.22865,0.56745 -4.06198,1.11745 -5.5,1.65c-2.6,1 -4.75,2.25 -6.45,3.75c-0.96667,0.83333 -1.7,1.05 -2.2,0.65c-0.26667,-0.23333 -0.36667,-0.56667 -0.3,-1c0.06667,-0.36667 0.23333,-0.73333 0.5,-1.1c0.275,-0.40495 0.575,-0.78828 0.9,-1.15c-1.07096,0.40221 -2.17096,0.85221 -3.3,1.35c-2.83333,1.33333 -4.98333,2.33333 -6.45,3c-2.53333,1.13333 -4.73333,1.98333 -6.6,2.55c-4.10924,1.22513 -7.80924,1.47513 -11.1,0.75c2.07813,7.52682 5.32813,15.77682 9.75,24.75c0.43711,0.88307 0.90378,1.81641 1.4,2.8c0.59258,0.00286 1.24258,0.00286 1.95,0c0.02487,-0.00039 0.04154,-0.00039 0.05,0c3.13229,-0.04701 7.51563,-0.04701 13.15,0l7.5,0.15c3.86667,0.06667 6.76667,0.08333 8.7,0.05c1.6,-0.03333 3.11667,-0.1 4.55,-0.2c1.43333,-0.11667 2.78333,-0.26667 4.05,-0.45c1.03255,-0.12487 1.98255,-0.29154 2.85,-0.5c2.66628,-0.64961 4.64961,-1.69961 5.95,-3.15c1.23333,-1.4 2.21667,-3.73333 2.95,-7c0.43333,-2.3 0.68333,-3.86667 0.75,-4.7c0.2,-3.16667 -0.45,-6.3 -1.95,-9.4M233.81006,253.12598c-1.16406,0.02161 -2.43073,0.02161 -3.8,0l-23.3,-0.3c2.09453,4.04505 4.59453,8.77839 7.5,14.2c1.06341,1.95964 2.16341,3.99297 3.3,6.1c0.05638,-0.0069 0.10638,-0.02357 0.15,-0.05c0.53333,-0.33333 1.31667,-0.81667 2.35,-1.45c2.7,-1.8 5.21667,-4.38333 7.55,-7.75c1.43333,-2.1 3.28333,-5.31667 5.55,-9.65c0.22526,-0.40221 0.45859,-0.76888 0.7,-1.1M342.16006,220.97598c-0.07891,0.14766 -0.16224,0.29766 -0.25,0.45c-0.18125,-0.15326 -0.36458,-0.31992 -0.55,-0.5c0.17279,0.26263 0.32279,0.4793 0.45,0.65c-0.31445,0.54206 -0.69779,1.12539 -1.15,1.75c-0.0612,-0.11341 -0.12786,-0.24674 -0.2,-0.4c-0.42266,1.02031 -1.10599,1.95365 -2.05,2.8c-0.18164,0.15898 -0.38164,0.30898 -0.6,0.45c0.1694,0.09766 0.3194,0.18099 0.45,0.25c-0.10339,0.17396 -0.22005,0.34062 -0.35,0.5l-0.65,0.75c1.15742,1.32591 2.50742,2.95924 4.05,4.9c0.02565,0.04935 0.04232,0.08268 0.05,0.1c2.45938,3.1306 5.40938,7.06393 8.85,11.8c0.36667,-0.56667 0.6,-1.28333 0.7,-2.15c0.23333,-1.06667 0.31667,-2.26667 0.25,-3.6c-0.2,-2.63333 -1.23333,-5.85 -3.1,-9.65c-1.77448,-3.625 -3.67448,-6.475 -5.7,-8.55c-0.05612,0.15846 -0.12279,0.30846 -0.2,0.45M330.61006,211.52598c0.60677,0.19792 1.1901,0.38125 1.75,0.55c-0.60169,-0.48659 -1.23503,-0.95326 -1.9,-1.4c-0.25365,0.08594 -0.52031,0.1526 -0.8,0.2c0.31667,0.21797 0.63333,0.43464 0.95,0.65M150.36006,196.12598c-0.25273,-0.03346 -0.50273,-0.0668 -0.75,-0.1c-0.03372,0.00339 -0.06706,0.00339 -0.1,0c-6.05664,-0.80716 -11.00664,-1.45716 -14.85,-1.95c-0.05,0.00625 -0.1,0.00625 -0.15,0c-2.5276,-0.31081 -4.5776,-0.56081 -6.15,-0.75c-0.97357,0.29844 -1.94023,0.39844 -2.9,0.3c-0.76211,-0.10391 -1.34544,-0.33724 -1.75,-0.7c-0.54219,-0.04362 -1.09219,-0.09362 -1.65,-0.15c-0.85651,-0.04701 -1.70651,-0.09701 -2.55,-0.15c-0.50208,0.39661 -1.06875,0.79661 -1.7,1.2c-20.33112,12.99258 -41.16445,24.89258 -62.5,35.7c-0.00664,0.00339 -0.02331,0.00339 -0.05,0c-9.45846,4.80078 -19.02513,9.38411 -28.7,13.75c-6.80573,3.07253 -11.15573,5.05586 -13.05,5.95c-0.0168,0.02539 -0.03346,0.04206 -0.05,0.05c-4.86667,2.36667 -9.06667,4.66667 -12.6,6.9c-2.31159,1.46875 -4.46159,2.98542 -6.45,4.55c-5.95977,4.7444 -10.47643,9.97773 -13.55,15.7c-0.42461,0.82083 -0.94128,1.4875 -1.55,2c-0.15234,0.2138 -0.30234,0.43047 -0.45,0.65c-1.6,2.36667 -3.96667,5.6 -7.1,9.7l-8.85,11.6c-1.63333,2.2 -3.18333,4.18333 -4.65,5.95c-1.53333,1.86667 -4.15,4.78333 -7.85,8.75c-3.46667,3.73333 -6.06667,6.68333 -7.8,8.85c-1.37357,1.75352 -3.32357,4.32018 -5.85,7.7c0.42174,-0.02448 0.85508,-0.04115 1.3,-0.05c2.4,-0.06667 5.56667,0.43333 9.5,1.5c4.7625,1.26797 10.0125,2.9013 15.75,4.9c0.44727,0.17201 0.89727,0.33867 1.35,0.5c3.76667,1.33333 9.38333,3.43333 16.85,6.3c6.4,2.46667 10.96667,4.5 13.7,6.1c5.90716,3.44323 10.84049,7.92656 14.8,13.45c0.22057,0.32109 0.43724,0.63776 0.65,0.95c0.26159,0.38867 0.49492,0.77201 0.7,1.15c0.36263,0.57982 0.66263,1.14648 0.9,1.7l25.9,-36.35c2.33333,-3.33333 4.33333,-5.71667 6,-7.15c1.3888,-1.18203 2.9388,-2.18203 4.65,-3c0.06563,-0.01888 0.13229,-0.05221 0.2,-0.1c4.0362,-1.84115 8.95286,-2.65781 14.75,-2.45c2.53333,0.06667 5.98333,0.41667 10.35,1.05c4.93333,0.7 8.36667,1.11667 10.3,1.25c3.23333,0.23333 6.85,0.25 10.85,0.05c2.43333,-0.13333 6.05,-0.41667 10.85,-0.85c3.46667,-0.3 6.11667,-0.6 7.95,-0.9c2.9,-0.46667 5.45,-1.15 7.65,-2.05c0.43333,-0.16667 3.08333,-1.46667 7.95,-3.9c1.99453,-0.99727 3.8112,-1.7306 5.45,-2.2c0.13477,-0.08047 0.2681,-0.1638 0.4,-0.25c3.7,-2.46667 6.3,-4.43333 7.8,-5.9c2.03333,-2.03333 3.08333,-3.06667 3.15,-3.1c0.11797,-0.10521 0.23464,-0.20521 0.35,-0.3c-0.16797,-0.13177 -0.33464,-0.2651 -0.5,-0.4c-0.47161,-0.46146 -0.92161,-0.89479 -1.35,-1.3c-0.00638,-0.00781 -0.02305,-0.02448 -0.05,-0.05c-0.87344,-0.82969 -1.5901,-1.47969 -2.15,-1.95c-0.16667,-0.13333 -2.11667,-1.56667 -5.85,-4.3c-2.36667,-1.7 -4.03333,-3.38333 -5,-5.05c-0.62695,-1.05247 -1.11029,-2.25247 -1.45,-3.6c-0.27526,-0.25911 -0.54193,-0.52578 -0.8,-0.8c-1.93086,-1.99635 -3.18086,-3.77969 -3.75,-5.35c-0.46198,0.39271 -0.92865,0.77604 -1.4,1.15c-0.00247,0.00534 -0.01914,0.00534 -0.05,0c-2.57161,2.08568 -4.85495,3.76901 -6.85,5.05c-5.13333,3.26667 -12.16667,6.48333 -21.1,9.65c-2.62982,0.95625 -5.06315,1.75625 -7.3,2.4c-0.04062,0.02891 -0.09063,0.04557 -0.15,0.05c-2.67995,0.81953 -5.07995,1.41953 -7.2,1.8c-6.5,1.13333 -12.76667,0.81667 -18.8,-0.95c-6.5,-1.9 -11.68333,-5.18333 -15.55,-9.85c-1.16667,-1.46667 -1.41667,-2.63333 -0.75,-3.5c0.83333,-0.96667 2.21667,-0.71667 4.15,0.75c4.86667,3.73333 10.71667,6.16667 17.55,7.3c6.1,1.03333 12.55,0.96667 19.35,-0.2c11.76667,-2 22.43333,-6.46667 32,-13.4c0.71641,-0.51654 1.53307,-1.14987 2.45,-1.9c1.35169,-1.05469 2.91836,-2.35469 4.7,-3.9l0.05,-0.05c1.9138,-1.62487 4.08047,-3.52487 6.5,-5.7c5.7,-5.13333 10.33333,-8.86667 13.9,-11.2c2.43333,-1.6 4.5,-2.55 6.2,-2.85c1.16667,-0.2 2.3,-0.16667 3.4,0.1c1.2,0.3 2.16667,0.85 2.9,1.65c-4.76745,2.02969 -9.35078,4.47969 -13.75,7.35c2.07865,2.20898 3.91198,3.90898 5.5,5.1c2.86667,2.2 6.63333,4.18333 11.3,5.95c2.51055,0.97279 6.26055,2.28945 11.25,3.95c-0.09154,-0.17878 -0.17487,-0.34544 -0.25,-0.5c-0.68307,-1.38971 -0.98307,-2.68971 -0.9,-3.9l-0.95,-1.25c-0.9,-1.3 -2.31667,-3.58333 -4.25,-6.85c-1.2,-2.06667 -2.15,-3.58333 -2.85,-4.55l-1.15,-1.55c-1.30807,-1.575 -2.52474,-2.925 -3.65,-4.05l-0.05,-0.05c-0.24844,-0.26107 -0.49844,-0.51107 -0.75,-0.75c-1.43333,-1.3 -3.78333,-3.08333 -7.05,-5.35c-3.06667,-2.06667 -5.35,-3.5 -6.85,-4.3c-2.66667,-1.43333 -5.16667,-2.36667 -7.5,-2.8c-0.56667,-0.13333 -0.91667,-0.31667 -1.05,-0.55c-0.13333,-0.26667 -0.08333,-0.55 0.15,-0.85c0.23333,-0.26667 0.51667,-0.46667 0.85,-0.6c2.23333,-0.83333 5.23333,-0.4 9,1.3c5.13333,2.5 9.7,5.55 13.7,9.15c0.82786,0.77839 1.57786,1.51172 2.25,2.2c0.03268,0.05104 0.06602,0.08437 0.1,0.1c1.09414,1.17565 1.97747,2.24232 2.65,3.2c0.7,1 1.53333,2.38333 2.5,4.15c1.66667,2.93333 2.86667,5.16667 3.6,6.7c1.03333,2.16667 1.8,3.58333 2.3,4.25c0.93333,1.23333 1.43333,1.9 1.5,2c0.23333,0.43333 0.55,1.11667 0.95,2.05c0.53333,0.8 1.15,1.15 1.85,1.05c-0.03333,0.3 -0.21667,0.55 -0.55,0.75c-0.3,0.16667 -0.63333,0.23333 -1,0.2c-0.09727,-0.01393 -0.19727,-0.04727 -0.3,-0.1c0.10977,0.17422 0.20977,0.34089 0.3,0.5c2.39948,3.35482 5.04948,6.47148 7.95,9.35c2.53333,2.6 4.88333,4.4 7.05,5.4c0.81211,0.39349 1.64544,0.71016 2.5,0.95c2.55456,0.75755 5.30456,0.87422 8.25,0.35c0.64727,-0.11081 1.2806,-0.24414 1.9,-0.4c0.18333,0.3668 0.38333,0.68346 0.6,0.95c0.65326,0.75378 1.71992,1.30378 3.2,1.65c-1.35065,-3.51901 -3.21732,-6.81901 -5.6,-9.9c-1.23333,-1.56667 -1.93333,-2.48333 -2.1,-2.75c-0.7,-1.06667 -1.16667,-2.08333 -1.4,-3.05c-0.2,-0.9 -0.21667,-2 -0.05,-3.3c0.36667,-3.2 1.55,-5.3 3.55,-6.3c0.6,-0.33333 1.58333,-0.6 2.95,-0.8c1.06667,-0.2 1.85,-0.23333 2.35,-0.1c0.36563,0.07565 0.66562,0.19232 0.9,0.35c0.09766,0.05573 0.18099,0.10573 0.25,0.15c0.28333,0.26667 0.46667,0.6 0.55,1c-0.63333,-0.36667 -1.35,-0.5 -2.15,-0.4c-0.76667,0.06667 -1.46667,0.33333 -2.1,0.8c-1.1,0.76667 -1.93333,2 -2.5,3.7c-0.46667,1.4 -0.61667,2.63333 -0.45,3.7c0.2,1.2 0.83333,2.48333 1.9,3.85c0.6,0.76667 1.56667,1.9 2.9,3.4c1.33333,1.73333 2.61667,4.2 3.85,7.4c0.13307,0.32448 0.26641,0.65781 0.4,1c0.01302,0.03451 0.02969,0.06784 0.05,0.1c0.37057,1.00612 0.73724,2.08945 1.1,3.25c0.5,1.66667 0.9,3.4 1.2,5.2c0.38672,2.59635 0.52005,6.27969 0.4,11.05c-0.02096,0.98698 -0.0543,2.02031 -0.1,3.1c0.86667,-0.76667 1.65,-1.78333 2.35,-3.05c0.43333,-0.8 0.98333,-1.98333 1.65,-3.55c0.93333,-2.2 1.43333,-3.91667 1.5,-5.15c-0.03333,-1.53333 -0.01667,-2.66667 0.05,-3.4c0.33333,-1.33333 0.56667,-2.33333 0.7,-3c0.26667,-1.53333 0.18333,-3.51667 -0.25,-5.95c-0.56667,-2.76667 -1.3,-5.28333 -2.2,-7.55c-0.23333,-0.63333 -0.75,-1.86667 -1.55,-3.7l-0.7,-1.6c-0.17018,-0.88229 -0.33685,-1.61562 -0.5,-2.2c-0.04687,-0.1987 -0.09687,-0.38203 -0.15,-0.55c-0.27109,-0.84453 -0.58776,-1.57786 -0.95,-2.2c-0.36276,-0.62786 -0.77943,-1.14453 -1.25,-1.55l-0.2,-0.55c-0.71003,-1.11966 -1.47669,-2.40299 -2.3,-3.85c-0.03841,-0.04922 -0.08841,-0.11589 -0.15,-0.2c-0.36068,-0.64284 -0.74401,-1.32617 -1.15,-2.05c-3.11719,-5.45508 -5.80052,-10.40508 -8.05,-14.85c-0.48594,-0.31419 -0.7526,-0.74753 -0.8,-1.3c-0.00573,-0.10977 -0.00573,-0.22643 0,-0.35c-1.42852,-2.90286 -2.66185,-5.5862 -3.7,-8.05c-3.01615,-7.13151 -5.14948,-13.94818 -6.4,-20.45c-0.01901,-0.05781 -0.03568,-0.12448 -0.05,-0.2c-0.35742,-1.89453 -0.64076,-3.7612 -0.85,-5.6c-0.27474,-2.34805 -0.55807,-4.11471 -0.85,-5.3c-0.07474,-0.37435 -0.15807,-0.69102 -0.25,-0.95c-1.3,-3.56667 -4.15,-6.48333 -8.55,-8.75c-1.53333,-0.76667 -3.46667,-1.55 -5.8,-2.35c-0.93099,-0.29466 -1.78099,-0.57799 -2.55,-0.85c-5.675,-0.24961 -12.625,-0.91628 -20.85,-2z" fill="#000000"/><path d="M173.76006,198.97598c2.33333,0.8 4.26667,1.58333 5.8,2.35c4.4,2.26667 7.25,5.18333 8.55,8.75c0.09193,0.25898 0.17526,0.57565 0.25,0.95c0.29193,1.18529 0.57526,2.95195 0.85,5.3c0.20924,1.8388 0.49258,3.70547 0.85,5.6c0.01432,0.07552 0.03099,0.14219 0.05,0.2c1.25052,6.50182 3.38385,13.31849 6.4,20.45c1.03815,2.4638 2.27148,5.14714 3.7,8.05c-0.00573,0.12357 -0.00573,0.24023 0,0.35c0.0474,0.55247 0.31406,0.98581 0.8,1.3c2.24948,4.44492 4.93281,9.39492 8.05,14.85c0.40599,0.72383 0.78932,1.40716 1.15,2.05c0.06159,0.08411 0.11159,0.15078 0.15,0.2l-1.25,0.7c-0.06901,-0.04427 -0.15234,-0.09427 -0.25,-0.15c-0.23437,-0.15768 -0.53437,-0.27435 -0.9,-0.35c-0.5,-0.13333 -1.28333,-0.1 -2.35,0.1c-1.36667,0.2 -2.35,0.46667 -2.95,0.8c-2,1 -3.18333,3.1 -3.55,6.3c-0.16667,1.3 -0.15,2.4 0.05,3.3c0.23333,0.96667 0.7,1.98333 1.4,3.05c0.16667,0.26667 0.86667,1.18333 2.1,2.75c2.38268,3.08099 4.24935,6.38099 5.6,9.9c-1.48008,-0.34622 -2.54674,-0.89622 -3.2,-1.65c-0.21667,-0.26654 -0.41667,-0.5832 -0.6,-0.95c-0.6194,0.15586 -1.25273,0.28919 -1.9,0.4c-2.94544,0.52422 -5.69544,0.40755 -8.25,-0.35c-0.85456,-0.23984 -1.68789,-0.55651 -2.5,-0.95c-2.16667,-1 -4.51667,-2.8 -7.05,-5.4c-2.90052,-2.87852 -5.55052,-5.99518 -7.95,-9.35c-0.09023,-0.15911 -0.19023,-0.32578 -0.3,-0.5c0.10273,0.05273 0.20273,0.08607 0.3,0.1c0.36667,0.03333 0.7,-0.03333 1,-0.2c0.33333,-0.2 0.51667,-0.45 0.55,-0.75c-0.7,0.1 -1.31667,-0.25 -1.85,-1.05c-0.4,-0.93333 -0.71667,-1.61667 -0.95,-2.05c-0.06667,-0.1 -0.56667,-0.76667 -1.5,-2c-0.5,-0.66667 -1.26667,-2.08333 -2.3,-4.25c-0.73333,-1.53333 -1.93333,-3.76667 -3.6,-6.7c-0.96667,-1.76667 -1.8,-3.15 -2.5,-4.15c-0.67253,-0.95768 -1.55586,-2.02435 -2.65,-3.2c-0.03398,-0.01562 -0.06732,-0.04896 -0.1,-0.1c-0.67214,-0.68828 -1.42214,-1.42161 -2.25,-2.2c-4,-3.6 -8.56667,-6.65 -13.7,-9.15c-3.76667,-1.7 -6.76667,-2.13333 -9,-1.3c-0.33333,0.13333 -0.61667,0.33333 -0.85,0.6c-0.23333,0.3 -0.28333,0.58333 -0.15,0.85c0.13333,0.23333 0.48333,0.41667 1.05,0.55c2.33333,0.43333 4.83333,1.36667 7.5,2.8c1.5,0.8 3.78333,2.23333 6.85,4.3c3.26667,2.26667 5.61667,4.05 7.05,5.35c0.25156,0.23893 0.50156,0.48893 0.75,0.75l0.05,0.05c1.12526,1.125 2.34193,2.475 3.65,4.05l1.15,1.55c0.7,0.96667 1.65,2.48333 2.85,4.55c1.93333,3.26667 3.35,5.55 4.25,6.85l0.95,1.25c-0.08307,1.21029 0.21693,2.51029 0.9,3.9c0.07513,0.15456 0.15846,0.32122 0.25,0.5c-4.98945,-1.66055 -8.73945,-2.97721 -11.25,-3.95c-4.66667,-1.76667 -8.43333,-3.75 -11.3,-5.95c-1.58802,-1.19102 -3.42135,-2.89102 -5.5,-5.1c4.39922,-2.87031 8.98255,-5.32031 13.75,-7.35c-0.73333,-0.8 -1.7,-1.35 -2.9,-1.65c-1.1,-0.26667 -2.23333,-0.3 -3.4,-0.1c-1.7,0.3 -3.76667,1.25 -6.2,2.85c-3.56667,2.33333 -8.2,6.06667 -13.9,11.2c-2.41953,2.17513 -4.5862,4.07513 -6.5,5.7l-0.05,0.05c-1.78164,1.54531 -3.34831,2.84531 -4.7,3.9c-0.91693,0.75013 -1.73359,1.38346 -2.45,1.9c-9.56667,6.93333 -20.23333,11.4 -32,13.4c-6.8,1.16667 -13.25,1.23333 -19.35,0.2c-6.83333,-1.13333 -12.68333,-3.56667 -17.55,-7.3c-1.93333,-1.46667 -3.31667,-1.71667 -4.15,-0.75c-0.66667,0.86667 -0.41667,2.03333 0.75,3.5c3.86667,4.66667 9.05,7.95 15.55,9.85c6.03333,1.76667 12.3,2.08333 18.8,0.95c2.12005,-0.38047 4.52005,-0.98047 7.2,-1.8c0.05937,-0.00443 0.10938,-0.02109 0.15,-0.05c2.23685,-0.64375 4.67018,-1.44375 7.3,-2.4c8.93333,-3.16667 15.96667,-6.38333 21.1,-9.65c1.99505,-1.28099 4.27839,-2.96432 6.85,-5.05c0.03086,0.00534 0.04753,0.00534 0.05,0c0.47135,-0.37396 0.93802,-0.75729 1.4,-1.15c0.56914,1.57031 1.81914,3.35365 3.75,5.35c0.25807,0.27422 0.52474,0.54089 0.8,0.8c0.33971,1.34753 0.82305,2.54753 1.45,3.6c0.96667,1.66667 2.63333,3.35 5,5.05c3.73333,2.73333 5.68333,4.16667 5.85,4.3c0.5599,0.47031 1.27656,1.12031 2.15,1.95c0.02695,0.02552 0.04362,0.04219 0.05,0.05c0.42839,0.40521 0.87839,0.83854 1.35,1.3c0.16536,0.1349 0.33203,0.26823 0.5,0.4c-0.11536,0.09479 -0.23203,0.19479 -0.35,0.3c-0.06667,0.03333 -1.11667,1.06667 -3.15,3.1c-1.5,1.46667 -4.1,3.43333 -7.8,5.9c-0.1319,0.0862 -0.26523,0.16953 -0.4,0.25c-1.6388,0.4694 -3.45547,1.20273 -5.45,2.2c-4.86667,2.43333 -7.51667,3.73333 -7.95,3.9c-2.2,0.9 -4.75,1.58333 -7.65,2.05c-1.83333,0.3 -4.48333,0.6 -7.95,0.9c-4.8,0.43333 -8.41667,0.71667 -10.85,0.85c-4,0.2 -7.61667,0.18333 -10.85,-0.05c-1.93333,-0.13333 -5.36667,-0.55 -10.3,-1.25c-4.36667,-0.63333 -7.81667,-0.98333 -10.35,-1.05c-5.79714,-0.20781 -10.7138,0.60885 -14.75,2.45c-0.06771,0.04779 -0.13437,0.08112 -0.2,0.1c-1.7112,0.81797 -3.2612,1.81797 -4.65,3c-1.66667,1.43333 -3.66667,3.81667 -6,7.15l-25.9,36.35c-0.23737,-0.55352 -0.53737,-1.12018 -0.9,-1.7c-0.20508,-0.37799 -0.43841,-0.76133 -0.7,-1.15c-0.21276,-0.31224 -0.42943,-0.62891 -0.65,-0.95c-3.95951,-5.52344 -8.89284,-10.00677 -14.8,-13.45c-2.73333,-1.6 -7.3,-3.63333 -13.7,-6.1c-7.46667,-2.86667 -13.08333,-4.96667 -16.85,-6.3c-0.45273,-0.16133 -0.90273,-0.32799 -1.35,-0.5c-5.7375,-1.9987 -10.9875,-3.63203 -15.75,-4.9c-3.93333,-1.06667 -7.1,-1.56667 -9.5,-1.5c-0.44492,0.00885 -0.87826,0.02552 -1.3,0.05c2.52643,-3.37982 4.47643,-5.94648 5.85,-7.7c1.73333,-2.16667 4.33333,-5.11667 7.8,-8.85c3.7,-3.96667 6.31667,-6.88333 7.85,-8.75c1.46667,-1.76667 3.01667,-3.75 4.65,-5.95l8.85,-11.6c3.13333,-4.1 5.5,-7.33333 7.1,-9.7c0.14766,-0.21953 0.29766,-0.4362 0.45,-0.65c0.60872,-0.5125 1.12539,-1.17917 1.55,-2c3.07357,-5.72227 7.59023,-10.9556 13.55,-15.7c1.98841,-1.56458 4.13841,-3.08125 6.45,-4.55c3.53333,-2.23333 7.73333,-4.53333 12.6,-6.9c0.01654,-0.00794 0.0332,-0.02461 0.05,-0.05c1.89427,-0.89414 6.24427,-2.87747 13.05,-5.95c9.67487,-4.36589 19.24154,-8.94922 28.7,-13.75c0.02669,0.00339 0.04336,0.00339 0.05,0c21.33555,-10.80742 42.16888,-22.70742 62.5,-35.7l5.9,-0.9c0.40456,0.36276 0.98789,0.59609 1.75,0.7c0.95977,0.09844 1.92643,-0.00156 2.9,-0.3c1.5724,0.18919 3.6224,0.43919 6.15,0.75c0.05,0.00625 0.1,0.00625 0.15,0c3.84336,0.49284 8.79336,1.14284 14.85,1.95c0.03294,0.00339 0.06628,0.00339 0.1,0c0.24727,0.0332 0.49727,0.06654 0.75,0.1c8.225,1.08372 15.175,1.75039 20.85,2c0.76901,0.27201 1.61901,0.55534 2.55,0.85M233.11006,254.22598c-2.26667,4.33333 -4.11667,7.55 -5.55,9.65c-2.33333,3.36667 -4.85,5.95 -7.55,7.75c-1.03333,0.63333 -1.81667,1.11667 -2.35,1.45c-0.04362,0.02643 -0.09362,0.0431 -0.15,0.05c-1.13659,-2.10703 -2.23659,-4.14036 -3.3,-6.1c-2.90547,-5.42161 -5.40547,-10.15495 -7.5,-14.2l23.3,0.3c1.36927,0.02161 2.63594,0.02161 3.8,0c-0.24141,0.33112 -0.47474,0.69779 -0.7,1.1M257.16006,233.12598c-0.06667,0.83333 -0.31667,2.4 -0.75,4.7c-0.73333,3.26667 -1.71667,5.6 -2.95,7c-1.30039,1.45039 -3.28372,2.50039 -5.95,3.15c-0.86745,0.20846 -1.81745,0.37513 -2.85,0.5c-1.26667,0.18333 -2.61667,0.33333 -4.05,0.45c-1.43333,0.1 -2.95,0.16667 -4.55,0.2c-1.93333,0.03333 -4.83333,0.01667 -8.7,-0.05l-7.5,-0.15c-5.63437,-0.04701 -10.01771,-0.04701 -13.15,0c-0.00846,-0.00039 -0.02513,-0.00039 -0.05,0c-0.70742,0.00286 -1.35742,0.00286 -1.95,0c-0.49622,-0.98359 -0.96289,-1.91693 -1.4,-2.8c-4.42187,-8.97318 -7.67187,-17.22318 -9.75,-24.75c3.29076,0.72513 6.99076,0.47513 11.1,-0.75c1.86667,-0.56667 4.06667,-1.41667 6.6,-2.55c1.46667,-0.66667 3.61667,-1.66667 6.45,-3c1.12904,-0.49779 2.22904,-0.94779 3.3,-1.35c-0.325,0.36172 -0.625,0.74505 -0.9,1.15c-0.26667,0.36667 -0.43333,0.73333 -0.5,1.1c-0.06667,0.43333 0.03333,0.76667 0.3,1c0.5,0.4 1.23333,0.18333 2.2,-0.65c1.7,-1.5 3.85,-2.75 6.45,-3.75c1.43802,-0.53255 3.27135,-1.08255 5.5,-1.65c0.90078,-0.01706 1.76745,0.01628 2.6,0.1c1.1224,0.12474 2.2224,0.32474 3.3,0.6c1.22878,0.30313 2.42878,0.70313 3.6,1.2c2.1,0.9 3.96667,2.01667 5.6,3.35c2.6,2.06667 4.61667,4.58333 6.05,7.55c1.5,3.1 2.15,6.23333 1.95,9.4M143.81006,265.02598c1.73333,2.1 3.28333,3.75 4.65,4.95c1.7,1.53333 3.8,2.95 6.3,4.25c1.73333,0.93333 4.05,1.98333 6.95,3.15c3.66667,1.5 6.68333,2.41667 9.05,2.75c1.03333,0.13333 1.95,0.06667 2.75,-0.2c0.61289,-0.21888 1.06289,-0.53555 1.35,-0.95c0.59596,0.9168 1.39596,2.00013 2.4,3.25c0.93333,1.2 2.28333,3 4.05,5.4c1.6,2.06667 3.1,3.7 4.5,4.9c1.12253,0.92734 2.32253,1.72734 3.6,2.4c-0.26875,-0.00391 -0.53542,0.02943 -0.8,0.1c-0.56667,0.16667 -1.43333,0.66667 -2.6,1.5c-4.23333,3.13333 -8.95,5 -14.15,5.6c-1.63333,0.2 -4.08333,0.3 -7.35,0.3c-3.3,-0.03333 -5.8,-0.18333 -7.5,-0.45c-2.73333,-0.4 -5.03333,-1.2 -6.9,-2.4c-0.72852,-0.44831 -1.57852,-1.11497 -2.55,-2c0.07266,-0.08203 0.08932,-0.18203 0.05,-0.3c-3.6,-4.03333 -7.21667,-7.71667 -10.85,-11.05c-1.73333,-1.63333 -2.93333,-2.81667 -3.6,-3.55c-1.16458,-1.31784 -2.06458,-2.60117 -2.7,-3.85c0.04974,-0.81784 0.23307,-1.55117 0.55,-2.2c0.2974,-0.55247 0.6974,-1.00247 1.2,-1.35c-0.04909,-0.03542 -0.09909,-0.06875 -0.15,-0.1c-0.43333,-0.23333 -0.85,-0.25 -1.25,-0.05c-0.53333,0.26667 -0.83333,0.98333 -0.9,2.15c-0.00521,0.13008 -0.02188,0.24674 -0.05,0.35c-0.31914,-0.67826 -0.53581,-1.09492 -0.65,-1.25c0.04505,-0.01628 0.07839,-0.04961 0.1,-0.1h0.05c5.83333,-5.03333 9.65,-8.23333 11.45,-9.6c0.90091,-0.68073 1.80091,-1.3474 2.7,-2c0.1026,0.12201 0.2026,0.23867 0.3,0.35M190.66006,168.02598c3.33815,-0.14961 6.92148,-0.04961 10.75,0.3c0.33333,0.03333 7.05,0.95 20.15,2.75c9.56237,1.31992 18.2457,1.76992 26.05,1.35c1.87422,-0.10169 3.69089,-0.25169 5.45,-0.45c3.63333,-0.4 9.18333,-1.05 16.65,-1.95c1.57995,-0.07487 3.07995,-0.07487 4.5,0c4.33945,0.29036 8.02279,1.3237 11.05,3.1c1.66667,1 3.33333,2.31667 5,3.95c1.13333,1.1 2.56667,2.68333 4.3,4.75l15.35,17.8c1.96667,2.3 3.51667,4 4.65,5.1c1.8,1.76667 3.58333,3.15 5.35,4.15c0.725,0.41432 1.45833,0.76432 2.2,1.05c1.07253,1.20781 2.30586,2.37448 3.7,3.5c0.34427,0.28229 0.7276,0.58229 1.15,0.9c0.05703,0.04219 0.10703,0.07552 0.15,0.1c2.09505,1.53789 5.09505,3.43789 9,5.7c0.42435,0.26341 0.82435,0.48008 1.2,0.65c0.00833,0.54154 -0.075,1.07487 -0.25,1.6c-0.23086,0.61563 -0.63086,1.23229 -1.2,1.85c-0.25846,0.27396 -0.55846,0.54062 -0.9,0.8c-1.23034,-0.30469 -2.48034,-0.40469 -3.75,-0.3c0.23333,0.73333 0.75,1.36667 1.55,1.9c-0.83581,0.50365 -1.61914,0.87031 -2.35,1.1c-1.03333,0.26667 -2.08333,0.31667 -3.15,0.15c-0.33958,-0.05143 -0.67292,-0.13477 -1,-0.25c-0.38398,0.1224 -0.78398,0.2224 -1.2,0.3c-1.93333,0.33333 -4.28333,0.43333 -7.05,0.3c-5.63333,-0.23333 -10.28333,-1.08333 -13.95,-2.55c-3.36667,-1.36667 -7.16667,-3.8 -11.4,-7.3c-3.33333,-2.83333 -5.81667,-5.43333 -7.45,-7.8c-1.1,-1.56667 -2.13333,-3.41667 -3.1,-5.55c-0.49049,-1.06263 -1.12383,-2.5793 -1.9,-4.55c-0.02904,-0.82513 0.0043,-1.5418 0.1,-2.15c-0.06445,-0.14167 -0.14779,-0.275 -0.25,-0.4c-0.4,-0.5 -1.23333,-0.96667 -2.5,-1.4l-0.6,0.35c0.6,0.6 0.9,1.5 0.9,2.7c0,0.13333 -0.03333,0.63333 -0.1,1.5c-0.03333,0.6 -0.01667,1.08333 0.05,1.45c0.1112,0.69518 0.39453,1.41185 0.85,2.15v0.05c-0.025,-0.00807 -0.05833,-0.02474 -0.1,-0.05c-0.01654,0.00833 -0.04987,0.00833 -0.1,0c-0.67266,-0.21862 -1.38932,-0.40195 -2.15,-0.55c-2.83333,-0.53333 -6.33333,-0.66667 -10.5,-0.4c-1.71823,0.10664 -3.51823,0.25664 -5.4,0.45c-1.04284,0.10391 -2.12617,0.22057 -3.25,0.35c-2.41068,0.28685 -4.94401,0.63685 -7.6,1.05c-3.63333,0.56667 -9,1.51667 -16.1,2.85c-3.66667,0.66667 -6.35,1.4 -8.05,2.2c-0.38203,0.17461 -0.7487,0.35794 -1.1,0.55c-0.85482,0.22539 -1.77148,0.47539 -2.75,0.75l-15.7,4.45c-2.73333,0.76667 -4.71667,1.26667 -5.95,1.5c-2.26667,0.46667 -4.3,0.65 -6.1,0.55c-0.08516,-0.00547 -0.16849,-0.02214 -0.25,-0.05c-0.26107,0.01172 -0.51107,0.01172 -0.75,0c-0.25299,-1.12461 -0.48633,-2.24128 -0.7,-3.35c-0.42604,-2.12982 -0.74271,-3.64648 -0.95,-4.55v-0.05c-0.06211,-0.33919 -0.11211,-0.58919 -0.15,-0.75c-0.53333,-1.96667 -1.21667,-3.61667 -2.05,-4.95c-0.5224,-0.80599 -1.15573,-1.57266 -1.9,-2.3c0.09583,-0.25677 0.1625,-0.5401 0.2,-0.85c0.03333,-0.2 0.05,-1.08333 0.05,-2.65c0.03333,-0.66667 0.15,-1.63333 0.35,-2.9c0.26667,-1.63333 0.63333,-2.75 1.1,-3.35l-1,-0.2c-0.2,0.23333 -0.43333,0.61667 -0.7,1.15c-0.1,0.2 -0.45,0.68333 -1.05,1.45c-0.43333,0.56667 -0.73333,1.06667 -0.9,1.5c-0.23333,0.63333 -0.31667,1.55 -0.25,2.75l0.05,1.25c-0.29596,-0.21536 -0.61263,-0.43203 -0.95,-0.65c-1.6,-1.03333 -3.73333,-2.1 -6.4,-3.2c-1.96667,-0.83333 -3.6,-1.4 -4.9,-1.7c-0.15534,-0.03385 -0.30534,-0.06719 -0.45,-0.1c-0.00104,-0.29401 0.01563,-0.59401 0.05,-0.9c-1.34922,-0.09401 -3.06589,-0.16068 -5.15,-0.2c-5.76667,-0.1 -11.46667,-0.5 -17.1,-1.2c-6.44766,-0.95638 -11.41432,-1.63971 -14.9,-2.05c8.32604,-3.61979 16.65938,-7.60312 25,-11.95c2.10352,-1.1043 3.92018,-2.0543 5.45,-2.85c0.02357,-0.00312 0.04023,-0.01979 0.05,-0.05c2.32214,-1.16094 3.97214,-1.96094 4.95,-2.4c3.96667,-1.86667 7.6,-3.2 10.9,-4c2.82018,-0.68424 5.88685,-1.11758 9.2,-1.3z" fill="#9b6945"/><path d="M215.06006,277.52598c0.05313,0.16797 0.10312,0.3513 0.15,0.55c0.16315,0.58438 0.32982,1.31771 0.5,2.2l0.7,1.6c0.8,1.83333 1.31667,3.06667 1.55,3.7c0.9,2.26667 1.63333,4.78333 2.2,7.55c0.43333,2.43333 0.51667,4.41667 0.25,5.95c-0.13333,0.66667 -0.36667,1.66667 -0.7,3c-0.06667,0.73333 -0.08333,1.86667 -0.05,3.4c-0.06667,1.23333 -0.56667,2.95 -1.5,5.15c-0.66667,1.56667 -1.21667,2.75 -1.65,3.55c-0.7,1.26667 -1.48333,2.28333 -2.35,3.05c0.0457,-1.07969 0.07904,-2.11302 0.1,-3.1c0.12005,-4.77031 -0.01328,-8.45365 -0.4,-11.05c-0.3,-1.8 -0.7,-3.53333 -1.2,-5.2c-0.36276,-1.16055 -0.72943,-2.24388 -1.1,-3.25c-0.02031,-0.03216 -0.03698,-0.06549 -0.05,-0.1c-0.13359,-0.34219 -0.26693,-0.67552 -0.4,-1c-1.23333,-3.2 -2.51667,-5.66667 -3.85,-7.4c-1.33333,-1.5 -2.3,-2.63333 -2.9,-3.4c-1.06667,-1.36667 -1.7,-2.65 -1.9,-3.85c-0.16667,-1.06667 -0.01667,-2.3 0.45,-3.7c0.56667,-1.7 1.4,-2.93333 2.5,-3.7c0.63333,-0.46667 1.33333,-0.73333 2.1,-0.8c0.8,-0.1 1.51667,0.03333 2.15,0.4c-0.08333,-0.4 -0.26667,-0.73333 -0.55,-1l1.25,-0.7c0.82331,1.44701 1.58997,2.73034 2.3,3.85l0.2,0.55c0.47057,0.40547 0.88724,0.92214 1.25,1.55c0.36224,0.62214 0.67891,1.35547 0.95,2.2M348.06006,229.07598c1.86667,3.8 2.9,7.01667 3.1,9.65c0.06667,1.33333 -0.01667,2.53333 -0.25,3.6c-0.1,0.86667 -0.33333,1.58333 -0.7,2.15c-3.44062,-4.73607 -6.39062,-8.6694 -8.85,-11.8c-0.00768,-0.01732 -0.02435,-0.05065 -0.05,-0.1c-1.54258,-1.94076 -2.89258,-3.57409 -4.05,-4.9l0.65,-0.75c0.12995,-0.15938 0.24661,-0.32604 0.35,-0.5c-0.1306,-0.06901 -0.2806,-0.15234 -0.45,-0.25c0.21836,-0.14102 0.41836,-0.29102 0.6,-0.45c0.94401,-0.84635 1.62734,-1.77969 2.05,-2.8c0.07214,0.15326 0.1388,0.28659 0.2,0.4c0.45221,-0.62461 0.83555,-1.20794 1.15,-1.75c-0.12721,-0.1707 -0.27721,-0.38737 -0.45,-0.65c0.18542,0.18008 0.36875,0.34674 0.55,0.5c0.08776,-0.15234 0.17109,-0.30234 0.25,-0.45c0.07721,-0.14154 0.14388,-0.29154 0.2,-0.45c2.02552,2.075 3.92552,4.925 5.7,8.55z" fill="#333333"/><path d="M10.61006,370.42598l-4.95,6.95c-0.2957,0.07266 -0.61237,0.12266 -0.95,0.15c-1.76667,0.2 -4.06667,-0.15 -6.9,-1.05c-1.75,-0.50833 -3.66667,-1.125 -5.75,-1.85c-6.25833,-2.08333 -14.025,-5.05 -23.3,-8.9c-2.76667,-1.13333 -4.6,-1.91667 -5.5,-2.35c-2.83372,-1.25846 -5.60039,-2.6418 -8.3,-4.15c-8.02526,-4.46693 -15.37526,-10.00026 -22.05,-16.6c-1.2,-1.2 -1.78333,-2.26667 -1.75,-3.2c0.01654,-0.41484 0.11654,-0.79818 0.3,-1.15c0.23164,-0.36536 0.54831,-0.6987 0.95,-1c0.7,-0.5 1.56667,-0.86667 2.6,-1.1c3.33333,-0.73333 7.23333,-0.65 11.7,0.25c2.6,0.53333 6.48333,1.55 11.65,3.05c2,0.46667 3.35,0.83333 4.05,1.1c1.5,0.46667 2.75,1.06667 3.75,1.8l1.55,1.3c0.6,0.5 1.13333,0.86667 1.6,1.1c0.5,0.23333 1.21667,0.46667 2.15,0.7c1.03333,0.23333 1.73333,0.41667 2.1,0.55c1.03333,0.36667 1.96667,0.96667 2.8,1.8c0.8,0.8 1.38333,1.71667 1.75,2.75c0.46667,-0.9 0.48333,-1.8 0.05,-2.7c8.83333,2.4 16.86667,6.35 24.1,11.85c2.65221,2.02669 4.66888,3.97669 6.05,5.85c0.47578,0.62643 0.87578,1.2431 1.2,1.85c0.57253,1.05924 0.93919,2.05924 1.1,3z" fill="#835737"/></g></g></svg>