<svg version="1.1" xmlns="http://www.w3.org/2000/svg" xmlns:xlink="http://www.w3.org/1999/xlink" width="192.90028" height="120.9811" viewBox="0,0,192.90028,120.9811"><g transform="translate(-109.84485,-86.86721)"><g data-paper-data="{&quot;isPaintingLayer&quot;:true}" fill-rule="nonzero" stroke="none" stroke-width="1" stroke-linecap="butt" stroke-linejoin="miter" stroke-miterlimit="10" stroke-dasharray="" stroke-dashoffset="0" style="mix-blend-mode: normal"><g><path d="M277.96522,180.1302c-1.3957,2.87743 -3.12119,5.58277 -5.1765,8.11607c-2.23694,2.76271 -4.81802,5.12871 -7.74325,7.09797c-0.15557,0.10504 -0.31329,0.20542 -0.4732,0.30113c-2.42699,1.53768 -5.03676,2.36935 -7.82926,2.49504c-0.20075,0.02866 -0.26288,-0.07648 -0.1864,-0.31547c0.06718,-0.21592 0.17712,-0.40233 0.32981,-0.55923c0.16105,-0.15572 0.3618,-0.28477 0.60225,-0.38716c0.05783,-0.0274 0.11043,-0.06086 0.15773,-0.10037c1.36063,-0.83004 2.60338,-1.78121 3.72823,-2.85352c0.59244,-0.55827 1.15167,-1.15096 1.67769,-1.77808c0.63262,-0.74462 1.22053,-1.53804 1.76375,-2.38034c0.43973,-0.68828 0.90337,-1.35745 1.3909,-2.0075c-0.11472,2.01707 -0.86991,3.86684 -2.26561,5.54932c-0.3542,0.42981 -0.72224,0.84086 -1.10413,1.23318c-0.53657,0.56055 -1.10057,1.08632 -1.69204,1.57734c0.83747,-0.33639 1.64525,-0.71399 2.42335,-1.13282c2.44788,-1.28744 4.62746,-2.95559 6.53873,-5.00442c3.36496,-3.6135 6.0512,-7.64765 8.05871,-12.1024l-0.11473,-0.18641l0.57358,-0.043c0.04779,0.13385 0.07648,0.27245 0.08604,0.41584c0,0.13385 -0.02867,0.26766 -0.08604,0.40151c-0.20075,0.55446 -0.42062,1.10891 -0.6596,1.66337M240.52523,178.02231c0.01912,0.04779 0.06691,0.17208 0.14339,0.37283c0.06691,0.15295 0.10993,0.28201 0.12905,0.38716c0.03823,0.15295 0.04779,0.35371 0.02867,0.60225c-0.00955,0.13385 -0.02867,0.33458 -0.05737,0.60225c0,0.0956 -0.00477,0.23421 -0.01434,0.41584c-0.00955,0.15295 -0.03823,0.28201 -0.08603,0.38717c-0.10515,0.21987 -0.38717,0.43973 -0.84602,0.65959c-0.5927,0.25811 -1.03721,0.3824 -1.33356,0.37283c-0.32503,0 -0.69785,-0.10994 -1.11846,-0.32981c-0.93683,-0.45885 -1.73984,-1.10413 -2.40902,-1.93581c0.1912,-0.239 0.52099,-0.22942 0.98942,0.02868l1.50563,0.78866c0.28678,0.15295 0.50666,0.23899 0.6596,0.25811c0.239,0.02866 0.54968,-0.01912 0.93206,-0.14339c0.38239,-0.11472 0.63093,-0.26767 0.74563,-0.45885c0.03823,-0.06691 0.07649,-0.18163 0.11472,-0.34414c0.03823,-0.15295 0.08125,-0.26767 0.12905,-0.34415c0.03823,-0.04779 0.0956,-0.1195 0.17207,-0.21508c0.06692,-0.08604 0.10516,-0.16729 0.11473,-0.24376c0.00955,-0.05737 -0.04301,-0.19598 -0.15773,-0.41584c-0.0956,-0.19119 -0.11473,-0.48275 -0.05737,-0.87469c0.06692,-0.43019 0.07649,-0.7313 0.02867,-0.90337l0.25811,-0.07171c0,0.6596 0.04301,1.12803 0.12905,1.40525M265.3753,89.04678l-1.24753,0.27245l-0.02867,-0.18641l1.27619,-0.08604M229.28322,93.04745c0.90827,-0.35446 1.78295,-0.77507 2.62409,-1.26186c0.55308,0.08361 1.12665,-0.04066 1.72073,-0.37282c0.34414,-0.19119 0.84123,-0.25332 1.49128,-0.18641c0.11912,-0.05763 0.23861,-0.11497 0.35848,-0.17208c3.59439,-0.83168 7.18878,-1.54387 10.78318,-2.13656c3.42232,-0.56401 6.84464,-0.99419 10.26696,-1.29054c3.08773,-0.32503 6.17548,-0.51622 9.2632,-0.57358c2.34347,-0.03806 4.68077,-0.07629 7.01193,-0.11473c0.60561,-0.00937 1.20786,-0.01892 1.80676,-0.02866c0.15396,-0.00266 0.3069,-0.01221 0.45885,-0.02866c0.0985,0 0.19411,-0.00477 0.28679,-0.01434c0.91048,0.08156 1.81863,0.14846 2.72448,0.20075c-0.07113,0.04114 -0.14284,0.07938 -0.21509,0.11472c0.16252,0.01912 0.32981,0.04301 0.50188,0.07171c0.13384,0.01912 0.27245,0.04301 0.41584,0.07171c0.13385,0.03824 0.27245,0.08124 0.41584,0.12904c0.12427,0.04779 0.24854,0.09561 0.37282,0.14339c0.08319,0.04161 0.16446,0.08462 0.24376,0.12905c-0.82578,0.23519 -1.63834,0.49329 -2.43768,0.77432c-0.4843,0.01348 -0.97182,0.01826 -1.46261,0.01434c-0.8129,-0.00337 -1.63025,-0.03203 -2.45202,-0.08603c-0.2388,-0.01028 -0.4778,-0.0246 -0.71697,-0.04301c-1.96927,-0.08604 -3.95288,-0.10037 -5.95083,-0.043c-0.48298,0.01878 -0.96576,0.03789 -1.44828,0.05737h-0.01434c-0.42559,0.0258 -0.85099,0.0497 -1.27619,0.07169c-3.50608,0.20841 -7.0001,0.54777 -10.48205,1.0181c-3.57936,0.45151 -7.14985,0.95816 -10.71149,1.51997c-0.11695,0.00384 -0.23645,0.00384 -0.35847,0c0.27902,0.14126 0.52277,0.20819 0.7313,0.20076c-1.59305,0.47469 -3.19905,0.8953 -4.81802,1.26185c-0.16374,0.06969 -0.33582,0.14137 -0.51622,0.21509c-1.37658,0.57358 -2.11745,0.87948 -2.22261,0.91772c-0.61181,0.21031 -1.41481,0.4254 -2.40901,0.64526c-1.36702,0.29634 -2.17957,0.47798 -2.43768,0.54489c-1.19613,0.31012 -2.7878,0.88371 -4.77501,1.72071c0.03226,0.00832 0.06094,0.01311 0.08604,0.01434c-0.91024,0.37233 -1.85664,0.78339 -2.83921,1.23319c-1.3479,0.62136 -3.27415,1.56299 -5.77874,2.82485c-2.16046,1.08022 -3.80948,1.94058 -4.94706,2.58108c-1.79719,1.01331 -3.36019,2.01706 -4.68895,3.01125c-3.37453,2.54285 -5.69748,5.38681 -6.96891,8.5319c-0.21988,0.55446 -0.48754,1.33834 -0.803,2.35164c-0.33459,1.11846 -0.58792,1.90714 -0.75998,2.366c-0.66916,1.88323 -1.54386,3.26459 -2.62409,4.14407c-0.40957,0.3443 -0.85408,0.61196 -1.33356,0.803c-0.28697,0.12595 -0.58811,0.22154 -0.90337,0.28679c-0.86991,0.19119 -1.67292,0.12905 -2.40901,-0.18641c-0.40207,-0.18615 -0.64106,-0.40603 -0.71697,-0.6596c-0.00572,-0.02866 -0.01049,-0.06213 -0.01434,-0.10037c-0.11546,-0.04534 -0.23495,-0.09791 -0.35847,-0.15773c-1.35746,-0.65006 -2.58585,-1.53909 -3.68521,-2.66711c-0.03823,0.07648 -0.02867,0.16729 0.02867,0.27245c0.00955,0.02866 0.07648,0.11472 0.20075,0.25811c0.06692,0.08604 0.12905,0.19596 0.18641,0.32981c0.02867,0.07648 0.07169,0.19119 0.12905,0.34414c0.10515,0.24855 0.24854,0.50187 0.43018,0.75998c0.4493,0.62136 0.99419,1.15194 1.63468,1.59167c0.2164,0.14201 0.37415,0.26628 0.4732,0.37282c0.04455,0.04685 0.07801,0.08989 0.10037,0.12905c0.07648,0.11472 0.10994,0.23899 0.10038,0.37282c0,0.14339 -0.05258,0.25333 -0.15773,0.32981c-0.10615,0.08496 -0.27824,0.09929 -0.51622,0.04301c-0.033,-0.00949 -0.07124,-0.02383 -0.11472,-0.04301c-0.04451,-0.00905 -0.09231,-0.02336 -0.14339,-0.043c-0.41719,-0.17219 -0.82824,-0.32515 -1.23318,-0.45886c-0.75651,-0.24746 -1.48782,-0.42433 -2.19392,-0.53056c-0.85079,-0.13385 -2.0553,-0.20076 -3.6135,-0.20076c-0.28679,0 -0.43019,0.07648 -0.43019,0.22943c0.18163,0.21031 0.44931,0.38716 0.803,0.53056c0.20075,0.07648 0.51144,0.18163 0.93206,0.31547c0.4493,0.16252 0.91772,0.40628 1.40526,0.73132c0.16224,0.10815 0.36778,0.25632 0.61659,0.44452c0.19478,0.14904 0.41465,0.32111 0.6596,0.51622c0.18667,0.14483 0.33484,0.28344 0.44452,0.41584c0.08029,0.10478 0.13765,0.20515 0.17208,0.30113c0.28503,0.03259 0.524,0.14254 0.71696,0.3298c-0.00564,0.00911 -0.01041,0.01869 -0.01434,0.02868c0.0767,0.03129 0.14362,0.07909 0.20075,0.14338c0.11277,0.13883 0.1749,0.33004 0.18641,0.57358c0,0.02217 0,0.04609 0,0.07171c0,0.31547 -0.06214,0.55446 -0.18641,0.71697c-0.04779,0.06691 -0.13861,0.15295 -0.27245,0.25811c-0.12427,0.10515 -0.21031,0.1912 -0.25811,0.25811c-0.00888,0.01979 -0.01845,0.03891 -0.02867,0.05737c-0.07483,0.15989 -0.14653,0.26983 -0.21508,0.32981c-0.08604,0.07648 -0.25332,0.13384 -0.50187,0.17208c-0.05863,0.00702 -0.11121,0.01658 -0.15773,0.02867l-0.02866,0.08603l-0.05737,0.08603c-0.33492,0.21423 -0.67907,0.42454 -1.03244,0.63094c-2.62839,1.53216 -5.64442,2.80835 -9.04811,3.8286c-2.8105,0.84124 -6.48137,1.6538 -11.01259,2.43767c-6.6152,1.15671 -10.36255,1.82588 -11.24203,2.00751c-4.22532,0.87948 -7.83884,1.93581 -10.84054,3.16899c-5.22909,2.16046 -10.63501,5.64492 -16.21778,10.45337c-1.62513,1.40526 -3.0017,2.70057 -4.12973,3.88596c-1.40526,1.46261 -2.58585,2.92522 -3.54182,4.38782c-1.26186,1.93103 -2.38511,4.254 -3.36975,6.96891c-0.5927,1.63468 -1.35268,4.11539 -2.27996,7.44211c-0.58313,2.09355 -0.99418,3.67564 -1.23318,4.74632c-0.41107,1.77808 -0.6835,3.38888 -0.81735,4.83235c-0.07648,0.83168 -0.13385,3.05427 -0.17208,6.6678c-0.02424,2.29347 -0.18675,4.21017 -0.48754,5.75008c0.10504,0.89244 0.21976,1.7767 0.34415,2.65277c0.18197,0.5751 0.40662,1.14389 0.67395,1.70638c0.11008,0.22409 0.17221,0.41528 0.1864,0.57358c0.27794,-0.50281 0.58863,-0.98558 0.93207,-1.44828c0.03886,-0.04698 0.0771,-0.09477 0.11472,-0.14339c0.05089,-0.06568 0.09869,-0.13262 0.14339,-0.20076c0.00559,-0.00923 0.00559,-0.02357 0,-0.04301c1.15329,-1.5865 2.51076,-3.09215 4.07238,-4.51689c2.18914,-1.99794 4.71765,-3.7569 7.58551,-5.27688c2.49503,-1.31922 5.32466,-2.50461 8.48888,-3.55616c2.47592,-0.82212 5.44894,-1.64902 8.91908,-2.4807c2.39944,-0.57358 6.381,-1.4387 11.94467,-2.59541c8.39329,-1.73028 14.7504,-2.89655 19.07131,-3.4988c7.11231,-0.98463 13.53156,-1.30966 19.25772,-0.97507c1.30966,0.07648 3.27414,0.20075 5.89346,0.37282c2.02159,0.05998 3.79488,-0.05473 5.31989,-0.34414c0.17423,-0.02917 0.34631,-0.06262 0.51622,-0.10037c0.73325,-0.16207 1.96644,-0.54923 3.69956,-1.16149c0.05344,-0.01519 0.10601,-0.03432 0.15773,-0.05737c0.03383,-0.00738 0.06728,-0.01694 0.10037,-0.02866c0.34011,-0.12121 0.69858,-0.25028 1.07545,-0.38717c1.20554,-0.4369 2.28099,-0.77149 3.22634,-1.00375c0.26296,-0.06558 0.5163,-0.12293 0.75998,-0.17208c0.172,-0.03526 0.33928,-0.0687 0.50187,-0.10037c0.01512,0.00242 0.02946,0.00242 0.04301,0c0.18906,-0.02857 0.37069,-0.05248 0.54489,-0.07171c0.32338,-0.03503 0.67709,-0.05892 1.0611,-0.07169c0.98138,-0.01718 2.16199,0.04975 3.54182,0.20075c2.05116,0.23077 3.49465,0.35505 4.33047,0.37283c0.0996,0.00955 0.1904,0.01434 0.27245,0.01434c0.32746,0 0.70028,-0.01434 1.11845,-0.04301c0.66444,-0.03387 1.44353,-0.10078 2.33732,-0.20075c1.6538,-0.18163 2.80095,-0.2868 3.44143,-0.31547c2.8105,-0.10515 5.00442,0.44452 6.58176,1.64902c0.31547,0.22943 0.53056,0.51622 0.64525,0.86035c0.13385,0.38239 0.06692,0.66438 -0.20075,0.84602c-0.22943,0.16252 -0.50667,0.15295 -0.83168,-0.02866c-0.20075,-0.11472 -0.46362,-0.33459 -0.78866,-0.6596c-0.65961,-0.6596 -1.52475,-1.11846 -2.59541,-1.37658c-0.91773,-0.21987 -1.93103,-0.282 -3.03993,-0.18641c-0.50667,0.04779 -1.50085,0.19596 -2.98259,0.4445c-0.43055,0.06957 -0.83206,0.12694 -1.2045,0.17208c-0.66394,0.08457 -1.2375,0.13238 -1.72071,0.14339c-0.02143,-0.00033 -0.04534,-0.00033 -0.07171,0c-0.27039,0.00298 -0.58586,-0.01135 -0.9464,-0.04301c-0.77324,-0.05491 -1.7531,-0.18394 -2.93957,-0.38716c-0.72418,-0.12069 -1.37422,-0.21627 -1.95015,-0.28679c-0.79076,-0.09156 -1.4408,-0.13459 -1.95015,-0.12905c-1.62442,0.02816 -3.6606,0.51093 -6.10855,1.44828c-0.04153,0.02091 -0.08453,0.04002 -0.12904,0.05736c-0.11437,0.04474 -0.2291,0.08776 -0.34415,0.12905c-1.24464,0.48724 -2.31053,0.88875 -3.19768,1.2045c-1.23304,0.45493 -2.10294,0.74172 -2.60976,0.86035c-1.845,0.42062 -4.06757,0.5688 -6.6678,0.44452c-3.01125,-0.26767 -5.26732,-0.45408 -6.76815,-0.55923c-4.78934,-0.33459 -10.15703,-0.10037 -16.10307,0.70263c-3.68998,0.4971 -9.00509,1.46261 -15.94535,2.89653c-5.88868,1.21406 -10.73061,2.25128 -14.52573,3.11164c-5.56365,1.25231 -9.98495,2.49982 -13.26387,3.74257c-4.73198,1.78765 -8.64183,4.03891 -11.72957,6.75382c-0.78093,0.68104 -1.5218,1.39801 -2.22261,2.15089c0.15863,0.11696 0.31636,0.22688 0.47319,0.32981c-0.00131,0.01198 -0.00608,0.02154 -0.01434,0.02867c1.24745,0.8169 2.71485,1.55297 4.40218,2.20825c1.21406,0.46843 3.0256,1.04679 5.43461,1.73506c2.01706,0.58313 3.58483,1.00375 4.70329,1.26185c1.73983,0.41107 3.33151,0.66916 4.77501,0.77432c0.2506,0.02591 0.60909,0.0546 1.07545,0.08604c0.0528,0.00591 0.10539,0.01067 0.15773,0.01434c0.46843,0.04779 0.86991,0.11472 1.2045,0.20075c0.06326,0.01583 0.13496,0.03496 0.21509,0.05737c0.32611,0.02827 0.65114,0.05695 0.97507,0.08604c0.72652,0.03824 1.45304,0.08125 2.17957,0.12905c2.70535,0.10515 5.40114,0.13384 8.08738,0.08603c2.41856,-0.04779 4.84191,-0.14816 7.27004,-0.30113c4.92317,-0.28679 9.832,-0.71696 14.72649,-1.29054c4.53863,-0.54848 9.07462,-1.14596 13.60802,-1.79242c1.79503,-0.24855 3.58745,-0.50666 5.37724,-0.77432c3.95766,-0.61182 7.88663,-1.18539 11.78694,-1.72071c2.89072,-0.42003 5.78249,-0.83586 8.67529,-1.24751c0.02253,-0.00258 0.04165,-0.00735 0.05737,-0.01434c0.45033,-0.06058 0.89965,-0.1227 1.3479,-0.18641c0.32199,-0.06281 0.64224,-0.12495 0.96074,-0.18641c0.06954,-0.01501 0.13644,-0.02935 0.20075,-0.043l0.80301,-0.05737c1.63117,-0.19592 3.25629,-0.38713 4.87538,-0.57358c1.73453,-0.19478 3.4648,-0.38118 5.19084,-0.55922c3.67086,-0.39195 7.35608,-0.68828 11.05562,-0.88904c3.05257,-0.24993 6.10205,-0.2069 9.14849,0.12905c0.214,0.03011 0.4291,0.05876 0.64526,0.08603c0.83153,0.09201 1.66322,0.15415 2.49503,0.18641c0.10687,0.00946 0.21203,0.01424 0.31547,0.01434c0.19275,0.01042 0.38394,0.01519 0.57357,0.01434c0.68344,0.01919 1.36695,0.0144 2.05054,-0.01434c0.43496,-0.00863 0.86992,-0.02773 1.30487,-0.05736c0.93683,0.01912 1.80197,-0.22943 2.59541,-0.74564c0.01836,-0.01177 0.03749,-0.02611 0.05737,-0.04301c0.0863,-0.05112 0.17233,-0.10849 0.25811,-0.17208c0.03911,-0.0217 0.07733,-0.04559 0.11472,-0.07171c0.02393,-0.01654 0.04783,-0.03566 0.07169,-0.05736c0.04105,-0.02398 0.07928,-0.05264 0.11473,-0.08604c0.0248,-0.00955 0.04392,-0.02389 0.05736,-0.04301c1.12683,-0.80779 2.09713,-1.75895 2.91088,-2.85351c0.84357,-1.12077 1.52228,-2.3922 2.03617,-3.81427c0.23036,0.29276 0.35463,0.59389 0.37283,0.90338c0.02316,0.31682 -0.0581,0.64183 -0.24376,0.97506c-0.44257,0.76938 -0.89188,1.52938 -1.3479,2.27996c-0.17895,0.30924 -0.36058,0.61513 -0.54489,0.91772c-0.32503,0.53534 -0.7122,1.02287 -1.16148,1.46261c-0.41107,0.39195 -0.85079,0.73132 -1.31921,1.0181c-0.18891,0.14795 -0.3801,0.28655 -0.57358,0.41584c-2.00713,1.36549 -4.20583,1.79089 -6.59609,1.27619c-0.35371,-0.07648 -0.71697,-0.10993 -1.08979,-0.10037l2.05052,-0.58792l-11.17034,0.043c0.20582,0.04369 0.41135,0.08672 0.6166,0.12905c-0.03768,0.00623 -0.07592,0.01102 -0.11473,0.01434c-0.37282,0.03824 -0.65483,0.06214 -0.84602,0.07171c-0.54489,0.04779 -1.61555,0.06691 -3.212,0.05736c-1.22001,0 -2.21421,0.05258 -2.98259,0.15773l-0.04301,-0.08604c-3.03037,0.20076 -6.05598,0.46363 -9.0768,0.78866c-1.44151,0.16473 -2.88979,0.32727 -4.34482,0.48755c-1.56996,0.18386 -3.1473,0.36549 -4.73198,0.54489c-0.15295,-0.00955 -0.30113,-0.01911 -0.44452,-0.02866c-0.08051,0.01595 -0.16176,0.03028 -0.24376,0.04301c-0.86346,0.17286 -1.73338,0.33536 -2.60976,0.48754c-0.05336,0.01386 -0.1107,0.02341 -0.17207,0.02867c-1.71348,0.30743 -3.44375,0.58466 -5.19085,0.83167c-3.28849,0.38239 -6.56263,0.82691 -9.82243,1.33357c-3.3076,0.50666 -6.61043,0.99896 -9.90848,1.47694c-3.82383,0.58313 -7.63809,1.11846 -11.44278,1.60602c-3.67086,0.48755 -7.36562,0.89858 -11.0843,1.23319c-4.05327,0.38239 -8.11127,0.64526 -12.17408,0.78866c-3.61572,0.17218 -7.23401,0.17218 -10.85488,0c-1.20431,-0.05755 -2.40881,-0.13403 -3.6135,-0.22943c-0.04665,-0.00354 -0.09443,-0.00831 -0.14339,-0.01434c-0.2655,-0.0161 -0.53317,-0.03522 -0.803,-0.05737c-0.01131,-0.0015 -0.02565,-0.00627 -0.04301,-0.01434c-0.61167,-0.05112 -1.22347,-0.11326 -1.83543,-0.18641c-0.26838,-0.03462 -0.54082,-0.07285 -0.81735,-0.11472c0.02528,-0.00624 0.04917,-0.0158 0.07169,-0.02867c-0.64117,-0.12602 -1.42504,-0.30766 -2.35165,-0.54489c-3.97678,-0.99419 -7.1649,-1.90235 -9.56433,-2.72448c-1.41482,-0.48755 -2.54762,-0.97986 -3.39843,-1.47695c-0.72611,-0.41912 -1.34748,-0.88276 -1.8641,-1.39091c-0.01516,0.03702 -0.02949,0.07526 -0.043,0.11473c-0.20595,-0.2121 -0.40193,-0.43198 -0.58792,-0.65961c-1.12104,1.34397 -2.1248,2.79225 -3.01125,4.34482c-0.31547,0.55446 -0.5688,0.9464 -0.75998,1.17582c-0.33459,0.40151 -0.69308,0.66439 -1.07545,0.78867c-0.16837,-0.37481 -0.19227,-0.82888 -0.07171,-1.36223c-0.19791,-0.16916 -0.37955,-0.38903 -0.54489,-0.6596c-0.01357,-0.02297 -0.0279,-0.04684 -0.043,-0.07169c0.01523,-0.00411 0.02958,-0.0089 0.043,-0.01435c0.20819,-0.09224 0.38504,-0.22606 0.53056,-0.40149c-0.1667,-0.51695 -0.31009,-1.04274 -0.43019,-1.57734c-0.04301,-0.10549 -0.08604,-0.2202 -0.12905,-0.34414c-0.0956,-0.29634 -0.19598,-0.72174 -0.30113,-1.27619l-0.25811,-1.39091c-0.0956,-0.52578 -0.15295,-0.93206 -0.17208,-1.21883c-0.03745,-0.36697 -0.02311,-0.91664 0.04301,-1.64902c-0.01497,-0.13095 -0.02931,-0.26957 -0.04301,-0.41584c-0.73609,-7.10275 0.25332,-14.91291 2.96824,-23.43046c1.33834,-4.15842 2.8344,-7.5425 4.48821,-10.15226c1.63468,-2.59064 3.90986,-5.22908 6.82552,-7.91531c3.25981,-3.01125 6.81118,-5.65926 10.65413,-7.94399c3.84293,-2.28473 7.86752,-4.14407 12.07372,-5.578c2.82963,-0.96551 6.32364,-1.90712 10.48205,-2.82485c2.37076,-0.52578 5.92693,-1.28575 10.66847,-2.27996c4.1106,-0.91773 7.57595,-1.8689 10.39601,-2.85352c2.32356,-0.81327 4.47446,-1.73098 6.45271,-2.75315c0.61383,-0.31539 1.21129,-0.6404 1.79242,-0.97506c0.05737,-0.08604 0.16252,-0.1912 0.31547,-0.31547c0.04706,-0.0605 0.0853,-0.16565 0.11473,-0.31547c0.0106,-0.06393 0.02017,-0.13563 0.02866,-0.21508c0.0006,-0.00729 0.0006,-0.01685 0,-0.02867c0.00553,-0.03776 0.01031,-0.076 0.01434,-0.11472c-0.01288,-0.01572 -0.03201,-0.03007 -0.05737,-0.04301c-0.32028,-0.27122 -0.75525,-0.44328 -1.30487,-0.51622c-0.08192,-0.01168 -0.16797,-0.02126 -0.25811,-0.02866c-0.0407,-0.03177 -0.0885,-0.06525 -0.14339,-0.10037c-0.1898,-0.13408 -0.41445,-0.29184 -0.67395,-0.4732c-0.63093,-0.43019 -1.19017,-0.72174 -1.6777,-0.87469c-0.51622,-0.16252 -0.78388,-0.24854 -0.803,-0.25811c-0.11472,-0.04779 -0.27245,-0.12427 -0.47319,-0.22943c-0.20075,-0.12427 -0.35371,-0.20553 -0.45886,-0.24376c-0.28679,-0.12427 -0.78866,-0.21508 -1.50562,-0.27245c-0.31547,-0.01912 -0.57358,-0.07649 -0.77432,-0.17208c-0.28679,-0.13385 -0.43974,-0.33935 -0.45886,-0.61659c0,-0.26767 0.12428,-0.48275 0.37283,-0.64526c0.16252,-0.10515 0.40149,-0.19598 0.71696,-0.27245c1.07068,-0.26767 1.87845,-0.41584 2.42335,-0.4445c0.38239,-0.02866 1.05634,0 2.02185,0.08603l3.48446,0.35847c-0.37282,-0.38239 -0.6166,-0.84124 -0.7313,-1.37658l-0.10038,-0.81735l-0.14339,-0.60225c-0.17207,-0.48755 -0.18641,-0.82691 -0.04301,-1.01809c0.34415,-0.04779 0.71697,0.02389 1.11846,0.21508c0.21031,0.0956 0.54968,0.3059 1.01809,0.63093c1.01331,0.69784 2.13178,1.26664 3.35541,1.70638c0.46693,0.16676 0.80628,0.30061 1.01809,0.40151c0.67417,0.02495 1.34334,-0.20925 2.0075,-0.70263c0.54489,-0.41107 1.04679,-0.97507 1.50563,-1.69204c0.4971,-0.76476 1.00854,-1.75418 1.5343,-2.96825c0.57358,-1.38614 1.01331,-2.41856 1.31921,-3.09729c1.17583,-2.56196 2.70057,-4.91839 4.57425,-7.06929c1.86411,-2.15089 3.98155,-3.98155 6.35233,-5.49198c1.12804,-0.71697 2.87743,-1.67769 5.2482,-2.8822c2.68623,-1.36702 4.76066,-2.366 6.22327,-2.99692c0.24092,-0.10564 0.47993,-0.2108 0.71697,-0.31547c0.04298,0.02375 0.08599,0.04288 0.12904,0.05737c1.53617,-0.79531 3.03703,-1.47881 4.50254,-2.05052c0.05649,-0.01781 0.10908,-0.03694 0.15773,-0.05737c0.59601,-0.22603 1.18393,-0.43634 1.76375,-0.63093c0.00262,0.00548 0.00262,0.00548 0,0c0.91207,-0.28983 1.8059,-0.5384 2.68145,-0.74563c0.29997,-0.14485 0.62977,-0.26913 0.98942,-0.37282c0.38239,-0.10515 0.84602,-0.19598 1.39091,-0.27245c0.31547,-0.04779 0.78387,-0.11472 1.40525,-0.20076c0.41378,-0.05863 0.82485,-0.13032 1.23319,-0.21508c-2.80525,0.31939 -5.38153,0.89774 -7.7289,1.73505c0.00213,0.00403 0.00213,0.00403 0,0M112.01617,203.83309c0.02845,-0.04459 0.05713,-0.09238 0.08604,-0.14338c-0.03764,0.0133 -0.07588,0.01808 -0.11472,0.01434c0.00915,0.04846 0.01871,0.09147 0.02866,0.12904M302.25604,164.85881c-1.18539,0.34414 -2.37076,0.37761 -3.55616,0.10038c0.10515,0.43019 0.20553,0.86035 0.30113,1.29054c0.35371,1.49129 0.49711,3.00648 0.43019,4.54557c-0.07648,1.98838 -0.54011,3.88596 -1.39091,5.69271c-0.5927,1.26186 -1.22841,2.49025 -1.90714,3.6852c-0.58313,1.00375 -1.35746,1.41481 -2.32298,1.23319c-0.32503,-0.07648 -0.47798,-0.29634 -0.45886,-0.6596c0.02867,-0.57358 0.13861,-1.13759 0.32981,-1.69205c0.32502,-0.97506 0.48754,-1.96927 0.48754,-2.98259c-0.10515,0.38239 -0.21032,0.76476 -0.31547,1.14716c-0.46843,1.74941 -1.11368,3.41276 -1.9358,4.99009c-0.85079,1.63468 -2.03141,3.01126 -3.54182,4.12973c-0.82212,0.60225 -1.71594,1.0659 -2.68146,1.3909c-0.24463,0.07398 -0.44059,0.05486 -0.58792,-0.05737c-0.07584,-0.09153 -0.15231,-0.18712 -0.22943,-0.28679c-0.00372,-0.01313 -0.00853,-0.02748 -0.01434,-0.043c-0.08095,-0.23332 -0.10963,-0.46275 -0.08603,-0.68828c0.03768,-0.2286 0.12849,-0.45325 0.27245,-0.67395c0.50667,-0.79343 0.88425,-1.65381 1.13282,-2.58109c0.46737,-1.77277 0.99315,-3.53172 1.57733,-5.27688c0.10725,-0.3257 0.21719,-0.65071 0.32981,-0.97506c0.00955,0.03824 0.01434,0.07648 0.01434,0.11472c-0.03823,0.39195 -0.03346,0.803 0.01434,1.23319c0.16252,1.4435 0.06691,2.85832 -0.28679,4.24444c-0.26767,1.02287 -0.61181,2.04573 -1.03243,3.06861c0.18163,-0.0956 0.36327,-0.1912 0.54489,-0.28679c0.92728,-0.51622 1.73028,-1.20928 2.40901,-2.0792c1.25231,-1.59646 2.17001,-3.37931 2.75316,-5.34858c0.57358,-1.94058 0.89381,-3.92419 0.96074,-5.95083c0.07648,-2.36122 0.0956,-4.72719 0.05737,-7.09797c0,-0.07924 0.00477,-0.1605 0.01434,-0.24376c0.02307,-0.07924 0.05177,-0.16049 0.08603,-0.24376c0.00832,0.00832 0.01311,0.01788 0.01434,0.02866c0.05475,0.05071 0.10255,0.11286 0.14339,0.18641c0.49711,1.00375 0.79822,2.08398 0.90338,3.24068c0.19119,2.24649 0.46843,4.48342 0.83168,6.71081c0.13385,0.79343 0.20076,1.60122 0.20076,2.42335c0.14339,-0.25811 0.28679,-0.51144 0.43019,-0.75998c0.76475,-1.33834 1.28575,-2.76749 1.56299,-4.28746c0.32502,-1.81631 0.30113,-3.62785 -0.07169,-5.43461c-0.22943,-1.13758 -0.65005,-2.18436 -1.26185,-3.14031c-0.0482,-0.07382 -0.09601,-0.1503 -0.1434,-0.22943c-0.3301,-0.50984 -0.64556,-1.03083 -0.9464,-1.56299c-0.46498,-0.8244 -0.89517,-1.67043 -1.29055,-2.53805c-0.11472,-0.24855 -0.18163,-0.51144 -0.20075,-0.78866l0.10037,-0.10037l0.84602,1.2045c-0.06692,-0.11472 -0.12905,-0.22464 -0.1864,-0.3298c-0.10515,-0.17208 -0.21032,-0.33936 -0.31547,-0.50188c-0.04779,-0.07648 -0.0956,-0.14816 -0.14339,-0.21508c-0.03823,-0.06691 -0.07649,-0.12905 -0.11472,-0.18641c-0.05737,-0.0956 -0.11473,-0.1864 -0.17208,-0.27245c-0.02867,-0.03824 -0.05258,-0.07171 -0.07169,-0.10037c-0.01912,-0.02866 -0.03346,-0.05258 -0.04301,-0.07171c-0.03823,-0.12427 -0.06691,-0.24376 -0.08603,-0.35847c-0.05737,-0.30591 -0.10037,-0.61181 -0.12905,-0.91772c0.28679,0.22943 0.56401,0.46843 0.83168,0.71697c0.08327,0.07212 0.16453,0.14381 0.24376,0.21509c0.67824,0.63384 1.25659,1.36516 1.73505,2.19392c0.03332,0.05766 0.06677,0.11501 0.10037,0.17207c0.56286,0.98863 1.07907,2.00673 1.54865,3.05428c0.17208,0.0956 0.34893,0.19119 0.53056,0.28678c0.11472,0.04779 0.23421,0.10037 0.35848,0.15773c0.13384,0.01912 0.27245,0.04301 0.41584,0.07171c0.16252,0.02866 0.32503,0.06214 0.48755,0.10037c0.18163,0.01912 0.36804,0.04301 0.55923,0.07171c-0.04779,-0.15295 -0.10515,-0.30113 -0.17208,-0.44452c-0.239,-0.46843 -0.51622,-0.89858 -0.83168,-1.29054c-0.83817,-1.02239 -1.62685,-2.07873 -2.366,-3.169c-0.42365,-0.62901 -0.83471,-1.26951 -1.23319,-1.92147c-0.04275,-0.08137 -0.09055,-0.16262 -0.14339,-0.24375c-0.27871,-0.48187 -0.55118,-0.96939 -0.81735,-1.46262c-0.95595,-1.76853 -1.61556,-3.64696 -1.97882,-5.63535c-0.03951,-0.22521 -0.08252,-0.44986 -0.12905,-0.67395c-0.04392,-0.25396 -0.09172,-0.50729 -0.14339,-0.75998c0.06747,0.03197 0.1344,0.06065 0.20076,0.08604c0.05672,0.03229 0.11407,0.06099 0.17207,0.08603c0.06632,0.03476 0.13324,0.06823 0.20076,0.10038c0.02813,0.08905 0.0568,0.17988 0.08603,0.27245c0.26465,0.8312 0.56576,1.63898 0.90337,2.42335c0.53492,1.23561 1.16107,2.41623 1.87845,3.54182c0.52581,0.82141 1.0707,1.62442 1.63468,2.40901c1.3381,1.87581 2.78639,3.66344 4.34482,5.36291c0.52578,0.57358 0.80779,1.2284 0.84602,1.96448c0.01912,0.33459 -0.14339,0.54011 -0.48754,0.6166M286.84128,174.079c0.21988,-1.48173 0.42062,-2.97302 0.60225,-4.47387c0.64048,2.77228 0.55923,5.54932 -0.24376,8.33115c-0.88903,3.08773 -2.38512,5.82177 -4.48821,8.2021c-1.68249,1.53909 -3.4988,2.91088 -5.44894,4.1154c-1.13758,0.69784 -2.33253,1.04199 -3.58483,1.03243c-0.68828,-0.00955 -0.76475,-0.32503 -0.22943,-0.9464c2.43768,-2.87743 4.21098,-6.14679 5.31989,-9.80811l1.34792,-2.10789c-0.10515,3.29805 -1.07068,6.34277 -2.89655,9.13416c-0.31547,0.4971 -0.62614,0.99897 -0.93206,1.50563c2.88699,-1.22361 5.2004,-3.13075 6.94024,-5.7214c1.90235,-2.81051 3.10685,-5.89824 3.61351,-9.2632M249.54468,196.30496c0.85749,0.16289 1.70351,0.33975 2.53805,0.53056c-0.95507,-0.04079 -1.86321,-0.07901 -2.72447,-0.11472c0.05918,-0.11452 0.11177,-0.22924 0.15773,-0.34414c0.00878,-0.02121 0.01833,-0.0451 0.02867,-0.07171M187.22596,128.98181c-0.00519,-0.00896 -0.01475,-0.01851 -0.02867,-0.02867c0.01587,-0.00104 0.03022,-0.00104 0.04301,0l-0.01434,0.02867M227.30437,93.76442c0.39986,-0.13713 0.79659,-0.27575 1.19017,-0.41584c-0.31882,0.12369 -0.63429,0.25273 -0.9464,0.38716c-0.05236,0.02436 -0.10492,0.04826 -0.15773,0.07171c-0.02641,-0.01064 -0.05508,-0.02498 -0.08604,-0.04301M153.72929,135.69261c0.34781,-0.08227 0.69195,-0.16352 1.03244,-0.24376c-0.08055,0.06811 -0.17136,0.12069 -0.27245,0.15773c-0.17619,0.08606 -0.37693,0.12431 -0.60225,0.11472c-0.04989,-0.00384 -0.10247,-0.0134 -0.15773,-0.02867z" fill="#000000"/><path d="M226.05687,96.51758c1.98719,-0.83703 3.57885,-1.4106 4.77501,-1.72071c0.25811,-0.06691 1.07067,-0.24855 2.43768,-0.54489c0.99419,-0.21987 1.79719,-0.43496 2.40901,-0.64526c0.10515,-0.03824 0.84602,-0.34415 2.22261,-0.91773c0.1804,-0.07372 0.35248,-0.14541 0.51622,-0.21508c1.61896,-0.36656 3.22496,-0.78717 4.81802,-1.26186c-0.20853,0.00743 -0.45229,-0.0595 -0.7313,-0.20075c0.12202,0.00384 0.24152,0.00384 0.35847,0c3.56164,-0.56181 7.13213,-1.06848 10.71149,-1.51997c3.48196,-0.47033 6.97597,-0.80968 10.48205,-1.01809c0.42521,-0.02199 0.85061,-0.04589 1.27619,-0.07169h0.01434c0.48253,-0.01945 0.96529,-0.03857 1.44828,-0.05737c1.99794,-0.05737 3.98154,-0.04301 5.95083,0.04301c0.23918,0.01842 0.47817,0.03275 0.71697,0.04301c0.82179,0.05399 1.63913,0.08267 2.45202,0.08603c0.49079,0.00393 0.97832,-0.00085 1.46261,-0.01434c0.79935,-0.28105 1.6119,-0.53914 2.43768,-0.77432l0.10037,-0.21509c0.16516,0.08506 0.32768,0.17588 0.48754,0.27245c1.50742,0.93411 3.04651,2.58314 4.61726,4.94706c1.74941,2.64801 3.38886,5.9556 4.91839,9.92281c0.77478,1.99007 1.46306,4.00237 2.06486,6.03686c0.54684,1.80846 1.02482,3.63436 1.43394,5.47762c0.88903,3.97678 1.33356,7.41343 1.33356,10.30998c0,1.49129 -0.35848,5.31512 -1.07545,11.47147c-0.71696,6.15635 -1.07545,9.32056 -1.07545,9.49265c0,1.19472 0.01912,2.0742 0.05737,2.63844c-0.06636,-0.02538 -0.13327,-0.05407 -0.20076,-0.08603c0.05169,0.25269 0.09948,0.50602 0.14339,0.75998c0.04652,0.22409 0.08954,0.44875 0.12905,0.67395c0.36327,1.98838 1.02287,3.86684 1.97882,5.63536c0.26617,0.49322 0.53862,0.98074 0.81735,1.46261c0.05285,0.08115 0.10064,0.1624 0.14339,0.24376c0.39848,0.65195 0.80954,1.29245 1.23319,1.92147c0.73915,1.09027 1.52782,2.14661 2.366,3.16899c0.31547,0.39195 0.5927,0.82212 0.83168,1.29055c0.06692,0.14339 0.12427,0.29156 0.17208,0.4445c-0.1912,-0.02866 -0.3776,-0.05258 -0.55923,-0.07171c-0.16252,-0.03824 -0.32503,-0.07171 -0.48755,-0.10037c-0.14339,-0.02866 -0.282,-0.05258 -0.41584,-0.07171c-0.12427,-0.05737 -0.24377,-0.10993 -0.35848,-0.15773c-0.18163,-0.0956 -0.35848,-0.1912 -0.53056,-0.28679c-0.46957,-1.04756 -0.98578,-2.06566 -1.54865,-3.05428c-0.0336,-0.05706 -0.06706,-0.11441 -0.10037,-0.17208c-0.47846,-0.82877 -1.05683,-1.56008 -1.73505,-2.19392c-0.07925,-0.07128 -0.1605,-0.14298 -0.24376,-0.21508c-0.26767,-0.24855 -0.54489,-0.48755 -0.83168,-0.71697c0.02867,0.30591 0.07169,0.61181 0.12905,0.91772c0.01912,0.11472 0.04779,0.23421 0.08603,0.35847c0.00955,0.01912 0.02389,0.04301 0.04301,0.07169c0.01912,0.02866 0.04301,0.06214 0.07169,0.10037c0.05737,0.08604 0.11473,0.17686 0.17208,0.27245c0.03823,0.05737 0.07649,0.1195 0.11472,0.18641c0.04779,0.06691 0.0956,0.13861 0.14339,0.21508c0.10515,0.16252 0.21032,0.32981 0.31547,0.50188c0.05737,0.10515 0.11949,0.21508 0.1864,0.3298l-0.84602,-1.2045l-0.10037,0.10037c0.01912,0.27724 0.08604,0.54011 0.20075,0.78867c0.39537,0.86764 0.82556,1.71365 1.29055,2.53805c0.30082,0.53217 0.61629,1.05316 0.9464,1.56299c0.04739,0.07912 0.09519,0.1556 0.1434,0.22943c0.61181,0.95595 1.03243,2.00274 1.26185,3.14031c0.37282,1.80676 0.39671,3.6183 0.07169,5.43461c-0.27724,1.51997 -0.79821,2.94912 -1.56299,4.28746c-0.14339,0.24855 -0.28679,0.50187 -0.43019,0.75998c0,-0.82212 -0.06691,-1.6299 -0.20076,-2.42335c-0.36327,-2.22738 -0.64048,-4.46431 -0.83168,-6.71079c-0.10515,-1.15671 -0.40628,-2.23694 -0.90338,-3.24069c-0.04085,-0.07356 -0.08864,-0.1357 -0.14339,-0.1864c-0.00123,-0.0108 -0.00601,-0.02035 -0.01434,-0.02867c-0.03428,0.08327 -0.06295,0.16453 -0.08603,0.24376c-0.00955,0.08327 -0.01434,0.16453 -0.01434,0.24376c0.03823,2.37077 0.01912,4.73676 -0.05737,7.09796c-0.06692,2.02662 -0.38716,4.01024 -0.96074,5.95084c-0.58313,1.96925 -1.50084,3.75211 -2.75316,5.34856c-0.67872,0.86992 -1.48173,1.56299 -2.40901,2.07921c-0.18163,0.0956 -0.36327,0.1912 -0.54489,0.28679c0.42062,-1.02287 0.76475,-2.04573 1.03243,-3.06861c0.3537,-1.38614 0.44931,-2.80096 0.28679,-4.24444c-0.04779,-0.43019 -0.05258,-0.84124 -0.01434,-1.23319c0,-0.03824 -0.00477,-0.07648 -0.01434,-0.11472c-0.11262,0.32435 -0.22257,0.64939 -0.32981,0.97507l-0.55923,-0.18641c0.803,-2.78184 0.88426,-5.55888 0.24376,-8.33115c-0.18163,1.50085 -0.38239,2.99214 -0.60225,4.47387c-0.50667,3.36496 -1.71117,6.4527 -3.61351,9.2632c-1.73983,2.59064 -4.05325,4.49778 -6.94024,5.7214c0.30591,-0.50666 0.61659,-1.00854 0.93206,-1.50563c1.82587,-2.79138 2.79139,-5.83611 2.89655,-9.13416l-1.34792,2.10789l-0.803,-0.40151c0.239,-0.55446 0.45886,-1.10891 0.6596,-1.66337c0.05737,-0.13385 0.08604,-0.26766 0.08604,-0.40151c-0.00955,-0.14339 -0.03823,-0.282 -0.08604,-0.41584l-0.57358,0.04301l0.11473,0.18641c-2.00751,4.45475 -4.69375,8.48888 -8.05871,12.1024c-1.91127,2.04884 -4.09086,3.71699 -6.53873,5.00443c-0.77808,0.41882 -1.58588,0.79642 -2.42335,1.13281c0.59146,-0.49101 1.15547,-1.01679 1.69204,-1.57733c0.38189,-0.39231 0.74994,-0.80338 1.10413,-1.23319c1.3957,-1.68248 2.15089,-3.53225 2.26561,-5.54932c-0.48754,0.65006 -0.95118,1.31921 -1.3909,2.0075c-0.54321,0.84229 -1.13113,1.63573 -1.76375,2.38032c-0.52603,0.62711 -1.08527,1.21981 -1.67769,1.77808c-1.12485,1.07232 -2.3676,2.02349 -3.72823,2.85352c-0.04732,0.03951 -0.09989,0.07297 -0.15773,0.10037c-0.24045,0.10239 -0.44119,0.23145 -0.60225,0.38716l-0.10038,-0.14339c0.19347,-0.12929 0.38466,-0.2679 0.57358,-0.41584c0.46843,-0.28679 0.90816,-0.62614 1.31922,-1.0181c0.4493,-0.43974 0.83647,-0.92728 1.16148,-1.46261c0.18434,-0.30258 0.36594,-0.60848 0.54489,-0.91772c0.45601,-0.75058 0.90533,-1.51056 1.34792,-2.27996c0.18567,-0.33324 0.26691,-0.65826 0.24376,-0.97507c-0.01819,-0.30949 -0.14246,-0.6106 -0.37283,-0.90338c-0.51389,1.42206 -1.19263,2.69348 -2.03618,3.81427c-0.81375,1.09457 -1.78405,2.04574 -2.91088,2.85352c-0.01344,0.01912 -0.03256,0.03346 -0.05737,0.04301c-0.03543,0.03339 -0.07367,0.06205 -0.11473,0.08603c-0.02387,0.0217 -0.04777,0.04082 -0.07169,0.05737c-0.03737,0.0261 -0.0756,0.05001 -0.11472,0.07169c-0.08577,0.06359 -0.1718,0.12094 -0.25811,0.17207c-0.01986,0.01691 -0.03899,0.03125 -0.05737,0.04301c-0.79343,0.51622 -1.65858,0.76475 -2.59541,0.74563c-0.43496,0.02961 -0.86991,0.04873 -1.30487,0.05737v-0.25811c-0.83456,-0.1908 -1.68058,-0.36767 -2.53805,-0.53056c-0.01034,0.02658 -0.01992,0.05049 -0.02867,0.07171c-0.04598,0.1149 -0.09854,0.22961 -0.15773,0.34414l0.10037,0.37283c-0.10343,-0.00011 -0.2086,-0.00489 -0.31547,-0.01434c-0.83183,-0.03226 -1.6635,-0.0944 -2.49503,-0.1864c-0.21617,-0.02726 -0.43127,-0.05593 -0.64526,-0.08604c-3.04643,-0.33597 -6.09593,-0.37899 -9.14849,-0.12905c-3.69954,0.20076 -7.38475,0.4971 -11.05562,0.88903c-1.72602,0.17804 -3.45631,0.36446 -5.19085,0.55923c-1.61907,0.18644 -3.2442,0.37764 -4.87538,0.57357l-0.803,0.05737c0.21864,-1.34678 0.49587,-2.67557 0.83168,-3.98633c0.11583,-0.43458 0.23533,-0.86954 0.35847,-1.30487c0.03077,-0.00362 0.05945,-0.00841 0.08604,-0.01434c0.59929,-1.72704 1.35451,-3.64372 2.26561,-5.75008c0.73277,-1.69029 1.43539,-3.24373 2.10789,-4.66029c0.13526,-0.26995 0.2643,-0.53761 0.38716,-0.803c0.75591,-1.52524 1.47288,-2.88269 2.15089,-4.07238c0.20345,-0.339 0.3994,-0.66879 0.58792,-0.98941c0.36055,0.03166 0.67601,0.046 0.9464,0.04301c0.02637,-0.00033 0.05028,-0.00033 0.07171,0c0.48321,-0.01102 1.05678,-0.05883 1.72073,-0.14339c0.37244,-0.04515 0.77395,-0.10251 1.2045,-0.17208c1.48173,-0.24855 2.47592,-0.39672 2.98259,-0.44452c1.10891,-0.0956 2.12222,-0.03346 3.03993,0.18641c1.07068,0.25811 1.93581,0.71696 2.59541,1.37658c0.32502,0.32503 0.58792,0.54489 0.78866,0.6596c0.32502,0.18163 0.60225,0.19119 0.83168,0.02866c0.26767,-0.18163 0.33459,-0.46363 0.20076,-0.84602c-0.11472,-0.34414 -0.3298,-0.63093 -0.64526,-0.86035c-1.57733,-1.2045 -3.77124,-1.75417 -6.58176,-1.64902c-0.64048,0.02866 -1.78765,0.13384 -3.44143,0.31547c-0.89379,0.09997 -1.67288,0.16688 -2.33731,0.20075c-0.4182,0.02866 -0.79101,0.04301 -1.11846,0.04301c-0.08204,0 -0.17286,-0.00478 -0.27245,-0.01435c-0.83583,-0.01777 -2.27933,-0.14204 -4.33047,-0.37282c-1.37983,-0.15101 -2.56042,-0.21793 -3.54182,-0.20076c-0.38402,0.01277 -0.73773,0.03666 -1.0611,0.07169c-0.1742,0.01924 -0.35583,0.04313 -0.54489,0.07169c-0.01357,0.00242 -0.0279,0.00242 -0.04301,0c-0.16258,0.03166 -0.32988,0.06513 -0.50187,0.10038c-0.24369,0.04913 -0.49702,0.1065 -0.75998,0.17208c-0.81002,-0.01438 -2.2105,-0.21512 -4.20142,-0.60225c-2.22738,-0.42062 -4.41174,-0.93206 -6.55307,-1.5343c-5.7453,-1.62513 -8.61794,-3.11641 -8.61794,-4.47387c0,-0.50666 0.24854,-1.3909 0.74563,-2.65277c0.68828,-1.67293 1.23319,-3.03515 1.63468,-4.0867c1.57733,-4.22532 2.366,-8.1543 2.366,-11.78694c0,-5.10481 -0.95595,-9.43528 -2.86787,-12.99142c-1.38321,-2.57537 -3.74922,-5.4528 -7.09797,-8.63228c-0.0115,-0.24355 -0.07364,-0.43473 -0.18641,-0.57358c-0.05713,-0.06431 -0.12403,-0.11209 -0.20075,-0.14338c0.00393,-0.01001 0.00869,-0.01956 0.01434,-0.02867c-0.19294,-0.18726 -0.43194,-0.29721 -0.71696,-0.3298c-0.03444,-0.09596 -0.09179,-0.19634 -0.17208,-0.30113c-0.10968,-0.1324 -0.25785,-0.27103 -0.44452,-0.41584c-0.24497,-0.19511 -0.46483,-0.36719 -0.6596,-0.51622c-0.2488,-0.1882 -0.45434,-0.33639 -0.61659,-0.44452c-0.48754,-0.32503 -0.95595,-0.5688 -1.40526,-0.73132c-0.42062,-0.13385 -0.73132,-0.23899 -0.93206,-0.31546c-0.3537,-0.14339 -0.62136,-0.32026 -0.803,-0.53057c0,-0.15295 0.14339,-0.22943 0.43019,-0.22943c1.55822,0 2.76272,0.06691 3.6135,0.20075c0.7061,0.10623 1.4374,0.2831 2.19392,0.53056c0.40494,0.13372 0.81599,0.28668 1.23318,0.45886c0.05109,0.01964 0.09888,0.03399 0.14339,0.043c0.04346,0.01919 0.0817,0.03352 0.11472,0.04301c0.23798,0.05628 0.41006,0.04193 0.51622,-0.04301c0.10515,-0.07648 0.15773,-0.18641 0.15773,-0.32981c0.00955,-0.13385 -0.02389,-0.25811 -0.10038,-0.37283c-0.02237,-0.03917 -0.05581,-0.08219 -0.10037,-0.12905c-0.09905,-0.10653 -0.2568,-0.23081 -0.4732,-0.37283c-0.64048,-0.43974 -1.1854,-0.9703 -1.63468,-1.59166c-0.18163,-0.25811 -0.32502,-0.51144 -0.43018,-0.75998c-0.05737,-0.15295 -0.10038,-0.26767 -0.12905,-0.34415c-0.05737,-0.13385 -0.11949,-0.24376 -0.18641,-0.32981c-0.12427,-0.14339 -0.19119,-0.22943 -0.20075,-0.25811c-0.05737,-0.10515 -0.06692,-0.19598 -0.02867,-0.27245c1.09934,1.12803 2.32776,2.01706 3.68521,2.66711c0.12353,0.05982 0.24301,0.11239 0.35847,0.15773c0.00385,0.03824 0.00862,0.07171 0.01434,0.10037c0.07593,0.25359 0.31491,0.47347 0.71697,0.6596c0.73609,0.31547 1.53908,0.3776 2.40901,0.18641c0.31529,-0.06525 0.61641,-0.16084 0.90337,-0.28679c0.47946,-0.19103 0.92398,-0.45871 1.33356,-0.803c1.08022,-0.87948 1.95493,-2.26084 2.62409,-4.14407c0.17207,-0.45885 0.4254,-1.24753 0.75998,-2.366c0.31547,-1.01331 0.58313,-1.79719 0.803,-2.35164c1.27143,-3.1451 3.59439,-5.98907 6.96891,-8.5319c1.32879,-0.99419 2.89176,-1.99794 4.68895,-3.01125c1.13758,-0.64049 2.78661,-1.50085 4.94706,-2.58108c2.50461,-1.26186 4.43085,-2.20349 5.77874,-2.82486c0.98254,-0.44979 1.92894,-0.86085 2.83921,-1.23319c-0.0251,-0.00123 -0.05378,-0.006 -0.08604,-0.01434M264.09909,89.13281l0.02867,0.18641l1.24753,-0.27245l-1.27619,0.08604M240.13808,176.68876c0.04779,0.17208 0.03823,0.47319 -0.02867,0.90338c-0.05737,0.39195 -0.03823,0.6835 0.05737,0.87469c0.11472,0.21987 0.16728,0.35847 0.15772,0.41584c-0.00955,0.07648 -0.04779,0.15773 -0.11472,0.24376c-0.07649,0.0956 -0.13385,0.16728 -0.17208,0.21508c-0.04779,0.07648 -0.09081,0.1912 -0.12904,0.34415c-0.03823,0.16252 -0.07649,0.27724 -0.11473,0.34414c-0.11472,0.19119 -0.36327,0.34414 -0.74564,0.45885c-0.38239,0.12427 -0.69307,0.17208 -0.93206,0.14339c-0.15295,-0.01912 -0.37282,-0.10515 -0.6596,-0.25811l-1.50564,-0.78866c-0.46843,-0.25811 -0.79822,-0.26767 -0.98942,-0.02867c0.66916,0.83168 1.47219,1.47695 2.40902,1.93581c0.42062,0.21987 0.79343,0.32981 1.11846,0.32981c0.29635,0.00955 0.74087,-0.11472 1.33356,-0.37282c0.45885,-0.21987 0.74086,-0.43974 0.84602,-0.6596c0.04779,-0.10515 0.07648,-0.23421 0.08604,-0.38717c0.00955,-0.18163 0.01434,-0.32025 0.01434,-0.41584c0.02867,-0.26767 0.04779,-0.46842 0.05736,-0.60225c0.01912,-0.24855 0.00955,-0.44931 -0.02867,-0.60225c-0.01912,-0.10515 -0.06214,-0.23419 -0.12905,-0.38716c-0.07648,-0.20076 -0.12427,-0.32503 -0.14338,-0.37283c-0.08604,-0.27724 -0.12905,-0.74563 -0.12905,-1.40525z" fill="#ffffff"/><path d="M188.31573,128.98181c3.34877,3.17948 5.71475,6.05691 7.09797,8.63228c1.91191,3.55616 2.86787,7.88662 2.86787,12.99142c0,3.63262 -0.78867,7.56162 -2.366,11.78694c-0.40151,1.05155 -0.9464,2.41378 -1.63468,4.0867c-0.4971,1.26186 -0.74563,2.14612 -0.74563,2.65277c0,1.35746 2.87264,2.84875 8.61794,4.47387c2.14134,0.60225 4.3257,1.11368 6.55307,1.5343c1.99093,0.38713 3.3914,0.58788 4.20142,0.60225c-0.94535,0.23226 -2.02079,0.56684 -3.22636,1.00375c-0.37686,0.13689 -0.73534,0.26594 -1.07545,0.38717c-0.03309,0.01172 -0.06655,0.02128 -0.10037,0.02866c-0.05172,0.02304 -0.1043,0.04217 -0.15773,0.05737c-1.73312,0.61226 -2.96631,0.99942 -3.69956,1.16148c-0.1699,0.03776 -0.34197,0.07121 -0.51622,0.10038c-1.52502,0.2894 -3.29831,0.40413 -5.31989,0.34414c-2.61933,-0.17208 -4.58381,-0.29635 -5.89347,-0.37283c-5.72618,-0.33459 -12.1454,-0.00955 -19.25771,0.97507c-4.32092,0.60225 -10.67801,1.76853 -19.07131,3.4988c-5.56365,1.15671 -9.54522,2.02185 -11.94467,2.59541c-3.47011,0.83168 -6.44315,1.65858 -8.91907,2.4807c-3.16422,1.05155 -5.99383,2.23692 -8.48888,3.55616c-2.86787,1.51997 -5.39637,3.27893 -7.5855,5.27688c-1.56161,1.42474 -2.91907,2.93038 -4.07238,4.51689c0.00559,0.01945 0.00559,0.03379 0,0.04301c-0.04471,0.06815 -0.09251,0.13507 -0.14339,0.20075c-0.0376,0.04862 -0.07583,0.09643 -0.11472,0.14339c-0.34345,0.46271 -0.65413,0.94547 -0.93206,1.44827c-0.01419,-0.15829 -0.07632,-0.34947 -0.1864,-0.57357c-0.26734,-0.56248 -0.49198,-1.13128 -0.67395,-1.70638c-0.1244,-0.87609 -0.23912,-1.76033 -0.34415,-2.65277c0.30079,-1.5399 0.46331,-3.45659 0.48754,-5.75008c0.03823,-3.6135 0.0956,-5.83611 0.17208,-6.6678c0.13385,-1.4435 0.40628,-3.05428 0.81735,-4.83235c0.239,-1.07068 0.65005,-2.65276 1.23318,-4.74631c0.92728,-3.32672 1.68727,-5.80743 2.27996,-7.44211c0.98463,-2.71491 2.10789,-5.03788 3.36976,-6.96891c0.95595,-1.46261 2.13655,-2.92522 3.54181,-4.38782c1.12804,-1.1854 2.50461,-2.4807 4.12973,-3.88596c5.58277,-4.80845 10.9887,-8.29291 16.21778,-10.45337c3.0017,-1.23319 6.6152,-2.28951 10.84053,-3.169c0.87948,-0.18163 4.62681,-0.85079 11.24204,-2.0075c4.53123,-0.78387 8.20209,-1.59644 11.0126,-2.43768c3.40369,-1.02025 6.41972,-2.29646 9.04811,-3.8286c0.35337,-0.20639 0.69751,-0.41671 1.03243,-0.63093l0.05737,-0.08603l0.02867,-0.08603c0.04652,-0.0121 0.09911,-0.02167 0.15773,-0.02868c0.24854,-0.03824 0.41584,-0.0956 0.50187,-0.17207c0.06855,-0.05998 0.14026,-0.1699 0.21509,-0.32981c0.01023,-0.01845 0.01979,-0.03757 0.02867,-0.05737c0.04779,-0.06691 0.13384,-0.15295 0.25811,-0.25811c0.13385,-0.10515 0.22464,-0.1912 0.27245,-0.25811c0.12427,-0.16252 0.1864,-0.40151 0.1864,-0.71697c0,-0.02562 0,-0.04952 0,-0.07171M174.93715,180.66076c5.94604,-0.803 11.31373,-1.03721 16.10307,-0.70263c1.50085,0.10515 3.75691,0.29157 6.76815,0.55923c2.6002,0.12427 4.82279,-0.02389 6.6678,-0.44452c0.50681,-0.11863 1.37673,-0.40543 2.60976,-0.86035c0.88714,-0.31577 1.95303,-0.71726 3.19768,-1.2045c0.11504,-0.0413 0.22976,-0.08431 0.34414,-0.12905c0.04451,-0.01734 0.08753,-0.03645 0.12905,-0.05737c2.44795,-0.93735 4.48415,-1.42011 6.10856,-1.44827c0.50934,-0.00553 1.1594,0.03749 1.95014,0.12905c0.57593,0.0705 1.22598,0.16609 1.95015,0.28679c1.18646,0.20321 2.16632,0.33226 2.93957,0.38716c-0.1885,0.32062 -0.38447,0.65042 -0.58792,0.98941c-0.67803,1.18967 -1.395,2.54714 -2.15089,4.07238c-0.12284,0.26538 -0.2519,0.53305 -0.38716,0.803c-0.6725,1.41657 -1.37513,2.96999 -2.10789,4.66029c-0.91111,2.10635 -1.66631,4.02303 -2.26561,5.75008c-0.02659,0.00594 -0.05526,0.01073 -0.08603,0.01434c-0.12317,0.43534 -0.24266,0.87029 -0.35848,1.30487c-0.33582,1.31078 -0.61305,2.63955 -0.83168,3.98633c-0.0643,0.01367 -0.13121,0.028 -0.20075,0.04301c-0.3185,0.06147 -0.63872,0.12361 -0.96074,0.18641c-0.44825,0.06371 -0.89756,0.12584 -1.3479,0.1864c-0.01572,0.00698 -0.03483,0.01177 -0.05737,0.01434c-2.89281,0.41165 -5.78457,0.82749 -8.67529,1.24753c-3.90031,0.53534 -7.82927,1.10891 -11.78694,1.72071c-1.7898,0.26767 -3.58221,0.52578 -5.37724,0.77432c-4.53339,0.64646 -9.06941,1.24394 -13.60802,1.79242c-4.89449,0.57358 -9.80332,1.00375 -14.72649,1.29055c-2.42813,0.15295 -4.85148,0.25332 -7.27004,0.30113c-2.68623,0.04779 -5.38203,0.01911 -8.08738,-0.08604c-0.72652,-0.04779 -1.45304,-0.09081 -2.17957,-0.12905c-0.32394,-0.02909 -0.64897,-0.05776 -0.97507,-0.08603c-0.08013,-0.02241 -0.15184,-0.04153 -0.21509,-0.05737c-0.33459,-0.08604 -0.73608,-0.15295 -1.2045,-0.20076c-0.05236,-0.00366 -0.10492,-0.00845 -0.15773,-0.01434c-0.46637,-0.03145 -0.82485,-0.06012 -1.07545,-0.08603c-1.44349,-0.10515 -3.03515,-0.36327 -4.77501,-0.77432c-1.11846,-0.25811 -2.68623,-0.67873 -4.70329,-1.26186c-2.40901,-0.68828 -4.22055,-1.26663 -5.43461,-1.73505c-1.68733,-0.65527 -3.15472,-1.39136 -4.40218,-2.20826c0.00826,-0.00714 0.01304,-0.01669 0.01434,-0.02867c-0.15683,-0.10292 -0.31456,-0.21285 -0.47319,-0.3298c0.7008,-0.75289 1.44168,-1.46985 2.22261,-2.15089c3.08773,-2.71491 6.99758,-4.96619 11.72957,-6.75382c3.27893,-1.24274 7.70023,-2.49025 13.26387,-3.74257c3.79515,-0.86035 8.63706,-1.89757 14.52573,-3.11163c6.94024,-1.43394 12.25536,-2.39944 15.94535,-2.89655z" fill="#5b5d5e"/></g><path d="M125.10798,149.38668c-0.25811,0.33459 -0.51144,0.58313 -0.75998,0.74564c-0.21031,0.13385 -0.57835,0.28201 -1.10413,0.44452c-0.4971,0.14339 -0.85557,0.29634 -1.07545,0.45885c-0.16252,0.12427 -0.34415,0.31547 -0.54489,0.57358c-0.26767,0.32503 -0.43495,0.52578 -0.50187,0.60225c-0.13385,0.15295 -0.31547,0.31547 -0.54489,0.48755c-0.25811,0.20076 -0.45408,0.34893 -0.58792,0.4445c-0.34415,0.27724 -0.85559,0.79343 -1.5343,1.54866c-0.72652,0.82212 -1.23796,1.46262 -1.5343,1.92147c-0.1912,0.31547 -0.33459,0.54968 -0.43019,0.70263c-0.18163,0.26767 -0.3537,0.48275 -0.51622,0.64526c-0.28679,0.27724 -0.46362,0.45885 -0.53056,0.54489c-0.16252,0.22943 -0.20553,0.43974 -0.12905,0.63093c0.00955,0.01912 0.06213,0.10038 0.15773,0.24377c0.06692,0.0956 0.10515,0.18163 0.11472,0.25811c0.00955,0.07648 -0.01911,0.1721 -0.08603,0.2868c-0.08604,0.15295 -0.13384,0.24854 -0.14339,0.28679c-0.01912,0.06691 -0.02389,0.19598 -0.01434,0.38716c0.00955,0.17208 -0.01434,0.29634 -0.07169,0.37282c-0.05737,0.07648 -0.1434,0.13861 -0.25812,0.18641c-0.13385,0.04779 -0.2342,0.08603 -0.30113,0.11472c-0.239,0.10515 -0.45885,0.32025 -0.6596,0.64527c-0.21031,0.39195 -0.3776,0.67395 -0.50187,0.84602c-0.07648,0.10515 -0.4445,0.45408 -1.10413,1.04679c-0.4493,0.40151 -0.69308,0.79343 -0.7313,1.17582c-0.00955,0.15295 0.02866,0.40628 0.11472,0.75998c0.06692,0.32503 0.08603,0.57835 0.05737,0.75998c-0.03823,0.21031 -0.13384,0.39673 -0.28679,0.55923c-0.16252,0.16252 -0.34893,0.26288 -0.55923,0.30113c0.34415,-0.26767 0.50667,-0.75521 0.48755,-1.46262c-0.01912,-0.3537 -0.02867,-0.62136 -0.02867,-0.803c0,-0.30591 0.04779,-0.56402 0.14339,-0.77433c0.11472,-0.26767 0.33936,-0.54968 0.67396,-0.84602c0.15295,-0.14339 0.38237,-0.35847 0.68827,-0.64526c0.25811,-0.24855 0.45885,-0.48276 0.60225,-0.70263c0.13385,-0.19119 0.33458,-0.48754 0.60225,-0.88903c0.24854,-0.30591 0.521,-0.45407 0.81736,-0.4445c-0.02867,-0.51622 -0.03346,-0.91773 -0.01434,-1.2045c0.03823,-0.44931 0.12905,-0.84124 0.27245,-1.17582c0.10515,-0.239 0.33935,-0.60225 0.70262,-1.08979l1.04678,-1.3479c0.73609,-0.97506 1.35268,-1.70638 1.84978,-2.19391c0.24854,-0.24855 0.5688,-0.52578 0.96074,-0.83168c0.51622,-0.42062 0.80779,-0.66438 0.87469,-0.73132c0.11472,-0.12427 0.27725,-0.32503 0.48755,-0.60225c0.1912,-0.27724 0.34893,-0.47798 0.4732,-0.60225c0.239,-0.22943 0.60702,-0.45886 1.10411,-0.68828c0.60225,-0.29634 0.98942,-0.50187 1.16149,-0.61659c0.32502,-0.21987 0.82212,-0.74087 1.49129,-1.56299c0.57358,-0.69784 1.10413,-1.15194 1.59166,-1.36223c0.16252,-0.07648 0.32502,-0.10515 0.48754,-0.08604c0.18163,0.00955 0.31069,0.07649 0.38717,0.20076c-0.85079,0.3537 -1.56299,0.88903 -2.13656,1.60601c-0.28679,0.40151 -0.50666,0.69308 -0.6596,0.87469M164.67019,133.82851c0.20075,-0.15295 0.41107,-0.24854 0.63093,-0.28679c0.24854,-0.04779 0.46363,-0.01434 0.64526,0.10037c-0.39195,0.03824 -0.86036,0.29156 -1.40526,0.75998c-0.60225,0.51622 -1.05633,0.82213 -1.36223,0.91773c-0.43974,0.14339 -1.04678,0.11949 -1.82108,-0.07171c-0.91773,-0.239 -1.53909,-0.34893 -1.86411,-0.32981c-0.32502,0.01912 -0.72175,0.10993 -1.19017,0.27245c-0.50667,0.19119 -0.89381,0.32503 -1.16148,0.40151c-0.37282,0.10515 -0.81735,0.18163 -1.33356,0.22943c-0.03823,0 -0.49233,0.02867 -1.36223,0.08604c-1.91191,0.11472 -3.8286,0.4493 -5.75008,1.00374c-2.38989,0.67872 -4.34482,1.63945 -5.8648,2.88221c-0.28679,0.22943 -0.47797,0.3776 -0.57357,0.4445c-0.239,0.15295 -0.46363,0.25332 -0.67395,0.30113c-0.15295,0.02866 -0.34893,0.02866 -0.58792,0c-0.36327,-0.03824 -0.56879,-0.05737 -0.61659,-0.05737c-0.67872,-0.02866 -1.42438,0.21988 -2.23694,0.74564c-0.90816,0.68828 -1.59644,1.18061 -2.06486,1.47695c-0.0956,0.05737 -0.49232,0.28679 -1.19017,0.68828c-0.48754,0.27724 -0.86513,0.53534 -1.13281,0.77433c-0.40151,0.39195 -0.70263,0.6835 -0.90338,0.87469c-0.37282,0.32503 -0.72175,0.53055 -1.04678,0.61659c0.77432,-0.85079 1.74462,-1.70161 2.91088,-2.5524c0.70741,-0.51622 1.78765,-1.22361 3.24069,-2.12222c0.66916,-0.43019 1.21883,-0.66916 1.64901,-0.71697c0.1912,-0.02866 0.51623,-0.01912 0.97508,0.02867c0.41107,0.02866 0.72652,0.01912 0.94639,-0.02867c0.26767,-0.06691 0.54012,-0.19598 0.81735,-0.38716c0.14339,-0.0956 0.38715,-0.29157 0.7313,-0.58792c0.66916,-0.56401 1.45783,-1.10413 2.366,-1.62034c1.09934,-0.61182 2.16524,-1.05633 3.19768,-1.33356c0.57358,-0.14339 1.46262,-0.29156 2.66711,-0.4445c1.1567,-0.15295 2.11744,-0.25332 2.88221,-0.30113c0.30591,-0.00955 0.76476,-0.02867 1.37658,-0.05737c0.52578,-0.03824 0.97507,-0.11472 1.3479,-0.22943c0.12427,-0.03824 0.42062,-0.14339 0.88904,-0.31547c0.3537,-0.13385 0.65005,-0.21987 0.88903,-0.25811c0.41107,-0.06691 1.26664,0.00955 2.56675,0.22943c1.05155,0.17208 1.845,0.09081 2.38034,-0.24377c0.14339,-0.08604 0.32025,-0.22943 0.53056,-0.43018c0.239,-0.22943 0.40628,-0.38239 0.50187,-0.45886z" fill="#000000"/><path d="M237.84299,145.68362c-1.41213,2.44565 -2.87032,4.60478 -4.37454,6.4774c-0.54234,0.29675 -1.09492,0.58327 -1.65772,0.85956c-0.70607,0.33768 -1.41725,0.64979 -2.13355,0.93631c-1.71912,0.66514 -3.46382,1.14096 -5.2341,1.42748c-2.36379,0.37861 -4.58432,0.34792 -6.66159,-0.0921c-0.38885,-0.08186 -0.76235,-0.17907 -1.1205,-0.29164c0.05528,-0.0634 0.10644,-0.12991 0.15349,-0.19954c-0.3183,-0.19642 -0.61505,-0.42155 -0.89026,-0.67537c-1.02768,-0.72138 -1.97422,-1.71908 -2.83962,-2.99311c-0.66605,-0.99679 -1.2391,-2.08147 -1.71912,-3.25405c-0.62548,-1.19113 -1.18317,-2.45488 -1.67307,-3.79127c-0.47071,-3.09032 -0.71118,-6.29832 -0.72142,-9.624c-0.00631,-3.45806 0.60766,-6.32838 1.84191,-8.61095c0.23088,-0.62428 0.4867,-1.21267 0.76746,-1.76517c-0.12271,0.0853 -0.24551,0.17739 -0.36838,0.27629c0.01691,-0.03937 0.03226,-0.0803 0.04605,-0.12279c0.13171,-0.2878 0.26474,-0.57944 0.39908,-0.87491c0.45045,-0.95629 0.94674,-1.8926 1.48888,-2.80892c0.56281,-0.98235 1.18189,-1.93913 1.85726,-2.87032c0.02047,-0.04093 0.05117,-0.08186 0.0921,-0.12279c0.25582,-0.35815 0.52188,-0.7163 0.79816,-1.07445c0.13303,-0.17396 0.27117,-0.3428 0.41443,-0.50653c0.05117,-0.08186 0.10744,-0.15349 0.16884,-0.21489c1.81122,1.36097 3.57638,2.49682 5.2955,3.40754c2.22053,1.18701 4.82479,2.23076 7.81278,3.13125c1.97494,0.60374 4.03686,0.93119 6.18576,0.98235c1.14608,0.02047 2.54286,0.01535 4.19035,-0.01535c1.15631,0.0921 1.95448,0.50141 2.39449,1.22794c0.50141,0.83909 0.75211,2.38937 0.75211,4.65083c0,4.9527 -1.75494,10.46309 -5.2648,16.53117z" fill="#4fe7da"/><path d="M239.96119,123.27367c-1.64749,0.0307 -3.04427,0.03582 -4.19035,0.01535c-2.1489,-0.05117 -4.21082,-0.37861 -6.18576,-0.98235c-2.98799,-0.90049 -5.59226,-1.94424 -7.81278,-3.13125c-1.71912,-0.91072 -3.48429,-2.04657 -5.2955,-3.40754c0.16372,-0.20466 0.32745,-0.4042 0.49118,-0.59862c0.01023,-0.01023 0.02047,-0.01535 0.0307,-0.01535c0.0614,-0.08186 0.11768,-0.15861 0.16884,-0.23024l0.01535,-0.01535c0.08186,-0.0921 0.17396,-0.17907 0.27629,-0.26094c0.18419,-0.18419 0.36838,-0.36327 0.55257,-0.53722c0.19442,-0.18419 0.38373,-0.35303 0.56792,-0.50653c0.6242,-0.55257 1.19724,-1.01305 1.71912,-1.38144c0.04093,-0.0307 0.08186,-0.05628 0.12279,-0.07675c0.31722,0.17396 0.70607,0.36838 1.16655,0.58327c0.44001,0.20466 0.95166,0.42978 1.53493,0.67537c0.34792,0.14326 0.72653,0.29675 1.13585,0.46048c4.8913,1.95448 8.72351,3.3001 11.49661,4.03686c4.34896,1.16655 8.31931,1.61167 11.91104,1.33539c0.44001,-0.0307 0.97724,-0.08186 1.61167,-0.15349c0,0.21489 0.04093,0.42978 0.12279,0.64467c0.0614,0.18419 0.11256,0.32745 0.15349,0.42978c0.05117,0.34792 0.08698,0.73165 0.10744,1.1512c0,0.0307 0,0.0614 0,0.0921c0.01023,0.54234 -0.00512,1.18189 -0.04605,1.91866c-0.01023,0.08186 -0.01535,0.16372 -0.01535,0.24559c-0.0921,1.61679 -0.26094,3.23358 -0.50653,4.85037c-0.13303,0.91072 -0.27629,1.7447 -0.42978,2.50193c-0.04093,0.19442 -0.08186,0.39396 -0.12279,0.59862c-0.81863,3.5201 -2.19495,6.79461 -4.12896,9.82354c-0.40931,0.63444 -0.72142,1.10515 -0.93631,1.41213l-2.1182,3.16195c-0.54234,0.57304 -1.0898,1.1205 -1.64237,1.64237c-0.04093,0.0307 -0.07675,0.06651 -0.10744,0.10744c-0.32745,0.29675 -0.6549,0.58327 -0.98235,0.85956c-0.10233,0.0921 -0.20466,0.17907 -0.30699,0.26094c-1.53493,1.28934 -3.15172,2.41495 -4.85037,3.37684c1.50423,-1.87261 2.96241,-4.03174 4.37454,-6.4774c3.50987,-6.06808 5.2648,-11.57847 5.2648,-16.53117c0,-2.26146 -0.25071,-3.81174 -0.75211,-4.65083c-0.44001,-0.72653 -1.23817,-1.13585 -2.39449,-1.22794z" fill="#49d7cb"/></g></g></svg>