<svg version="1.1" xmlns="http://www.w3.org/2000/svg" xmlns:xlink="http://www.w3.org/1999/xlink" width="149.81581" height="111.80584" viewBox="0,0,149.81581,111.80584"><defs><linearGradient x1="220.81928" y1="128.65896" x2="251.44326" y2="222.02939" gradientUnits="userSpaceOnUse" id="color-1"><stop offset="0" stop-color="#e4bafd"/><stop offset="1" stop-color="#c8a3ef"/></linearGradient><radialGradient cx="236.55301" cy="176.50385" r="61.14275" gradientUnits="userSpaceOnUse" id="color-2"><stop offset="0" stop-color="#e8bdff"/><stop offset="1" stop-color="#ad8ee2"/></radialGradient></defs><g transform="translate(-164.87473,-117.99401)"><g data-paper-data="{&quot;isPaintingLayer&quot;:true}" fill-rule="nonzero" stroke="none" stroke-linecap="round" stroke-linejoin="miter" stroke-miterlimit="10" stroke-dasharray="" stroke-dashoffset="0" style="mix-blend-mode: normal"><path d="M223.92019,130.88519c12.05746,-7.56434 26.57048,-14.017 41.37443,-12.7256c5.28906,0.7197 4.26536,0.02176 8.94661,3.72278c2.58027,2.03876 3.33297,7.73432 6.37621,9.57895c11.7175,5.98103 27.64632,11.57401 32.29479,25.55592c4.77805,14.36845 -0.61645,32.50066 -9.6998,42.28884c-12.72477,13.68856 -32.95791,15.45983 -50.48381,19.84831c-16.37737,4.10122 -33.7571,3.60565 -50.60863,5.61925c-8.24308,1.34886 -16.29206,6.74383 -24.72194,4.47677c-5.13115,-1.37953 -9.96809,-7.97716 -10.68903,-14.146c-0.49003,-7.28335 10.24538,-10.46821 9.93827,-17.87077c-0.31715,-7.57656 -11.70894,-12.955 -11.77255,-21.13832c0.14231,-5.61584 7.26452,-7.51778 11.95017,-10.00052c8.03456,-4.24156 18.41847,-3.14239 25.83131,-8.47225c8.91309,-6.46212 11.98047,-20.91386 21.26398,-26.73737z" fill="url(#color-1)" stroke-width="1.28185"/><path d="M217.90119,144.76526c3.60937,-4.1099 6.3206,-6.57349 11.32216,-5.58511c4.01532,0.4671 10.81929,-2.55626 14.02425,0.11829c2.47236,2.06626 3.99952,5.34411 7.32718,6.00434c2.87304,0.20739 5.25277,0.35617 8.03873,-0.84611c4.42227,-1.94943 5.94441,-1.42921 10.8306,-1.24028c7.96871,0.1495 19.38997,0.39152 23.23991,8.42836c5.37211,11.21645 -2.29143,23.28192 -2.85251,35.11813c0.09507,2.90689 3.52692,-1.2287 1.74308,-0.00558c-7.13133,4.88601 -12.617,10.03402 -19.8817,13.67179c-9.07372,4.24487 -18.13568,7.68621 -28.87581,9.85127c-7.77878,1.48418 -16.70527,-2.76019 -24.39365,-0.63096c-7.77811,2.15281 -12.94872,11.33725 -20.74677,12.14845c-3.617,0.36453 -9.49791,-3.82132 -9.53957,-7.8381c-0.01255,-5.49914 4.83392,-6.18602 5.39134,-11.95391c0.29191,-3.78669 -0.68323,-5.60011 -2.31445,-9.21177c-2.65601,-3.82108 -7.43288,-9.25568 -5.23817,-12.7069c4.06047,-6.3963 14.14365,-5.37 19.20178,-10.76114c6.07363,-6.52481 6.8353,-17.8284 12.72359,-24.56079z" fill="url(#color-2)" stroke-width="1.2017"/></g></g></svg>