<svg version="1.1" xmlns="http://www.w3.org/2000/svg" xmlns:xlink="http://www.w3.org/1999/xlink" width="202.07487" height="203.73871" viewBox="0,0,202.07487,203.73871"><g transform="translate(-125.9376,-87.28356)"><g data-paper-data="{&quot;isPaintingLayer&quot;:true}" fill-rule="nonzero" stroke-linecap="butt" stroke-linejoin="miter" stroke-miterlimit="10" stroke-dasharray="" stroke-dashoffset="0" style="mix-blend-mode: normal"><path d="M255.57917,144.01182c-12.39759,-2.42853 -25.21732,-3.64782 -37.64554,-6.10878c-4.56931,-0.90479 -8.21948,-4.37 -12.1693,-6.53823c-3.7775,-2.07364 -9.68585,-2.69124 -14.75997,-2.7677c-1.43853,1.52675 -3.01398,2.97261 -4.55239,4.41504c-0.36068,2.47772 -0.39297,5.86906 -1.97298,7.97256c-1.81238,2.41287 -8.50669,9.35168 -9.2036,10.85431c-2.12584,4.58353 -4.22051,9.21124 -5.91476,13.99683c-0.97848,2.76385 -0.82526,5.30379 -0.68913,7.95299c1.2396,1.05425 2.42144,1.99552 2.97951,2.61841c1.00797,1.12502 1.93461,3.25527 3.12715,4.03412c3.4557,2.25695 7.58028,6.03563 11.50484,7.34382c10.55464,3.51821 26.78294,6.75328 38.41745,7.24553c9.95416,0.42116 18.38355,-3.73711 28.01016,-5.30635c4.99975,-0.81501 12.42807,-0.20141 16.7797,-3.55507c5.11552,-3.94237 9.89263,-8.38534 15.19235,-11.89462c2.89314,-3.28986 6.30542,-5.25539 10.63189,-8.22964l-0.00001,-0.00002c2.23801,-1.53853 4.7217,-2.94937 7.28228,-3.98474c0.14008,-0.48801 0.37763,-0.94214 0.77108,-1.33558c3.14098,-3.14098 5.54203,-4.30881 8.13279,-3.50349l0.00002,-0.51558l-0.33225,-1.329l-0.20777,-0.41553l-0.13232,0.04726l-0.22728,-0.11364l-0.29275,0.07319h-1.13379l-3.75,-0.9375l-1.02273,-1.78977l-1.78977,-1.02273l-0.9375,-3.75v-1.13379l0.24574,-0.98297l-1.77519,-0.35504l-0.90533,-0.42884l-0.9779,-0.21731l-0.27912,-0.13956l-1.76192,-0.58731l-0.33298,-0.2119l-0.0399,0.01088l-0.18651,-0.11191l-0.42299,-0.094l-0.75586,-0.37793l-0.39899,-0.34199h-0.40413l-0.89572,-0.22393h-0.92329l-0.61599,-0.154h-2.10014l-0.72471,-0.18118l-0.74616,0.03553l-1.68551,-0.3371l-1.40009,-0.20001c-6.37811,7.33958 -20.72985,4.198 -29.0087,2.57628zM279.81863,258.16077c-2.03759,6.14755 -6.06289,14.7388 -12.80573,17.07431c-5.85126,2.02669 -11.47938,4.02324 -17.857,4.10106c-0.41474,0.00506 -0.83183,0.04935 -1.25082,0.12224l-0.38016,0.19008l-0.68547,0.15233l-0.60823,0.3509l-1.97527,0.56436l-0.88825,0.44413l-0.80629,0.17918l-0.72879,0.38869l-1.23228,0.30807l-4.0528,1.35093l-1.39536,0.55815l-1.98855,0.99427l-0.52697,0.1171l-0.45543,0.28982l-1.76192,0.58731l-1.79084,0.89542l-0.52697,0.1171l-0.45543,0.28982l-1.76192,0.58731l-0.27912,0.13956l-0.52697,0.1171l-0.45543,0.28982l-2.8957,0.96523l-0.59728,0.29864l-0.0418,0.07314l-0.20898,0.05225l-0.18692,0.09346l-1.68226,0.37384l-1.67184,0.41796h-0.20898l-0.01363,0.00303l-0.60388,0.15097h-0.92329l-0.89572,0.22393h-9.07029l-0.72471,-0.18118l-0.74616,0.03553l-1.16142,-0.23228h-3.41457l-0.72471,-0.18118l-0.74616,0.03553l-1.16142,-0.23228h-1.52493l-0.5237,-0.13093l-0.53696,0.05555l-4.76335,-0.68048h-1.73457l-0.60814,-0.15203l-0.62486,0.04999l-2.26757,-0.37793l-0.11386,-0.0495l-0.12402,0.00591l-5.66893,-1.13379l-0.90533,-0.42884l-0.9779,-0.21731l-0.77534,-0.38767l-0.71301,-0.17825l-0.25948,-0.13839l-0.29321,-0.02255l-2.26757,-0.75586l-0.84515,-0.53782l-0.9434,-0.33693l-0.29809,-0.19872l-0.18094,-0.06031l-0.45543,-0.28982l-0.15496,-0.03444l-5.66893,3.77929l-3.77336,-0.83853l-0.56485,-0.28242l-0.3984,-0.0996l-1.2025,-0.26722l-1.00908,-0.07762l-3.40136,-1.13379l-0.45543,-0.28982l-0.52697,-0.1171l-0.90703,-0.45351l-1.36054,-0.30234l-0.18692,-0.09346l-0.20898,-0.05225l-0.0418,-0.07314l-1.07402,-0.53701l-0.35983,-0.30843l-0.44632,-0.1594l-0.74528,-0.49685l-0.33822,-0.16911l-0.35983,-0.30843l-0.44632,-0.1594l-1.13379,-0.75586l-0.99054,-1.08959l-1.08959,-0.99054l-3.02343,-4.53515l-0.06151,-0.17222l-0.12931,-0.12931l-1.04196,-1.73661l-1.41272,-2.11908l-0.1594,-0.44632l-0.30843,-0.35983l-0.75586,-1.51172l-0.06904,-0.31067l-0.18633,-0.258l-0.72189,-1.80474l-1.09776,-2.56145l-0.05068,-0.31419l-0.17086,-0.2685l-1.06409,-3.19227l-0.674,-1.68501l-0.05275,-0.38684l-0.1951,-0.33818l-1.51172,-5.29101l-0.01438,-0.43149l-0.17214,-0.39593l-0.32869,-1.97213l-0.68321,-2.73285v-0.24979l-0.10296,-0.22759l-0.75586,-4.15722l0.01998,-0.30638l-0.10374,-0.28898l-0.35349,-3.53487l-0.71548,-4.29285l0.02003,-0.25034l-0.08485,-0.23637l-0.37383,-3.73829l-0.37338,-3.36041l0.05656,-0.41852l-0.10243,-0.40972v-7.55858l0.09237,-0.36946l-0.05514,-0.37682l0.34071,-3.40708v-1.89351l0.13093,-0.5237l-0.05555,-0.53696l0.36863,-2.58038l0.36977,-2.95816l0.02443,-0.0631l-0.00696,-0.0673l0.68048,-4.76335v-9.29314l0.13093,-0.5237l-0.05555,-0.53696l0.30255,-2.11785v-2.11249l0.10243,-0.40972l-0.05656,-0.41852l0.07655,-0.68899c-0.29405,-2.33815 -1.11046,-4.90165 -0.62476,-7.14089c0,-2.87254 0.80745,-5.55649 2.20777,-7.83727c0.24941,-0.40622 0.51762,-0.79966 0.80343,-1.17909l0.33601,-1.42806l0.02456,-0.04763v-0.05359l1.51172,-6.04686l0.2043,-0.38307l0.0493,-0.43134l2.26757,-6.04686l0.13956,-0.20236l0.0435,-0.24194l3.40136,-7.55858l0.09717,-0.1232l0.03404,-0.15317l4.91308,-9.82615l0.17787,-0.20751l0.07815,-0.2619l6.04686,-10.20408l0.14328,-0.14486l0.06853,-0.19188l5.29101,-7.93651l0.12729,-0.11572l0.06505,-0.15926l2.5605,-3.4916c0.46227,-0.71792 0.94272,-1.42258 1.44309,-2.10931l0.24931,-0.49862l0.19138,-0.22328l0.08562,-0.28134l0.98559,-1.64266l0.86546,-1.73092l1.35165,-3.37914l1.39757,-3.84332l1.07199,-3.57331l0.33381,-0.5614l0.04777,-0.21494c1.68336,-0.44545 3.32094,-1.16632 4.75647,-2.02764l2.96896,-1.48448c1.79577,-0.59859 3.33537,-1.6893 4.53507,-3.09826c7.3525,0.47121 14.66192,1.81375 22.03628,2.27286c1.35292,0.08423 2.76423,0.19511 4.1659,0.15263c0.0377,0.00042 0.07544,0.00063 0.11324,0.00063c0.76898,0 1.51769,-0.0868 2.23686,-0.25113c0.26789,-0.05336 0.53394,-0.11648 0.79764,-0.1907c4.66356,1.15898 9.24362,2.50867 13.9394,3.59675c4.42725,1.02586 9.0233,3.34131 13.41508,1.86768c0.82407,-0.27651 1.92839,-0.00488 2.52981,-0.63245c0.69609,-0.72636 1.15738,-1.62446 1.59099,-2.54537l0.04287,0.02287l0.29321,0.02255l2.11297,0.70432l2.48881,0.71109l0.14472,0.08349l0.16658,0.01281l2.26757,0.75586l0.12018,0.07648l0.14153,0.01618l2.5307,0.94901l2.88765,0.6417l0.35216,0.17608l0.39257,0.0302l5.47144,1.82381l3.95638,1.07901l0.10828,0.06074l0.12398,0.00664l4.65598,1.43261l4.65097,1.0733l0.52027,0.26544l0.57872,0.07892l3.77929,1.51172l0.11765,0.08497l0.14296,0.02502l2.96637,1.31839l3.32335,0.997l0.41516,0.24685l0.47577,0.08326l3.35567,1.49141l5.24505,2.24788l0.17955,0.13646l0.22015,0.04892l8.16206,4.08103l3.24568,1.44252l0.40035,0.31277l0.48434,0.15337l4.91308,3.02343l0.24556,0.25114l0.32371,0.1363l3.02343,2.26757l0.15752,0.19387l0.22342,0.11171l2.6455,2.26757l0.1702,0.23982l0.25217,0.1513l2.6455,2.6455l0.47503,0.79172l0.65287,0.65287l1.13379,1.88964l0.98905,3.24973l0.12648,0.18973l-0.02901,0.13055l0.03894,0.12794l-0.11156,0.19887l-0.43377,1.95195l0.91333,1.36999l-0.08017,0.36075l0.03344,0.05851l-0.07599,0.13299l-0.30194,1.35871v0.02002l-0.04003,0.16013l-0.37384,1.68226l-0.07559,0.15117l-0.30234,1.36054l-0.09346,0.18692l-0.05225,0.20898l-0.07314,0.0418l-0.29864,0.59728l-0.01523,0.04569l0.06489,0.09734l0.1594,0.44632l0.30843,0.35983l0.75586,1.51172l0.17918,0.80629l0.38869,0.72879l0.17825,0.71301l0.38767,0.77534l0.17918,0.80629l0.38869,0.72879l0.75586,3.02343v0.92329l0.22393,0.89572v0.20898l0.3379,1.52054l0.41796,1.67184v0.20898l0.04673,0.21028l-0.04673,0.07009v1.23285l0.154,0.61599v0.92329l0.22393,0.89572v0.76907l0.23228,1.16142l-0.03553,0.74616l0.18118,0.72471v5.29101l-0.29241,1.16963l-0.09247,1.20208l-0.75586,2.26757l-0.28982,0.45543l-0.1171,0.52697l-0.23842,0.47683l-0.64,1.6l-0.35556,0.49231l-0.17682,0.58097l-0.98559,1.64266l-2.89462,5.78924l-0.30843,0.35983l-0.1594,0.44632l-1.25271,1.87906l-1.96019,3.92038l-1.04697,2.44293l-0.31217,0.41076l-0.15022,0.49357l-0.8246,1.37433l-0.53267,1.33167l-0.57949,0.80238l-0.38408,0.91219l-0.53861,0.71815l-0.38746,0.96864l-0.05502,0.07619l-0.01496,0.09278l-1.0109,2.35877l-0.65721,1.97162l-0.17086,0.2685l-0.05068,0.31419l-1.13379,2.6455l-0.13646,0.17955l-0.04892,0.22015l-1.13379,2.26757l-0.19138,0.22328l-0.08562,0.28134l-1.13379,1.88964l-0.27841,0.27841l-0.15279,0.36287l-0.53861,0.71815l-0.38746,0.96864l-0.57949,0.80238l-0.38408,0.91219l-1.86181,2.48241l-0.45342,0.90684l-0.44366,0.5176l-0.26455,0.6283l-1.13379,1.51172l-0.41896,0.34041l-0.27774,0.46289l-0.75689,0.75689l-0.81398,1.08531l-0.41896,0.34041l-0.27774,0.46289l-2.16282,2.16282l-0.21156,0.42312l-0.51925,0.60579l-0.33244,0.72532l-1.51172,1.88964l-0.33593,0.25595l-0.21728,0.36214l-0.60866,0.60866l-0.0849,0.12736l-0.16911,0.33822l-0.78461,0.91538l-0.62029,1.03382l-0.65111,0.65111l-0.58949,1.17898l-0.78461,0.91538l-0.62029,1.03382l-0.27318,0.27318l-0.21156,0.42312l-0.44366,0.5176l-0.26455,0.6283l-0.72802,0.9707l-0.45342,0.90684l-0.44366,0.5176l-0.26455,0.6283l-1.86181,2.48241l-0.45342,0.90684l-0.44366,0.5176l-0.26455,0.6283l-1.13379,1.51172l-0.07093,0.05763c0.19109,1.13793 0.21885,2.26308 -0.13763,3.33863z" fill="#ffffff" stroke="none" stroke-width="0.5"/><path d="M265.32344,141.52597c6.67921,0.1262 14.94323,-0.33524 24.79206,-1.38432c4.2497,-0.4151 10.12209,-1.0193 17.61717,-1.81259c3.22336,-1.51913 5.43012,-2.47813 6.62026,-2.87701c1.48282,-0.47271 2.5833,-0.42189 3.3014,0.15246c0.53033,0.43189 0.75082,1.05773 0.66147,1.87749c-0.09841,0.75371 -0.43189,1.3883 -1.00041,1.90373c-0.45002,0.39823 -1.07424,0.75308 -1.87263,1.06454c-0.90199,0.29205 -1.59614,0.50508 -2.08243,0.63913c-2.51821,1.01858 -4.40315,1.74836 -5.65481,2.18933c-1.05805,0.38075 -2.03063,0.64884 -2.91773,0.80425c-0.1062,0.45197 -0.29267,0.93179 -0.55944,1.43946c-0.04792,0.14116 -0.1363,0.35516 -0.26516,0.64202c0.19814,-0.0272 0.39628,-0.05439 0.59443,-0.08159c0.44551,1.28468 0.66051,2.48325 0.64497,3.59569c-0.01747,0.60802 -0.08125,1.49158 -0.19132,2.65064c5.19896,-1.58843 10.54264,-2.49015 16.03105,-2.70518c0.18325,0.10942 0.18941,0.27681 0.01846,0.50215c-0.18001,0.15929 -0.39531,0.30661 -0.6459,0.44195c-0.47269,0.23311 -0.9062,0.62908 -1.30054,1.18789c-0.02849,0.03755 -0.34254,0.56853 -0.94214,1.59292c-0.02849,0.03755 -0.05471,0.09162 -0.07867,0.16221c-0.74205,1.21217 -1.64631,2.34568 -2.71277,3.4005c-1.95414,1.91101 -4.01175,3.0683 -6.17282,3.47182c-0.27411,0.0136 -0.54108,0.01191 -0.79198,-0.02296c-0.87736,-0.12191 -1.77438,-0.08058 -2.66821,0.09122c-0.111,-0.01549 -0.22275,-0.03285 -0.33526,-0.0521c-0.00795,0.04236 -0.01553,0.08498 -0.02278,0.12788c-3.72456,0.8599 -7.34034,3.915 -9.18661,6.78145c-0.37448,0.58139 -0.45187,2.7766 -0.9539,3.13313c-0.87568,0.62187 -1.68235,1.30021 -2.41506,2.04471c-0.00002,-4.49636 -0.17723,-8.96843 -0.53161,-13.41615c-0.03627,-0.2642 -0.05601,-0.53064 -0.05926,-0.79936c-0.19428,-2.39584 -0.42806,-4.46661 -0.70133,-6.21234c-0.0136,-0.09907 -0.02719,-0.19814 -0.04079,-0.29721c-0.25191,-1.34491 -0.53746,-2.56744 -0.85671,-3.66757c-0.17742,-0.3121 -0.406,-0.75177 -0.68574,-1.319c-0.35938,-0.65723 -0.58667,-1.3326 -0.68187,-2.02609c-2.01574,0.51221 -3.72682,0.91531 -5.13323,1.2093c-11.46892,2.48272 -24.47929,2.80498 -39.03111,0.9668c-9.27579,-1.14927 -22.23925,-3.79427 -38.89037,-7.93503c-1.39347,-0.34706 -2.68335,-0.67469 -3.86961,-0.98291c-1.99114,-0.53419 -3.74206,-1.03405 -5.25273,-1.49961c-1.58126,-0.48952 -2.92229,-0.9447 -4.02308,-1.36559c-0.12303,0.08418 -0.2438,0.18487 -0.36229,0.30208c-1.52102,1.42004 -3.16637,3.15994 -4.93603,5.21973c-0.52643,0.57695 -1.06258,1.2057 -1.60843,1.88626c-0.51737,0.643 -1.03246,1.3025 -1.54529,1.97852c-0.29397,0.30952 -0.55265,0.63102 -0.77605,0.96449l-0.04274,0.05634c-0.13339,0.25383 -0.28102,0.52643 -0.4429,0.81782c-0.03302,0.00454 -0.06378,0.02558 -0.09227,0.06313c-0.44225,0.69997 -0.88225,1.41646 -1.31996,2.14946c-0.17094,0.22534 -0.32084,0.48144 -0.44969,0.76829c-0.3898,0.59184 -0.76083,1.19792 -1.11308,1.81826c-0.73299,1.27822 -1.43295,2.5519 -2.09989,3.82106c-0.11396,0.15023 -0.1949,0.29592 -0.24282,0.43708c-1.76706,3.30433 -3.34116,6.66629 -4.7223,10.08588c-1.3437,3.19733 -2.53057,6.43884 -3.56064,9.72454c-0.19329,0.64696 -0.38554,1.28863 -0.57674,1.92502c-0.35323,-0.57254 -0.68144,-1.04775 -0.95037,-1.37673c-0.28754,-0.35175 -1.38595,-1.22359 -2.28999,-2.01401c-0.1433,-0.70344 -0.19435,-1.49217 0.00023,-2.46507c0.45245,-2.26225 0.54031,-4.41123 0.89672,-6.59851c0.15116,-0.39946 0.3046,-0.79801 0.46031,-1.19562c1.36754,-3.51866 2.91378,-6.96091 4.63876,-10.32675c0.13339,-0.25383 0.26677,-0.50767 0.40016,-0.7615c0.40016,-0.76149 0.80486,-1.48996 1.21409,-2.1854c0.78544,-1.38636 1.57022,-2.65487 2.35436,-3.80552c0.48758,-0.36974 0.92337,-0.7492 1.30734,-1.13836c0.17548,-0.19232 0.33444,-0.38237 0.4769,-0.57015c0.16966,0.01036 0.36035,0.05148 0.57209,0.12335c0.89487,-1.5696 1.72011,-2.91096 2.47576,-4.02406c0.24282,-0.43708 0.49244,-0.82462 0.74885,-1.16263c1.1979,-1.81307 2.43497,-3.46331 3.71123,-4.95068c0.55039,-0.64753 1.10532,-1.26204 1.66477,-1.84352c-4.10339,-2.19571 -7.78684,-4.88647 -11.0504,-8.07225c-5.00799,-4.86415 -8.38618,-10.35577 -10.13456,-16.47485c1.99374,1.77872 4.46277,3.71092 7.40708,5.79657c1.714,1.2115 3.53162,2.44243 5.45283,3.69277c3.76085,3.62221 8.58785,6.6775 14.48099,9.16589c4.75025,2.00598 11.52726,4.07022 20.33101,6.19272c10.85641,2.6146 19.45652,4.47906 25.80032,5.59339z" fill="#000000" stroke="none" stroke-width="1"/><path d="M169.83421,177.59714c-0.04828,0.13925 -0.09605,0.27905 -0.1433,0.41942c-0.03546,-0.06269 -0.07083,-0.12468 -0.1061,-0.18596c0.08299,-0.07901 0.16612,-0.15683 0.2494,-0.23346z" fill="#000000" stroke="none" stroke-width="1"/><path d="M295.98904,165.98335c-14.09668,17.14106 -43.77338,29.41353 -74.2268,29.17774c-24.25436,-0.18779 -43.08181,-8.26399 -51.44116,-20.27209" fill="none" stroke="#000000" stroke-width="4.5"/><path d="M169.94066,164.03948c1.25,0 1.25,1.25 1.25,1.25l-0.01097,0.48298c-0.16253,1.21674 -0.5099,2.73677 -0.32295,3.97753c0.16022,1.06339 1.90069,3.24681 1.67136,4.11382c-0.19393,0.73319 -1.18468,0.94721 -1.77703,1.42081c0,0 -1.09737,0.59857 -1.69593,-0.4988c-0.59857,-1.09737 0.4988,-1.69593 0.4988,-1.69593c0.77647,0.21007 -0.95352,-1.58454 -1.16492,-2.93944c-0.23427,-1.50141 0.11498,-3.22357 0.3126,-4.70839l-0.01097,-0.15257c0,0 0,-1.25 1.25,-1.25z" fill="#000000" stroke="none" stroke-width="0.5"/></g></g></svg>