<svg version="1.1" xmlns="http://www.w3.org/2000/svg" xmlns:xlink="http://www.w3.org/1999/xlink" width="25.01222" height="21.19998" viewBox="0,0,25.01222,21.19998"><defs><linearGradient x1="225.38687" y1="180.06831" x2="244.5263" y2="180.06831" gradientUnits="userSpaceOnUse" id="color-1"><stop offset="0" stop-color="#891d1d"/><stop offset="1" stop-color="#ce3c3c"/></linearGradient></defs><g transform="translate(-225.38687,-169.28422)"><g data-paper-data="{&quot;isPaintingLayer&quot;:true}" fill-rule="nonzero" stroke="none" stroke-width="1" stroke-linecap="butt" stroke-linejoin="miter" stroke-miterlimit="10" stroke-dasharray="" stroke-dashoffset="0" style="mix-blend-mode: normal"><path d="M242.14899,169.65243c0.36111,-0.10584 0.71479,-0.1909 1.06106,-0.25519c2.71233,-0.46184 4.97325,0.49177 6.78275,2.86084c0.29549,0.38503 0.42979,0.8014 0.40293,1.2491c-0.20839,3.51774 -1.82461,6.18607 -4.84865,8.00498c-0.21738,0.13417 -0.44571,0.26401 -0.68499,0.38951c-0.33592,0.17793 -0.67618,0.34806 -1.02077,0.51038c0.00004,0.00675 -0.00444,0.01122 -0.01343,0.01343c0.00004,0.00227 -0.00444,0.00227 -0.01343,0c-0.53175,0.26579 -1.07348,0.51203 -1.62517,0.73872c-0.39076,0.17289 -0.78922,0.33406 -1.19537,0.48352c-0.37317,0.1497 -0.75372,0.2885 -1.14165,0.41637c-0.96638,0.33511 -1.95133,0.62612 -2.95486,0.87302c1.48156,-0.79073 2.47994,-1.35036 2.99516,-1.6789c0.78293,-0.51059 1.46791,-1.0568 2.05497,-1.63861c0.14148,-0.14376 0.27579,-0.2915 0.40293,-0.44323c0.19342,-0.20839 0.37251,-0.42329 0.53725,-0.6447c0.00654,-0.00878 0.01102,-0.01773 0.01343,-0.02686c0.32773,-0.43858 0.60531,-0.89524 0.83274,-1.36998c0.5283,-1.10723 0.79244,-2.31156 0.79244,-3.61299c0,-0.81483 -0.26414,-1.88036 -0.79244,-3.19662c-0.53725,-1.34312 -1.04763,-2.1669 -1.53115,-2.47134z" fill="#fa3030"/><path d="M232.2905,175.61587c2.57543,-2.41667 5.51238,-4.2836 8.81085,-5.6008c0.0482,-0.01609 0.09744,-0.034 0.14774,-0.05372c0.30511,-0.11763 0.60507,-0.2206 0.89989,-0.30892l0.05373,0.20147c0.48352,0.30444 0.99391,1.12822 1.53115,2.47134c0.5283,1.31626 0.79244,2.38179 0.79244,3.19662c0,1.30142 -0.26414,2.50576 -0.79244,3.61299c-0.22742,0.47474 -0.505,0.9314 -0.83274,1.36998c-0.00241,0.00913 -0.00689,0.01808 -0.01343,0.02686c-0.16474,0.2214 -0.34383,0.4363 -0.53725,0.6447c-0.12714,0.15173 -0.26145,0.29947 -0.40293,0.44323c-0.58706,0.58181 -1.27204,1.12801 -2.05497,1.63861c-0.51521,0.32854 -1.5136,0.88817 -2.99516,1.6789c-0.03739,0.00913 -0.07768,0.01808 -0.12088,0.02686c-0.50283,0.12246 -1.01321,0.23438 -1.53115,0.33578c-0.16541,0.03456 -0.33106,0.07038 -0.49695,0.10745c-2.37392,0.55725 -4.55873,1.51086 -6.55441,2.86084c-0.39793,0.26572 -0.78744,0.54778 -1.16852,0.84616l-1.6386,1.36998c0.19699,-2.23853 0.68499,-4.43229 1.464,-6.58128c0.43218,-1.21213 0.95599,-2.36273 1.57144,-3.45181c1.03375,-1.78442 2.32314,-3.39617 3.86818,-4.83522z" fill="url(#color-1)"/></g></g></svg>