<svg version="1.1" xmlns="http://www.w3.org/2000/svg" xmlns:xlink="http://www.w3.org/1999/xlink" width="204.22525" height="235.21542" viewBox="0,0,204.22525,235.21542"><g transform="translate(-130.3816,-65.40389)"><g data-paper-data="{&quot;isPaintingLayer&quot;:true}" fill-rule="nonzero" stroke="none" stroke-linecap="butt" stroke-linejoin="miter" stroke-miterlimit="10" stroke-dasharray="" stroke-dashoffset="0" style="mix-blend-mode: normal"><path d="M198.68468,76.47541l1.49055,-0.9937l0.89263,-0.3188l0.71966,-0.61686l0.67644,-0.33822l0.35676,-0.23784l0.41622,-0.14865l0.06229,-0.03114l0.06595,-0.01466l0.34817,-0.12435l0.71966,-0.61686l0.75586,-0.37793l0.53711,-0.11936l0.11816,-0.07878l0.77938,-0.27835l0.53014,-0.33736l1.13379,-0.37793l0.2552,-0.01963l0.19891,-0.10609l0.2266,-0.19423l1.51172,-0.75586l0.3507,-0.07793l1.20775,-0.30194h0.09448l1.41723,-0.75586l2.03581,-0.50895l0.94444,-0.37778l1.37499,-0.1875l1.25413,-0.59406l1.88964,-0.37793l0.24803,0.01181l0.22772,-0.09901l2.02899,-0.33817l1.65247,-0.33049l0.24803,0.01181l0.22772,-0.09901l2.26757,-0.37793l1.24971,0.09998l1.21627,-0.30407h1.20156l1.5902,-0.22717l1.07391,0.11109l1.04741,-0.26185h17.38473l1.04741,0.26185l1.07391,-0.11109l1.5902,0.22717h1.57949l0.91955,0.22989l0.94097,-0.11406l3.02343,0.37793l0.29265,0.11328l0.31281,-0.02503l1.04303,0.17384h1.02614l2.02975,0.50744l2.09106,0.0697l1.82865,0.52247l1.42959,0.23827l0.88272,0.38379l0.96151,0.04472l3.68477,1.10543l2.55062,0.72875l0.28943,0.16698l0.33316,0.02563l5.66893,1.88964l0.91085,0.57963l1.05393,0.23421l0.55824,0.27912l0.12247,0.04082l0.14969,0.09526l0.68131,0.34065l0.19841,0.17007l0.93537,0.20786l1.51172,0.75586l0.71966,0.61686l0.28543,0.10194l0.04347,0.00318l0.03956,0.02373l0.04567,0.01015l0.06229,0.03114l0.41622,0.14865l0.35676,0.23784l0.67644,0.33822l0.42081,0.36069l1.07858,0.68637l0.39025,0.08672l2.26757,1.13379l1.0352,0.88732l1.25659,0.52909l1.17864,0.88398l1.92115,1.28077l0.98116,1.07928l0.15263,0.05451l0.73468,0.48979l0.41763,0.25058l1.13379,1.13379l0.07086,0.1181l1.06293,0.63776l1.13379,1.13379l0.56689,0.94482l0.94482,0.56689l0.75586,0.75586l0.52339,0.87232l0.69203,0.59317l0.09133,0.21919l0.20496,0.20496l0.0884,0.14733l0.27404,0.24913l0.68782,1.03174l0.83938,0.83938l0.25058,0.41763l0.37881,0.56821l0.76401,0.62076l2.12698,2.83598l1.36534,1.70667l0.92055,2.00847l1.29357,1.7911l0.49037,1.22593l0.00121,0.00289l0.88732,1.0352l3.02343,6.04686l0.30465,1.37094l0.7018,1.21645l0.54509,1.9078l1.22678,3.06695l0.1875,1.37499l0.59406,1.25413l0.65722,3.28611l0.69792,1.3086l0.37793,1.51172l0,1.13379l0.37793,1.51172v0.7128l0.06993,0.27973v1.13379l0.37793,1.51172v14.73923l-0.36235,1.44941l0.07106,1.49233l-0.08664,0.4332v1.91607l-0.36235,1.44941l0.07106,1.49233l-0.37793,1.88964l-0.08664,0.1829v1.78843l-0.36235,1.44941l0.07106,1.49233l-0.08664,0.4332v3.80571l-0.30407,1.21627l0.09998,1.24971l-0.17384,1.04303v3.67164l-0.30407,1.21627l0.09998,1.24971l-0.17384,1.04303v0.27028l-0.13514,0.54056l-0.06895,0.41371l-0.08112,0.18658l-0.07714,0.30857l0.07106,1.49233l-0.37793,1.88964l-0.15657,0.33054v0.36575l-0.29136,1.16543l-0.30793,1.53964l-0.40576,0.85661l-0.0727,0.94506l-0.19576,0.58728l-0.61614,2.46456l-0.75586,1.41723v0.09448l-0.30194,1.20775l-0.07793,0.3507l-0.50304,1.00609l-0.12,0.88l-2.26757,5.66893l-0.37267,0.516l-0.13808,0.62134l-0.27912,0.55824l-0.04082,0.12247l-0.09526,0.14969l-0.34065,0.68131l-0.35839,0.41812l-0.71741,2.15224l-0.57963,0.91085l-0.23421,1.05393l-0.37793,0.75586l-0.61686,0.71966l-0.00281,0.00787l-0.00338,0.02476l-0.05102,0.12756l-0.06713,0.18797l-0.01466,0.06595l-0.03114,0.06229l-0.14865,0.41622l-0.07848,0.11771l-0.36477,0.91193l-0.37267,0.516l-0.13808,0.62134l-0.37793,0.75586l-0.45351,0.5291l-0.30234,1.36054l-0.18692,0.37384l-0.10449,0.41796l-0.24816,0.28735l-0.21629,0.43257l-0.35839,0.41812l-0.71741,2.15224l-0.57963,0.91085l-0.23421,1.05393l-0.37793,0.75586l-0.61686,0.71966l-0.3188,0.89263l-1.51172,2.26757l-0.19025,0.17296l-0.6665,1.04736l-0.36062,0.60104l-0.29434,0.82415l-2.26757,3.40136l-0.49116,0.44651l-0.27657,0.60342l-1.36534,1.70667l-0.74339,0.99119l-2.03663,3.05494l-1.10549,1.00499l-0.76867,1.28111l-0.56689,0.56689l-0.56689,0.94482l-1.51172,1.51172l-0.25636,0.15382l-0.13706,0.20559l-0.79884,0.72622l-0.21266,0.2481l-1.24058,2.06764l-2.6455,2.6455l-0.1181,0.07086l-0.63776,1.06293l-3.77929,3.77929l-0.1181,0.07086l-0.63776,1.06293l-1.88964,1.88964l-1.28111,0.76867l-1.00499,1.10549l-0.43607,0.29071l-0.03788,0.04167l-0.26338,0.43897l-2.26757,2.26757l-1.06293,0.63776l-0.07086,0.1181l-4.53515,4.53515l-1.06293,0.63776l-0.07086,0.1181l-3.77929,3.77929l-1.88964,1.13379l-0.75586,0.75586l-0.59791,0.35875l-0.55353,0.47445l-0.45516,0.5602l-0.6589,0.49418l-0.00207,0.00207l-0.00345,0.00207l-0.84729,0.63547l-0.71023,0.29904l-1.39445,0.83667l-1.16686,0.74255l-1.66575,1.42779l-0.67644,0.33822l-0.35676,0.23784l-0.41622,0.14865l-0.06229,0.03114l-0.06595,0.01466l-1.49054,0.53233l-0.6105,0.407l-0.84446,0.30159l-0.07439,0.03967l-0.69345,0.59439l-3.02343,1.51172l-0.39025,0.08672l-2.33039,1.48298l-0.39651,0.13217l-0.36943,0.22166l-0.37866,0.02771l-0.11166,0.03722l-0.55824,0.27912l-1.05393,0.23421l-0.91085,0.57963l-1.13379,0.37793l-0.58642,0.04511l-0.51896,0.27678l-1.51172,0.37793l-0.78746,0l-0.72926,0.2971l-1.63119,0.23303l-0.84782,0.24223l-0.07882,0.06807l-1.92968,0.48242l-0.37384,0.18692l-2.79609,0.62135l-0.30248,0.19249l-0.60616,0.20205l-0.82217,0.70471l-0.36391,0.61168l-0.67582,0.43007l-1.44868,1.69012l-1.35977,0.56657l-0.31728,0.27195l-0.75586,0.37793l-1.04268,0.23171l-0.02122,0.00884l-0.90089,0.57329l-2.26757,0.75586l-2.40415,0.18493l-2.33926,0.58482h-19.65231l-1.04741,-0.26185l-1.07391,0.11109l-1.5902,-0.22717h-1.12882l-0.36799,0.09346l-0.42056,-0.09346h-0.41796l-1.51172,-0.37793l-0.37793,0l-1.79145,-0.44786l-1.84658,0l-1.16543,-0.29136l-1.53964,-0.30793l-1.93325,-0.91575l-1.09018,-0.21804l-1.81065,-0.85768l-1.95581,-0.43462l-0.55824,-0.27912l-0.12247,-0.04082l-0.14969,-0.09526l-0.68131,-0.34065l-0.19841,-0.17007l-0.93537,-0.20786l-1.51172,-0.75586l-0.5393,-0.46226l-1.34679,-0.53871l-1.272,-0.91867l-1.47764,-0.52773l-1.49055,-0.9937l-0.67644,-0.33822l-0.42081,-0.36069l-1.65595,-1.05378l-1.60144,-0.96086l-0.20168,-0.07203l-0.73468,-0.48979l-0.41763,-0.25058l-0.29554,-0.29554l-0.36347,-0.2313l-0.19413,-0.3263l-0.28065,-0.28065l-1.88964,-1.13379l-0.08353,-0.08353l-1.03174,-0.68782l-1.00499,-1.10549l-1.28111,-0.76867l-1.32275,-1.32275l-0.0509,-0.03054l-0.18429,-0.07679l-0.05962,-0.06956l-0.65001,-0.39l-1.51172,-1.51172l-0.39,-0.65001l-0.06956,-0.05962l-0.07679,-0.18429l-0.32051,-0.53418l-0.26691,-0.22878l-0.38795,-0.23277l-0.69831,-0.69831l-0.89504,-0.76718l-0.36128,-0.86707l-1.0688,-1.0688l-0.45871,-0.76451l-0.14824,-0.08819l-0.2313,-0.36347l-0.29554,-0.29554l-0.86265,-1.43775l-0.81337,-0.94893l-0.37793,-0.75586l-0.02708,-0.12184l-0.17106,-0.15551l-0.75586,-1.13379l-0.12302,-0.34444l-0.25862,-0.25862l-1.13379,-1.88964l-0.48098,-1.58035l-0.09027,-0.14186l-0.36069,-0.42081l-0.34065,-0.68131l-0.09526,-0.14969l-0.04082,-0.12247l-0.11748,-0.23495l-0.24816,-0.28735l-0.10449,-0.41796l-0.18692,-0.37384l-0.39374,-1.77183l-0.07071,-0.08187l-0.10449,-0.41796l-0.18692,-0.37384l-0.74767,-3.36452l-0.2914,-1.1656l-0.1527,-0.4581l-0.01697,-0.22056l-0.37486,-1.49942v-0.41796l-0.09346,-0.42056l0.09346,-0.36799v-0.3052l-0.37793,-1.51172v-0.42099l-0.308,-1.23198v-0.32376l-0.10187,-0.21505l-0.11248,-0.22495l-0.24816,-0.28735l-0.10449,-0.41796l-0.18692,-0.37384l-0.30234,-1.36054l-0.07559,-0.15117l-0.23421,-1.05393l-0.57963,-0.91085l-0.37793,-1.13379l-0.04511,-0.58642l-0.27678,-0.51896l-0.23821,-0.95284l-1.32955,-3.98864l-0.11338,-1.47392l-0.26455,-0.79365l-0.10095,-1.31236l-0.29087,-1.16348v-0.75586l-0.37793,-1.51172v-6.42479l0.37793,-1.51172v-2.26757l0.36235,-1.44941l-0.07106,-1.49233l0.37793,-1.88964l0.08664,-0.1829v-0.27671l0.29087,-1.16348l0.08706,-1.13176v-18.86878l0.37793,-1.51172v-1.88964l0.44786,-1.79145l0,-1.84658l0.37793,-1.51172l0.27678,-0.51896l0.04511,-0.58642l0.1527,-0.4581l0.12428,-0.49712l0.10095,-1.31236l0.26455,-0.79365l0.11338,-1.47392l0.95162,-2.85485l0.23821,-0.95284l0.27678,-0.51896l0.04511,-0.58642l0.75586,-2.26757l0.57963,-0.91085l0.23421,-1.05393l0.37793,-0.75586l0.49408,-0.57643l0.16322,-0.2565l0.07438,-0.20826l0.69351,-2.77404l0.59886,-0.69341l0.04539,-0.12709l0.39372,-0.59057l0.18235,-0.82056l0.65705,-1.3141l0.04082,-0.12247l0.09526,-0.14969l0.34065,-0.68131l0.17007,-0.19841l0.20786,-0.93537l0.37793,-0.75586l0.35839,-0.41812l0.33948,-1.01845l0.36376,-0.57162l0.01417,-0.18424l0.1527,-0.4581l0.21134,-0.84535l0,-0.75586l0.29087,-1.16348l0.10095,-1.31236l0.26455,-0.79365l0.08088,-1.05142l-0.0623,-0.49843l1.13642,-3.18199l0.81949,-3.27795l0.07071,-0.08187l0.39374,-1.77183l0.18692,-0.37384l0.10449,-0.41796l0.24816,-0.28735l0.49541,-0.99081l0.04082,-0.12247l0.09526,-0.14969l0.34065,-0.68131l0.0881,-0.10278l1.12836,-2.70806l1.22373,-1.04891l0.00719,-0.02013l0.23784,-0.35676l0.33822,-0.67644l0.90703,-1.0582l0.98262,-1.96523l0.90703,-1.0582l0.60469,-1.20937l1.06532,-1.24287l0.23277,-0.38795l0.37793,-0.37793l0.1972,-0.32867l0.29904,-0.71023l0.63547,-0.84729l0.00207,-0.00345l0.00207,-0.00207l0.24437,-0.32583l0.52491,-0.78737l0.45545,-0.41404l0.12062,-0.24123l0.56453,-0.65862l0.13334,-0.40002l0.57963,-0.91085l0.23421,-1.05393l0.28188,-0.56375l0.03807,-0.49489l0.37793,-1.13379l0.36376,-0.57162l0.01417,-0.18424l0.37793,-1.13379l0.09526,-0.14969l0.34065,-0.68131l0.05751,-0.06709l0.13242,-0.2207l0.188,-0.84599l0.75586,-1.51172l0.88064,-1.02742l0.14873,-0.5365l1.11689,-1.22858l0.66354,-1.1059l0.75586,-0.75586l0.53885,-0.32331l0.86607,-1.01041l0.10679,-0.17799l0.32038,-0.32038l0.76718,-0.89504l0.56118,-0.23383l0.63736,-0.4249l0.67667,-0.24167l0.88975,-0.76264l0.02165,-0.02665l0.07551,-0.05663l0.70457,-0.60392l0.30196,-0.15098l1.08858,-0.81643l3.40343,-3.40343l0.95264,-0.57159c0.32994,-0.34143 0.67593,-0.66724 1.03678,-0.97622l0.29668,-0.32635l0.96315,-0.6421c1.44163,-0.99171 3.0653,-1.73788 4.81065,-2.17815l0.05636,-0.7702l1.55788,-2.59647l0.26124,-0.94233l0.89458,-0.98404l1.26378,-2.1063l0.75586,-0.75586l0.66332,-0.39799l0.0109,-0.02616l1.33028,-1.14024l0.2816,-0.30976l0.15856,-0.10571l1.2884,-1.50314l0.25195,-0.10498l0.88183,-1.02881l1.35977,-0.56657l0.31728,-0.27195zM203.29691,111.46985l-0.1768,0.63775l-0.29779,0.32757c-1.14983,2.14058 -2.80425,3.96975 -4.80415,5.32842l-3.10328,3.10328l-0.92579,0.55547l-0.68082,0.83793l-3.02343,2.26757l-0.97938,0.41237l-0.21516,0.64548l-0.09526,0.14969l-0.26507,0.53014l-0.45351,2.04082l-0.18692,0.37384l-0.10449,0.41796l-0.24816,0.28735l-0.11748,0.23495l-0.03722,0.11166l-0.02771,0.37866l-0.22166,0.36943l-0.13217,0.39651l-1.48298,2.33039l-0.08672,0.39025l-0.75586,1.51172l-1.06532,1.24287l-0.23277,0.38795l-0.20236,0.20236l-0.19106,0.53497l-0.75586,1.13379l-0.27404,0.24913l-0.08552,0.14253l-0.1212,0.28784l-1.13379,1.51172l-0.38235,0.31066l-0.61999,0.72332l-0.98262,1.96523l-0.90703,1.0582l-0.60469,1.20937l-0.61686,0.71966l-0.12435,0.34817l-0.01466,0.06595l-0.03114,0.06229l-0.14865,0.41622l-0.59287,0.88931l-0.44379,1.06509l-0.66138,0.56689l-0.51537,1.03074l-0.10215,0.28603l-0.74707,2.9883l-0.08706,1.13176l0,0.27753l0.09346,0.36799l-0.09346,0.42056v0.41796l-0.83592,3.34369l-0.22321,1.00444l-0.08855,1.15115l-0.37793,1.13379l-0.09526,0.14969l-0.14964,0.29929l-0.10449,0.41796l-0.10678,0.12364l-0.67762,2.03286l-1.07564,1.69029l-0.05457,0.15278l-0.00358,0.04657l-0.37793,1.13379l-0.09127,0.14342l-0.14651,0.41024l-0.39372,0.59057l-0.18235,0.82056l-0.65705,1.3141l-0.04082,0.12247l-0.09526,0.14969l-0.34065,0.68131l-0.17007,0.19841l-0.20786,0.93537l-0.31623,0.63247l-0.00371,0.04825l-0.37793,1.13379l-0.52973,0.83243l-0.19759,0.79036l-0.5171,0.59875l-0.46306,1.38917l-0.23821,0.95284l-0.27678,0.51896l-0.04511,0.58642l-0.90856,2.72567l-0.12428,0.49712l-0.10095,1.31236l-0.26455,0.79365l-0.09949,1.29332v0.35026l-0.37793,1.51172v19.65231l-0.37793,1.51172v0.75586l-0.29087,1.16348l-0.10095,1.31236l-0.1527,0.4581l-0.12428,0.49712l-0.05256,0.68329l0.05214,1.09497l-0.08664,0.4332v0.78228l-0.37793,1.51172v5.12441l1.11989,3.35968l0.04511,0.58642l0.27678,0.51896l0.23821,0.95284l0.19576,0.58728l0.03807,0.49489l0.65981,1.31961l0.43462,1.95581l0.85768,1.81065l0.26418,1.32088l0.33511,0.62833l0.37793,1.51172l0,1.84658l0.44786,1.79145l0,0.35026l0.04507,0.58586l0.33286,1.33145v0.41796l0.09346,0.42056l-0.0843,0.33191l0.10997,0.43989l0.56485,1.12969l0.14754,0.66393l0.62652,1.0442l0.55786,0.83679l0.40102,1.12286l0.74826,0.74826l0.63776,1.06293l0.1181,0.07086l0.75586,0.75586l0.0884,0.14733l0.27404,0.24913l0.75586,1.13379l0.05607,0.15699l0.33735,0.20241l0.69831,0.69831l0.89504,0.76718l0.0109,0.02616l0.66332,0.39799l1.51172,1.51172l1.88964,1.13379l0.08353,0.08353l1.03174,0.68782l0.49038,0.53942l0.16489,0.03664l1.51172,0.75586l0.71966,0.61686l0.89263,0.3188l0.96805,0.64537l0.43952,0.17581l1.272,0.91867l0.28254,0.10091l1.11576,-0.27894l0.48033,-0.18593l0.52681,-0.06585l0.19992,-0.04998h0.19992l1.86773,-0.23347l0.57785,-0.14446h0.41796l0.42056,-0.09346l0.26909,0.06834l3.20329,-0.29121l0.18349,0.02854l0.17676,-0.05692l11.26151,-0.75077l4.78914,-0.3684l4.28187,-0.35682l2.78995,-0.30999l1.86435,-0.31072l1.05139,0.08411l1.3089,-0.26178l0.10569,-0.02642h0.02642l2.32284,-0.46457l0.55917,0.02663l0.52205,-0.20209l3.02343,-0.37793l0.94097,0.11406l0.91955,-0.22989l0.54468,0l0.62551,-0.17872l1.03783,-0.03459l0.96166,-0.39179l1.8231,-0.26044l0.39273,-0.19637l1.05393,-0.23421l0.91085,-0.57963l0.40002,-0.13334l0.65862,-0.56453l2.18816,-1.09408l0.35676,-0.23784l0.41622,-0.14865l0.06229,-0.03114l0.06595,-0.01466l1.49054,-0.53233l0.6105,-0.407l0.84446,-0.30159l0.07439,-0.03967l0.69345,-0.59439l1.45984,-0.72992l0.40558,-0.49917l0.6589,-0.49418l0.38,-0.38l1.88964,-1.13379l3.40136,-3.40136l1.06293,-0.63776l0.07086,-0.1181l4.53515,-4.53515l1.06293,-0.63776l0.07086,-0.1181l2.26757,-2.26757l1.28111,-0.76867l1.00499,-1.10549l0.43607,-0.29071l0.03788,-0.04167l0.26338,-0.43897l1.88964,-1.88964l0.1181,-0.07086l0.63776,-1.06293l3.77929,-3.77929l0.1181,-0.07086l0.63776,-1.06293l1.21731,-1.21731l0.68782,-1.03174l2.17918,-1.98107l0.34307,-0.37738l0.86362,-1.43937l0.83938,-0.83938l2.19954,-3.29931l0.31536,-0.28669l0.16539,-0.3928l1.13379,-1.51172l0.18673,-0.15171l0.10024,-0.21871l1.10507,-1.38134l1.90649,-2.85974l0.17106,-0.15551l0.02708,-0.12184l0.37793,-0.75586l0.61686,-0.71966l0.3188,-0.89263l0.6494,-0.9741l0.2466,-0.73981l0.79365,-1.24717l0.34014,-1.02041l0.33736,-0.53014l0.27835,-0.77938l0.07878,-0.11816l0.11936,-0.53711l0.56485,-1.12969l0.48242,-1.92968l0.59886,-0.69341l0.04539,-0.12709l0.07848,-0.11771l0.36477,-0.91193l0.37267,-0.516l0.13808,-0.62134l0.37793,-0.75586l0.56453,-0.65862l0.51127,-1.53381l0.79365,-1.24717l0.34014,-1.02041l0.33736,-0.53014l0.27835,-0.77938l0.07878,-0.11816l0.11936,-0.53711l0.47683,-0.95367l1.65777,-4.14444l0.13102,-0.52409l0.75586,-1.41723v-0.09448l0.30194,-1.20775l0.07793,-0.3507l0.01948,-0.03897l0.3565,-1.42601l0.22234,-0.41688l-0.00098,-0.02061l0.07988,-0.39939l0.02065,-0.2685l0.08261,-0.24784l0.19478,-0.97391l0.15657,-0.33054v-0.36575l0.29136,-1.16543l0.01664,-0.08319v-0.02642l0.02642,-0.10569l0.26178,-1.3089l-0.08411,-1.05139l0.17384,-1.04303v-3.67164l0.30407,-1.21627l-0.09998,-1.24971l0.17384,-1.04303v-4.04957l0.36235,-1.44941l-0.07106,-1.49233l0.08664,-0.4332v-1.91607l0.44786,-1.79145l0,-1.84658l0.29136,-1.16543l0.01664,-0.08319v-1.91607l0.36235,-1.44941l-0.07106,-1.49233l0.08664,-0.4332l0,-12.53811l-0.00606,-0.02726l-0.30194,-1.20775l0,-0.15097l-0.05475,-0.24638l-0.85768,-1.81065l-0.48577,-2.42885l-1.00024,-2.50061l-0.1055,-0.77369l-0.39021,-0.67636l-0.37287,-1.30504l-1.79509,-3.59018l-0.32226,-0.42968l-0.76816,-1.82439l-0.51199,-0.70891l-0.70045,-0.87556l-0.10024,-0.21871l-0.18673,-0.15171l-1.62796,-2.17062l-0.38,-0.38l-0.63776,-1.06293l-0.1181,-0.07086l-0.75586,-0.75586l-0.0884,-0.14733l-0.27404,-0.24913l-0.68782,-1.03174l-0.46146,-0.46146l-0.0884,-0.14733l-0.27404,-0.24913l-0.27368,-0.41051l-0.69761,-0.59795l-0.17799,-0.10679l-0.32038,-0.32038l-0.89504,-0.76718l-0.07413,-0.17791l-0.56039,-0.37359l-0.41763,-0.25058l-0.08353,-0.08353l-1.03174,-0.68782l-0.28669,-0.31536l-0.3928,-0.16539l-0.42968,-0.32226l-1.05782,-0.52891l-1.12434,-0.96372l-0.76531,-0.17007l-1.51172,-0.75586l-0.71966,-0.61686l-0.34817,-0.12435l-0.06595,-0.01466l-0.06229,-0.03114l-0.41622,-0.14865l-0.35676,-0.23784l-0.67644,-0.33822l-0.19841,-0.17007l-0.93537,-0.20786l-0.55824,-0.27912l-4.34841,-1.44947l-2.33211,-0.66632l-0.08796,-0.05075l-0.10144,-0.00472l-2.87072,-0.86122l-1.33191,-0.22198l-0.79185,-0.34428l-0.86298,-0.02877l-0.62551,-0.17872l-0.16675,0l-1.21627,-0.30407l-1.24971,0.09998l-1.96574,-0.32762l-1.79314,-0.22414h-1.71164l-1.04741,-0.26185l-1.07391,0.11109l-1.5902,-0.22717h-15.2527l-1.5902,0.22717l-1.07391,-0.11109l-1.04741,0.26185h-1.02614l-0.80445,0.13407l-1.65247,0.33049l-0.24803,-0.01181l-0.22772,0.09901l-2.02899,0.33817l-0.30203,0.06041l-0.61096,0.24439l-1.02238,0.13942l-0.91045,0.48557l-1.42601,0.3565l-0.03897,0.01948l-0.3507,0.07793l-1.15314,0.28829l-0.37382,0.13351l-1.19251,0.636l-0.20046,0.05011l-0.78601,0.52401l-0.41024,0.14651l-0.14342,0.09127l-0.40002,0.13334l-0.65862,0.56453l-0.67644,0.33822l-1.49055,0.9937l-0.89263,0.3188l-0.71966,0.61686l-0.11811,0.05906l-0.85034,0.99206l-0.21919,0.09133l-0.14742,0.14742l-0.76718,0.89504l-0.56118,0.23383l-0.63736,0.4249l-0.82415,0.29434l-4.27474,2.56484l-0.29438,0.02154c-0.22045,0.99221 -0.53916,1.94743 -0.94541,2.85491z" fill="#ffffff" stroke-width="0.5"/><path d="M310.45,111.74389c1.43333,-0.6 2.78333,-1.3 4.05,-2.1c0.8,-0.5 1.6,-1 2.4,-1.5c1.46667,-1 2.88333,-2.05 4.25,-3.15c-0.36667,2.13333 -1.4,3.98333 -3.1,5.55c-1.26667,1.2 -2.55,2.36667 -3.85,3.5c-1.3,1.1 -2.61667,2.16667 -3.95,3.2c-1.2,0.93333 -2.46667,1.71667 -3.8,2.35c-1.56667,0.83333 -3.15,1.5 -4.75,2c1.7,3.23333 3.16667,6.56667 4.4,10c1.03333,3 1.88333,6.08333 2.55,9.25c1.13333,5.3 1.51667,10.63333 1.15,16c-0.66667,9.96667 -2.61667,19.76667 -5.85,29.4c-1.36667,4.1 -2.93333,8.1 -4.7,12c-2.8,6.16667 -6.11667,12.05 -9.95,17.65c-0.43333,0.66667 -0.88333,1.31667 -1.35,1.95c-0.43333,0.63333 -0.88333,1.26667 -1.35,1.9c-0.3,0.4 -0.6,0.8 -0.9,1.2c-1.56667,2.1 -3.2,4.16667 -4.9,6.2c-5.86667,6.9 -12.4,13.2 -19.6,18.9c-3.5,2.8 -7.1,5.43333 -10.8,7.9c-0.36667,0.23333 -0.73333,0.48333 -1.1,0.75c-4.63333,3.03333 -9.43333,5.8 -14.4,8.3c-0.56667,0.3 -1.13333,0.6 -1.7,0.9c-1.06667,0.5 -2.11667,1 -3.15,1.5c-0.2,0.06667 -0.38333,0.15 -0.55,0.25c-1.33333,0.6 -2.68333,1.2 -4.05,1.8l1.1,-0.9c-0.56667,0.16667 -1.18333,0.35 -1.85,0.55c-1.5,0.36667 -2.66667,0.6 -3.5,0.7l-1.6,1.3c-13,3.16667 -25.66667,2.23333 -38,-2.8c-12.13333,-4.93333 -18.81667,-14.43333 -20.05,-28.5c-2.4,-12 -3.2,-24.08333 -2.4,-36.25c0.8,-12 3.05,-23.76667 6.75,-35.3c4.03333,-12.56667 9.61667,-24.43333 16.75,-35.6c0.2,-0.33333 0.41667,-0.65 0.65,-0.95c3.83333,-5.9 8.16667,-11.35 13,-16.35c3.2,-3.3 6.61667,-6.41667 10.25,-9.35c0,-0.03333 0.01667,-0.05 0.05,-0.05c1,-0.8 2.03333,-1.6 3.1,-2.4c10.76667,-7.96667 22.83333,-12.11667 36.2,-12.45c13.6,-0.33333 26.01667,3.1 37.25,10.3c5.26667,3.36667 9.61667,7.65 13.05,12.85c1.5,0.33333 3.08333,0.6 4.75,0.8c3.26667,0.33333 6.43333,-0.1 9.5,-1.3M296.3,152.84389c-0.83333,-5.73333 -2.25,-11.4 -4.25,-17c-4.63333,-12.86667 -12.9,-22.45 -24.8,-28.75c-11.16667,-5.9 -22.95,-7.9 -35.35,-6c-4.96667,0.7 -9.63333,2.03333 -14,4c-2.13333,0.96667 -4.2,2.08333 -6.2,3.35c-2.7,1.7 -5.25,3.66667 -7.65,5.9c-0.33333,0.26667 -0.65,0.55 -0.95,0.85c-0.7,0.66667 -1.38333,1.35 -2.05,2.05c-2.16667,2.16667 -4.25,4.4 -6.25,6.7c-1.96667,2.26667 -3.83333,4.6 -5.6,7c-3.63333,4.83333 -6.91667,9.95 -9.85,15.35c-5.7,10.36667 -10.08333,21.25 -13.15,32.65c0.27044,-0.73958 0.55378,-1.47292 0.85,-2.2c-0.65404,2.02083 -1.10404,4.10417 -1.35,6.25c-0.09401,0.89271 -0.07734,1.60937 0.05,2.15c-0.7974,3.81836 -1.33073,7.86836 -1.6,12.15c-0.3,4.8 -0.66667,9.78333 -1.1,14.95c0.73333,10.23333 2.4,19.83333 5,28.8c0.3,1 0.5,2.13333 0.6,3.4l1.4,1.85c0.8,3.03333 2.21667,5.83333 4.25,8.4c0.36667,0.46667 0.65,0.93333 0.85,1.4l0.95,0.45l0.45,0.95l3.3,2.3c0.16667,0.56667 0.45,0.93333 0.85,1.1c0.3668,0.18333 0.80013,0.28333 1.3,0.3c0.07852,0.10326 0.17852,0.20326 0.3,0.3l0.35,0.65c0.26758,0.04557 0.53424,0.07891 0.8,0.1l1.8,1.1c0.76667,0.53333 1.46667,0.88333 2.1,1.05c0.30326,0.07578 0.71992,0.14245 1.25,0.2c10.91107,3.99701 21.81107,4.28034 32.7,0.85c1.43333,-0.4 2.86667,-0.8 4.3,-1.2l-0.5,0.4c1.26667,-0.4 2.63333,-0.88333 4.1,-1.45c0.76667,-0.3 1.83333,-0.73333 3.2,-1.3l0.4,-0.35c2.6,-1.2 5.15,-2.48333 7.65,-3.85c3.53333,-1.96667 6.98333,-4.06667 10.35,-6.3c0.63333,-0.4 1.25,-0.81667 1.85,-1.25c4.06667,-2.83333 7.98333,-5.9 11.75,-9.2c6.66667,-5.83333 12.25,-12.46667 16.75,-19.9c1.63333,-2.73333 3.11667,-5.56667 4.45,-8.5c0.53333,-1.16667 1.05,-2.31667 1.55,-3.45c0,-0.03333 0.01667,-0.06667 0.05,-0.1c0.8,-1.96667 1.56667,-3.93333 2.3,-5.9c1.4,-3.83333 2.61667,-7.7 3.65,-11.6c1.03333,-3.93333 1.88333,-7.88333 2.55,-11.85c0.26667,-1.7 0.5,-3.4 0.7,-5.1c0.2,-1.5 0.35,-3 0.45,-4.5c0.4,-5.8 0.21667,-11.53333 -0.55,-17.2z" fill="#000000" stroke-width="1"/></g></g></svg>